<svg width="90" height="90" viewBox="0 0 128 128" fill="none" xmlns="http://www.w3.org/2000/svg">
<path d="M101.231 104.695C83.1973 122.735 51.3338 120.108 30.0623 98.8291C8.7907 77.55 6.16511 45.6752 24.1984 27.6347C24.6221 27.2102 25.0543 26.7972 25.4949 26.3956C23.8475 24.8636 22.2042 23.3376 20.565 21.8179C20.1905 22.1691 19.8203 22.5265 19.4546 22.8901C-0.799591 43.1514 2.14904 78.9515 26.0383 102.852C49.9276 126.752 85.7176 129.702 105.972 109.438C106.462 108.948 106.938 108.449 107.402 107.94C105.849 106.318 104.296 104.701 102.743 103.09C102.257 103.637 101.753 104.172 101.231 104.695Z" fill="#8E7920"/>
<path d="M104.125 104.705C86.0916 122.744 54.2281 120.118 32.9565 98.8387C11.7323 77.6079 9.07252 45.8306 26.9697 27.769C25.3276 26.2381 23.689 24.716 22.0539 23.2026C2.12713 43.5158 5.16091 79.0823 28.9352 102.865C52.8227 126.761 88.6021 129.714 108.858 109.464C107.31 107.843 105.761 106.228 104.213 104.619L104.125 104.705Z" fill="#A8902C"/>
<path d="M102.481 28.8634C119.212 47.0919 116.239 78.0245 95.4413 98.8294C74.505 119.772 43.3078 122.647 25.1367 105.533C23.6532 107.209 22.1776 108.89 20.7098 110.576C41.1501 129.578 76.028 126.295 99.4617 102.849C122.75 79.5524 126.139 44.9501 107.538 24.4517C105.849 25.9205 104.164 27.3911 102.481 28.8634Z" fill="#8E7920"/>
<path d="M24.273 104.695C6.23976 86.6531 8.86448 54.7809 30.1404 33.5009C51.4164 12.2209 83.2755 9.59527 101.309 27.6349C101.711 28.0377 102.103 28.4475 102.484 28.8643C104.167 27.3914 105.853 25.922 107.542 24.4561C107.061 23.9245 106.563 23.4029 106.05 22.8912C85.7949 2.62809 50.0066 5.57777 26.1156 29.4782C2.22457 53.3785 -0.72494 89.1786 19.5319 109.44C19.9199 109.828 20.3137 110.209 20.7134 110.582C22.1823 108.896 23.658 107.215 25.1403 105.538C24.8454 105.262 24.5563 104.98 24.273 104.695Z" fill="#8E7920"/>
<path d="M35.4477 111.048L30.5951 115.904C33.3228 117.578 36.2185 118.961 39.2347 120.031L44.4016 114.862C41.2772 113.948 38.2717 112.668 35.4477 111.048Z" fill="#C4AA3B"/>
<path d="M109.122 23.0815C107.425 24.5498 105.733 26.0207 104.047 27.4942L104.199 27.6452C122.233 45.6849 119.607 77.5597 98.3355 98.8388C83.7319 113.448 64.1361 119.264 47.4503 115.639L42.1324 120.959C61.4983 126.492 85.0487 120.176 102.357 102.862C126.175 79.0323 129.178 43.3745 109.122 23.0815Z" fill="#C4AA3B"/>
<path d="M16.4348 85.2793L11.1608 90.5543C12.3553 94.5004 14.0739 98.2682 16.2707 101.757L21.1128 96.9129C18.9745 93.2939 17.3973 89.3714 16.4348 85.2793Z" fill="#C4AA3B"/>
<path d="M23.9956 101.117L19.2289 105.885C19.9201 106.743 20.6461 107.578 21.4068 108.392L26.1524 103.645C25.3904 102.828 24.6715 101.985 23.9956 101.117Z" fill="#C4AA3B"/>
<path d="M33.0302 33.5112C54.243 12.2909 85.9871 9.6205 104.047 27.4942C105.736 26.0207 107.427 24.5498 109.122 23.0815L108.947 22.8998C88.6917 2.63839 52.9008 5.58807 29.0089 29.4858C12.3494 46.1538 5.87369 68.6062 10.3471 87.5415L15.7958 82.0865C13.1667 65.9287 19.0991 47.4473 33.0302 33.5112Z" fill="#C4AA3B"/>
<path d="M21.1154 96.9141L16.2707 101.757C17.1756 103.188 18.1609 104.566 19.222 105.884L23.9886 101.116C22.9418 99.7784 21.9821 98.3749 21.1154 96.9141Z" fill="#EAD16A"/>
<path d="M26.4913 104.011C26.3742 103.89 26.2598 103.768 26.148 103.645L21.4025 108.392C21.6114 108.616 21.8233 108.838 22.038 109.059C22.1656 109.19 22.2941 109.32 22.4234 109.45C24.8853 111.914 27.628 114.08 30.5951 115.904L35.4478 111.049C32.42 109.308 29.6354 107.175 27.1663 104.705C26.9381 104.476 26.7131 104.245 26.4913 104.011Z" fill="#EAD16A"/>
<path d="M44.4016 114.861L39.2347 120.03C40.1892 120.37 41.1548 120.68 42.1315 120.959L47.4494 115.639C46.4224 115.415 45.4064 115.156 44.4016 114.861Z" fill="#EAD16A"/>
<path d="M15.7958 82.0864L10.3471 87.5415C10.5864 88.5566 10.8577 89.5609 11.1608 90.5544L16.4348 85.2794C16.1838 84.2273 15.9707 83.163 15.7958 82.0864Z" fill="#EAD16A"/>
<path d="M65.3159 111.504V110.113H63.7138V110.133C63.4724 110.308 58.4934 114.017 58.4934 118.563C58.4934 123.223 63.7244 127 63.7244 127L63.741 126.988H65.3159V125.621C66.8547 124.113 68.9545 121.516 68.9545 118.563C68.9545 115.61 66.8547 113.012 65.3159 111.504Z" fill="#8E7920"/>
<path d="M70.5715 118.563C70.5715 123.223 65.3405 127 65.3405 127C65.3405 127 60.1104 123.224 60.1104 118.563C60.1104 113.901 65.3413 110.125 65.3413 110.125C65.3413 110.125 70.5715 113.903 70.5715 118.563Z" fill="#A8902C"/>
<path d="M99.388 29.4781C75.9271 6.00888 40.9956 2.7422 20.565 21.8181C22.2036 23.3402 23.8469 24.8661 25.4949 26.3958C43.7257 9.72781 74.5955 12.7223 95.3632 33.5009C116.018 54.1644 119.092 84.816 102.742 103.092C104.295 104.703 105.848 106.32 107.401 107.942C126.073 87.4521 122.701 52.7998 99.388 29.4781Z" fill="#8E7920"/>
<path d="M109.111 37.3774L105.019 41.4669C106.829 43.9845 108.446 46.6349 109.858 49.3957L114.129 45.1227C112.629 42.433 110.953 39.8456 109.111 37.3774Z" fill="#A8902C"/>
<path d="M84.9784 16.729L80.6516 21.0556C84.2461 22.7535 87.6678 24.7956 90.8687 27.1534L94.9471 23.0753C91.8102 20.6808 88.4753 18.5577 84.9784 16.729Z" fill="#A8902C"/>
<path d="M98.8403 26.2598L94.8022 30.2992C95.6327 31.0175 96.4499 31.7616 97.254 32.5315L101.276 28.5078C100.477 27.735 99.6654 26.9857 98.8403 26.2598Z" fill="#A8902C"/>
<path d="M111.104 51.9804C119.47 70.503 117.441 91.2983 104.213 104.615C105.761 106.225 107.309 107.84 108.857 109.461L108.869 109.45C124.443 93.8704 126.297 69.1033 115.46 47.623L111.104 51.9804Z" fill="#A8902C"/>
<path d="M22.3487 22.8998C22.2498 22.9987 22.1512 23.0985 22.0529 23.1992C23.6874 24.7167 25.3261 26.2388 26.9688 27.7656C27.01 27.7243 27.0504 27.6821 27.0917 27.6418C39.9721 14.7612 59.9058 12.4192 77.997 19.8851L82.4195 15.4602C61.3604 5.57405 37.5054 7.73779 22.3487 22.8998Z" fill="#A8902C"/>
<path d="M94.9471 23.0752L90.8687 27.1533C92.2083 28.1386 93.5203 29.1862 94.8049 30.2962L98.8429 26.2567C97.5701 25.1415 96.2715 24.081 94.9471 23.0752Z" fill="#EAD16A"/>
<path d="M102.282 29.486C101.95 29.1531 101.616 28.8265 101.279 28.5024L97.2566 32.5261C97.5937 32.8481 97.9284 33.1756 98.2608 33.5087C100.726 35.973 102.986 38.6338 105.02 41.4647L109.108 37.3752C107.025 34.5847 104.744 31.9482 102.282 29.486Z" fill="#C4AA3B"/>
<path d="M114.133 45.123L109.861 49.3961C110.299 50.2526 110.713 51.114 111.104 51.9805L115.46 47.6231C115.037 46.7848 114.595 45.9514 114.133 45.123Z" fill="#C4AA3B"/>
<path d="M82.4196 15.46L77.9971 19.8849C78.8872 20.252 79.772 20.6425 80.6516 21.0564L84.9785 16.7289C84.1305 16.2857 83.2775 15.8627 82.4196 15.46Z" fill="#C4AA3B"/>
<path d="M65.4722 3.66847V2H63.5506V2.02371C63.26 2.2371 57.2855 6.68401 57.2855 12.1399C57.2855 17.7319 63.562 22.2649 63.562 22.2649L63.5831 22.2499H65.4722V20.6105C67.3156 18.8015 69.8394 15.6832 69.8394 12.1399C69.8394 8.5966 67.3191 5.4792 65.4722 3.66847Z" fill="#8E7920"/>
<path d="M71.7794 12.1401C71.7794 17.7321 65.5029 22.2651 65.5029 22.2651C65.5029 22.2651 59.2255 17.7321 59.2255 12.1401C59.2255 6.5481 65.5029 2.01514 65.5029 2.01514C65.5029 2.01514 71.7794 6.5481 71.7794 12.1401Z" fill="#A8902C"/>
<path d="M64.6382 16.2445C66.9895 16.2445 68.8957 14.3377 68.8957 11.9856C68.8957 9.63338 66.9895 7.72656 64.6382 7.72656C62.2869 7.72656 60.3807 9.63338 60.3807 11.9856C60.3807 14.3377 62.2869 16.2445 64.6382 16.2445Z" fill="#8E7920"/>
<path d="M66.4193 16.2445C68.7707 16.2445 70.6768 14.3377 70.6768 11.9856C70.6768 9.63338 68.7707 7.72656 66.4193 7.72656C64.068 7.72656 62.1618 9.63338 62.1618 11.9856C62.1618 14.3377 64.068 16.2445 66.4193 16.2445Z" fill="#C4AA3B"/>
</svg>
