<svg width="90" height="90" viewBox="0 0 128 128" fill="none" xmlns="http://www.w3.org/2000/svg">
<path d="M121.428 60.3091C117.115 54.7834 115.547 48.5061 113.887 41.8592C112.355 35.7273 110.782 29.4281 106.931 23.9724C105.741 22.2845 104.366 20.7353 102.831 19.3542C101.501 18.1571 100.125 17.0259 98.7025 15.9607C96.0173 13.9451 93.167 12.1591 90.1817 10.6216C88.6209 9.81799 87.0283 9.08509 85.4039 8.42284C78.5259 5.61924 71.1847 4.12226 63.7571 4.00876C63.4397 4 63.1232 4 62.8058 4H61.067L59.6343 4.98373C56.5339 7.11237 53.288 8.3878 49.914 9.33474C48.0095 9.86997 46.0639 10.2983 44.0805 10.7179L42.8889 10.9685C35.9761 12.4138 28.8283 13.9091 22.781 19.3542C16.5478 24.9512 11.5648 31.7972 8.1566 39.4464C4.74837 47.0956 2.99136 55.3763 3.00003 63.7491V65.9531L4.50552 67.5649C8.29248 71.6207 9.85409 77.9287 11.5121 84.6081L11.7015 85.3719C12.4784 88.4966 13.3158 91.7605 14.4644 94.9429C15.9339 99.0189 17.9146 102.96 20.9344 106.3C21.518 106.946 22.1343 107.561 22.781 108.144C28.6588 113.441 35.5325 117.517 43.002 120.134C44.6522 120.713 46.3272 121.218 48.0271 121.65C51.1068 122.433 54.244 122.969 57.409 123.254C59.1953 123.415 60.9937 123.497 62.804 123.498H65.0022L66.6129 122.004C67.9397 120.774 69.4296 119.733 71.0408 118.909C74.9128 116.916 79.2057 116.221 83.6766 115.493C90.2632 114.427 97.0743 113.324 102.831 108.14C109.065 102.543 114.048 95.6966 117.456 88.0475C120.864 80.3983 122.621 72.1176 122.612 63.7447V61.8176L121.428 60.3091ZM114.946 63.7491C114.953 71.0487 113.421 78.2681 110.45 84.9368C107.479 91.6055 103.135 97.5741 97.7003 102.454C92.6806 106.974 86.7402 107.935 81.0005 108.864C77.1031 109.495 73.36 110.102 69.9842 111.842C68.5806 112.561 67.2824 113.469 66.1263 114.54L64.7234 115.843H62.8058C61.2275 115.843 59.6598 115.772 58.1025 115.631C55.3425 115.381 52.6067 114.913 49.921 114.229C48.4409 113.853 46.9796 113.412 45.5369 112.908C39.025 110.625 33.0324 107.072 27.9077 102.454C27.3438 101.947 26.8065 101.41 26.2979 100.847C23.6674 97.9353 21.9383 94.4988 20.6564 90.9484C19.6595 88.1698 18.9291 85.3246 18.2566 82.6012C18.2017 82.3781 18.1464 82.1559 18.0909 81.9346C16.6476 76.1119 15.2851 70.6116 11.9821 67.0761L10.6669 65.6745V63.7491C10.6589 56.4496 12.1903 49.2302 15.1615 42.5614C18.1327 35.8926 22.477 29.9241 27.9112 25.0446C33.1835 20.2933 39.415 18.9942 45.4378 17.7337L46.4769 17.5156C48.2059 17.1503 49.9026 16.7754 51.5624 16.3093C54.5041 15.4842 57.3336 14.3717 60.0368 12.5163L61.2854 11.6587H62.8014C63.0785 11.6587 63.3549 11.6611 63.6309 11.6657C70.1062 11.7652 76.5061 13.0702 82.5025 15.5139C83.9177 16.0909 85.3063 16.7301 86.6683 17.4315C89.2725 18.7711 91.7589 20.328 94.101 22.0856C95.3379 23.0141 96.5362 24.0005 97.696 25.0446C99.035 26.2497 100.234 27.6013 101.271 29.0742C104.629 33.8308 106 39.3232 107.336 44.6667C108.782 50.4613 110.149 55.9345 113.912 60.7515L114.944 62.0742L114.946 63.7491Z" fill="#725044"/>
<path d="M125.357 60.31C124.007 58.57 122.856 56.6856 121.923 54.6914C121.33 53.4318 120.803 52.142 120.345 50.8275C119.333 47.9429 118.583 44.9409 117.814 41.86C117.375 40.1081 116.937 38.3456 116.44 36.5927C115.198 32.2006 113.609 27.8723 110.856 23.9733C110.099 22.9007 109.267 21.8832 108.366 20.9284C107.86 20.3923 107.324 19.8667 106.756 19.3516C106.145 18.8009 105.523 18.2648 104.89 17.7433C104.149 17.1301 103.394 16.535 102.628 15.9581C101.472 15.0908 100.289 14.2692 99.0788 13.493C97.4648 12.4547 95.8077 11.497 94.1072 10.6198C92.5465 9.81683 90.9539 9.08363 89.3295 8.42022C87.2953 7.59223 85.2171 6.87692 83.1041 6.27756C82.1396 6.00425 81.1751 5.75197 80.1939 5.52684C79.7082 5.41471 79.2207 5.30901 78.7314 5.20973C75.0949 4.46819 71.3972 4.06614 67.6862 4.00876C67.3697 4 67.0523 4 66.7348 4H64.9961L63.5634 4.98373C60.463 7.11237 57.217 8.38868 53.843 9.33562C51.9386 9.86909 49.9973 10.3001 48.0096 10.7188L46.818 10.9685C39.9052 12.4147 32.7574 13.9091 26.71 19.3542C20.4771 24.9513 15.4942 31.7974 12.086 39.4465C8.67776 47.0957 6.92066 55.3763 6.92911 63.7491V65.954L8.43635 67.5658C9.70072 68.9201 10.7161 70.5266 11.5718 72.3127C12.1667 73.5758 12.685 74.8734 13.1238 76.1986C14.0094 78.8266 14.717 81.6814 15.443 84.6081C15.5061 84.8621 15.5692 85.117 15.6324 85.3728C16.3592 88.2951 17.1396 91.34 18.1751 94.3262C18.2464 94.5318 18.3192 94.7362 18.3935 94.9394C19.1826 97.1171 20.1129 99.2554 21.2703 101.286C22.0595 102.677 22.9616 104.002 23.9674 105.246C24.2567 105.602 24.5531 105.953 24.8635 106.297C25.4473 106.942 26.0637 107.555 26.71 108.137C29.244 110.42 31.9689 112.481 34.8548 114.3C35.6369 114.792 36.4295 115.266 37.2327 115.721C40.3264 117.478 43.5712 118.955 46.9285 120.134C47.9415 120.49 48.9645 120.816 49.9973 121.113C50.6471 121.301 51.2994 121.483 51.9561 121.65C52.7476 121.851 53.5441 122.037 54.3455 122.205C56.6542 122.693 58.9897 123.044 61.3398 123.256C63.1256 123.418 64.9239 123.499 66.7348 123.5H68.9365L70.5472 122.006C71.8732 120.777 73.3623 119.735 74.9725 118.912C78.8445 116.918 83.1374 116.222 87.6083 115.495C94.1949 114.429 101.006 113.326 106.763 108.142C112.996 102.545 117.979 95.6996 121.387 88.0508C124.795 80.4019 126.552 72.1216 126.543 63.7491V61.822L125.357 60.31ZM118.875 63.7491C118.883 71.0488 117.351 78.2682 114.38 84.937C111.408 91.6057 107.064 97.5743 101.629 102.454C96.6096 106.974 90.6692 107.935 84.9296 108.864C81.0322 109.495 77.2891 110.102 73.9133 111.842C72.5093 112.56 71.2111 113.468 70.0553 114.54L68.6524 115.843H66.7348C65.1566 115.843 63.5888 115.772 62.0316 115.63C61.6967 115.599 61.3635 115.566 61.0294 115.529C59.4459 115.354 57.8776 115.109 56.3244 114.794C55.4941 114.625 54.669 114.444 53.8501 114.231C52.37 113.855 50.9086 113.414 49.466 112.91C47.2097 112.119 45.0107 111.174 42.8846 110.081C41.5402 109.389 40.225 108.639 38.939 107.83C36.4224 106.244 34.0464 104.446 31.8368 102.456C31.2727 101.949 30.7354 101.412 30.2269 100.849C29.9312 100.522 29.6471 100.188 29.3747 99.8475C28.3722 98.5929 27.4884 97.248 26.7346 95.8303C25.9 94.2573 25.1817 92.6253 24.5855 90.9475C24.3146 90.1951 24.0638 89.4373 23.8279 88.6779C23.194 86.6377 22.6706 84.5888 22.1778 82.6038C22.1225 82.3804 22.0673 82.1588 22.0121 81.9372C21.0134 77.9077 20.0533 74.0376 18.4636 70.8621C17.8853 69.6794 17.1683 68.5696 16.3277 67.5561C16.1891 67.3932 16.0489 67.232 15.9033 67.0761L14.5881 65.6745V63.7491C14.5813 56.449 16.1141 49.2293 19.0867 42.5606C22.0592 35.8918 26.4048 29.9235 31.8403 25.0446C37.1126 20.2977 43.3441 18.9942 49.3704 17.7337L50.4094 17.5156C52.1385 17.1511 53.8352 16.7762 55.495 16.3102C58.4367 15.4842 61.2662 14.3717 63.9694 12.5163L65.218 11.6587H66.734C67.011 11.6587 67.2875 11.6611 67.5634 11.6657C69.0546 11.6891 70.5376 11.7767 72.0124 11.9285C73.607 12.0897 75.187 12.3233 76.7524 12.6293C77.3276 12.7414 77.9002 12.8626 78.4701 12.9929C81.1886 13.6191 83.8522 14.4631 86.4351 15.5166C87.8503 16.093 89.2389 16.7318 90.6009 17.4332C91.5887 17.9419 92.5611 18.4829 93.518 19.0564C95.0737 19.988 96.5798 21 98.0301 22.0882C98.5071 22.4465 98.9779 22.8161 99.4444 23.1911C100.187 23.7885 100.915 24.4069 101.629 25.0464C102.096 25.4677 102.536 25.8987 102.955 26.3385C103.77 27.1941 104.522 28.1081 105.203 29.0733C108.078 33.144 109.5 37.7517 110.683 42.3488C110.882 43.1226 111.078 43.8955 111.268 44.6676C112.274 48.6971 113.242 52.5663 115.001 56.171C115.58 57.3652 116.25 58.514 117.003 59.6075C117.266 59.9929 117.547 60.3748 117.842 60.7524L118.874 62.0742L118.875 63.7491Z" fill="#8E6352"/>
<path d="M13.485 37.6901L13.9909 40.9952C14.0304 41.258 14.0786 41.5348 14.2706 41.7153C14.4138 41.8307 14.5814 41.9119 14.7608 41.9527L16.453 42.473C16.5749 42.5107 16.7099 42.5475 16.8257 42.494C16.9677 42.4275 17.0186 42.2558 17.0545 42.1033L17.5096 40.1692C17.5876 39.8354 17.6639 39.4728 17.5218 39.1609C17.3798 38.8491 16.9177 38.6721 16.6854 38.9244C17.0642 38.1053 16.5977 37.0375 15.7779 36.667C14.958 36.2964 13.9129 36.6004 13.3359 37.2933" fill="#AD9F8A"/>
<path d="M15.7086 48.7489C15.2264 48.4143 15.1071 47.717 14.6266 47.3797C14.1672 47.0565 13.5438 47.1678 12.9957 47.2921C12.9023 47.3042 12.8145 47.3435 12.7432 47.4051C12.6555 47.5006 12.6555 47.6495 12.6775 47.7792C12.8467 48.8304 13.848 49.6888 14.916 49.6932C15.2474 49.6932 15.67 49.5014 15.613 49.1746" fill="#7C4A3A"/>
<path d="M12.0138 49.4996C11.9261 48.8365 10.8879 48.7331 10.4355 49.2245C9.98306 49.7159 9.97078 50.4596 10.0146 51.128C10.0154 51.349 10.0592 51.5676 10.1435 51.7719C10.4793 52.4595 11.4587 52.4113 12.2128 52.258C12.4883 51.5792 12.6081 50.8474 12.5635 50.1163" fill="#606060"/>
<path d="M20.1453 33.0337C19.642 32.9758 19.1896 33.413 19.0502 33.9C18.9108 34.3871 19.0055 34.9056 19.101 35.4023C19.7464 35.8885 20.7792 35.7387 21.2589 35.0878C21.7385 34.437 21.578 33.4077 20.9213 32.9355" fill="#86A9B7"/>
<path d="M18.3486 80.7509C18.2189 80.3129 17.5893 80.2156 17.2088 80.4609C16.8283 80.7062 16.631 81.1538 16.4591 81.576C16.0979 82.4625 15.7296 83.4226 15.9506 84.3547C16.1417 85.1579 16.7397 85.7983 17.3728 86.3318C17.5358 86.4702 17.7454 86.613 17.9479 86.542C18.1023 86.4886 18.1899 86.33 18.2627 86.1837C18.7117 85.2911 19.1658 84.3827 19.3421 83.3998C19.5183 82.417 19.3824 81.3299 18.7494 80.5564" fill="#AD9F8A"/>
<path d="M16.7108 72.3633C16.1374 73.1333 15.8121 74.1827 16.1961 75.0631C16.5802 75.9435 17.8708 76.3928 18.5635 75.7245C18.7253 75.558 18.8541 75.3624 18.9432 75.1481C19.2729 74.4263 19.3597 73.5371 18.9432 72.8626C18.5267 72.1881 17.5008 71.8885 16.8949 72.4027" fill="#86A9B7"/>
<path d="M110.684 31.3192C110.465 31.8768 110.275 32.4455 110.115 33.023C110.06 33.1763 110.044 33.341 110.069 33.5021C110.114 33.6949 110.268 33.8411 110.419 33.9638C111.144 34.5263 112.046 34.8101 112.962 34.7636C113.178 34.1171 113.401 33.4434 113.313 32.7663C113.225 32.0892 112.765 31.4059 112.085 31.3113C111.703 31.2579 111.277 31.3884 110.946 31.186" fill="#606060"/>
<path d="M112.317 97.7227C111.593 97.7384 110.771 97.8006 110.319 98.3656C109.923 98.8588 109.975 99.62 110.351 100.127C110.727 100.634 111.37 100.901 112.001 100.931C112.273 100.944 112.567 100.908 112.767 100.725C112.925 100.578 112.998 100.363 113.046 100.154C113.221 99.3693 113.129 98.5488 112.783 97.8234" fill="#606060"/>
<path d="M66.6348 119.167C66.2451 118.7 65.7171 118.368 65.1267 118.22L64.9566 121.152C64.9408 121.415 64.9373 121.718 65.1241 121.908C65.2481 122.015 65.3971 122.088 65.5572 122.121L67.7449 122.767L68.456 120.893C68.5559 120.63 68.6454 120.298 68.456 120.09C68.1929 119.806 67.5195 119.856 67.5792 119.476" fill="#AD9F8A"/>
<path d="M77.6582 112.775C77.2198 112.753 76.7664 112.734 76.364 112.905C75.9615 113.076 75.6292 113.496 75.7108 113.925C75.7572 114.171 75.9256 114.376 75.9949 114.616C76.1448 115.134 75.8195 115.746 76.0983 116.206C76.3052 116.545 76.7472 116.637 77.14 116.699C77.4714 116.75 77.8519 116.786 78.1045 116.568C78.4613 116.256 78.3193 115.666 78.5227 115.239C78.7261 114.813 79.2242 114.634 79.6178 114.375C80.0115 114.115 80.3456 113.567 80.0563 113.196C79.9072 113.006 79.6503 112.947 79.4144 112.899L77.9677 112.607" fill="#7C4A3A"/>
<path d="M43.2046 111.882C42.7785 111.586 42.1472 111.852 41.8832 112.299C41.6193 112.746 41.6263 113.296 41.6614 113.813C41.6965 114.331 41.7491 114.869 41.558 115.351C41.422 115.695 41.2072 116.175 41.5316 116.356C41.6306 116.4 41.7393 116.418 41.8473 116.408L44.6689 116.38L44.9118 114.803C44.9942 114.265 45.0766 113.709 44.9451 113.18C44.8136 112.651 44.4102 112.151 43.8701 112.076" fill="#86A9B7"/>
<path d="M38.54 110.375C37.8166 110.39 36.9942 110.452 36.5417 111.017C36.1472 111.511 36.198 112.272 36.5751 112.779C36.9521 113.286 37.593 113.553 38.2252 113.582C38.4961 113.596 38.7899 113.56 38.9898 113.377C39.1485 113.23 39.2213 113.015 39.2695 112.805C39.4447 112.021 39.3521 111.201 39.0065 110.475" fill="#606060"/>
<path d="M51.3414 115.001C50.9521 114.533 50.4239 114.201 49.8333 114.053L49.6632 116.985C49.6474 117.248 49.6448 117.551 49.8306 117.741C49.9546 117.848 50.1037 117.921 50.2638 117.954L52.4558 118.6L53.1669 116.727C53.2669 116.464 53.3563 116.132 53.1669 115.923C52.9039 115.639 52.2305 115.689 52.2857 115.31" fill="#AD9F8A"/>
<path d="M83.097 8.31963C82.7173 8.30036 82.3227 8.28371 81.9729 8.43176C81.6231 8.5798 81.3346 8.94596 81.4056 9.31913C81.4459 9.53199 81.5924 9.71069 81.6529 9.9183C81.7826 10.3686 81.4977 10.9003 81.7405 11.3006C81.9203 11.5949 82.3043 11.6746 82.6454 11.7281C82.933 11.7728 83.2592 11.8069 83.4836 11.6142C83.7932 11.3444 83.6704 10.8311 83.8466 10.4605C84.0229 10.09 84.4552 9.93494 84.798 9.70894C85.1408 9.48294 85.4302 9.00815 85.1759 8.68491C85.0461 8.52111 84.8252 8.46855 84.6182 8.42738L83.3644 8.17334" fill="#7C4A3A"/>
<path d="M98.5237 18.0946C98.216 17.8808 97.76 18.0735 97.5698 18.3959C97.3795 18.7183 97.3839 19.116 97.4093 19.49C97.4347 19.864 97.4724 20.2521 97.3348 20.5999C97.2357 20.8486 97.0822 21.1955 97.3155 21.3261C97.387 21.3579 97.4655 21.3709 97.5435 21.3637L99.5812 21.3436L99.7565 20.2048C99.8161 19.8159 99.8758 19.4164 99.7802 19.0327C99.6846 18.6491 99.3944 18.289 99.0042 18.2356" fill="#86A9B7"/>
<path d="M93.7618 14.2856C93.2357 14.297 92.6456 14.3417 92.3185 14.7499C92.0336 15.1064 92.0704 15.6557 92.3422 16.0218C92.614 16.388 93.0779 16.5807 93.5347 16.6026C93.7302 16.6114 93.9424 16.586 94.0871 16.4537C94.1938 16.3392 94.264 16.1956 94.2887 16.0411C94.4151 15.4747 94.3481 14.8823 94.0985 14.3584" fill="#606060"/>
<path d="M26.9915 104.535C26.7105 104.197 26.3291 103.957 25.9025 103.85L25.7797 105.965C25.7683 106.157 25.7666 106.373 25.9007 106.51C25.9903 106.587 26.098 106.64 26.2137 106.664L27.792 107.131L28.3049 105.777C28.3777 105.586 28.4417 105.348 28.3049 105.197C28.1164 104.992 27.628 105.028 27.6684 104.752" fill="#AD9F8A"/>
<path d="M12.588 54.993C12.2083 54.9737 11.8137 54.9571 11.4639 55.1051C11.114 55.2531 10.8256 55.6193 10.8957 55.9925C10.9369 56.2053 11.0834 56.384 11.143 56.5916C11.2736 57.0419 10.9887 57.5736 11.2307 57.9731C11.406 58.2674 11.7945 58.348 12.1347 58.4014C12.4231 58.4461 12.7537 58.4794 12.9738 58.2875C13.2833 58.0169 13.1597 57.5044 13.3368 57.1339C13.5139 56.7633 13.9444 56.6083 14.2881 56.3823C14.6318 56.1563 14.9203 55.6815 14.666 55.3583C14.5362 55.1936 14.3153 55.1419 14.1084 55.1007L12.8545 54.8467" fill="#7C4A3A"/>
<path d="M10.2154 62.4906C9.90764 62.2768 9.45082 62.4695 9.26055 62.7919C9.07028 63.1143 9.07554 63.512 9.10097 63.8851C9.12639 64.2583 9.1641 64.6481 9.02644 64.9959C8.92736 65.2447 8.77304 65.5915 9.00715 65.7221C9.0787 65.7537 9.15723 65.7664 9.23512 65.7589L11.272 65.7396L11.4473 64.6008C11.5069 64.2119 11.5666 63.8124 11.471 63.4279C11.3754 63.0433 11.0852 62.685 10.695 62.6316" fill="#86A9B7"/>
<path d="M23.1668 90.1294C22.6407 90.1408 22.0506 90.1855 21.7236 90.5937C21.4386 90.9502 21.4754 91.4994 21.7472 91.8656C22.0191 92.2318 22.4829 92.4245 22.9388 92.4464C23.1352 92.4551 23.3474 92.4297 23.4912 92.2975C23.5985 92.1833 23.6688 92.0395 23.6929 91.8849C23.8201 91.3186 23.7534 90.726 23.5035 90.2021" fill="#606060"/>
<path d="M105.793 103.873C105.414 103.854 105.019 103.837 104.669 103.985C104.319 104.133 104.031 104.499 104.101 104.872C104.142 105.085 104.289 105.264 104.348 105.472C104.479 105.922 104.194 106.454 104.436 106.853C104.611 107.147 105 107.228 105.34 107.281C105.629 107.326 105.959 107.359 106.179 107.167C106.489 106.897 106.365 106.384 106.542 106.014C106.719 105.643 107.15 105.488 107.494 105.262C107.837 105.036 108.126 104.561 107.871 104.238C107.742 104.073 107.521 104.022 107.314 103.981L106.06 103.727" fill="#7C4A3A"/>
<path d="M114.293 93.0623C113.985 92.8486 113.529 93.0413 113.338 93.3637C113.148 93.686 113.153 94.0837 113.179 94.4569C113.204 94.8301 113.242 95.2199 113.104 95.5677C113.005 95.8164 112.851 96.1633 113.085 96.2938C113.156 96.3255 113.235 96.3382 113.313 96.3306L115.35 96.3114L115.525 95.1726C115.585 94.7836 115.644 94.3842 115.549 93.9996C115.453 93.6151 115.163 93.2568 114.773 93.2034" fill="#86A9B7"/>
<path d="M99.7126 107.649C99.1865 107.66 98.5964 107.705 98.2693 108.113C97.9844 108.47 98.0212 109.019 98.293 109.385C98.5648 109.751 99.0287 109.944 99.4846 109.966C99.681 109.975 99.8932 109.949 100.037 109.817C100.144 109.703 100.215 109.559 100.239 109.404C100.366 108.838 100.299 108.246 100.049 107.722" fill="#606060"/>
<path d="M107.031 99.9625C106.75 99.6248 106.369 99.3853 105.942 99.2783L105.82 101.396C105.808 101.588 105.806 101.805 105.941 101.942C106.03 102.019 106.138 102.072 106.254 102.095L107.832 102.562L108.346 101.209C108.418 101.018 108.482 100.78 108.346 100.629C108.157 100.423 107.669 100.46 107.709 100.184" fill="#AD9F8A"/>
<path d="M46.2577 13.8216C45.878 13.8023 45.4834 13.7857 45.1336 13.9337C44.7837 14.0818 44.4953 14.4479 44.5654 14.8211C44.6066 15.0339 44.753 15.2126 44.8127 15.4203C44.9433 15.8705 44.6583 16.4022 44.9003 16.8017C45.0801 17.096 45.4641 17.1766 45.8043 17.23C46.0928 17.2747 46.4234 17.308 46.6434 17.1162C46.953 16.8455 46.8293 16.333 47.0065 15.9625C47.1836 15.5919 47.6141 15.4369 47.9578 15.2109C48.3015 14.9849 48.59 14.5101 48.3357 14.1869C48.2059 14.0222 47.985 13.9705 47.778 13.9293L46.5242 13.6753" fill="#7C4A3A"/>
<path d="M34.9415 15.5374C34.6337 15.3237 34.1769 15.5164 33.9866 15.8388C33.7964 16.1611 33.8016 16.5588 33.827 16.932C33.8525 17.3052 33.8902 17.695 33.7525 18.0427C33.6534 18.2915 33.4991 18.6384 33.7332 18.7689C33.8048 18.8006 33.8833 18.8133 33.9612 18.8057L35.998 18.7865L36.1734 17.6477C36.233 17.2587 36.2926 16.8593 36.1971 16.4747C36.1015 16.0902 35.8113 15.7319 35.4211 15.6785" fill="#86A9B7"/>
<path d="M39.1248 15.9336C38.5987 15.945 38.0086 15.9897 37.6816 16.3979C37.3966 16.7544 37.4334 17.3036 37.7053 17.6698C37.9771 18.036 38.4409 18.2287 38.8968 18.2506C39.0933 18.2593 39.3054 18.2339 39.4492 18.1017C39.5565 17.9875 39.6268 17.8437 39.6509 17.6891C39.7781 17.1228 39.7114 16.5302 39.4615 16.0063" fill="#606060"/>
<path d="M60.2095 9.21051C59.9282 8.8729 59.5469 8.63332 59.1205 8.52637L58.9977 10.6445C58.9863 10.8363 58.9837 11.0527 59.1187 11.1902C59.2083 11.2671 59.316 11.3198 59.4317 11.3435L61.01 11.8096L61.5238 10.457C61.5966 10.2661 61.6606 10.0278 61.5238 9.87713C61.3353 9.67128 60.8469 9.70807 60.8872 9.43213" fill="#AD9F8A"/>
<path d="M121.751 64.2781C121.372 64.2589 120.977 64.2422 120.627 64.3903C120.277 64.5383 119.989 64.9045 120.059 65.2776C120.1 65.4905 120.247 65.6692 120.306 65.8768C120.437 66.327 120.152 66.8588 120.394 67.2582C120.569 67.5526 120.958 67.6331 121.298 67.6866C121.587 67.7313 121.917 67.7645 122.137 67.5727C122.447 67.302 122.323 66.7896 122.5 66.419C122.677 66.0485 123.108 65.8934 123.452 65.6674C123.795 65.4414 124.084 64.9666 123.829 64.6434C123.7 64.4787 123.479 64.427 123.272 64.3859L122.018 64.1318" fill="#7C4A3A"/>
<path d="M114.293 46.8104C113.985 46.5966 113.529 46.7894 113.338 47.1117C113.148 47.4341 113.153 47.8318 113.179 48.2049C113.204 48.5781 113.242 48.9679 113.104 49.3157C113.005 49.5645 112.851 49.9114 113.085 50.0419C113.156 50.0736 113.235 50.0862 113.313 50.0787L115.35 50.0594L115.525 48.9206C115.585 48.5317 115.644 48.1322 115.549 47.7477C115.453 47.3631 115.163 47.0048 114.773 46.9514" fill="#86A9B7"/>
<path d="M120.581 75.6758C120.055 75.6872 119.465 75.7318 119.138 76.1401C118.853 76.4966 118.889 77.0458 119.161 77.412C119.433 77.7782 119.897 77.9709 120.353 77.9928C120.549 78.0015 120.761 77.9761 120.905 77.8439C121.013 77.7297 121.083 77.5859 121.107 77.4313C121.234 76.865 121.167 76.2724 120.918 75.7485" fill="#606060"/>
<path d="M123.165 74.734C122.884 74.3963 122.502 74.1568 122.076 74.0498L121.953 76.168C121.942 76.3598 121.939 76.5762 122.074 76.7137C122.164 76.7905 122.271 76.8433 122.387 76.867L123.965 77.333L124.479 75.9805C124.552 75.7895 124.616 75.5513 124.479 75.4006C124.291 75.1947 123.802 75.2315 123.843 74.9556" fill="#AD9F8A"/>
<path d="M90.8569 10.097C90.5491 9.88326 90.0932 10.076 89.902 10.3983C89.7109 10.7207 89.717 11.1184 89.7424 11.4916C89.7679 11.8647 89.8056 12.2545 89.6679 12.6023C89.5688 12.8511 89.4154 13.1971 89.6486 13.3276C89.72 13.3599 89.7986 13.3729 89.8766 13.3653L91.9143 13.3451L92.0897 12.2064C92.1493 11.8166 92.2089 11.418 92.1133 11.0334C92.0178 10.6489 91.7275 10.2906 91.3374 10.2372" fill="#86A9B7"/>
<path d="M12.7485 43.189C12.4673 42.8514 12.0859 42.6118 11.6595 42.5049L11.5368 44.623C11.5254 44.8149 11.5227 45.0312 11.6578 45.1688C11.7475 45.2454 11.8552 45.2981 11.9708 45.322L13.5491 45.7881L14.062 44.4356C14.1348 44.2446 14.1988 44.0063 14.062 43.8557C13.8735 43.6498 13.3851 43.6866 13.4254 43.4106" fill="#AD9F8A"/>
<path d="M123.913 68.262C123.605 68.0483 123.149 68.241 122.958 68.5634C122.767 68.8857 122.773 69.2834 122.798 69.6566C122.824 70.0298 122.861 70.4196 122.724 70.7673C122.625 71.0161 122.471 71.3621 122.704 71.4926C122.776 71.5249 122.854 71.5379 122.932 71.5303L124.97 71.5102L125.145 70.3714C125.205 69.9816 125.265 69.583 125.169 69.1985C125.074 68.8139 124.783 68.4556 124.393 68.4022" fill="#86A9B7"/>
<path d="M95.0769 107.31C94.3535 107.326 93.531 107.388 93.0786 107.952C92.684 108.446 92.7349 109.207 93.1119 109.715C93.4889 110.223 94.1299 110.488 94.7621 110.518C95.033 110.53 95.3276 110.495 95.5267 110.311C95.6854 110.166 95.7581 109.95 95.8064 109.74C95.9819 108.956 95.8893 108.136 95.5433 107.411" fill="#606060"/>
<path d="M31.2142 20.2461C30.6881 20.2575 30.0972 20.303 29.771 20.7104C29.4851 21.0669 29.522 21.6161 29.7947 21.9832C30.0673 22.3502 30.5303 22.542 30.9862 22.5631C31.1818 22.5727 31.3948 22.5464 31.5386 22.4142C31.6461 22.3002 31.7164 22.1563 31.7403 22.0016C31.867 21.4352 31.8003 20.8429 31.5509 20.3188" fill="#606060"/>
</svg>
