<svg id="Layer_1" data-name="Layer 1" xmlns="http://www.w3.org/2000/svg" xmlns:xlink="http://www.w3.org/1999/xlink" width="618" height="320" viewBox="0 0 618 320"><defs><style>.cls-1{fill:none;}.cls-2{clip-path:url(#clip-path);}.cls-3{fill:#a8e5d2;}.cls-4{fill:#d9fff3;}.cls-5{fill:#c8ede1;}.cls-6{fill:#fff;}.cls-7{fill:#669e69;}.cls-8{fill:#bfafbc;}.cls-9{fill:#84c18e;}.cls-10{fill:#dcffa4;}.cls-11{fill:#ebff76;}.cls-12{fill:#cad658;}.cls-13{fill:#9eb557;}.cls-14{fill:#c8e872;}.cls-15{fill:#5a8245;}.cls-16{fill:#3f5933;}.cls-17{fill:#599b62;}.cls-18{fill:#756c7a;}.cls-19{fill:#8a828e;}.cls-20{fill:#5ca06a;}.cls-21{fill:#488252;}.cls-22{fill:#afd166;}.cls-23{fill:#8eb55b;}.cls-24{fill:#eaf469;}.cls-25{fill:#626584;}.cls-26{fill:#968fb5;}.cls-27{fill:#787a9b;}.cls-28{fill:#68444c;}.cls-29{fill:#7a5159;}.cls-30{fill:#966672;}.cls-31{fill:#89606a;}.cls-32{fill:#427c50;}.cls-33{fill:#366b4b;}.cls-34{fill:#254f34;}.cls-35{fill:#4d8962;}.cls-36{fill:#fff374;opacity:0.7;isolation:isolate;}.cls-37{fill:#564859;}.cls-38{fill:#655668;}.cls-39{fill:#937692;}.cls-40{fill:#a68ead;}.cls-41{fill:#78697c;}.cls-42{fill:#2f5e39;}.cls-43{fill:url(#linear-gradient);}.cls-44{fill:url(#linear-gradient-2);}.cls-45{fill:#8c616b;}.cls-46{fill:#9e7480;}.cls-47{fill:#ace26d;}.cls-48{fill:#76647a;}.cls-49{fill:#88788e;}</style><clipPath id="clip-path"><rect class="cls-1" width="618" height="320"/></clipPath><linearGradient id="linear-gradient" x1="-156.57" y1="189.28" x2="461.45" y2="189.28" gradientTransform="matrix(1, 0, 0, -1, 155.78, 473.67)" gradientUnits="userSpaceOnUse"><stop offset="0" stop-color="#53702c"/><stop offset="1" stop-color="#6d913d"/></linearGradient><linearGradient id="linear-gradient-2" x1="-155.84" y1="206.01" x2="462.16" y2="206.01" gradientTransform="matrix(1, 0, 0, -1, 155.78, 473.67)" gradientUnits="userSpaceOnUse"><stop offset="0" stop-color="#6d913d"/><stop offset="1" stop-color="#8eb55b"/></linearGradient></defs><g id="Layer_2" data-name="Layer 2"><g id="Layer_1-2" data-name="Layer 1-2"><g class="cls-2"><rect class="cls-3" y="0.26" width="618" height="320"/><path class="cls-4" d="M200.38,44.65a20.71,20.71,0,0,0,1.13,2.26A6.67,6.67,0,0,0,200.38,44.65Z"/><path class="cls-4" d="M180.35,48.31a7.57,7.57,0,0,0-1.86-1.57A2.44,2.44,0,0,0,180.35,48.31Z"/><path class="cls-5" d="M286.45,48.91c-7.21-4-16.82-4.4-23.64-.4,5.61-6,7.62-14,2-19.19-8.82-8-21.64,3.2-24.84,12.79,1.2-5.59-1.6-13.19-8-12-4.81.4-6,6-7.22,10.39,0-7.2-6-13.19-12.42-14.79a13.18,13.18,0,0,0-10,2c-5.26,3.15-4.37,11.21-1.92,16.93a6.42,6.42,0,0,1,1.12,2.25,23.56,23.56,0,0,1-1.12-2.25,8.26,8.26,0,0,0-3.69-2.54c-4.4-2.4-11.62-3.2-14,1.6-1.6,3.19-.8,7.59-.4,11.59-3.21-4.4-9.62-4.8-14-2.4-1.2.8-2.4,2.4-2.4,3.6a8.23,8.23,0,0,0,.29,3.72,6.19,6.19,0,0,0,2.52.45q11.73-.18,23.53-.17h78.44c5.35,0,17.45,2.32,20-3.89l.08-.2A9.16,9.16,0,0,0,286.45,48.91Z"/><path class="cls-6" d="M289.77,46.38A10.7,10.7,0,0,0,276.31,43c2.57-4.1,5.25-8.72,4.37-13.48-.72-3.94-3.88-7.14-7.58-8.68a22.62,22.62,0,0,0-11.83-1.07c-7.15,1-14.6,4.63-17.26,11.33a8.27,8.27,0,0,0-16.11-3.63c-3.35-9.09-13.9-15.26-23.27-12.7s-15.28,14.34-10.86,23C186.47,31,177.7,34.24,178,44.49a6,6,0,0,0,.5,2.26,7.76,7.76,0,0,1,1.86,1.57,2.44,2.44,0,0,1-1.86-1.57c-3.47-2.11-8.46-1.6-11.92.78a9.86,9.86,0,0,0-2.79,2.82c-2.21,3.6-1.21,8.39,2.36,9.88a8.24,8.24,0,0,1-.29-3.72c0-1.2,1.2-2.8,2.4-3.6,4.41-2.4,10.82-2,14,2.4-.4-4-1.2-8.4.4-11.59,2.4-4.8,9.62-4,14-1.6a8.32,8.32,0,0,1,3.69,2.53c-2.45-5.71-3.34-13.77,1.92-16.92a13.18,13.18,0,0,1,10-2c6.41,1.59,12.41,7.59,12.41,14.79,1.2-4.4,2.4-10,7.21-10.39,6.41-1.2,9.22,6.39,8,12,3.21-9.59,16-20.78,24.84-12.79,5.61,5.2,3.61,13.19-2,19.19,6.81-4,16.42-3.6,23.64.4a9.11,9.11,0,0,1,4.22,7.51A10.86,10.86,0,0,0,289.77,46.38Z"/><path class="cls-4" d="M322,78.08a12.73,12.73,0,0,0,.64,1.28A3.85,3.85,0,0,0,322,78.08Z"/><path class="cls-4" d="M310.55,80.16a4.42,4.42,0,0,0-1-.89A1.37,1.37,0,0,0,310.55,80.16Z"/><path class="cls-5" d="M371,80.5c-4.11-2.27-9.58-2.5-13.46-.22,3.19-3.42,4.33-8,1.14-10.93-5-4.55-12.32,1.82-14.15,7.28.69-3.18-.91-7.51-4.56-6.82-2.74.22-3.42,3.41-4.11,5.91,0-4.09-3.42-7.51-7.07-8.42a7.53,7.53,0,0,0-5.71,1.14c-3,1.79-2.49,6.39-1.09,9.65a3.85,3.85,0,0,1,.64,1.28,11.75,11.75,0,0,1-.64-1.28,4.85,4.85,0,0,0-2.09-1.45c-2.51-1.36-6.62-1.82-8,.91-.91,1.83-.45,4.33-.23,6.6-1.83-2.5-5.49-2.73-8-1.36a3,3,0,0,0-1.37,2,4.76,4.76,0,0,0,.16,2.12,3.75,3.75,0,0,0,1.44.26q6.68-.12,13.39-.11H362c3.05,0,9.94,1.33,11.38-2.21a.76.76,0,0,0,0-.11A5.22,5.22,0,0,0,371,80.5Z"/><path class="cls-6" d="M372.86,79.06a6.1,6.1,0,0,0-7.67-1.93c1.47-2.34,3-4.95,2.49-7.67a7,7,0,0,0-4.31-4.95,12.85,12.85,0,0,0-6.74-.6c-4.07.57-8.32,2.63-9.83,6.45a4.71,4.71,0,0,0-9.17-2.07c-1.91-5.18-7.92-8.69-13.25-7.23s-8.7,8.16-6.19,13.07c-4.15-3.82-9.15-2-9,3.85a3.51,3.51,0,0,0,.28,1.29,4.28,4.28,0,0,1,1.05.89,1.4,1.4,0,0,1-1.05-.89,6.52,6.52,0,0,0-6.79.45,5.39,5.39,0,0,0-1.59,1.6c-1.26,2.05-.7,4.78,1.33,5.63a4.76,4.76,0,0,1-.16-2.12,3,3,0,0,1,1.37-2c2.51-1.37,6.16-1.14,8,1.36-.23-2.27-.68-4.78.23-6.6,1.37-2.73,5.49-2.27,8-.91a4.85,4.85,0,0,1,2.09,1.45c-1.4-3.25-1.91-7.85,1.09-9.65a7.49,7.49,0,0,1,5.71-1.14c3.66.91,7.07,4.33,7.07,8.42.69-2.5,1.37-5.69,4.11-5.92,3.66-.68,5.24,3.66,4.56,6.83,1.83-5.47,9.13-11.83,14.15-7.28,3.19,3,2.05,7.51-1.14,10.93,3.88-2.28,9.35-2,13.46.22a5.18,5.18,0,0,1,2.4,4.28A6.21,6.21,0,0,0,372.86,79.06Z"/><path class="cls-4" d="M243.82,124.24a9.4,9.4,0,0,0,.55,1.1A3.25,3.25,0,0,0,243.82,124.24Z"/><path class="cls-4" d="M234,126a4,4,0,0,0-.91-.76A1.19,1.19,0,0,0,234,126Z"/><path class="cls-5" d="M285.89,126.32c-3.52-1.95-8.22-2.15-11.55-.19,2.74-2.93,3.72-6.84,1-9.39-4.31-3.91-10.58,1.56-12.15,6.26.59-2.74-.78-6.45-3.92-5.86-2.35.19-2.94,2.93-3.53,5.08,0-3.52-2.93-6.45-6.07-7.23a6.45,6.45,0,0,0-4.89,1c-2.58,1.55-2.14,5.48-.94,8.28a3.25,3.25,0,0,1,.55,1.1,9.4,9.4,0,0,1-.55-1.1A4.09,4.09,0,0,0,242,123c-2.16-1.18-5.68-1.57-6.86.78-.78,1.57-.39,3.71-.19,5.66-1.57-2.14-4.71-2.34-6.86-1.17a2.63,2.63,0,0,0-1.17,1.76,4.05,4.05,0,0,0,.14,1.83,3,3,0,0,0,1.23.22q5.74-.09,11.5-.09h38.34c2.62,0,8.53,1.14,9.77-1.9,0,0,0-.06,0-.09A4.46,4.46,0,0,0,285.89,126.32Z"/><path class="cls-6" d="M287.51,125.09a5.23,5.23,0,0,0-6.58-1.65c1.26-2,2.57-4.27,2.14-6.59a6,6,0,0,0-3.7-4.24,11.16,11.16,0,0,0-5.79-.53c-3.49.49-7.13,2.26-8.44,5.54a4,4,0,0,0-7.87-1.77c-1.64-4.43-6.79-7.46-11.37-6.21s-7.47,7-5.31,11.22c-3.57-3.28-7.84-1.7-7.71,3.31a3,3,0,0,0,.24,1.1,4,4,0,0,1,.91.76,1.19,1.19,0,0,1-.91-.76,5.56,5.56,0,0,0-5.82.39,4.67,4.67,0,0,0-1.36,1.37c-1.08,1.76-.6,4.1,1.14,4.83a4.19,4.19,0,0,1-.14-1.83,2.6,2.6,0,0,1,1.18-1.75c2.15-1.18,5.28-1,6.85,1.17-.2-2-.59-4.1.2-5.67,1.17-2.34,4.7-2,6.85-.78a4.09,4.09,0,0,1,1.8,1.24c-1.2-2.79-1.63-6.73.94-8.28a6.48,6.48,0,0,1,4.9-1c3.13.78,6.07,3.71,6.07,7.23.59-2.15,1.17-4.89,3.52-5.08,3.14-.59,4.51,3.12,3.93,5.86,1.56-4.7,7.84-10.17,12.14-6.26,2.74,2.54,1.76,6.45-1,9.39,3.33-2,8-1.76,11.55.19A4.46,4.46,0,0,1,288,130,5.36,5.36,0,0,0,287.51,125.09Z"/><path class="cls-7" d="M231.43,179.53a3.56,3.56,0,0,1-3.58-.41,2.75,2.75,0,0,1-.7-3.39c-1.3,1.27-3.34,2.18-5,1.31a3.55,3.55,0,0,1-1.65-3.26c.06-1.68,1.63-5.06,3.76-5.08-2.91,0-5.28-3-5.1-5.77a5,5,0,0,1-4.42,2.73c-1.31.09-5.32-.8-5.37-2.65a6.25,6.25,0,0,1-2.59,5.18c-2.07,1.45-5.23.24-6.18-2,1.24,4.15-1.83,9.28-6.73,7.41a5.32,5.32,0,0,1-3.06-4.36,13.76,13.76,0,0,1,.71-5.49c-3,3.28-6.15.08-5.84-3.28-.22,2.32-2,4.63-4.36,4.71a3.58,3.58,0,0,1-3.44-3,4.41,4.41,0,0,1-4.87,2.07,5.53,5.53,0,0,1-3.53-6,8.31,8.31,0,0,1,4.42-5.86c-3.6,1.25-7.95-1.94-7.84-5.74.11,4.08-4.93,7.3-8.6,5.52a7.47,7.47,0,0,1-11.15,9.12c1,2.47-2.3,5-4.82,4.15s-3.9-3.58-4.3-6.2a5.4,5.4,0,0,0-2.36,6.61q-11.3-3.33-22.28-7.71c0,3.3-1.46,6.88-4.48,8.22s-7.37-1-7-4.23a4.46,4.46,0,0,1-4.48,3.67,3.83,3.83,0,0,1-3.4-4.43,3.46,3.46,0,0,1,3.61-2.4c-2.21-1.38-3.2-4.73-1.67-6.93-1.6,2.77-6.69,2-7.38-1.13-.05,3.69-2.45,7.66-6.13,8.08s-7.08-4.52-4.54-7.22c-2.59,1.38-6-.57-7-3.35a8.69,8.69,0,0,1,1-6.79,11.46,11.46,0,0,1-11.86,4c2.87,3.06,3.74,8.27,1,11.41S51,159,50.47,154.83c.27,5.43-6.12,9.53-11.41,8.24a11.31,11.31,0,0,1-7.9-13.54c-5.31,1.55-12,.47-14.7-4.35-1.66,2.87-4,5.64-7.24,6.44S2,150.29,1.9,147a8.54,8.54,0,0,1-8.84,4.93A7.81,7.81,0,0,1-9.55,151q-.39,11.47.15,22.95c.28,5.91,1.14,12.57,5.9,16.11,3,2.2,6.82,2.68,10.5,2.94a141.49,141.49,0,0,0,28.06-.78c12-1.53,23.92-4.6,36.05-4.57,11.74,0,23.27,3,35,3.81s23.77-.44,35.46,1.44c9.34,1.5,18.64,5,28,3.63,7.15-1.08,13.93-5,21.14-4.37,7.5.64,13.54,6.12,21,7,5.26.6,14.12-1.43,19.09-3.16,3.89-1.35,7.51-4.14,8.81-8.06a10.38,10.38,0,0,0-2.73-10.57,10.66,10.66,0,0,1-2.85-.55A5,5,0,0,1,231.43,179.53Z"/><path class="cls-8" d="M211,179a8,8,0,0,0,1-2.57c.29-2.35-1.7-4-2.78-5.88a4.41,4.41,0,0,1-.52-4.08.33.33,0,0,1,.16-.19.27.27,0,0,1,.34.15,1,1,0,0,1,.06.41,6.67,6.67,0,0,0,1.52,3.68,2.78,2.78,0,0,0,1.8,1.33,2.13,2.13,0,0,0,1.65-.74c1.45-1.52,1.47-4.27,1.05-6.18-.09-.43-.1-1.18.52-1.22.43,0,.73.52.85.87a10.23,10.23,0,0,1,.29,6.4c-.26,1-.69,1.9-.93,2.89a4.51,4.51,0,0,0,.11,3,1.66,1.66,0,0,0,1.65,1,4.35,4.35,0,0,0,2.78-1.5,18.68,18.68,0,0,0,1.27-1.79c.21-.3.6-.52.81-.09s-.05.94-.12,1.24a4.9,4.9,0,0,1-2,2.82,10.56,10.56,0,0,1-1.57.89,15.74,15.74,0,0,1-1.83.62,4.8,4.8,0,0,0-2.76,3.83,20,20,0,0,0,0,4.37c.08,1.36-.79,1.76-2,1.76a3.3,3.3,0,0,1-2-.58,4.25,4.25,0,0,1-1.26-3.6A16,16,0,0,1,211,179Z"/><path class="cls-8" d="M161.7,167.79a5.29,5.29,0,0,0-.06-2.1c-.38-1.16-1.57-1.81-2.56-2.54a10.17,10.17,0,0,1-3.86-6.05,1.06,1.06,0,0,1,.3-1.09.51.51,0,0,1,.45-.14c.21.06.3.29.38.48.78,2.21,2.09,4.6,4.46,5.39a1.76,1.76,0,0,0,1.35,0,2,2,0,0,0,.73-1.15,9.43,9.43,0,0,0-.51-6.71c-.63-1.33-1.42-2.5-1.32-4a.79.79,0,0,1,.26-.63.57.57,0,0,1,.7.16,1.74,1.74,0,0,1,.33.7,10.13,10.13,0,0,0,1.67,3,3,3,0,0,0,.49.52,2.68,2.68,0,0,0,3-.13,28.71,28.71,0,0,0,2.43-2.13c.18-.15.47-.29.63-.12a.5.5,0,0,1,.07.41,6,6,0,0,1-1.49,2.74c-.44.5-.92,1-1.32,1.49a4.07,4.07,0,0,0-.66,1.63c-.28,1.25-.26,2.54-.42,3.81-.22,1.94-.82,3.86-.64,5.81a1.2,1.2,0,0,0,1.48,1.08,3.15,3.15,0,0,0,1.23-.45,9.27,9.27,0,0,0,3.73-4c.14-.29.3-.62.61-.69a3.45,3.45,0,0,1-.21,2.23,11,11,0,0,1-3.46,4.79,7.26,7.26,0,0,0-1.81,1.68,3.74,3.74,0,0,0-.47,1.35,6.3,6.3,0,0,0,0,2.25c.34,1.85,1.66,3.52,1.79,5.4.15,2.09-2.88,2.17-4.18,1.1C161.53,179.12,161.33,171.52,161.7,167.79Z"/><path class="cls-8" d="M185.66,179.22c0-1.48,0-3.11-1-4.2a13.43,13.43,0,0,0-1.77-1.42c-.34-.27-.7-.55-.75-1a.24.24,0,0,1,0-.12c.06-.12.24-.07.36,0,.68.38,1.36.76,2,1.19.33.22.67.34,1,0a1.22,1.22,0,0,0,.26-.8,4.36,4.36,0,0,0-.46-1.94c-.82-1.86-2.14-3.52-2.62-5.49-.05-.24-.07-.55.14-.67a.42.42,0,0,1,.48.12,1.65,1.65,0,0,1,.23.46,7.92,7.92,0,0,0,.56,1.26,2.3,2.3,0,0,0,.59.76,1.05,1.05,0,0,0,1.32,0,2.87,2.87,0,0,0,.73-.82,8.12,8.12,0,0,0,1.22-2.53.37.37,0,0,1,.15-.26c.16-.07.3.13.33.3a3.52,3.52,0,0,1-.47,2.37,8.45,8.45,0,0,0-.94,2.27c-.21,1.35.56,2.83,1,4.1a1.15,1.15,0,0,0,.55.79,1,1,0,0,0,.92-.26,6.57,6.57,0,0,0,1.89-2.27A3.47,3.47,0,0,1,192,170a.81.81,0,0,1,.18.58,4.4,4.4,0,0,1-.69,2,7.75,7.75,0,0,1-.86,1.33c-.62.76-1.43,1.26-1.74,2.23a5.56,5.56,0,0,0-.21,1.72,11.81,11.81,0,0,0,.16,2,9.2,9.2,0,0,1,.22,2,2.09,2.09,0,0,1-.9,1.68c-.3.18-1-.07-1.34-.21a2.23,2.23,0,0,1-1.08-.93C185.35,181.53,185.66,180.05,185.66,179.22Z"/><path class="cls-8" d="M89.92,167.31c0-1.46,0-3.08,1-4.17a12,12,0,0,1,1.76-1.42,1.6,1.6,0,0,0,.74-.95.2.2,0,0,0,0-.11c-.06-.12-.24-.08-.35,0-.68.37-1.36.75-2,1.18-.33.22-.67.33-1,0a1.28,1.28,0,0,1-.26-.8,4.45,4.45,0,0,1,.46-1.93c.81-1.84,2.12-3.49,2.62-5.45.05-.24.07-.55-.15-.66a.4.4,0,0,0-.46.11,1.4,1.4,0,0,0-.24.47,7.25,7.25,0,0,1-.56,1.24,2.37,2.37,0,0,1-.57.76,1.07,1.07,0,0,1-1.31,0,3,3,0,0,1-.72-.82,8.12,8.12,0,0,1-1.22-2.51.36.36,0,0,0-.14-.26c-.16-.07-.3.13-.34.3a3.54,3.54,0,0,0,.48,2.35,8.17,8.17,0,0,1,.93,2.25c.21,1.35-.56,2.81-1,4.08-.1.31-.23.66-.54.78a1,1,0,0,1-.92-.26,6.45,6.45,0,0,1-1.87-2.25,3.58,3.58,0,0,0-.67-1.07.69.69,0,0,0-.18.57,4.33,4.33,0,0,0,.67,2,8.37,8.37,0,0,0,.87,1.32c.61.76,1.41,1.25,1.72,2.22a5.43,5.43,0,0,1,.21,1.7,12.84,12.84,0,0,1-.15,2,8.58,8.58,0,0,0-.22,2,2,2,0,0,0,.88,1.67c.3.18,1.05-.07,1.34-.21a2.16,2.16,0,0,0,1.07-.93C90.23,169.62,89.92,168.14,89.92,167.31Z"/><path class="cls-9" d="M219.18,154.87a1.82,1.82,0,0,0-.11.3Z"/><path class="cls-10" d="M6,116.05c1.83,1,3.66,2.35,3.66,5,1-3.13,3.13-6.78,7.05-5.74,2.09.78,3.14,2.61,3.66,4.69.26-2.6,2.09-4.43,4.19-6,2.87-1.83,6.27-1,8.88,1,.79.26,1.83,1.3,2.1.52a15,15,0,0,0,2.38-3.93A28.36,28.36,0,0,0,30,109.93c-4.49-.08-9.59,2.87-9.59,7.35a5.32,5.32,0,0,0-4.87-4.64,5.32,5.32,0,0,0-5.29,4.16A9,9,0,0,0,2,110.19c-5.09-.12-7.58,3.24-8.84,7.64.47,1,.94,2,1.38,2.92A8.65,8.65,0,0,1,6,116.05Z"/><path class="cls-9" d="M239.2,167.17c-2.09-1.83-6-2.87-8.62-.26,1.3-3.65,2.61-7.83,0-11.74-2.1-3.65-6.28-3.13-9.42-2.08a3.41,3.41,0,0,0-2,1.78l-.11.3.11-.3c1.16-3.6.3-8.06-3.77-8.83-8.36-1.82-9.15,7.57-9.41,13.57a11.27,11.27,0,0,0-12.81-6.52c-2.87.78-4.7,3.13-7.32,4.43.06-.66.12-1.4.18-2.16a4.56,4.56,0,0,1-.18.6,4.56,4.56,0,0,0,.18-.6c.06-.69.1-1.41.12-2.13a2.85,2.85,0,0,0-1.87-2.49c-3.13-1.3-6.27.52-7.58,3.65,1.17-4.2,0-10.08-3.59-12.57-.73-.28-1.46-.52-2.16-.73a14.75,14.75,0,0,0-13.07,3.39c1-3.39,2.88-8.08-.52-10.17-3.14-1.83-7.84.78-9.15,4.43,0-4.43-4.18-9.13-7.84-6.52s-6.54,9.65-10.72,7.83c-1.83-1.05-3.14-5-5.49-7.31-1.31-1.3-4.19-1.82-5.75-.52-1.31.78-1.31,2.61-1.31,4.18-2.61-1.31-4.71-3.4-7.58-2.09-2.09.78-2.09,3.65-3.4,5.48.52-5-5-7.83-9.41-6.79a15.65,15.65,0,0,1,.51-3.85,5.51,5.51,0,0,0-1.15.61,12,12,0,0,1-7.78-13.52,7.37,7.37,0,0,1-7.58,2.41,22.51,22.51,0,0,1-3.9-1.87c-10.15-5.22-22.64-1.06-33.75-3.65-1.73-.4-3.43-1-5.13-1.52a15.17,15.17,0,0,1-2.38,3.93c-.26.78-1.31-.26-2.09-.52-2.62-2.09-6-2.87-8.89-1-2.09,1.57-3.92,3.39-4.18,6-.53-2.08-1.57-3.91-3.66-4.69-3.92-1-6,2.61-7.06,5.74,0-2.61-1.83-3.92-3.66-5a8.63,8.63,0,0,0-11.5,4.69c-.44-1-.91-1.93-1.38-2.91-1.55,5.4-1.24,12.36-1.62,16.39q-.78,8.39-1.08,16.8a7.86,7.86,0,0,0,2.62.87A8.54,8.54,0,0,0,1.9,147c.08,3.32,4.11,5.44,7.32,4.65s5.58-3.57,7.24-6.44c2.68,4.82,9.4,5.9,14.7,4.35a11.33,11.33,0,0,0,7.91,13.55c5.29,1.3,11.68-2.81,11.41-8.24.49,4.17,7,5.38,9.73,2.25s1.9-8.35-1-11.41a11.48,11.48,0,0,0,11.86-4,11.71,11.71,0,0,1,.94-1.46,9.8,9.8,0,0,1-.94,1.46,8.65,8.65,0,0,0-1,6.78c.92,2.78,4.37,4.74,7,3.36-2.54,2.69.86,7.65,4.54,7.22s6.08-4.4,6.13-8.09c.69,3.13,5.78,3.91,7.38,1.13-1.53,2.21-.54,5.56,1.67,6.93a2.65,2.65,0,0,1,1.41.56,4,4,0,0,1-1.41-.56,3.46,3.46,0,0,0-3.61,2.4,3.82,3.82,0,0,0,3.4,4.43,4.44,4.44,0,0,0,4.48-3.67c-.34,3.28,4,5.57,7,4.23s4.45-4.94,4.47-8.23q11,4.38,22.31,7.71a5.35,5.35,0,0,1,2.35-6.61c.4,2.6,1.77,5.38,4.3,6.2s5.81-1.7,4.81-4.17a7.48,7.48,0,0,0,11.16-9.13c3.66,1.79,8.7-1.44,8.59-5.51-.11,3.8,4.25,7,7.85,5.74a8.35,8.35,0,0,0-4.43,5.86,5.53,5.53,0,0,0,3.54,6,4.4,4.4,0,0,0,4.86-2.07,2.45,2.45,0,0,1,.41-1.74,3.2,3.2,0,0,1-.41,1.74,3.6,3.6,0,0,0,3.45,3c2.35-.09,4.14-2.39,4.35-4.72-.3,3.36,2.8,6.57,5.84,3.28a14,14,0,0,0-.7,5.5,5.29,5.29,0,0,0,3,4.36c4.9,1.87,8-3.26,6.73-7.41,1,2.2,4.12,3.41,6.18,1.95a6.17,6.17,0,0,0,2.59-5.18c.06,1.86,4.08,2.74,5.38,2.66a5.06,5.06,0,0,0,4.42-2.73,4.42,4.42,0,0,1,.45-1.68,4.93,4.93,0,0,1-.45,1.68c-.18,2.8,2.18,5.8,5.1,5.76-2.13,0-3.7,3.39-3.77,5.09A3.56,3.56,0,0,0,222.2,177c1.61.88,3.64,0,5-1.3a2.73,2.73,0,0,0,.69,3.39,3.59,3.59,0,0,0,3.58.4,5,5,0,0,0,2.52-2.69,10.64,10.64,0,0,0,2.85.54l-.61-.52a4.67,4.67,0,0,0,4.81-.78,6.21,6.21,0,0,0,.3-.82A7.09,7.09,0,0,0,239.2,167.17Z"/><path class="cls-10" d="M243.32,170.24a8,8,0,0,0-2.78-6.14,5.29,5.29,0,0,0-6.45-.18,9.15,9.15,0,0,0-12.69-12.58c1.72-4.43-2.52-9.68-7.3-9.83-6.22-.19-13,7.34-9.17,13.39-3.74-6-14-5.82-17.61.22,0-2.61-.36-5.51-2.27-7.24l-.24-.21c-1.9-1.52-5.36-.78-6,1.33,0,.28-.06.56-.11.83a2.35,2.35,0,0,1,.11-.83A9.39,9.39,0,0,0,163,141.29a7.67,7.67,0,1,0-14-6.14,7,7,0,0,0-13.12-3.4c-2.66.56-5,4.12-7.26,2.58a5.5,5.5,0,0,1-1.45-2.23A7.25,7.25,0,0,0,120.7,128a5.63,5.63,0,0,0-5.4,5c-2.31-2.8-7.68-1.72-8.72,1.75-.33-4.21-5.49-7.05-9.33-5.58a15.65,15.65,0,0,0-.51,3.85c4.45-1,9.94,1.83,9.41,6.78,1.31-1.82,1.31-4.69,3.4-5.47,2.88-1.31,5,.78,7.58,2.08,0-1.56,0-3.39,1.31-4.17,1.57-1.3,4.44-.78,5.75.52,2.35,2.35,3.66,6.26,5.49,7.3,4.18,1.83,7.06-5.21,10.72-7.82s7.84,2.09,7.84,6.52c1.31-3.65,6-6.26,9.15-4.43,3.4,2.08,1.57,6.78.52,10.17A14.73,14.73,0,0,1,171,141.1c.69.21,1.43.45,2.15.72,3.63,2.5,4.77,8.37,3.6,12.58,1.3-3.13,4.44-5,7.58-3.65a2.88,2.88,0,0,1,1.86,2.49c0,1.51-.2,3-.29,4.29,2.61-1.31,4.44-3.65,7.32-4.44A11.3,11.3,0,0,1,206,159.61c.26-6,1-15.38,9.41-13.56,4.07.76,4.92,5.22,3.76,8.83a3.44,3.44,0,0,1,2-1.79c3.14-1,7.32-1.56,9.41,2.09,2.61,3.91,1.31,8.09,0,11.74,2.61-2.61,6.53-1.57,8.63.26a7.1,7.1,0,0,1,2.09,8.08,4.77,4.77,0,0,1-.31.82,4.41,4.41,0,0,0,.51-.46A7.65,7.65,0,0,0,243.32,170.24Zm-70.19-28.43c.34.13.69.28,1,.43-.34-.15-.69-.29-1-.42Z"/><path class="cls-7" d="M630,135.78l-.82-.78a38,38,0,0,1-9.83,3.52c-3.45.56-7.22.08-10-2.07s-4.11-6.2-2.53-9.31a5.63,5.63,0,0,1-10.61-3.42,13.69,13.69,0,0,1-15.8,8.67c-2.87-.73-5.75-2.95-5.72-5.9-1.9,3.36-5.21,6.2-9.07,6.42s-7.9-3-7.57-6.88c-.69,1.51-2,2.11-2.9,3.34-1.12,1.53-1.22.54-.13,2.32,1.59,2.57,3.81,3.92,4.49,7.16.75,3.6-.81,7.8-4.17,9.32a6.32,6.32,0,0,1-7.73-2.52c.21,3.39-3.31,7-6.9,6.34s-5.84-4.61-5.36-8.19a6,6,0,0,1-3.92,3.7,4.13,4.13,0,0,1-4.35-2.05c0,3-.88,6.12-3.31,7.81-2.92,2-8,.15-8-3.24-.34,3.73-5.32,6.38-8.47,4.22-3-2.07-2.29-7.43.86-8.91-3.07.69-6.65-1.64-7-4.83-1.12,3.54-6.62,4.58-9,1.71,1.19,3.62-2.68,7.79-6.39,6.9,1.28,5.55-3.88,11.57-9.57,11.19s-10-7-8-12.37L466.2,149c1.05,1.28-1,2.83-2.61,3.1A24.45,24.45,0,0,1,451,150.81l2.7-2.23a21.31,21.31,0,0,1-7.5.9c-2.51-.3-5.05-1.71-6-4.06-.48,4-5.65,6.48-9.07,4.44A10.52,10.52,0,0,1,432.56,162c-1.11,1.93-3.2,3.58-5.4,3.2a3.11,3.11,0,0,1-2.13-1.64,7.49,7.49,0,0,1-14.45-1c-.47,3.91-5.84,6.22-9,3.87s-2.55-7.63.66-9.48a9.76,9.76,0,0,1-11.65-2.83c1.7,4.66-3.77,10.1-8.43,8.38,3.83,1.11,4.51,7.4,1,9.3-2.28,1.23-5.15,0-6.56-2.11a7.8,7.8,0,0,1-1.47,4.42,6.52,6.52,0,0,1-7.72,2.14c-2.61-1.25-3.84-4.91-2.22-7.3a10.26,10.26,0,0,1-11.45-.48,11.08,11.08,0,0,1-10.08,10.9,11.2,11.2,0,0,1-10.46-6.57,6.61,6.61,0,0,0,.22,1c1.67,5.11,7.21,6.85,11.94,7.68-15.45,25.28,67,22.53,77.29,21.76l172.22-13c8.36-.63,16.8-1.27,24.91-3.44,4.94-1.32,10.12-3.52,12.57-8,1.73-3.17,1.79-7,1.8-10.57,0-10.37.08-20.77-.24-31.14a17.35,17.35,0,0,1-4.42-1.86A3.67,3.67,0,0,1,630,135.78Z"/><path class="cls-8" d="M390.15,171.22a8,8,0,0,0,1-2.57c.29-2.35-1.7-4-2.78-5.88a4.41,4.41,0,0,1-.53-4.08.38.38,0,0,1,.16-.19.28.28,0,0,1,.35.15,1,1,0,0,1,.06.41,6.73,6.73,0,0,0,1.51,3.68,2.77,2.77,0,0,0,1.81,1.33,2.11,2.11,0,0,0,1.65-.74c1.44-1.52,1.47-4.26,1-6.18-.09-.43-.1-1.18.53-1.22.42,0,.73.53.85.86a10.27,10.27,0,0,1,.29,6.41c-.26,1-.69,1.91-.94,2.89a4.48,4.48,0,0,0,.12,3,1.65,1.65,0,0,0,1.65,1,4.33,4.33,0,0,0,2.77-1.5,17.07,17.07,0,0,0,1.27-1.79c.21-.3.61-.52.82-.09s-.05.94-.12,1.24a5,5,0,0,1-2,2.82,12.24,12.24,0,0,1-1.57.9,15.7,15.7,0,0,1-1.83.61,4.76,4.76,0,0,0-2.76,3.83,20,20,0,0,0,0,4.37c.09,1.35-.78,1.76-2,1.76a3.23,3.23,0,0,1-2-.58,4.23,4.23,0,0,1-1.27-3.6A16,16,0,0,1,390.15,171.22Z"/><path class="cls-8" d="M356.66,185.58c0-1.46,0-3.08-1-4.17a12.71,12.71,0,0,0-1.76-1.42,1.55,1.55,0,0,1-.74-1,.2.2,0,0,1,0-.11c.06-.12.24-.08.35,0,.68.37,1.35.74,2,1.18.32.22.66.33,1,0a1.34,1.34,0,0,0,.26-.8,4.46,4.46,0,0,0-.47-1.93c-.81-1.85-2.12-3.49-2.61-5.45-.06-.24-.07-.55.14-.66a.4.4,0,0,1,.47.11,1.25,1.25,0,0,1,.23.46,8.23,8.23,0,0,0,.56,1.25,2.4,2.4,0,0,0,.58.76,1.07,1.07,0,0,0,1.31,0,3,3,0,0,0,.72-.82,8.12,8.12,0,0,0,1.22-2.51.36.36,0,0,1,.14-.26c.16-.07.3.13.34.3a3.6,3.6,0,0,1-.47,2.34,8,8,0,0,0-.94,2.26c-.21,1.34.56,2.81,1,4.08a1.14,1.14,0,0,0,.54.78,1.05,1.05,0,0,0,.91-.26,6.51,6.51,0,0,0,1.89-2.25,3.41,3.41,0,0,1,.66-1.08.77.77,0,0,1,.19.58,4.42,4.42,0,0,1-.68,2,8.46,8.46,0,0,1-.87,1.33c-.61.75-1.42,1.25-1.72,2.21a5.5,5.5,0,0,0-.21,1.71,11.69,11.69,0,0,0,.16,2,9.1,9.1,0,0,1,.21,2,2,2,0,0,1-.89,1.67c-.29.17-1-.07-1.33-.21a2.16,2.16,0,0,1-1.07-.93C356.36,187.87,356.66,186.41,356.66,185.58Z"/><path class="cls-8" d="M496.05,157.54a4.19,4.19,0,0,0-.05-1.73c-.31-1-1.3-1.49-2.1-2.09a8.31,8.31,0,0,1-3.18-5,.87.87,0,0,1,.26-.9.46.46,0,0,1,.37-.11.52.52,0,0,1,.31.4c.65,1.82,1.72,3.78,3.66,4.43a1.38,1.38,0,0,0,1.11,0,1.56,1.56,0,0,0,.6-.94,7.75,7.75,0,0,0-.42-5.52,6.67,6.67,0,0,1-1.08-3.33.62.62,0,0,1,.21-.52.49.49,0,0,1,.58.13,1.44,1.44,0,0,1,.26.58,8.18,8.18,0,0,0,1.38,2.44,2,2,0,0,0,.4.43,2.19,2.19,0,0,0,2.49-.1,25.16,25.16,0,0,0,2-1.75c.15-.13.39-.24.52-.1a.39.39,0,0,1,.06.33,4.93,4.93,0,0,1-1.23,2.26c-.35.41-.76.8-1.08,1.22a3.54,3.54,0,0,0-.55,1.35,29.37,29.37,0,0,0-.34,3.13,22.79,22.79,0,0,0-.52,4.78,1,1,0,0,0,1.22.89,2.64,2.64,0,0,0,1-.38,7.6,7.6,0,0,0,3.07-3.28c.11-.24.26-.51.5-.57a2.89,2.89,0,0,1-.17,1.83,9,9,0,0,1-2.85,3.94,6.12,6.12,0,0,0-1.49,1.38,3.13,3.13,0,0,0-.39,1.11,5.23,5.23,0,0,0,0,1.85c.28,1.52,1.36,2.9,1.47,4.45.12,1.72-2.35,1.78-3.45.9C495.91,166.85,495.75,160.61,496.05,157.54Z"/><path class="cls-9" d="M425.47,160.23a2.51,2.51,0,0,0-.44,3.31A7.05,7.05,0,0,0,425.47,160.23Z"/><path class="cls-9" d="M402.24,156.9l.47-.24A4.16,4.16,0,0,0,402.24,156.9Z"/><path class="cls-9" d="M384.46,135.83a9.94,9.94,0,0,0-1-.54A1.17,1.17,0,0,0,384.46,135.83Z"/><path class="cls-9" d="M440.7,124.64a9.08,9.08,0,0,0-1.55-1.42A6.76,6.76,0,0,0,440.7,124.64Z"/><path class="cls-9" d="M508.14,145.33a4.33,4.33,0,0,0,.92-.31A4.15,4.15,0,0,0,508.14,145.33Z"/><path class="cls-9" d="M375.9,165.82a4.44,4.44,0,0,0,.69,3.82A9.09,9.09,0,0,0,375.9,165.82Z"/><path class="cls-9" d="M535.36,143.8a8.48,8.48,0,0,0,.58-2A6.71,6.71,0,0,0,535.36,143.8Z"/><path class="cls-9" d="M613.08,104.59c-3.51-3.59-10.56-2.32-12.59,2.27-1.16-8.76-11.83-14.79-20-11.27-2.79,1.21-5.13,3.26-7.89,4.51s-6.39,1.51-8.53-.64c-.8-.81-1.3-1.88-2.14-2.67a7.46,7.46,0,0,0-4.66-1.72c-9.73-.74-19.14,8-19.14,17.72-16,.75-32.15,1.49-48-1.08-7.89-1.28-17.58-2.74-22.45,3.58a9.71,9.71,0,1,0-19.22-2.76,7.19,7.19,0,0,0-9.38,10.69,9.89,9.89,0,0,1,1.55,1.42,6.56,6.56,0,0,1-1.55-1.42,9.95,9.95,0,0,0-15.91,9c-2.41-7.07-13.65-8.78-18.06-2.73-1.28-4.27-6.88-5.94-11.13-4.55s-7.41,4.88-10.37,8.23a1.5,1.5,0,0,0-.26,2.16,10.09,10.09,0,0,1,1,.54,1.18,1.18,0,0,1-1-.54,11.06,11.06,0,0,0-15.33,13.13c-2.21-2.15-5.12-3.89-8.2-3.67s-6.05,3.07-5.48,6.09c-.63-4.54-5.67-7.76-10.19-6.93s-8,5.16-8.32,9.73a13.84,13.84,0,0,0,5.81,11.83c-4-2.48-9.13,2.67-8.51,7.28a10.67,10.67,0,0,0,20.53-4.33,10.26,10.26,0,0,0,11.46.47c-1.62,2.39-.39,6.06,2.22,7.31a6.52,6.52,0,0,0,7.71-2.14,7.81,7.81,0,0,0,1.48-4.42,4.41,4.41,0,0,1-.7-3.82,9.26,9.26,0,0,1,.7,3.82c1.41,2.08,4.28,3.33,6.55,2.1,3.51-1.89,2.84-8.19-1-9.29,4.66,1.71,10.14-3.72,8.43-8.38a9.77,9.77,0,0,0,11.66,2.83,4,4,0,0,1,.46-.24c-.15.09-.31.16-.46.24-3.21,1.84-3.69,7.23-.66,9.48s8.54,0,9-3.87a7.5,7.5,0,0,0,14.46,1,2.5,2.5,0,0,1,.43-3.32,7.09,7.09,0,0,1-.43,3.32,3.1,3.1,0,0,0,2.13,1.64c2.2.38,4.28-1.28,5.4-3.21a10.55,10.55,0,0,0-1.44-12.14c3.43,2.06,8.6-.46,9.07-4.43.92,2.35,3.46,3.76,6,4.06a21.26,21.26,0,0,0,7.49-.9l-2.7,2.22a24.26,24.26,0,0,0,12.62,1.29c1.64-.26,3.66-1.82,2.62-3.09l2.05-1.08c-2,5.33,2.29,12,8,12.37s10.84-5.64,9.57-11.19c3.71.9,7.58-3.27,6.39-6.89,2.35,2.87,7.84,1.82,9-1.71.33,3.19,3.91,5.52,7,4.83a4.15,4.15,0,0,1,.92-.31,4.33,4.33,0,0,1-.92.31c-3.13,1.48-3.86,6.84-.85,8.9s8.13-.48,8.46-4.21c0-.16,0-.31,0-.47a2.43,2.43,0,0,1,0,.47c.06,3.39,5.13,5.25,8,3.23,2.44-1.69,3.36-4.77,3.32-7.8a2.63,2.63,0,0,1-.2-2.24,15.28,15.28,0,0,1,.2,2.24,4.15,4.15,0,0,0,4.34,2.05,6,6,0,0,0,3.92-3.7,6.71,6.71,0,0,1,.58-2,8.34,8.34,0,0,1-.58,2c-.47,3.58,1.78,7.56,5.37,8.19s7.11-2.95,6.9-6.34a4.36,4.36,0,0,1-.56-1.9,4.5,4.5,0,0,1,.56,1.9,6.31,6.31,0,0,0,7.73,2.52c3.35-1.52,4.91-5.72,4.16-9.32-.67-3.24-2.9-4.59-4.48-7.17-1.1-1.77-1-.78.13-2.32.89-1.22,2.2-1.82,2.9-3.33-.34,3.84,3.7,7.08,7.56,6.87s7.18-3,9.07-6.41c0,3,2.86,5.17,5.73,5.9a13.69,13.69,0,0,0,15.79-8.68,5.63,5.63,0,0,0,10.6,3.44c-1.58,3.1-.21,7.16,2.54,9.3s6.51,2.64,10,2.08a37.86,37.86,0,0,0,9.83-3.51l.83.78a3.82,3.82,0,0,0-.48-.64l-.33-.2c0-.11.15,0,.33.2a16.8,16.8,0,0,0,4.41,1.86,268.44,268.44,0,0,0-3.84-39.83A18.63,18.63,0,0,0,613.08,104.59Z"/><path class="cls-9" d="M526.91,143.2a2.65,2.65,0,0,0,.2,2.25A15.54,15.54,0,0,0,526.91,143.2Z"/><path class="cls-9" d="M515.75,150a2.47,2.47,0,0,0,0-.47C515.76,149.71,515.75,149.86,515.75,150Z"/><path class="cls-9" d="M547.63,145.65a4.5,4.5,0,0,0-.56-1.9A4.36,4.36,0,0,0,547.63,145.65Z"/><path class="cls-11" d="M448.6,179.69c41.83-7,81.56-11.48,122.87-12.52q23.24-.66,46.53-.68V160.2s-260.43-2.48-422,73.59c-43.56,20.5-33,32.5,5.71,39.11,28.67-22.57,60.77-37.55,94.52-50.69C345.86,202.9,395,188.82,448.6,179.69Z"/><path class="cls-12" d="M571.47,167.17c-41.31,1-81,5.48-122.87,12.52C395,188.82,345.86,202.9,296.19,222.2c-33.74,13.14-65.84,28.12-94.51,50.69C306.55,290.78,617.94,269,617.94,269l0-102.47Q594.71,166.49,571.47,167.17Z"/><path class="cls-13" d="M329.92,236.8c-45.49-20.6-92-31.29-141.69-42.77a668.68,668.68,0,0,0-97.51-15.12c-30.35-2.51-60.46-7-90.79-5.88l0,102.73s321.71,22.89,421.26,3.47c-28-15.29-56.22-26.39-84.7-40.34C334.36,238.11,332,237.59,329.92,236.8Z"/><path class="cls-14" d="M421.89,241C260.37,164.8-.06,167-.06,167v6c30.32-1.12,60.43,3.35,90.78,5.88A668.47,668.47,0,0,1,188.23,194c49.67,11.48,96.2,22.17,141.69,42.77,2.09.79,4.44,1.31,6.53,2.09,28.47,14,56.71,25,84.7,40.34C455.67,272.49,463.48,260.67,421.89,241Z"/><path class="cls-15" d="M509.51,201.33A18.23,18.23,0,0,1,521,192.21c6.27-1.57,15.42-1.05,18.29,5.21-1.3-8.08-6-20.34,3.66-24.25,9.94-3.91,17.26,8.6,17,17.73.78-3.39,1.57-7.56,5-8.87,6-2.08,11.77,3.4,13.34,8.61,1.56,5.48,1.56,10.69,2.61,16.17,5-.78,8.89,3.91,11.24,7.82,1.31-3.12.79-7,3.4-9.64a19.93,19.93,0,0,1,24.57-3.66,44.33,44.33,0,0,1,7.85,5.68c-.33-.93-.71-1.84-1.13-2.73a26.61,26.61,0,0,0-21.37-14.73c-7.41-.62-15.73,2.79-18.33,9.73a134.25,134.25,0,0,0-3.62-24.16c-.69-2.78-1.61-5.77-4-7.4a8.82,8.82,0,0,0-6.81-1,14.87,14.87,0,0,0-11.17,10.56c-.76-5.59-3.24-11.13-7.7-14.61s-11.06-4.4-15.86-1.43a15.5,15.5,0,0,0-5.49,6.42A22.33,22.33,0,0,0,533.62,189c-4.07-5.11-12.13-6-17.8-2.75s-8.91,9.86-9.15,16.38a26.85,26.85,0,0,0,.7,7.37A16.42,16.42,0,0,1,509.51,201.33Z"/><path class="cls-16" d="M627.94,207a44.63,44.63,0,0,0-7.84-5.68A19.94,19.94,0,0,0,595.52,205c-2.61,2.6-2.09,6.52-3.4,9.64-2.35-3.91-6.27-8.6-11.24-7.82-1-5.48-1-10.69-2.61-16.17C576.7,185.43,571,180,564.94,182c-3.4,1.31-4.19,5.48-5,8.87.26-9.13-7.06-21.64-17-17.73-9.68,3.91-5,16.17-3.66,24.25-2.88-6.26-12-6.78-18.3-5.21a18.19,18.19,0,0,0-11.5,9.12,16.38,16.38,0,0,0-2.15,8.68c4.71,19.61,31.32,27,45.56,38.48,6.29,5.09,11.28,11.64,17.69,16.57,9.93,7.64,22.48,10.84,34.66,13.86,5.28,1.3,10.86,2.61,16.09,1.11,9.1-2.61,13.88-13,14.09-22.41s-2.93-18.6-4.18-28C630.28,222.08,630.46,214.14,627.94,207Z"/><path class="cls-17" d="M551.54,55.09c6.07,4.92,16.22,4.54,21-1.66-2.69,5.87-3.7,12.7-1.64,18.81s7.58,11.24,14,11.75c8,.64,14.79-5.34,20.13-11.26a16.58,16.58,0,0,0,30.84,11.11c1.89-3.48,2.46-7.5,3-11.41,2.24-16.17,4.41-33.07-.92-48.51-1.57-4.52-3.85-9-7.54-12s-8.41-4.43-13-5.53a152.74,152.74,0,0,0-39.91-4.06c-4.19.13-8.45.46-12.32,2.06C554.5,8.79,552.39,19.74,547.88,29,543.64,37.71,543.09,48.25,551.54,55.09Z"/><path class="cls-16" d="M221.43,231.59c-.79-.52-1.05-1.83-1.83-2.35-3.14-2.61-10.2-4.17-12.81,0,.78-2.61,3.13-5.74,1.3-8.09-3.66-4.69-9.67-1.3-10.45,4.44,1-6.26.52-17.48-7.85-14.08-6.79,2.6-6.53,11.47-8.1,18.25-1.31-4.69-5.23-9.65-10.2-8.87-3.39.53-6.79,2.09-8.1,5.74.79-8.34,3.4-19.82-5.49-24-9.15-4.7-14.12,8.08-13.85,15.91-1.31-2.09-6-2.09-6-2.61-1.3-8.35-6.53-18-15.94-14.87a25.77,25.77,0,0,0-10.86,7.4,30.44,30.44,0,0,0-2.35,11.11c-.43,7.27-2.38,13.45,2.57,20.11,3.61,4.85,9,8,14.63,10.35a65.43,65.43,0,0,0,32,4.7c15.35-1.69,30.44-9.1,45.61-6.2,5.76,1.1,12.65,3.37,16.79-.78a11.36,11.36,0,0,0,2.49-4.38,20.68,20.68,0,0,0,1.1-8.74A13.47,13.47,0,0,0,221.43,231.59Z"/><path class="cls-16" d="M181.72,218.43c0,.72.11,1.45.21,2.16A7.12,7.12,0,0,0,181.72,218.43Z"/><path class="cls-15" d="M211.22,223.65a6.41,6.41,0,1,0-11-5.76c-.26-5.32-1.31-11.8-6.31-13.67-3.83-1.44-8.3.93-10.35,4.46a17,17,0,0,0-1.83,9.75,7.12,7.12,0,0,1,.21,2.16c-.1-.71-.17-1.44-.21-2.16a7.65,7.65,0,0,0-14.56-1.18c.92-5.19,1.09-10.76-1.2-15.52s-7.58-8.37-12.76-7.3c-6.61,1.37-9.64,8.87-11.45,15.35-.67-7.47-8.33-13.55-15.77-12.52a18.73,18.73,0,0,0-8.59,3.83,19.21,19.21,0,0,0-6.17,7.38,25.65,25.65,0,0,1,10.86-7.39c9.41-3.13,14.64,6.52,15.94,14.86,0,.52,4.71.52,6,2.61-.27-7.82,4.7-20.6,13.85-15.91,8.89,4.17,6.28,15.65,5.49,24,1.31-3.65,4.71-5.21,8.1-5.73,5-.79,8.89,4.17,10.2,8.86,1.57-6.78,1.31-15.64,8.1-18.25,8.37-3.39,8.89,7.82,7.85,14.08.78-5.74,6.79-9.13,10.45-4.43,1.83,2.34-.52,5.47-1.3,8.08,2.61-4.17,9.67-2.61,12.81,0,.78.52,1,1.83,1.83,2.35a13.44,13.44,0,0,1,2.68,3,14.11,14.11,0,0,0-1.4-4.88C220.62,225.59,215.78,222.64,211.22,223.65Z"/><path class="cls-16" d="M484.56,192.34c-1-1.11-2-2.2-3-3.26-4.71-4.44-12-7.57-18.3-3.92a13.29,13.29,0,0,0-6.53,11c0-3.13-3.4-5-4.71-7.57-.52-1,0-2.86-.78-3.39-4.71-4.17-11.51-6.25-17.52-3.91-5,2.09-9.41,6-10.46,11.74-1,6.26,1.05,12,2.36,17.73-2.36-4.43-8.11-4.69-12.29-3.39-7.06,2.09-7.32,11-7.06,17.48A17.21,17.21,0,0,0,394,211.24a9,9,0,0,0-7.32,1c-4.44,2.61-5.22,7.82-4.7,12.52-1.83-6.26-9.41-12.26-15.95-7.57-4.44,2.87-1.57,8.09.53,11.22,3.39,4.95,7.84,8.86,14.37,10.17,1.57.52,3.4,2.35,1.57,4.43a15.52,15.52,0,0,1-2.73,2.58c5.06.66,10,2.25,15.06,2.89,5.64.71,11.36.22,17,.4,21.65.72,42.82,11.24,64.18,7.68a26.09,26.09,0,0,0,10.79-4c6.36-4.43,9.07-12.52,10-20.19,1.3-10.36-.18-21.63-5.73-30.64C489,198.39,486.51,195.68,484.56,192.34Z"/><path class="cls-15" d="M382.46,243.06c1.83-2.08,0-3.91-1.57-4.43-6.53-1.31-11-5.22-14.37-10.17-2.1-3.13-5-8.35-.53-11.22,6.54-4.69,14.12,1.31,15.95,7.57-.52-4.7.26-9.91,4.7-12.52a9,9,0,0,1,7.32-1,17.21,17.21,0,0,1,12.29,13.57c-.26-6.52,0-15.39,7.06-17.48,4.18-1.3,9.93-1,12.29,3.39-1.31-5.73-3.4-11.47-2.36-17.73,1.05-5.74,5.49-9.65,10.46-11.74,6-2.34,12.81-.26,17.52,3.91.78.53.26,2.35.78,3.39,1.31,2.61,4.71,4.44,4.71,7.57a13.29,13.29,0,0,1,6.53-11c6.28-3.65,13.59-.52,18.3,3.92,1,1.06,2,2.15,3,3.26q-.42-.72-.81-1.5c-2.48-5-5.21-9.22-11.1-10.55a15.31,15.31,0,0,0-16.2,7.1c-4-9.22-15.91-14.09-25.23-10.3s-14.43,15.59-10.81,25a11.37,11.37,0,0,0-14.48,7,11.21,11.21,0,0,0-.46,5.77c-1.63-5.61-6.68-10.39-12.55-10.65s-11.7,4.89-11.24,10.72c-3.43-5.09-10.72-7.5-16.21-4.71-6.59,3.37-7.06,12.76-3.8,18.72a9,9,0,0,0-9.34,1.56c-4.57,4.13-6.71,13.77,1.15,15,8.3,1.31,16.8-.76,25.17.09l1.06.13A15.7,15.7,0,0,0,382.46,243.06Z"/><path class="cls-18" d="M441.28,235c1.83-8.35,4.71-15.91,5-24.26,1,1.83.78,3.65.78,5.48,1.05-7.82,3.92-15.65,2.36-23.73.26,2.6-1.83,4.43-2.36,6.78-.26-8.61-1.83-17.22-2.35-25.82-.26-3.13,0-6.52-.26-9.91a8,8,0,0,0-.79-2.35c.79,3.39,0,6.52-1.3,9.65,0-1.83.52-3.91-1.05-5.48-.26,2.35-1.31,6.52-4.44,5.22a28,28,0,0,1-10.46-6.78,22.68,22.68,0,0,0,7.32,1,53.3,53.3,0,0,1-16.21-11.21A12.53,12.53,0,0,0,418.8,158c-1.57-2.35-4.18-3.91-5.75-6.52a24.72,24.72,0,0,0-1.57-2.61c-2.09-3.65-5.49-7.56-4.18-11.73.17-.52,1.11-.69,2-1.11-5.58-8.15-10-17.39-14.12-25-2.55.15-2.81,3.82-2.15,6.29a89.79,89.79,0,0,0,35.06,50.1c5.53,3.85,11.86,7.52,14.28,13.8,1.21,3.15,1.26,6.61,1.21,10a169.07,169.07,0,0,1-4.94,37.13c-1.48,6-2.89,12.83-5.7,18.33-1.79,3.51-4.42,6.38-1.47,9.75a25.26,25.26,0,0,1,1.75-4.28C435.79,246.45,440,241.24,441.28,235Z"/><path class="cls-18" d="M456.44,112.92c0-1.3.79-2.6.79-4.17,2.61,6.26,2.09,13.3,2.35,19.82-.52-1.82-.78-3.91-2.09-5.21,1.05,5.21-.52,11,1.57,16.16a5.62,5.62,0,0,0,8,3,3.65,3.65,0,0,1-1.91-.16c-2-.78-2.7-3.31-2.92-5.48-.42-4-.08-8.07-.33-12.1a122.44,122.44,0,0,0-2.35-16.62,140.23,140.23,0,0,0-10.3-31.3c-1.37-2.93-3.5-6.24-6.74-6.19,1.89,7.87,3.79,15.74,5.51,23.65C454.88,97.28,455,106.5,456.44,112.92Z"/><path class="cls-19" d="M475.53,148.13a9,9,0,0,1,0,1.16A1.12,1.12,0,0,0,475.53,148.13Z"/><path class="cls-18" d="M502.71,91.47c-2.38-6.33-8.43,3.35-9.23,5.52-2.47,6.76-4.92,13.54-7.56,20.23a82.58,82.58,0,0,1-6.15,12.39c.92,1.08,2.63,1.6,2.82,2.87.78,2.61-1,4.7-2.62,6.52a24.58,24.58,0,0,0,5-4.17c-.26,4.69-2.62,8.61-5.23,12.26-1.57,2.61-3.14,4.95-4.44,7.56-.53.78-1.31.78-1.83,1.57.9-2.25,2-4.51,2.11-6.93-.16.35-.42.67-.54.93-2.88,4.95-7.59,8.6-9.94,14.34,0,.26-.78,1.31-1.31.78-2.35-2.87-1-6.78-2.61-9.91-1,5.48.52,11,2.09,16.17,1.57,7.31,1.31,14.35,1.05,21.65-1.57-2.61-1.57-6-3.14-8.61.52,16.69,1.83,33.91-2.88,50.08a216.37,216.37,0,0,0-6.2,26.62,9.62,9.62,0,0,0,4.7-2.55c1.8-1.83,2.68-4.32,3.43-6.76,7.38-24.14,6.61-49.9,6-75.13-.07-2.93-.12-6,.91-8.7,1-2.58,2.8-4.72,4.55-6.86a149.65,149.65,0,0,0,31-66.24A6.68,6.68,0,0,0,502.71,91.47Z"/><path class="cls-18" d="M444.42,136.4c-2.35-5.74-6-11.22-9.15-16.7.26,1.57-.52,3.13.52,4.7A44.4,44.4,0,0,1,426.64,108c1.31,1.3,2.88,2.61,4.18,3.91-1.69-3-2.53-5.92-1.81-9a134.11,134.11,0,0,1-8.93-16.62,9.39,9.39,0,0,0-2.35-3.61,3.1,3.1,0,0,0-4-.13c-1.17,1.15-.74,3.09-.19,4.64a138.13,138.13,0,0,0,15.18,30.63c4.11,6.23,8.75,12.15,12.06,18.83,2.52,5.09,4.08,10.65,2.13,16.23-.05.16-.12.33-.18.49.4-.42.78-.86,1.13-1.27C447.29,147.61,446.77,141.61,444.42,136.4Z"/><path class="cls-19" d="M480,139c1.57-1.82,3.4-3.91,2.62-6.52-.19-1.27-1.9-1.79-2.82-2.87-.86,1.42-1.77,2.81-2.71,4.18a26.74,26.74,0,0,1-7.32,7.66,7.63,7.63,0,0,1-2.72,1.11,5.14,5.14,0,0,1-1.95.63,5.33,5.33,0,0,1-6-3.65c-2.09-5.22-.52-11-1.57-16.17,1.31,1.3,1.57,3.39,2.09,5.21-.26-6.52.27-13.56-2.35-19.82,0,1.57-.78,2.87-.78,4.17-1.49-6.42-1.57-15.64-8.45-18.59.78,3.65,1.57,7.29,2.26,11,.85,4.42,2.09,9.47,1.86,14-.08,1.63-.55,3.55-2.09,4.13a3.34,3.34,0,0,1-1.57.14c-2.73-.3-4.86-2.4-6.77-4.38A104.16,104.16,0,0,1,429,102.85c-.72,3.1.12,6.06,1.81,9-1.3-1.31-2.87-2.61-4.18-3.91a44.48,44.48,0,0,0,9.15,16.43c-1-1.57-.26-3.13-.52-4.7,3.14,5.48,6.8,11,9.15,16.69,2.35,5.22,2.87,11.22-.52,15.65-.35.41-.73.84-1.13,1.27a4.85,4.85,0,0,1-1.37,2,5.65,5.65,0,0,1-4.19.74c-12.28-1.47-21-9.89-27.94-20-.86.43-1.81.6-2,1.11-1.3,4.18,2.1,8.09,4.19,11.74a23.75,23.75,0,0,1,1.57,2.61c1.56,2.61,4.18,4.17,5.75,6.52a12.39,12.39,0,0,1-1.31-4.43,53.3,53.3,0,0,0,16.21,11.21,22.64,22.64,0,0,1-7.32-1,27.86,27.86,0,0,0,10.45,6.78c3.14,1.3,4.19-2.87,4.45-5.22,1.57,1.57,1,3.65,1,5.48,1.31-3.13,2.1-6.26,1.31-9.65a8.25,8.25,0,0,1,.79,2.35c.26,3.39,0,6.78.26,9.91.52,8.6,2.09,17.21,2.35,25.81.52-2.34,2.61-4.17,2.35-6.78,1.57,8.09-1.3,15.91-2.35,23.74,0-1.83.26-3.65-.78-5.48-.27,8.35-3.14,15.91-5,24.25-1.31,6.26-5.49,11.48-8.1,17.22a24.05,24.05,0,0,0-1.75,4.27,9.7,9.7,0,0,0,1.13,1.09c2.21,1.82,5.13,2.51,7.94,3.13,3.74.82,8,1.51,11.56.66a216.41,216.41,0,0,1,6.21-26.62c4.71-16.17,3.4-33.38,2.88-50.07,1.57,2.6,1.57,6,3.13,8.6.27-7.3.53-14.34-1-21.64-1.57-5.22-3.14-10.7-2.09-16.17,1.57,3.13.26,7,2.61,9.91.52.52,1.31-.53,1.31-.79,2.35-5.73,7.06-9.38,9.93-14.34.13-.26.38-.57.55-.92a9.14,9.14,0,0,0,0-1.17,1.14,1.14,0,0,1,0,1.17c-.12,2.42-1.21,4.67-2.12,6.92.53-.78,1.31-.78,1.83-1.57,1.31-2.6,2.88-5,4.45-7.56,2.61-3.65,5-7.56,5.23-12.26A24.58,24.58,0,0,1,480,139Z"/><path class="cls-20" d="M372.79,99.1c-.46,0-.92,0-1.39,0a9.76,9.76,0,0,0,1.65.57C373.57,99.88,372.53,99.36,372.79,99.1Z"/><path class="cls-20" d="M431.35,62.85a6.74,6.74,0,0,0-.06,1.68A9.44,9.44,0,0,0,431.35,62.85Z"/><path class="cls-20" d="M462.2,65.72l0,0a12.23,12.23,0,0,0-1.08-1.61C460.89,64.94,461.67,65.2,462.2,65.72Z"/><path class="cls-20" d="M475,88.15c0,.26,0,.78.26.78.52,0,1.3.26,1.83,0a2.52,2.52,0,0,1,1.38-.69A5.42,5.42,0,0,0,475,88.15Z"/><path class="cls-21" d="M551.42,104.28a23.31,23.31,0,0,0-16.29-9.56c5.55-3.06,10.54-7.91,11.88-14.1s-2.16-13.56-8.37-15c2.61.6,5.47,1.19,7.91.06a9.64,9.64,0,0,0,4.32-4.93c4.4-9.51.26-16.94-4.53-25a78.59,78.59,0,0,0-6-8.86,6.9,6.9,0,0,0-.21,3c1,9.13,6.53,19.3.26,27.38-2.88,3.92-8.37,2.61-12.81,3.92.78,2.08,3.4,2.34,4.44,3.65,4.71,5,8.11,11.47,6,18.25a20.3,20.3,0,0,1-16.47,14.35c8.63,1.82,21.7,7.82,16.47,18.25-2.61,5-9.67,3.39-13.85.26.26,2.61.26,5.22-1,7.57-2.35,3.39-6.27,4.95-9.93,3.13-4.18-2.09-3.66-9.39-.26-12.52-2.35.26-4.18.26-4.45-2.61a1.36,1.36,0,0,0-1-.52c.23-.46-.35-.92-.32-1.38-1.33,4.87-4.44,9-9.35,10.24-3.93,1.31-7.85-.78-10.2-3.91-3.92-4.69-2.09-11.73,1.83-15.91.52-.26,1.31,0,1.83,0-.52,0,0-1.3-1.05-1,0-.52.27-1.3,0-1.82-3.66-3.4-2.35-8.35-1.3-12.52-1.05,2.34-3.66,3.13-5.75,4.17-1.53.46-3.05-.24-4.63-.69a2.55,2.55,0,0,0-1.39.69c-.52.26-1.3,0-1.83,0-.26,0-.26-.52-.26-.78a5.38,5.38,0,0,1,3.48.09,7.41,7.41,0,0,1,1.49-.09V87.1c-.79-.26-1.31-1-2.09-1.3,1.57-6.52-5.49-7.56-8.89-11.21-.79-1,.52-3.66-.52-5.22-1.31-2.33-4.66-1.58-6.24-3.61,2.91,5.2,1.91,12.44-1.87,16.91-3.4,4.43-9.67,6.26-14.11,2.87-5-4.17-2.62-12,.52-17.21a8.36,8.36,0,0,1-11.5,2.08,7.93,7.93,0,0,1-4-5.88,12.13,12.13,0,0,1-6.74,9c-5,2.35-11.24,2.61-16-.78,4.71,8.08,10.46,18.52,4.18,27.12-4.7,6-13.33,5-19.6,2.09,8.36,5.48,16.47,14.87,12.55,25.3-1.31,3.91-6.28,5.73-10.2,3.91-3.14-1.3-6.8-3.13-7.58-6.78a20.54,20.54,0,0,1-.26,11.21c-.79,2.35-3.4,3.39-5.75,4.18a7.57,7.57,0,0,1-8-2.87,8.93,8.93,0,0,0,17.33-3.69,13.26,13.26,0,0,0,14.9,2.58,15.28,15.28,0,0,0,8.38-12.89,18.29,18.29,0,0,0-6.22-14.3,15.76,15.76,0,0,0,18.46-4.16c4.12-4.9,4-15.76-.72-20.39a10.35,10.35,0,0,0,12.05-3.47,15.12,15.12,0,0,0,3.22,9.17c5.65,6.65,19,2.38,23.38-4C462,95.28,472,104.76,481.34,101a16.52,16.52,0,0,0-6.54,17.26,17.45,17.45,0,0,0,13.67,12.6,18.53,18.53,0,0,0,17.43-6.83c-1.9,6.56,3.45,14.15,10.27,14.7,7.06.58,12.63-6.07,12-13,.39,4.62,5.58,7.5,10.23,7.45a17.26,17.26,0,0,0,15.16-10.43A19.68,19.68,0,0,0,551.42,104.28Z"/><path class="cls-20" d="M507.11,109.72c0-.06,0-.12.05-.19A.41.41,0,0,0,507.11,109.72Z"/><path class="cls-20" d="M381.94,139.79c2.35-.79,5-1.83,5.75-4.18A20.36,20.36,0,0,0,388,124.4c.79,3.65,4.45,5.48,7.58,6.78,3.92,1.82,8.89,0,10.2-3.91,3.92-10.43-4.18-19.82-12.55-25.3,6.27,2.87,14.9,3.91,19.61-2.09,6.27-8.6.52-19-4.19-27.12,4.71,3.39,11,3.13,15.95.78a12.11,12.11,0,0,0,6.74-9,6.74,6.74,0,0,1,.06-1.68,9.44,9.44,0,0,1-.06,1.68,7.9,7.9,0,0,0,4,5.88c3.66,2.35,8.89,1.83,11.5-2.08-3.14,5.21-5.49,13-.52,17.21,4.44,3.39,10.72,1.56,14.12-2.87,3.77-4.47,4.78-11.71,1.86-16.91l0,0c-.53-.52-1.31-.78-1.05-1.57a12.23,12.23,0,0,1,1.08,1.61c1.57,2,4.94,1.28,6.24,3.61,1,1.56-.26,4.17.52,5.22,3.4,3.65,10.46,4.69,8.89,11.21.78.26,1.31,1,2.09,1.3v1.05a7.46,7.46,0,0,0-1.49.09c1.57.45,3.1,1.15,4.63.69,2.09-1,4.7-1.83,5.75-4.17-1.05,4.17-2.35,9.12,1.31,12.52.26.52,0,1.3,0,1.82,1-.26.52,1,1,1-.52,0-1.3-.26-1.83,0-3.92,4.18-5.75,11.22-1.83,15.91,2.36,3.13,6.28,5.22,10.2,3.91,4.9-1.28,8-5.37,9.36-10.24a.41.41,0,0,1,.05-.19c0,.07,0,.13-.05.19,0,.46.54.92.31,1.38a1.39,1.39,0,0,1,1.05.52c.26,2.87,2.09,2.87,4.44,2.61-3.4,3.13-3.92,10.43.26,12.52,3.66,1.82,7.58.26,9.94-3.13,1.3-2.35,1.3-5,1-7.57,4.18,3.13,11.24,4.7,13.86-.26,5.23-10.43-7.85-16.43-16.47-18.25A20.33,20.33,0,0,0,538,83.19c2.09-6.78-1.31-13.3-6-18.25-1-1.31-3.66-1.57-4.44-3.65,4.44-1.31,9.93,0,12.81-3.92,6.27-8.08.78-18.25-.26-27.38a6.9,6.9,0,0,1,.21-3,44.52,44.52,0,0,0-14-11.89c-9.36-4.95-20.44-5.67-31-4.71S474.41,13.85,463.87,15c-7.17.78-14.91.76-21-3.1C440,10,437.46,7.31,434.1,6.48c-8.17-2-13.92,7.27-21.48,7.53-.41,2.27-.82,4.55-1.14,6.85-2.35-7-10.72-6.26-16-3.39-5,2.87-9.67,6.26-11,12-1.3,6,.79,12.52,4.45,17.21-8.63-5.74-23-1.83-25.36,8.35-1.83,9.12,5.23,17.73,13.59,20.86-3.66-.26-7.05.26-9.67,2.61-4.18,3.13-6,8.6-3.14,13.3,1.8,2.91,3.8,5.83,7,7.25.47,0,.93,0,1.39,0-.26.26.78.78.26.52a9.76,9.76,0,0,1-1.65-.57c-10.26-.09-20.42,7-22.92,17.26a17.5,17.5,0,0,0,4.82,16.6c3.4,1.77,7.6,1.5,11.19.12s6.92-3.94,10.05-6.4c-2.06,1.62-1.44,7.9-.69,10l.09.26A7.57,7.57,0,0,0,381.94,139.79Z"/><path class="cls-22" d="M348.48,116.31C351,106.08,361.14,99,371.4,99.05c-3.18-1.42-5.18-4.34-7-7.25-2.87-4.7-1-10.17,3.14-13.3,2.62-2.35,6-2.87,9.67-2.61-8.36-3.13-15.42-11.74-13.59-20.86C366,44.85,380.37,40.94,389,46.68c-3.66-4.69-5.75-11.21-4.45-17.21,1.31-5.74,6-9.13,11-12,5.23-2.87,13.6-3.65,16,3.39.32-2.3.73-4.58,1.14-6.85a9.93,9.93,0,0,1-1.54-.07c-4.25-.57-7.58-3.13-12.12-3.1a19.75,19.75,0,0,0-11.56,3.73,20.27,20.27,0,0,0-6.56,23.19c-10-3.58-22.6,1.8-26.37,11.75s2.59,22.64,13,25.06a10.34,10.34,0,0,0-4.75,20,22.08,22.08,0,0,0-14.42,33.34,13.91,13.91,0,0,0,4.65,4.78l.38.2A17.5,17.5,0,0,1,348.48,116.31Z"/><path class="cls-23" d="M531.47,222.2c1.83-5,2.09-13.56-3.4-14.35-7.32-1.3-7.84,9.65-8.88,15.39-1.31-12.52-12.29-21.12-23.27-25-7.32-2.86-15.43,3.66-17,11.48-1.05,4.43-.27,8.87.52,13.3.52,5,2.09,9.39,1.83,14.34-1.31-4.69-6-6.52-10.2-7.56-5.75-1.56-14.11-1.3-15.94,5.22a23.63,23.63,0,0,0-.65,8.9c3,6.55,8.72,11.77,16,13.22,13.58,2.71,26.34,8.4,39.83,11.78,10.52,2.65,21.51,4.6,32.19,2.7s21.1-8.32,25.2-18.34c2.47-6,2.49-12.74,2.09-19.24a42.14,42.14,0,0,0-1.89-11.26,34.74,34.74,0,0,0-18.11-7.84C543,213.85,534.87,215.94,531.47,222.2Z"/><path class="cls-24" d="M549.11,209.74c-5.7-.31-12.29,1.79-14.31,7.1.26-3.68.51-7.52-.9-10.93s-5-6.23-8.63-5.48c-2.78.59-4.81,3.09-5.65,5.78a24.06,24.06,0,0,0-.58,8.39c-3.23-11.55-9.46-23.9-21-27.3-10.3-3.05-22.45,3.4-25.68,13.63-2.87,9.11.84,18.94,5.37,27.36A17.62,17.62,0,0,0,461.62,221a11,11,0,0,0-6.28,2.58c-2.32,2.16-3.14,5.51-3.24,8.68a25.67,25.67,0,0,0,2.39,11.66,23.63,23.63,0,0,1,.65-8.9c1.83-6.52,10.19-6.78,15.94-5.22,4.19,1,8.89,2.87,10.2,7.56.26-4.95-1.31-9.38-1.83-14.34-.79-4.43-1.57-8.87-.52-13.3,1.56-7.82,9.67-14.34,17-11.48,11,3.92,22,12.52,23.27,25,1-5.74,1.56-16.69,8.88-15.39,5.49.79,5.23,9.39,3.4,14.35,3.4-6.26,11.5-8.35,18.3-7.3a34.74,34.74,0,0,1,18.11,7.84,19.29,19.29,0,0,0-2.77-5.3C561.45,212.56,555.21,210.06,549.11,209.74Z"/><path class="cls-25" d="M128.36,193.25c-.52-3.65,0-7-.26-10.43a15.71,15.71,0,0,0-2.88,7.56c-1.83-6.78-.78-13.82,0-20.6.53-5.22,1.57-10.7.26-15.91-.26,3.39.27,7-1.83,9.91-.52-1.57-.26-2.87-.52-4.43,0,2.34-1.31,6.25-3.66,4.17-3.92-3.39-7.58-7-11.24-10.69-.26,1.56.79,3.13,1.83,4.17-5.23-3.33-11.13-9.25-9.17-15.81a103,103,0,0,1-7.13-10,8.85,8.85,0,0,0-3-3.37c-.59-.31-1.45-.41-1.78.16a1.42,1.42,0,0,0-.14.76c.11,3.13,2.1,6.71,3.42,9.54a61.8,61.8,0,0,0,5.13,8.93,60.13,60.13,0,0,0,14.38,14.66c4,2.87,8.68,5.64,10.15,10.34a20.47,20.47,0,0,1,.57,6.26c-.12,19.21,4.91,37.72,7,56.67a22.69,22.69,0,0,0,1,4.54,39.08,39.08,0,0,0,2.61-7.34C136.2,219.07,130.19,206.55,128.36,193.25Z"/><path class="cls-25" d="M140.12,144.22a6.47,6.47,0,0,1,4-.63,6.07,6.07,0,0,1-.9-.59,6.69,6.69,0,0,1-2.09-3.7c-.76-3.45.53-6.22,2.42-9,2.18-3.16,4.38-6.33,6.54-9.51a79,79,0,0,0,7.94-15c2.62-6.57,4.32-14.16,1.37-20.6L154,97.69a153.83,153.83,0,0,1-7.07,14.7c-1,1.67-1.9,3.31-2.94,4.87,2.18.61,4.41,1.9,3,4.26a24.56,24.56,0,0,1-5.23,7.56c.78-2.08,1.57-3.91,1.31-6-3.93,7.56-6.54,16.17-4.71,24.77A3.68,3.68,0,0,1,140.12,144.22Z"/><path class="cls-26" d="M145.61,210.2a70.18,70.18,0,0,1-3.66-7.56c.79,9.13,5.23,17,8.63,25.3,0-2.35-.52-5-.26-7.31,4.07,10.26,10.24,19.28,16.36,28.38a8.7,8.7,0,0,0,.72-1.51,5.94,5.94,0,0,0,.15-3.75,11.65,11.65,0,0,0-2.38-3.79,99.06,99.06,0,0,1-20.46-44.26c-.61-3.31-1-6.9.66-9.77C139.77,191.83,144.92,202.84,145.61,210.2Z"/><path class="cls-27" d="M150.32,220.63c-.26,2.35.26,5,.26,7.31-3.4-8.35-7.84-16.17-8.63-25.3a70.18,70.18,0,0,0,3.66,7.56c-.69-7.36-5.85-18.37-.26-24.25a8.13,8.13,0,0,1,1.8-2.16l.16-.12c2.94-2.35,9.72-3.58,8.3-8.59-.1-.34-.32-.72-.67-.7a.88.88,0,0,0-.44.22c-2.35,1.8-5.87,3.26-8.78,2.87-2.76.44-5.34-.36-6.39-3.51-2.36-7.56-.79-15.38-1.31-23.21,1.57,1.83,1,5.74,3.14,5.74,3.13,0,5-4.69,8.36-5.74,8.11-2.87,14.38-8.34,19.61-15.12,1.31-1.52,1-3.59-.37-5.29a69.74,69.74,0,0,1-7.71,7.18c-3.62,2.87-11.82,8.86-17,6.09a6.43,6.43,0,0,0-4,.62,3.71,3.71,0,0,0-1.83,3.65c-1.83-8.6.79-17.21,4.71-24.77.26,2.08-.53,3.91-1.31,6a24.72,24.72,0,0,0,5.23-7.57c1.42-2.36-.81-3.65-3-4.26a20.46,20.46,0,0,1-6.72,6.62,9.53,9.53,0,0,1-8.06,1,12,12,0,0,1-4.25-3.24,40.37,40.37,0,0,1-3.79-4.76,8.31,8.31,0,0,0,.71,7.5c-1.57-.52-2.09-2.35-2.87-3.65-.27,1.57.78,3.13,1.3,4.17,2.88,5.74,5.49,11.48,5.23,17.74,1-2.09,1-4.18,2.09-6.26,1.31,5,.53,10.17-3.13,13.82a9.5,9.5,0,0,1-3,2.39l-.3.22a5.94,5.94,0,0,1-4.25.6c-5.34-.9-9.59-4.86-13.16-8.91-1-1.09-1.9-2.19-2.81-3.32-2,6.55,3.92,12.47,9.17,15.8-1-1-2.09-2.61-1.83-4.17,3.66,3.65,7.32,7.3,11.24,10.69,2.35,2.09,3.66-1.82,3.66-4.17.26,1.56,0,2.87.52,4.43,2.09-2.87,1.57-6.52,1.83-9.91,1.31,5.22.26,10.69-.26,15.91-.78,6.78-1.83,13.82,0,20.6a15.74,15.74,0,0,1,2.88-7.56c.26,3.39-.27,6.78.26,10.43,1.83,13.3,7.84,25.82,4.7,39.12a40.64,40.64,0,0,1-2.61,7.35c4.25,13.11,20,22,32.69,13a12.54,12.54,0,0,0,3.55-3.74C160.56,239.91,154.39,230.89,150.32,220.63Z"/><path class="cls-25" d="M180.64,112.71a69.34,69.34,0,0,1-11.87,17.62c1.35,1.7,1.68,3.76.37,5.28-5.23,6.78-11.5,12.26-19.6,15.13-3.4,1-5.23,5.74-8.37,5.74-2.09,0-1.57-3.92-3.14-5.74.53,7.82-1,15.65,1.31,23.21,1,3.15,3.63,4,6.39,3.51a5.37,5.37,0,0,1-4.6-4.24A18.09,18.09,0,0,1,142,160.9c2.61-6.07,9.25-8.13,14.46-11.54a80.25,80.25,0,0,0,15.8-13.19,63,63,0,0,0,15-30.19C183.93,106.11,182.05,109.71,180.64,112.71Z"/><path class="cls-25" d="M114.21,118.94c2.42,4.79,5.6,9.19,7.59,14.16a28.87,28.87,0,0,1,1.65,14.45c-.19,1.86-.63,3.9-2,5a9.26,9.26,0,0,0,3-2.38c3.66-3.65,4.44-8.87,3.14-13.82-1,2.08-1,4.17-2.1,6.25.27-6.25-2.35-12-5.22-17.73-.53-1-1.57-2.61-1.31-4.17.78,1.3,1.31,3.13,2.87,3.65a8.34,8.34,0,0,1-.71-7.5c-.46-.68-.89-1.36-1.31-2.05-3.18-5.32-5.18-11.4-9.32-16-.5-.55-1.15-1.12-1.88-1-1.08.21-1.22,1.68-1.08,2.77C108.45,107.42,111.21,113,114.21,118.94Z"/><path class="cls-21" d="M171.76,118.14c1.3-5.22,5.75-8.09,9.93-11-2.88.26-6-.27-7.84-2.35-1.31-1.83-.53-4.44-.26-6.78-1.83,5-6.8,8.86-11.24,10.69-2.36.78-4.45,2.35-7.06,2.87-5.23.78-11.51-.52-13.6-5.48-2.35-6-2.61-13,.26-19-1.3,2.35-5.75,0-6.27.79-3.4,3.91-5.49,11.47-12,12.51-4.44.79-7.05-2.86-10.45-4.43,3.13,3.91,1.83,9.91.26,13.82-2.35,5.48-8.37,9.65-14.64,6.26-2.88-1.82-5-4.43-7.32-6.78-.78,1-2.09,1.57-3.14,2.35-.26.26-.78,0-1.3,0,.26.52-.79.52-.53.78,3.66,2.09,5.23,6,6.54,9.65,2.35,7.3.52,17.47-7.06,19.82-5.49,1.83-10.72-2.87-10.46-8.6-.26,3.39-3.66,5.47-6.27,6.78-4.18,2.34-8.1-.53-10.2-3.92a14.16,14.16,0,0,1,1.83-16.69c2.88-3.65,8.37-3.91,10.46-8.34.52-1-.78-1.57-1.05-1.57C63,108,60.65,99.36,57.52,93.88c-1.83-3.12-8.89-1.82-10.46-7-1.83-7.3,5.75-10.43,11.76-8.86A14.61,14.61,0,0,1,57,64.15c1.57-3.91,3.66-12.25,9.41-10.43a17.24,17.24,0,0,0-1.79-3,21.45,21.45,0,0,0-5.35,3.76,22.31,22.31,0,0,0-6.32,19.79c-6.49-1.93-14,4-13.54,10.76.22,3.42,2.09,6.52,4.21,9.2a11.06,11.06,0,0,0,5,4c1.47.46,3.07.37,4.54.85,5.19,1.71,4.7,14.08,9.27,13.48-5.7.76-9.81,5.93-12,11.24s-3,11.34-1.26,16.79,6.46,10.14,12.15,10.85,11.89-3.32,12.6-9c.79,5.34,7.24,8.15,12.6,7.4a17.39,17.39,0,0,0,12.34-26.45c5,3.49,12.32,2.23,16.73-1.94s6.16-10.6,5.78-16.66A7,7,0,0,0,135,102.67c-.24,7.3,6.62,13.49,13.9,14.42s14.52-2.32,20.35-6.76c-5.71,7.21-3,19.4,5.25,23.51a14.52,14.52,0,0,0,8.73,1.24,20.6,20.6,0,0,1-2.61-.26C173.32,133.53,169.93,125.44,171.76,118.14Z"/><path class="cls-20" d="M217.24,97.28c-2.09-5-8.88-8.09-14.37-6,6.79-5.74,12.28-14.61,7.32-23.47-3.14-5.48-10.72-8.87-16.74-5.74,4.45-3.91,8.11-10.17,5.76-15.91-2.1-4.7-7.06-8.87-12-9.65a58.54,58.54,0,0,1,5.6-8.55,39,39,0,0,0-11.93-4.81c-7.56-1.74-15.39-1.67-23.14-1.59l-28.5.26c-5.51.05-11.07.11-16.41,1.45-8.84,2.23-16.6,8-22,15.27-1.72,2.31-4.22,9.91-7.09,10.63a9.9,9.9,0,0,1-4.37-.42,22.41,22.41,0,0,0-14.67,1.91,17.24,17.24,0,0,1,1.79,3.05c-5.75-1.82-7.85,6.52-9.41,10.44A14.56,14.56,0,0,0,58.84,78c-6-1.57-13.6,1.56-11.77,8.87,1.57,5.21,8.63,3.91,10.46,7C60.67,99.35,63,108,70.34,109.53c.26,0,1.57.52,1,1.56-2.09,4.43-7.58,4.69-10.45,8.35a14.13,14.13,0,0,0-1.83,16.69c2.09,3.39,6,6.26,10.19,3.91,2.62-1.31,6-3.39,6.28-6.78-.27,5.74,5,10.43,10.45,8.6,7.58-2.34,9.41-12.51,7.06-19.82-1.31-3.65-2.87-7.56-6.53-9.65-.27-.26.78-.26.52-.78.52,0,1,.26,1.31,0,1-.78,2.35-1.3,3.13-2.35,2.36,2.35,4.45,5,7.32,6.78,6.28,3.4,12.29-.78,14.64-6.25,1.57-3.92,2.88-9.91-.26-13.83,3.4,1.57,6,5.22,10.46,4.44,6.53-1.05,8.62-8.61,12-12.52.53-.78,5,1.56,6.28-.78-2.88,6-2.62,13-.26,19,2.09,5,8.36,6.26,13.59,5.48,2.61-.52,4.71-2.08,7.06-2.87,4.44-1.82,9.41-5.73,11.24-10.69-.26,2.35-1,5,.26,6.78,1.83,2.09,5,2.61,7.84,2.35-4.18,2.87-8.62,5.74-9.93,10.95-1.83,7.3,1.57,15.39,8.89,16.69a20.78,20.78,0,0,0,2.61.26c6-.92,11.7-5.19,13.28-11.15,1.73,4.47,7.58,6.34,12,4.59,3.28-6.52.41-14.43-5.14-19,4.71,1.31,10.2.52,12.81-3.65C217.77,103.27,218.55,100.14,217.24,97.28Z"/><path class="cls-22" d="M214,86.73a17.45,17.45,0,0,0-11.74-30.1c4-6.62,2.7-15.58-1.91-21.79A27.36,27.36,0,0,0,192.79,28a59.09,59.09,0,0,0-5.6,8.55c5,.78,9.93,5,12,9.65,2.35,5.74-1.31,12-5.76,15.91,6-3.13,13.6.26,16.74,5.74,5,8.86-.53,17.73-7.32,23.47,5.49-2.09,12.28,1,14.37,6,1.31,2.86.53,6-1,8.6-2.62,4.17-8.11,5-12.81,3.65,5.55,4.57,8.42,12.48,5.13,19a8.29,8.29,0,0,0,2.08-1.2c4.36-3.52,4.63-10.8.93-15A12.91,12.91,0,0,0,214,86.73Z"/><path class="cls-23" d="M126.27,220.11c-7.06-.78-14.64.78-19.35,6.52,2.36-6.52,5.76-13.82,3.14-20.6-1.31-4.17-6.8-5-11-2.87-7.32,3.65-12,10.17-16.21,17,3.14-14.08,6.28-27.9,3.4-42.77-.78-5-5.49-8.08-9.93-8.87-9.94-2.08-19.61,2.09-26.67,9.13a84,84,0,0,0-5.75,7.56C36.08,195.07,33.2,206.55,29.54,218c-.52-6.79-4.44-12.52-10.19-16.7a7.78,7.78,0,0,1-1.57-1c-8.1-3.65-18.56-2.61-25.36,3.13a24.56,24.56,0,0,0-3.63,3.65,82.58,82.58,0,0,0-1.42,15.27c-.46,14.78-1.83,28.74.61,43.51.66,3.93,1.53,7.94,3.75,11.24,5.75,8.52,17.88,9.29,28.14,8.42a210,210,0,0,0,35.2-6.05c9-2.35,17.93-5.31,27.2-5.6,7.18-.23,14.32,1.15,21.5,1.32,10.18.23,20.57-2.11,29.07-7.69,7.64-5,13.6-12.81,15.73-21.63a40.81,40.81,0,0,0-.59-6.71C146.14,228.2,136.46,221.42,126.27,220.11Z"/><path class="cls-24" d="M138.05,216c-6.84-4.76-17.07-5.44-23.07.34,2-4.06,4.13-8.22,4.66-12.73s-.71-9.52-4.32-12.28c-4.16-3.2-10.37-2.53-14.73.38s-7.17,7.61-9.33,12.38a84.3,84.3,0,0,0,3.26-23.95,25.31,25.31,0,0,0-1.47-9.4c-2.13-5.19-7.2-8.83-12.66-10.17s-11.25-.6-16.61,1.08C46,167.28,32.21,184,30.19,202.52a24.69,24.69,0,0,0-10.61-13,19.24,19.24,0,0,0-16.5-1.33,21.22,21.22,0,0,0-7.33,5.27,28.15,28.15,0,0,0-7,13.58,24.56,24.56,0,0,1,3.63-3.65c6.8-5.74,17.26-6.78,25.36-3.13a7.78,7.78,0,0,0,1.57,1C25.1,205.5,29,211.23,29.54,218c3.66-11.47,6.54-22.95,14.38-32.86a84,84,0,0,1,5.75-7.56c7.06-7,16.73-11.21,26.67-9.13,4.44.79,9.15,3.91,9.93,8.87C89.15,192.2,86,206,82.87,220.1c4.19-6.78,8.89-13.3,16.21-16.95,4.18-2.09,9.67-1.3,11,2.87,2.62,6.78-.78,14.08-3.14,20.6,4.71-5.74,12.29-7.3,19.35-6.52,10.19,1.31,19.87,8.09,21.7,19a40.81,40.81,0,0,1,.59,6.71,31,31,0,0,0,.58-3C150.52,232.74,146.41,221.85,138.05,216Z"/><path class="cls-28" d="M30.59,116.84c-.79-8.35-1.57-16.7-6.8-23.48,2.35,1.83,4.71,3.65,6.28,6.26C29,94.15,25.1,90.49,22,86.06a34,34,0,0,1-2.09-4.43,8.08,8.08,0,0,0-.26,5c-3.4-4.69-7.84-9.39-8.1-15.38,0-.27,2.35-.53,2.61-1.83,2.35,2.35,3.92,5.22,6.27,7.56-.52-3.39-2.35-6.26-3.66-9.39,1.31-.26,3.4-.78,3.66-2.6,1.57,1.79,3.14,4.15,5.55,5.12A265.67,265.67,0,0,1-1,12.37c-.61-1.82-1.78-4.08-3.71-3.82-1.44.19-2.24,1.76-2.65,3.16-2.41,8.15-.26,16.86,1.91,25.08C-2.58,47.73.33,58.76,5.3,68.93c5.63,11.54,13.76,21.7,19.82,33,3.48,6.52,3.4,15.77-4.33,19.3-1.83.83-3.84,1.2-5.57,2.2a12.64,12.64,0,0,0-5,6.28c-2.44,5.85-2.39,12.4-2.31,18.73.13,9.84-.5,19.67-.4,29.49,1.13-4.71,1.85-9.61,3.72-14.19,1.31,2.87,1,6.26,2.88,8.87-1.22-7.53,1.65-14.83,5.21-21.49a29.29,29.29,0,0,0,3.42-5.63,26,26,0,0,0,.63-12.26c-.27-3.31-.8-6.72-.11-10.17.52-2.09,4.7-2.09,4.7-4.7a15.11,15.11,0,0,0,5,5A13.16,13.16,0,0,1,30.59,116.84Z"/><path class="cls-28" d="M37.12,95.71a10.49,10.49,0,0,0,5.23-2.35c-.26,2.87-2.09,5.22-3.4,7.83,3.93-1.83,5-6.78,8.89-8.35,3.47-1.48,7.42.32,10.72-.83-2.35.71-4.1-1.78-6.53-1.78,5.8-1.26,9.21-6.16,11.54-11.49l-.42.45C59.76,82.8,55.71,86,51,87.47s-8.35,1-11.44-.78A7.42,7.42,0,0,1,37.12,95.71Z"/><path class="cls-29" d="M58.56,92a4.71,4.71,0,0,0,.52-.21C58.91,91.88,58.73,92,58.56,92Z"/><path class="cls-29" d="M12.56,187.55a16.64,16.64,0,0,0,.26-1.86C12.7,186.31,12.62,186.93,12.56,187.55Z"/><path class="cls-28" d="M51,212.29a37.48,37.48,0,0,1-5.23-7.3c1.31,8.34,5.49,15.9,11.24,22.16-1-1.82-1-3.65-1.3-5.73,4.35,8,14,6.84,22,4.87-4.16-.09-8.32,0-12.16-1.53C57.07,221.49,53,212,50.63,203.24c-.8-3-1.49-6.13-2.08-9.27a1.76,1.76,0,0,1-1-1c-.86-1.41-1.73-2.85-2.5-4.32a88.78,88.78,0,0,1,3.29,16.05A20,20,0,0,0,51,212.29Z"/><path class="cls-30" d="M76.34,230.28a15.24,15.24,0,0,1,14.11,2.35c-.78-1-.78-2.35-2.09-2.87a37.77,37.77,0,0,1,11.89,6.78,26.42,26.42,0,0,0-16.4-9.82l-.55-.08C80.58,226.79,77.56,227.86,76.34,230.28Z"/><path class="cls-29" d="M100.25,236.55a37.58,37.58,0,0,0-11.89-6.78c1.31.52,1.31,1.82,2.09,2.87a15.21,15.21,0,0,0-14.11-2.35c1.21-2.43,4.24-3.5,7-3.64a49.64,49.64,0,0,0-5.59-.35c-8.07,2-17.67,3.15-22-4.88.26,2.09.26,3.91,1.3,5.74-5.75-6.26-9.93-13.82-11.24-22.17a36.89,36.89,0,0,0,5.23,7.3,19.93,19.93,0,0,1-2.61-7.56,88.89,88.89,0,0,0-3.29-16.06c-1.8-3.42-3.09-7-2.73-11.06A73.28,73.28,0,0,1,40,185.69c-2.35-8.61-4.18-17.21-2.61-26.08,2.09,1.83,1.3,5,3.66,6.52-.79-9.65,4.44-18.25,8.1-26.86a8.52,8.52,0,0,0,0-4.43c-1.31,1.82-3.4,2.08-5.49,2.6,5.49-5.47,2.61-12.25,2.35-18.77-.26-4.44,3.4-7.57,7.58-9.39,2.1-.79,2.88-3.13,3.4-5.48.26-.78,1-1.3,1.57-1.83,1.31-.78,2.88-.52,4.45-1.3,1.82-1,4.7-.52,6.79-2.35a2.24,2.24,0,0,0,.79-2.08,6.87,6.87,0,0,1-3.93,1c3.93-2.09,3.93-6.52,6-10.17.78-1.3,1.83-2.87,3.4-3.39A9.75,9.75,0,0,0,74,90.24c4.71-5.74,10.2-11.48,10.72-19-2.09,1.57-2.87,5-6,5,1-1.83,3.92-5,1.57-5.74C75,69.11,75,77.2,71.89,80.33a2.3,2.3,0,0,1-2.35,1A16.72,16.72,0,0,0,74,72.24c.27-1.3,2.88-2.6,2.1-4.43-.62-1.24-2.38-1.34-3.48-2.22a58.14,58.14,0,0,1-9,13.16C61.24,84.07,57.82,89,52,90.24c2.43,0,4.18,2.48,6.53,1.77a4,4,0,0,0,.52-.21,2.36,2.36,0,0,1-.52.21c-3.3,1.15-7.24-.65-10.72.84-3.92,1.56-5,6.52-8.89,8.34,1.31-2.61,3.14-5,3.4-7.82a10.58,10.58,0,0,1-5.23,2.35,7.43,7.43,0,0,0,2.41-9c-4-2.25-7-6.52-10-11q-1.83-2.77-3.57-5.58c-2.4-1-4-3.33-5.55-5.12-.26,1.83-2.35,2.35-3.66,2.61,1.31,3.13,3.14,6,3.66,9.39-2.35-2.35-3.92-5.22-6.27-7.56-.26,1.3-2.61,1.56-2.61,1.82.26,6,4.7,10.69,8.1,15.39a8.11,8.11,0,0,1,.26-5A34.16,34.16,0,0,0,22,86.07C25.1,90.5,29,94.15,30.07,99.63c-1.57-2.61-3.93-4.44-6.28-6.26,5.23,6.78,6,15.12,6.8,23.47a13.19,13.19,0,0,0,2.35,6.52,15.17,15.17,0,0,1-5-5c0,2.6-4.18,2.6-4.7,4.69-.69,3.46-.16,6.87.11,10.17a26,26,0,0,1-.63,12.26,29.36,29.36,0,0,1-3.42,5.64c-3.56,6.65-6.43,14-5.21,21.48-1.83-2.61-1.57-6-2.88-8.87a40,40,0,0,0-1.38,4.08,88.43,88.43,0,0,0,.6,29.57c0-3.51,1.47-6.64,2.09-9.87.06-.62.14-1.24.26-1.87a14.75,14.75,0,0,1-.26,1.87c-.75,7.91,2.72,15.43,4.18,23.17-1.3-1.57-1.3-3.91-3.13-5,.52,7.31,3.66,13.83,6.53,20.35,1.83,3.91,2.62,8.6-.78,11.47-.3.25-.59.52-.87.78,2.57,9.89,3.94,20-1,28.53-1.37,2.36-3.19,4.5-4.15,7s-.86,5.83,1.23,7.6c2.65,2.25,6.66,1,9.92-.26a94.85,94.85,0,0,1,26.1-5.7c6.23-.46,13.37-.69,17.32-5.52,2.73-3.33,3-7.59,2.87-12A25.79,25.79,0,0,1,68,243.31a4.47,4.47,0,0,0-2.09-4.17c-3.4-2.08-6.53-3.91-8.89-6.78a68.6,68.6,0,0,0,12,5,43.84,43.84,0,0,1-3.14-4.18c4.71,3.92,11,2.61,16.47,1.05,7.32-2.09,12.29,3.65,18,7.3a7.87,7.87,0,0,0,3.47,1,27.06,27.06,0,0,0-2.51-4.53C101,237.5,100.63,237,100.25,236.55Z"/><path class="cls-28" d="M103.86,242.54a8,8,0,0,1-3.47-1c-5.75-3.65-10.72-9.39-18-7.31-5.49,1.57-11.76,2.87-16.47-1A42.52,42.52,0,0,0,69,237.32a67.8,67.8,0,0,1-12-4.95c2.36,2.87,5.49,4.69,8.89,6.78A4.47,4.47,0,0,1,68,243.32,25.79,25.79,0,0,0,70.76,258c-.09-4.82-.55-9.85,1.42-14.08,3.08-6.61,11.88-9.36,18.72-6.81s11.49,9.36,12.8,16.53c.26,1.5,2.54-2,2.52-1.91.53-1.16-.54-3.05-.78-4.22A25.14,25.14,0,0,0,103.86,242.54Z"/><path class="cls-28" d="M20.13,226.11c-2.87-6.52-6-13-6.53-20.34,1.83,1,1.83,3.39,3.13,4.95-1.45-7.74-4.92-15.25-4.18-23.17-.63,3.23-2.09,6.37-2.09,9.87a88.37,88.37,0,0,1-.6-29.56c-.94,3.34-1.54,6.78-2.35,10.11,0,3.37.15,6.74.41,10.12a190.16,190.16,0,0,0,7.35,39c1.05,3.65,2.22,7.43,3.21,11.23.28-.27.57-.54.87-.78C22.75,234.72,22,230,20.13,226.11Z"/><path class="cls-28" d="M76.08,67.81c.78,1.82-1.83,3.12-2.1,4.43a16.75,16.75,0,0,1-4.44,9.13,2.3,2.3,0,0,0,2.35-1.05C75,77.19,75,69.11,80.26,70.41c2.35.79-.52,3.92-1.57,5.74,3.14,0,3.92-3.39,6-5-.52,7.56-6,13.3-10.72,19a9.78,9.78,0,0,1,2.1-6.52c-1.57.53-2.62,2.09-3.4,3.39-2.09,3.66-2.09,8.09-6,10.18a6.87,6.87,0,0,0,3.93-1,2.25,2.25,0,0,1-.79,2.09c-2.09,1.82-5,1.3-6.79,2.35-1.57.78-3.14.52-4.45,1.3-.52.52-1.31,1-1.57,1.83-.52,2.34-1.3,4.69-3.4,5.47-4.18,1.83-7.84,5-7.58,9.39.26,6.52,3.14,13.3-2.35,18.78,2.09-.52,4.18-.78,5.49-2.61a8.52,8.52,0,0,1,0,4.43c-3.66,8.61-8.89,17.22-8.1,26.87-2.36-1.57-1.57-4.7-3.66-6.52-1.57,8.86.26,17.47,2.61,26.08a73.46,73.46,0,0,0,2.35-8.09c-.52,5.74,2.36,10.69,5.23,15.39a1.76,1.76,0,0,0,1,1c-1-5.2-1.66-10.49-2.12-15.65-.79-8.76-.53-17.76,2.37-26.15,3.44-10,11.08-17.61,15.78-27a147.4,147.4,0,0,0,6.49-15.89,28.55,28.55,0,0,0,1.16-3.75c.44-2.11.37-4.3.78-6.42,1.31-6.7,7-10.6,10.34-16.12a74.89,74.89,0,0,0,7.8-18.08c3.7-12.78,4.59-26.27,4.17-39.52-.33-10.34-1.46-21-6.57-30C87.94-6,86-7.52,85-6.3a2.63,2.63,0,0,0-.49,1.56c-1.4,14.68-1.35,29.5-3.73,44.05A90.34,90.34,0,0,1,72.6,65.58C73.7,66.47,75.46,66.57,76.08,67.81Z"/><path class="cls-29" d="M18.3,133.53c-1.57-1.31-2.61-3.13-5-3.65a3.56,3.56,0,0,1,1.57,3.39c-2.87-3.66-7.58-4.18-11.5-6.52a3.5,3.5,0,0,1-1.83-2.35c1.05,4.95,7.32,6,11,9.13a11.28,11.28,0,0,1,3.14,5.73c.78,3.39,0,10.7-2.88,9.13-3.92-2.08-3.13-8.6-7.32-12a21.33,21.33,0,0,1,3.92,2.86c.27-2.6-2.09-3.65-3.39-4.95C1.57,129.88-4.44,127-8.1,121.79c-.79,1.83,1.57,3.13,1.31,5a89.14,89.14,0,0,1-10.2-7l-.07-.06a60.09,60.09,0,0,0,6.52,6.54A119.3,119.3,0,0,1,2.27,139.1c2.12,2.46,4.23,5,5.39,8.05C8.6,149.61,9,152.7,12,153.46c2.67.67,5.7-2.71,6.77-4.78a15.11,15.11,0,0,0,1.49-7.44,3.88,3.88,0,0,0-.29-1.62c-.37-.76-1.23-1.43-1-2.25s1.64-1.05,2.21-1.85a2.58,2.58,0,0,0,.34-1.55v-.12A2.77,2.77,0,0,1,18.3,133.53Z"/><path class="cls-31" d="M21,127.89a6.8,6.8,0,0,0-3.85-4.51,10.05,10.05,0,0,0-2.49-.47,67.06,67.06,0,0,1-7.77-.8,15.26,15.26,0,0,1-5-2.73,59.22,59.22,0,0,1-9.27-8.56,141.93,141.93,0,0,1-26-40.68c-1-2.27-3-5.06-5.21-4-1.26.57-1.7,2.11-1.9,3.47-1.7,12,5.17,23.41,11.77,33.61A148.53,148.53,0,0,0-17,119.65l.07.06a89.14,89.14,0,0,0,10.2,7.05c.26-1.83-2.1-3.13-1.31-5C-4.43,127,1.58,129.89,6,134.32c1.3,1.3,3.66,2.35,3.39,5a21.33,21.33,0,0,0-3.92-2.86c4.19,3.39,3.4,9.91,7.32,12,2.88,1.57,3.66-5.74,2.88-9.13a11.28,11.28,0,0,0-3.14-5.73c-3.66-3.13-9.93-4.18-11-9.13a3.47,3.47,0,0,0,1.83,2.35c3.92,2.34,8.63,2.86,11.5,6.52a3.55,3.55,0,0,0-1.56-3.39c2.35.52,3.39,2.34,5,3.65a2.77,2.77,0,0,0,3.22.31A19.46,19.46,0,0,0,21,127.89Z"/><path class="cls-31" d="M60.13,106.92c2.88.53,5.49,0,7.84,2.61,1.31,1.57,4.18-1,5.75.52,2.36,1.83,5,1.83,7.58,1.83a5.41,5.41,0,0,1-1.56.52c-4.71-.26-8.63-1-13.34-.52-1.3,0-2.09-1.83-3.13-2.09-9.41-2.34-15.17,7.31-12.55,15.13.78,2.61,3.92-1,6-1.83a7.72,7.72,0,0,1,2.35-.52c-2.09,1.31-2.61,3.39-4.7,4.7-.79.52-2.09,2.08-1.31,3.13,1,1.56,3.14,1,4.71,0,4.18-2.61,8.1-5.48,12.81-6.52-2.88,0-6-.26-8.63,1.3,6-7.56,15.95-2.87,23.53-5.74,1-.52,2.61-1,3.4-2.08.26.52,1.56-.79,1,.26-.78,1-1.83,2.61-3.4,3.13a41.6,41.6,0,0,0,19.35-12.52c-2.35.78-4.45,1.82-6.54,2.61a10.48,10.48,0,0,1,2.62-2.35c5.23-3.13,9.67-6.78,12.55-12,.78-1.56,1-3.39-.27-4.17-1.51-1.24-2.87-2.54-4.22-3.85-.47.66-1,1.3-1.46,1.93a39.63,39.63,0,0,1-9.78,8.2,40.76,40.76,0,0,1-13,5.9,22.38,22.38,0,0,1-12.86-.75c-2.35-.89-3.78-1.89-6.26-1.33a24.52,24.52,0,0,0-6.94,2.46C59.29,105.83,59.17,106.76,60.13,106.92Z"/><path class="cls-29" d="M127.12,56c-.49-2.65-2.49-6-5-4.93-1.74.76-1.9,3.1-1.9,5A55.74,55.74,0,0,1,110,88.47c1.33,1.31,2.7,2.61,4.22,3.85,1.3.78,1,2.61.26,4.17-2.88,5.22-7.32,8.87-12.55,12a10.48,10.48,0,0,0-2.62,2.35c2.1-.79,4.19-1.83,6.54-2.61a41.62,41.62,0,0,1-19.34,12.52c1.56-.52,2.61-2.09,3.39-3.13.53-1.05-.78.26-1-.26-.79,1-2.35,1.56-3.4,2.08C77.9,122.31,68,117.62,62,125.18c2.62-1.56,5.75-1.3,8.63-1.3-4.71,1-8.63,3.91-12.81,6.52-1.57,1-3.66,1.56-4.71,0-.78-1.05.53-2.61,1.31-3.13,2.09-1.31,2.61-3.39,4.71-4.7a7.71,7.71,0,0,0-2.36.52c-2.09.79-5.23,4.44-6,1.83-2.61-7.82,3.14-17.47,12.55-15.13,1,.26,1.83,2.09,3.14,2.09,4.7-.52,8.62.26,13.33.52a5.57,5.57,0,0,0,1.57-.52c-2.62,0-5.23,0-7.58-1.83-1.57-1.56-4.45,1-5.76-.52-2.35-2.61-5-2.08-7.84-2.61-1-.15-.84-1.09-.43-2-.25.14-.49.29-.74.45-.55.36-1.14.9-1,1.54.08.33.37.6.45.94.2.86-.94,1.35-1.79,1.63a10.85,10.85,0,0,0-6.26,6.31,32.27,32.27,0,0,0-1.9,8.93c-.18,1.61-.26,3.5.95,4.58.41.36,1,.62,1.17,1.12s-.09,1.31-.21,2c-.76,3.92,5.16,4.18,7.36,2.81a33.07,33.07,0,0,0,3.5-2.75c6.14-5.08,13.19-6.52,20.73-8.22A59,59,0,0,0,127.12,56Z"/><path class="cls-32" d="M532.43,37.55a23.6,23.6,0,0,0-1.45-3.8A16.65,16.65,0,0,0,532.43,37.55Z"/><path class="cls-32" d="M561,8.1a17.49,17.49,0,0,0-.49-2.37A5.85,5.85,0,0,0,561,8.1Z"/><path class="cls-33" d="M58.59,33.59a42.31,42.31,0,0,0,.88-4.17A28.1,28.1,0,0,0,58.59,33.59Z"/><path class="cls-33" d="M19.68,24.61q-.13-.83-.33-1.65C19.43,23.52,19.55,24.07,19.68,24.61Z"/><path class="cls-33" d="M56.89,7.81c0-.78-.08-1.56-.16-2.34A12.23,12.23,0,0,0,56.89,7.81Z"/><path class="cls-33" d="M202.08-1.31a34.21,34.21,0,0,0-2.48-6.85,67.13,67.13,0,0,0-6.4-6.22c-10.72-9.12-23.17-10.09-37-11.86-22.46-2.9-45-5.8-67.65-5.39-15.77.28-31.55,2.18-47.26.8C31.66-31.67,22.1-33.75,12.39-34a76.11,76.11,0,0,0-24,3.29,16,16,0,0,0-6.66,3.39c-3.18,3.1-3.59,8-3.75,12.39-.69,19,1.26,37.89.65,56.78-.14,4.22-.61,8.49-.42,12.43a17.85,17.85,0,0,0,2.75,1.5c7.32,3.39,15.68,4.17,23,.78,11.78-5.75,18-19.17,15.76-32-.13-.54-.25-1.09-.33-1.65q.2.83.33,1.65C22.07,34,32.13,39.15,40.78,35A29.44,29.44,0,0,0,56.89,7.83a12.23,12.23,0,0,1-.16-2.34c.08.78.13,1.56.16,2.34,1.56,9.69,14.56,9.78,22.58,7.83-6.53,6.26-9.41,16.69-8.1,25.56,1.57,9.65,11.76,16.17,21.7,14.34,9.67-1.83,19.61-5.48,26.66-12A56.6,56.6,0,0,0,116.33,73a23.93,23.93,0,0,0,8.37,15.91,53.67,53.67,0,0,0,11,6.87,17.83,17.83,0,0,0,5-1.67A20.46,20.46,0,0,0,151,71.69c2,5.36,6.44,9.91,12,11.32a14.51,14.51,0,0,0,7.68-.18A15,15,0,0,0,173.85,71C172,60,165.48,50.08,154.5,46.69c8.11-1.3,13.33-9.91,12.81-17.73.79,6.26,3.14,13.82,9.94,15.64,7.58,1.83,14.9-1.3,20.13-6.52C207.31,27.12,205.48,12.25,202.08-1.31Z"/><path class="cls-34" d="M116.33,73a56.6,56.6,0,0,1,3.4-29.47c-7,6.52-17,10.17-26.66,12-9.94,1.82-20.13-4.7-21.7-14.35-1.31-8.86,1.57-19.3,8.1-25.55-8,1.94-21,1.84-22.58-7.83A29.4,29.4,0,0,1,40.78,34.94c-8.65,4.2-18.71-.94-21.1-10.33,2.27,12.81-4,26.23-15.76,32-7.32,3.39-15.68,2.61-23-.78a17.85,17.85,0,0,1-2.75-1.5c.3,6.08,2.18,11.38,9.35,14.52A29.54,29.54,0,0,0,14.29,67,29.2,29.2,0,0,0,27.92,45.37c3.74,6.79,13.9,7.9,20.45,3.72,5.36-3.42,8.56-9.28,10.22-15.5a28.1,28.1,0,0,1,.88-4.17,42.31,42.31,0,0,1-.88,4.17A31.43,31.43,0,0,0,71.28,63,31.48,31.48,0,0,0,107,62.6c-2.35,1.73-.57,11.34,0,13.66,1.14,4.62,3.51,9.91,7.32,12.95,5.83,4.65,13.91,7.9,21.38,6.6a53.67,53.67,0,0,1-11-6.87A24,24,0,0,1,116.33,73Z"/><path class="cls-24" d="M199.6-8.16a34.21,34.21,0,0,1,2.48,6.85c3.4,13.56,5.23,28.43-4.7,39.38-5.23,5.22-12.55,8.35-20.13,6.52-6.8-1.82-9.15-9.38-9.94-15.64.52,7.82-4.7,16.43-12.81,17.73,11,3.39,17.52,13.3,19.35,24.25a14.92,14.92,0,0,1-3.18,11.89,13,13,0,0,0,7.39-5.36c2.63-4.14,2.52-9.57.84-14.17s-4.73-8.57-7.84-12.38c4.29,4.1,11.24,3.67,16.78,1.51,13.69-5.36,22.89-20,22.63-34.66C210.3,7.53,206-1,199.6-8.16Z"/><path class="cls-9" d="M178.34,160.45a2.35,2.35,0,0,0-.41,1.74A3.2,3.2,0,0,0,178.34,160.45Z"/><path class="cls-9" d="M96.82,159a4.21,4.21,0,0,0,1.41.56A2.72,2.72,0,0,0,96.82,159Z"/><path class="cls-9" d="M71.11,141.64a10.67,10.67,0,0,0,.94-1.46A11.71,11.71,0,0,0,71.11,141.64Z"/><path class="cls-9" d="M178.79,149a2.57,2.57,0,0,0-.11.82A7.68,7.68,0,0,0,178.79,149Z"/><path class="cls-9" d="M219.21,162.92a4.66,4.66,0,0,0,.45-1.67A4.42,4.42,0,0,0,219.21,162.92Z"/><path class="cls-35" d="M27.46,21.22c1.24,3.76,6.08,5.37,9.89,4.24s6.68-4.24,9-7.47c1.83-2.55,3.47-5.37,3.8-8.49C51,.89,41.48-1.16,35.36,2.68,30.61,5.65,25.72,15.94,27.46,21.22Z"/><path class="cls-35" d="M89.34,45.25a34.2,34.2,0,0,0,13.86,1A20.62,20.62,0,0,0,115.39,40c2-2.24,3.4-5.67,1.76-8.19-1.08-1.65-3.11-2.37-5-2.8a37,37,0,0,0-24.84,3.57C80.69,36.16,82.38,43.44,89.34,45.25Z"/><path class="cls-35" d="M132.33,78c2.5,1.54,6.07,1.48,8.11-.62a5.62,5.62,0,0,0,.58-.71,8.73,8.73,0,0,0,1.24-2.85c1.49-5.7-1.16-16.08-8.55-11.28C128.4,66,126.18,74.22,132.33,78Z"/><path class="cls-35" d="M194.41,26.79c2-10.6-13.16-15.48-16.29-4.26C174.54,35.43,192.17,38.61,194.41,26.79Z"/><path class="cls-36" d="M452-15.65c-9.15,2.35-284.25,269.36-284.25,269.36l93.43,8.91L476.06-19.3Z"/><path class="cls-36" d="M483.11-15.65c-3.66,5.22-188.24,263-188.24,263l103.8,16.54L491-19.82Z"/><polygon class="cls-36" points="500.89 -14.61 476.05 277.49 566.76 275.4 513.43 -23.21 500.89 -14.61"/><polygon class="cls-36" points="523.37 -20.87 634.21 270.97 674.47 204.72 533.04 -32.86 523.37 -20.87"/><path class="cls-37" d="M571.73,152.56c-.26-.42-.49-.85-.71-1.27-4.88-8.47-3.92-19.28-5-29a7,7,0,0,0-1.57-3.13c-2.61-2.87-2.87-6-4.7-9.13-1.83-3.39-7.06-3.91-8.11-7-.88-2.64.14-5.76.18-8.86a18.56,18.56,0,0,0-4.1-8.61c2.61,1.56,6.27,2.35,7.58,5.48-.52-8.35-8.89-12.26-13.85-18.26-.79-1-1.83-1.83-2.36-3.13a8,8,0,0,0,1.05,6.52c-5-2.35-7.32-7.56-10.2-12-1.57-2.34,2.09-3.13,2.36-5.47,1.3,1.82,3.39,5,5.75,4.69a20.54,20.54,0,0,1-3.14-5.74c-.46-1.68.07-3.36.48-5.05q-2.11-3.12-4-6.39c-5.34.4-9.64-9.48-12.13-13.18q-6.16-9.18-11.59-18.83c-4.94,7.38-.05,18.31,3.1,25.57a121.67,121.67,0,0,0,15.95,26.14,188.41,188.41,0,0,0,15.64,18.18c3.39,3.35,5.79,6.68,6.51,11.62A13.44,13.44,0,0,1,546.35,106c-1.31,1.63-3.21,3.22-3,5.29a5.36,5.36,0,0,0,1,2.27c2,2.91,4.36,5.62,5.45,9a50.31,50.31,0,0,1,1.07,5.05c1.5,7.29,5.78,13.64,9.6,20A57.79,57.79,0,0,1,568,169.33a35.33,35.33,0,0,0-.12-16.52c-.25-.52-.52-1-.81-1.55.29.51.56,1,.81,1.55a25.85,25.85,0,0,0-2.12-5.46A14.58,14.58,0,0,0,571.73,152.56Z"/><path class="cls-38" d="M558.29,236.64l-.15.17Z"/><path class="cls-38" d="M561.48,234.39a2.59,2.59,0,0,0,.32-.72A7.84,7.84,0,0,1,561.48,234.39Z"/><path class="cls-37" d="M617.22,154.39c0-1.56,1-2.87,1.31-4.43-2.36,3.65-5,7-8.89,8.86,1,.26,1.83.26,2.87.53-1.3,1-2.61,2.6-4.44,2.86-3.14.26-5.23-3.91-5.49-6.52a22.58,22.58,0,0,0-.26,4.18c.26,3.39,2.87,5.73,3.4,8.86,1,5.48-3.4,9.65-4.19,14.61-1.57,9.65,1.57,19-1.57,28.43.79-3.92-1.83-6.52-2.61-10.18.78,8.61-1.05,17.22-2.88,25.56,2.1-1.56,3.14-3.91,3.93-6.26a23.86,23.86,0,0,1-1,9.65c-2.09,7.31-2.35,14.87-5.75,21.65-1.05-4.43,1.57-8.87.26-13.56-.52-2.35-.78-4.7-2.88-6.26a24.38,24.38,0,0,1,.27,12.26c-.79-1-1.83-3.13-1.83-2.87-1.57,5.74-1.31,12-3.66,17.47-.27.78-1,2.61.26,2.61,5.9.84,10.61,3.2,14,7.37a47.1,47.1,0,0,1-1.48-5.69c-2.34-12.4,1.91-23.63,4.35-35.56,2-9.61,4-19.33,4.71-29.19.61-8.21,1-16.54,3.52-24.39,3.53-11.14,13-18.94,19.61-28.32a122.23,122.23,0,0,0,8.95-14.9c-5.22,5.45-9.5,11.4-14.18,17.75A31.48,31.48,0,0,1,617.22,154.39Z"/><path class="cls-39" d="M554.74,231.33c11.24-11,14.64-27.13,19.08-41.73-1.57,3.39-3.66,6-5.49,9.13.87-7.38,1.56-15.29.26-22.69.7,13.79-2.17,28.12-6.56,40.59-1.68,4.8-3.82,9.65-7.67,13a21.17,21.17,0,0,1-5.49,3.35c-4.92,2.12-10.57,3-15.62,5a30,30,0,0,0-5.56,3c2.88-1.44,5.7-3,8.76-3.57C543.24,236.28,550,236,554.74,231.33Z"/><path class="cls-38" d="M646.64,102.25c-.77-2.67-3.53-5-6.22-4.25-2.2.59-3.47,2.83-4.46,4.87-5.46,11.22-10.08,23.1-17.58,33.18l-.14.19c-3.67,4.85-6.37,9.2-13,9.22a13.7,13.7,0,0,1-3-.27,7.21,7.21,0,0,1-3.82-1c-2.62-1.3-5-3.39-5.76-6.26-1.3,2.61-1.3,5.74-1.3,8.61-2.88-7.57-5.75-15.13-5.49-23.48a47.13,47.13,0,0,1,3.66,6c-1.31-3.65-.79-7.56-1.83-11.21s-1.57-7-2.88-10.69a27.59,27.59,0,0,1-1.57,8.08,9.73,9.73,0,0,0-1-6.26c-1.83-2.55-5.36-3.26-7.58-5.48a15.13,15.13,0,0,0,2.61,4.44c-6.53-3.91-12.55-9.39-14.9-17,1.57,1.3,2.61,3.39,4.71,4.17-3.26-2.55-1.14-6.76-2.84-9.86-3-2.78-3.64-6.85-4.48-11.27a2.73,2.73,0,0,0-1-1.46,15.87,15.87,0,0,1-6.34-1.86,32.6,32.6,0,0,1-8.9-7.67,108,108,0,0,1-8.09-10.49c-.41,1.69-.94,3.37-.48,5.05A20.54,20.54,0,0,0,538,63.37c-2.36.26-4.45-2.87-5.75-4.69-.27,2.34-3.92,3.13-2.36,5.47,2.88,4.44,5.23,9.65,10.2,12a8,8,0,0,1-1.05-6.52c.53,1.3,1.57,2.09,2.36,3.13,5,6,13.33,9.91,13.85,18.26-1.31-3.13-5-3.92-7.58-5.48a18.56,18.56,0,0,1,4.1,8.61c0,3.11-1,6.22-.18,8.86,1,3.13,6.28,3.65,8.11,7,1.83,3.13,2.09,6.26,4.7,9.13a7,7,0,0,1,1.57,3.13c1.11,9.7.16,20.51,5,29h0c.22.42.45.85.71,1.27a14.58,14.58,0,0,1-6-5.21,26.07,26.07,0,0,1,2.12,5.46,35.21,35.21,0,0,1,.12,16.52c.31,2.21.52,4.45.63,6.7,1.3,7.41.61,15.32-.26,22.69,1.83-3.13,3.92-5.74,5.49-9.13-4.44,14.61-7.84,30.78-19.08,41.73-4.71,4.69-11.5,5-18.3,6-3.06.58-5.87,2.13-8.76,3.57a39.54,39.54,0,0,0-8.3,7.62c3.4.23,6.77.83,10-.5,3.66-1.3,6.27-4.43,10.2-5.74a27,27,0,0,1,7.84-1,5.53,5.53,0,0,0-3.92,3.65c7.08-1.76,14.64-3.53,18-10.49-.94,1.37-3.29,1.47-4.65,2.15,4.71-2.35,5-8.35,7.32-12.52,0,1.3-.26,2.61.52,3.91.53-3.13,2.36-5.48,2.88-8.61.26-1.56,1.57-3.13,2.35-4.69-1.57,9.13-3.14,18.26-8.36,26.6-1.57,2.35-1.57,5.48.78,6.52,4.44,2.09,6-3.65,8.1-6.52.79,3.39-.52,6.78-.78,10.17-.78,10.17-.78,20.87-7.58,29.21a96,96,0,0,1-6.8,7.79,150.39,150.39,0,0,1,30.93,12.45c3.26,1.77,6.55,3.68,10.22,4.28s7.87-.44,9.92-3.53,1.35-7.36.19-11c-2.35-7.3-6.16-14.16-8.52-21.43-3.38-4.18-8.1-6.52-14-7.37-1.3,0-.52-1.83-.26-2.61,2.35-5.48,2.09-11.73,3.66-17.47,0-.26,1.05,1.82,1.83,2.87a24.27,24.27,0,0,0-.26-12.26c2.09,1.56,2.35,3.91,2.88,6.26,1.3,4.69-1.31,9.13-.27,13.56,3.4-6.78,3.66-14.34,5.76-21.65a24,24,0,0,0,1-9.65c-.78,2.35-1.83,4.7-3.92,6.26,1.83-8.34,3.66-17,2.88-25.56.78,3.66,3.39,6.26,2.61,10.18,3.14-9.39,0-18.78,1.57-28.43.78-5,5.23-9.13,4.18-14.61-.52-3.13-3.14-5.47-3.4-8.86a22.58,22.58,0,0,1,.26-4.18c.26,2.61,2.36,6.79,5.49,6.52,1.83-.26,3.14-1.82,4.45-2.86-1-.27-1.83-.27-2.88-.53,3.92-1.82,6.54-5.21,8.89-8.86-.26,1.56-1.31,2.87-1.31,4.43a31.26,31.26,0,0,0,6.28-5.48c4.68-6.35,9-12.3,14.18-17.75a121.73,121.73,0,0,0,8.25-20.72C646.71,107.77,647.4,104.92,646.64,102.25Zm-94.58-6.46c.07.51.13,1,.18,1.52C552.19,96.81,552.13,96.3,552.06,95.79Z"/><path class="cls-37" d="M599.44,143.83c-2.06-2-3.18-5-4-7.66-1.43-4.87-2.79-9.76-4-14.7a130.53,130.53,0,0,1-3.79-29.71,34.49,34.49,0,0,0-.62-8.5c-1.5-5.83-7.72-8.42-12.19-11.84a8.87,8.87,0,0,0-3.92-2c-2.57-.37-4.84,1.51-7.26,2.47a11.55,11.55,0,0,1-5.07.75,2.73,2.73,0,0,1,1,1.46c.84,4.42,1.51,8.49,4.48,11.27h0c1.7,3.1-.42,7.3,2.84,9.86-2.09-.78-3.14-2.87-4.71-4.17,2.36,7.56,8.37,13,14.9,17a15.35,15.35,0,0,1-2.61-4.44c2.21,2.21,5.73,2.93,7.56,5.47a9.7,9.7,0,0,1,1.07,6.27,27.91,27.91,0,0,0,1.56-8.08c1.31,3.65,1.83,7,2.88,10.69s.52,7.56,1.83,11.21a46,46,0,0,0-3.66-6c-.26,8.35,2.61,15.91,5.49,23.48,0-2.87,0-6,1.31-8.61.78,2.87,3.13,5,5.75,6.26a7.21,7.21,0,0,0,3.82,1A5.73,5.73,0,0,1,599.44,143.83Z"/><path class="cls-37" d="M569.64,251.41c.26-3.39,1.57-6.78.78-10.17-2.09,2.86-3.66,8.6-8.1,6.52-2.35-1-2.35-4.18-.78-6.52,5.22-8.35,6.79-17.48,8.36-26.61-.78,1.57-2.09,3.13-2.35,4.7-.52,3.13-2.35,5.48-2.88,8.61-.78-1.31-.52-2.61-.52-3.92-2.35,4.18-2.61,10.17-7.32,12.52,1.36-.68,3.71-.78,4.65-2.15.11-.23.21-.47.32-.72a2.59,2.59,0,0,1-.32.72c-3.33,7-10.9,8.73-18,10.5a5.51,5.51,0,0,1,3.92-3.65,27,27,0,0,0-7.84,1c-3.93,1.3-6.54,4.43-10.2,5.74-3.23,1.32-6.59.72-10,.5-4.46,5.43-7.58,12-8,18.39-.34,5.29,2,10.87,6.48,13.71,3.65,2.32,8.17,2.64,12.48,3.07a150.83,150.83,0,0,1,24.92,4.71,97.75,97.75,0,0,0,6.79-7.78C568.86,272.27,568.86,261.58,569.64,251.41Z"/><path class="cls-38" d="M564.75,137.2c-.49-.79-1.4-1.54-1-2.37.21-.51.81-.74,1.08-1.21a2.2,2.2,0,0,0,.15-1.37,46.5,46.5,0,0,0-1.31-8,4.4,4.4,0,0,1-.79,1.68c-.78,1.05-.52,3.13-.78,5,0,.26-.78.52-1.31.26a7.78,7.78,0,0,0-5.23-1.57c2.62,1,5,3.66,4.45,6.52a26.43,26.43,0,0,1-9.67-4.17,8.79,8.79,0,0,0-1.57-.78,10.45,10.45,0,0,0-7.84-3.91c.78-2.35,3.39-.79,5-1.31a18.36,18.36,0,0,0-3.4-1.3c-9.67-1-20.39-.52-28.23-6.78.49,1.71,1,3.88,2.76,4.79l.38.16-.38-.16a73.14,73.14,0,0,1-26.29-19.14c1.83,0,2.88,1.57,4.45,2.35-3.66-5.21-9.94-8.34-12.55-14.34a9.72,9.72,0,0,0,.52,4.69c-5.23-6.26-10.46-13.3-11.24-21.64C473.17,76.15,474,78,475.78,79a30.5,30.5,0,0,1-1.57-4.43,4.14,4.14,0,0,0,2.09-.53,75.11,75.11,0,0,1-5.93-16.44c-.6-2.6-2.51-6-4.91-4.86-1.61.78-1.63,3-1.35,4.81,5.36,34.07,33,63.58,66.75,71.19,8,1.81,14.64,3.15,21.32,8.37,2.32,1.81,5.18,4.43,8.19,4.9a4.51,4.51,0,0,0,2.32-.35C564.52,140.93,566,139.18,564.75,137.2Z"/><path class="cls-40" d="M514,108.75c-2.62,0-4.71-1.56-7.32-1.56,7.84,5.21,17.51,8.08,26.92,7-2.35.26-4.18-1.57-6.27-2.09,8.32,2.07,15.6-3.32,23.39-5.44-4.25-.87-9.44,1.57-13.21,2.66-7.67,2.21-16,1.17-23.27-1.8a23.47,23.47,0,0,1-8.74-5.6,12.19,12.19,0,0,1-1.66-2.31C505.36,104,509.84,107,514,108.75Z"/><path class="cls-41" d="M563.24,123.06a16.86,16.86,0,0,0-1.53-3.28,10.08,10.08,0,0,0-2.53-1.64c-5.75-2.61-12.81-2.09-19.08-3.39,5,.78,10.46,1,14.12-1.57,2-1.07.63-3.84-1.49-5.73a7.09,7.09,0,0,0-2.05-.74c-7.79,2.11-15.07,7.51-23.39,5.43,2.09.53,3.92,2.35,6.27,2.09-9.41,1-19.08-1.83-26.92-7,2.61,0,4.7,1.56,7.32,1.56-4.12-1.73-8.6-4.71-10.15-9.1a12.28,12.28,0,0,1-1-2.23c-3.54-4.68.07-12.39,2-17.88.52-1.56,1.3-3.13,1-5-.92,1.11-1.72,2.35-2.66,3.44a4.06,4.06,0,0,1-1.26,1.25A11.44,11.44,0,0,0,503.19,78a4.84,4.84,0,0,0,.31-4.48c-.59-1.17-2.14-.47-3.55-.55a76.5,76.5,0,0,1-2.71,8.25c-1.78,4.5-6,9.65-10.42,7.61A8.92,8.92,0,0,1,483.7,86a74.56,74.56,0,0,1-7.4-11.9,4.24,4.24,0,0,1-2.09.52A30.09,30.09,0,0,0,475.78,79c-1.83-1-2.62-2.87-3.92-4.43.78,8.34,6,15.39,11.24,21.64a9.6,9.6,0,0,1-.52-4.69c2.61,6,8.88,9.13,12.54,14.34-1.56-.78-2.61-2.34-4.44-2.34A73,73,0,0,0,517,122.67c-1.78-.91-2.27-3.08-2.76-4.79,7.84,6.26,18.56,5.74,28.23,6.78a18,18,0,0,1,3.4,1.31c-1.57.52-4.18-1-5,1.3a10.5,10.5,0,0,1,7.85,3.91,9.31,9.31,0,0,1,1.56.79,26.72,26.72,0,0,0,9.68,4.17c.52-2.87-1.83-5.48-4.45-6.52a7.77,7.77,0,0,1,5.23,1.56c.52.27,1.31,0,1.31-.26.26-1.82,0-3.91.78-4.95a4.63,4.63,0,0,0,.79-1.68C563.51,123.87,563.38,123.45,563.24,123.06Z"/><path class="cls-41" d="M501.93,79.28A4,4,0,0,0,503.19,78,10.71,10.71,0,0,1,501.93,79.28Z"/><path class="cls-38" d="M503.5,73.54a4.84,4.84,0,0,1-.31,4.48c.94-1.09,1.74-2.33,2.66-3.43.26,1.82-.52,3.39-1,5-1.91,5.49-5.52,13.2-2,17.87a13,13,0,0,1,.5-9.18c5.05-11.72,8.07-25.1,4-37.19-.83-2.47-2.54-5.24-5.15-5.14A76.67,76.67,0,0,1,499.94,73C501.36,73.07,502.92,72.39,503.5,73.54Z"/><path class="cls-41" d="M517,122.67l.38.17Z"/><path class="cls-38" d="M554.22,113.18c-3.66,2.61-9.15,2.35-14.12,1.57,6.27,1.3,13.33.78,19.08,3.39a10.08,10.08,0,0,1,2.53,1.64,12,12,0,0,0-3.94-4.09c-.55-.34-1.22-1-.84-1.48.14-.19.38-.26.55-.43.48-.49.08-1.29-.32-1.83a16.86,16.86,0,0,0-3.95-4.21l-.48-.29C554.85,109.34,556.18,112.11,554.22,113.18Z"/><path class="cls-41" d="M583,61.55a8.44,8.44,0,0,0,.09,1A2.12,2.12,0,0,0,583,61.55Z"/><path class="cls-38" d="M603.2,3.43c-6.43-10-10.87,7.28-11.34,11.5a148.21,148.21,0,0,1-4.1,21.8c1.5.57,3,1.12,4.62,1.6,1.31.27.79,3.13.79,5,1.57-1,2.09-2.87,3.4-4.17,0,9.65-1.31,19.56-5.49,28.42a46.93,46.93,0,0,0-.53-8.6c-.52,8.87-4.7,16.17-8.1,24.25a6.68,6.68,0,0,0,0,3.91c1.57-1.3,2.35-3.13,3.4-4.69-.53,6.26,2.09,13.82-2.62,18.52-1.3,1.3-4.44.26-5.49-2.09-.26-1,.53-1.83.79-2.87.52-2.09,1.57-4.43-.53-6.52-.78,1.83-1,4.7-2.87,5-6.54,1-3.92-8.35-2.61-11.74.78-2.09,4.44-2.87,5.48-5.22,2.1-4.43,2.62-9.38,5-13.82a2,2,0,0,0,.09-1.08,3.69,3.69,0,0,1-.35,1.08c-2.09,3.91-4.71,7-6.53,11.22-1,2.08-3.93,2.6-6,3.39-1.83.52-1.57,4.43-3.13,4.43-2.36-.2-2.8-3.17-3.31-5.85A13.2,13.2,0,0,0,564,79a18.83,18.83,0,0,0,.46,1.94c.34,1.17.76,2.33,1.19,3.48a2.48,2.48,0,0,0,.91,1.37c.39.23.87.23,1.25.46,1.28.76.2,2.65,0,4.11-.28,1.64.71,3.19,1.66,4.55,2.35,3.39,4.88,6.94,8.62,8.68a15.36,15.36,0,0,1,2.31,1.11c1.76,1.21,2.67,2.58,4.88,1.32,1.51-.85,2.24-2.79,2.66-4.36,1.21-4.57,1.57-9.31,2.15-14,1.48-12,5-23.21,8.26-34.78,3.86-13.56,6.46-27.15,6.55-41.34C604.82,8.74,604.71,5.78,603.2,3.43Z"/><path class="cls-41" d="M567,82.67c1.56,0,1.3-3.91,3.13-4.43,2.09-.79,5-1.31,6-3.39,1.83-4.18,4.44-7.31,6.53-11.22a3.69,3.69,0,0,0,.35-1.08,8.44,8.44,0,0,1-.09-1,2.12,2.12,0,0,1,.09,1,2,2,0,0,1-.09,1.08c-2.35,4.44-2.87,9.39-5,13.82-1,2.35-4.71,3.13-5.49,5.22-1.31,3.39-3.93,12.78,2.61,11.74,1.83-.26,2.09-3.13,2.88-5,2.09,2.09,1,4.43.52,6.52-.26,1-1,1.83-.79,2.87,1,2.35,4.19,3.39,5.49,2.09,4.71-4.7,2.09-12.26,2.62-18.52C584.8,84,584,85.8,582.45,87.1a6.68,6.68,0,0,1,0-3.91c3.4-8.08,7.58-15.38,8.1-24.25a46.93,46.93,0,0,1,.53,8.6c4.18-8.86,5.49-18.77,5.49-28.42-1.31,1.3-1.83,3.13-3.4,4.17,0-1.83.52-4.69-.79-5-1.59-.48-3.12-1-4.62-1.6-.59,2.2-1.22,4.38-1.91,6.55-2,6.18-4.21,12.58-8.39,17.6-4.9,5.9-13.92,7.52-13.74,15.94C564.23,79.5,564.68,82.47,567,82.67Z"/><path class="cls-24" d="M455.4,39.64c-3.66,4.43-9.67,9.65-15.16,6.52-6.54-3.65-1.05-13,2.35-18.26-5.75,4.7-14.12,4.44-20.91,2.35S409.91,20.86,412,13.56C414.88,2.34,425.86-4.7,436.58-7.3c-3.83-2.39-8.14-4.1-11.93-6.43-10.4,7.32-19.15,16.43-22,29.45l-.11.56A22.42,22.42,0,0,0,402.64,27c1.83,6.28,7.71,10.87,14.09,12.37s13.16.26,19.23-2.23c-5.33,3.37-6.2,12-1.59,16.29s13.28,2.75,16-2.92c-2.64,5.45,3.78,15.44,7.71,18.64l.52.4a20.43,20.43,0,0,1-3.73-7.47A40.72,40.72,0,0,1,455.4,39.64Z"/><path class="cls-42" d="M623.93-18.07c.18,12.14-3.46,23.93-13.51,32.15-9.15,7.82-20.65,12-32.68,9.13-7.32-1.83-13.07-8.87-16-15.91,2.1,10.17,1.57,22.43-7.84,29-4.7,3.39-10.46.52-13.85-3.65-4.45-5.74-4.45-13-2.88-19.56C534.61,21.9,523.63,27.12,515,25.56a21.82,21.82,0,0,1,5.75,10.17c1.57,6,1.31,12,.26,18.25-2,11.22-12,17.24-22.57,16.69,9.17,2.47,21.16-.84,27.73-7.56a26.72,26.72,0,0,0,6.27-25.56A16.55,16.55,0,0,1,531,33.76a23.45,23.45,0,0,1,1.44,3.79,20,20,0,0,0,9.23,8.58,28,28,0,0,0,16.57,1.75,18.16,18.16,0,0,0,9-3.83c6-5.28,5.22-14.61,4-22.47.63,3.28,3.64,5.53,6.54,7.22,5.83,3.39,12.3,5.95,19.05,6.26,14.45.65,28.31-10.16,32.1-24.08C631.58,1.19,629.43-9.52,623.93-18.07Z"/><path class="cls-32" d="M521,54c1-6.26,1.3-12.25-.27-18.25A21.82,21.82,0,0,0,515,25.56c8.63,1.56,19.61-3.66,22.22-12.52-1.57,6.52-1.57,13.82,2.88,19.56,3.4,4.17,9.15,7,13.85,3.65,9.42-6.52,9.94-18.78,7.85-28.95,2.87,7,8.62,14.08,15.94,15.91,12,2.87,23.53-1.31,32.68-9.13,10.05-8.22,13.69-20,13.51-32.15a38.37,38.37,0,0,0-5.39-6.61,34.81,34.81,0,0,0-3.24-2.82c-9.44-7.24-21.61-9.86-33.44-11.2-17.49-2-35.14-1.56-52.73-1-19,.63-38.14,1.48-56.85,5-9.57,1.8-19.11,4.35-27.65,9a211.17,211.17,0,0,0-20,11.91c3.79,2.33,8.11,4,11.93,6.43C425.86-4.7,414.88,2.34,412,13.56c-2.09,7.3,2.88,14.6,9.68,16.69s15.16,2.35,20.91-2.35c-3.4,5.22-8.89,14.61-2.35,18.26,5.49,3.13,11.5-2.09,15.16-6.52a40.81,40.81,0,0,0-.52,22.43,20.28,20.28,0,0,0,3.73,7.47,17.91,17.91,0,0,0,10.9,3.59,15.67,15.67,0,0,0,8.65-2.64A18.9,18.9,0,0,0,486,54.43c.27,9.31,5.55,14.39,12.41,16.24C509,71.22,519,65.21,521,54ZM561,8.1a5.85,5.85,0,0,1-.49-2.37A17.49,17.49,0,0,1,561,8.1Z"/><path class="cls-20" d="M427.84,22.72a7.56,7.56,0,0,0,4.56,2,14.82,14.82,0,0,0,14-6.39,9.21,9.21,0,0,0,1.72-5.66c-.46-6.07-9-8.14-13.84-6.1C429.22,8.73,423.05,17.76,427.84,22.72Z"/><path class="cls-20" d="M470,64.15a6.26,6.26,0,0,0,3.4-.31A7.83,7.83,0,0,0,477,60.19c3.39-6.08,1.47-27-9.53-21.76C458.07,42.91,459,62.38,470,64.15Z"/><path class="cls-20" d="M508.18,63.24c2.58-.72,4.79-3.1,4.7-5.77-.06-2.14-1.47-4-3-5.44-3.92-3.61-12.45-6.72-15,.18S502.3,64.9,508.18,63.24Z"/><path class="cls-20" d="M537.37,5.33a6.94,6.94,0,0,0-.85-7,7.86,7.86,0,0,0-3.66-2.23c-7.72-2.45-18.62,4-14.92,13S534.64,12.12,537.37,5.33Z"/><path class="cls-20" d="M591.41,16.84c2.21-.61,4.79-1.95,4.76-4.24,0-1.75-1.61-3-3.14-3.88-4.18-2.3-16.62-5.61-18.73,1.42C571.75,18.59,587.13,18,591.41,16.84Z"/><path class="cls-43" d="M521.33,256.86c-9.9-1.44-20.09-2.82-29.85-.58-6.22,1.43-12,4.28-18.19,5.9-11.89,3.11-24.43,1.5-36.6-.13-5.07-.68-10.27-1.4-14.73-3.89-2.88-1.6-5.32-3.87-8.21-5.42-4.79-2.57-10.41-3-15.84-3.15-10.6-.38-52.86-4.63-56.5,8.32s18.73,13.4,18.65,25.17c0,6.43-7.7,9.67-14,11a238.43,238.43,0,0,1-126.73-8c-3.48-1.21-7.58-3.39-7.45-7.07.09-2.4,2-4.29,2.9-6.54,1.67-4.44-1.43-9.49-5.63-11.67s-9.15-2.19-13.88-2.13A1071.54,1071.54,0,0,0-.07,279.39l0,40.45,618,.32,0-46.84C586,267.09,553.82,261.58,521.33,256.86Z"/><path class="cls-44" d="M322.53,237c-2.91.15-7.94-.67-9.47,2.59-1.75,3.74,4.42,3.75,6.06,5.2a2.21,2.21,0,0,1,.63,2.68,3.11,3.11,0,0,1-1.44,1.07c-4.67,2.13-9.74,2.87-14.8,3.44-19.56,2.21-40,3.41-59.64,1.2a19,19,0,0,1-7.36-1.94c-3.16-1.83-1.57-2.74-2.25-5.6-.63-2.61-5.07-2.16-7-2.22a796.15,796.15,0,0,0-114.9,5,880.87,880.87,0,0,0-112.38,20v11a1071.33,1071.33,0,0,1,195.32-20.68c4.73-.06,9.67,0,13.88,2.13s7.3,7.25,5.63,11.67c-.85,2.25-2.81,4.14-2.9,6.54-.13,3.68,4,5.86,7.45,7.07a238.43,238.43,0,0,0,126.73,8c6.31-1.33,14-4.57,14-11,.08-11.77-22.28-12.28-18.65-25.17s45.9-8.7,56.5-8.32c5.43.19,11,.58,15.84,3.15,2.89,1.55,5.34,3.82,8.21,5.42,4.46,2.49,9.67,3.21,14.73,3.89,12.17,1.63,24.72,3.24,36.6.13,6.17-1.62,12-4.47,18.19-5.9,9.76-2.24,19.95-.86,29.85.58,32.49,4.72,64.62,10.23,96.61,16.46v-5c-36.05-8-71.7-16.11-108.59-20.6C447.6,240.18,384.8,233.87,322.53,237Z"/><path class="cls-24" d="M308.89,231.85c-124.44-.07-235.6,12.42-308.95,32.08v4.48a877.43,877.43,0,0,1,112.38-20,796.29,796.29,0,0,1,114.91-5c2,.06,6.4-.39,7,2.22.69,2.87-.91,3.77,2.25,5.6a19,19,0,0,0,7.36,1.94c19.61,2.21,40.07,1,59.64-1.2,5.05-.57,10.13-1.3,14.79-3.44a3.09,3.09,0,0,0,1.45-1.07,2.2,2.2,0,0,0-.63-2.68c-1.64-1.45-7.81-1.46-6.06-5.2,1.53-3.26,6.56-2.44,9.46-2.59,62.27-3.1,125.08,3.21,186.83,10.72,36.89,4.49,72.54,12.57,108.59,20.6v-4C544.62,244.54,433.41,231.92,308.89,231.85Z"/><path class="cls-28" d="M17.24,167.33a16.05,16.05,0,0,0-.73,3.21,15.36,15.36,0,0,0-.05,3.25c0,.53.13,1.09.16,1.67a4.33,4.33,0,0,1-.25,1.78,2,2,0,0,1-.61.81,1.64,1.64,0,0,1-.22.14,1,1,0,0,1-.23.12l-.4.15a1.23,1.23,0,0,0-.77.91,2.73,2.73,0,0,0,.06,1.39,4.83,4.83,0,0,0,.71,1.3c.31.44.66.88,1,1.38a5.27,5.27,0,0,1,.72,1.71,12.68,12.68,0,0,1,0,3.47,13,13,0,0,0,1.1,6.14,11.34,11.34,0,0,0,.73,1.38c.26.46.57.92.87,1.4a14.74,14.74,0,0,1,.84,1.57,6.77,6.77,0,0,1,.52,1.82,23.18,23.18,0,0,1,0,3.44,6.49,6.49,0,0,0,.1,1.46,11.37,11.37,0,0,0,.44,1.48,8.82,8.82,0,0,1,.45,1.75,7.82,7.82,0,0,1,0,1.81c-.07.58-.15,1.12-.23,1.66a7.39,7.39,0,0,0-.09,1.56,4.56,4.56,0,0,0,.3,1.51,2.76,2.76,0,0,0,.94,1.22l-.08.16a2.77,2.77,0,0,1-.75-.42,3.16,3.16,0,0,1-.58-.68,3.59,3.59,0,0,1-.4-.78,5.2,5.2,0,0,1-.26-.85,16.39,16.39,0,0,1-.13-3.39,7.66,7.66,0,0,0-.15-1.51,7.88,7.88,0,0,0-.5-1.41,11.17,11.17,0,0,1-.62-1.67,8.58,8.58,0,0,1-.25-1.82,29.51,29.51,0,0,0-.06-3.19,8,8,0,0,0-1-2.75L17,197a15.32,15.32,0,0,1-.72-1.6,14.77,14.77,0,0,1-.91-6.9,12.39,12.39,0,0,0,.1-3.13,4.08,4.08,0,0,0-.52-1.36c-.26-.45-.58-.89-.89-1.38a8,8,0,0,1-.44-.76,3.84,3.84,0,0,1-.34-.87,3.37,3.37,0,0,1,0-1.89,2.3,2.3,0,0,1,.52-.91,2,2,0,0,1,.86-.54l.39-.12a.42.42,0,0,0,.14-.06.57.57,0,0,0,.13-.08,1.19,1.19,0,0,0,.41-.48,3.54,3.54,0,0,0,.26-1.47c0-.53-.05-1.08-.07-1.64a15.74,15.74,0,0,1,1.18-6.58Z"/><path class="cls-28" d="M34.65,233a13.53,13.53,0,0,1-2.91-3.57,14.12,14.12,0,0,1-1.82-6.73,3.72,3.72,0,0,0-.34-1.94,6.94,6.94,0,0,0-1.43-1.45,10.17,10.17,0,0,1-.91-.83,3.75,3.75,0,0,1-.76-1.13,3.91,3.91,0,0,1-.24-.65c0-.22-.09-.45-.12-.67a7.82,7.82,0,0,1,0-1.28c.05-.82.17-1.58.22-2.28a4.72,4.72,0,0,0-.13-1.87,17.27,17.27,0,0,0-1-1.91,4.64,4.64,0,0,1-.36-1.36,5.73,5.73,0,0,1,0-1.31,22.68,22.68,0,0,1,.47-2.29,6.06,6.06,0,0,0,.15-2.08,2.57,2.57,0,0,0-.94-1.81l.08-.16a2.31,2.31,0,0,1,1,.67,3.77,3.77,0,0,1,.65,1.11,6.18,6.18,0,0,1,.32,2.45c0,.78-.14,1.54-.14,2.23a3.55,3.55,0,0,0,.37,1.78c.14.26.34.56.55.9A5.06,5.06,0,0,1,28,210c0,.12.07.23.1.35l.06.34q0,.35.06.69a9.17,9.17,0,0,1-.1,1.27c-.12.8-.31,1.53-.4,2.23a3.6,3.6,0,0,0,.11,1.87A4.16,4.16,0,0,0,29,218.29a6.77,6.77,0,0,1,1.62,1.89,3.49,3.49,0,0,1,.35,1.31q0,.6,0,1.2a13.48,13.48,0,0,0,.06,2.2,13.74,13.74,0,0,0,3.72,8Z"/><path class="cls-28" d="M58,240a11.14,11.14,0,0,0-3.92-3.77,8.34,8.34,0,0,1-1.62-1.12,3.21,3.21,0,0,1-.64-.87,4.36,4.36,0,0,1-.39-1c-.17-.66-.24-1.3-.36-1.87a3.39,3.39,0,0,0-.56-1.46,2.84,2.84,0,0,0-.52-.52,5.92,5.92,0,0,0-.7-.45c-.51-.29-1.09-.56-1.69-.93a5.28,5.28,0,0,1-.87-.69,3.93,3.93,0,0,1-.71-1,7.24,7.24,0,0,1-.46-2.06,6.88,6.88,0,0,0-.13-.77,2.7,2.7,0,0,0-.27-.66,15.22,15.22,0,0,0-.94-1.47,8.27,8.27,0,0,1-.94-1.79,7.24,7.24,0,0,1-.36-3.88h.19A10.31,10.31,0,0,0,44.43,219a8.59,8.59,0,0,0,1,1.36,11.61,11.61,0,0,1,1.25,1.55,4.69,4.69,0,0,1,.49,1,6.56,6.56,0,0,1,.22,1.07,8.48,8.48,0,0,0,.24,1.59,2,2,0,0,0,.3.56,3.26,3.26,0,0,0,.53.52c.43.34,1,.64,1.51,1a7.19,7.19,0,0,1,.84.61,4.31,4.31,0,0,1,.74.85,3.73,3.73,0,0,1,.45,1,5.64,5.64,0,0,1,.2,1c.08.65.1,1.26.2,1.82a2.89,2.89,0,0,0,.64,1.45,7.36,7.36,0,0,0,1.36,1.13,12.28,12.28,0,0,1,1.47,1.23,10.87,10.87,0,0,1,2.21,3.08Z"/><path class="cls-28" d="M36.66,185a23.38,23.38,0,0,0,.48,2.63,6,6,0,0,0,1.09,2.27c.53.66,1.19,1.22,1.85,1.89a7.31,7.31,0,0,1,.93,1.15,5.11,5.11,0,0,1,.6,1.45,3.57,3.57,0,0,1,0,1.72,3,3,0,0,1-.4.85c-.18.26-.36.45-.48.6l-.15.2a1.09,1.09,0,0,0-.08.15,1.58,1.58,0,0,0-.11.37,4.52,4.52,0,0,0,0,1c0,.39.11.83.16,1.28s.11.89.15,1.34a19.43,19.43,0,0,1,0,2.75l-.17,0a19.71,19.71,0,0,1-1.17-2.51c-.16-.43-.31-.85-.45-1.28a13,13,0,0,1-.4-1.35,4.36,4.36,0,0,1-.05-1.65,2.75,2.75,0,0,1,.32-.91,2.86,2.86,0,0,1,.28-.4c.11-.13.21-.23.3-.32.39-.35.52-.45.65-.72a1.67,1.67,0,0,0,.11-.94,3.27,3.27,0,0,0-.33-1.06,5.71,5.71,0,0,0-.67-1,23.74,23.74,0,0,1-1.69-2.17,6.69,6.69,0,0,1-.89-2.68,17.63,17.63,0,0,1-.11-2.72Z"/><path class="cls-28" d="M33.2,171.27a28.88,28.88,0,0,1-.63-4.53,29.3,29.3,0,0,1,.09-4.59c.07-.77.17-1.52.31-2.29a7.69,7.69,0,0,1,.73-2.28,5.11,5.11,0,0,1,.74-1.05,3.82,3.82,0,0,1,1.07-.75,3.33,3.33,0,0,1,1.31-.33,2.74,2.74,0,0,1,1.38.31l-.81.31,3-9.21.59,1a4.39,4.39,0,0,0-2.74.42l-.56.28-.46-.49a2,2,0,0,1-.49-1.05,2.82,2.82,0,0,1,.06-1,3.41,3.41,0,0,1,.32-.82l.22-.36a3.27,3.27,0,0,1,.25-.32c.31-.38.6-.68.78-1a1.36,1.36,0,0,0,.21-.37.82.82,0,0,0,.07-.3,2.08,2.08,0,0,0-.24-.85c-.15-.36-.38-.78-.55-1.29a4.41,4.41,0,0,1-.21-1.61,5.48,5.48,0,0,1,.31-1.51,8.48,8.48,0,0,1,.59-1.3c.23-.41.47-.8.72-1.18s.51-.73.76-1.08.46-.69.67-1.05a9.33,9.33,0,0,0,.52-1.11,6.06,6.06,0,0,0,.32-1.18,3,3,0,0,0-.52-2.33l.13-.13a3.22,3.22,0,0,1,1.1,2.5,7.11,7.11,0,0,1-.54,2.73q-.27.65-.6,1.26l-.62,1.14a10.77,10.77,0,0,0-1,2.24,3.77,3.77,0,0,0-.15,1.06,2.92,2.92,0,0,0,.18,1c.12.31.32.67.53,1.1a3.77,3.77,0,0,1,.43,1.67,2.71,2.71,0,0,1-.2,1,3.39,3.39,0,0,1-.43.77,13.72,13.72,0,0,1-.91,1l-.16.2a1.27,1.27,0,0,0-.13.19,1.38,1.38,0,0,0-.18.39.73.73,0,0,0-.05.3.21.21,0,0,0,0,.13l-1-.21a6.31,6.31,0,0,1,3.79-.37l.89.19-.31.82-3.34,9.08-.24.64-.58-.34a1.59,1.59,0,0,0-.8-.21,2.3,2.3,0,0,0-.9.19,2.83,2.83,0,0,0-.8.52,3.61,3.61,0,0,0-.62.78,7.52,7.52,0,0,0-.74,2c-.17.72-.31,1.46-.42,2.2a29.84,29.84,0,0,0,0,9Z"/><path class="cls-28" d="M26.42,128.49a3.69,3.69,0,0,0-.2,3.24,3.28,3.28,0,0,0,.39.71l.26.3.3.29a2.61,2.61,0,0,1,.66.78,2.47,2.47,0,0,1,.23,1,12.41,12.41,0,0,1-.26,1.83,16.07,16.07,0,0,0-.19,1.7,17.49,17.49,0,0,0,.13,3.39,23.06,23.06,0,0,1,.35,3.65,6.24,6.24,0,0,1-.4,2,5.65,5.65,0,0,1-.5.94,9.34,9.34,0,0,1-.63.78c-.9,1-1.9,1.58-2.62,2.35a4.88,4.88,0,0,0-.9,1.3,2.72,2.72,0,0,0-.21,1.59l-.16.08a2.65,2.65,0,0,1-.44-1.87,5,5,0,0,1,.69-1.83,5.48,5.48,0,0,1,.56-.8c.19-.24.4-.47.59-.7.4-.45.79-.86,1.12-1.27a5.27,5.27,0,0,0,.43-.62,4.65,4.65,0,0,0,.32-.63,5.88,5.88,0,0,0,.36-1.43,17.45,17.45,0,0,0,0-3.39,18.55,18.55,0,0,1,.12-3.65,15.47,15.47,0,0,1,.35-1.8,10.26,10.26,0,0,0,.38-1.64,1.57,1.57,0,0,0-.07-.68,1.81,1.81,0,0,0-.42-.6,4.25,4.25,0,0,1-.58-.76,4.62,4.62,0,0,1-.39-.88,4,4,0,0,1,.59-3.53Z"/><path class="cls-28" d="M41.46,118.5A9.53,9.53,0,0,1,42,115a12.52,12.52,0,0,1,1.63-3.17A17.29,17.29,0,0,1,46,109.18c.44-.4.91-.78,1.38-1.15.25-.17.48-.36.73-.52l.38-.26.32-.22c.06,0,.06-.09,0,0l0,.09v.1a.26.26,0,0,0,.07.15s0,0-.13,0-.23-.09-.42-.19a2.35,2.35,0,0,1-.94-.91,2.93,2.93,0,0,1-.38-1.18,3,3,0,0,1,.13-1.23c0-.09.08-.19.12-.29a1.26,1.26,0,0,1,.14-.26,2.9,2.9,0,0,1,.35-.49,4.13,4.13,0,0,1,1.86-1.17,9,9,0,0,1,1.86-.28,3,3,0,0,0,1.29-.32,1.35,1.35,0,0,0,.43-.46c.14-.21.28-.49.46-.76a1.92,1.92,0,0,1,.78-.69,1.25,1.25,0,0,1,.53-.13.78.78,0,0,1,.49.14l-.07.17a.7.7,0,0,0-.63.26,1.34,1.34,0,0,0-.33.62c-.08.24-.13.52-.23.83a2.33,2.33,0,0,1-.53,1,2.88,2.88,0,0,1-.94.65,5.55,5.55,0,0,1-1,.31,10.32,10.32,0,0,0-1.54.42,2.7,2.7,0,0,0-.58.31,2.32,2.32,0,0,0-.44.39,1.33,1.33,0,0,0-.39.9,1,1,0,0,0,.33.81s.2.11.35.2a2.26,2.26,0,0,1,.56.46,1.23,1.23,0,0,1,.26.54.81.81,0,0,1,0,.31,1.08,1.08,0,0,1-.07.31,1.21,1.21,0,0,1-.29.43,2.15,2.15,0,0,1-.28.23l-.41.23-.37.21-.71.44c-.47.31-.92.63-1.37,1a16.09,16.09,0,0,0-2.43,2.31,12.19,12.19,0,0,0-1.83,2.82,10.06,10.06,0,0,0-.89,3.27Z"/><path class="cls-45" d="M33.88,219.31a12.11,12.11,0,0,1-.66-2.2c-.67-3.5.45-7.28-.9-10.58-.51-1.23-1.33-2.31-1.9-3.51-1.57-3.29-.31-5.86,0-9.16.2-1.94-1.08-3.69-1.67-5.56-.85-2.76-.15-5.74.55-8.54a11.38,11.38,0,0,0,2.06,8.71A17.91,17.91,0,0,1,33.24,191c1.43,2.76.14,6.2,1,9.18.63,2.12,2.28,3.75,3.62,5.51,1.94,2.54,2.14,5.19,1.69,8.3a10.52,10.52,0,0,0-2.8-6.06c1.27,3.05,1,6.48.84,9.77s.07,6.86,2.09,9.46C37.43,224.79,35.09,222.28,33.88,219.31Z"/><path class="cls-45" d="M21.5,162.7a6.84,6.84,0,0,1-.26-4.24c-2.07.72-3,3.2-2.94,5.39s.83,4.32.92,6.5a40.53,40.53,0,0,0,0,4.41,16.69,16.69,0,0,1,.52,3.34c-.12,1.57-1.23,3-1.09,4.57.12,1.28,1,2.32,1.6,3.48,1.51,3.06.65,7.23,3.12,9.59-1.68-2.65-.42-6.12-.71-9.24-.1-1.07-.39-2.11-.55-3.17a14.06,14.06,0,0,1,.92-7.58,3.71,3.71,0,0,0,1.89,3.9c-.81-5.05-1.61-10.32-.09-15.2,1.48-4.73,5.07-8.89,5.08-13.84,0,2-3.4,4.32-4.61,5.64A22.42,22.42,0,0,0,21.5,162.7Z"/><path class="cls-45" d="M34.7,134.79a11.22,11.22,0,0,0-.48,4.48,5.64,5.64,0,0,1-1.33,4.2l-1.26-9.65c-.34-2.55-.74-5.27-2.45-7.2L33.83,129A17.24,17.24,0,0,0,34,118.41c.37,1.17,2.22,2.57,2.83,3.82a10.54,10.54,0,0,1,1.2,4.25C38,129.82,35.94,132,34.7,134.79Z"/><path class="cls-45" d="M30.1,81.37a36.31,36.31,0,0,1,4,3.81,8.59,8.59,0,0,1,.45,9.47,13.22,13.22,0,0,0-2.82-6.46,8.21,8.21,0,0,1-.22,4.34,10,10,0,0,0-2.45-4.24Q25.66,84.15,22.25,80l5,2.32a16.72,16.72,0,0,1-4.93-9.64c.17,1.19,3.51,3.54,4.35,4.53C27.89,78.58,28.78,80.11,30.1,81.37Z"/><path class="cls-46" d="M53.85,120a30.48,30.48,0,0,1,9-1.82,10.19,10.19,0,0,1-1.79,3.32c2.42-2.14,5.76-2.85,9-3.2s6.52-.44,9.52-1.62c-2,.8-5.86.26-8,0-2.92-.36-5.13-1.55-7.72-2.81C59.33,111.67,53.5,114.33,53.85,120Z"/><path class="cls-46" d="M85.66,107.25a40,40,0,0,0,6.19.14,9.51,9.51,0,0,1-3.23,2.76l-4.24,2.67c2.72-.21,5-1.52,7.51-2.35a38.11,38.11,0,0,0,7.71-3.39,28.61,28.61,0,0,0,10.69-11.4,31.9,31.9,0,0,1-6.85,6.06l2-5.33c-1.26,3.26-5.67,5.59-8.6,7a57.77,57.77,0,0,1-12,3.73Z"/><path class="cls-16" d="M134.11,315.82c-5-3.91-11-6.25-17-4.17-9.93,3.65-9.93,16.43-6.27,25-7.59-1.83-17.26-8.61-24.06-3.13,2.88-7.56,2.88-15.91-1.3-22.69-3.66-5.74-11.51-7.56-18-5.22-5.49,2.09-8.89,6.78-11,12-.26-7-1.57-18-9.15-20.08,13.33-4.43,28-15.39,24.83-31.3-1-4.95-5.22-8.34-9.93-9.65-9.41-2.08-19.08,3.92-24,11.74,3.66-10.17,3.92-21.91-2.35-31C28.76,227.15,17,221.15,4.71,223.5l-.26.06a31.44,31.44,0,0,0-7,3.79c-9.83,7.09-8.37,13.36-9.21,24.23-.48,6.19-2.06,12.26-3.14,18.36-3.2,18.25-2.55,37-1.88,55.49.13,3.65.42,7.69,3,10.25s6.47,2.74,10,2.87L92,341.8c16.62.57,33.36,1.15,49.59,4.8a2.76,2.76,0,0,0,2.56-.26,2.66,2.66,0,0,0,.62-1.74c.36-4.16,1.13-9.58.05-13.59a35.68,35.68,0,0,0-1.83-5.14A35.29,35.29,0,0,0,134.11,315.82Z"/><path class="cls-47" d="M127.61,308.6c-5.46-3.14-12-4.87-18.13-3.55s-11.75,6.14-12.83,12.33a22.16,22.16,0,0,0-31-20.23A48.35,48.35,0,0,0,82,275.76c1.57-4.06,2.57-8.52,1.52-12.74-1.83-7.37-9.79-14.74-17.2-16-5-.82-19.55,1.36-20.42,8.32,1.67-13.5-6.93-27.58-19.72-32.28a30.62,30.62,0,0,0-20.37,0c-.45.15-.89.31-1.33.48l.27-.05c12.28-2.35,24.05,3.65,31.1,13.82,6.28,9.13,6,20.86,2.36,31,5-7.82,14.64-13.82,24-11.73,4.7,1.3,8.89,4.69,9.93,9.65,3.14,15.91-11.5,26.86-24.83,31.29,7.58,2.09,8.89,13,9.15,20.08,2.09-5.21,5.49-9.91,11-12,6.53-2.35,14.37-.52,18,5.21,4.19,6.78,4.19,15.13,1.31,22.69,6.8-5.47,16.47,1.31,24,3.13-3.66-8.6-3.66-21.38,6.28-25,6-2.09,12,.26,17,4.17a35.32,35.32,0,0,1,8.93,10A37.46,37.46,0,0,0,127.61,308.6Z"/><path class="cls-37" d="M580.85,241.75a4.16,4.16,0,0,0,.52-1.82,11.55,11.55,0,0,0,0-2c-.05-.66-.11-1.33-.11-2a6,6,0,0,1,.37-2.14,3.71,3.71,0,0,1,.26-.53,5,5,0,0,1,.31-.49,7.28,7.28,0,0,1,.76-.81c.53-.49,1.05-.89,1.48-1.31a2.78,2.78,0,0,0,.82-1.3,5.26,5.26,0,0,0,.07-1.68c0-.63-.14-1.3-.15-2.07a6.14,6.14,0,0,1,.44-2.36,9.17,9.17,0,0,1,.52-1,10,10,0,0,1,.6-.9c.4-.56.82-1.07,1.18-1.55a10,10,0,0,0,2-6.93l.23-.08a8.07,8.07,0,0,1-.23,8.31c-.75,1.24-1.62,2.2-2.13,3.13a3.82,3.82,0,0,0-.31.72,3.39,3.39,0,0,0-.17.78,17.34,17.34,0,0,0-.05,1.91,6.74,6.74,0,0,1-.31,2.27,4.07,4.07,0,0,1-.6,1.1,5.37,5.37,0,0,1-.81.84c-.58.47-1.15.81-1.64,1.19a4.57,4.57,0,0,0-.67.58,4,4,0,0,0-.26.32,2.6,2.6,0,0,0-.21.36,4.7,4.7,0,0,0-.48,1.72c-.08.63-.09,1.29-.12,2a12.58,12.58,0,0,1-.2,2,4.49,4.49,0,0,1-.81,1.89Z"/><path class="cls-37" d="M581.65,215.75a5.74,5.74,0,0,0,1-2.23,9.43,9.43,0,0,0,.14-2.43,16.51,16.51,0,0,0-.33-2.43c-.15-.82-.33-1.64-.47-2.49a14.21,14.21,0,0,1-.24-2.6,8.61,8.61,0,0,1,.41-2.71c.31-.89.74-1.63,1-2.35a5.24,5.24,0,0,0,.32-2.12c0-1.5-.6-3.06-.86-4.86a9.32,9.32,0,0,1-.1-1.4v-.36l0-.37a5.84,5.84,0,0,1,.11-.73,10.43,10.43,0,0,1,.39-1.35c.16-.42.32-.82.47-1.2a10.75,10.75,0,0,0,.74-2.13,6.37,6.37,0,0,0,.12-1.07,10.57,10.57,0,0,0,0-1.13,32.36,32.36,0,0,0-1.16-4.77l.21-.11a14.82,14.82,0,0,1,2.57,4.53,7.8,7.8,0,0,1,.36,2.8,11,11,0,0,1-.59,2.7,21.22,21.22,0,0,0-.67,2.23,8,8,0,0,0-.13,2.13c.06,1.54.46,3.23.42,5.09a7.53,7.53,0,0,1-.16,1.42,6.38,6.38,0,0,1-.45,1.36c-.38.85-.84,1.54-1.12,2.22a9.81,9.81,0,0,0-.48,4.62c.07.82.17,1.65.27,2.49a19.93,19.93,0,0,1,.11,2.56,10,10,0,0,1-.39,2.56,6.06,6.06,0,0,1-1.24,2.25Z"/><path class="cls-37" d="M572,142.85a9.2,9.2,0,0,0,.38,2.07,14.9,14.9,0,0,0,.74,2c.59,1.29,1.28,2.53,1.9,3.86a12,12,0,0,1,1.24,4.34c0,.2,0,.39,0,.6a2.72,2.72,0,0,1-.11.75,2,2,0,0,1-.22.46,1.73,1.73,0,0,1-.41.4,3.43,3.43,0,0,1-.67.32,1.27,1.27,0,0,0-.53.38,2.07,2.07,0,0,0-.34.64,2.89,2.89,0,0,0-.13.78,2.55,2.55,0,0,0,0,.39,3.28,3.28,0,0,0,.08.41,8.47,8.47,0,0,0,.73,1.73l.48.95c.17.34.32.7.47,1.05a14.78,14.78,0,0,1,.65,2.18,20.73,20.73,0,0,1,.35,2.21c.07.74.11,1.48.11,2.21a26.53,26.53,0,0,1-.35,4.36l-.23,0c-.44-1.41-.74-2.81-1.07-4.19-.17-.69-.33-1.36-.51-2s-.36-1.33-.57-2-.44-1.27-.67-1.9-.5-1.23-.78-1.93a10.33,10.33,0,0,1-.66-2.31c0-.22,0-.44,0-.66a5.17,5.17,0,0,1,0-.68,4.54,4.54,0,0,1,.34-1.3,3.76,3.76,0,0,1,.79-1.18,3,3,0,0,1,1.26-.78l.31-.1,0,0s0,0,0,0a.72.72,0,0,0,.06-.29,3.93,3.93,0,0,1,0-.48,11,11,0,0,0-.79-4c-.47-1.32-1-2.65-1.49-4a11.67,11.67,0,0,1-.67-4.3Z"/><path class="cls-37" d="M571.35,111.68l3.23,2.33,1.61,1.19a4.72,4.72,0,0,1,1.47,1.67,5.25,5.25,0,0,1,.34,2.22c0,.67,0,1.34,0,2a23.32,23.32,0,0,0,.08,3.83,8.69,8.69,0,0,0,.39,1.75,7,7,0,0,0,.76,1.52c.32.47.73,1,1.13,1.57a5.63,5.63,0,0,1,.93,2.16,14.16,14.16,0,0,1,0,4.2,6.61,6.61,0,0,0,.45,3.67l-.18.15a3.91,3.91,0,0,1-1.34-1.67,8.81,8.81,0,0,1-.59-2.06,26.25,26.25,0,0,0-.66-3.69c0-.13-.09-.25-.14-.37a3.73,3.73,0,0,0-.16-.35,6.23,6.23,0,0,0-.41-.71c-.33-.5-.73-1.06-1.09-1.73a9.57,9.57,0,0,1-.76-2.14,13,13,0,0,1-.26-2.15,26.78,26.78,0,0,1,.23-4.1c.09-.66.17-1.31.24-2a4.07,4.07,0,0,0-.06-1.7,3.64,3.64,0,0,0-1-1.39l-1.46-1.34-2.91-2.72Z"/><path class="cls-48" d="M569,237.59l4.56-3.59A24.19,24.19,0,0,0,575,245.34c-1.18-7.61,4.88-14.63,5.07-22.33a7.85,7.85,0,0,1-2.38,3.54q.21-10.37-.22-20.72c0,5.11-3.44,10.72-4.18,15.82C572.46,227.22,571.43,232.45,569,237.59Z"/><path class="cls-48" d="M570.77,137.47a6.68,6.68,0,0,1,1.61-3.56A33.83,33.83,0,0,0,579.6,151a32.07,32.07,0,0,1-2.69-11.64,16.3,16.3,0,0,0-.36-3.89,19.73,19.73,0,0,0-1.3-3.08,19.37,19.37,0,0,1-1.71-7.52,15.58,15.58,0,0,0-.42-5c-.65-1.83-2.18-3.16-3.65-4.42,2.23,1.91,1.88,8.13,1.25,10.66C569.75,130,569.25,133.54,570.77,137.47Z"/><path class="cls-48" d="M607.11,148.57c-2.59,0-5.19-.53-7.76-.21a11.81,11.81,0,0,0-9.93,9.45c-.3,1.7-.22,3.53-1,5.06a6.94,6.94,0,0,1-2.15-4.67c-2.58,4-1.65,9.24.08,13.64s4.18,8.68,4.43,13.4c.14,2.73-.47,5.44-.58,8.17-.19,5,1.22,10.64-1.72,14.75,4.71-3.82,5.42-10.62,5.76-16.67a31.89,31.89,0,0,0,2.4,6.9c-2-5.39,2.07-11.29,1.17-16.95A33.85,33.85,0,0,0,596,176a24,24,0,0,1-1-10.9,6.14,6.14,0,0,0,3.91,6.52c-1.46-2.57-1.72-5.62-1.95-8.57-.19-2.4-.34-5,.95-7s4.6-2.94,6.11-1.05c.55.69,1,1.73,1.83,1.75a1.86,1.86,0,0,0,.94-.32,21.19,21.19,0,0,0,10.33-15.1C615.06,145.36,611.92,148.52,607.11,148.57Z"/><path class="cls-49" d="M541.12,118.74c1.31.48,2.72,1.08,3.27,2.35a113,113,0,0,0-13.27-.09c6.93,2.14,14.85.67,21.26,4,1.42.75,4.29,3.09,5.92,1.79,1.29-1,.57-3.32-.34-4.31C554.62,118.85,545.64,119,541.12,118.74Z"/><path class="cls-49" d="M567.82,75.18c.29-1.81,2.38-2.57,3.92-3.56a15.7,15.7,0,0,0,3.52-3.48q3.33-4.12,6.3-8.51a35,35,0,0,1-8.63,8C569.23,69.82,568.5,70.94,567.82,75.18Z"/></g></g></g></svg>