<svg width="616" height="320" viewBox="0 0 616 320" fill="none" xmlns="http://www.w3.org/2000/svg">
<g clip-path="url(#clip0)">
<rect width="320" height="616" transform="translate(616) rotate(90)" fill="url(#paint0_linear)"/>
<mask id="mask0" mask-type="alpha" maskUnits="userSpaceOnUse" x="0" y="160" width="616" height="160">
<rect y="160" width="616" height="160" fill="#6BDEFF" fill-opacity="0.5"/>
</mask>
<g mask="url(#mask0)">
<path fill-rule="evenodd" clip-rule="evenodd" d="M629.375 236.495C633.543 230.735 636 223.654 636 216C636 196.67 620.33 181 601 181C585.506 181 572.363 191.068 567.757 205.019C562.934 204.347 558.008 204 553 204C510.683 204 474.157 228.797 457.161 264.654C451.241 262.926 444.979 262 438.5 262C418.866 262 401.219 270.509 389.046 284.04C380.321 277.724 369.595 274 358 274C342.177 274 327.973 280.934 318.262 291.93C299.34 263.633 267.096 245 230.5 245C227.751 245 225.027 245.105 222.331 245.312C203.607 228.34 178.761 218 151.5 218C111.633 218 76.9314 240.113 58.9903 272.742C48.5363 267.778 36.8426 265 24.5 265C21.2622 265 18.0691 265.191 14.9313 265.563C14.9769 264.881 15 264.193 15 263.5C15 246.655 1.34468 233 -15.5 233C-32.3447 233 -46 246.655 -46 263.5C-46 274.007 -40.6873 283.273 -32.6017 288.758C-47.0637 303.311 -56 323.362 -56 345.5C-56 389.959 -19.9589 426 24.5 426C46.745 426 66.8827 416.977 81.4527 402.391C100.083 418.945 124.617 429 151.5 429C154.249 429 156.973 428.895 159.669 428.688C178.393 445.66 203.239 456 230.5 456C280.707 456 322.722 420.929 333.385 373.949C340.74 377.813 349.115 380 358 380C368.887 380 379.007 376.718 387.425 371.088C399.623 385.702 417.976 395 438.5 395C452.555 395 465.592 390.64 476.331 383.198C495.633 403.409 522.846 416 553 416C611.542 416 659 368.542 659 310C659 281.459 647.72 255.552 629.375 236.495Z" fill="#6BDEFF" fill-opacity="0.5"/>
</g>
</g>
<defs>
<linearGradient id="paint0_linear" x1="1.43051e-05" y1="308" x2="320" y2="308" gradientUnits="userSpaceOnUse">
<stop stop-color="#ADEDFF"/>
<stop offset="1" stop-color="#00A8D6"/>
</linearGradient>
<clipPath id="clip0">
<rect width="320" height="616" fill="white" transform="translate(616) rotate(90)"/>
</clipPath>
</defs>
</svg>
