<svg width="195" height="147" viewBox="0 0 195 147" fill="none" xmlns="http://www.w3.org/2000/svg">
<mask id="path-1-outside-1" maskUnits="userSpaceOnUse" x="0" y="0" width="195" height="147" fill="black">
<rect fill="white" width="195" height="147"/>
<path fill-rule="evenodd" clip-rule="evenodd" d="M166.467 80.4781C167.896 72.8924 167.939 65.0502 166.397 57.2033C158.872 18.9176 116.451 -4.98031 71.6477 3.82585C26.8442 12.632 -3.37585 50.8075 4.14925 89.0933C11.6743 127.379 54.095 151.277 98.8985 142.471C123.409 137.653 143.555 124.046 155.544 106.439H187.557C192.439 106.439 194.427 100.161 190.436 97.3505L166.467 80.4781Z"/>
</mask>
<g filter="url(#filter0_i)">
<path fill-rule="evenodd" clip-rule="evenodd" d="M166.467 80.4781C167.896 72.8924 167.939 65.0502 166.397 57.2033C158.872 18.9176 116.451 -4.98031 71.6477 3.82585C26.8442 12.632 -3.37585 50.8075 4.14925 89.0933C11.6743 127.379 54.095 151.277 98.8985 142.471C123.409 137.653 143.555 124.046 155.544 106.439H187.557C192.439 106.439 194.427 100.161 190.436 97.3505L166.467 80.4781Z" fill="white"/>
</g>
<path d="M166.397 57.2033L164.434 57.5891L166.397 57.2033ZM166.467 80.4781L164.501 80.1078L164.263 81.3727L165.315 82.1135L166.467 80.4781ZM71.6477 3.82585L72.0334 5.7883L71.6477 3.82585ZM4.14925 89.0933L2.1868 89.479H2.1868L4.14925 89.0933ZM98.8985 142.471L99.2842 144.433L98.8985 142.471ZM155.544 106.439V104.439H154.487L153.891 105.313L155.544 106.439ZM190.436 97.3505L191.587 95.7151L190.436 97.3505ZM164.434 57.5891C165.926 65.1783 165.885 72.7637 164.501 80.1078L168.432 80.8484C169.907 73.0211 169.952 64.9221 168.359 56.8176L164.434 57.5891ZM72.0334 5.7883C116.054 -2.86394 157.177 20.6652 164.434 57.5891L168.359 56.8176C160.567 17.17 116.849 -7.09669 71.262 1.8634L72.0334 5.7883ZM6.1117 88.7076C-1.14572 51.7837 28.0131 14.4405 72.0334 5.7883L71.262 1.8634C25.6754 10.8235 -5.60598 49.8314 2.1868 89.479L6.1117 88.7076ZM98.5127 140.508C54.4924 149.161 13.3691 125.631 6.1117 88.7076L2.1868 89.479C9.97958 129.127 53.6976 153.393 99.2842 144.433L98.5127 140.508ZM153.891 105.313C142.214 122.463 122.535 135.787 98.5127 140.508L99.2842 144.433C124.283 139.52 144.897 125.629 157.197 107.565L153.891 105.313ZM155.544 108.439H187.557V104.439H155.544V108.439ZM187.557 108.439C194.392 108.439 197.176 99.6492 191.587 95.7151L189.284 98.986C191.679 100.672 190.487 104.439 187.557 104.439V108.439ZM191.587 95.7151L167.618 78.8427L165.315 82.1135L189.284 98.986L191.587 95.7151Z" fill="#001E26" mask="url(#path-1-outside-1)"/>
<defs>
<filter id="filter0_i" x="0.995361" y="-0.995117" width="193.575" height="147.287" filterUnits="userSpaceOnUse" color-interpolation-filters="sRGB">
<feFlood flood-opacity="0" result="BackgroundImageFix"/>
<feBlend mode="normal" in="SourceGraphic" in2="BackgroundImageFix" result="shape"/>
<feColorMatrix in="SourceAlpha" type="matrix" values="0 0 0 0 0 0 0 0 0 0 0 0 0 0 0 0 0 0 127 0" result="hardAlpha"/>
<feOffset dy="-8"/>
<feGaussianBlur stdDeviation="0.5"/>
<feComposite in2="hardAlpha" operator="arithmetic" k2="-1" k3="1"/>
<feColorMatrix type="matrix" values="0 0 0 0 0 0 0 0 0 0 0 0 0 0 0 0 0 0 0.25 0"/>
<feBlend mode="normal" in2="shape" result="effect1_innerShadow"/>
</filter>
</defs>
</svg>
