<svg width="33" height="32" viewBox="0 0 33 32" fill="none" xmlns="http://www.w3.org/2000/svg">
<ellipse cx="15.8222" cy="16.0207" rx="15.2363" ry="15.1457" fill="#EFE2BD"/>
<path d="M16.0159 31.8481C7.1921 31.8481 0 24.704 0 15.924C0 7.14402 7.1921 0 16.0159 0C24.8397 0 32.0273 7.1429 32.0273 15.924C32.0273 24.7052 24.8465 31.8481 16.0159 31.8481ZM16.0159 1.11748C7.80568 1.11748 1.12601 7.75975 1.12601 15.924C1.12601 24.0883 7.80568 30.7306 16.0159 30.7306C24.2262 30.7306 30.9036 24.0883 30.9036 15.924C30.9036 7.75975 24.2262 1.11748 16.0159 1.11748V1.11748Z" fill="#6B1F1F"/>
<path d="M16.0188 5.33594C13.0836 5.33594 10.9057 6.32379 9.54483 8.27155C8.23002 10.1556 7.5625 12.7213 7.5625 15.8961C7.5625 19.0887 8.23002 21.6678 9.54483 23.5608C10.9046 25.5187 13.0824 26.5121 16.0188 26.5121C18.9406 26.5121 21.1084 25.5198 22.4783 23.562C23.8032 21.669 24.4752 19.0921 24.4752 15.8961C24.4752 12.7202 23.8009 10.1545 22.4771 8.27043C21.1073 6.32267 18.935 5.33594 16.0188 5.33594ZM21.5556 22.9272C20.3925 24.59 18.5822 25.398 16.0188 25.398C13.4342 25.398 11.6227 24.59 10.4697 22.9295C9.28636 21.2264 8.68627 18.8607 8.68627 15.8994C8.68627 12.9571 9.28636 10.606 10.4686 8.91186C11.6215 7.26023 13.4376 6.45341 16.0188 6.45341C18.5822 6.45341 20.3937 7.25688 21.5568 8.91186C22.748 10.6048 23.3548 12.9549 23.3548 15.8972C23.3514 18.8574 22.748 21.222 21.5556 22.9272Z" fill="#6B1F1F"/>
<path d="M16.0178 9.85938C14.1624 9.85938 13.3398 10.8126 12.9769 11.6127C12.5094 12.6441 12.2812 14.0443 12.2812 15.8937C12.2812 17.7432 12.506 19.1735 12.9769 20.2139C13.3387 21.0218 14.1602 21.984 16.0178 21.984C17.854 21.984 18.6631 21.0196 19.0194 20.2094C19.4756 19.1702 19.6936 17.7577 19.6936 15.8937C19.6936 14.0298 19.4689 12.624 19.0126 11.6015C18.6564 10.807 17.8518 9.85938 16.0178 9.85938ZM17.9889 19.7624C17.6585 20.5156 17.0325 20.8665 16.0178 20.8665C14.9817 20.8665 14.3422 20.5145 14.0029 19.758C13.6062 18.8763 13.405 17.5767 13.405 15.8937C13.405 14.2298 13.6062 12.9447 14.0017 12.072C14.3389 11.3244 14.9817 10.9769 16.0178 10.9769C17.3528 10.9769 17.7832 11.5926 17.9911 12.0563C18.3777 12.9201 18.5743 14.2119 18.5743 15.8937C18.5743 17.5755 18.3777 18.8785 17.9889 19.7624Z" fill="#6B1F1F"/>
</svg>
