<svg width="33" height="32" viewBox="0 0 33 32" fill="none" xmlns="http://www.w3.org/2000/svg">
<ellipse cx="16.1464" cy="16.0207" rx="15.2363" ry="15.1457" fill="#EFE2BD"/>
<path d="M21.0179 16.7304C22.5731 14.8028 23.3609 12.7902 23.3609 10.7508C23.3609 8.87232 22.7518 7.32014 21.5516 6.13562C20.3515 4.95109 18.5782 4.34766 16.2812 4.34766C14.0876 4.34766 12.2356 5.00697 10.7916 6.30771C9.34754 7.60845 8.53505 9.57074 8.41593 12.1186L8.38784 12.703H14.2123L14.2303 12.1633C14.264 11.1743 14.4258 10.4535 14.7135 10.0222C14.8652 9.7987 15.1518 9.49028 15.8879 9.49028C16.597 9.49028 17.3207 9.69589 17.3207 11.2224C17.3207 12.7991 15.8114 15.7504 8.62271 20.8528L8.38672 21.0204V25.4422H23.6699V20.4695H17.1026C18.5638 19.3955 19.8797 18.1388 21.0179 16.7304V16.7304ZM22.5462 21.5903V24.3281H9.51049V21.5981C15.5215 17.2981 18.4444 13.9043 18.4444 11.2257C18.4444 8.74716 16.8431 8.37616 15.8879 8.37616C14.709 8.37616 14.0898 8.93489 13.7763 9.40982C13.4302 9.92945 13.22 10.6458 13.1391 11.5889H9.5824C9.77007 9.64002 10.4297 8.14596 11.5467 7.14246C12.7997 6.01828 14.3494 5.46625 16.2834 5.46625C18.2736 5.46625 19.7806 5.95682 20.7628 6.92456C21.7449 7.89229 22.2394 9.15951 22.2394 10.7463C22.2394 12.5253 21.5348 14.3021 20.1436 16.0264C18.693 17.8175 16.9446 19.3482 14.9742 20.5522L13.2886 21.5858L22.5462 21.5903Z" fill="#6B1F1F"/>
<path d="M16.0159 31.8481C7.1921 31.8481 0 24.704 0 15.924C0 7.14402 7.1921 0 16.0159 0C24.8397 0 32.0273 7.1429 32.0273 15.924C32.0273 24.7052 24.8465 31.8481 16.0159 31.8481ZM16.0159 1.11748C7.80568 1.11748 1.12601 7.75975 1.12601 15.924C1.12601 24.0883 7.80568 30.7306 16.0159 30.7306C24.2262 30.7306 30.9036 24.0883 30.9036 15.924C30.9036 7.75975 24.2262 1.11748 16.0159 1.11748V1.11748Z" fill="#6B1F1F"/>
</svg>
