<svg width="42" height="42" viewBox="0 0 42 42" fill="none" xmlns="http://www.w3.org/2000/svg">
<path d="M25.7464 20.5948C26.3735 20.2628 26.9299 19.8095 27.3838 19.2607C28.1922 18.2938 28.6031 17.0184 28.6031 15.4664C28.6178 14.2698 28.2977 13.0933 27.6795 12.0723C27.0651 11.0674 26.1585 10.2694 24.9877 9.70024C23.8399 9.14211 22.4558 8.85938 20.8778 8.85938C18.3678 8.85938 16.374 9.53134 14.9512 10.8581C13.5283 12.1849 12.7441 14.1016 12.6362 16.5435L12.6084 17.1824H18.8647L18.9059 16.6157C18.9568 15.9168 19.1483 15.3611 19.4889 14.9645C19.7955 14.5974 20.2161 14.4284 20.7566 14.4284C21.2596 14.4284 21.6402 14.5655 21.9177 14.8458C22.1953 15.1261 22.3322 15.541 22.3322 16.1114C22.3322 16.6622 22.1904 17.071 21.8995 17.3599C21.4644 17.7907 20.6657 18 19.5143 17.978H17.9678V23.4552H19.5434C22.7552 23.4552 22.7552 24.9448 22.7552 25.5054C22.7552 26.066 22.5976 26.4846 22.2704 26.8224C21.9432 27.1602 21.5129 27.312 20.9372 27.312C20.1821 27.312 19.6367 27.1088 19.2683 26.6914C18.8805 26.2508 18.6623 25.6168 18.6332 24.8077L18.609 24.2214H12.332L12.3623 24.8628C12.492 27.5384 13.3537 29.5702 14.9269 30.9019C16.4758 32.2152 18.5799 32.8811 21.1796 32.8811C22.7819 32.8811 24.1817 32.5873 25.3416 32.0071C26.4738 31.4625 27.4209 30.5915 28.0638 29.5041C28.6942 28.4015 29.0167 27.1469 28.997 25.8738C28.997 23.4503 27.905 21.678 25.7464 20.5948ZM27.0202 28.8823C26.4949 29.7635 25.7238 30.4686 24.8035 30.9092C23.8121 31.4049 22.5928 31.6559 21.1796 31.6559C18.8768 31.6559 17.0309 31.0867 15.705 29.9631C14.5257 28.9631 13.8264 27.4454 13.6216 25.4442H17.4757C17.5969 26.2765 17.8915 26.968 18.3629 27.5029C18.9689 28.1871 19.8307 28.5347 20.9372 28.5347C21.8498 28.5347 22.5916 28.2459 23.143 27.6779C23.6945 27.11 23.9672 26.3818 23.9672 25.5054C23.9672 24.0121 23.1988 22.2313 19.5434 22.2313H19.1798V19.2019H19.5022C21.0014 19.2289 22.0619 18.9119 22.7467 18.2326C23.2752 17.7099 23.543 16.9951 23.543 16.1114C23.543 15.2277 23.2836 14.4958 22.7746 13.9805C22.2656 13.4652 21.5844 13.2045 20.7554 13.2045C19.8464 13.2045 19.1107 13.5288 18.5678 14.1677C18.1465 14.6812 17.8697 15.2997 17.7666 15.9584H13.8882C14.0737 14.1592 14.7051 12.7479 15.768 11.7565C16.9594 10.6464 18.6768 10.0833 20.8718 10.0833C22.2668 10.0833 23.4739 10.3281 24.4568 10.803C25.4155 11.2694 26.1536 11.9132 26.6384 12.7149C27.1372 13.5442 27.3947 14.4986 27.3814 15.4688C27.3814 16.7209 27.0675 17.7307 26.4482 18.47C25.8545 19.203 25.0265 19.7041 24.1066 19.8874L23.6218 19.989V21.0905L24.0423 21.2264C26.5524 22.0416 27.7729 23.5617 27.7729 25.8775C27.7941 26.9292 27.5341 27.9673 27.0202 28.8823Z" fill="#6B1F1F"/>
<path d="M20.6645 41.7375C9.27177 41.7375 0 32.3753 0 20.8687C0 9.36216 9.26935 0 20.6645 0C32.0597 0 41.3291 9.36094 41.3291 20.8687C41.3291 32.3765 32.0585 41.7375 20.6645 41.7375ZM20.6645 1.22397C9.93837 1.22397 1.212 10.0366 1.212 20.8687C1.212 31.7009 9.93837 40.5135 20.6645 40.5135C31.3907 40.5135 40.1171 31.7009 40.1171 20.8687C40.1171 10.0366 31.3907 1.22397 20.6645 1.22397Z" fill="#6B1F1F"/>
<path d="M33.2045 34.4165L33.2796 33.0787C33.3633 31.6099 33.4505 30.0873 32.9766 28.7079C32.5209 27.3799 31.5962 26.3052 30.6181 25.1669C29.8606 24.2869 29.0764 23.3763 28.5116 22.3237C28.0971 21.5501 27.9226 20.8953 27.9626 20.2625C28.0487 18.8965 28.7395 18.2662 29.3043 17.9786C31.0593 17.0814 33.8262 18.2233 34.8916 18.91C37.0077 20.2833 38.2367 23.1131 37.9482 25.9527C37.6901 28.4839 36.4017 31.0041 34.1159 33.4434L33.2045 34.4165ZM30.8532 18.6273C30.4702 18.6141 30.0894 18.6908 29.7406 18.8512C29.24 19.1071 28.9746 19.5856 28.9286 20.32C28.9007 20.7606 29.0389 21.2478 29.3625 21.8512C29.8776 22.8108 30.6254 23.6798 31.3477 24.5207C32.344 25.6786 33.3742 26.8756 33.8929 28.3823C34.2674 29.4741 34.3341 30.6295 34.3098 31.736C35.8854 29.7887 36.7835 27.8193 36.9835 25.8487C37.2356 23.3665 36.1836 20.9075 34.368 19.7288C33.4978 19.1707 32.0434 18.626 30.8532 18.626V18.6273Z" fill="#6B1F1F"/>
<path d="M35.0895 17.9685C32.8267 17.9685 30.9821 16.6148 29.4562 13.8413C28.1896 11.539 27.0322 9.70913 24.6312 8.84011L21.8242 7.82422L24.8057 7.89031C27.8636 7.95763 30.21 8.4105 32.1892 9.31746C34.7611 10.4949 36.6663 12.4998 37.4153 14.8253C37.7341 15.8119 37.6662 16.6307 37.219 17.1925C36.8554 17.6503 36.2603 17.9073 35.4568 17.9575C35.3331 17.9648 35.2107 17.9685 35.0895 17.9685ZM26.9582 8.99678C28.4126 10.0984 29.358 11.6455 30.3033 13.3651C31.7311 15.96 33.3467 17.1068 35.3937 16.9795C35.9149 16.9465 36.2736 16.8106 36.4603 16.5768C36.7536 16.2096 36.6397 15.5854 36.4918 15.1277C35.8252 13.0665 34.1102 11.2734 31.7856 10.2085C30.4221 9.58307 28.8562 9.19262 26.9582 8.99678Z" fill="#6B1F1F"/>
<path d="M26.6949 38.6906C25.7968 38.6906 25.0829 38.2916 24.6999 37.5584C24.1279 36.4569 24.4236 34.8804 25.4041 33.7947C25.7452 33.4354 26.1176 33.1077 26.5167 32.8155C26.7033 32.6723 26.8803 32.5365 27.0488 32.392L27.0694 32.3737C27.9324 31.6161 28.6029 30.6605 29.0247 29.5871C29.4464 28.5138 29.6072 27.3539 29.4934 26.2049L29.3382 24.8242L30.3163 25.8034C32.4094 27.8976 33.0021 30.785 32.0773 34.3847C31.4653 36.7726 29.7188 38.2879 27.1603 38.6514C27.0062 38.6755 26.8507 38.6886 26.6949 38.6906ZM27.6717 33.1485C27.4851 33.3064 27.2924 33.4557 27.1057 33.5989C26.7533 33.8551 26.4236 34.1417 26.1204 34.4557C25.4295 35.2206 25.1823 36.3822 25.5568 37.1019C25.8768 37.7139 26.5337 37.7579 27.0294 37.6869C28.5468 37.4715 30.4921 36.6821 31.1429 34.1448C31.8374 31.4361 31.6277 29.2623 30.4884 27.5414C30.4122 28.6124 30.1266 29.6574 29.6481 30.6162C29.1697 31.5751 28.5078 32.4286 27.7008 33.1277L27.6717 33.1485Z" fill="#6B1F1F"/>
<path d="M19.8588 40.1796C18.4287 40.1796 16.9343 39.761 16.0532 39.3155C14.841 38.6885 13.77 37.8156 12.9072 36.7514C12.0445 35.6872 11.4085 34.4546 11.0391 33.1308C10.5253 31.2654 10.4271 29.2863 10.3762 27.5788L10.2695 24.0195L11.3228 27.4173C11.7182 28.6374 12.4007 29.7425 13.3117 30.6378C14.2228 31.5331 15.3352 32.192 16.5537 32.558C17.0778 32.6977 17.6085 32.8109 18.1439 32.897C19.1498 33.0769 20.1897 33.2642 21.1302 33.7856C22.4755 34.5322 24.0814 36.3927 23.433 38.1919C23.1579 38.9618 22.604 39.5199 21.7871 39.8504C21.1704 40.0808 20.5163 40.1925 19.8588 40.1796ZM11.4743 29.9387C11.5527 30.9285 11.7194 31.9092 11.9724 32.8688C12.6232 35.2287 14.3527 37.3633 16.4859 38.4404C17.6385 39.0218 20.0007 39.5187 21.432 38.9397C21.9883 38.7145 22.3459 38.3608 22.5228 37.8578C22.947 36.6717 21.7132 35.2287 20.6588 34.6436C19.8588 34.1993 18.9414 34.0316 17.9706 33.8615C17.4032 33.7681 16.8409 33.6455 16.2859 33.4943C14.3467 32.9435 12.6172 31.6339 11.4743 29.9387Z" fill="#6B1F1F"/>
<path d="M10.917 37.0861L9.65166 36.2293C5.96924 33.7054 3.3937 29.8434 2.4621 25.4486C2.28272 24.5918 1.5228 20.265 4.10072 19.2161C5.03517 18.8354 6.19141 18.8893 7.27373 19.3642C8.30877 19.8171 9.09172 20.5882 9.43835 21.4792C9.92315 22.7399 9.69651 24.0594 9.47835 25.336C9.44684 25.5208 9.41533 25.7031 9.38745 25.888C8.86911 29.1731 9.21004 32.5381 10.3764 35.6492L10.917 37.0861ZM5.43876 19.9431C5.10737 19.94 4.77838 20.0002 4.46917 20.1206C2.92023 20.7485 3.07537 23.6371 3.40988 25.2429C4.18015 28.8707 6.14028 32.1298 8.97295 34.4925C8.15393 31.6479 7.9685 28.6556 8.42997 25.7301C8.45906 25.5428 8.49057 25.3555 8.5233 25.1658C8.71843 24.0214 8.92083 22.8403 8.5342 21.8293C8.28574 21.1806 7.68581 20.6053 6.88831 20.2577C6.43127 20.0546 5.93808 19.9476 5.43876 19.9431Z" fill="#6B1F1F"/>
<path d="M14.4284 23.6416C13.0795 23.6416 11.6408 23.0296 10.7318 22.3246C10.1937 21.9085 9.74406 21.3369 9.31381 20.5266C8.4213 18.8289 8.01621 16.9132 8.14423 14.9955L8.34663 12.1289L9.09565 14.9037C9.36176 15.8734 9.96392 16.7143 10.7924 17.2733C11.4348 17.7004 12.3232 17.8228 13.2637 17.9526C14.6405 18.1411 16.0646 18.3369 16.9215 19.5376C17.6002 20.4886 17.5542 21.8632 16.8161 22.6747C16.1846 23.3699 15.3265 23.6416 14.4284 23.6416ZM9.2023 17.1386C9.36212 18.1618 9.68982 19.1509 10.1719 20.0652C10.5355 20.7481 10.8991 21.2194 11.3245 21.5474C12.6044 22.5376 14.9799 23.2499 16.1119 22.0088C16.5422 21.5376 16.5567 20.6857 16.1434 20.108C15.5301 19.2512 14.3703 19.0884 13.1413 18.9195C12.1353 18.7812 11.0942 18.638 10.2676 18.0884C9.86994 17.8242 9.51127 17.5044 9.2023 17.1386Z" fill="#6B1F1F"/>
<path d="M11.7315 17.1984L10.7765 15.595C9.5237 13.4842 9.01975 11.0056 9.34752 8.56697L9.83232 8.63307L9.34752 8.56697C9.60689 6.65268 10.4601 5.00889 11.6879 4.05786C12.8296 3.17293 14.9894 2.73597 16.2608 3.52543C16.7493 3.84118 17.1314 4.29928 17.3564 4.83912C17.5815 5.37896 17.639 5.9751 17.5212 6.54864C17.2376 7.81423 16.188 8.6294 15.2548 9.3442L14.9118 9.6098C12.7993 11.2732 11.62 13.3601 11.6794 15.3294L11.7315 17.1984ZM14.61 4.08601C13.7834 4.08601 12.8502 4.39078 12.2781 4.83508C11.2516 5.63066 10.5329 7.03823 10.3074 8.70039C10.0831 10.3773 10.2893 12.0842 10.9061 13.6575C11.3546 11.9317 12.5387 10.2389 14.3155 8.8387L14.6658 8.56575C15.5045 7.91949 16.3698 7.25243 16.5759 6.33322C16.649 5.95897 16.6097 5.5712 16.4631 5.21966C16.3164 4.86811 16.0691 4.56882 15.7529 4.36018C15.4037 4.16568 15.0086 4.0709 14.61 4.08601Z" fill="#6B1F1F"/>
<path d="M33.1492 8.88338L31.6536 8.06699C29.7244 7.02132 27.5293 6.58308 25.3512 6.80874C24.9112 6.85525 24.4591 6.93114 24.018 7.0058C23.3456 7.13362 22.666 7.21824 21.983 7.25916C20.9601 7.29711 19.5263 7.13677 18.4961 6.14168C18.0028 5.66678 17.5047 4.76104 17.5774 3.89814C17.5925 3.65538 17.6632 3.41947 17.7839 3.20899C17.9047 2.99851 18.0721 2.8192 18.2731 2.68518C19.107 2.1197 20.5965 2.05483 21.5831 2.01199L21.7879 2.00343C24.496 1.86763 27.1715 2.64811 29.3908 4.22127C30.5789 5.05201 31.5736 6.13421 32.3056 7.39258L33.1492 8.88338ZM26.4674 5.76592C27.8202 5.76687 29.1631 5.99904 30.4391 6.45257C29.9562 5.91453 29.416 5.43182 28.8284 5.01318C26.7858 3.56723 24.3241 2.85052 21.8327 2.97648L21.6243 2.98628C20.8001 3.02177 19.4209 3.08052 18.8137 3.493C18.7334 3.5457 18.667 3.61716 18.6199 3.70133C18.5729 3.78549 18.5466 3.87988 18.5434 3.97647C18.5022 4.46606 18.827 5.10253 19.1651 5.4281C19.9917 6.22368 21.2631 6.30079 21.9467 6.27387C22.5908 6.23413 23.2316 6.15236 23.8653 6.02907C24.3173 5.95196 24.784 5.87363 25.253 5.82344C25.6565 5.78283 26.0619 5.76363 26.4674 5.76592Z" fill="#6B1F1F"/>
<path d="M5.16733 18.309C4.55285 18.309 3.97957 17.992 3.53719 17.3898C2.41246 15.8599 3.12875 13.5441 3.87655 11.6984C4.62435 9.85261 5.82302 8.42301 7.25924 7.64334L8.45911 6.99219L7.93553 8.26267C7.43327 9.48892 7.20644 10.8124 7.27136 12.1378C7.29681 12.6212 7.35862 13.0974 7.42528 13.6065C7.52141 14.2441 7.57849 14.8871 7.59617 15.5318C7.60466 16.7069 6.82777 17.8574 5.78666 18.2087C5.58698 18.2758 5.3778 18.3097 5.16733 18.309ZM4.77464 12.0668C4.16864 13.549 3.47053 15.653 4.31651 16.8035C4.65223 17.2613 5.04371 17.4155 5.48002 17.2723C6.11753 17.0557 6.63263 16.2748 6.62657 15.5306C6.61056 14.9278 6.55794 14.3265 6.46901 13.7302C6.40235 13.2283 6.33448 12.7106 6.30903 12.188C6.26162 11.2343 6.35061 10.2788 6.57325 9.35078C5.7879 10.1174 5.17385 11.0447 4.77222 12.0704L4.77464 12.0668Z" fill="#6B1F1F"/>
<path d="M5.35398 13.5352C5.3867 14.6624 5.37822 15.7652 5.39276 16.8644C5.4073 17.9635 5.43033 19.0565 5.47396 20.1483C5.5176 21.2401 5.58062 22.3318 5.65819 23.4273C5.73576 24.5228 5.82787 25.6231 5.88483 26.7492C5.44564 25.7151 5.11655 24.6369 4.90311 23.5326C4.46333 21.3239 4.37252 19.0589 4.63405 16.8215C4.75977 15.7037 5.00106 14.6022 5.35398 13.5352Z" fill="#6B1F1F"/>
<path d="M13.3984 21.1761C14.1345 21.3656 14.9144 21.2654 15.58 20.8958C15.7392 20.806 15.8901 20.7019 16.0309 20.5849C16.1682 20.4675 16.2936 20.3367 16.4054 20.1945C16.6202 19.9174 16.7616 19.5897 16.8163 19.2422C16.9217 18.5629 16.6757 17.8285 16.1957 17.4332C15.9464 17.2384 15.6502 17.1142 15.3376 17.0733C14.9843 17.025 14.6275 17.0065 14.2711 17.0182L14.3196 16.0391C14.7284 16.0699 15.1339 16.1362 15.5316 16.2373C15.7457 16.2952 15.9526 16.3773 16.1485 16.4821C16.3506 16.5921 16.5356 16.7315 16.6975 16.8958C17.0058 17.2212 17.2192 17.626 17.3144 18.066C17.363 18.2765 17.3854 18.4924 17.3811 18.7086C17.3799 18.8158 17.3726 18.9228 17.3592 19.0292C17.3443 19.1352 17.3233 19.2403 17.2962 19.3438C17.2414 19.5503 17.1599 19.7487 17.0538 19.9337C16.9498 20.1142 16.8253 20.2818 16.6829 20.4331C16.541 20.58 16.3851 20.7124 16.2175 20.8285C16.0509 20.9401 15.8744 21.036 15.6903 21.1149C14.9619 21.4289 14.1423 21.4508 13.3984 21.1761Z" fill="#6B1F1F"/>
<path d="M12.0117 8.52904C12.1169 8.00813 12.3184 7.51191 12.6056 7.0664C12.8967 6.61312 13.2506 6.20425 13.6564 5.85221C14.4757 5.15048 15.4383 4.64017 16.4755 4.35775C17.4908 4.08541 18.5406 3.96743 19.5903 4.00769C20.6199 4.04171 21.6435 4.17989 22.6458 4.42017C21.6253 4.5903 20.6133 4.66496 19.6231 4.78124C18.6479 4.87982 17.6819 5.05497 16.7337 5.3051C15.8077 5.55815 14.9248 5.95055 14.1145 6.4691C13.2788 6.99991 12.5625 7.70163 12.0117 8.52904Z" fill="#6B1F1F"/>
<path d="M31.8789 12.8125C33.3006 13.4769 34.6328 14.3213 35.8433 15.3253C37.0719 16.3361 38.1218 17.5499 38.9485 18.9152C39.7814 20.3071 40.2972 21.8687 40.4586 23.4868C40.6215 25.134 40.3684 26.7961 39.7229 28.3178L38.843 27.9065C39.5004 26.5498 39.8065 25.0468 39.7326 23.5382C39.6557 22.0044 39.2417 20.5072 38.5206 19.1551C37.7852 17.7869 36.8254 16.5545 35.6821 15.5101C34.5334 14.4509 33.2553 13.5443 31.8789 12.8125Z" fill="#6B1F1F"/>
<path d="M26.3203 18.636C26.4766 18.398 26.6512 18.1729 26.8427 17.9628C27.0493 17.7357 27.2902 17.5432 27.5566 17.3924C27.8376 17.242 28.1479 17.1556 28.4655 17.139C28.7681 17.1261 29.0706 17.1675 29.3588 17.2614C29.8889 17.4432 30.3797 17.7257 30.8047 18.0937C31.0099 18.2666 31.2057 18.4504 31.3913 18.6445C31.4871 18.7363 31.5755 18.8355 31.6652 18.9322C31.7549 19.0289 31.8434 19.1268 31.9282 19.2284C33.2999 20.8233 34.242 22.7479 34.6637 24.817C34.3811 23.8218 33.9738 22.8672 33.4517 21.9762C32.9325 21.0943 32.3031 20.2835 31.5792 19.5637C31.4907 19.4732 31.3986 19.3863 31.3053 19.3006C31.2119 19.2149 31.121 19.128 31.0241 19.0472C30.8387 18.8812 30.6445 18.7255 30.4423 18.5809C30.0611 18.2975 29.6301 18.0898 29.1721 17.9689C28.9733 17.9138 28.7654 17.9003 28.5611 17.9291C28.3569 17.9579 28.1607 18.0285 27.9844 18.1366C27.6487 18.3532 27.3784 18.7314 27.1433 19.1537L26.3203 18.636Z" fill="#6B1F1F"/>
<path d="M15.9219 35.8328C17.1465 36.4752 18.4615 36.9243 19.8209 37.1644C21.1393 37.3975 22.49 37.3713 23.7986 37.0873C25.1178 36.781 26.3567 36.1929 27.4319 35.3625C28.5071 34.5322 29.3936 33.4788 30.0319 32.2734C29.9932 32.446 29.9471 32.6198 29.9035 32.7949L29.7289 33.3065C29.6599 33.4729 29.5847 33.6382 29.5108 33.8034L29.2538 34.2856C28.8787 34.9167 28.4168 35.4907 27.8819 35.9906C26.7951 37.0081 25.4613 37.7171 24.0156 38.0457C22.5752 38.3608 21.0804 38.3163 19.6609 37.916C18.2659 37.5376 16.9828 36.8227 15.9219 35.8328Z" fill="#6B1F1F"/>
</svg>
