<svg width="33" height="32" viewBox="0 0 33 32" fill="none" xmlns="http://www.w3.org/2000/svg">
<ellipse cx="16.1503" cy="16.0207" rx="15.2363" ry="15.1457" fill="#EFE2BD"/>
<path d="M21.2581 16.6537V4.44531H15.2415L5.89062 17.1979V21.9338H15.2741V25.5656H21.2581V21.9338H23.6461V16.6537H21.2581ZM22.5224 20.8163H20.1344V24.4481H16.3978V20.8163H7.01439V17.5611L15.8124 5.56279H20.1344V17.7712H22.5224V20.8163Z" fill="#6B1F1F"/>
<path d="M16.796 17.7735V8.82031L10.2422 17.7735H16.796ZM15.6722 16.6561H12.4504L15.6722 12.2543V16.6561Z" fill="#6B1F1F"/>
<path d="M16.0159 31.8481C7.19211 31.8481 0 24.704 0 15.924C0 7.14402 7.19211 0 16.0159 0C24.8397 0 32.0274 7.1429 32.0274 15.924C32.0274 24.7052 24.8465 31.8481 16.0159 31.8481ZM16.0159 1.11748C7.80568 1.11748 1.12601 7.75975 1.12601 15.924C1.12601 24.0883 7.80568 30.7306 16.0159 30.7306C24.2262 30.7306 30.9036 24.0883 30.9036 15.924C30.9036 7.75975 24.2262 1.11748 16.0159 1.11748V1.11748Z" fill="#6B1F1F"/>
</svg>
