<svg width="41" height="73" viewBox="0 0 41 73" fill="none" xmlns="http://www.w3.org/2000/svg">
<path d="M8.64587 69.0279L8.54858 69.1527L8.64587 69.0279Z" fill="#EFE2BD"/>
<path d="M7.55375 70.3229L7.51245 70.3662L7.55375 70.3229Z" fill="#EFE2BD"/>
<path d="M9.20592 68.2782C9.02387 68.5307 8.83658 68.7799 8.64404 69.0258C8.83621 68.7811 9.02387 68.533 9.20592 68.2782Z" fill="#CCBE8F"/>
<path d="M13.4685 72.208V72.2192C13.4527 72.2549 13.4339 72.2893 13.4123 72.322C13.4051 72.3329 13.3972 72.3433 13.3887 72.3533C13.3728 72.3752 13.3555 72.3961 13.337 72.4159L13.3022 72.4494L13.2842 72.465C13.3681 72.3207 13.4432 72.1714 13.5089 72.018C13.5051 72.083 13.4915 72.1471 13.4685 72.208Z" fill="#CCBE8F"/>
<path d="M8.54844 69.1518C8.34841 69.4043 8.14501 69.6535 7.93262 69.8972C8.14501 69.6535 8.34841 69.4043 8.54844 69.1518Z" fill="#CCBE8F"/>
<path d="M7.93262 69.8969C7.80825 70.0407 7.68089 70.1826 7.55054 70.3227C7.68089 70.1826 7.80825 70.0407 7.93262 69.8969Z" fill="#CCBE8F"/>
<path d="M7.51249 70.3634C7.13266 70.7712 6.72585 71.1635 6.31006 71.5367C6.73035 71.1635 7.13116 70.7724 7.51249 70.3634Z" fill="#CCBE8F"/>
<path d="M6.30996 71.5364L6.4819 71.6046L6.57292 71.6404C6.74036 71.704 6.91005 71.7644 7.07075 71.8236L7.1674 71.8571C7.33596 71.9164 7.50453 71.9689 7.6686 72.0281L7.70343 72.0382C7.86301 72.0907 8.02146 72.1399 8.17766 72.1868L8.20913 72.1957L8.25745 72.2103C8.41478 72.2572 8.56986 72.3008 8.72381 72.3421L8.81596 72.3667C8.97104 72.4069 9.12387 72.4461 9.27333 72.4785L9.32278 72.4896C9.46662 72.5232 9.60822 72.5544 9.74756 72.5835L9.80712 72.5958C9.94984 72.6248 10.0903 72.6506 10.2274 72.674L10.3252 72.6908H10.3566L10.5106 72.7154L10.623 72.731L10.8129 72.7556L10.9073 72.7668C10.9893 72.7768 11.0702 72.7846 11.15 72.7913H11.1792L11.44 72.8081H11.5141L11.6872 72.8137H11.9232H12.0108L12.1468 72.8059C12.1749 72.8059 12.2019 72.8059 12.2288 72.7992C12.2738 72.7992 12.3165 72.7914 12.3592 72.7858L12.4311 72.7768C12.4794 72.7701 12.5244 72.7623 12.5693 72.7534L12.6177 72.7455C12.6772 72.7332 12.73 72.7187 12.7874 72.7031L12.8211 72.693C12.8626 72.6796 12.9031 72.6662 12.9413 72.6517L12.9908 72.6316L13.0773 72.5913L13.1256 72.5645C13.1515 72.55 13.1751 72.5355 13.1975 72.5198L13.2402 72.4896L13.2818 72.4539C13.3658 72.3095 13.4408 72.1603 13.5066 72.0069C13.5167 71.9856 13.5279 71.9667 13.5369 71.9454L40.0769 8.0694L40.886 6.1216C40.8708 6.1578 40.8524 6.1926 40.8309 6.2256C40.8231 6.2356 40.8141 6.2457 40.8073 6.2557C40.8006 6.2658 40.7736 6.2982 40.7557 6.3183C40.7377 6.3384 40.7321 6.3407 40.7208 6.3518C40.7096 6.363 40.6815 6.3865 40.6601 6.4032L40.6186 6.4334L40.5466 6.4781L40.4983 6.5049C40.4702 6.5195 40.441 6.5318 40.4107 6.5452C40.3946 6.5527 40.378 6.5595 40.3612 6.5653C40.323 6.5809 40.2826 6.5932 40.2421 6.6066L40.2084 6.6167C40.1544 6.6323 40.096 6.6469 40.0387 6.6591L39.9893 6.667C39.9454 6.6759 39.8993 6.6837 39.8521 6.6904L39.7813 6.705L39.6521 6.7195L39.569 6.7251L39.433 6.7329H39.3465H39.1071H38.934H38.8587L38.6003 6.705H38.5711L38.3283 6.6815L38.2339 6.6692L38.044 6.6446L37.9316 6.629L37.7473 6.5932L37.69 6.5843C28.4493 27.3514 23.1496 38.6312 13.9122 59.3951C12.548 62.4603 11.1568 65.5657 9.20591 68.2779C9.02386 68.5304 8.83656 68.7796 8.64402 69.0255L8.54738 69.1495C8.34735 69.402 8.14395 69.6512 7.93156 69.8948C7.80719 70.0386 7.67983 70.1805 7.54948 70.3206L7.51127 70.3608C7.13143 70.7687 6.72463 71.1609 6.30884 71.5342L6.30996 71.5364Z" fill="#EFE2BD"/>
<path d="M0.0484382 66.7132V66.7021C0.0581916 66.6817 0.0690714 66.662 0.0810274 66.6428L0.0461906 66.6283L26.6648 2.55897L27.474 0.611206C27.0267 1.67616 29.6676 3.7759 33.376 5.2979C33.5528 5.3724 33.7285 5.4421 33.903 5.5069L33.9941 5.5426C34.1615 5.6063 34.3312 5.6667 34.493 5.7259L34.5896 5.7594C34.7582 5.8186 34.9268 5.8712 35.0909 5.9304L35.1246 5.9404C35.2853 5.993 35.4426 6.0421 35.5999 6.0891L35.6786 6.1125C35.837 6.1595 35.9921 6.2031 36.1461 6.2444L36.2371 6.269C36.3922 6.3092 36.545 6.3483 36.6956 6.3807L36.7439 6.3919C36.8889 6.4254 37.0305 6.4567 37.1698 6.4858L37.2283 6.4981C37.3721 6.5271 37.5114 6.5528 37.6485 6.5763L37.6901 6.5841C28.4494 27.3513 23.1497 38.6311 13.9123 59.3949C12.5481 62.4601 11.1569 65.5645 9.20601 68.2788C8.80707 68.8376 8.38454 69.3773 7.93278 69.8969C7.42844 70.478 6.88638 71.0256 6.31007 71.5363C6.19095 71.4904 6.07295 71.4446 5.95383 71.3955C2.24765 69.8735 -0.394326 67.7748 0.0484382 66.7132Z" fill="#FFF4D2"/>
<path d="M17.0115 57.6241C16.2136 62.0571 14.4729 66.375 12.1074 70.2069C11.8276 70.6606 11.523 71.1232 11.069 71.4048C10.615 71.6864 9.96997 71.74 9.57553 71.3757C9.5069 71.3172 9.45069 71.2456 9.41017 71.1652C9.36966 71.0848 9.34565 70.9972 9.33954 70.9075C9.3328 70.6516 9.51035 70.4315 9.67667 70.237C12.5412 66.812 15.6506 61.9208 17.0115 57.6241Z" fill="#FFF4D2"/>
<path d="M27.4751 0.599121C27.4753 0.603191 27.4753 0.607261 27.4751 0.611321V0.599121Z" fill="#E8DCAC"/>
<path d="M39.8523 6.69059C39.8998 6.68379 39.9462 6.67599 39.9903 6.66699C39.9462 6.67599 39.8998 6.68379 39.8523 6.69059Z" fill="#EFE2BD"/>
<path d="M39.6499 6.71389L39.7823 6.7049L39.6499 6.71389Z" fill="#EFE2BD"/>
<path d="M39.4309 6.7275L39.5678 6.7196L39.4309 6.7275Z" fill="#EFE2BD"/>
<path d="M38.3284 6.6781L38.5711 6.7016L38.3284 6.6781Z" fill="#EFE2BD"/>
<path d="M38.6003 6.7049L38.8599 6.72169L38.6003 6.7049Z" fill="#EFE2BD"/>
<path d="M40.7556 6.31791C40.7735 6.29791 40.7903 6.27681 40.8071 6.25571C40.7926 6.27681 40.7735 6.29791 40.7556 6.31791Z" fill="#EFE2BD"/>
<path d="M40.6602 6.40361C40.6817 6.38671 40.702 6.36981 40.7213 6.35181C40.702 6.36981 40.6805 6.38671 40.6602 6.40361Z" fill="#EFE2BD"/>
<path d="M37.7473 6.59309L37.9327 6.62219L37.7473 6.59309Z" fill="#EFE2BD"/>
<path d="M40.8868 6.1216C40.8714 6.1581 40.8527 6.1931 40.8311 6.2263C40.8527 6.1931 40.8714 6.1581 40.8868 6.1216Z" fill="#EFE2BD"/>
<path d="M40.0388 6.65879C40.0972 6.64649 40.1512 6.63199 40.2085 6.61639C40.1546 6.63199 40.0972 6.64649 40.0388 6.65879Z" fill="#EFE2BD"/>
<path d="M40.5466 6.4818L40.619 6.4368L40.5466 6.4818Z" fill="#EFE2BD"/>
<path d="M40.2422 6.60691C40.2829 6.59341 40.3236 6.58101 40.3621 6.56531C40.3236 6.58101 40.2829 6.59341 40.2422 6.60691Z" fill="#EFE2BD"/>
<path d="M40.4106 6.5456C40.4412 6.5321 40.4706 6.5197 40.4989 6.5051C40.4706 6.5197 40.4412 6.5321 40.4106 6.5456Z" fill="#EFE2BD"/>
<path d="M38.0442 6.6411L38.2341 6.6657L38.0442 6.6411Z" fill="#EFE2BD"/>
<path d="M36.2371 6.26939C36.3921 6.30959 36.545 6.34869 36.6955 6.38109C36.545 6.34869 36.3921 6.30959 36.2371 6.26939Z" fill="#FFF4D2"/>
<path d="M35.1245 5.9406C35.2852 5.9931 35.4425 6.0422 35.5999 6.0892C35.4425 6.0422 35.2863 5.9931 35.1245 5.9406Z" fill="#FFF4D2"/>
<path d="M35.6787 6.1125C35.8372 6.1595 35.9922 6.2031 36.1462 6.2444C35.9922 6.2031 35.8372 6.1595 35.6787 6.1125Z" fill="#FFF4D2"/>
<path d="M37.2283 6.5016C37.3721 6.5306 37.5115 6.5563 37.6486 6.5798C37.5115 6.5563 37.3721 6.5306 37.2283 6.5016Z" fill="#FFF4D2"/>
<path d="M36.7473 6.39529C36.8923 6.42879 37.0339 6.46009 37.1732 6.48919C37.0305 6.46009 36.8889 6.42879 36.7473 6.39529Z" fill="#FFF4D2"/>
<path d="M33.9941 5.543C34.1616 5.6067 34.3313 5.667 34.4931 5.7262C34.3279 5.667 34.1627 5.6067 33.9941 5.543Z" fill="#FFF4D2"/>
<path d="M33.376 5.2981C33.5528 5.3726 33.7285 5.4423 33.903 5.5071C33.7277 5.44 33.552 5.3704 33.376 5.2981Z" fill="#FFF4D2"/>
<path d="M34.5896 5.7594C34.7582 5.8187 34.9267 5.8712 35.0908 5.9304C34.9256 5.8756 34.7582 5.8187 34.5896 5.7594Z" fill="#FFF4D2"/>
<path d="M40.8074 6.258C40.7906 6.2793 40.7737 6.3005 40.7557 6.3206C40.7378 6.3407 40.7321 6.343 40.7209 6.3541C40.7097 6.3653 40.6816 6.3888 40.6602 6.4055L40.6186 6.4357L40.5467 6.4804L40.4984 6.5072C40.4703 6.5217 40.4411 6.534 40.4107 6.5475C40.3946 6.555 40.3781 6.5617 40.3613 6.5676C40.3231 6.5832 40.2826 6.5955 40.2422 6.6089L40.2085 6.619C40.1545 6.6346 40.0961 6.6491 40.0388 6.6614L39.9893 6.6693C39.9455 6.6782 39.8994 6.686 39.8522 6.6927L39.7814 6.705L39.6522 6.7195L39.569 6.7251L39.4331 6.733H39.3465H39.1072H38.9341H38.8588L38.6003 6.705H38.5711L38.3284 6.6815L38.234 6.6693L38.0441 6.6447L37.9317 6.629L37.7474 6.5933L37.6485 6.5765C37.5114 6.553 37.3721 6.5273 37.2282 6.4983L37.1698 6.486C37.0304 6.4569 36.8889 6.4256 36.7439 6.3921L36.6956 6.3809C36.545 6.3452 36.3921 6.3061 36.2371 6.2692L36.146 6.2446C35.9921 6.2033 35.837 6.1597 35.6786 6.1128L35.5999 6.0893C35.4426 6.0424 35.2852 5.9932 35.1245 5.9407L35.0908 5.9306C34.9256 5.8758 34.7537 5.8189 34.5896 5.7596L34.493 5.7261C34.3278 5.6669 34.1615 5.6065 33.994 5.5428L33.903 5.5071C33.7277 5.44 33.552 5.3704 33.376 5.2981C29.6675 3.7761 27.0267 1.67637 27.4706 0.610298C27.4707 0.606578 27.4707 0.602848 27.4706 0.599128C27.9324 -0.454652 31.2846 -0.0825325 34.9762 1.43388C38.6678 2.9503 41.3064 5.04 40.8861 6.1105V6.1217C40.8709 6.1579 40.8524 6.1927 40.831 6.2256C40.8232 6.2357 40.8142 6.2457 40.8074 6.258Z" fill="#B7AC8B"/>
<path d="M39.2016 4.5225C37.4931 3.2653 35.5723 2.32182 33.53 1.73663C33.4684 1.7134 33.4021 1.70535 33.3367 1.71316C33.3094 1.72177 33.2844 1.73624 33.2635 1.75556C33.2425 1.77487 33.226 1.79855 33.2153 1.82491C32.8681 2.43281 32.5826 3.0318 32.6017 3.7671C33.5862 3.2273 35.0898 3.2083 36.4608 3.5436C37.4418 3.7816 38.3846 4.2342 39.305 4.6912L38.5532 4.1023" fill="#D8CAA4"/>
<g style="mix-blend-mode:multiply" opacity="0.4">
<g style="mix-blend-mode:multiply" opacity="0.4">
<path d="M27.6504 45.9027L27.0829 44.5238C27.1357 44.5238 27.1874 44.5171 27.2402 44.5104C28.2246 44.3785 28.9956 43.4633 29.1091 42.4821C29.2046 41.653 28.9012 40.8059 29.0686 39.9868C29.2664 39.018 30.0654 38.3106 30.6958 37.5429C31.3262 36.7752 31.8196 35.689 31.3274 34.8308C31.1509 34.5257 30.8779 34.3 30.6059 34.0653C30.4435 33.9294 30.2931 33.7798 30.1564 33.6183C30.0958 33.5418 30.0406 33.4611 29.9912 33.377C29.163 31.9823 30.1485 29.9597 29.472 28.4165C29.2784 27.9902 28.9758 27.6219 28.5944 27.3482C28.3254 27.1486 28.0266 26.9921 27.7088 26.8844C26.948 26.6263 26.1153 26.6341 25.3265 26.7906C24.4555 26.9638 23.5284 27.3102 22.7126 26.9682C22.1968 26.7537 21.8237 26.2978 21.3562 25.996C20.8566 25.6871 20.2694 25.5484 19.6834 25.6008C19.0975 25.6532 18.5446 25.8939 18.1085 26.2866C17.7804 26.5961 17.5309 26.9917 17.1623 27.2521C16.0531 28.0343 15.2013 26.7906 14.1214 27.0442C13.3864 27.2174 13.0167 28.0567 12.9774 28.8054C12.9381 29.5541 13.119 30.314 12.9774 31.0526C12.7594 32.2371 11.8705 32.8719 11.0951 33.6854C10.4635 34.3469 9.94996 35.242 10.132 36.1371C10.3871 37.392 11.9132 38.2134 11.8705 39.4895C11.857 39.8862 11.6862 40.2606 11.5985 40.6484C11.5573 40.8274 11.5452 41.0119 11.5626 41.1948C11.576 41.41 11.6684 41.6128 11.8222 41.7647C12.2503 42.1614 12.9583 41.9256 13.5078 42.1324L13.5235 42.1391C13.8456 42.282 14.0986 42.5448 14.2281 42.871L13.2325 45.2892L7.56982 59.0722L13.373 56.5366L15.725 62.3911L20.319 51.2286L22.8317 57.3356L24.9118 62.3911L27.2638 56.5366L33.0681 59.0722L27.6504 45.9027ZM23.6048 51.118C23.7292 50.4766 23.8674 49.8381 24.0195 49.2026C23.8667 49.8388 23.7266 50.4773 23.5992 51.118H23.6048ZM24.2409 48.3187C24.4874 47.3659 24.7657 46.4201 25.0759 45.4814C24.7657 46.4194 24.4866 47.3651 24.2386 48.3187H24.2409ZM25.3647 44.6456L25.4827 44.3103C25.4433 44.4221 25.3973 44.5338 25.3624 44.6456H25.3647Z" fill="#606060"/>
</g>
</g>
<path d="M21.2674 32.6049L13.1111 35.9226L21.5034 56.321C21.7808 51.1927 22.9239 46.1473 24.8848 41.396L21.2674 32.6049Z" fill="#1C657C"/>
<path d="M24.8847 41.3938C24.4681 42.404 24.0894 43.4269 23.7485 44.4624C24.6004 44.5987 25.4623 44.7977 26.3208 44.8848L24.8847 41.3938Z" fill="#1C657C"/>
<path d="M26.3208 44.8848C25.4623 44.7988 24.6003 44.5987 23.7485 44.4624C22.4754 48.2983 21.7196 52.2852 21.501 56.3188L23.5811 61.3732L25.9331 55.5187L31.7374 58.0543L26.3208 44.8848Z" fill="#3B91BC"/>
<path d="M11.912 44.2803L6.24146 58.0543L12.0457 55.5188L14.3966 61.3732L21.3887 44.3876C19.5435 44.6792 18.2084 46.5052 16.4273 47.15C14.1045 47.7221 12.5008 46.2772 11.912 44.2803Z" fill="#3B91BC"/>
<path d="M16.714 32.6049L11.9121 44.2802C12.5043 46.2772 14.1079 47.7221 16.4308 47.1455C18.2119 46.5007 19.547 44.6747 21.3922 44.3831L24.8759 35.9226L16.714 32.6049Z" fill="#1C657C"/>
<path d="M28.0942 31.8136C28.2649 32.0129 28.4529 32.1969 28.6561 32.3634C27.8279 30.9688 28.8134 28.9462 28.1381 27.4029C27.9437 26.9768 27.6407 26.6086 27.2593 26.3346C27.3131 26.424 27.3615 26.5166 27.4042 26.6118C28.1279 28.2477 26.9783 30.419 28.0942 31.8136Z" fill="#872E2E"/>
<path d="M29.3652 36.5251C29.9945 35.7607 30.4889 34.6712 29.9967 33.813C29.8214 33.5079 29.5472 33.2822 29.2753 33.0475C29.7461 33.9024 29.255 34.9774 28.6314 35.7295C28.0077 36.4815 27.203 37.2123 27.0041 38.179C26.8378 38.9969 27.1401 39.8451 27.0446 40.6743C26.9322 41.6543 26.1602 42.574 25.1758 42.7014C24.6263 42.7751 24.0756 42.6153 23.5295 42.517C22.0035 42.2467 20.4308 42.4532 19.0276 43.1081C17.9589 43.6099 17.0049 44.3664 15.8811 44.7117C15.0877 44.9542 14.1359 44.914 13.447 44.5083C13.4594 44.5329 13.4684 44.5586 13.4807 44.5821C14.0325 45.6225 15.4844 45.8482 16.6149 45.5029C17.7454 45.1576 18.6984 44.4011 19.7615 43.8982C21.1647 43.2436 22.7374 43.0375 24.2633 43.3082C24.8094 43.4065 25.3601 43.5663 25.9096 43.4926C26.894 43.3607 27.6649 42.4455 27.7784 41.4643C27.8739 40.6352 27.5716 39.7881 27.738 38.969C27.9357 38.0002 28.7359 37.2906 29.3652 36.5251Z" fill="#872E2E"/>
<path d="M28.6315 35.735C29.2552 34.9774 29.7463 33.9024 29.2754 33.0531C29.1124 32.9178 28.962 32.7682 28.8259 32.6061C28.7649 32.5296 28.7094 32.4489 28.6596 32.3647C28.4564 32.1982 28.2684 32.0143 28.0977 31.8149C26.974 30.4203 28.1292 28.2491 27.4134 26.6131C27.3707 26.5179 27.3222 26.4254 27.2684 26.3359C26.9994 26.1363 26.7006 25.9798 26.3829 25.8722C25.6221 25.6152 24.7894 25.6219 24.0016 25.7783C23.1296 25.9515 22.2036 26.2979 21.3866 25.9571C20.8708 25.7414 20.4988 25.2866 20.0302 24.9838C19.5306 24.6749 18.9434 24.5361 18.3575 24.5886C17.7715 24.641 17.2187 24.8817 16.7825 25.2743C16.4544 25.585 16.206 25.9795 15.8363 26.241C14.7283 27.0232 13.8765 25.7783 12.7954 26.032C12.0605 26.2052 11.6907 27.0444 11.6525 27.7931C11.6143 28.5418 11.793 29.3017 11.6525 30.0404C11.4345 31.2249 10.5456 31.8596 9.77023 32.6731C9.13868 33.3358 8.62512 34.2298 8.80717 35.1249C9.06226 36.3798 10.5883 37.2012 10.5456 38.4773C10.5321 38.874 10.3613 39.2484 10.2737 39.6361C10.2325 39.8152 10.2204 39.9997 10.2377 40.1826C10.2512 40.3977 10.3435 40.6005 10.4973 40.7525C10.9255 41.1492 11.6334 40.9145 12.183 41.1201L12.1987 41.1268C12.792 41.3604 13.0539 42.0599 13.1303 42.6913C13.2022 43.3026 13.1786 43.9496 13.4405 44.5027C14.1293 44.9084 15.0812 44.9497 15.8745 44.7061C17.005 44.3608 17.958 43.6043 19.0211 43.1025C20.4242 42.4477 21.9969 42.2411 23.5229 42.5114C24.069 42.6097 24.6197 42.7695 25.1692 42.6958C26.1536 42.565 26.9245 41.6487 27.038 40.6687C27.1335 39.8395 26.8312 38.9925 26.9976 38.1734C27.2032 37.2123 28.0022 36.4994 28.6315 35.735Z" fill="#A84343"/>
<path d="M21.41 40.4135C24.5608 39.1157 26.0571 35.5237 24.752 32.3905C23.4469 29.2574 19.8346 27.7695 16.6838 29.0673C13.533 30.3651 12.0368 33.9571 13.3419 37.0903C14.647 40.2234 18.2592 41.7113 21.41 40.4135Z" fill="#A84343"/>
<path d="M24.2881 29.518L23.407 30.3952C23.9853 30.9643 24.4448 31.6415 24.759 32.3878C25.0733 33.134 25.2362 33.9347 25.2383 34.7437C25.2404 35.5528 25.0817 36.3543 24.7713 37.1021C24.4609 37.85 24.0049 38.5295 23.4296 39.1016C22.8543 39.6737 22.171 40.1271 21.4189 40.4357C20.6668 40.7444 19.8608 40.9022 19.0472 40.9001C18.2336 40.898 17.4285 40.736 16.678 40.4235C15.9275 40.111 15.2466 39.6541 14.6742 39.0791L13.7932 39.9552C15.1849 41.3391 17.0725 42.1166 19.0406 42.1166C21.0088 42.1166 22.8964 41.3391 24.2881 39.9552C25.6798 38.5713 26.4616 36.6943 26.4616 34.7372C26.4616 32.78 25.6798 30.903 24.2881 29.5191V29.518Z" fill="#872E2E"/>
<path d="M12.8706 34.7415C12.8708 33.5277 13.2328 32.3413 13.9108 31.332C14.5888 30.3227 15.5523 29.5358 16.6798 29.0708C17.8072 28.6057 19.048 28.4834 20.2454 28.7192C21.4427 28.955 22.5429 29.5384 23.407 30.3956L24.288 29.5195C22.8963 28.1356 21.0088 27.3582 19.0406 27.3582C17.0724 27.3582 15.1849 28.1356 13.7932 29.5195C12.4015 30.9035 11.6196 32.7804 11.6196 34.7376C11.6196 36.6948 12.4015 38.5717 13.7932 39.9557L14.6742 39.0796C14.1013 38.5101 13.647 37.8337 13.3375 37.0893C13.028 36.3449 12.8693 35.547 12.8706 34.7415Z" fill="#6B1F1F"/>
<path d="M9.55211 34.7537C9.58142 34.9635 9.65453 35.1648 9.76675 35.3448C9.94093 35.6354 10.2163 35.898 10.5534 35.9259C10.5704 35.9291 10.5879 35.9287 10.6048 35.9246C10.6217 35.9206 10.6375 35.913 10.6511 35.9025C10.6693 35.8805 10.6789 35.8527 10.6781 35.8242C10.6972 35.5929 10.6096 35.3694 10.5534 35.1437C10.4603 34.766 10.4565 34.3721 10.5421 33.9927C10.5893 33.7826 10.8467 33.2831 10.5152 33.2105C9.89598 33.0685 9.50379 34.3592 9.55211 34.7537Z" fill="#C66D6D"/>
<path d="M13.7269 43.1516C13.7501 43.293 13.7984 43.4293 13.8696 43.5539C14.0539 43.84 14.4315 43.9316 14.7776 43.9215C15.2519 43.9062 15.7097 43.7449 16.0879 43.46C16.1774 43.4014 16.2498 43.3205 16.2981 43.2254C16.3216 43.1777 16.33 43.1239 16.3219 43.0714C16.3139 43.0189 16.2899 42.97 16.2531 42.9315C16.2075 42.8956 16.1533 42.8721 16.0958 42.8633C15.6519 42.7739 15.1541 42.9929 14.7563 42.7772C14.4776 42.6253 14.3438 42.3068 14.1427 42.0621C13.9663 41.8475 13.6213 41.7771 13.5505 42.1123C13.4853 42.404 13.664 42.8655 13.7269 43.1516Z" fill="#C66D6D"/>
<path d="M11.548 39.9701C11.6265 39.9949 11.7102 39.9988 11.7907 39.9813C11.8306 39.9714 11.8666 39.9498 11.8941 39.9193C11.9215 39.8888 11.9391 39.8509 11.9446 39.8103C11.9446 39.7075 11.857 39.6304 11.7986 39.5455C11.6277 39.2952 11.9109 39.0873 11.8087 38.875C11.7233 38.694 11.5569 38.7878 11.4389 38.8839C11.0434 39.2069 10.9771 39.8204 11.548 39.9701Z" fill="#C66D6D"/>
<path d="M24.7297 26.4105C25.3703 26.387 26.0502 26.5748 26.4761 27.0497C26.5555 27.128 26.6186 27.2211 26.6618 27.3237C26.705 27.4263 26.7274 27.5363 26.7278 27.6476C26.7132 27.8711 26.5266 28.0867 26.303 28.0733C26.0794 28.0599 25.9355 27.8498 25.7737 27.699C25.4907 27.4611 25.1379 27.3207 24.768 27.2989C24.4061 27.2631 23.3453 27.5358 23.2981 26.9882C23.2509 26.4407 24.3735 26.4239 24.7297 26.4105Z" fill="#C66D6D"/>
<path d="M12.6255 27.0172C12.3682 27.3033 12.2884 27.7078 12.2884 28.0922C12.2864 28.392 12.3242 28.6907 12.4008 28.9806C12.4233 29.0655 12.4783 29.1706 12.566 29.156C12.6009 29.1463 12.6317 29.1255 12.6536 29.0968C12.8346 28.8968 12.8649 28.6096 12.975 28.3649C13.041 28.2193 13.1354 28.0881 13.2527 27.979C13.37 27.8698 13.5078 27.7849 13.6583 27.729C13.8336 27.6653 14.0898 27.6106 14.119 27.3938C14.1415 27.225 13.946 26.968 13.8167 26.8663C13.4852 26.5959 12.8964 26.7155 12.6255 27.0172Z" fill="#C66D6D"/>
<path d="M24.4768 41.3235C24.4312 41.3373 24.3891 41.3605 24.3532 41.3917C24.3225 41.4277 24.3047 41.4728 24.3027 41.5199C24.3007 41.5671 24.3145 41.6136 24.342 41.652C24.3975 41.7274 24.4765 41.7823 24.5667 41.8085C24.9297 41.9314 25.3365 41.8085 25.6624 41.6085C25.9904 41.4215 26.2373 41.1206 26.3558 40.7637C26.5018 40.2418 26.1726 39.749 25.713 40.2429C25.3163 40.6765 25.0601 41.0888 24.4768 41.3235Z" fill="#C66D6D"/>
<path d="M17.1487 37.9407L17.478 36.0343C17.4897 35.9637 17.4842 35.8913 17.4619 35.8232C17.4396 35.7552 17.4012 35.6934 17.3499 35.6432L15.9575 34.2933C15.9002 34.235 15.86 34.1621 15.8413 34.0827C15.8226 34.0033 15.8261 33.9203 15.8514 33.8427C15.8768 33.7651 15.923 33.6959 15.9851 33.6425C16.0472 33.5892 16.1228 33.5538 16.2036 33.5401L18.1275 33.2619C18.1991 33.2516 18.2671 33.2243 18.3258 33.1822C18.3845 33.1402 18.4321 33.0847 18.4647 33.0205L19.3288 31.2895C19.3472 31.2535 19.3702 31.2201 19.3974 31.1901L19.385 31.1666C19.347 31.0942 19.2898 31.0336 19.2195 30.9913C19.1493 30.949 19.0688 30.9267 18.9866 30.9267C18.9045 30.9267 18.824 30.949 18.7538 30.9913C18.6835 31.0336 18.6263 31.0942 18.5883 31.1666L17.7275 32.9009C17.6949 32.9652 17.6473 33.0206 17.5886 33.0627C17.5299 33.1047 17.4619 33.132 17.3903 33.1423L15.4631 33.4127C15.3822 33.4264 15.3066 33.4618 15.2445 33.5151C15.1824 33.5685 15.1362 33.6377 15.1109 33.7153C15.0855 33.7929 15.082 33.8759 15.1007 33.9553C15.1194 34.0347 15.1596 34.1076 15.217 34.1659L16.6093 35.5158C16.6606 35.566 16.699 35.6278 16.7213 35.6958C16.7436 35.7639 16.7491 35.8363 16.7374 35.9069L16.407 37.8178C16.3949 37.8987 16.4053 37.9813 16.4371 38.0567C16.4689 38.132 16.5209 38.1973 16.5874 38.2453C16.654 38.2934 16.7324 38.3224 16.8144 38.3292C16.8963 38.3359 16.9785 38.3203 17.0521 38.2838L17.1937 38.2179C17.1483 38.133 17.1325 38.0355 17.1487 37.9407Z" fill="#6B1F1F"/>
<path d="M22.7462 34.1706C22.7971 34.119 22.8347 34.0559 22.8557 33.9867C22.8767 33.9175 22.8805 33.8443 22.8668 33.7733C22.8531 33.7024 22.8223 33.6358 22.777 33.5792C22.7317 33.5227 22.6734 33.4779 22.6069 33.4487C22.5727 33.4341 22.5368 33.4236 22.5001 33.4174L21.2044 33.2297L20.5751 33.1392C20.5035 33.1289 20.4355 33.1015 20.3768 33.0595C20.3181 33.0175 20.2705 32.962 20.238 32.8978L19.3895 31.1869C19.3624 31.2169 19.3393 31.2504 19.321 31.2864L18.4602 33.0207C18.4277 33.0849 18.38 33.1404 18.3213 33.1824C18.2627 33.2245 18.1946 33.2518 18.1231 33.2621L16.1992 33.5403C16.1183 33.554 16.0427 33.5894 15.9806 33.6427C15.9185 33.6961 15.8723 33.7653 15.847 33.8429C15.8216 33.9205 15.8181 34.0035 15.8368 34.0829C15.8555 34.1623 15.8957 34.2352 15.9531 34.2935L17.3499 35.6479C17.4012 35.6981 17.4396 35.7599 17.4619 35.8279C17.4842 35.896 17.4897 35.9684 17.478 36.039L17.1488 37.9454C17.1335 38.0387 17.1493 38.1345 17.1937 38.2181L18.7793 37.3889C18.8432 37.356 18.9141 37.3388 18.9861 37.3388C19.0581 37.3388 19.129 37.356 19.1929 37.3889L19.4738 37.5364L20.9145 38.2896C20.988 38.3258 21.0701 38.3412 21.1519 38.3343C21.2336 38.3274 21.3119 38.2983 21.3782 38.2503C21.4446 38.2023 21.4964 38.1372 21.5282 38.062C21.5599 37.9867 21.5704 37.9043 21.5584 37.8236L21.2303 35.9172C21.2184 35.8467 21.2238 35.7743 21.2459 35.7063C21.268 35.6382 21.3062 35.5764 21.3573 35.5261L22.7462 34.1706Z" fill="#872E2E"/>
<path d="M14.7899 31.5486C14.7643 31.5891 14.7489 31.635 14.7448 31.6826C14.7407 31.7303 14.748 31.7782 14.7663 31.8224C14.8 31.8617 14.8446 31.8903 14.8946 31.9046C14.9445 31.9189 14.9976 31.9183 15.0472 31.9028C15.4135 31.8358 15.6833 31.524 16.0271 31.3798C16.2159 31.3016 16.4306 31.2681 16.589 31.1418C16.667 31.0706 16.7295 30.9843 16.7728 30.8882C16.816 30.7922 16.8392 30.6883 16.8407 30.5831C16.8576 30.2914 16.6497 30.1774 16.3991 30.0947C16.1485 30.0121 16.0204 30.0892 15.8159 30.2467C15.3721 30.5908 15.0198 31.0378 14.7899 31.5486Z" fill="#C66D6D"/>
</svg>
