<svg width="42" height="42" viewBox="0 0 42 42" fill="none" xmlns="http://www.w3.org/2000/svg">
<path d="M14.5117 15.0691H17.7235V31.8093H24.3895V8.94922H14.5117V15.0691ZM15.7237 10.1732H23.1775V30.5854H18.9355V13.8451H15.7237V10.1732Z" fill="#6B1F1F"/>
<path d="M20.6645 41.7375C9.27177 41.7375 0 32.3753 0 20.8687C0 9.36216 9.26935 0 20.6645 0C32.0597 0 41.3291 9.36094 41.3291 20.8687C41.3291 32.3765 32.0585 41.7375 20.6645 41.7375ZM20.6645 1.22397C9.93837 1.22397 1.212 10.0366 1.212 20.8687C1.212 31.7009 9.93837 40.5135 20.6645 40.5135C31.3907 40.5135 40.1171 31.7009 40.1171 20.8687C40.1171 10.0366 31.3907 1.22397 20.6645 1.22397Z" fill="#6B1F1F"/>
<path d="M29.185 36.5883C28.8722 36.5881 28.5602 36.5548 28.2542 36.4892C26.4677 36.1037 25.1842 34.6875 25.1345 33.0462C25.0994 31.9079 25.6193 30.6411 26.0689 29.5224C26.2568 29.0609 26.4325 28.624 26.5622 28.2274C27.0836 26.6062 27.2129 24.8825 26.9392 23.2005L26.618 21.2422L27.8009 22.8248C28.7765 24.1308 29.7461 25.5175 30.2249 27.0879C31.3629 25.4269 33.3761 24.3707 35.0862 24.1332L36.2327 23.9753L35.5395 24.9117C34.8269 25.8739 34.249 26.9308 33.8221 28.0524C34.731 27.8462 35.681 27.9318 36.5394 28.2972L37.5987 28.7525L36.537 29.1992C35.1589 29.7794 34.5408 31.1294 33.8863 32.5578C33.4415 33.5296 32.9822 34.5333 32.2586 35.2983L31.9083 34.9605L32.2586 35.2983C31.8584 35.7109 31.38 36.0377 30.8519 36.2594C30.3238 36.4811 29.7569 36.5929 29.185 36.5883ZM28.0433 24.8492C28.0536 26.0989 27.8645 27.342 27.4834 28.5309C27.344 28.9618 27.1597 29.4146 26.9646 29.8944C26.5477 30.9214 26.0738 32.0866 26.1029 33.0156C26.1453 34.4048 27.3537 35.2934 28.4566 35.5308C29.5862 35.7756 30.803 35.417 31.5593 34.6178C32.1726 33.9715 32.5786 33.0829 33.0137 32.1429C33.5518 30.9666 34.1045 29.7598 35.1104 28.9324C34.475 28.8769 33.8368 28.9993 33.2658 29.2861L32.261 29.7953L32.5846 28.7072C32.9294 27.5437 33.4224 26.4304 34.0512 25.3951C32.5362 25.9349 31.0321 27.1001 30.4927 28.7133L29.7595 30.9079L29.551 28.6019C29.4238 27.2543 28.8105 26.0145 28.0433 24.8492Z" fill="#6B1F1F"/>
<path d="M18.5144 40.5736C19.123 40.6879 19.7448 40.7118 20.3602 40.6446C20.9968 40.5817 21.6262 40.4588 22.24 40.2774C22.8559 40.1005 23.4521 39.8602 24.0193 39.5602C24.2989 39.4125 24.5661 39.2418 24.818 39.0498C25.0664 38.8515 25.327 38.641 25.567 38.4219C26.5513 37.5456 27.4034 36.5288 28.0964 35.4036C28.7881 34.2626 29.3269 33.034 29.6987 31.75C29.411 33.0706 28.9504 34.3466 28.3291 35.5443C27.6926 36.7453 26.8867 37.8466 25.9366 38.8135C25.8154 38.9359 25.6942 39.0583 25.573 39.1734C25.4518 39.2884 25.3306 39.4072 25.1949 39.5222C24.9289 39.749 24.6452 39.9537 24.3465 40.1342C23.7525 40.4938 23.1229 40.7895 22.4679 41.0167C21.8163 41.2427 21.1451 41.4066 20.4633 41.5063C19.7606 41.6203 19.045 41.629 18.3398 41.532L18.5144 40.5736Z" fill="#6B1F1F"/>
<path d="M19.6541 40.1224C19.4929 40.1224 19.339 40.1224 19.196 40.1089C17.7022 40.0306 16.2766 39.4532 15.1431 38.4676C12.9675 36.53 12.2743 33.0821 13.5287 30.4371L14.0135 29.4102L14.4147 30.475C15.0558 32.1714 17.1671 32.8924 18.9197 32.7259C19.1099 32.7075 19.299 32.6818 19.499 32.6549C19.9326 32.5845 20.3712 32.5509 20.8104 32.5545C22.1048 32.5998 23.444 33.3746 24.2222 34.5288C24.8584 35.4749 25.0184 36.5361 24.673 37.519C23.9482 39.585 21.3618 40.1224 19.6541 40.1224ZM14.0596 31.7994C13.5117 33.8862 14.1723 36.2926 15.7842 37.7283C16.7555 38.5699 17.976 39.062 19.2542 39.1273C20.5498 39.2044 23.158 38.9021 23.7628 37.1861C24.0694 36.3134 23.7483 35.5569 23.4234 35.0747C22.8235 34.1837 21.7606 33.5619 20.7813 33.5288C20.3964 33.5271 20.0121 33.5578 19.6323 33.6206C19.4311 33.6476 19.2227 33.6757 19.013 33.6953C17.2568 33.8666 15.1746 33.2559 14.0596 31.8042V31.7994Z" fill="#6B1F1F"/>
<path d="M13.8947 13.3968L12.5737 12.6061C11.5519 11.9941 10.5702 11.3724 9.79697 10.4642C9.37712 9.97602 9.06697 9.4018 8.88787 8.78102C8.70877 8.16025 8.66498 7.50765 8.75951 6.86815C8.85081 6.24584 9.0761 5.65132 9.41952 5.12645C9.76294 4.60158 10.2161 4.15912 10.7472 3.83025C11.2931 3.47251 11.9433 3.31278 12.591 3.37727C13.2387 3.44177 13.8454 3.72666 14.3117 4.1852C14.9552 4.85105 15.3406 6.02851 14.4874 7.33326C14.3468 7.54745 14.1989 7.75431 14.0547 7.95504C13.7372 8.39934 13.4366 8.81794 13.239 9.2806C13.0605 9.70721 12.9704 10.1662 12.9744 10.6294C12.9783 11.0925 13.0762 11.5499 13.2621 11.9733L13.8947 13.3968ZM10.5314 9.82527C10.972 10.3227 11.4776 10.7571 12.0343 11.1166C11.9458 10.3618 12.0544 9.59674 12.3494 8.8975C12.6 8.36133 12.9085 7.8548 13.2693 7.38712C13.4136 7.18516 13.5493 6.99544 13.6778 6.79838C14.1396 6.09215 14.1177 5.39082 13.6184 4.8743C13.3075 4.57446 12.9049 4.39038 12.4767 4.35234C12.0485 4.3143 11.6202 4.42456 11.2623 4.665C10.8502 4.9198 10.4984 5.26269 10.2316 5.66954C9.96487 6.07639 9.78962 6.53732 9.71819 7.01992C9.64547 7.51909 9.6805 8.02824 9.82087 8.51246C9.96124 8.99668 10.2036 9.44451 10.5314 9.82527Z" fill="#6B1F1F"/>
<path d="M28.8396 11.2339L27.9209 10.1249C27.0095 9.02337 25.5454 8.64761 24.4764 8.52031C23.6359 8.43908 22.791 8.41169 21.947 8.43831C21.3968 8.43831 20.8283 8.44933 20.2635 8.42607C19.2685 8.38445 17.8274 8.22044 16.8094 7.29145C16.5074 7.00683 16.2677 6.66166 16.1056 6.27806C15.9434 5.89446 15.8624 5.48088 15.8676 5.06382C15.8607 4.67226 15.9347 4.28355 16.085 3.92253C16.2352 3.5615 16.4584 3.23611 16.7403 2.96715C18.9619 0.928015 23.2111 1.9329 25.2994 3.40656C26.3158 4.13884 27.1561 5.09265 27.758 6.19735C28.3599 7.30205 28.7081 8.52935 28.7766 9.78835L28.8396 11.2339ZM22.6585 7.45546C23.3024 7.44834 23.9463 7.479 24.5867 7.54726C25.4909 7.65497 26.6471 7.92669 27.6349 8.58151C27.2302 6.81692 26.2014 5.26225 24.7419 4.20948C22.9166 2.92186 19.1461 2.081 17.3899 3.69174C17.2082 3.86879 17.065 4.08211 16.9694 4.31814C16.8738 4.55416 16.828 4.80769 16.8348 5.06259C16.8307 5.34263 16.8838 5.62052 16.9908 5.87891C17.0977 6.13731 17.2563 6.37066 17.4566 6.56441C18.2431 7.28165 19.4564 7.41262 20.3011 7.44812C20.8405 7.47015 21.3919 7.46525 21.9349 7.45913C22.1749 7.45791 22.4161 7.45546 22.6597 7.45546H22.6585Z" fill="#6B1F1F"/>
<path d="M31.0327 24.8959C30.6971 24.8959 30.3691 24.7954 30.09 24.6071C29.811 24.4188 29.5935 24.1512 29.4651 23.8381C29.3367 23.525 29.3031 23.1804 29.3685 22.848C29.434 22.5156 29.5956 22.2103 29.8329 21.9706C30.0702 21.731 30.3726 21.5678 30.7017 21.5017C31.0309 21.4356 31.372 21.4695 31.6821 21.5992C31.9921 21.7289 32.2571 21.9485 32.4436 22.2303C32.63 22.5121 32.7295 22.8434 32.7295 23.1823C32.7295 23.6368 32.5508 24.0726 32.2326 24.394C31.9143 24.7153 31.4828 24.8959 31.0327 24.8959ZM31.0327 22.4479C30.8889 22.4479 30.7483 22.491 30.6287 22.5717C30.5091 22.6524 30.4159 22.7671 30.3609 22.9013C30.3059 23.0355 30.2915 23.1831 30.3195 23.3256C30.3476 23.468 30.4168 23.5989 30.5185 23.7016C30.6202 23.8043 30.7498 23.8742 30.8909 23.9026C31.0319 23.9309 31.1781 23.9164 31.311 23.8608C31.4439 23.8052 31.5575 23.7111 31.6374 23.5903C31.7173 23.4695 31.7599 23.3276 31.7599 23.1823C31.7599 22.9875 31.6833 22.8007 31.5469 22.663C31.4106 22.5253 31.2256 22.4479 31.0327 22.4479Z" fill="#6B1F1F"/>
<path d="M37.0913 28.0795C36.7557 28.0795 36.4277 27.979 36.1486 27.7907C35.8696 27.6024 35.6521 27.3348 35.5237 27.0217C35.3953 26.7085 35.3617 26.364 35.4271 26.0316C35.4926 25.6992 35.6542 25.3939 35.8915 25.1542C36.1288 24.9146 36.4311 24.7514 36.7603 24.6853C37.0894 24.6192 37.4306 24.6531 37.7406 24.7828C38.0507 24.9125 38.3157 25.1321 38.5021 25.4139C38.6886 25.6957 38.7881 26.027 38.7881 26.3659C38.7881 26.8204 38.6093 27.2562 38.2911 27.5776C37.9729 27.8989 37.5413 28.0795 37.0913 28.0795ZM37.0913 25.6315C36.9475 25.6315 36.8069 25.6746 36.6873 25.7553C36.5677 25.836 36.4745 25.9507 36.4195 26.0849C36.3644 26.2191 36.35 26.3667 36.3781 26.5092C36.4062 26.6516 36.4754 26.7825 36.5771 26.8852C36.6788 26.9879 36.8084 27.0578 36.9494 27.0862C37.0905 27.1145 37.2367 27.1 37.3696 27.0444C37.5025 26.9888 37.616 26.8947 37.696 26.7739C37.7759 26.6531 37.8185 26.5112 37.8185 26.3659C37.8185 26.1711 37.7419 25.9843 37.6055 25.8466C37.4691 25.7089 37.2842 25.6315 37.0913 25.6315Z" fill="#6B1F1F"/>
<path d="M12.0111 37.5625L10.5943 36.6801C8.00897 35.0639 5.84292 32.8479 4.27618 30.2163C3.60474 29.0841 1.5407 25.2445 3.20235 23.3767C4.63978 21.7611 7.80794 22.2139 9.26234 23.2237C10.8488 24.3192 11.8197 26.3081 11.799 28.4133C11.7881 29.4341 11.5566 30.4207 11.3385 31.3741C11.2585 31.7242 11.1749 32.0853 11.1046 32.4365C10.7943 33.9996 10.8513 35.1464 11.2839 36.0497L12.0111 37.5625ZM5.10276 29.712C6.35968 31.821 8.02458 33.6526 9.99802 35.0975C9.8441 34.0522 9.99802 33.0167 10.1507 32.2395C10.2235 31.8723 10.3083 31.5051 10.3931 31.1465C10.6125 30.2028 10.8185 29.3105 10.8282 28.3987C10.8464 26.6153 10.0356 24.9397 8.7133 24.0266C7.5413 23.2176 4.92824 22.8945 3.92107 24.0266C2.88481 25.1906 4.17801 28.1453 5.10519 29.7071L5.10276 29.712Z" fill="#6B1F1F"/>
<path d="M6.44474 21.8941C5.60013 21.9021 4.76283 21.7355 3.98439 21.4045C2.89359 20.9223 2.18821 20.1328 1.93126 19.1255C1.23194 16.3862 3.09478 12.6629 3.92863 11.1892C4.77747 9.67864 5.86619 8.31907 7.15133 7.16481L8.48453 5.97266L7.93549 7.68622C7.38404 9.39978 8.36212 11.2357 9.4105 12.9738C10.5231 14.8171 11.6503 16.9627 10.9291 19.0875C10.6013 20.0396 9.93122 20.8324 9.05174 21.309C8.32333 21.697 7.3901 21.8941 6.44474 21.8941ZM6.80834 8.86735C6.02502 9.7207 5.34179 10.6624 4.77218 11.6739C3.99772 13.0448 2.26093 16.489 2.87056 18.8807C3.09841 19.7742 3.81592 20.2589 4.37707 20.5086C5.6533 21.0765 7.46888 21.0471 8.59846 20.44C9.26088 20.0807 9.76533 19.4831 10.0116 18.7656C10.597 17.0423 9.58139 15.1341 8.5827 13.4805C7.72824 12.068 6.8653 10.4793 6.80955 8.86735H6.80834Z" fill="#6B1F1F"/>
<path d="M16.8932 30.5871L15.6654 29.865C12.7142 28.1282 10.9447 24.6533 11.2635 21.2188C11.3847 19.9129 11.7858 18.8713 12.4561 18.121C13.2657 17.2152 14.4631 16.8138 15.5067 17.0977C16.4326 17.3511 17.0883 18.094 17.3053 19.1369C17.4895 20.0267 17.3441 20.9361 17.195 21.6276C17.0592 22.2629 16.8835 22.892 16.7102 23.5003C16.5223 24.1698 16.3284 24.8614 16.1939 25.5456C15.9006 27.0413 15.9515 28.2554 16.3551 29.2579L16.8932 30.5871ZM13.1736 18.777C12.6451 19.367 12.3252 20.2189 12.2258 21.3106C11.9834 23.8932 13.1384 26.5921 15.1031 28.2701C14.9886 27.2955 15.0365 26.3084 15.2449 25.3497C15.3867 24.6276 15.5855 23.9165 15.7782 23.2286C15.9442 22.635 16.1151 22.0218 16.2448 21.4159C16.3805 20.7819 16.5005 20.0389 16.3539 19.3351C16.2121 18.6558 15.8206 18.1968 15.2522 18.0414C14.5565 17.8517 13.7408 18.1393 13.1736 18.7758V18.777Z" fill="#6B1F1F"/>
<path d="M34.5382 17.81C33.256 17.81 32.0294 16.9985 31.3664 16.0169C30.4829 14.7085 30.4393 13.3376 30.3968 12.0108C30.3835 11.6118 30.3714 11.1993 30.335 10.7869C30.1823 9.05248 29.5036 7.0415 28.3183 4.8102L27.6602 3.57031L28.9388 4.12967C31.8594 5.40615 34.3731 7.47437 36.2011 10.1051C37.1804 11.5151 37.6628 12.7268 37.7197 13.9202C37.7973 15.5432 36.9477 17.0487 35.6593 17.5823C35.3041 17.7321 34.9231 17.8095 34.5382 17.81ZM29.8211 5.65474C30.6695 7.49069 31.1677 9.18957 31.3022 10.7061C31.341 11.1406 31.3543 11.5628 31.3664 11.9802C31.4077 13.274 31.4428 14.3927 32.1676 15.4649C32.8172 16.4281 34.1637 17.1466 35.2885 16.6827C36.315 16.2592 36.8023 14.9998 36.7526 13.9741C36.7053 12.9741 36.2775 11.9251 35.4085 10.6693C33.9567 8.58252 32.0437 6.86567 29.8211 5.65474Z" fill="#6B1F1F"/>
<path d="M31.7917 20.9028L30.3858 20.5356C29.1059 20.1978 27.5134 19.7768 26.4044 18.6605C25.9808 18.2264 25.6365 17.72 25.3875 17.1648C24.7694 15.8184 24.2592 12.7585 25.8105 11.4366C26.2553 11.0572 26.8395 10.9213 27.5073 11.0437C28.4951 11.2273 29.5847 11.9935 30.0416 12.827C30.6731 13.9788 30.5385 15.335 30.4198 16.5308L30.4076 16.6532C30.2937 17.8025 30.2743 18.9787 30.8924 19.7633L31.7917 20.9028ZM26.2662 16.7413C26.4677 17.1921 26.7463 17.6036 27.0892 17.9567C27.7534 18.6262 28.6648 19.0044 29.575 19.2847C29.312 18.4279 29.3447 17.4757 29.4368 16.5406L29.4489 16.4182C29.5592 15.3166 29.672 14.171 29.1872 13.2872C28.9072 12.7768 28.0964 12.1343 27.3267 11.9923C26.9547 11.9237 26.6553 11.9837 26.4371 12.1698C25.4421 13.0265 25.6712 15.4427 26.2662 16.7364V16.7413Z" fill="#6B1F1F"/>
<path d="M5.8176 12.8633C5.91214 14.4544 5.90487 16.0321 5.93153 17.6025C5.95819 19.1729 5.99213 20.7334 6.11091 22.2842C6.22381 23.8316 6.44004 25.3696 6.75811 26.8876C7.08387 28.4194 7.54381 29.919 8.13252 31.3685C7.1811 30.0956 6.50238 28.6158 6.02122 27.0846C5.55282 25.5476 5.25884 23.9617 5.14494 22.3576C5.03198 20.7657 5.04089 19.1673 5.17161 17.5768C5.29648 15.9943 5.51217 14.4205 5.8176 12.8633Z" fill="#6B1F1F"/>
<path d="M13.9741 21.7621C13.6858 20.7806 13.657 19.74 13.8905 18.7438C14.0063 18.2376 14.1907 17.7499 14.4383 17.2946C14.5703 17.0536 14.7439 16.8385 14.951 16.6593C15.1772 16.4719 15.4502 16.3511 15.74 16.3105C16.025 16.2783 16.3136 16.3033 16.589 16.3842C16.8644 16.4651 17.1212 16.6002 17.3447 16.7817C17.7747 17.1454 18.1017 17.6175 18.2925 18.1501C18.4741 18.6501 18.6037 19.1677 18.6791 19.6948C18.7616 20.2135 18.8077 20.7374 18.8173 21.2627L17.8477 21.2431C17.878 20.7616 17.8743 20.2786 17.8368 19.7976C17.8088 19.3227 17.7312 18.8521 17.6053 18.3937C17.543 18.1758 17.4568 17.9656 17.3483 17.767C17.2454 17.5753 17.1129 17.4013 16.9556 17.2517C16.6428 16.9512 16.225 16.788 15.7933 16.7976C15.5843 16.8095 15.3826 16.8794 15.2104 16.9996C15.0283 17.1335 14.8714 17.2993 14.7474 17.4892C14.4802 17.8973 14.2705 18.3409 14.1244 18.8074C13.8201 19.7622 13.7683 20.7808 13.9741 21.7621Z" fill="#6B1F1F"/>
<path d="M15.9883 35.5078C16.2632 35.734 16.555 35.9386 16.8609 36.1198C17.1671 36.2953 17.485 36.449 17.8123 36.58C18.4679 36.8367 19.1502 37.0178 19.8461 37.1198C21.2362 37.3352 22.6458 37.2728 24.0529 37.1687C24.7571 37.1149 25.4637 37.0525 26.1763 37.0047C26.5327 36.9827 26.8902 36.9631 27.2489 36.9509C27.6536 36.925 28.0591 36.9854 28.4391 37.1284C28.6712 37.2195 28.8721 37.3769 29.0173 37.5812C29.1718 37.8075 29.2395 38.083 29.2075 38.356C29.1746 38.6 29.0835 38.8323 28.9421 39.0329C28.8223 39.2062 28.6832 39.3651 28.5276 39.5065C28.3749 39.6461 28.2379 39.7513 28.0901 39.8737C27.9422 39.9961 27.7943 40.0989 27.6428 40.2054C27.3379 40.4196 27.0219 40.6174 26.6963 40.7978L26.2539 39.9264C26.5591 39.7789 26.8564 39.6155 27.1447 39.4368C27.2889 39.3474 27.4307 39.2544 27.5701 39.1565C27.7095 39.0586 27.8537 38.9557 27.9689 38.8603C28.2113 38.6681 28.3991 38.4282 28.427 38.2483C28.4343 38.2078 28.4343 38.1664 28.427 38.1259C28.427 38.1039 28.4161 38.0843 28.4125 38.0622C28.4088 38.0402 28.3979 38.0219 28.3846 38.0047C28.3254 37.9137 28.2412 37.8422 28.1422 37.7991C27.8595 37.6809 27.5561 37.6217 27.2502 37.6253C26.9011 37.6167 26.5496 37.6155 26.1969 37.6179C25.4928 37.6241 24.785 37.6461 24.0735 37.6583C22.6531 37.6828 21.2071 37.6583 19.8012 37.3609C19.0994 37.2168 18.4159 36.993 17.7639 36.6938C17.4399 36.5423 17.1268 36.3681 16.827 36.1724C16.531 35.9729 16.2506 35.7507 15.9883 35.5078Z" fill="#6B1F1F"/>
<path d="M11.4048 8.60843C11.2974 8.26181 11.2499 7.89912 11.2642 7.53623C11.2662 7.44399 11.2743 7.35198 11.2885 7.26083C11.2962 7.16807 11.3108 7.07601 11.3321 6.98544L11.3939 6.71372L11.4824 6.44811C11.5114 6.35883 11.5467 6.27171 11.5878 6.18741C11.6266 6.10295 11.6605 6.01483 11.709 5.93282C11.7957 5.76663 11.8925 5.60599 11.9987 5.4518C12.2101 5.13794 12.4574 4.85036 12.7356 4.59502C13.0139 4.33764 13.3191 4.11151 13.6458 3.92061C13.9769 3.73276 14.3267 3.58057 14.6893 3.46652C15.4035 3.25033 16.1475 3.15197 16.8927 3.17521C18.3726 3.20826 19.7797 3.62686 21.0899 4.16418C22.4055 4.69822 23.6436 5.40925 24.7707 6.27798C23.4581 5.75902 22.1589 5.27922 20.8378 4.89122C19.5167 4.50322 18.1908 4.18254 16.8733 4.15684C16.7085 4.14827 16.5449 4.15684 16.3813 4.15684C16.2176 4.15684 16.054 4.17275 15.8965 4.19478C15.5742 4.22614 15.2549 4.28303 14.9414 4.36491C14.6329 4.44524 14.3323 4.55381 14.0433 4.68926L13.83 4.80187L13.7234 4.85817L13.6216 4.92182L13.4155 5.04422L13.2192 5.18742C13.1527 5.2341 13.0888 5.28435 13.0277 5.33797C12.9659 5.3906 12.9065 5.43956 12.841 5.49586C12.7198 5.60969 12.5986 5.71985 12.4956 5.84469C12.2725 6.08788 12.0778 6.35605 11.9151 6.64395L11.7939 6.86304L11.6945 7.09315C11.6589 7.16944 11.6293 7.24842 11.606 7.32937C11.583 7.41016 11.5466 7.48849 11.5296 7.57417L11.4715 7.81896C11.4521 7.90342 11.4497 7.98909 11.4363 8.076C11.4145 8.2526 11.404 8.43045 11.4048 8.60843Z" fill="#6B1F1F"/>
<path d="M27.6614 16.4957L27.1766 13.8495C27.0929 13.4113 27.0226 12.9621 26.9245 12.5386C26.8263 12.1151 26.676 11.71 26.4239 11.4138C26.1718 11.1176 25.8179 10.9119 25.4931 10.9364C25.1683 10.9609 24.8568 11.1714 24.6447 11.4689C24.5421 11.618 24.4651 11.7835 24.4168 11.9584C24.3672 12.1442 24.3391 12.3352 24.3332 12.5276C24.3294 12.9487 24.3627 13.3694 24.4326 13.7846L23.463 13.874C23.4282 13.3994 23.4355 12.9226 23.4848 12.4493C23.5168 12.1946 23.5778 11.9444 23.6666 11.7039C23.7616 11.4534 23.8976 11.2209 24.069 11.016C24.2419 10.8094 24.4521 10.6379 24.6883 10.5105C24.9345 10.3774 25.2117 10.3136 25.4907 10.3257C25.7645 10.34 26.0295 10.4283 26.2579 10.5815C26.471 10.7238 26.6549 10.9062 26.7996 11.1188C27.0588 11.5243 27.2207 11.9853 27.2723 12.4652C27.3341 12.9229 27.362 13.3648 27.4068 13.8115L27.6614 16.4957Z" fill="#6B1F1F"/>
<path d="M32.7969 10.8984C34.386 12.4978 35.5632 14.4657 36.2256 16.6303C36.3129 16.8996 36.3795 17.175 36.4523 17.4491C36.525 17.7233 36.5735 18.0012 36.6219 18.2814C36.737 18.8447 36.7777 19.4209 36.7431 19.995C36.7209 20.2928 36.6581 20.586 36.5565 20.8665C36.4505 21.1534 36.2936 21.4184 36.0935 21.6486C35.89 21.8867 35.6367 22.0761 35.3518 22.203C35.2055 22.2691 35.0502 22.3128 34.8912 22.3328C34.7275 22.3569 34.5609 22.3515 34.3991 22.3169C34.2383 22.2848 34.0834 22.2278 33.9398 22.148C33.7951 22.0695 33.6631 21.9692 33.5483 21.8505C33.2994 21.6055 33.1513 21.2746 33.1338 20.924C33.1328 20.5701 33.2614 20.2283 33.495 19.9644C33.7055 19.7238 33.9614 19.5278 34.2476 19.3879C34.3834 19.3189 34.5239 19.26 34.6682 19.2117C34.8092 19.1602 34.9528 19.1165 35.0985 19.0807C35.3899 19.0107 35.6875 18.9697 35.9869 18.9583C36.062 18.9583 36.1359 18.9583 36.2111 18.9583L36.4353 18.9644C36.5844 18.9791 36.7347 18.984 36.8813 19.0122C37.1782 19.0568 37.4704 19.1293 37.7539 19.2288C38.3317 19.4281 38.8631 19.7444 39.3156 20.1584C39.768 20.5724 40.132 21.0753 40.3852 21.6363C40.908 22.7757 40.9753 24.0748 40.573 25.263L39.6653 24.919C40.02 23.9688 40.0001 22.9173 39.6095 21.9815C39.417 21.513 39.1325 21.0887 38.7732 20.7343C38.4079 20.3791 37.9761 20.1011 37.5031 19.9167C37.2649 19.8237 37.0186 19.7536 36.7674 19.7074C36.6462 19.678 36.5141 19.6706 36.3868 19.6523L36.1953 19.64C36.1311 19.6364 36.0668 19.6364 36.0026 19.64C35.7462 19.6402 35.4905 19.6656 35.2391 19.7159C35.1179 19.7478 34.9882 19.771 34.867 19.8139C34.7462 19.8493 34.6283 19.8939 34.5143 19.9473C34.2947 20.0432 34.0961 20.1821 33.9301 20.3561C33.8531 20.4296 33.7919 20.5182 33.75 20.6165C33.7081 20.7148 33.6865 20.8207 33.6865 20.9277C33.6865 21.0347 33.7081 21.1405 33.75 21.2388C33.7919 21.3371 33.8531 21.4257 33.9301 21.4993C34.007 21.5849 34.0965 21.658 34.1955 21.7159C34.2932 21.7766 34.4001 21.8208 34.5119 21.8469C34.621 21.8752 34.7343 21.8835 34.8464 21.8713C34.9637 21.8605 35.0788 21.8325 35.1881 21.7881C35.4184 21.6952 35.6254 21.5518 35.7941 21.3683C35.9683 21.1822 36.1075 20.9657 36.205 20.7294C36.303 20.4848 36.3675 20.2278 36.3965 19.9656C36.4468 19.4209 36.4252 18.8718 36.3323 18.3328C36.2983 18.0575 36.245 17.7857 36.1953 17.5128C36.1456 17.2398 36.0741 16.9693 36.0026 16.7025C35.4202 14.5321 34.3195 12.5392 32.7969 10.8984Z" fill="#6B1F1F"/>
</svg>
