<svg width="59" height="71" viewBox="0 0 59 71" fill="none" xmlns="http://www.w3.org/2000/svg">
<path d="M52.3973 0.0342712C52.2367 0.0116732 52.0747 0.000222625 51.9125 0L4.10892 0L4.12104 0.0342712H3.77077C3.06949 0.0339709 2.38355 0.241522 1.79798 0.631194C1.2124 1.02087 0.752944 1.57552 0.476562 2.22641C4.39616 2.32555 7.65643 2.42714 10.5446 2.5275C20.8078 2.88368 26.4545 3.23986 40.6021 3.59725H40.7367H40.7633L41.5645 3.61806V5.06235H51.3162C52.8497 5.63611 54.2667 6.48766 55.4976 7.57517V5.06235H57.2828V0.0342712H52.3973Z" fill="#EFE2BD"/>
<path d="M57.2825 12.172H50.1172V6.09375H55.5385C55.5385 9.45111 56.319 12.172 57.2825 12.172Z" fill="#E0D1AA"/>
<path d="M55.5087 64.4259C55.5087 61.0686 56.2892 58.3477 57.2527 58.3477H50.0898V64.4259H55.5087Z" fill="#E8DCAC"/>
<path d="M57.2655 0.015625C58.2242 0.0339846 58.9998 2.74753 58.9998 6.09387C58.9998 9.44021 58.2242 12.1538 57.2655 12.1721H57.2558C56.2862 12.1721 55.5117 9.45123 55.5117 6.09387C55.5117 2.73652 56.2922 0.015625 57.2558 0.015625H57.2655Z" fill="#B7AC8B"/>
<path d="M55.5078 64.4259C55.5078 67.7833 56.2883 70.5042 57.2519 70.5042H57.2616C58.2203 70.4858 58.9959 67.771 58.9959 64.4259C58.9959 61.0808 58.2203 58.366 57.2616 58.3477H57.2519C56.2908 58.3477 55.5078 61.0686 55.5078 64.4259Z" fill="#B7AC8B"/>
<path d="M3.57328 65.5035C2.37443 65.1041 1.23329 64.546 0.179688 63.8438V66.8841C0.180651 67.8431 0.558496 68.7626 1.23024 69.4405C1.90198 70.1184 2.81269 70.4994 3.76235 70.4997H57.255C56.6987 70.4997 56.203 69.5915 55.8831 68.1742C36.9444 67.6993 32.5024 67.2244 13.565 66.7482C10.1956 66.6687 6.76931 66.5744 3.57328 65.5035Z" fill="#E0D1AA"/>
<path d="M55.5087 64.4269H55.4942V5.66763C54.1367 4.44366 52.4642 5.43263 50.731 4.85124C47.5435 3.78271 44.1257 3.68602 40.766 3.60156C37.4766 25.4005 31.2518 46.7197 22.4648 66.9886C36.0247 67.3864 40.0388 67.783 55.8844 68.1808C55.6248 66.9469 55.4988 65.6882 55.5087 64.4269Z" fill="#EFE2BD"/>
<path d="M52.3203 3.6297C52.5203 3.70681 52.7409 3.78637 52.9421 3.71171C53.0813 3.65143 53.1911 3.53786 53.2475 3.39592C53.4244 2.98589 53.2123 2.48774 52.8669 2.205C52.5215 1.92226 52.0743 1.80843 51.6416 1.71541C47.9789 0.892902 44.103 0.69829 40.3906 1.28212C44.1478 1.17809 48.8443 2.29925 52.3203 3.6297Z" fill="#FFF4D2"/>
<path d="M2.16231 66.5455C1.96233 66.4684 1.74174 66.3888 1.54055 66.4635C1.47168 66.4932 1.40933 66.5364 1.35711 66.5906C1.30489 66.6448 1.26384 66.7089 1.23634 66.7793C1.05818 67.1905 1.27028 67.6887 1.61569 67.9702C1.96111 68.2517 2.40834 68.3668 2.84102 68.4598C6.50368 69.2823 10.3796 69.4769 14.092 68.8931C10.3348 68.9971 5.6371 67.8759 2.16231 66.5455Z" fill="#EFE2BD"/>
<path d="M10.5446 2.52766C7.65643 2.42729 4.39616 2.3257 0.476562 2.22656C4.5719 2.33182 7.77521 2.43709 10.5495 2.54235L10.5446 2.52766Z" fill="#E0D1AA"/>
<path d="M40.7433 3.59986H40.6088L35.3087 3.464C23.0676 3.15678 18.6292 2.85201 10.5501 2.54235C7.77581 2.43709 4.57251 2.33182 0.477171 2.22656C0.285372 2.67739 0.186801 3.16304 0.187504 3.65371V3.76265C0.187504 5.02946 0.187504 6.09432 0.187504 6.09432V63.845C1.2411 64.5473 2.38224 65.1054 3.58109 65.5047C6.77713 66.5757 10.2034 66.6699 13.5728 66.7556L17.7712 66.8609C19.4679 66.9025 21.0217 66.9453 22.4713 66.9833C31.2619 46.7143 37.4867 25.3951 40.7724 3.59619L40.7433 3.59986Z" fill="#FFF4D2"/>
</svg>
