<svg width="42" height="42" viewBox="0 0 42 42" fill="none" xmlns="http://www.w3.org/2000/svg">
<path d="M26.2069 21.9422V8.57031H19.7166L9.63281 22.5358V27.7255H19.753V31.7034H26.2069V27.7255H28.7824V21.9422H26.2069ZM27.5704 26.5015H24.9949V30.4794H20.965V26.5015H10.8448V22.9373L20.3335 9.79429H24.9949V23.1662H27.5704V26.5015Z" fill="#6B1F1F"/>
<path d="M21.3899 23.1656V13.3555L14.3203 23.1619L21.3899 23.1656ZM20.1779 21.9416H16.7019L20.1779 17.1204V21.9416Z" fill="#6B1F1F"/>
<path d="M20.6645 41.7374C9.27178 41.7374 0 32.3753 0 20.8687C0 9.36216 9.26935 0 20.6645 0C32.0597 0 41.3291 9.36094 41.3291 20.8687C41.3291 32.3765 32.0585 41.7374 20.6645 41.7374ZM20.6645 1.22397C9.93838 1.22397 1.212 10.0366 1.212 20.8687C1.212 31.7009 9.93838 40.5135 20.6645 40.5135C31.3907 40.5135 40.1171 31.7009 40.1171 20.8687C40.1171 10.0366 31.3907 1.22397 20.6645 1.22397Z" fill="#6B1F1F"/>
<path d="M18.0762 39.7003C17.315 39.7003 16.526 39.644 15.7843 39.3748C14.3517 38.8558 13.8705 37.6049 13.6972 36.3711C12.7276 36.8913 11.4938 36.9905 10.5933 36.8889L10.2733 36.8521L10.1824 36.54C9.95481 35.7219 10.0289 34.8482 10.3909 34.0811C8.42746 34.1349 6.51251 33.2378 5.49201 31.7151L4.17578 29.7568L6.15255 31.0236C6.49675 31.2439 6.97428 31.1778 7.30516 31.0432C8.03235 30.7482 8.70016 30.321 9.40797 29.8694C10.1485 29.3969 10.9145 28.9086 11.7629 28.5756C13.7021 27.8119 15.9746 28.2085 17.4071 29.572C18.927 31.015 19.3076 33.0774 18.4252 35.0884C18.3622 35.2316 18.2955 35.3711 18.2301 35.5058C18.0955 35.765 17.9828 36.0352 17.8932 36.3136C17.774 36.7644 17.7859 37.2403 17.9276 37.6844C18.0692 38.1285 18.3346 38.522 18.6919 38.8178L19.7681 39.6746L18.401 39.6979C18.2931 39.6991 18.1852 39.7003 18.0762 39.7003ZM14.5299 34.3614L14.5868 35.4519C14.6789 37.2242 15.1213 38.0945 16.1127 38.4543C16.5016 38.5902 16.9068 38.6725 17.3175 38.6991C17.0835 38.3043 16.9314 37.8657 16.8704 37.4097C16.8094 36.9538 16.8406 36.4901 16.9623 36.0468C17.0666 35.7151 17.1992 35.3932 17.3587 35.0847C17.4193 34.9623 17.4799 34.8289 17.538 34.6992C18.2458 33.086 17.9489 31.4385 16.743 30.2929C15.577 29.1852 13.713 28.8645 12.1144 29.4948C11.3532 29.7935 10.66 30.2366 9.92549 30.7041C9.21284 31.1595 8.4711 31.6307 7.66754 31.9587C7.5108 32.0224 7.34849 32.0712 7.18274 32.1044C7.76907 32.5328 8.43719 32.8335 9.1447 32.9873C9.85221 33.1411 10.5837 33.1447 11.2926 32.9979L12.9131 32.6551L11.7326 33.8265C11.4631 34.1016 11.2601 34.4357 11.1394 34.803C11.0187 35.1703 10.9837 35.5607 11.0369 35.944C11.9786 35.9807 13.1349 35.7542 13.7554 35.1325L14.5299 34.3614Z" fill="#6B1F1F"/>
<path d="M23.8153 39.4251C23.4017 39.4253 22.9885 39.4003 22.5779 39.3505C20.7696 39.1301 19.6473 38.315 19.3297 36.9943C19.0994 36.0359 19.2352 34.6382 19.9357 33.8242C21.5368 31.976 23.945 32.6798 26.0708 33.3004C27.318 33.6675 28.4948 34.009 29.4317 33.8658C30.594 33.6871 31.7066 33.2257 32.938 32.6859L34.2979 32.0898L33.5501 33.3824C33.1152 34.0959 32.6291 34.7762 32.0957 35.4178C31.0975 36.6656 29.8362 37.6729 28.4037 38.3661C26.9713 39.0593 25.4037 39.4211 23.8153 39.4251ZM22.6942 38.3786C24.3166 38.5677 25.9601 38.3393 27.4716 37.7147C28.9832 37.09 30.3137 36.0893 31.3394 34.8058C31.4921 34.6125 31.6472 34.4178 31.7999 34.2196C31.0837 34.5008 30.3404 34.7059 29.582 34.8315C28.4367 35.0066 27.0986 34.6161 25.8054 34.2379C23.779 33.6455 21.8652 33.0874 20.6714 34.4668C20.212 34.9968 20.1066 36.0702 20.2726 36.7617C20.4884 37.6626 21.3041 38.206 22.6966 38.3762L22.6942 38.3786Z" fill="#6B1F1F"/>
<path d="M4.01223 30.5847L2.98567 27.9409C1.85245 25.023 1.35554 22.2103 1.50704 19.5849C1.54582 18.9154 1.97608 12.9987 5.11151 11.421C6.30169 10.8225 7.7973 10.9718 9.1111 11.8212C10.5025 12.7221 11.3412 14.1553 11.2988 15.5641C11.2563 16.9729 10.4504 18.3707 8.90991 19.6718C8.52207 19.9998 8.11363 20.307 7.71852 20.6044C6.91981 21.2054 6.16474 21.7746 5.55874 22.4967C4.43764 23.8333 3.86195 25.6974 3.92255 27.7463L4.01223 30.5847ZM6.67863 12.0379C6.28608 12.0345 5.89812 12.1233 5.54541 12.2973C3.39533 13.3793 2.60389 17.4233 2.47663 19.6412C2.37119 21.4661 2.59783 23.3914 3.15656 25.3938C3.41231 24.0961 3.98376 22.883 4.81942 21.8639C5.49693 21.0561 6.33199 20.427 7.13918 19.8186C7.52339 19.5298 7.92092 19.2311 8.28816 18.9203C9.19594 18.154 10.2867 16.9448 10.3292 15.5335C10.3619 14.4846 9.6771 13.3512 8.58752 12.6462C8.02124 12.2637 7.35851 12.0526 6.67741 12.0379H6.67863Z" fill="#6B1F1F"/>
<path d="M11.7244 12.4222C11.3323 12.4212 10.9422 12.3644 10.5658 12.2533C9.40953 11.9179 8.54417 11.2484 8.12845 10.3683C7.75273 9.57031 7.76485 8.64744 8.16481 7.69886C8.52841 6.84208 9.15865 6.05506 10.1489 5.2301C13.6879 2.28033 18.7807 1.10776 24.1195 2.01473L26.8296 2.47616L24.1232 2.97922C23.6918 3.05988 23.2692 3.18286 22.8615 3.34641C21.0083 4.09181 19.2776 5.6487 17.4148 8.2423C16.4064 9.66333 14.4248 12.4222 11.7244 12.4222ZM20.6157 2.69403C16.8221 2.69403 13.3437 3.83477 10.7658 5.98529C9.89918 6.70621 9.35621 7.37328 9.05684 8.08318C8.76475 8.77473 8.74778 9.40263 9.00472 9.94729C9.29803 10.5703 9.94766 11.055 10.8336 11.312C13.1534 11.9852 14.992 9.96565 16.633 7.67438C18.3953 5.21664 20.0703 3.62792 21.8543 2.73442C21.4374 2.70505 21.0253 2.69403 20.6157 2.69403Z" fill="#6B1F1F"/>
<path d="M30.23 12.5081C29.3574 12.5081 28.4969 12.1751 27.9757 11.4065C27.5661 10.8006 27.4376 10.0785 27.3346 9.49953C27.2315 8.9206 27.1346 8.37715 26.8631 7.94876C26.5916 7.52037 26.1008 7.17032 25.4826 6.96958C24.8827 6.76885 24.2149 6.70521 23.5701 6.64523C22.8732 6.57914 22.0587 6.6844 21.5097 6.76763L19.8711 7.02099L21.1158 5.91942C22.2912 4.89681 23.7054 4.19398 25.2248 3.87742C26.7442 3.56086 28.3184 3.64105 29.7986 4.11039C31.0021 4.50573 31.9704 5.11037 32.677 5.90962C33.5254 6.86555 33.9375 8.07238 33.8151 9.22047C33.7491 9.80344 33.5495 10.3629 33.2323 10.8545C32.9151 11.3461 32.4889 11.7563 31.9874 12.0527C31.4501 12.3544 30.8448 12.5112 30.23 12.5081ZM23.1944 5.6428C23.358 5.6428 23.5131 5.65382 23.661 5.66728C24.3591 5.73337 25.0827 5.80192 25.7881 6.03447C26.3735 6.23031 27.1782 6.63055 27.6788 7.42001C28.0545 8.01241 28.1793 8.7064 28.2848 9.31961C28.3902 9.93282 28.5017 10.453 28.7696 10.8557C29.3283 11.6819 30.6288 11.699 31.4941 11.1972C31.8636 10.9784 32.1777 10.6758 32.4116 10.3135C32.6454 9.95108 32.7928 9.53879 32.8419 9.10909C32.9328 8.25231 32.5995 7.29271 31.945 6.55466C31.362 5.89616 30.5136 5.36985 29.4895 5.03449C28.453 4.70732 27.3622 4.5926 26.2811 4.69706C25.2001 4.80153 24.1507 5.12307 23.1944 5.6428Z" fill="#6B1F1F"/>
<path d="M26.9219 33.1999L27.7872 32.255C28.4175 31.5683 29.0623 30.8254 29.4319 29.9649C29.6335 29.4495 29.7892 28.917 29.8973 28.3738C29.9543 28.129 30.0185 27.867 30.0828 27.6125C30.5603 25.8279 31.4281 24.3787 32.5916 23.4228C33.8181 22.4143 35.8797 21.7337 37.4396 22.3849C37.7375 22.5045 38.0071 22.6862 38.2308 22.9182C38.4545 23.1502 38.6272 23.4273 38.7376 23.7312C39.117 24.752 38.8358 25.9613 38.4468 26.7532C36.75 30.1987 32.8194 32.6222 28.1848 33.0775L26.9219 33.1999ZM33.2024 24.1841C31.9335 25.2282 31.3141 26.7655 31.0208 27.8707C30.9578 28.1094 30.8996 28.3603 30.8439 28.6051C30.7232 29.2044 30.5491 29.7914 30.3239 30.3591C30.074 30.9202 29.7521 31.4457 29.3665 31.9221C32.4765 31.3297 35.9609 29.6222 37.585 26.3199C37.9607 25.5562 38.0589 24.6774 37.8371 24.0789C37.7739 23.9009 37.6732 23.739 37.542 23.6042C37.4108 23.4694 37.2522 23.3649 37.0772 23.298C35.9197 22.8157 34.1999 23.3726 33.2049 24.189L33.2024 24.1841Z" fill="#6B1F1F"/>
<path d="M36.0423 21.9407C35.8087 21.9417 35.5759 21.9113 35.3503 21.8501C34.2316 21.5429 33.7662 20.516 33.3929 19.691C33.3323 19.56 33.2717 19.4291 33.2123 19.303C32.2427 17.2896 29.8612 16.0595 27.6759 16.4414L26.5742 16.6335L27.1887 15.6898C28.2734 14.0228 30.289 13.4463 31.7882 13.2566C33.3093 13.0632 34.674 13.1734 35.8448 13.5834C37.2701 14.0828 38.4312 15.0632 39.0299 16.2761C39.722 17.6727 39.6286 19.3361 38.7936 20.5062C38.4744 20.9422 38.0604 21.2983 37.5834 21.547C37.1063 21.7957 36.5791 21.9304 36.0423 21.9407ZM28.7558 15.401C30.9604 15.5099 33.119 16.8636 34.0886 18.8746C34.1528 19.008 34.2098 19.1451 34.2777 19.2847C34.6122 20.019 34.9273 20.7179 35.6109 20.9052C36.5065 21.15 37.5355 20.6041 38.013 19.9321C38.6299 19.0643 38.693 17.7706 38.1694 16.7119C37.6846 15.7327 36.721 14.9249 35.5333 14.5087C34.5043 14.1476 33.2875 14.0534 31.9155 14.2272C30.9192 14.3533 29.6794 14.6617 28.7546 15.401H28.7558Z" fill="#6B1F1F"/>
<path d="M29.8062 20.8685C29.4706 20.8685 29.1425 20.768 28.8635 20.5797C28.5844 20.3915 28.367 20.1238 28.2385 19.8107C28.1101 19.4976 28.0765 19.1531 28.142 18.8207C28.2075 18.4883 28.3691 18.1829 28.6064 17.9433C28.8437 17.7037 29.146 17.5405 29.4751 17.4743C29.8043 17.4082 30.1455 17.4421 30.4555 17.5718C30.7655 17.7015 31.0305 17.9212 31.217 18.203C31.4034 18.4848 31.503 18.8161 31.503 19.155C31.503 19.6094 31.3242 20.0453 31.006 20.3666C30.6878 20.688 30.2562 20.8685 29.8062 20.8685ZM29.8062 18.4206C29.6623 18.4206 29.5217 18.4637 29.4022 18.5444C29.2826 18.625 29.1894 18.7397 29.1343 18.8739C29.0793 19.0081 29.0649 19.1558 29.0929 19.2982C29.121 19.4407 29.1903 19.5716 29.292 19.6743C29.3937 19.777 29.5232 19.8469 29.6643 19.8752C29.8054 19.9036 29.9516 19.889 30.0844 19.8335C30.2173 19.7779 30.3309 19.6837 30.4108 19.563C30.4907 19.4422 30.5334 19.3002 30.5334 19.155C30.5334 18.9602 30.4567 18.7734 30.3204 18.6357C30.184 18.498 29.999 18.4206 29.8062 18.4206Z" fill="#6B1F1F"/>
<path d="M6.41164 28.2123C6.07605 28.2123 5.74799 28.1118 5.46895 27.9235C5.18991 27.7352 4.97243 27.4676 4.84401 27.1545C4.71558 26.8414 4.68198 26.4968 4.74745 26.1644C4.81292 25.832 4.97452 25.5267 5.21182 25.287C5.44913 25.0474 5.75147 24.8842 6.08061 24.8181C6.40976 24.752 6.75093 24.7859 7.06098 24.9156C7.37103 25.0453 7.63603 25.2649 7.82248 25.5467C8.00892 25.8285 8.10844 26.1598 8.10844 26.4987C8.10844 26.9532 7.92967 27.389 7.61146 27.7104C7.29325 28.0317 6.86166 28.2123 6.41164 28.2123ZM6.41164 25.7643C6.26781 25.7643 6.12722 25.8074 6.00763 25.8881C5.88804 25.9688 5.79484 26.0835 5.7398 26.2177C5.68476 26.3519 5.67036 26.4995 5.69842 26.642C5.72647 26.7844 5.79573 26.9153 5.89743 27.018C5.99913 27.1207 6.12871 27.1907 6.26977 27.219C6.41083 27.2473 6.55705 27.2328 6.68993 27.1772C6.82281 27.1216 6.93638 27.0275 7.01628 26.9067C7.09619 26.7859 7.13884 26.644 7.13884 26.4987C7.13884 26.3039 7.06222 26.1172 6.92585 25.9794C6.78947 25.8417 6.60451 25.7643 6.41164 25.7643Z" fill="#6B1F1F"/>
<path d="M13.0796 15.9701C12.744 15.9701 12.416 15.8696 12.1369 15.6813C11.8579 15.493 11.6404 15.2254 11.512 14.9123C11.3835 14.5992 11.3499 14.2546 11.4154 13.9222C11.4809 13.5898 11.6425 13.2845 11.8798 13.0449C12.1171 12.8052 12.4194 12.642 12.7486 12.5759C13.0777 12.5098 13.4189 12.5437 13.7289 12.6734C14.039 12.8031 14.304 13.0227 14.4904 13.3045C14.6769 13.5863 14.7764 13.9176 14.7764 14.2565C14.7764 14.711 14.5976 15.1468 14.2794 15.4682C13.9612 15.7896 13.5296 15.9701 13.0796 15.9701ZM13.0796 13.5221C12.9358 13.5221 12.7952 13.5652 12.6756 13.6459C12.556 13.7266 12.4628 13.8413 12.4078 13.9755C12.3527 14.1097 12.3383 14.2573 12.3664 14.3998C12.3944 14.5423 12.4637 14.6731 12.5654 14.7758C12.6671 14.8785 12.7967 14.9485 12.9377 14.9768C13.0788 15.0051 13.225 14.9906 13.3579 14.935C13.4908 14.8794 13.6044 14.7853 13.6843 14.6645C13.7642 14.5438 13.8068 14.4018 13.8068 14.2565C13.8068 14.0618 13.7302 13.875 13.5938 13.7372C13.4574 13.5995 13.2725 13.5221 13.0796 13.5221Z" fill="#6B1F1F"/>
<path d="M29.0938 7.46488C29.9421 8.16132 30.6693 8.99607 31.479 9.72434C31.8743 10.0918 32.3065 10.4167 32.7685 10.6937C32.9956 10.8268 33.2331 10.9406 33.4788 11.034C33.715 11.1311 33.9627 11.1969 34.2157 11.2298C34.4524 11.2645 34.6936 11.2504 34.9247 11.1882C35.1368 11.1268 35.3274 11.0063 35.4749 10.8406C35.6231 10.6695 35.7286 10.4651 35.7828 10.2445C35.8439 10.0132 35.8692 9.77375 35.8579 9.53462C35.8492 9.29197 35.8084 9.05158 35.7367 8.81982C35.664 8.58137 35.5686 8.3506 35.4519 8.13072C35.2225 7.69303 34.9138 7.30275 34.5417 6.98019L35.201 6.26172C35.6288 6.69258 35.9732 7.20023 36.2167 7.75864C36.3378 8.03432 36.4319 8.32127 36.4979 8.61542C36.5678 8.91646 36.5975 9.22561 36.5863 9.53462C36.5771 9.84712 36.5202 10.1563 36.4179 10.4514C36.3145 10.7603 36.14 11.0401 35.9088 11.2678C35.6715 11.4972 35.3749 11.6546 35.0531 11.7219C34.7506 11.7812 34.4393 11.7779 34.1381 11.7121C33.8524 11.653 33.5755 11.5571 33.3139 11.4269C33.057 11.306 32.8102 11.1644 32.5758 11.0034C32.1201 10.6813 31.6989 10.3121 31.319 9.90181C30.5482 9.10011 29.8888 8.22252 29.0938 7.46488Z" fill="#6B1F1F"/>
<path d="M3.4375 20.5765C3.78891 18.9813 4.33101 17.4351 5.05188 15.9719C6.49334 13.0199 8.51624 10.396 10.9967 8.26089C12.2251 7.19659 13.5776 6.2878 15.0242 5.55469C13.8025 6.61465 12.6208 7.6844 11.5094 8.82636C9.29316 11.0929 7.34756 13.614 5.71242 16.3379C4.8919 17.7002 4.15621 19.1187 3.4375 20.5765Z" fill="#6B1F1F"/>
<path d="M15.1168 31.8615C15.4822 31.7356 15.8336 31.5715 16.1652 31.3719C16.4911 31.1765 16.783 30.9284 17.0294 30.6375C17.1481 30.4953 17.2505 30.3401 17.3348 30.1748C17.4155 30.0122 17.4753 29.8399 17.513 29.662C17.5915 29.3165 17.5726 28.9556 17.4584 28.6204C17.3487 28.3068 17.1305 28.0438 16.8439 27.8799C16.5376 27.7128 16.2037 27.6033 15.8586 27.5568C15.1257 27.4412 14.3816 27.4178 13.643 27.487L13.6055 26.5078C14.4196 26.5161 15.2295 26.6275 16.0161 26.8395C16.4342 26.9427 16.8298 27.1228 17.1833 27.3707C17.5517 27.6405 17.8137 28.0334 17.9226 28.4796C18.0146 28.8967 17.9968 29.3308 17.8712 29.7387C17.7455 30.1467 17.5163 30.5144 17.2063 30.8052C16.9176 31.0836 16.5855 31.3123 16.2234 31.482C15.8686 31.647 15.4977 31.7742 15.1168 31.8615Z" fill="#6B1F1F"/>
<path d="M22.9534 36.1897C22.198 36.3321 21.4171 36.2217 20.7294 35.8752C20.0112 35.5169 19.448 34.9051 19.1466 34.1555C19.0706 33.9631 19.0141 33.7634 18.9781 33.5594C18.9445 33.3499 18.9339 33.1373 18.9466 32.9254C18.9615 32.7077 19.0059 32.4932 19.0787 32.2877C19.1513 32.0803 19.2517 31.8839 19.3768 31.7039C19.4387 31.6134 19.5059 31.5268 19.578 31.4444C19.6511 31.3624 19.7293 31.2852 19.8119 31.2131C19.9797 31.0665 20.1659 30.943 20.3658 30.8459C20.573 30.7424 20.7945 30.671 21.0227 30.6341C21.2608 30.5985 21.503 30.6014 21.7402 30.6427L21.5209 31.5974C21.3922 31.5597 21.2585 31.5424 21.1245 31.546C20.9811 31.5535 20.8394 31.5819 20.704 31.6305C20.5611 31.6825 20.4257 31.7537 20.3016 31.8422C20.238 31.8864 20.1769 31.9342 20.1186 31.9854C20.061 32.0391 20.0064 32.0959 19.955 32.1555C19.7447 32.395 19.6041 32.6886 19.5489 33.0037C19.5214 33.1654 19.5116 33.3296 19.5199 33.4933C19.5314 33.6635 19.5598 33.832 19.6047 33.9964C19.804 34.6863 20.2463 35.2788 20.8482 35.6622C21.4745 36.0645 22.2136 36.2497 22.9534 36.1897Z" fill="#6B1F1F"/>
<path d="M34.3914 16.082C34.7084 16.1924 35.0099 16.3438 35.2883 16.5325C35.5703 16.7263 35.8301 16.9512 36.0628 17.2032C36.2969 17.4572 36.5067 17.733 36.6894 18.0269C36.8756 18.319 37.0378 18.626 37.1742 18.9449C37.312 19.2628 37.4278 19.59 37.5208 19.9241L37.5887 20.1689L37.6456 20.4222C37.6662 20.5055 37.6808 20.5936 37.6953 20.6829C37.7099 20.7723 37.7268 20.8604 37.7353 20.9498C37.8115 21.659 37.7656 22.3763 37.5996 23.0697C37.2644 24.4166 36.6289 25.6683 35.7416 26.7294C35.3125 27.2569 34.8303 27.738 34.3029 28.1651C34.0416 28.3765 33.7672 28.5707 33.4812 28.7465C33.199 28.9239 32.9036 29.079 32.5977 29.2104C33.5689 28.3543 34.4196 27.368 35.1259 26.2789C35.8179 25.2104 36.3718 24.0562 36.653 22.8518C36.7252 22.5541 36.7751 22.2514 36.8021 21.9461C36.8337 21.6456 36.8394 21.343 36.819 21.0416C36.819 20.9657 36.8069 20.8922 36.7996 20.8176C36.7924 20.7429 36.7839 20.6683 36.7693 20.5899L36.733 20.3574L36.6894 20.126C36.6287 19.8179 36.5523 19.5131 36.4603 19.213C36.4154 19.0624 36.3621 18.9155 36.3112 18.7662C36.2833 18.6928 36.253 18.6218 36.2239 18.5483C36.1949 18.4749 36.1658 18.4015 36.1318 18.3317C36.0058 18.0424 35.8579 17.7633 35.6895 17.4969C35.5193 17.2279 35.3271 16.9736 35.115 16.7369C35.0066 16.6174 34.8917 16.5042 34.7708 16.3978C34.6544 16.2815 34.5199 16.191 34.3914 16.082Z" fill="#6B1F1F"/>
</svg>
