<svg width="29" height="42" viewBox="0 0 29 42" fill="none" xmlns="http://www.w3.org/2000/svg">
<g style="mix-blend-mode:multiply" opacity="0.4">
<path d="M23.0896 23.3575L22.4836 21.8459C22.5393 21.8459 22.5963 21.8459 22.652 21.8312C23.7137 21.6868 24.5452 20.6844 24.6676 19.611C24.7706 18.7028 24.4446 17.775 24.6252 16.8778C24.8385 15.8166 25.7002 15.0419 26.3789 14.201C27.0576 13.3601 27.5909 12.1704 27.0601 11.2304C26.871 10.8951 26.5753 10.6478 26.2832 10.392C26.1071 10.2441 25.9449 10.0802 25.7984 9.90241C25.7326 9.8186 25.6726 9.73026 25.619 9.63803C24.7258 8.11051 25.7887 5.89634 25.0603 4.20481C24.8508 3.73795 24.5241 3.33455 24.1125 3.0347C23.8219 2.81673 23.4998 2.64539 23.1574 2.52675C22.3369 2.24523 21.4388 2.25258 20.5892 2.42393C19.6487 2.61365 18.65 2.99308 17.7689 2.61977C17.2126 2.38477 16.8114 1.88538 16.306 1.55369C15.7673 1.21563 15.1343 1.06384 14.5026 1.12125C13.8709 1.17866 13.2748 1.44216 12.8046 1.87192C12.4494 2.21219 12.1816 2.64425 11.7828 2.93066C10.5878 3.78744 9.66912 2.42393 8.50318 2.703C7.71174 2.89149 7.31178 3.8107 7.27057 4.63198C7.22936 5.45327 7.42207 6.28312 7.27057 7.09216C7.03544 8.38957 6.07675 9.08479 5.24169 9.97585C4.56055 10.7017 4.00545 11.6821 4.20179 12.6612C4.47813 14.037 6.12281 14.9354 6.07675 16.3332C6.06342 16.7689 5.87799 17.1777 5.78345 17.6024C5.73908 17.7986 5.72598 18.0006 5.74467 18.2009C5.75917 18.4402 5.86008 18.6658 6.02828 18.835C6.49005 19.2682 7.25482 19.0112 7.84627 19.2364L7.86324 19.2438C8.21062 19.4004 8.48342 19.6882 8.62316 20.0455L7.55054 22.6941L1.43359 37.7808L7.69356 35.0036L10.2303 41.416L15.1837 29.1898L17.8949 35.88L20.1383 41.416L22.6738 35.0036L28.935 37.7808L23.0896 23.3575ZM18.7264 29.0698C18.8597 28.3673 19.0088 27.668 19.1736 26.9719C19.008 27.6671 18.8585 28.3664 18.7252 29.0698H18.7264ZM19.4124 26.0025C19.6798 24.9589 19.9808 23.9242 20.3153 22.8985C19.98 23.9234 19.6786 24.9581 19.4111 26.0025H19.4124ZM20.6244 21.9806C20.6668 21.8582 20.708 21.7358 20.7516 21.6134C20.7092 21.7358 20.6656 21.8569 20.6231 21.9806H20.6244Z" fill="#606060"/>
</g>
<path d="M16.2095 8.79297L7.41406 12.4282L16.4616 34.773C16.7591 29.1542 17.9916 23.6261 20.1073 18.4207L16.2095 8.79297Z" fill="#1C657C"/>
<path d="M20.1081 18.4219C19.6597 19.5275 19.2513 20.6479 18.8828 21.7829C19.8015 21.931 20.7311 22.1501 21.6571 22.2456L20.1081 18.4219Z" fill="#1C657C"/>
<path d="M21.6553 22.2439C20.7293 22.1484 19.7997 21.9294 18.881 21.7812C17.508 25.9823 16.6929 30.3488 16.457 34.7664L18.7004 40.3024L21.2371 33.89L27.4971 36.6672L21.6553 22.2439Z" fill="#3B91BC"/>
<path d="M6.11331 21.582L0 36.6687L6.25996 33.8915L8.79667 40.3039L16.3365 21.6995C14.3464 22.019 12.9065 24.0251 10.9855 24.7252C8.48034 25.3494 6.75567 23.7693 6.11331 21.582Z" fill="#3B91BC"/>
<path d="M11.2946 8.79297L6.11328 21.581C6.75079 23.7683 8.48031 25.3521 10.9855 24.7193C12.9065 24.0143 14.3464 22.0131 16.3365 21.6937L20.0936 12.4282L11.2946 8.79297Z" fill="#1C657C"/>
<path d="M23.5702 7.92814C23.7562 8.14635 23.9611 8.34746 24.1823 8.5291C23.2891 7.00159 24.3532 4.78743 23.6236 3.0959C23.4141 2.62904 23.0874 2.22564 22.6758 1.92578C22.7346 2.02374 22.7868 2.12555 22.8321 2.23055C23.6017 4.02122 22.3643 6.40062 23.5702 7.92814Z" fill="#872E2E"/>
<path d="M24.9345 13.0863C25.6144 12.2479 26.1465 11.0558 25.6169 10.1158C25.4266 9.7804 25.1321 9.53315 24.8388 9.27734C25.3466 10.2125 24.8169 11.3899 24.1443 12.2149C23.4716 13.0398 22.6063 13.8415 22.3893 14.8966C22.2087 15.7925 22.5347 16.7215 22.4317 17.6297C22.3105 18.7044 21.4779 19.7105 20.4174 19.8512C19.8235 19.932 19.2308 19.757 18.6418 19.6493C16.9962 19.3527 15.2999 19.5785 13.7866 20.2955C12.6327 20.8463 11.605 21.6749 10.3869 22.0532C9.53002 22.3188 8.50346 22.2735 7.76172 21.8304C7.77384 21.8573 7.78354 21.8842 7.79687 21.9112C8.39196 23.0507 9.95907 23.2967 11.1783 22.9185C12.3976 22.5403 13.4242 21.7117 14.578 21.1621C16.0913 20.4447 17.7875 20.2185 19.4332 20.5146C20.0223 20.6223 20.6149 20.7974 21.2088 20.7166C22.2681 20.5734 23.1056 19.5697 23.2268 18.4926C23.3298 17.5844 23.0038 16.6567 23.1844 15.7595C23.3977 14.6983 24.2594 13.9235 24.9345 13.0863Z" fill="#872E2E"/>
<path d="M24.1496 12.2201C24.8222 11.3903 25.3519 10.2128 24.844 9.28257C24.6683 9.1343 24.5061 8.97045 24.3592 8.79298C24.2938 8.70887 24.2339 8.62056 24.1799 8.52861C23.9586 8.34697 23.7538 8.14585 23.5678 7.92763C22.3619 6.40012 23.6017 4.02072 22.8297 2.23004C22.7844 2.12505 22.7321 2.02323 22.6733 1.92528C22.3831 1.70757 22.0614 1.53625 21.7195 1.41732C20.8978 1.13581 20.0009 1.14315 19.1501 1.31451C18.2096 1.50423 17.2109 1.88488 16.3297 1.51035C15.7734 1.27534 15.3723 0.775965 14.8681 0.444268C14.3291 0.106076 13.6958 -0.0456776 13.0638 0.0119595C12.4318 0.0695965 11.8357 0.333487 11.3654 0.763723C11.0103 1.10276 10.7424 1.53483 10.3449 1.82124C9.14867 2.67802 8.22997 1.31451 7.06403 1.59358C6.2726 1.78207 5.87264 2.70127 5.83143 3.52256C5.79022 4.34384 5.98293 5.1737 5.83143 5.98274C5.5963 7.28016 4.63883 7.97537 3.80255 8.86642C3.12141 9.59224 2.56631 10.5726 2.76266 11.5518C3.03899 12.9276 4.68367 13.8272 4.63883 15.2237C4.62428 15.6595 4.43885 16.0683 4.34552 16.493C4.30058 16.6891 4.28748 16.8912 4.30674 17.0915C4.32097 17.3274 4.42012 17.5498 4.5855 17.717C5.04727 18.1503 5.81204 17.8932 6.40349 18.1184L6.42046 18.1258C7.06161 18.3828 7.344 19.1478 7.42521 19.8393C7.50399 20.5101 7.47732 21.2175 7.76093 21.8246C8.50267 22.2677 9.52924 22.3142 10.3861 22.0474C11.6054 21.6692 12.6319 20.8405 13.7858 20.2898C15.2991 19.5727 16.9954 19.3469 18.641 19.6435C19.2301 19.7512 19.8227 19.9262 20.4166 19.8455C21.4771 19.701 22.3097 18.6986 22.4309 17.6239C22.534 16.7158 22.2079 15.788 22.3885 14.8908C22.6079 13.8419 23.4696 13.0585 24.1496 12.2201Z" fill="#A84343"/>
<path d="M16.3596 17.3459C19.7578 15.9244 21.3715 11.9901 19.9639 8.5583C18.5564 5.12653 14.6605 3.49688 11.2623 4.91836C7.86415 6.33985 6.25044 10.2742 7.65802 13.7059C9.06559 17.1377 12.9614 18.7674 16.3596 17.3459Z" fill="#A84343"/>
<path d="M19.4631 5.41406L18.5105 6.37855C19.1716 6.99318 19.7029 7.73646 20.0724 8.56372C20.4418 9.39098 20.6419 10.2851 20.6604 11.1925C20.679 12.0998 20.5157 13.0015 20.1804 13.8435C19.845 14.6854 19.3446 15.4502 18.7091 16.0919C18.0737 16.7336 17.3163 17.2389 16.4825 17.5774C15.6487 17.9159 14.7558 18.0807 13.8574 18.0619C12.9589 18.043 12.0735 17.8409 11.2544 17.4677C10.4353 17.0945 9.69935 16.5578 9.09083 15.89L8.14062 16.8509C9.64176 18.3668 11.6777 19.2185 13.8006 19.2185C15.9236 19.2185 17.9595 18.3668 19.4607 16.8509C20.9618 15.3349 21.8051 13.2788 21.8051 11.1349C21.8051 8.99101 20.9618 6.93492 19.4607 5.41896L19.4631 5.41406Z" fill="#872E2E"/>
<path d="M7.14992 11.1356C7.15401 9.80815 7.54661 8.51157 8.27837 7.40885C9.01012 6.30613 10.0484 5.44651 11.2626 4.93806C12.4768 4.42961 13.8127 4.29502 15.1025 4.55123C16.3922 4.80744 17.5781 5.44299 18.5112 6.378L19.4614 5.41841C17.9603 3.90244 15.9243 3.05078 13.8014 3.05078C11.6784 3.05078 9.64247 3.90244 8.14134 5.41841C6.6402 6.93437 5.79688 8.99045 5.79688 11.1344C5.79688 13.2782 6.6402 15.3343 8.14134 16.8503L9.09154 15.8895C8.47405 15.2651 7.98468 14.5238 7.6515 13.708C7.31831 12.8922 7.14786 12.018 7.14992 11.1356Z" fill="#6B1F1F"/>
<path d="M3.56664 11.1491C3.59732 11.3791 3.67624 11.5998 3.79813 11.7966C3.98478 12.1136 4.28293 12.4024 4.64653 12.4318C4.66298 12.4379 4.6807 12.4395 4.69797 12.4366C4.71524 12.4338 4.73148 12.4264 4.74513 12.4153C4.75877 12.4043 4.76936 12.3898 4.77587 12.3734C4.78238 12.357 4.78458 12.3392 4.78228 12.3217C4.80288 12.0683 4.70713 11.8223 4.64653 11.575C4.54659 11.1613 4.54286 10.7298 4.63562 10.3143C4.68653 10.0855 4.96408 9.53711 4.60532 9.45755C3.93872 9.29966 3.51573 10.7134 3.56664 11.1491Z" fill="#C66D6D"/>
<path d="M8.07546 20.3455C8.09989 20.5 8.15161 20.6488 8.22817 20.7849C8.42815 21.0982 8.83417 21.1986 9.20747 21.1876C9.7194 21.1711 10.2136 20.9944 10.6219 20.6821C10.7177 20.6171 10.7957 20.5287 10.8485 20.425C10.8738 20.3727 10.8826 20.3139 10.874 20.2564C10.8653 20.1989 10.8395 20.1455 10.8 20.1031C10.7503 20.0641 10.6914 20.0388 10.6291 20.0297C10.1504 19.9318 9.61349 20.1704 9.18565 19.9342C8.88508 19.7677 8.74085 19.4201 8.5239 19.1509C8.33362 18.9159 7.96032 18.84 7.88518 19.2072C7.81852 19.5254 8.00638 20.0309 8.07546 20.3455Z" fill="#C66D6D"/>
<path d="M5.72344 16.8612C5.80794 16.8895 5.89851 16.8937 5.98523 16.8735C6.02821 16.8627 6.06696 16.8391 6.09638 16.8056C6.1258 16.7722 6.14452 16.7306 6.15007 16.6862C6.15613 16.5736 6.05553 16.4904 5.99372 16.3973C5.80949 16.122 6.11492 15.8943 6.00341 15.663C5.91251 15.4647 5.73193 15.5687 5.60467 15.674C5.17926 16.0265 5.10775 16.6972 5.72344 16.8612Z" fill="#C66D6D"/>
<path d="M19.9415 2.01014C20.6323 1.98321 21.3643 2.18883 21.8249 2.71024C21.9974 2.88377 22.095 3.11916 22.0964 3.36507C22.0806 3.60986 21.8782 3.84608 21.6383 3.83017C21.3983 3.81426 21.2407 3.58538 21.0662 3.42137C20.7617 3.15955 20.3807 3.00564 19.9815 2.98319C19.5924 2.94402 18.4483 3.24267 18.3962 2.6417C18.344 2.04073 19.5573 2.02482 19.9415 2.01014Z" fill="#C66D6D"/>
<path d="M6.88708 2.67389C6.60953 2.98723 6.52348 3.43153 6.52348 3.85258C6.52194 4.18046 6.56268 4.50715 6.64468 4.82441C6.66892 4.91866 6.72831 5.03249 6.82284 5.01658C6.86094 5.00685 6.89468 4.98443 6.91859 4.95293C7.11251 4.73384 7.14645 4.41805 7.26522 4.15C7.33659 3.99063 7.43842 3.84706 7.56488 3.72755C7.69133 3.60803 7.83993 3.51492 8.00212 3.45356C8.18998 3.38502 8.46631 3.32382 8.49782 3.08637C8.52206 2.90155 8.31117 2.62004 8.17179 2.50866C7.80941 2.21613 7.17917 2.33852 6.88708 2.67389Z" fill="#C66D6D"/>
<path d="M19.6678 18.3434C19.6187 18.3591 19.5733 18.385 19.5345 18.4193C19.5016 18.4589 19.4826 18.5084 19.4806 18.56C19.4787 18.6117 19.4938 18.6625 19.5236 18.7045C19.5837 18.7868 19.6689 18.847 19.766 18.8759C20.1587 19.0105 20.5974 18.8759 20.9489 18.6555C21.3019 18.4508 21.5678 18.1218 21.6955 17.7314C21.853 17.1599 21.4979 16.6201 21.0022 17.1611C20.5732 17.6384 20.2944 18.0864 19.6678 18.3434Z" fill="#C66D6D"/>
<path d="M11.7629 14.6393L12.1168 12.5525C12.1301 12.4751 12.1245 12.3956 12.1004 12.3209C12.0764 12.2462 12.0345 12.1787 11.9786 12.1241L10.477 10.6455C10.4148 10.5816 10.3711 10.5018 10.3507 10.4146C10.3304 10.3274 10.3341 10.2363 10.3614 10.1511C10.3888 10.0659 10.4388 9.98989 10.506 9.9314C10.5731 9.8729 10.6549 9.83413 10.7424 9.81932L12.8137 9.51578C12.891 9.50437 12.9644 9.47426 13.0277 9.42802C13.0911 9.38177 13.1424 9.32076 13.1773 9.25017L14.1057 7.35057C14.1246 7.3113 14.1491 7.27502 14.1784 7.24286L14.1663 7.21593C14.1253 7.13667 14.0635 7.07028 13.9878 7.02395C13.912 6.97762 13.8252 6.95312 13.7366 6.95312C13.6481 6.95312 13.5612 6.97762 13.4855 7.02395C13.4097 7.07028 13.348 7.13667 13.307 7.21593L12.3786 9.11554C12.3441 9.18634 12.2929 9.24749 12.2295 9.2936C12.1661 9.3397 12.0924 9.36934 12.015 9.37991L9.94368 9.68346C9.8562 9.69827 9.77443 9.73704 9.70726 9.79554C9.64009 9.85403 9.5901 9.93002 9.56273 10.0152C9.53535 10.1004 9.53165 10.1916 9.55202 10.2787C9.57239 10.3659 9.61605 10.4458 9.67825 10.5096L11.1811 11.9882C11.2362 12.0433 11.2774 12.111 11.3012 12.1856C11.3251 12.2601 11.3309 12.3393 11.3181 12.4166L10.9642 14.5035C10.9513 14.5919 10.9625 14.6821 10.9968 14.7645C11.031 14.8469 11.087 14.9183 11.1585 14.9708C11.23 15.0234 11.3145 15.0552 11.4026 15.0628C11.4908 15.0704 11.5793 15.0535 11.6587 15.0139L11.8065 14.9368C11.7601 14.8451 11.7448 14.7406 11.7629 14.6393Z" fill="#6B1F1F"/>
<path d="M17.8017 10.5102C17.8583 10.4546 17.9003 10.3857 17.9241 10.3096C17.9478 10.2335 17.9525 10.1527 17.9378 10.0744C17.923 9.996 17.8892 9.92258 17.8394 9.86065C17.7897 9.79872 17.7255 9.75023 17.6526 9.71951C17.614 9.70197 17.5732 9.69002 17.5314 9.68402L16.1339 9.47961L15.4552 9.37924C15.3778 9.36878 15.3041 9.33917 15.2406 9.29306C15.1772 9.24694 15.126 9.18573 15.0916 9.11487L14.1754 7.24219C14.1461 7.27435 14.1216 7.31063 14.1026 7.3499L13.1803 9.2495C13.1454 9.32009 13.0941 9.3811 13.0308 9.42735C12.9675 9.47359 12.894 9.5037 12.8167 9.51511L10.7406 9.81865C10.6531 9.83346 10.5713 9.87223 10.5041 9.93073C10.437 9.98922 10.387 10.0652 10.3596 10.1504C10.3322 10.2356 10.3285 10.3268 10.3489 10.4139C10.3693 10.5011 10.4129 10.581 10.4751 10.6448L11.9768 12.1234C12.0327 12.178 12.0745 12.2456 12.0986 12.3202C12.1227 12.3949 12.1283 12.4744 12.115 12.5518L11.7611 14.6387C11.7427 14.7403 11.758 14.8453 11.8047 14.9373L13.5136 14.0291C13.5823 13.9924 13.6589 13.9731 13.7366 13.9731C13.8144 13.9731 13.8909 13.9924 13.9596 14.0291L14.2626 14.1895L15.8164 15.0144C15.8958 15.0543 15.9844 15.0715 16.0728 15.0641C16.1612 15.0567 16.2458 15.0249 16.3175 14.9723C16.3893 14.9197 16.4453 14.8482 16.4796 14.7656C16.5139 14.6831 16.5252 14.5926 16.5121 14.504L16.157 12.4171C16.1444 12.3398 16.1503 12.2605 16.1744 12.1859C16.1984 12.1114 16.2398 12.0438 16.2951 11.9888L17.8017 10.5102Z" fill="#872E2E"/>
<path d="M9.21781 7.63532C9.19026 7.67989 9.17358 7.73043 9.16916 7.78277C9.16473 7.83512 9.17268 7.88778 9.19236 7.93642C9.22913 7.97897 9.27727 8.00991 9.33101 8.02554C9.38475 8.04117 9.44181 8.04083 9.49535 8.02455C9.89046 7.94988 10.1813 7.6084 10.5522 7.45173C10.7558 7.36483 10.9885 7.32933 11.1582 7.19102C11.2422 7.11296 11.3096 7.01844 11.3563 6.91323C11.403 6.80802 11.4279 6.69431 11.4297 6.57904C11.4491 6.25958 11.2249 6.13596 10.9546 6.04416C10.6843 5.95236 10.5449 6.04416 10.3256 6.21062C9.84707 6.58747 9.46683 7.07651 9.21781 7.63532Z" fill="#C66D6D"/>
</svg>
