<svg width="42" height="42" viewBox="0 0 42 42" fill="none" xmlns="http://www.w3.org/2000/svg">
<path d="M26.0435 21.8939C27.7197 19.7825 28.5705 17.5794 28.5705 15.3456C28.5705 13.2881 27.9136 11.588 26.618 10.2906C25.3224 8.99321 23.4123 8.33594 20.9349 8.33594C18.5679 8.33594 16.5717 9.05808 15.0131 10.4828C13.4545 11.9075 12.5794 14.0568 12.451 16.8474L12.4219 17.4876H18.7085L18.7279 16.8964C18.7643 15.8132 18.94 15.0237 19.2491 14.5513C19.4127 14.3065 19.7217 13.9687 20.5168 13.9687C21.2804 13.9687 22.0621 14.1939 22.0621 15.8658C22.0621 17.5928 20.4344 20.8241 12.68 26.414L12.4267 26.5976V31.4409H28.9099V25.9942H21.8173C23.3946 24.8165 24.815 23.4383 26.0435 21.8939ZM27.6918 27.2182V30.2169H13.6327V27.2267C20.1144 22.5169 23.268 18.7997 23.268 15.8658C23.268 13.1498 21.5397 12.7447 20.5107 12.7447C19.2394 12.7447 18.5715 13.3567 18.2322 13.8756C17.8589 14.446 17.6335 15.2306 17.545 16.2636H13.7066C13.909 14.129 14.6204 12.4925 15.8264 11.3934C17.1777 10.1609 18.8491 9.55746 20.9349 9.55746C23.0802 9.55746 24.7055 10.0948 25.7647 11.1486C26.824 12.2025 27.3585 13.5966 27.3585 15.3346C27.3585 17.2832 26.5974 19.2293 25.0969 21.1179C23.5328 23.08 21.6471 24.7566 19.5217 26.075L17.7038 27.2071L27.6918 27.2182Z" fill="#6B1F1F"/>
<path d="M20.6645 41.7374C9.27178 41.7374 0 32.3753 0 20.8687C0 9.36216 9.26935 0 20.6645 0C32.0597 0 41.3291 9.36094 41.3291 20.8687C41.3291 32.3765 32.0585 41.7374 20.6645 41.7374ZM20.6645 1.22397C9.93837 1.22397 1.212 10.0366 1.212 20.8687C1.212 31.7009 9.93837 40.5135 20.6645 40.5135C31.3907 40.5135 40.1171 31.7009 40.1171 20.8687C40.1171 10.0366 31.3907 1.22397 20.6645 1.22397Z" fill="#6B1F1F"/>
<path d="M23.0449 39.7581C22.8534 39.7581 22.6619 39.7581 22.4692 39.7434C20.7069 39.6565 19.4307 39.0653 18.7798 38.0299C17.7533 36.4008 18.6368 34.2355 20.107 33.2405C20.4822 32.9829 20.8898 32.7771 21.319 32.6285C22.5722 32.2025 23.8411 32.3225 25.0677 32.4388C26.0373 32.5306 26.9584 32.6175 27.8747 32.4547C30.5205 31.9883 32.1433 30.9455 32.833 29.2723L33.6813 27.2148L33.7662 29.4412C33.8753 32.2882 32.6039 35.1486 30.3726 37.096C28.4043 38.8046 25.767 39.7581 23.0449 39.7581ZM21.6305 33.5636C21.2823 33.6809 20.9516 33.8456 20.6475 34.0532C19.5798 34.7778 18.8853 36.3787 19.5979 37.5048C20.1979 38.4558 21.5165 38.7141 22.5176 38.763C25.1937 38.8952 27.825 38.0176 29.7351 36.3555C31.2363 35.0388 32.2631 33.2568 32.6548 31.2882C31.6258 32.3506 30.0829 33.0618 28.0407 33.429C26.996 33.6138 25.9694 33.5171 24.9756 33.4228C23.7987 33.3115 22.6861 33.2062 21.628 33.566L21.6305 33.5636Z" fill="#6B1F1F"/>
<path d="M14.4233 38.4302C12.6453 38.4302 10.6903 37.0153 9.58981 35.915C7.46276 33.7865 6.20229 31.3471 5.84353 28.6642L5.50781 26.1562L6.74526 28.3594C7.88575 30.3875 10.0661 31.155 12.0502 31.6372L12.238 31.6837C13.0864 31.8881 13.9603 32.1011 14.7759 32.5062C15.8134 33.0227 16.5745 33.7975 16.9212 34.6873C17.3526 35.7999 17.0666 37.1059 16.2388 37.7913C15.7278 38.215 15.0843 38.4414 14.4233 38.4302ZM7.25915 30.4916C7.82878 32.1966 8.83474 33.7791 10.2722 35.2149C11.4539 36.396 14.0924 38.2956 15.6231 37.0276C16.1273 36.6102 16.297 35.7546 16.0182 35.0374C15.7613 34.3752 15.1698 33.7853 14.3469 33.3777C13.6294 33.0203 12.844 32.8293 12.0126 32.6286L11.8223 32.5821C10.3388 32.2259 8.6081 31.6678 7.25915 30.4916Z" fill="#6B1F1F"/>
<path d="M33.7148 34.3441L33.9791 32.7076C34.2471 31.0824 34.3401 29.4327 34.2566 27.7873C34.2396 27.4641 34.2166 27.1312 34.1936 26.8081C34.1063 25.5841 34.0154 24.3197 34.276 23.0737C34.5026 21.9917 35.3668 19.8841 37.0091 19.6576C37.8805 19.5352 38.3871 19.889 38.6598 20.206C39.7409 21.463 39.1107 24.4691 38.638 26.1496C37.9158 28.7375 36.6118 31.1221 34.8275 33.1177L33.7148 34.3441ZM35.2298 23.2769C34.9971 24.3883 35.0783 25.5302 35.1656 26.7383C35.1886 27.0663 35.2129 27.4042 35.2298 27.7371C35.2876 28.8768 35.2641 30.0193 35.1595 31.1556C36.3133 29.5654 37.1773 27.7803 37.7108 25.884C38.3907 23.4605 38.478 21.4838 37.9326 20.8486C37.8235 20.7262 37.6248 20.5621 37.146 20.6282C36.1243 20.7702 35.4286 22.3283 35.2298 23.2769Z" fill="#6B1F1F"/>
<path d="M8.65558 17.1584C8.52606 17.1585 8.39661 17.1519 8.26774 17.1388C6.63518 16.9772 5.05595 15.768 4.34087 14.1303C3.3943 11.9614 4.69114 9.25642 7.99383 6.5135C9.37095 5.36784 10.957 4.50584 12.6624 3.9762L14.0368 3.5625L13.1957 4.73751C13.0248 4.97619 12.8588 5.21731 12.6976 5.46333C13.6197 4.92795 14.6204 4.54451 15.6621 4.32748L17.7674 3.89542L16.05 5.19895C15.4142 5.6847 14.867 6.27865 14.4332 6.95413C14.9573 6.79033 15.5055 6.71951 16.0536 6.74483L17.5177 6.82316L16.296 7.642C14.7784 8.66222 13.6399 10.1633 13.06 11.9088C12.9533 12.2319 12.8661 12.5611 12.7727 12.91C12.5449 13.7668 12.3098 14.6517 11.7765 15.4191C10.9935 16.5525 9.89667 17.1584 8.65558 17.1584ZM11.5644 5.43151C10.5026 5.90595 9.50942 6.52356 8.61195 7.26747C6.91515 8.67993 4.21119 11.3971 5.23048 13.7325C5.80981 15.0568 7.06908 16.0336 8.3647 16.1621C9.0919 16.2343 10.1476 16.0678 10.985 14.8585C11.4201 14.2319 11.6238 13.4669 11.8395 12.6554C11.9316 12.3078 12.0274 11.9479 12.1437 11.5967C12.591 10.2537 13.3373 9.03228 14.3253 8.02633C14.0824 8.13041 13.8512 8.26049 13.6357 8.41433L12.3255 9.34944L12.8903 7.8464C13.159 7.1472 13.5264 6.49089 13.9811 5.89784C13.029 6.32766 12.1583 6.92158 11.408 7.65302L9.29794 9.71663L10.6384 7.07775C10.9232 6.51595 11.2311 5.96638 11.5571 5.43151H11.5644Z" fill="#6B1F1F"/>
<path d="M9.46008 26.0219C9.34184 26.022 9.22369 26.0155 9.10618 26.0023C7.76207 25.8542 6.56098 24.7392 6.23738 23.3512C5.95377 22.1089 6.25314 20.8873 7.06154 20.0012C7.86994 19.115 9.06376 18.6989 10.3145 18.8825C10.8558 18.9742 11.3902 19.1026 11.9144 19.2668C12.2986 19.377 12.661 19.4822 13.0318 19.5593C14.3513 19.8337 15.7201 19.7354 16.9878 19.2754L18.1695 18.8458L17.5792 19.9632C16.2252 22.5003 14.0402 24.4832 11.3981 25.5727C10.866 25.7893 10.1873 26.0219 9.46008 26.0219ZM7.18274 23.1297C7.41059 24.126 8.26384 24.9252 9.21041 25.0293C9.8564 25.1003 10.5242 24.8726 11.0284 24.6621C13.0836 23.8159 14.8477 22.3791 16.1018 20.5299C15.0209 20.7445 13.9084 20.7395 12.8294 20.5153C12.4222 20.4308 12.0247 20.3157 11.6393 20.2044C11.1571 20.0517 10.665 19.9327 10.1667 19.8482C9.73133 19.7732 9.28436 19.8081 8.86564 19.9499C8.44692 20.0917 8.06946 20.336 7.76692 20.6609C7.18031 21.3059 6.96337 22.2043 7.17547 23.126L7.18274 23.1297Z" fill="#6B1F1F"/>
<path d="M37.3498 19.6608L36.5269 17.2447C35.9984 15.689 34.5428 14.3512 32.6339 13.6633C32.3346 13.5556 32.0279 13.4626 31.7055 13.3635C30.622 13.0305 29.5009 12.6878 28.6828 11.8102C27.7702 10.8311 27.0394 8.56671 27.9726 7.24359C29.0501 5.71485 31.5783 5.88131 32.9478 6.47494C33.9853 6.92414 34.8725 7.84212 35.6615 9.27906C36.9752 11.669 37.6016 14.3822 37.4698 17.1125L37.3498 19.6608ZM30.7905 7.03185C29.9627 7.03185 29.1579 7.25338 28.764 7.81152C28.158 8.67442 28.7252 10.4247 29.3906 11.1383C30.033 11.8261 30.9832 12.1174 31.9891 12.4259C32.3103 12.5238 32.6412 12.6254 32.9587 12.7417C34.3962 13.2582 35.6142 14.1137 36.4566 15.1602C36.281 13.2635 35.7216 11.4234 34.8131 9.75396C34.1319 8.51408 33.3963 7.73563 32.5636 7.37456C32 7.14586 31.3979 7.02948 30.7905 7.03185Z" fill="#6B1F1F"/>
<path d="M24.5773 8.63711C24.351 8.63817 24.1253 8.61312 23.9046 8.56245C22.1351 8.14385 21.117 6.88683 20.1292 5.67143C19.9377 5.43643 19.7402 5.19285 19.5414 4.9603C18.8142 4.11331 18.087 3.65799 17.3707 3.60536L15.8242 3.49153L17.1574 2.69595C18.8263 1.70086 20.9728 1.30552 23.2004 1.58214C23.8098 1.64591 24.4085 1.78824 24.9821 2.00563C25.8716 2.35903 26.6482 2.95165 27.2279 3.71919C27.6048 4.21612 28.1975 5.21489 27.9272 6.3287C27.5842 7.7583 25.9723 8.63711 24.5773 8.63711ZM18.7306 3.01786C19.3197 3.35256 19.8431 3.79355 20.2747 4.31894C20.4819 4.56373 20.6843 4.80853 20.8807 5.05332C21.8042 6.19284 22.6781 7.26871 24.1264 7.61142C25.1578 7.85622 26.731 7.16467 26.9891 6.09737C27.1103 5.57229 26.9237 4.92236 26.4619 4.31404C25.989 3.68916 25.3556 3.20702 24.6306 2.91994C24.1336 2.73108 23.6147 2.60766 23.0865 2.55275C21.5267 2.36058 20.0202 2.5246 18.7306 3.01786Z" fill="#6B1F1F"/>
<path d="M22.5117 3.90234C23.7865 4.17242 25.0282 4.58286 26.2144 5.12632C28.6014 6.20468 30.7854 7.6926 32.6695 9.52405C33.6122 10.4318 34.4531 11.4415 35.1771 12.535C34.1651 11.7101 33.1809 10.8888 32.1713 10.1054C31.1617 9.3221 30.1376 8.57058 29.0892 7.85455C28.0408 7.13853 26.9658 6.458 25.8677 5.80807C24.7697 5.15814 23.6486 4.54003 22.5117 3.90234Z" fill="#6B1F1F"/>
<path d="M7.36512 13.6602C6.37409 14.1798 5.45314 14.8256 4.6248 15.5818C3.80549 16.3358 3.11344 17.2439 2.71348 18.2745C2.66985 18.4043 2.61773 18.5328 2.57895 18.6638L2.47593 19.064C2.42126 19.331 2.38722 19.6019 2.37412 19.8743C2.36685 20.4091 2.4832 20.9648 2.80559 21.3504C2.96235 21.5416 3.1695 21.6842 3.40311 21.7616C3.6386 21.8355 3.88884 21.8477 4.1303 21.7971C4.62916 21.6859 5.07552 21.4061 5.39563 21.004C5.43627 20.9557 5.47352 20.9045 5.50713 20.851C5.54357 20.8002 5.57599 20.7466 5.60409 20.6907C5.66338 20.5846 5.70939 20.4716 5.74105 20.3541C5.80948 20.129 5.81825 19.8897 5.7665 19.6601C5.74217 19.5625 5.69709 19.4714 5.63439 19.3932C5.57355 19.3226 5.49659 19.268 5.41017 19.2341C5.20027 19.1702 4.97597 19.1732 4.76781 19.2427C4.64377 19.2743 4.52223 19.3152 4.40421 19.3651C4.28431 19.4131 4.16699 19.4674 4.05274 19.5279C3.82638 19.6521 3.61213 19.7976 3.4128 19.9624C3.30857 20.0395 3.21888 20.135 3.12071 20.2206C3.02254 20.3063 2.93527 20.4042 2.85407 20.5071C2.68331 20.7056 2.5285 20.9177 2.39109 21.1411C2.11817 21.5898 1.91387 22.0775 1.78509 22.5878C1.65782 23.103 1.59391 23.6321 1.59481 24.1631C1.59481 25.234 1.81418 26.3087 2.12445 27.3601L1.19121 27.6245C0.903969 26.5057 0.706414 25.3369 0.747621 24.1447C0.767349 23.5457 0.860992 22.9516 1.02638 22.3761C1.1956 21.7967 1.45014 21.2462 1.78145 20.7433C2.44563 19.747 3.43341 18.9379 4.62601 18.6429C4.785 18.6058 4.94763 18.5869 5.11081 18.5866C5.28924 18.5874 5.46583 18.6231 5.63075 18.6919C5.8035 18.7672 5.95508 18.8845 6.07192 19.0334C6.18093 19.1782 6.25744 19.3453 6.29614 19.523C6.36163 19.8492 6.33987 20.1872 6.23312 20.5022C6.18497 20.6549 6.11864 20.8013 6.03556 20.9379C5.95593 21.0719 5.86468 21.1984 5.76286 21.3161C5.35944 21.7877 4.80798 22.1053 4.2006 22.2157C3.8896 22.269 3.57025 22.2403 3.27342 22.1325C2.97596 22.0234 2.71563 21.8305 2.5232 21.5768C2.33787 21.3311 2.20798 21.0475 2.14263 20.7457C2.07798 20.4552 2.05391 20.1569 2.07112 19.8596C2.09561 19.5708 2.14221 19.2843 2.2105 19.0028L2.3317 18.5879C2.37776 18.4508 2.43593 18.3186 2.48684 18.184C2.96054 17.139 3.66543 16.2177 4.54723 15.4912C5.40531 14.7619 6.3523 14.1466 7.36512 13.6602Z" fill="#6B1F1F"/>
<path d="M9.55138 22.6098C8.35793 22.4838 7.15491 22.7303 6.10446 23.316C5.06763 23.874 4.22504 24.7394 3.69016 25.7958C3.19208 26.8428 3.02292 28.0185 3.20536 29.1654C3.36493 30.2888 3.86102 31.3361 4.62703 32.1666L3.89983 32.8189C3.07426 31.8047 2.57713 30.5588 2.47574 29.2498C2.35844 27.969 2.63208 26.6825 3.2599 25.5632C3.9007 24.4781 4.85539 23.6174 5.99538 23.0969C7.10366 22.5717 8.34459 22.4017 9.55138 22.6098Z" fill="#6B1F1F"/>
<path d="M10.6797 33.3711C11.9402 34.1878 13.2995 34.8374 14.7241 35.3037C16.1282 35.7588 17.5783 36.0536 19.0473 36.1826C20.5257 36.3064 22.0116 36.3097 23.4905 36.1923C24.9813 36.0871 26.472 35.879 27.9858 35.6771C26.5707 36.2718 25.093 36.7013 23.5814 36.9573C22.0562 37.2234 20.5034 37.2905 18.9613 37.1568C17.4087 37.022 15.8872 36.6386 14.4538 36.021C13.0322 35.3955 11.7075 34.5155 10.6797 33.3711Z" fill="#6B1F1F"/>
<path d="M36.4379 25.2352C36.4106 24.2523 36.4511 23.2687 36.5591 22.2915C36.6912 21.3124 36.9518 20.3332 37.5045 19.4446C37.653 19.2151 37.8381 19.012 38.0523 18.8436C38.1692 18.7535 38.2976 18.6798 38.4341 18.6245C38.5799 18.5675 38.7347 18.5373 38.891 18.5352C39.2027 18.5366 39.5056 18.6392 39.7552 18.8277C39.9815 18.9944 40.1792 19.1974 40.3406 19.4287C40.6624 19.8723 40.8915 20.3775 41.0138 20.9135C41.1361 21.4494 41.1491 22.0049 41.052 22.5461L40.1054 22.3331C40.2144 21.9149 40.2384 21.4787 40.1759 21.0508C40.1134 20.6229 39.9657 20.2123 39.7418 19.8436C39.5225 19.4764 39.211 19.1667 38.8813 19.1471C38.6981 19.1373 38.5168 19.1894 38.3662 19.2952C38.1868 19.4139 38.0283 19.562 37.8972 19.7334C37.8262 19.8225 37.761 19.9161 37.702 20.0137C37.6427 20.1141 37.5808 20.2108 37.5227 20.3173C37.4645 20.4237 37.4087 20.5229 37.3615 20.6318C37.3142 20.7408 37.2597 20.846 37.2172 20.9574C37.0383 21.4032 36.8983 21.8639 36.7991 22.3344C36.612 23.2916 36.4914 24.2609 36.4379 25.2352Z" fill="#6B1F1F"/>
<path d="M30.751 24.7854C30.285 24.7924 29.8253 24.6759 29.4178 24.4476C28.6821 24.0192 28.1864 23.1465 28.1246 22.1673C28.0603 21.1343 28.4264 20.2591 28.7815 19.4121C28.942 19.0477 29.0836 18.6751 29.2057 18.2959C29.6302 16.9055 29.5777 15.4112 29.0566 14.0548L28.6809 13.0977L29.6505 13.4085C30.6901 13.746 31.6441 14.3087 32.4459 15.0573C33.2477 15.806 33.8779 16.7224 34.2924 17.7426C34.8803 19.2114 34.9312 20.7879 34.433 22.0706C33.8513 23.5675 32.4817 24.6544 31.0261 24.7731C30.9328 24.7817 30.8419 24.7854 30.751 24.7854ZM30.2662 14.7145C30.555 15.9935 30.507 17.3266 30.1268 18.5811C29.9952 18.9932 29.8423 19.3981 29.6687 19.794C29.3426 20.57 29.036 21.3032 29.0869 22.1049C29.1281 22.7609 29.4384 23.3288 29.8953 23.5981C30.2174 23.7681 30.5824 23.8376 30.9437 23.7976C32.0345 23.707 33.0768 22.8699 33.5264 21.7169C33.9361 20.6643 33.89 19.3509 33.3895 18.1135C32.7911 16.6362 31.6822 15.4284 30.2686 14.7145H30.2662Z" fill="#6B1F1F"/>
<path d="M25.2939 26.1359C25.7841 26.1548 26.2748 26.1116 26.7544 26.0074C26.9957 25.9541 27.2337 25.8863 27.467 25.8042L27.8112 25.6646C27.9324 25.6181 28.0342 25.5545 28.147 25.5006C28.2015 25.4713 28.2597 25.4468 28.3118 25.4137L28.4706 25.3146C28.5787 25.2524 28.6831 25.1837 28.7832 25.109C28.8826 25.0331 28.9857 24.9609 29.0838 24.8825L29.365 24.6304C29.4131 24.5898 29.458 24.5456 29.4995 24.4982L29.6292 24.3587L29.7589 24.2204C29.8013 24.1726 29.8377 24.1212 29.8801 24.071C29.9577 23.9694 30.0389 23.8715 30.1128 23.7675L30.3201 23.4444C30.3891 23.3362 30.4514 23.2238 30.5067 23.1078L30.5964 22.9364C30.6281 22.88 30.6561 22.8216 30.68 22.7614C30.7853 22.5245 30.8772 22.2818 30.9551 22.0344C30.9927 21.912 31.0351 21.7896 31.0703 21.6598C31.1054 21.5301 31.1369 21.4052 31.1636 21.2767C31.2218 21.0197 31.2703 20.759 31.3091 20.497C31.4563 19.4412 31.509 18.374 31.4666 17.3086C31.5897 18.3761 31.6177 19.4526 31.5502 20.5252C31.5308 20.7945 31.5014 21.0633 31.4618 21.3318C31.4436 21.4664 31.4206 21.5998 31.3963 21.7345C31.3721 21.8691 31.3345 22.0001 31.3042 22.1335C31.2424 22.4014 31.1651 22.6654 31.0727 22.9242C31.0519 22.9897 31.0272 23.0538 30.9988 23.1163L30.9164 23.3073C30.8665 23.4361 30.8086 23.5616 30.7431 23.683L30.5455 24.0502C30.474 24.1726 30.394 24.284 30.3176 24.4003C30.2789 24.4578 30.2425 24.5227 30.1964 24.5741L30.0655 24.7369L29.9346 24.9009C29.8926 24.957 29.8469 25.0102 29.7977 25.06L29.5056 25.3636C29.4038 25.459 29.2959 25.5484 29.1905 25.6426C29.0842 25.7349 28.9729 25.8211 28.8572 25.9009L28.6863 26.0233C28.6293 26.0649 28.5651 26.0979 28.5081 26.1359C28.3869 26.2069 28.2657 26.2864 28.1445 26.3501L27.7652 26.5386C26.983 26.8858 26.1429 27.0806 25.2891 27.1126L25.2939 26.1359Z" fill="#6B1F1F"/>
<path d="M31.2749 29.181C30.9393 29.181 30.6113 29.0805 30.3322 28.8922C30.0532 28.704 29.8357 28.4363 29.7073 28.1232C29.5789 27.8101 29.5453 27.4656 29.6107 27.1332C29.6762 26.8008 29.8378 26.4954 30.0751 26.2558C30.3124 26.0162 30.6147 25.853 30.9439 25.7868C31.273 25.7207 31.6142 25.7546 31.9242 25.8843C32.2343 26.014 32.4993 26.2337 32.6857 26.5155C32.8722 26.7973 32.9717 27.1286 32.9717 27.4675C32.9717 27.9219 32.7929 28.3578 32.4747 28.6791C32.1565 29.0005 31.7249 29.181 31.2749 29.181ZM31.2749 26.7331C31.1311 26.7331 30.9905 26.7762 30.8709 26.8569C30.7513 26.9375 30.6581 27.0522 30.6031 27.1864C30.548 27.3206 30.5336 27.4683 30.5617 27.6107C30.5898 27.7532 30.659 27.8841 30.7607 27.9868C30.8624 28.0895 30.992 28.1594 31.133 28.1877C31.2741 28.2161 31.4203 28.2015 31.5532 28.146C31.6861 28.0904 31.7996 27.9962 31.8796 27.8755C31.9595 27.7547 32.0021 27.6127 32.0021 27.4675C32.0021 27.2727 31.9255 27.0859 31.7891 26.9482C31.6527 26.8105 31.4678 26.7331 31.2749 26.7331Z" fill="#6B1F1F"/>
<path d="M9.8218 30.1615C9.4862 30.1615 9.15814 30.061 8.87911 29.8727C8.60007 29.6844 8.38259 29.4168 8.25416 29.1037C8.12573 28.7906 8.09213 28.446 8.1576 28.1136C8.22308 27.7812 8.38468 27.4759 8.62198 27.2363C8.85928 26.9966 9.16162 26.8334 9.49077 26.7673C9.81991 26.7012 10.1611 26.7351 10.4711 26.8648C10.7812 26.9945 11.0462 27.2141 11.2326 27.4959C11.4191 27.7777 11.5186 28.109 11.5186 28.4479C11.5186 28.9024 11.3398 29.3383 11.0216 29.6596C10.7034 29.981 10.2718 30.1615 9.8218 30.1615ZM9.8218 27.7136C9.67797 27.7136 9.53737 27.7566 9.41779 27.8373C9.2982 27.918 9.20499 28.0327 9.14995 28.1669C9.09491 28.3011 9.08051 28.4488 9.10857 28.5912C9.13663 28.7337 9.20589 28.8645 9.30759 28.9672C9.40929 29.0699 9.53886 29.1399 9.67993 29.1682C9.82099 29.1965 9.9672 29.182 10.1001 29.1264C10.233 29.0708 10.3465 28.9767 10.4264 28.8559C10.5063 28.7352 10.549 28.5932 10.549 28.4479C10.549 28.2532 10.4724 28.0664 10.336 27.9287C10.1996 27.7909 10.0147 27.7136 9.8218 27.7136Z" fill="#6B1F1F"/>
</svg>
