<svg width="33" height="32" viewBox="0 0 33 32" fill="none" xmlns="http://www.w3.org/2000/svg">
<ellipse cx="16.1503" cy="15.6965" rx="15.2363" ry="15.1457" fill="#EFE2BD"/>
<path d="M20.516 15.4331C21.0985 15.1297 21.6149 14.7146 22.0353 14.2117C22.7849 13.3289 23.1647 12.1645 23.1647 10.7475C23.1776 9.65619 22.8808 8.58334 22.3084 7.65212C21.7375 6.73468 20.8981 6.00608 19.8125 5.48646C18.7472 4.97689 17.4649 4.71875 16.0007 4.71875C13.6734 4.71875 11.8248 5.33336 10.5066 6.54359C9.18841 7.75381 8.46021 9.50602 8.36019 11.7343L8.33322 12.3176H14.1352L14.1734 11.8002C14.2206 11.1621 14.3982 10.6548 14.714 10.2927C14.9972 9.96418 15.3815 9.80326 15.8883 9.80326C16.3558 9.80326 16.7087 9.92842 16.966 10.1843C17.2233 10.4402 17.3492 10.819 17.3492 11.3398C17.3492 11.8605 17.2177 12.2159 16.948 12.4796C16.5457 12.873 15.804 13.0641 14.7364 13.0384H13.3036V18.0446H14.7645C17.7425 18.0446 17.7425 19.4046 17.7425 19.9164C17.7425 20.4282 17.5976 20.8104 17.2986 21.1188C16.9997 21.4272 16.5974 21.5658 16.0569 21.5658C15.3568 21.5658 14.8511 21.3803 14.5106 20.9993C14.151 20.597 13.9487 20.0181 13.9217 19.2795L13.8981 18.7442H8.07812L8.10734 19.3309C8.22646 21.7725 9.02658 23.6276 10.4841 24.8434C11.9214 26.0424 13.8711 26.6503 16.2816 26.6503C17.7672 26.6503 19.0663 26.3821 20.1406 25.8524C21.1904 25.3552 22.0689 24.5606 22.6657 23.5683C23.2495 22.561 23.5482 21.4153 23.5299 20.2528C23.5299 18.0413 22.5174 16.4243 20.516 15.4331ZM21.6971 22.9995C21.2107 23.8042 20.496 24.4481 19.6428 24.8501C18.7236 25.3027 17.5931 25.5317 16.2816 25.5317C14.1465 25.5317 12.435 25.0121 11.2067 23.9863C10.1121 23.0733 9.46373 21.6876 9.27381 19.8605H12.8474C12.9598 20.6215 13.234 21.2518 13.67 21.7401C14.2319 22.3659 15.032 22.6822 16.0569 22.6822C16.9031 22.6822 17.5919 22.4196 18.1021 21.8999C18.6123 21.3803 18.8663 20.7165 18.8663 19.9164C18.8663 18.5531 18.1549 16.9272 14.7645 16.9272H14.4274V14.1614H14.723C16.1142 14.186 17.0975 13.8966 17.7324 13.2764C18.2212 12.7992 18.4696 12.1477 18.4696 11.3398C18.4696 10.5319 18.2336 9.86473 17.7571 9.39427C17.2807 8.92381 16.6547 8.68579 15.8849 8.68579C15.0421 8.68579 14.36 8.98192 13.8565 9.56524C13.4663 10.0343 13.2098 10.5989 13.1137 11.2001H9.51767C9.69073 9.55742 10.2751 8.26897 11.2606 7.36493C12.3653 6.35026 13.9577 5.83623 15.9928 5.83623C17.2874 5.83623 18.4055 6.05972 19.3169 6.4933C20.2069 6.91906 20.8902 7.50685 21.3397 8.23992C21.8028 8.9964 22.0416 9.86759 22.0286 10.7531C22.0286 11.8963 21.7375 12.8182 21.1644 13.4932C20.6136 14.1622 19.8461 14.62 18.9933 14.7883L18.5438 14.88V15.8857L18.9337 16.0097C21.261 16.754 22.3927 18.1419 22.3927 20.2561C22.4137 21.2162 22.1734 22.1641 21.6971 22.9995V22.9995Z" fill="#6B1F1F"/>
<path d="M16.0159 31.8481C7.1921 31.8481 0 24.704 0 15.924C0 7.14402 7.1921 0 16.0159 0C24.8397 0 32.0273 7.14291 32.0273 15.924C32.0273 24.7052 24.8465 31.8481 16.0159 31.8481ZM16.0159 1.11748C7.80568 1.11748 1.12601 7.75975 1.12601 15.924C1.12601 24.0883 7.80568 30.7306 16.0159 30.7306C24.2262 30.7306 30.9036 24.0883 30.9036 15.924C30.9036 7.75975 24.2262 1.11748 16.0159 1.11748V1.11748Z" fill="#6B1F1F"/>
</svg>
