<svg width="33" height="32" viewBox="0 0 33 32" fill="none" xmlns="http://www.w3.org/2000/svg">
<ellipse cx="16.1464" cy="16.0207" rx="15.2363" ry="15.1457" fill="#EFE2BD"/>
<path d="M10.2148 11.0561H13.1928V26.3376H19.3735V5.46875H10.2148V11.0561ZM11.3386 6.58623H18.2498V25.2201H14.3166V9.93865H11.3386V6.58623Z" fill="#6B1F1F"/>
<path d="M16.0159 31.8481C7.1921 31.8481 0 24.704 0 15.924C0 7.14402 7.1921 0 16.0159 0C24.8397 0 32.0273 7.1429 32.0273 15.924C32.0273 24.7052 24.8465 31.8481 16.0159 31.8481ZM16.0159 1.11748C7.80568 1.11748 1.12601 7.75975 1.12601 15.924C1.12601 24.0883 7.80568 30.7306 16.0159 30.7306C24.2262 30.7306 30.9036 24.0883 30.9036 15.924C30.9036 7.75975 24.2262 1.11748 16.0159 1.11748V1.11748Z" fill="#6B1F1F"/>
</svg>
