<svg width="42" height="42" viewBox="0 0 42 42" fill="none" xmlns="http://www.w3.org/2000/svg">
<path d="M20.6632 9.27344C17.4963 9.27344 15.1474 10.3554 13.6809 12.4888C12.2617 14.5524 11.543 17.3627 11.543 20.84C11.543 24.3369 12.2617 27.1618 13.6797 29.2352C15.1462 31.3796 17.4963 32.4677 20.6632 32.4677C23.8084 32.4677 26.1524 31.3808 27.6286 29.2364C29.0587 27.163 29.7835 24.3405 29.7835 20.84C29.7835 17.3614 29.0563 14.5512 27.6286 12.4864C26.1512 10.3542 23.8072 9.27344 20.6632 9.27344ZM26.6348 28.5326C25.3803 30.3539 23.4266 31.2388 20.6632 31.2388C17.8757 31.2388 15.9207 30.3539 14.6772 28.5339C13.401 26.6698 12.755 24.0786 12.755 20.8351C12.755 17.6111 13.401 15.0371 14.676 13.1816C15.9207 11.3713 17.8781 10.4888 20.6632 10.4888C23.4266 10.4888 25.3803 11.3689 26.6348 13.1816C27.9195 15.0359 28.574 17.6099 28.574 20.8326C28.5715 24.0823 27.9207 26.6722 26.6348 28.5326Z" fill="#6B1F1F"/>
<path d="M20.6627 14.2305C18.6605 14.2305 17.7745 15.2745 17.383 16.1509C16.8776 17.2806 16.6328 18.8142 16.6328 20.8399C16.6328 22.884 16.8752 24.4323 17.3818 25.5718C17.7721 26.4555 18.6593 27.5106 20.6627 27.5106C22.6431 27.5106 23.5157 26.4531 23.8987 25.5669C24.392 24.4286 24.632 22.8815 24.632 20.8399C24.632 18.7983 24.3896 17.2586 23.8975 16.1386C23.5133 15.2672 22.6395 14.2305 20.6627 14.2305ZM22.7885 25.0773C22.4322 25.9023 21.7559 26.2866 20.6627 26.2866C19.5452 26.2866 18.8544 25.901 18.4884 25.0724C18.0605 24.1067 17.8448 22.682 17.8448 20.8399C17.8448 19.0174 18.0605 17.6099 18.4872 16.6539C18.8508 15.8351 19.544 15.4544 20.6688 15.4544C22.1074 15.4544 22.5728 16.1289 22.7958 16.6368C23.214 17.5829 23.4261 18.9966 23.4261 20.8399C23.4261 22.6832 23.2067 24.1091 22.7885 25.0773Z" fill="#6B1F1F"/>
<path d="M20.6645 41.7374C9.27178 41.7374 0 32.3753 0 20.8687C0 9.36216 9.26935 0 20.6645 0C32.0597 0 41.3291 9.36094 41.3291 20.8687C41.3291 32.3765 32.0585 41.7374 20.6645 41.7374ZM20.6645 1.22397C9.93837 1.22397 1.212 10.0366 1.212 20.8687C1.212 31.7009 9.93837 40.5135 20.6645 40.5135C31.3907 40.5135 40.1171 31.7009 40.1171 20.8687C40.1171 10.0366 31.3907 1.22397 20.6645 1.22397Z" fill="#6B1F1F"/>
<path d="M27.4023 27.6075C28.0399 26.3481 28.3344 24.8964 28.5889 23.4289C28.8434 21.9613 29.0737 20.4399 29.6385 19.0079C29.71 18.8304 29.7779 18.6505 29.8663 18.4791L29.9875 18.2209L30.0518 18.0911L30.1233 17.9687C30.2157 17.8006 30.3164 17.6372 30.4251 17.4792L30.5851 17.2405L30.7596 17.0128C31.2318 16.4108 31.7864 15.8796 32.4067 15.4351C33.6299 14.5483 35.0785 14.0328 36.582 13.9492C35.1078 14.1109 33.7098 14.6939 32.5521 15.6297C31.4093 16.5461 30.5566 17.7799 30.099 19.1793C29.6336 20.5672 29.493 22.047 29.3137 23.5378C29.2252 24.2844 29.1258 25.0384 28.9707 25.7936C28.8206 26.5624 28.5898 27.3129 28.2823 28.0322L27.4023 27.6075Z" fill="#6B1F1F"/>
<path d="M32.7878 18.9164C32.3032 18.9223 31.8208 18.8479 31.3601 18.6961C30.5711 18.4207 30.016 17.9017 29.753 17.1943C29.5856 16.768 29.5228 16.3072 29.5699 15.8511C29.6169 15.3951 29.7725 14.9573 30.0232 14.575C30.8534 13.2592 32.6278 12.4661 33.9513 12.362C35.1718 12.2678 36.4141 12.493 37.4116 12.6742C37.6128 12.7109 38.2236 12.821 38.4018 13.3706C38.4612 13.5849 38.4574 13.812 38.3909 14.0242C37.9206 15.8859 36.9074 17.3742 35.5378 18.2163C34.8712 18.6263 33.8192 18.9164 32.7878 18.9164ZM34.0265 13.3388C32.9684 13.422 31.4934 14.067 30.8401 15.1013C30.6713 15.356 30.5667 15.6485 30.5355 15.9533C30.5042 16.2582 30.5472 16.5661 30.6607 16.8504C30.8207 17.2812 31.1625 17.5847 31.6764 17.7696C32.749 18.1441 34.2543 17.8589 35.0336 17.3791C36.1693 16.6827 37.0504 15.3706 37.4516 13.7818C37.46 13.7488 37.4661 13.7207 37.4709 13.6986C37.3963 13.6707 37.3192 13.6502 37.2407 13.6374C36.0408 13.4196 35.0421 13.2592 34.0265 13.3388Z" fill="#6B1F1F"/>
<path d="M13.9522 14.4728C13.3146 15.7323 13.0201 17.1839 12.7656 18.6515C12.5111 20.119 12.2808 21.6404 11.716 23.0725C11.6433 23.2499 11.5766 23.4299 11.487 23.6012L11.3658 23.8595L11.3027 23.9892L11.23 24.1116C11.138 24.2798 11.0377 24.4432 10.9294 24.6012L10.7682 24.8399L10.5877 25.0712C10.1192 25.6724 9.56871 26.2036 8.95267 26.6489C7.72891 27.5347 6.28063 28.0501 4.77734 28.1348C6.25215 27.972 7.65024 27.3872 8.80723 26.4494C9.9504 25.5331 10.8035 24.2993 11.2615 22.8999C11.7269 21.5119 11.8675 20.0321 12.0457 18.5413C12.1354 17.7947 12.2335 17.0395 12.3887 16.2855C12.5393 15.5169 12.77 14.7665 13.0771 14.0469L13.9522 14.4728Z" fill="#6B1F1F"/>
<path d="M6.80337 29.7418C5.78287 29.7418 4.77692 29.5595 3.94185 29.4077C3.74187 29.371 3.13102 29.2608 2.95165 28.7113C2.89246 28.4969 2.89668 28.2697 2.96377 28.0577C3.43402 26.196 4.44725 24.7064 5.8156 23.8655C6.80459 23.2536 8.63712 22.9133 9.99456 23.3857C10.7824 23.6611 11.3375 24.1801 11.6017 24.8876C11.7684 25.3139 11.8309 25.7746 11.7838 26.2306C11.7368 26.6866 11.5816 27.1244 11.3314 27.5069C10.5012 28.8226 8.72681 29.6158 7.4021 29.7198C7.20333 29.7345 7.00335 29.7418 6.80337 29.7418ZM3.88367 28.382C3.95798 28.4111 4.03519 28.4321 4.11395 28.4444C5.31383 28.6623 6.31251 28.8226 7.32817 28.7431C8.38503 28.6598 9.86124 28.0148 10.5133 26.9806C10.6823 26.726 10.7871 26.4335 10.8186 26.1287C10.85 25.8238 10.8072 25.5158 10.6939 25.2315C10.5327 24.8007 10.1909 24.491 9.67823 24.3111C8.6044 23.9439 7.0991 24.2229 6.31979 24.7027C5.18536 25.3992 4.30424 26.7101 3.90307 28.3C3.89458 28.333 3.88731 28.3612 3.88367 28.382Z" fill="#6B1F1F"/>
<path d="M8.19528 23.1854C6.28033 23.1854 4.79321 22.385 3.883 20.8599C2.22499 18.0802 2.84674 13.4781 4.37386 10.8099L5.06227 9.60547L5.27316 10.98C5.41981 11.9433 6.27063 12.6654 6.95783 13.1011C7.16751 13.2345 7.37597 13.3631 7.58322 13.4916C9.46788 14.658 11.2483 15.7608 11.7537 18.3483C12.0216 19.7228 11.7707 21.0288 11.0641 21.9309C10.4581 22.7069 9.55635 23.1389 8.46192 23.1793C8.37223 23.183 8.28497 23.1854 8.19528 23.1854ZM4.73746 12.2786C3.71696 14.7535 3.46122 18.2553 4.71322 20.3568C5.48283 21.6457 6.73119 22.2687 8.42556 22.2038C9.23881 22.1732 9.87147 21.8782 10.3042 21.3262C10.8338 20.6494 11.0156 19.6335 10.8023 18.5405C10.3793 16.374 8.84855 15.4267 7.07661 14.3288C6.86572 14.199 6.65483 14.0681 6.44274 13.9334C5.67554 13.4438 5.10106 12.8857 4.73746 12.2786Z" fill="#6B1F1F"/>
<path d="M4.9375 14.1484C5.14168 15.0042 5.44558 15.8325 5.84286 16.616C6.23155 17.3884 6.74291 18.0913 7.35665 18.6967C7.95949 19.2831 8.67524 19.738 9.45946 20.0333C10.2149 20.3239 11.0307 20.4174 11.8313 20.305L11.9295 21.2842C10.9787 21.3317 10.0314 21.1355 9.17585 20.7138C8.34604 20.3117 7.60713 19.7413 7.00517 19.0382C6.42071 18.3469 5.9527 17.5633 5.61985 16.7188C5.29281 15.8922 5.06376 15.0294 4.9375 14.1484Z" fill="#6B1F1F"/>
<path d="M36.6044 31.9295L36.3293 30.5672C36.1378 29.6113 35.2542 28.9307 34.5476 28.528C34.3319 28.4056 34.1174 28.2857 33.9041 28.1682C31.9649 27.0923 30.1372 26.0764 29.5118 23.5171C29.1797 22.156 29.3688 20.8403 30.033 19.9051C30.6038 19.101 31.4873 18.6273 32.5781 18.5331C34.6167 18.3593 36.2359 19.0851 37.2601 20.6334C39.0466 23.3261 38.6405 27.9564 37.2407 30.6957L36.6044 31.9295ZM33.1623 19.4853C32.9975 19.4853 32.829 19.4927 32.6557 19.5086C31.8437 19.5771 31.2268 19.9027 30.8207 20.4743C30.3226 21.1756 30.1893 22.1989 30.4571 23.2809C30.9807 25.4253 32.5539 26.298 34.3755 27.3102C34.5913 27.4326 34.8094 27.555 35.0276 27.6774C35.6336 28.0201 36.3341 28.5342 36.8068 29.2465C37.7109 26.7251 37.8018 23.216 36.4529 21.1781C35.7063 20.0532 34.601 19.4853 33.1623 19.4853Z" fill="#6B1F1F"/>
<path d="M36.516 27.3866C36.2726 26.5416 35.9304 25.7289 35.4968 24.9656C35.0725 24.2132 34.5287 23.5363 33.8872 22.9619C33.2579 22.4051 32.5219 21.9847 31.725 21.727C30.9566 21.4727 30.137 21.4184 29.3422 21.5691L29.1992 20.6009C30.1464 20.5081 31.1015 20.6584 31.9759 21.0379C32.8237 21.3999 33.5886 21.9345 34.2229 22.6082C34.8373 23.269 35.3404 24.0269 35.7125 24.8518C36.0789 25.6615 36.3487 26.5125 36.516 27.3866Z" fill="#6B1F1F"/>
<path d="M17.2565 40.004L15.8639 39.8142C13.9477 39.5518 12.2077 38.5469 11.012 37.0121C9.81637 35.4773 9.25882 33.5329 9.45733 31.5904C9.5349 30.8327 9.87305 29.02 11.3262 28.5304C12.6994 28.0666 14.2253 28.8609 14.9622 29.8438C15.6991 30.8266 16.0251 32.1032 15.9973 33.7972C15.9876 34.3259 15.9476 34.8547 15.9088 35.3663C15.8361 36.1077 15.8118 36.8531 15.8361 37.5976C15.8736 38.2757 16.0142 38.72 16.2785 38.993L17.2565 40.004ZM12.1734 29.3676C11.9894 29.3667 11.8065 29.3956 11.6317 29.4533C10.6887 29.7728 10.4657 31.244 10.4197 31.6871C10.2633 33.2035 10.6369 34.7274 11.4757 35.995C12.3146 37.2626 13.5659 38.1941 15.0131 38.6282C14.9286 38.3082 14.879 37.9799 14.8653 37.649C14.839 36.8616 14.8641 36.0733 14.9404 35.2892C14.978 34.7923 15.0168 34.277 15.0252 33.7776C15.0495 32.3088 14.7756 31.2183 14.1865 30.4325C13.7526 29.8462 12.9479 29.3676 12.1746 29.3676H12.1734Z" fill="#6B1F1F"/>
<path d="M12.965 26.2736C12.4264 26.9179 12.0611 27.6914 11.9045 28.5196C11.7349 29.3801 11.7197 30.2644 11.8596 31.1303C12.0087 32.0164 12.2525 32.8836 12.5868 33.7166C12.9141 34.5599 13.3031 35.3836 13.6934 36.2061C13.2328 35.4228 12.7723 34.637 12.3602 33.8157C11.9426 32.9909 11.6154 32.1224 11.3845 31.2258C11.1518 30.3037 11.0849 29.3469 11.187 28.4009C11.288 27.4157 11.6382 26.4732 12.2039 25.6641L12.965 26.2736Z" fill="#6B1F1F"/>
<path d="M11.8391 15.4441L11.0792 14.3425C10.7786 13.9092 10.2611 13.6485 9.71446 13.3731C9.4164 13.2292 9.12631 13.069 8.84546 12.8933C7.88391 12.267 7.1958 11.2932 6.92202 10.1712C6.76592 9.55675 6.74305 8.91548 6.85495 8.29126C6.96686 7.66704 7.21092 7.07458 7.57044 6.55438C8.92182 4.62907 11.4658 3.37205 13.5177 4.84082C14.1523 5.31184 14.6296 5.96714 14.8858 6.71924C15.1419 7.47133 15.1649 8.28445 14.9515 9.05006C14.7091 9.85176 14.1516 10.4686 13.6086 11.0659C13.3796 11.3082 13.1628 11.5618 12.959 11.826C12.3469 12.651 12.0185 13.3988 11.9554 14.1112L11.8391 15.4441ZM11.5506 5.18476C10.3544 5.18476 9.12664 6.0293 8.36187 7.12475C8.08229 7.52975 7.89288 7.99109 7.80668 8.47705C7.72049 8.96302 7.73954 9.46207 7.86253 9.93989C8.07899 10.821 8.62047 11.5855 9.37632 12.0769C9.62763 12.2327 9.88696 12.3749 10.1532 12.5029C10.5142 12.6729 10.8611 12.8718 11.1907 13.0977C11.4219 12.4268 11.7605 11.7988 12.193 11.2385C12.4162 10.9481 12.6536 10.6691 12.9044 10.4026C13.3892 9.864 13.8583 9.35483 14.0328 8.76855C14.1843 8.19869 14.1629 7.59601 13.9712 7.03862C13.7795 6.48123 13.4264 5.99485 12.9578 5.64252C12.548 5.34442 12.0557 5.18426 11.5506 5.18476Z" fill="#6B1F1F"/>
<path d="M10.488 11.6418C10.2171 10.7351 9.99379 9.81464 9.81903 8.88417C9.63883 7.93598 9.60449 6.96538 9.71722 6.00662C9.85022 5.0148 10.225 4.07186 10.808 3.26247C11.1079 2.84597 11.4712 2.47997 11.8843 2.17803C12.3126 1.86573 12.7978 1.64195 13.312 1.51953L13.4962 2.48035C12.6975 2.59051 11.9449 3.06174 11.3764 3.72146C10.7968 4.40177 10.3925 5.21618 10.1996 6.09229C10.0156 6.99999 9.97021 7.93079 10.0651 8.85235C10.157 9.78908 10.2982 10.7202 10.488 11.6418Z" fill="#6B1F1F"/>
<path d="M22.893 40.5118C22.2793 40.5101 21.6701 40.4068 21.0896 40.2058C20.2424 39.907 19.4702 39.4249 18.8269 38.7932C18.1835 38.1614 17.6846 37.3954 17.3651 36.5486C16.9882 35.5425 16.8015 34.3749 16.8088 33.0774L16.8221 31.0469L17.7263 32.8596C17.7463 32.8992 17.7686 32.9376 17.7929 32.9746C18.0705 33.3993 18.6522 33.6735 19.3128 33.6894C19.9321 33.7041 20.5502 33.5328 21.2047 33.3492L21.5247 33.261C24.1814 32.5413 26.1824 33.0615 27.1617 34.7298C28.164 36.4262 27.558 38.5559 25.7509 39.6808C24.8937 40.2216 23.9038 40.5095 22.893 40.5118ZM17.8366 34.2843C17.9002 34.9394 18.0468 35.5836 18.2729 36.201C18.5408 36.9132 18.9597 37.5575 19.5003 38.0889C20.0409 38.6202 20.6901 39.0257 21.4023 39.2768C22.0333 39.5006 22.706 39.578 23.3707 39.5034C24.0354 39.4289 24.6749 39.2042 25.2419 38.846C26.3824 38.1349 27.152 36.6245 26.3327 35.2255C25.3873 33.6184 23.3354 33.7837 21.7804 34.2059L21.4665 34.2928C20.7732 34.4862 20.057 34.6845 19.2934 34.6674C18.7844 34.6594 18.2848 34.528 17.8366 34.2843Z" fill="#6B1F1F"/>
<path d="M30.1589 37.4536C29.8129 37.4567 29.4688 37.4013 29.1409 37.2896C28.5349 37.0754 27.5022 36.4426 27.4586 34.6153C27.4235 33.1857 27.9834 31.865 28.5252 30.5884C28.6815 30.2212 28.8294 29.8711 28.9615 29.5235C29.2257 28.8295 29.3251 27.8993 29.2427 26.9055L29.1687 26.0156L31.4715 27.2396C32.1321 27.5909 32.8156 27.9532 33.4107 28.4709C35.5099 30.2861 35.7135 33.4549 33.8701 35.6862C33.0701 36.6605 31.5455 37.4536 30.1589 37.4536ZM30.2401 27.6912C30.2434 28.4364 30.117 29.1763 29.8668 29.8773C29.7275 30.2444 29.5699 30.6116 29.4172 30.9788C28.9166 32.1587 28.3979 33.3803 28.4282 34.5969C28.45 35.5406 28.7979 36.1367 29.4596 36.3692C30.5298 36.7462 32.2472 36.1354 33.1295 35.0632C34.6276 33.2493 34.4761 30.6814 32.7853 29.22C32.269 28.7732 31.6351 28.4366 31.0207 28.1111L30.2401 27.6912Z" fill="#6B1F1F"/>
<path d="M20.4648 35.7939C21.6623 36.0545 22.8779 36.221 24.1008 36.2921C25.3056 36.3484 26.5115 36.3386 27.5368 35.9126C28.5622 35.4867 29.4579 34.7009 30.0954 33.723C30.756 32.7058 31.1459 31.5339 31.2274 30.3203C31.2637 30.4733 31.2916 30.6288 31.3243 30.7866C31.3571 30.9445 31.3559 31.1037 31.3716 31.264C31.3877 31.5876 31.3747 31.9121 31.3328 32.2334C31.1521 33.5591 30.5368 34.7855 29.5851 35.7168C29.0979 36.1905 28.5246 36.5646 27.8968 36.8184C27.8181 36.8529 27.7371 36.8819 27.6544 36.9053L27.412 36.9824C27.2513 37.0343 27.0873 37.0752 26.9212 37.1048C26.5949 37.1635 26.2647 37.197 25.9334 37.2052C25.2909 37.2163 24.6488 37.165 24.016 37.0522C22.7677 36.849 21.5652 36.4229 20.4648 35.7939Z" fill="#6B1F1F"/>
<path d="M20.4512 8.87843C20.3845 8.87843 20.3178 8.87843 20.25 8.87843C18.7083 8.80622 17.1169 7.89926 15.9934 6.4513C15.2117 5.44397 14.1694 4.73039 12.6144 4.13676L11.5781 3.74264L12.5683 3.24204C13.2955 2.87485 14.1439 2.61904 14.9693 2.37547C15.4141 2.24328 15.8322 2.11965 16.2273 1.9789C17.8963 1.38649 20.1445 1.4991 21.9528 2.26408C23.1648 2.77693 24.1029 3.83567 24.338 4.95683C24.4701 5.58962 24.4483 6.53453 23.5951 7.44639C22.7152 8.3864 21.6328 8.87843 20.4512 8.87843ZM16.757 5.84176C17.7084 7.06573 19.0319 7.83561 20.296 7.89558C21.2765 7.93965 22.1504 7.56389 22.8897 6.77443C23.3442 6.28484 23.5127 5.74629 23.389 5.16001C23.2206 4.35096 22.4922 3.54926 21.5783 3.16248C19.9785 2.48562 18.0041 2.38159 16.5485 2.8981C16.1304 3.0462 15.6795 3.18084 15.2432 3.31058C14.8408 3.43298 14.4324 3.55538 14.0409 3.68512C15.1996 4.25794 16.0613 4.94581 16.757 5.84176Z" fill="#6B1F1F"/>
<path d="M36.8824 11.9195L35.8946 11.5707C34.6717 11.1411 33.2767 11.3871 31.9277 11.6245C31.7277 11.66 31.529 11.6955 31.3302 11.7286C29.8758 11.9734 27.7645 12.1484 26.2907 10.8926C25.1708 9.93913 24.4958 8.55115 24.5285 7.27087C24.5539 6.24763 25.0133 5.36392 25.8617 4.71522C26.7755 4.01388 28.0348 3.7495 29.3159 3.98818C30.3327 4.17789 31.3435 4.66136 32.4077 5.46551C34.2497 6.86875 35.669 8.76181 36.5067 10.933L36.8824 11.9195ZM26.9149 10.1435C27.8045 10.9012 29.1571 11.097 31.1727 10.7616C31.3678 10.7298 31.5641 10.6955 31.7605 10.6601C32.9022 10.4593 34.073 10.2525 35.2232 10.4153C34.4317 8.77789 33.2691 7.35212 31.8296 6.25375C30.889 5.5414 30.0116 5.11668 29.1426 4.95511C28.1451 4.76907 27.1391 4.97225 26.4519 5.49856C25.8459 5.96856 25.5211 6.57443 25.5029 7.29902C25.4775 8.2782 26.0338 9.39324 26.9198 10.1472L26.9149 10.1435Z" fill="#6B1F1F"/>
<path d="M17.6914 4.30729C18.3925 4.18732 19.1076 4.17494 19.8124 4.27057C20.5208 4.3639 21.2183 4.5279 21.8946 4.76016C23.2496 5.21426 24.5077 5.87276 25.7366 6.508C26.9656 7.14324 28.1764 7.76624 29.4599 8.19708C30.7434 8.62792 32.0972 8.92412 33.474 9.20319C32.0631 9.33965 30.6397 9.25335 29.2551 8.94737C27.8516 8.63159 26.5366 8.03062 25.2955 7.38681C24.0544 6.743 22.8618 6.04044 21.6195 5.48353C20.3772 4.92662 19.0901 4.46518 17.6914 4.30729Z" fill="#6B1F1F"/>
<path d="M3.26711 25.0365C2.93151 25.0365 2.60346 24.936 2.32442 24.7477C2.04538 24.5594 1.8279 24.2918 1.69947 23.9787C1.57105 23.6656 1.53745 23.321 1.60292 22.9886C1.66839 22.6562 1.82999 22.3509 2.06729 22.1113C2.30459 21.8716 2.60693 21.7084 2.93608 21.6423C3.26523 21.5762 3.6064 21.6101 3.91644 21.7398C4.22649 21.8695 4.4915 22.0891 4.67794 22.3709C4.86439 22.6527 4.9639 22.984 4.9639 23.3229C4.9639 23.7774 4.78513 24.2133 4.46692 24.5346C4.14871 24.856 3.71713 25.0365 3.26711 25.0365ZM3.26711 22.5886C3.12328 22.5886 2.98269 22.6316 2.8631 22.7123C2.74351 22.793 2.6503 22.9077 2.59527 23.0419C2.54023 23.1761 2.52582 23.3238 2.55388 23.4662C2.58194 23.6087 2.6512 23.7395 2.7529 23.8422C2.8546 23.9449 2.98418 24.0149 3.12524 24.0432C3.2663 24.0715 3.41252 24.057 3.5454 24.0014C3.67827 23.9458 3.79185 23.8517 3.87175 23.7309C3.95166 23.6102 3.99431 23.4682 3.99431 23.3229C3.99431 23.1282 3.91769 22.9414 3.78132 22.8036C3.64494 22.6659 3.45997 22.5886 3.26711 22.5886Z" fill="#6B1F1F"/>
<path d="M7.26711 33.724C6.93151 33.724 6.60346 33.6235 6.32442 33.4352C6.04538 33.2469 5.8279 32.9793 5.69947 32.6662C5.57105 32.3531 5.53745 32.0085 5.60292 31.6761C5.66839 31.3437 5.82999 31.0384 6.06729 30.7988C6.30459 30.5591 6.60693 30.3959 6.93608 30.3298C7.26523 30.2637 7.6064 30.2976 7.91645 30.4273C8.22649 30.557 8.4915 30.7766 8.67794 31.0584C8.86439 31.3402 8.96391 31.6715 8.96391 32.0104C8.96391 32.4649 8.78514 32.9008 8.46692 33.2221C8.14871 33.5435 7.71713 33.724 7.26711 33.724ZM7.26711 31.2761C7.12328 31.2761 6.98269 31.3191 6.8631 31.3998C6.74351 31.4805 6.65031 31.5952 6.59527 31.7294C6.54023 31.8636 6.52582 32.0113 6.55388 32.1537C6.58194 32.2962 6.6512 32.427 6.7529 32.5297C6.8546 32.6324 6.98418 32.7024 7.12524 32.7307C7.2663 32.759 7.41252 32.7445 7.5454 32.6889C7.67827 32.6333 7.79185 32.5392 7.87175 32.4184C7.95166 32.2977 7.99431 32.1557 7.99431 32.0104C7.99431 31.8157 7.91769 31.6289 7.78132 31.4911C7.64494 31.3534 7.45997 31.2761 7.26711 31.2761Z" fill="#6B1F1F"/>
<path d="M37.9312 20.3842C37.5956 20.3842 37.2675 20.2837 36.9885 20.0954C36.7094 19.9071 36.492 19.6395 36.3635 19.3263C36.2351 19.0132 36.2015 18.6687 36.267 18.3363C36.3325 18.0039 36.4941 17.6986 36.7314 17.4589C36.9687 17.2193 37.271 17.0561 37.6001 16.99C37.9293 16.9238 38.2705 16.9578 38.5805 17.0875C38.8906 17.2172 39.1556 17.4368 39.342 17.7186C39.5285 18.0004 39.628 18.3317 39.628 18.6706C39.628 19.1251 39.4492 19.5609 39.131 19.8823C38.8128 20.2036 38.3812 20.3842 37.9312 20.3842ZM37.9312 17.9362C37.7874 17.9362 37.6468 17.9793 37.5272 18.06C37.4076 18.1407 37.3144 18.2554 37.2593 18.3896C37.2043 18.5237 37.1899 18.6714 37.218 18.8139C37.246 18.9563 37.3153 19.0872 37.417 19.1899C37.5187 19.2926 37.6482 19.3625 37.7893 19.3909C37.9304 19.4192 38.0766 19.4047 38.2095 19.3491C38.3423 19.2935 38.4559 19.1994 38.5358 19.0786C38.6157 18.9578 38.6584 18.8158 38.6584 18.6706C38.6584 18.4758 38.5818 18.289 38.4454 18.1513C38.309 18.0136 38.124 17.9362 37.9312 17.9362Z" fill="#6B1F1F"/>
</svg>
