<svg width="24" height="24" viewBox="0 0 24 24" fill="none" xmlns="http://www.w3.org/2000/svg">
<circle cx="12" cy="12" r="12" fill="#00A946"/>
<path d="M21.9998 10.7391C21.9998 12.1594 17.6346 15 12.2498 15C6.86507 15 2.49985 12.1594 2.49985 10.7391C2.49985 5.36036 6.86507 1 12.2498 1C17.6346 1 21.9998 5.36036 21.9998 10.7391Z" fill="#05D35B"/>
<path d="M9.86538 17.7856C9.72629 17.9234 9.53651 18.0003 9.33939 18.0003C9.14226 18.0003 8.95249 17.9234 8.81339 17.7856L4.61266 13.6479C4.17672 13.2186 4.17672 12.5224 4.61266 12.0939L5.13866 11.5758C5.57474 11.1464 6.28083 11.1464 6.71677 11.5758L9.33939 14.1587L16.4261 7.17942C16.8621 6.75009 17.5689 6.75009 18.0042 7.17942L18.5302 7.69757C18.9661 8.1269 18.9661 8.82295 18.5302 9.25161L9.86538 17.7856Z" fill="white"/>
</svg>
