<svg width="168" height="206" viewBox="0 0 228 280" fill="none" xmlns="http://www.w3.org/2000/svg">
<path opacity="0.5" d="M118.544 144.285C122.899 157.312 125.995 172.981 124.365 189.358C123.92 193.815 122.922 198.747 120.752 201.104C119.265 202.716 117.516 202.761 115.981 202.115C112.946 200.837 110.501 197.152 108.443 193.042C103.515 183.205 100.312 170.564 98.2204 157.253C96.129 143.943 95.1173 129.899 94.1656 115.885C94.0164 113.682 93.8766 111.356 94.3477 109.161C96.5343 98.9808 105.392 116.009 107.272 119.165C111.622 126.493 115.42 134.944 118.544 144.285Z" fill="#8ABABC"/>
<path opacity="0.5" d="M122.862 133.679C129.237 143.235 134.771 155.913 135.715 171.847C135.972 176.187 135.749 181.265 133.959 184.625C132.733 186.927 131 187.933 129.377 188.186C126.156 188.688 123.15 186.653 120.454 184.017C114.01 177.704 108.842 167.867 104.683 156.796C100.523 145.726 97.3098 133.395 94.1668 121.055C93.6733 119.115 93.1692 117.056 93.295 114.781C93.8754 104.224 105.361 114.971 107.719 116.836C113.187 121.164 118.29 126.827 122.862 133.679Z" fill="#8ABABC"/>
<path d="M71.3935 204.062C72.5685 209.884 74.2135 215.645 74.5824 221.572C74.9514 227.498 73.9103 233.77 70.235 238.438C75.7369 236.889 81.511 236.558 87.1546 237.466C93.1199 238.431 98.8796 240.776 104.922 240.905C108.962 240.991 112.95 240.084 116.887 239.171C117.475 239.035 118.096 238.883 118.526 238.459C119.004 237.99 119.148 237.287 119.238 236.62C120.015 230.909 118.533 225.16 117.076 219.585L111.87 199.746C111.191 197.159 110.507 194.535 110.524 191.861C110.54 189.241 111.229 186.661 111.294 184.041C111.412 179.365 109.546 174.892 107.717 170.585C106.833 168.507 105.858 166.312 103.988 165.041C102.597 164.094 100.87 163.781 99.1886 163.678C92.1212 163.243 84.921 166.327 80.3691 171.742C78.3376 174.158 76.8348 176.965 75.3485 179.748C73.6859 182.86 71.0951 186.136 70.4406 189.636C69.5606 194.304 70.4771 199.475 71.3935 204.062Z" fill="#8E6303"/>
<path d="M58.4137 225.079C62.3851 222.414 68.4361 222.509 69.2093 227.869C69.3044 228.532 69.0542 230.072 68.9837 231.077C68.952 231.519 68.4197 231.252 68.0367 231.499C67.6004 231.782 67.1353 232.018 66.649 232.203C66.0004 232.449 65.3225 232.601 64.6821 232.872C63.8115 233.24 63.0372 233.822 62.3087 234.44C60.4734 236.001 59.1245 238.001 57.3303 239.583C56.9779 239.893 56.556 240.197 56.1096 240.154C55.6396 240.109 55.3153 239.685 55.0838 239.284C52.6599 235.062 53.8395 228.396 58.1117 225.291C58.2116 225.217 58.3126 225.153 58.4137 225.079Z" fill="#350101"/>
<path d="M62.9103 229.29C62.5249 229.868 62.3322 230.445 61.9468 231.07C60.3805 233.474 58.6381 235.478 56.8686 237.51C56.8169 238.357 56.773 239.202 56.737 240.045C56.697 241.001 56.7475 242.124 57.5418 242.603C58.2374 243.023 59.2291 242.71 59.86 242.113C60.491 241.516 60.8482 240.705 61.2066 239.918C63.7468 234.363 67.1507 229.193 70.04 223.773C72.9292 218.353 75.3485 212.505 75.6281 206.505C75.7762 203.338 75.3391 200.117 76.2379 196.974C76.5011 196.053 76.6715 194.934 76.4941 194.051C75.1804 196.48 73.7352 198.804 73.4615 201.54C72.357 211.688 68.5971 220.538 62.9103 229.29Z" fill="#434F7C"/>
<path d="M73.5708 192.721C72.001 193.168 70.8437 194.555 69.8685 195.902C61.068 208.051 57.7534 223.014 56.8686 237.51C58.6381 235.478 60.3806 233.474 61.9468 231.07C62.3322 230.445 62.5249 229.868 62.9103 229.291C68.596 220.538 72.3535 211.688 73.4615 201.54C73.7353 198.804 75.1805 196.48 76.4941 194.051C76.2662 192.924 75.4707 192.18 73.5708 192.721Z" fill="#5E6899"/>
<path d="M79.677 175.811C79.6288 175.281 79.5313 174.755 79.0496 174.415C78.9558 174.356 78.8472 174.325 78.7364 174.325C78.6256 174.325 78.5171 174.356 78.4233 174.415C76.6409 176.099 75.1475 177.734 73.7023 179.802C72.8884 181.016 72.1639 182.287 71.5345 183.606C70.4964 186.76 69.6408 189.972 68.9719 193.224C68.7189 194.449 68.4964 195.67 68.3045 196.885C68.0848 198.265 67.9073 199.675 68.1365 201.022C68.3656 202.368 69.06 203.661 70.2408 204.294C70.3272 204.34 70.4158 204.382 70.5064 204.419L73.4708 201.486C73.8762 197.665 76.5551 194.646 77.9451 191.008C79.7733 186.15 80.1587 181.005 79.677 175.811Z" fill="#5E6899"/>
<path d="M86.2087 163.489C81.2844 162.385 77.8782 169.002 76.0029 172.724C74.2479 176.237 72.7544 179.874 71.5345 183.606C72.1651 182.287 72.8908 181.016 73.7059 179.802C75.1511 177.734 76.6433 176.099 78.4269 174.415C78.5206 174.356 78.6292 174.324 78.74 174.324C78.8508 174.324 78.9594 174.356 79.0531 174.415C79.5349 174.751 79.6324 175.28 79.6806 175.81C80.1623 181.004 79.7769 186.15 77.9451 191.008C76.5552 194.644 73.8762 197.665 73.4709 201.486L75.8138 199.172C78.9627 190.653 83.793 182.778 87.8302 174.584C89.5115 171.174 92.0154 164.791 86.2087 163.489Z" fill="#434F7C"/>
<path d="M61.3123 233.47C59.3807 234.474 57.4866 235.621 56.0825 237.295C55.495 234.78 54.7995 232.134 54.8864 229.497C54.0757 231.498 53.3073 233.51 52.6305 235.596C51.5154 239.03 50.3217 242.531 49.2101 246.007C48.9082 246.946 48.4864 248.188 48.6426 249.174C48.8318 250.365 49.6519 250.974 50.5226 251.66C51.3519 251.098 52.2286 250.609 53.1428 250.199C54.6773 249.768 56.099 249.73 57.543 250.28C57.8556 250.063 58.1622 249.911 58.4748 249.694C64.4601 245.572 66.2907 238.142 67.6278 231.464C67.6912 231.15 67.7453 230.833 67.8064 230.516C65.6045 231.32 63.4578 232.351 61.3123 233.47Z" fill="#660808"/>
<path d="M67.8063 230.518C67.7499 230.837 67.69 231.153 67.6266 231.467C66.2895 238.133 64.4659 245.586 58.4759 249.685C58.1634 249.9 57.8591 250.068 57.5453 250.272C58.1058 250.624 58.7039 250.976 59.1457 251.458C59.5404 251.892 59.692 252.377 59.8765 252.92C61.3252 252.4 62.8198 251.886 64.1769 251.13C64.9347 250.709 65.5539 250.212 66.2237 249.675C66.5597 248.528 66.7313 247.317 66.9134 246.144C67.6078 241.668 68.4209 237.149 68.8579 232.656C68.9363 231.801 69.0025 230.946 69.0565 230.09C68.6367 230.224 68.2199 230.367 67.8063 230.518Z" fill="#4C0303"/>
<path d="M40.6035 259.013C39.7058 259.234 39.4285 259.218 38.5872 259.385C38.7047 259.385 38.7047 259.417 38.7976 259.434C40.9348 259.83 42.6949 259.848 44.9673 259.396C47.0893 258.974 49.5673 257.807 51.5248 256.724C54.1838 255.255 56.4291 253.864 59.2925 253.02C59.729 252.894 60.1536 252.731 60.5615 252.531C60.6426 252.492 60.6602 252.442 60.7342 252.397C60.0704 251.436 59.3807 250.494 58.6792 249.56C58.6005 249.614 58.55 249.641 58.4607 249.696C52.6692 253.263 47.2244 257.378 40.6035 259.013Z" fill="#4C0303"/>
<path d="M37.7589 259.478C41.8301 260.732 45.6312 259.671 49.4839 257.719C49.169 257.057 48.8964 256.383 48.5533 255.732C46.0741 257.009 43.3024 258.369 40.6705 258.984C39.4038 259.285 38.9186 259.285 37.7589 259.478Z" fill="#4C0303"/>
<path d="M52.3908 244.758C49.6766 245.368 47.7661 247.377 45.7017 249.323C43.8664 251.052 41.7984 253.048 39.9737 254.85C38.9162 255.899 36.9352 257.389 37.7013 258.928C37.8834 259.295 38.3323 259.163 38.5814 259.398C39.4215 259.216 39.7058 259.234 40.6035 259.013C47.2256 257.38 52.6692 253.265 58.463 249.699C58.5523 249.643 58.6016 249.615 58.6792 249.562C57.5865 248.061 56.3763 246.65 55.2894 245.143C54.165 245.037 53.6198 244.482 52.3908 244.758Z" fill="#660808"/>
<path d="M40.5835 255.58C40.231 255.797 39.8727 256.005 39.606 256.316C39.3392 256.627 39.1865 257.074 39.3475 257.425C39.5225 257.811 40.0195 257.953 40.4519 257.864C40.8843 257.775 41.2662 257.512 41.6269 257.241C43.3471 255.976 45.0801 254.426 45.583 252.389C45.6453 252.138 45.6841 251.862 45.5689 251.644C45.0884 250.733 43.7125 252.966 43.3635 253.328C42.5322 254.189 41.5987 254.946 40.5835 255.58Z" fill="#992020"/>
<path d="M120.979 223.581C117.363 220.97 111.275 221.064 109.755 226.317C109.567 226.967 109.605 228.478 109.535 229.463C109.505 229.897 110.078 229.634 110.428 229.878C110.831 230.157 111.265 230.388 111.721 230.567C112.339 230.808 112.998 230.956 113.601 231.222C114.423 231.585 115.128 232.161 115.767 232.761C117.395 234.293 118.47 236.257 120.056 237.811C120.366 238.115 120.749 238.412 121.204 238.371C121.688 238.327 122.066 237.914 122.355 237.518C125.374 233.375 125.111 226.832 121.25 223.788C121.162 223.717 121.072 223.648 120.979 223.581Z" fill="#350101"/>
<path d="M116.291 228.714C114.461 226.837 113.112 224.578 112.004 222.173C111.137 220.202 110.703 218.133 110.366 215.968C109.836 212.169 110.414 208.462 110.173 204.666C110.125 203.742 109.93 202.831 109.595 201.968C108.564 199.305 107.61 196.622 106.983 193.883C106.876 194.611 106.882 195.351 107 196.078C107.463 199.149 106.577 202.301 106.285 205.393C105.731 211.258 107.343 216.981 109.491 222.298C111.639 227.615 114.337 232.683 116.12 238.132C116.371 238.901 116.618 239.702 117.168 240.288C117.718 240.875 118.672 241.183 119.431 240.769C120.295 240.3 120.501 239.196 120.593 238.258C120.782 236.319 120.927 234.372 121.029 232.415C119.305 231.378 117.714 230.135 116.291 228.714Z" fill="#434F7C"/>
<path d="M110.173 204.666C110.408 208.466 109.836 212.173 110.366 215.968C110.703 218.132 111.137 220.201 112.004 222.173C113.112 224.578 114.461 226.838 116.291 228.713C117.714 230.138 119.305 231.384 121.029 232.425C121.696 219.278 120.111 205.978 113.531 195.036C112.741 193.722 111.769 192.368 110.261 191.93C108.088 191.303 107.225 192.449 106.983 193.889C107.61 196.628 108.564 199.31 109.595 201.974C109.93 202.835 110.125 203.744 110.173 204.666Z" fill="#5E6899"/>
<path d="M107.812 174.607C108.823 174.752 109.353 175.715 109.836 176.484C110.703 177.927 111.378 179.416 112.197 180.908C112.901 182.26 113.488 183.67 113.951 185.122C113.244 180.795 112.123 176.547 110.603 172.434C109.244 168.807 106.753 162.373 101.674 163.446C95.6813 164.713 97.3051 170.924 98.5118 174.245C101.412 182.229 105.153 189.912 107.125 198.23L108.951 200.268C107.593 196.589 106.484 192.861 106.272 188.988C106.029 184.227 105.692 178.985 107.812 174.607Z" fill="#434F7C"/>
<path d="M111.998 203.232C113.269 202.614 114.144 201.355 114.561 200.033C114.978 198.711 114.994 197.341 114.966 195.992C114.94 194.808 114.886 193.616 114.804 192.418C114.636 189.989 114.349 187.544 113.946 185.122C113.485 183.67 112.9 182.26 112.197 180.908C111.374 179.418 110.703 177.927 109.836 176.484C109.353 175.715 108.823 174.752 107.812 174.607C105.697 178.985 106.029 184.225 106.27 188.988C106.479 192.858 107.591 196.589 108.949 200.268L111.718 203.354C111.811 203.317 111.905 203.277 111.998 203.232Z" fill="#5E6899"/>
<path d="M116.902 231.81C118.704 232.796 120.447 233.921 121.627 235.563C122.561 233.1 123.624 230.503 123.906 227.912C124.443 229.874 124.938 231.848 125.329 233.894C125.976 237.264 126.691 240.697 127.327 244.119C127.499 245.046 127.753 246.263 127.459 247.234C127.107 248.407 126.196 249.003 125.227 249.678C124.464 249.122 123.65 248.641 122.794 248.241C121.311 247.818 119.887 247.782 118.358 248.321C118.074 248.108 117.787 247.959 117.503 247.746C112.058 243.696 111.252 236.397 110.836 229.843C110.817 229.535 110.802 229.226 110.789 228.914C112.893 229.701 114.908 230.713 116.902 231.81Z" fill="#660808"/>
<path d="M110.796 228.915C110.808 229.227 110.824 229.537 110.843 229.847C111.26 236.389 112.057 243.708 117.509 247.739C117.793 247.949 118.076 248.115 118.363 248.325C117.75 248.67 117.1 249.015 116.589 249.498C116.132 249.924 115.912 250.402 115.649 250.936C114.265 250.423 112.829 249.919 111.573 249.177C110.868 248.763 110.317 248.275 109.717 247.746C109.539 246.618 109.535 245.428 109.515 244.275C109.441 239.876 109.253 235.439 109.44 231.021C109.475 230.181 109.528 229.342 109.596 228.505C110.002 228.627 110.4 228.768 110.796 228.915Z" fill="#4C0303"/>
<path d="M134.194 256.914C135.067 257.132 135.351 257.116 136.172 257.28C136.054 257.28 136.043 257.313 135.953 257.328C133.749 257.719 131.975 257.736 129.751 257.292C127.676 256.877 125.343 255.727 123.523 254.662C121.056 253.216 118.987 251.847 116.223 251.018C115.806 250.896 115.402 250.734 115.015 250.536C114.939 250.498 114.928 250.448 114.86 250.404C115.662 249.459 116.485 248.528 117.321 247.615C117.392 247.667 117.438 247.695 117.522 247.749C122.852 251.256 127.759 255.305 134.194 256.914Z" fill="#4C0303"/>
<path d="M136.992 257.373C132.723 258.607 129.045 257.563 125.439 255.647C125.847 254.996 126.214 254.331 126.65 253.691C128.967 254.948 131.567 256.287 134.13 256.893C135.363 257.184 135.852 257.184 136.992 257.373Z" fill="#4C0303"/>
<path d="M124.309 242.895C126.952 243.493 128.596 245.469 130.403 247.382C132.009 249.081 133.81 251.046 135.401 252.818C136.326 253.849 138.104 255.317 137.126 256.831C136.891 257.192 136.46 257.056 136.177 257.292C135.354 257.112 135.067 257.131 134.194 256.913C127.759 255.306 122.852 251.256 117.523 247.749C117.441 247.695 117.395 247.668 117.324 247.616C118.631 246.14 120.043 244.753 121.345 243.276C122.487 243.17 123.116 242.629 124.309 242.895Z" fill="#660808"/>
<path d="M134.687 253.538C135.006 253.751 135.343 253.956 135.569 254.262C135.795 254.569 135.886 255.008 135.677 255.353C135.442 255.733 134.928 255.873 134.502 255.786C134.077 255.699 133.733 255.434 133.405 255.173C131.849 253.927 130.321 252.4 130.095 250.398C130.068 250.151 130.066 249.88 130.212 249.666C130.821 248.768 131.896 250.967 132.198 251.322C132.92 252.173 133.758 252.919 134.687 253.538Z" fill="#992020"/>
<path d="M116.322 223.448C116.692 224.294 117.364 225.274 118.272 225.101C118.404 223.205 118.108 221.308 117.813 219.432L116.596 211.681C116.381 210.308 116.126 206.212 114.649 205.513C112.71 204.592 113.142 208.955 113.182 209.892C113.384 214.565 114.448 219.161 116.322 223.448Z" fill="#808DBC"/>
<path d="M46.0209 72.3738L44.6661 73.083L87.0168 153.712L88.3716 153.003L46.0209 72.3738Z" fill="#8E2121"/>
<path d="M84.0385 149.664L86.748 148.246L94.1256 165.576L84.0385 149.664Z" fill="#8E2121"/>
<path d="M38.1584 68.1528L46.7216 84.4531L52.2991 85.8923L43.736 69.592L38.1584 68.1528Z" fill="#EA6868"/>
<path d="M45.6641 64.2222L43.7359 69.5919L52.2991 85.8921L54.2284 80.5224L45.6641 64.2222Z" fill="#721616"/>
<path d="M54.1255 73.8909L52.7706 74.6001L95.1213 155.229L96.4762 154.52L54.1255 73.8909Z" fill="#721616"/>
<path d="M92.1422 151.181L94.8517 149.762L102.229 167.094L92.1422 151.181Z" fill="#8E2121"/>
<path d="M46.2621 69.6694L54.8253 85.9697L60.4029 87.4101L51.8397 71.1098L46.2621 69.6694Z" fill="#BA4747"/>
<path d="M53.7678 65.7402L51.8397 71.1099L60.4029 87.4102L62.3322 82.0405L53.7678 65.7402Z" fill="#721616"/>
<path d="M51.3604 80.49L50.0056 81.1992L92.3562 161.828L93.7111 161.119L51.3604 80.49Z" fill="#8E2121"/>
<path d="M89.3776 157.779L92.0871 156.361L99.4647 173.691L89.3776 157.779Z" fill="#8E2121"/>
<path d="M43.4962 76.2681L52.0594 92.5683L57.6381 94.0075L49.075 77.7073L43.4962 76.2681Z" fill="#BA4747"/>
<path d="M51.0031 72.3379L49.075 77.7076L57.6381 94.0078L59.5663 88.6381L51.0031 72.3379Z" fill="#8E2121"/>
<path d="M40.4245 72.0833L39.0697 72.7925L81.4204 153.422L82.7752 152.712L40.4245 72.0833Z" fill="#8E2121"/>
<path d="M78.4421 149.375L81.1516 147.956L88.5281 165.286L78.4421 149.375Z" fill="#8E2121"/>
<path d="M32.5609 67.8628L41.1241 84.1631L46.7028 85.6034L38.1385 69.3032L32.5609 67.8628Z" fill="#BA4747"/>
<path d="M40.0677 63.9336L38.1384 69.3033L46.7028 85.6036L48.6309 80.2339L40.0677 63.9336Z" fill="#721616"/>
<path d="M48.5285 73.6023L47.1736 74.3115L89.5243 154.941L90.8792 154.231L48.5285 73.6023Z" fill="#8E2121"/>
<path d="M86.546 150.892L89.2554 149.474L96.6331 166.804L86.546 150.892Z" fill="#8E2121"/>
<path d="M40.6646 69.3809L49.2277 85.6811L54.8065 87.1203L46.2422 70.82L40.6646 69.3809Z" fill="#EA6868"/>
<path d="M48.1715 65.4502L46.2422 70.8199L54.8065 87.1202L56.7347 81.7505L48.1715 65.4502Z" fill="#8E2121"/>
<path d="M45.7628 80.1995L44.408 80.9087L86.7587 161.538L88.1135 160.829L45.7628 80.1995Z" fill="#721616"/>
<path d="M83.7812 157.489L86.4895 156.071L93.8672 173.401L83.7812 157.489Z" fill="#8E2121"/>
<path d="M37.9 75.9785L46.4631 92.2788L52.0407 93.7192L43.4775 77.4189L37.9 75.9785Z" fill="#EA6868"/>
<path d="M45.4056 72.0493L43.4775 77.419L52.0406 93.7193L53.9699 88.3496L45.4056 72.0493Z" fill="#8E2121"/>
<path d="M57.0131 102.698C56.3363 100.296 56.3363 97.6671 57.6911 95.4902C59.2185 92.9308 61.8822 92.2059 64.5211 91.2957C63.8071 91.0289 63.0447 90.9156 62.2838 90.9633C61.5228 91.011 60.7806 91.2186 60.1056 91.5726L53.487 95.0421C52.2134 95.7103 51.2579 96.8561 50.8304 98.2276C50.4029 99.599 50.5386 101.084 51.2076 102.355L66.9968 132.421C66.6052 131.351 66.2104 130.278 65.8124 129.201C62.5789 120.343 59.8718 111.709 57.0131 102.698Z" fill="#8E2121"/>
<path d="M104.214 163.871L67.4374 93.8587C66.8179 92.6755 65.7809 91.7636 64.527 91.2993C61.888 92.206 59.222 92.9344 57.6969 95.4937C56.3422 97.6707 56.3422 100.303 57.019 102.701C59.8777 111.71 62.5848 120.344 65.8183 129.202C66.2146 130.279 66.6094 131.352 67.0027 132.421L87.9841 172.37C88.315 173 88.767 173.559 89.3143 174.015C89.8616 174.47 90.4934 174.814 91.1737 175.026C91.854 175.238 92.5694 175.314 93.2791 175.249C93.9888 175.185 94.6789 174.982 95.31 174.652L101.929 171.187C102.56 170.856 103.12 170.405 103.576 169.858C104.033 169.312 104.377 168.681 104.589 168.001C104.802 167.322 104.878 166.608 104.813 165.899C104.749 165.19 104.545 164.501 104.214 163.871Z" fill="#721616"/>
<path opacity="0.5" d="M48.5769 145.724C39.8821 156.856 32.1156 170.95 30.1052 187.27C29.5577 191.717 29.5929 196.795 31.7325 199.776C33.1989 201.818 35.3832 202.434 37.4699 202.313C41.5964 202.079 45.5772 199.322 49.1808 196.035C57.8039 188.163 64.9548 177.026 70.8696 164.875C76.7843 152.725 81.5394 139.521 86.2064 126.322C86.9396 124.249 87.6916 122.05 87.6434 119.781C87.4202 109.25 72.0786 122.766 68.9497 125.195C61.6731 130.837 54.8124 137.741 48.5769 145.724Z" fill="#8ABABC"/>
<path opacity="0.5" d="M45.7828 134.085C35.4137 141.21 25.3254 151.621 20.1955 166.674C18.7973 170.779 17.8197 175.742 19.2344 179.568C20.2037 182.188 22.1307 183.725 24.1116 184.502C28.0302 186.041 32.3117 185.064 36.3454 183.403C45.9989 179.427 54.9217 171.634 62.8856 162.324C70.8495 153.015 77.9369 142.177 84.9386 131.308C86.0395 129.601 87.1816 127.78 87.5869 125.546C89.4669 115.182 72.3934 121.779 68.9719 122.806C61.028 125.187 53.2191 128.972 45.7828 134.085Z" fill="#8ABABC"/>
<path d="M116.143 120.125C115.579 119.005 115.055 117.873 114.571 116.731C112.866 118.801 111.386 121.083 111.908 123.964C112.245 125.888 113.208 127.427 114.364 129.062C114.386 129.094 114.407 129.123 114.429 129.154C115.923 127.746 117.397 126.346 118.873 124.968C117.887 123.383 116.973 121.768 116.143 120.125Z" fill="#6AB0EF"/>
<path d="M114.429 129.153C114.407 129.123 114.386 129.094 114.364 129.062C113.208 127.427 112.249 125.888 111.908 123.964C111.386 121.083 112.866 118.804 114.571 116.731C113.488 114.182 112.639 111.539 112.037 108.836L102.276 111.495C104.519 118.541 108.015 125.136 112.435 131.048C113.019 130.481 113.614 129.914 114.22 129.348L114.429 129.153Z" fill="#498EC1"/>
<path d="M74.9772 122.806C76.9053 121.365 79.0543 120.023 81.2868 118.684L78.4833 114.351C75.4225 116.84 72.4122 119.355 70.2773 122.906C68.5865 125.743 67.5949 129.49 68.5431 132.629C68.2164 128.236 71.7695 125.204 74.9772 122.806Z" fill="#498EC1"/>
<path d="M64.6445 141.182C63.6811 140.316 62.9103 139.258 62.0432 138.2C60.2102 135.854 59.5311 133.032 59.6392 130.182C59 134.771 60.2807 139.343 63.2687 142.835C63.7661 142.318 64.2638 141.802 64.762 141.287L64.6445 141.182Z" fill="#498EC1"/>
<path d="M68.5595 132.771C68.5595 132.723 68.5513 132.676 68.5478 132.629C67.5996 129.49 68.5913 125.742 70.2821 122.906C72.417 119.355 75.4272 116.84 78.488 114.351L75.8021 110.205C73.532 111.779 71.2103 113.444 68.9555 115.38C65.5751 118.278 62.4497 121.859 60.7613 126.023C60.2172 127.359 59.8404 128.758 59.6392 130.187C59.5311 133.037 60.2102 135.863 62.0432 138.205C62.9103 139.261 63.6811 140.316 64.6446 141.186L64.762 141.29C66.4172 139.579 68.0837 137.877 69.7615 136.184C69.0789 135.166 68.6654 133.991 68.5595 132.771Z" fill="#6AB0EF"/>
<path d="M131.148 140.451C128.177 137.292 125.352 134.056 122.805 130.679C121.404 128.821 120.085 126.917 118.875 124.968C117.399 126.345 115.925 127.741 114.431 129.153C115.756 131.039 116.991 132.698 118.365 134.497C120.629 137.43 123.183 139.691 125.978 142.095C128.965 144.692 131.759 147.098 134.89 149.647C137.827 152.003 140.576 154.263 143.177 156.957C143.412 157.149 143.659 157.293 143.9 157.486C144.654 158.252 145.352 159.071 145.99 159.937C146.543 159.424 147.137 158.958 147.766 158.544C147.6 158.398 147.284 157.828 147.414 157.389C147.779 156.188 147.724 156.444 147.751 156.428C148.945 155.713 147.97 155.004 149.335 155.275C142.446 151.375 136.542 146.188 131.148 140.451Z" fill="#6AB0EF"/>
<path d="M143.897 157.486C143.662 157.293 143.416 157.149 143.175 156.957C140.573 154.259 137.826 152.003 134.888 149.647C131.756 147.098 128.962 144.692 125.975 142.095C123.18 139.691 120.627 137.431 118.363 134.497C116.988 132.698 115.753 131.039 114.429 129.153L114.22 129.35C113.613 129.917 113.018 130.483 112.435 131.05C114.326 133.577 116.38 135.978 118.584 138.238C122.226 141.971 126.18 145.377 130.242 148.642C134.17 151.8 138.523 154.703 142.171 158.18C142.656 158.66 143.077 159.2 143.425 159.787C143.579 160.038 144.507 161.536 144.318 161.789C144.817 161.123 145.376 160.504 145.988 159.938C145.35 159.072 144.651 158.253 143.897 157.486Z" fill="#498EC1"/>
<path d="M102.898 234.34C101.645 227.559 97.358 222.462 93.4065 217.267C95.5979 225.641 96.5707 235.454 91.7475 243.096C95.6149 243.827 99.3696 245.06 102.916 246.766C102.924 246.599 102.934 246.434 102.946 246.267C103.376 242.277 103.669 238.429 102.898 234.34Z" fill="#C99105"/>
<path d="M84.7353 216.064C83.531 212.311 83.2901 208.466 83.6778 204.57C84.0632 200.434 85.7493 196.731 87.5799 193.124C83.9669 197.645 80.5947 202.646 79.8251 208.607C79.4775 211.153 79.4507 213.732 79.7452 216.285C80.6852 219.771 81.9882 223.205 82.3748 226.785C82.9823 232.415 81.1998 238.266 77.5257 242.655C79.9469 242.343 82.3896 242.23 84.8293 242.317C86.1548 239.272 86.9236 236.014 87.0993 232.699C87.433 227.029 86.4214 221.5 84.7353 216.064Z" fill="#C99105"/>
<path d="M112.488 170.5C112.239 169.284 111.964 168.076 111.674 166.872C111.204 165.375 110.704 163.882 110.173 162.392C109.016 159.121 107.86 155.899 106.413 152.725C104.889 149.41 103.151 146.197 101.211 143.107C97.694 137.288 94.1762 132.142 88.7807 127.859C86.8091 126.369 85.217 124.878 83.2901 123.342C81.4595 121.947 79.7252 120.889 77.8935 119.495C74.5565 117.02 71.692 114.592 69.4854 111.093C68.0214 112.425 66.9322 113.468 67.0179 113.537C75.6469 120.32 80.9202 131.168 80.9225 142.133C80.9225 157.998 70.5711 173.693 70.0905 188.265C71.0528 184.755 72.693 180.079 74.452 176.934C76.2708 173.684 78.6008 170.684 81.5382 168.381C82.0082 169.687 82.4782 170.995 82.7637 172.327C83.3624 175.156 83.6851 178.036 83.7272 180.927C83.7773 184.26 83.4466 187.587 82.7414 190.845C81.2762 197.584 78.2107 204.169 78.7465 211.037C78.8863 212.819 79.2682 214.556 79.7358 216.289C79.4412 213.736 79.4681 211.157 79.8157 208.611C80.5865 202.646 83.9586 197.645 87.5705 193.128C85.7399 196.735 84.0538 200.438 83.6684 204.573C83.283 208.47 83.5239 212.315 84.7259 216.068C86.412 221.503 87.4283 227.034 87.0864 232.709C86.9106 236.024 86.1418 239.281 84.8164 242.327C87.1419 242.407 89.4579 242.665 91.744 243.098C96.5672 235.457 95.5943 225.644 93.403 217.269C97.3544 222.464 101.642 227.562 102.894 234.342C103.665 238.431 103.376 242.278 102.943 246.27C102.931 246.437 102.92 246.602 102.912 246.768C103.539 247.07 104.157 247.387 104.767 247.719C107.103 241.988 106.131 235.497 104.475 229.545C102.818 223.594 100.499 217.727 100.208 211.565C99.7138 201.071 105.143 191.141 106.028 180.671C106.334 177.066 106.097 173.44 105.793 169.836C105.77 169.554 105.744 169.273 105.717 168.989C106.524 169.601 107.247 170.314 107.87 171.112C109.077 172.637 109.965 174.382 110.845 176.116C112.803 179.905 114.029 184.027 114.462 188.268C113.845 182.499 113.654 176.181 112.488 170.5Z" fill="#F2B406"/>
<path d="M106.365 130.23C107.583 123.497 111.084 116.956 116.823 113.212C112.487 107.516 108.907 104.453 106.175 102.515C95.8493 95.1913 86.7328 97.5981 76.3519 105.104C75.8256 105.485 72.0692 108.74 69.4843 111.086C71.6908 114.585 74.5554 117.013 77.8923 119.487C79.7241 120.882 81.4583 121.94 83.2889 123.335C85.2159 124.874 86.8056 126.364 88.7807 127.855C94.1762 132.136 97.694 137.282 101.211 143.103C103.151 146.194 104.889 149.407 106.413 152.721C107.859 155.895 109.015 159.117 110.173 162.389C110.705 163.874 111.205 165.368 111.674 166.868C110.363 161.422 108.715 156.055 107.493 150.585C106.001 143.911 105.149 136.964 106.365 130.23Z" fill="#C99105"/>
<path d="M168.273 81.6706C168.246 81.6556 168.216 81.6461 168.186 81.6426C168.155 81.6391 168.124 81.6417 168.094 81.6502C168.065 81.6587 168.037 81.673 168.013 81.6921C167.989 81.7113 167.969 81.7351 167.954 81.7621C167.85 81.9486 167.744 82.1339 167.643 82.3227L167.489 82.6042L167.343 82.8881C167.245 83.0781 167.145 83.2681 167.05 83.4593L166.77 84.0364C166.675 84.2276 166.586 84.4223 166.498 84.6228L166.231 85.2093C166.063 85.6023 165.889 85.9952 165.728 86.3916L165.487 86.9875L165.252 87.588C165.093 87.9868 164.955 88.3927 164.808 88.7962C164.524 89.6055 164.257 90.4218 164.008 91.2452C163.023 94.5446 162.308 97.918 161.867 101.332C161.645 103.04 161.479 104.756 161.38 106.477C161.324 107.337 161.295 108.198 161.272 109.057C161.262 109.488 161.255 109.918 161.256 110.348C161.257 110.777 161.256 111.21 161.263 111.638C161.263 111.85 161.273 112.074 161.279 112.297C161.284 112.52 161.295 112.739 161.304 112.961C161.314 113.183 161.329 113.402 161.343 113.622C161.357 113.843 161.374 114.061 161.391 114.279C161.424 114.718 161.468 115.153 161.516 115.585C161.564 116.016 161.613 116.449 161.672 116.875C161.899 118.588 162.194 120.261 162.495 121.909C162.795 123.557 163.074 125.181 163.294 126.792C163.517 128.383 163.644 129.986 163.672 131.592C163.68 132.384 163.651 133.172 163.593 133.959C163.536 134.746 163.441 135.529 163.311 136.305C163.06 137.855 162.66 139.378 162.119 140.852C161.581 142.317 160.877 143.716 160.02 145.022C159.62 145.692 159.18 146.337 158.703 146.954C158.221 147.578 157.699 148.17 157.139 148.726C155.005 150.896 152.319 152.447 149.37 153.211L148.231 153.346L143.46 164.841L144.008 165.565C144.322 166.186 144.601 166.824 144.844 167.477C145.126 168.231 145.356 169.003 145.533 169.787C145.577 169.981 145.619 170.176 145.657 170.374C145.696 170.572 145.731 170.762 145.76 170.96C145.824 171.348 145.877 171.738 145.914 172.133C145.988 172.907 146.018 173.683 146.004 174.46C145.975 175.986 145.771 177.503 145.394 178.982C145.015 180.451 144.491 181.878 143.83 183.244C143.162 184.618 142.395 185.942 141.534 187.205C140.666 188.49 139.718 189.718 138.696 190.884C138.181 191.477 137.638 192.057 137.074 192.622C136.51 193.187 135.927 193.752 135.324 194.297C134.72 194.842 134.102 195.387 133.466 195.916C132.83 196.445 132.184 196.971 131.53 197.494C130.221 198.542 128.887 199.594 127.572 200.695C126.915 201.248 126.263 201.813 125.623 202.396C125.302 202.687 124.984 202.983 124.669 203.284C124.513 203.435 124.355 203.585 124.199 203.739C124.043 203.893 123.888 204.046 123.74 204.199C121.339 206.629 119.079 209.194 116.972 211.882C114.869 214.562 112.941 217.373 111.199 220.3C110.764 221.029 110.351 221.772 109.941 222.514C109.742 222.89 109.537 223.26 109.344 223.639L109.052 224.203L108.768 224.773C108.578 225.151 108.401 225.537 108.217 225.918L107.951 226.495C107.863 226.688 107.776 226.88 107.692 227.075C107.339 227.846 107.024 228.63 106.713 229.42C106.698 229.474 106.703 229.531 106.727 229.582C106.751 229.632 106.792 229.672 106.842 229.695C106.893 229.718 106.95 229.723 107.004 229.708C107.057 229.693 107.104 229.659 107.135 229.613C107.916 228.128 108.735 226.669 109.623 225.253C110.061 224.541 110.518 223.846 110.978 223.142C111.439 222.438 111.918 221.764 112.408 221.089C113.385 219.738 114.4 218.418 115.452 217.129C116.505 215.841 117.597 214.59 118.728 213.376C119.855 212.154 121.013 210.965 122.2 209.807C122.795 209.229 123.396 208.658 124.003 208.093C124.611 207.53 125.225 206.973 125.847 206.427C126.004 206.289 126.156 206.158 126.309 206.025C126.462 205.893 126.618 205.761 126.773 205.631C127.087 205.369 127.402 205.111 127.72 204.858C128.359 204.351 129.012 203.853 129.677 203.365C131.003 202.382 132.372 201.427 133.753 200.454L135.835 198.979C136.53 198.48 137.234 197.98 137.927 197.454C138.62 196.929 139.315 196.399 139.995 195.831C140.676 195.263 141.344 194.677 141.993 194.058C143.31 192.807 144.494 191.424 145.526 189.93C146.571 188.418 147.435 186.788 148.1 185.075C148.773 183.349 149.223 181.544 149.442 179.704C149.657 177.865 149.603 176.005 149.281 174.181C149.123 173.281 148.894 172.395 148.598 171.53C148.305 170.673 147.943 169.841 147.516 169.042L147.352 168.748C147.296 168.65 147.234 168.553 147.181 168.457C147.064 168.262 146.946 168.074 146.829 167.886C146.682 167.67 146.534 167.457 146.38 167.247L152.089 153.484C152.279 153.441 152.47 153.396 152.659 153.349C153.083 153.231 153.506 153.114 153.922 152.97C155.603 152.383 157.19 151.557 158.635 150.518C159.365 149.99 160.06 149.414 160.715 148.794C161.041 148.482 161.36 148.161 161.665 147.826C161.971 147.492 162.273 147.15 162.551 146.792C163.616 145.334 164.512 143.76 165.219 142.1C165.573 141.275 165.883 140.431 166.149 139.574C166.284 139.146 166.403 138.714 166.518 138.283C166.633 137.853 166.734 137.414 166.824 136.977C167.191 135.23 167.412 133.456 167.486 131.673C167.559 129.917 167.538 128.158 167.422 126.404C167.32 124.67 167.152 122.963 166.974 121.283C166.795 119.603 166.602 117.951 166.437 116.325C166.398 115.918 166.356 115.513 166.319 115.11C166.302 114.909 166.282 114.707 166.267 114.507L166.217 113.905C166.185 113.505 166.159 113.106 166.137 112.709C166.124 112.511 166.111 112.312 166.103 112.114C166.095 111.916 166.084 111.721 166.078 111.514C165.947 108.24 165.906 104.958 166.013 101.674C166.064 100.032 166.15 98.3896 166.27 96.7475C166.394 95.1054 166.548 93.4633 166.74 91.8212C167.122 88.5299 167.699 85.2527 168.385 81.9368C168.399 81.8864 168.395 81.8328 168.375 81.7845C168.355 81.7363 168.319 81.6962 168.273 81.6706Z" fill="#841515"/>
<path fill-rule="evenodd" clip-rule="evenodd" d="M168.431 81.2792C168.777 81.5905 168.804 82.1229 168.493 82.4682L111.922 145.131L107.522 229.465C107.498 229.929 107.101 230.286 106.636 230.262C106.171 230.237 105.814 229.841 105.838 229.377L110.254 144.745C110.264 144.552 110.34 144.369 110.47 144.225L167.241 81.3406C167.552 80.9953 168.085 80.9678 168.431 81.2792Z" fill="#383838"/>
<path d="M144.249 158.05C144.332 158.138 144.413 158.225 144.484 158.31C144.962 158.846 145.446 159.389 146.048 159.781C146.73 160.224 147.529 160.452 148.342 160.438C148.685 160.431 149.047 160.384 149.359 160.519C150.029 160.806 150.125 161.707 150.064 162.433C150.002 163.159 149.946 164.016 150.505 164.481C151.425 164.181 152.128 163.401 152.535 162.523C152.941 161.646 153.087 160.675 153.188 159.708C153.295 158.686 153.342 157.597 152.835 156.7C152.163 155.527 150.72 155.041 149.369 154.918C148.726 154.861 148.077 154.862 147.43 154.842" fill="#6AB0EF"/>
<path d="M145.816 159.566C144.979 159.857 144.185 160.324 143.638 161.019C143.09 161.713 142.815 162.654 143.05 163.505C143.285 164.38 144.038 165.065 144.902 165.347C145.765 165.628 146.721 165.539 147.571 165.229C148.847 164.748 149.89 163.8 150.49 162.577C151.746 159.979 147.471 158.991 145.816 159.566Z" fill="#6AB0EF"/>
<path d="M115.766 144.078L115.389 145.437L196.547 167.89L196.924 166.531L115.766 144.078Z" fill="#660808"/>
<path d="M191.928 167.331L192.682 164.614L209.035 170.599L191.928 167.331Z" fill="#660808"/>
<path d="M107.944 146.695L124.353 151.233L128.847 148.392L112.439 143.854L107.944 146.695Z" fill="#EA6868"/>
<path d="M110.034 139.165L112.439 143.854L128.847 148.392L126.442 143.703L110.034 139.165Z" fill="#8E2121"/>
<path d="M105.788 150.224C103.524 149.936 101.405 149.503 99.1404 149.403C93.3102 149.115 87.6257 148.874 81.7003 147.864C75.5835 146.77 69.5136 145.483 64.762 141.288C64.263 141.804 63.7652 142.32 63.2686 142.837C64.2385 143.967 65.3593 144.958 66.5997 145.782C72.0186 149.407 78.9039 150.418 85.2816 150.826C87.601 150.974 89.9263 151.023 92.2504 151.03C97.0607 151.045 101.878 150.992 106.685 150.826C107.076 150.813 107.472 150.795 107.86 150.797C107.192 150.531 106.498 150.339 105.788 150.224Z" fill="#498EC1"/>
<path d="M113.264 149.584C113.581 149.481 113.854 149.273 114.037 148.995C114.221 148.717 114.304 148.385 114.274 148.053C114.243 147.721 114.101 147.41 113.87 147.17C113.638 146.929 113.332 146.775 113.001 146.731C113.765 146.058 113.652 144.737 112.942 144.007C112.231 143.276 111.114 143.078 110.106 143.222C109.098 143.366 108.163 143.808 107.225 144.205C102.127 146.37 96.8022 145.536 91.4972 144.646C86.7386 143.848 81.9271 143.004 77.4117 141.244C74.5495 140.135 71.4382 138.686 69.7615 136.177C68.0852 137.873 66.4187 139.576 64.762 141.288C69.5136 145.486 75.5835 146.772 81.7004 147.87C87.6316 148.878 93.3102 149.118 99.1463 149.407C101.41 149.503 103.53 149.936 105.794 150.228C106.503 150.342 107.198 150.533 107.866 150.798C108.53 150.781 109.192 150.872 109.827 151.066C110.827 151.402 111.74 152.246 111.802 153.295C112.707 153.116 113.631 152.676 114.058 151.861C114.484 151.045 114.154 149.828 113.264 149.584Z" fill="#6AB0EF"/>
<path d="M102.515 131.069C103.21 132.171 103.833 133.318 104.38 134.501C105.11 136.143 106.225 138.73 105.942 140.572C106.53 136.72 107.117 132.701 105.914 128.994C105.416 127.454 104.622 126.025 103.827 124.616C101.321 120.19 98.6912 115.838 95.9386 111.558C95.6895 111.171 95.3593 110.737 94.8988 110.749C92.7838 110.791 91.9026 114.912 92.4807 116.496C92.7051 117.108 93.1069 117.639 93.5041 118.157C96.2065 121.7 98.9089 125.259 101.259 129.055C101.668 129.709 102.095 130.379 102.515 131.069Z" fill="#8E2121"/>
<path d="M96.9432 49.1863C98.2792 45.9443 98.8103 42.2542 97.0455 39.099C95.6355 36.5186 92.993 34.3639 89.9592 34.3721C88.5505 34.3729 87.1574 34.6673 85.8692 35.2365L85.7763 35.3022C84.3414 36.3478 83.2069 37.7513 82.4864 39.3723C84.0198 37.7173 86.3979 36.9303 88.6374 37.2188C89.36 37.3115 90.0896 37.5191 90.6654 37.9648C91.744 38.7987 92.0753 40.3459 91.7652 41.6713C91.455 42.9967 90.5902 44.1344 89.6502 45.108C88.7102 46.0815 87.6316 46.953 86.7469 47.9922C85.1947 49.8243 84.263 52.203 84.3076 54.6029C84.3464 56.7482 85.1959 58.8876 86.6893 60.4218C91.2223 58.056 94.9763 53.9237 96.9432 49.1863Z" fill="#EA6868"/>
<path d="M101.741 39.4038C98.2768 33.857 91.5278 31.1347 85.8691 35.2364C87.1594 34.6676 88.5546 34.3744 89.965 34.3755C92.9988 34.3673 95.6472 36.5196 97.0513 39.1024C98.8137 42.2541 98.285 45.9441 96.9491 49.1896C94.9822 53.9271 91.2281 58.0594 86.6951 60.4252C86.8714 60.6058 87.057 60.7771 87.252 60.9436C89.3118 62.6749 92.1963 63.2402 94.8588 62.8274C99.1627 62.1588 102.994 58.9004 104.201 54.7224C104.709 52.963 104.773 51.1121 104.662 49.2893C104.444 45.8221 103.578 42.3479 101.741 39.4038Z" fill="#C64E4E"/>
<path d="M120.676 73.8075C123.398 72.9435 126.034 71.8287 128.549 70.4775C128.549 70.3403 128.549 70.2042 128.549 70.067C128.55 68.7052 128.387 67.3483 128.065 66.0251C119.777 64.7836 111.321 65.2595 103.226 67.4232C100.308 68.2067 97.3898 69.2119 94.4641 70.1467C94.4673 70.8681 94.516 71.5885 94.6098 72.3038C95.6085 72.6697 96.6366 72.9806 97.6647 73.3031C105.242 75.5352 113.031 76.2554 120.676 73.8075Z" fill="white"/>
<path d="M121.538 78.9026C122.727 76.979 123.223 74.944 123.379 72.8573C122.493 73.2014 121.592 73.5181 120.676 73.8074C113.031 76.2553 105.242 75.5351 97.6694 73.3031C96.6413 72.9805 95.6132 72.6697 94.6144 72.3037C95.1578 76.3905 97.1688 80.1415 100.274 82.8597C103.379 85.5778 107.367 87.0785 111.496 87.0827C115.566 85.579 119.143 83.0114 121.538 78.9026Z" fill="#498EC1"/>
<path d="M123.379 72.8574C123.223 74.9441 122.727 76.9791 121.538 78.9027C119.143 83.008 115.566 85.5791 111.496 87.0804H111.51C115.959 87.0802 120.231 85.3435 123.415 82.2413C126.598 79.1391 128.44 74.9172 128.548 70.4775C126.874 71.373 125.148 72.1677 123.379 72.8574Z" fill="#307199"/>
<path d="M115.865 72.2851C118.011 72.2851 119.751 70.5485 119.751 68.4062C119.751 66.264 118.011 64.5273 115.865 64.5273C113.719 64.5273 111.979 66.264 111.979 68.4062C111.979 70.5485 113.719 72.2851 115.865 72.2851Z" fill="#1A1A1A"/>
<path d="M105.753 51.8116C108.353 51.0635 111.077 50.8473 113.762 51.1758C116.448 51.5044 119.039 52.371 121.381 53.7236C123.722 55.0762 125.766 56.8871 127.39 59.0475C129.014 61.2079 130.183 63.6734 130.829 66.2961C122.882 65.1071 114.791 65.2554 106.893 66.7348C106.528 66.3303 106.188 65.9033 105.876 65.4563C102.937 61.2854 103.012 55.6095 105.753 51.8116Z" fill="#6AB0EF"/>
<path d="M105.753 51.8115C103.012 55.6095 102.933 61.2853 105.871 65.4563C106.182 65.9032 106.522 66.3302 106.887 66.7348C105.105 67.0694 103.337 67.4714 101.584 67.9405C98.1511 68.8636 94.7143 70.0518 91.2705 71.1462C91.2705 71.1157 91.2705 71.084 91.2705 71.0535C91.2713 66.7131 92.6838 62.4902 95.2956 59.0202C97.9074 55.5501 101.577 53.0204 105.753 51.8115Z" fill="#498EC1"/>
<path d="M88.9992 78.614C92.0607 77.643 95.025 76.3896 97.8538 74.87C97.8538 74.7163 97.8538 74.5627 97.8538 74.4079C97.8547 72.8769 97.6716 71.3514 97.3086 69.8639C87.99 68.468 78.4832 69.003 69.3808 71.4356C66.1014 72.3165 62.8186 73.4472 59.5298 74.497C59.533 75.3082 59.5876 76.1183 59.6932 76.9226C60.8164 77.3355 61.9726 77.685 63.1276 78.0475C71.6449 80.5564 80.4031 81.3669 88.9992 78.614Z" fill="white"/>
<path d="M82.5076 89.9389C83.1844 89.5636 83.7859 89.1882 84.2371 88.7378C87.5658 85.7902 90.166 82.0005 91.3539 77.8072C90.58 78.095 89.7967 78.364 89.004 78.6142C80.4079 81.3671 71.6497 80.5566 63.1347 78.0477C61.9797 77.6853 60.8236 77.3357 59.7003 76.9229C60.1506 80.3039 61.4972 83.5035 63.6011 86.191C65.705 88.8785 68.4897 90.9564 71.6673 92.2097C75.392 92.5076 79.1848 91.7968 82.5076 89.9389Z" fill="#498EC1"/>
<path d="M91.3539 77.8071C90.166 82.0004 87.5658 85.7901 84.2371 88.7377C83.7859 89.1881 83.1796 89.5588 82.5075 89.9388C79.1847 91.7967 75.3919 92.5075 71.6673 92.2096C74.5372 93.337 77.6373 93.7566 80.7043 93.4327C83.7714 93.1089 86.7149 92.0511 89.285 90.3493C91.8552 88.6474 93.9761 86.3517 95.4679 83.657C96.9596 80.9622 97.778 77.948 97.8538 74.8701C95.7555 75.9935 93.584 76.9747 91.3539 77.8071Z" fill="#307199"/>
<path d="M83.5896 76.904C86.003 76.904 87.9594 74.951 87.9594 72.5418C87.9594 70.1327 86.003 68.1797 83.5896 68.1797C81.1763 68.1797 79.2199 70.1327 79.2199 72.5418C79.2199 74.951 81.1763 76.904 83.5896 76.904Z" fill="#1A1A1A"/>
<path d="M72.2207 53.8356C74.2613 53.2476 76.3747 52.9499 78.4986 52.9512C89.1109 52.9512 98.0101 60.2668 100.415 70.1218C91.4793 68.7852 82.3823 68.9517 73.5015 70.6144C73.09 70.16 72.7078 69.6801 72.357 69.1776C69.053 64.4882 69.1376 58.1062 72.2207 53.8356Z" fill="#6AB0EF"/>
<path d="M72.2207 53.8359C69.1376 58.1066 69.0483 64.4885 72.3594 69.1779C72.7094 69.6804 73.0908 70.1603 73.5014 70.6148C71.4969 70.9901 69.5097 71.4409 67.5396 71.9672C63.6775 73.004 59.8142 74.3353 55.9415 75.5716C55.9415 75.5364 55.9415 75.5012 55.9415 75.466C55.9429 70.5871 57.5308 65.8406 60.4664 61.9399C63.4021 58.0393 67.5269 55.1954 72.2207 53.8359Z" fill="#498EC1"/>
<path d="M82.2491 107.928C78.0768 105.559 73.6401 103.641 69.852 100.577C68.8427 99.7391 67.9114 98.8115 67.0697 97.8057C67.0356 98.2655 67.0356 98.751 67.0215 99.2343C66.9779 100.469 67.0306 101.706 67.1789 102.933C69.9636 105.303 73.5108 106.281 77.1662 106.986C78.9016 107.261 80.5818 107.572 82.2491 107.928Z" fill="#474746"/>
<path d="M82.2491 107.928C80.5771 107.576 78.9016 107.261 77.1685 106.98C73.5108 106.277 69.9636 105.297 67.1813 102.927C67.4339 104.906 67.985 106.84 68.9966 108.497C69.9812 110.109 71.2819 111.294 72.6108 112.354C74.9147 114.203 77.4409 115.758 80.1306 116.982C80.241 117.034 80.3339 117.063 80.449 117.119C83.8564 116.98 86.9924 115.36 89.1544 112.736C87.4129 111.231 85.544 109.88 83.5686 108.698C83.1315 108.435 82.6916 108.178 82.2491 107.928Z" fill="#606060"/>
<path d="M99.2215 107.106C98.2952 108.07 97.427 109.088 96.6213 110.155C94.9575 112.35 93.4642 115.017 93.4489 117.866C92.281 115.949 90.8309 114.217 89.1473 112.73C86.9877 115.355 83.86 116.979 80.4396 117.108C83.7965 118.564 87.2392 119.463 90.3787 121.481C93.1187 123.241 95.283 125.959 96.6906 128.915C96.2723 122.852 98.4072 117.817 102.266 113.354C106.124 108.891 110.223 107.94 114.901 104.886C117.134 103.427 118.828 101.187 119.973 98.657C120.045 98.4951 120.115 98.3309 120.182 98.1655C119.196 98.7461 118.133 99.1844 117.025 99.4675C111.038 101.417 104.294 103.33 99.2215 107.106Z" fill="#474746"/>
<path d="M118.274 95.5524C114.758 98.0261 111.319 99.5498 107.449 101.315C104.358 102.697 101.565 104.663 99.2238 107.106C104.296 103.33 111.04 101.417 117.028 99.4735C118.134 99.1899 119.195 98.7515 120.178 98.1716C120.838 96.5515 121.223 94.8332 121.318 93.0869C120.358 93.9736 119.341 94.7972 118.274 95.5524Z" fill="#383838"/>
<path d="M81.906 91.6652C83.7535 91.0708 85.4737 90.1376 86.9784 88.9135C81.3103 91.8881 74.472 92.2587 68.4373 89.419C67.7822 89.1045 67.1434 88.7573 66.5233 88.3786C65.1233 87.5394 63.8404 86.5191 62.7082 85.3442C62.7376 86.048 62.7634 86.706 62.7987 87.425C62.8439 88.3339 62.9713 89.2368 63.1794 90.1228C68.7452 93.2287 75.7574 93.6404 81.906 91.6652Z" fill="#474746"/>
<path d="M104.091 84.0837C103.877 83.9204 103.698 83.7162 103.564 83.4831C103.489 83.4081 103.263 83.4832 103.113 83.4081C102.241 82.5944 101.527 81.6269 101.007 80.5543C100.302 79.1527 99.6574 77.5352 98.3273 76.6191C96.9785 76.8842 96.0949 79.094 95.5626 80.1379C94.6626 81.9032 93.8201 83.4222 92.4067 84.8684C90.8208 86.4923 88.989 87.8571 86.9783 88.9127C85.4736 90.1368 83.7534 91.07 81.906 91.6644C75.7574 93.6396 68.7463 93.2279 63.1793 90.1184C63.8326 92.9335 65.2449 95.5714 67.0497 97.7824C67.8873 98.8016 68.8245 99.7352 69.8473 100.569C74.049 103.971 79.0191 105.946 83.565 108.697C85.5424 109.88 87.414 111.232 89.159 112.736C89.2002 112.679 89.2648 112.584 89.3188 112.516C90.7852 110.619 91.7287 108.134 92.2187 105.865C92.8531 102.933 92.9084 99.2204 95.5967 97.4375C98.0265 95.8271 100.713 96.9414 103.539 96.5743C106.288 96.2224 107.834 94.5369 109.649 92.5112C109.828 92.0632 109.982 91.6055 110.109 91.1401C111.013 87.6119 106.873 85.8079 104.091 84.0837Z" fill="#606060"/>
<path d="M111.7 84.8579C110.359 84.7186 109.044 84.3876 107.798 83.875C106.772 83.4529 105.797 82.9166 104.892 82.2763C102.728 80.7644 101.731 77.825 99.2309 76.733C98.9494 76.6007 98.6334 76.5597 98.3274 76.6157C99.6574 77.5318 100.305 79.1493 101.007 80.5509C101.527 81.6235 102.241 82.591 103.113 83.4047C103.263 83.4797 103.489 83.4047 103.564 83.4797C103.698 83.7128 103.877 83.917 104.091 84.0803C106.873 85.808 111.013 87.612 110.108 91.1402C109.981 91.6056 109.827 92.0634 109.648 92.5113L109.735 92.4152C110.788 91.2245 111.757 89.9625 112.635 88.6383C113.46 87.4363 114.225 86.1938 114.926 84.9154C113.851 84.979 112.772 84.9598 111.7 84.8579Z" fill="#474746"/>
<path d="M127.28 76.9722C125.987 77.7006 125.41 79.65 124.434 80.647C121.875 83.2603 118.486 84.5798 114.925 84.9188C114.248 86.1844 113.439 87.4418 112.635 88.6382C111.757 89.9625 110.788 91.2244 109.735 92.415C107.876 94.4841 106.328 96.2118 103.534 96.5742C100.707 96.9425 98.0218 95.8259 95.5908 97.4375C92.9013 99.2216 92.8484 102.933 92.2139 105.865C91.7228 108.135 90.7816 110.618 89.3129 112.516C89.2601 112.584 89.2013 112.68 89.1484 112.735C90.8321 114.223 92.2826 115.955 93.4512 117.872C93.4665 115.022 94.9575 112.36 96.6236 110.162C99.6315 106.195 102.903 103.391 107.451 101.315C111.328 99.5453 114.752 98.031 118.281 95.5468C119.353 94.7956 120.374 93.9726 121.336 93.0836C123.037 91.5189 124.419 90.0938 125.574 87.8605C127.118 84.8695 128.03 80.4124 127.28 76.9722Z" fill="#474746"/>
<path d="M62.0173 129.262C61.7823 131.439 62.17 133.739 63.4202 135.537C63.6799 135.909 64.1017 136.296 64.527 136.137C64.0041 132.773 64.003 129.258 65.1345 126.05C65.4035 125.284 66.2895 123.499 65.6315 122.738C65.044 122.061 64.312 122.527 63.869 123.073C62.761 124.431 62.1994 127.564 62.0173 129.262Z" fill="#8DCDFC"/>
<path d="M61.4404 64.5269C61.3112 64.7873 61.1854 65.0629 61.1984 65.3538C61.2113 65.6447 61.4087 65.9403 61.6977 65.9801C61.9868 66.02 62.2182 65.7995 62.4192 65.6025C65.1087 62.9657 68.1671 60.4204 71.8682 59.7085C73.2136 59.4504 75.5776 58.4358 73.8445 56.789C72.7648 55.7615 70.8637 56.6354 69.6934 57.0881C66.1591 58.4569 63.1347 61.1312 61.4404 64.5269Z" fill="#8DCDFC"/>
<path d="M60.7531 223.21C60.7362 223.34 60.757 223.471 60.813 223.589C60.9528 223.824 61.3241 223.796 61.518 223.609C61.7118 223.423 61.7812 223.14 61.8411 222.878C62.7797 218.715 64.1134 214.65 65.8242 210.74C66.1297 210.042 66.4517 209.332 66.5116 208.571C66.6902 206.297 65.232 207.121 64.5271 208.438C63.7116 209.963 63.0877 211.623 62.5484 213.261C61.4894 216.478 60.8851 219.827 60.7531 223.21Z" fill="#808DBC"/>
<path d="M87.493 185.957C89.4387 183.435 91.1901 180.768 92.7321 177.981C94.8577 188.241 89.6913 198.726 90.5068 209.171C91.126 203.764 94.0951 198.959 96.1642 193.923C100.116 184.227 100.786 173.508 98.07 163.397C97.9948 166.402 96.9914 169.297 95.9974 172.134C94.1069 165.899 91.5971 166.801 89.118 153.853C89.3729 154.416 88.3484 157.076 88.2367 157.793C88.0071 159.264 87.8846 160.75 87.8701 162.238C87.8478 164.692 88.3143 166.843 88.7678 169.221C89.8331 174.814 89.3932 180.589 87.493 185.957Z" fill="#FFD878"/>
<path d="M90.3094 92.2659C90.025 92.5005 89.7078 92.8805 89.9263 93.1738C89.9977 93.2564 90.0898 93.3187 90.193 93.3544C92.3808 94.2928 94.7836 92.1322 97.1406 92.4618C98.1911 92.6084 99.2027 93.2512 100.243 93.0342C101.282 92.8172 101.966 91.7768 102.108 90.7341C102.251 89.6913 101.943 88.6439 101.62 87.641C101.012 85.7166 100.274 83.8355 99.4107 82.0109C97.707 78.4745 96.5907 84.1386 95.82 85.5872C94.4472 88.1577 92.5736 90.4284 90.3094 92.2659Z" fill="#727272"/>
</svg>
