<svg width="168" height="206" viewBox="0 0 228 280" fill="none" xmlns="http://www.w3.org/2000/svg">
<path d="M195.315 85.6871C194.653 88.5779 193.191 91.2254 191.096 93.3287C191.545 91.1122 191.995 88.8723 191.954 86.6147C191.912 84.3572 191.338 82.041 189.93 80.2666C190.234 83.684 188.352 86.922 186.141 89.5513C184.631 91.3491 182.843 93.1939 182.677 95.5324C182.107 94.7771 181.724 93.8978 181.561 92.9666C181.397 92.0354 181.457 91.0788 181.736 90.1752C180.425 92.5266 179.102 94.9038 178.361 97.4909C177.789 99.4845 177.588 101.639 178.017 103.651C179.139 106.052 180.896 108.108 183.352 109.439C185.312 110.505 187.412 111.415 189.637 111.599C191.862 111.783 194.241 111.148 195.759 109.515C197.589 107.547 197.835 104.602 197.673 101.923C197.604 100.798 197.482 99.6605 197.42 98.5287C196.762 97.0182 195.82 95.5159 195.439 93.9257C194.791 91.2459 195.782 88.4043 195.315 85.6871Z" fill="#A888FF"/>
<path d="M199.515 79.0763C198.445 75.558 196.576 72.3423 194.623 69.2251C195.674 72.7584 195.59 76.5317 194.381 80.0145C192.853 76.7308 191.319 73.4119 190.46 69.8901C189.601 66.3683 189.453 62.5862 190.683 59.1758C188.386 61.5815 186.853 64.611 186.277 67.8835C185.757 70.8752 186.06 73.9431 185.904 76.9747C185.748 80.0063 185.032 83.1985 182.893 85.3587C183.599 82.1157 183.025 78.7259 181.29 75.8946C181.284 79.1039 180.692 82.2853 179.542 85.2825C178.752 87.336 177.701 89.2968 177.136 91.423C176.07 95.4315 176.287 99.9548 178.014 103.653C177.585 101.64 177.786 99.4869 178.357 97.492C179.099 94.9049 180.421 92.5278 181.733 90.1764C181.454 91.0799 181.394 92.0366 181.557 92.9678C181.721 93.899 182.103 94.7783 182.673 95.5335C182.84 93.1939 184.628 91.3491 186.138 89.5525C188.349 86.9232 190.231 83.6887 189.926 80.2678C191.337 82.0386 191.909 84.3548 191.95 86.6159C191.991 88.877 191.541 91.1134 191.092 93.3299C193.187 91.2266 194.649 88.5791 195.312 85.6883C195.782 88.4055 194.787 91.2471 195.429 93.928C195.811 95.5183 196.753 97.0206 197.411 98.5311C197.325 96.9678 197.352 95.4151 197.793 93.921C198.204 92.5254 198.958 91.2553 199.481 89.8973C200.805 86.4646 200.584 82.5945 199.515 79.0763Z" fill="#854FFC"/>
<path d="M188.854 113.655C193.871 113.655 197.939 109.597 197.939 104.591C197.939 99.5846 193.871 95.5264 188.854 95.5264C183.837 95.5264 179.77 99.5846 179.77 104.591C179.77 109.597 183.837 113.655 188.854 113.655Z" fill="#FFF5D7"/>
<path d="M47.2358 186.11C44.2481 187.534 42.8165 191.782 39.5572 192.287C39.1459 192.35 38.7074 192.343 38.3325 192.144C37.6108 191.759 37.3476 190.761 37.5098 189.938C37.672 189.115 38.168 188.414 38.6287 187.737C40.2072 185.391 41.5835 182.726 41.6247 179.824C41.6407 178.3 41.2203 176.802 40.4129 175.507C38.5375 177.017 36.8934 178.792 35.5328 180.777C31.2075 187.101 29.2799 195.671 23.1176 199.892C27.9682 201.117 32.9835 201.163 37.8095 199.831C44.2904 198.131 49.3844 193.677 54.7346 189.671C54.6864 189.528 54.6358 189.385 54.5771 189.245C53.3935 186.413 49.8815 184.85 47.2358 186.11Z" fill="#F2B406"/>
<path d="M23.121 199.898C23.0035 199.979 22.886 200.059 22.7684 200.133C29.4491 203.759 37.1077 206.246 44.3538 204.597C44.1997 204.326 44.0864 204.033 44.0177 203.728C43.5875 201.802 45.1707 200.025 46.8738 199.241C48.5769 198.458 50.5174 198.245 52.11 197.248C54.4783 195.763 55.6584 192.439 54.7475 189.675C49.3926 193.681 44.2986 198.136 37.8224 199.836C32.9881 201.168 27.9717 201.123 23.121 199.898Z" fill="#C99105"/>
<path d="M66.7102 185.981C62.9843 185.337 59.2385 186.431 56.179 188.62C55.6972 188.967 55.218 189.319 54.7416 189.675C55.6525 192.438 54.4724 195.763 52.1041 197.248C50.5091 198.247 48.571 198.462 46.8679 199.241C45.1648 200.021 43.5769 201.802 44.0118 203.728C44.0805 204.033 44.1938 204.326 44.3479 204.597L44.6359 204.531C51.681 202.817 57.5765 197.327 64.7709 196.43C67.2156 196.127 69.698 196.373 72.1639 196.368C78.3098 196.356 84.4557 194.738 89.6766 191.431C92.1073 189.888 94.3003 188.002 96.1869 185.83C94.217 187.173 92.0626 188.11 89.7742 188.762C81.8829 191.024 74.4288 187.395 66.7102 185.981Z" fill="#8E2121"/>
<path d="M101.41 177.13C101.857 175.945 102.226 174.61 101.799 173.397C101.425 172.335 100.421 171.542 99.3521 171.466C97.2365 171.316 95.4735 174.632 93.9455 175.946C91.6089 177.963 88.6811 178.969 85.6346 178.95C81.6678 178.927 77.8255 177.395 74.1972 175.634C70.5689 173.872 67.0193 171.846 63.1795 170.72C55.3728 168.431 46.7245 170.411 40.4117 175.507C41.2191 176.802 41.6395 178.299 41.6235 179.824C41.5823 182.725 40.206 185.39 38.6275 187.737C38.1667 188.419 37.6754 189.115 37.5085 189.938C37.3416 190.761 37.6061 191.759 38.3313 192.144C38.7062 192.343 39.1446 192.35 39.556 192.287C42.8153 191.781 44.2469 187.534 47.2346 186.11C49.8803 184.849 53.3923 186.413 54.5829 189.251C54.6417 189.39 54.6922 189.533 54.7404 189.676C55.216 189.32 55.6952 188.968 56.1779 188.621C59.2338 186.432 62.9832 185.337 66.709 185.982C74.4276 187.396 81.8829 191.025 89.773 188.766C92.0614 188.114 94.2159 187.177 96.1857 185.834C98.4295 183.264 100.198 180.317 101.41 177.13Z" fill="#BC3B3B"/>
<path d="M49.208 179.409C52.2626 177.803 55.609 176.825 59.0492 176.532C56.8762 177.671 55.1642 179.524 54.2033 181.778C56.3365 179.729 59.3619 178.914 62.2768 179.048C65.1916 179.181 68.0266 180.182 70.7287 181.393C68.1001 179.416 65.1483 177.908 62.0041 176.937C63.7484 176.593 65.5551 176.764 67.2038 177.428C64.2713 175.254 61.0544 173.701 57.4484 174.155C55.7826 174.37 54.1843 174.946 52.7658 175.844C51.4412 176.68 50.4186 178.77 49.208 179.409Z" fill="#EA6868"/>
<path d="M98.3719 173.344C92.8619 173.363 90.9672 180.829 89.3546 185.177C86.6513 192.448 84.6344 200.029 83.5354 207.714C83.4508 208.3 83.3897 208.878 83.5354 209.441C83.7059 210.12 84.1161 210.662 84.565 211.16C85.8298 212.566 87.2461 213.828 88.7881 214.924C89.538 208.847 90.49 202.785 91.8687 196.489C93.5859 188.323 95.8919 181.034 98.3719 173.344Z" fill="#BC3B3B"/>
<path d="M103.847 178.116C103.612 175.868 102.043 173.983 99.8775 173.511C99.3833 173.401 98.8784 173.345 98.3719 173.344C95.8919 181.034 93.5859 188.323 91.8651 196.489C90.4865 202.785 89.5344 208.847 88.7845 214.924C89.1701 215.197 89.5642 215.461 89.967 215.714C92.8278 204.907 96.9662 194.37 102.004 184.437C103.05 182.374 104.089 180.364 103.847 178.116Z" fill="#8E2121"/>
<path d="M89.9693 229.306C90.7145 224.615 90.9966 219.807 89.9294 215.141C89.6297 213.828 89.2418 212.552 88.8633 211.252C87.923 210.314 86.9957 209.335 85.53 209.486C83.1417 209.731 81.8147 211.817 80.7428 213.8C79.1447 216.762 77.7098 219.809 76.4445 222.928C74.9765 226.544 73.6354 230.219 72.8397 234.069C71.9994 238.138 71.2883 242.309 71.0685 246.473C71.0085 247.604 71.0508 248.752 71.5057 249.757C72.0534 250.969 72.9796 251.687 73.9833 252.478C74.5814 251.936 75.2695 251.502 76.0167 251.196C77.5059 250.765 78.968 250.706 80.4572 251.168C80.7393 250.874 81.0096 250.604 81.287 250.3C86.5972 244.496 88.7575 236.91 89.9693 229.306Z" fill="#434344"/>
<path d="M91.4702 230.588C91.6078 227.755 91.6183 224.884 91.5173 222.045C91.408 218.958 91.1012 215.862 89.88 212.995C89.6155 212.374 89.2359 211.822 88.861 211.261C89.2465 212.538 89.6296 213.831 89.9282 215.131C90.9966 219.791 90.7145 224.617 89.9681 229.297C88.7587 236.893 86.5984 244.505 81.2882 250.289C81.0108 250.591 80.7405 250.876 80.4584 251.161C81.1342 251.473 81.7618 251.79 82.3107 252.305C82.802 252.766 83.09 253.335 83.3521 253.947C84.6413 253.09 85.8697 252.145 87.0286 251.12C87.6758 250.522 88.2843 249.885 88.8504 249.21C89.1395 247.93 89.3969 246.64 89.6496 245.359C90.6198 240.487 91.2283 235.55 91.4702 230.588Z" fill="#323233"/>
<path d="M82.3178 252.238C80.4866 250.735 78.2522 250.489 76.0167 251.137C75.2721 251.442 74.5857 251.872 73.988 252.41C74.8237 252.925 75.7064 253.422 76.5738 253.859C77.3437 254.246 78.09 254.664 78.8963 254.928C80.369 255.411 81.9029 255.568 83.3627 256.077L83.5672 256.145C83.6306 254.671 83.3298 253.355 82.3178 252.238Z" fill="#262626"/>
<path d="M87.0286 251.063C85.8685 252.089 84.6398 253.036 83.3509 253.895C83.5348 254.632 83.6092 255.391 83.5719 256.148C83.6562 256.172 83.7442 256.181 83.8316 256.173C83.9886 256.137 84.1363 256.069 84.2653 255.972C85.7862 254.891 87.2037 253.759 87.9712 252C88.3555 251.113 88.5859 250.093 88.8515 249.159C88.2826 249.829 87.6738 250.465 87.0286 251.063Z" fill="#434344"/>
<path d="M67.4754 259.522C66.7702 259.798 65.9945 260.008 65.2657 260.245C65.3421 260.245 65.4421 260.258 65.5243 260.261C67.5377 260.348 69.6651 260.364 71.6291 260.015C73.4615 259.689 74.9518 258.903 76.4798 257.932C78.5567 256.615 80.6441 255.323 82.8173 254.156C83.2259 253.952 83.598 253.682 83.9186 253.357C83.9681 253.297 84.0125 253.232 84.0514 253.165C83.1895 252.143 82.3276 251.124 81.4657 250.107C81.4069 250.171 81.3481 250.24 81.2835 250.302C77.4061 254.339 72.6943 257.485 67.4754 259.522Z" fill="#323233"/>
<path d="M64.282 260.452C67.8151 260.922 71.903 260.558 75.0036 258.678L73.6014 256.435C71.6338 257.594 69.6193 258.645 67.4754 259.456C66.4435 259.845 65.3492 260.15 64.282 260.452Z" fill="#323233"/>
<path d="M74.2243 244.994C71.7314 245.542 70.0777 247.6 68.7084 249.623C67.4907 251.423 66.4494 253.322 65.3375 255.21C64.6887 256.309 62.5401 258.759 64.0317 259.889C64.3843 260.159 64.8544 260.085 65.2622 260.192C65.9933 259.948 66.7655 259.739 67.4754 259.464C72.6959 257.428 77.4091 254.282 81.287 250.245C81.347 250.182 81.4104 250.112 81.4692 250.05C80.1093 248.435 78.7189 246.851 77.3555 245.233C76.273 245.006 75.3527 244.747 74.2243 244.994Z" fill="#434344"/>
<path d="M70.0836 254.052C68.5556 253.817 67.07 253.6 65.5114 253.817C63.9529 254.034 62.4955 254.646 61.4459 255.88C61.1036 256.248 60.8577 256.695 60.7301 257.18C60.1154 259.532 62.412 260.179 64.2808 260.454C65.3504 260.164 66.4423 259.854 67.4755 259.463C69.6193 258.65 71.6327 257.604 73.6014 256.442C73.2194 255.833 72.8362 255.231 72.4495 254.626C71.6574 254.42 70.8969 254.169 70.0836 254.052Z" fill="#434344"/>
<path d="M62.673 256.388C62.4379 256.608 62.2651 256.892 62.3474 257.216C62.4967 257.803 63.0973 257.965 63.6403 257.792C64.1833 257.62 64.5806 257.193 65.0507 256.879C65.3997 256.651 65.7755 256.468 66.1697 256.333C66.4047 256.249 66.6762 256.23 66.8749 256.074C68.1395 255.059 66.4047 254.911 65.7595 254.972C64.4254 255.1 63.5968 255.532 62.673 256.388Z" fill="#5D5D5E"/>
<path d="M90.2045 207.303C89.4456 206.807 88.6411 206.385 87.802 206.041C82.6575 203.944 80.9979 207.465 79.0221 211.436C76.6961 216.111 75.0624 221.09 73.4392 226.04C75.135 225.989 76.8322 226.028 78.5238 226.157C79.4864 221.987 80.6394 218.182 82.6775 214.43C82.7892 214.263 82.7339 214.097 82.7891 213.93H82.9561C82.0945 218.044 81.2071 222.185 80.8404 226.384C83.4658 226.711 86.0602 227.251 88.5978 227.998C89.8754 221.158 90.6135 214.221 90.2045 207.303Z" fill="#434344"/>
<path d="M94.6743 213.846C94.4815 211.089 92.521 208.818 90.2079 207.303C90.6169 214.222 89.8729 221.158 88.5953 228.006C90.9796 228.708 93.3055 229.594 95.5522 230.655C95.3587 225.047 95.066 219.444 94.6743 213.846Z" fill="#323233"/>
<path d="M114.336 178.726C113.716 180.821 114.391 182.963 115.002 184.992C117.94 194.765 119.855 204.851 121.045 214.984C122.193 214.476 123.306 213.894 124.378 213.24C124.006 200.388 122.347 187.5 116.06 176.171C115.238 176.828 114.637 177.719 114.336 178.726Z" fill="#BC3B3B"/>
<path d="M127.163 187.482C126.384 182.882 125.681 174.582 119.036 175.005C117.946 175.08 116.907 175.49 116.06 176.178C122.347 187.507 124.006 200.394 124.378 213.247C125.31 212.677 126.207 212.05 127.062 211.37C127.582 210.957 128.077 210.522 128.355 209.903C128.582 209.389 128.606 208.877 128.617 208.332C128.758 201.257 128.362 194.562 127.163 187.482Z" fill="#8E2121"/>
<path d="M120.353 227.749C120.236 223.245 120.62 218.719 122.384 214.524C122.873 213.336 123.442 212.205 124.03 211.055C125.043 210.234 126.209 209.521 127.578 209.765C129.811 210.166 130.88 212.316 131.65 214.267C132.796 217.18 133.783 220.152 134.606 223.172C135.562 226.675 136.431 230.282 136.705 233.906C136.994 237.735 137.058 241.529 137.011 245.357C136.998 246.398 136.961 247.433 136.482 248.378C135.906 249.518 134.971 250.299 133.943 251.014C133.319 250.494 132.611 250.084 131.848 249.803C130.346 249.322 128.815 249.199 127.273 249.568C127.009 249.271 126.736 248.96 126.488 248.65C121.741 242.744 120.54 235.114 120.353 227.749Z" fill="#434344"/>
<path d="M118.695 228.798C118.933 226.11 119.307 223.436 119.815 220.786C120.367 217.899 121.108 215.023 122.753 212.543C123.125 212.005 123.552 211.509 124.029 211.062C123.441 212.196 122.873 213.34 122.383 214.523C120.62 218.716 120.231 223.244 120.352 227.749C120.538 235.11 121.743 242.749 126.485 248.651C126.733 248.959 127.011 249.284 127.272 249.573C126.552 249.807 125.879 250.076 125.273 250.533C124.729 250.941 124.38 251.457 124.077 252.058C122.832 251.093 121.671 250.027 120.605 248.869C120.019 248.22 119.483 247.528 119.002 246.799C118.854 245.55 118.767 244.241 118.661 242.998C118.271 238.272 118.283 233.522 118.695 228.798Z" fill="#323233"/>
<path d="M125.268 250.533C127.234 249.173 129.616 249.096 131.849 249.812C132.611 250.093 133.319 250.502 133.942 251.022C133.066 251.555 132.159 252.036 131.227 252.462C130.404 252.842 129.61 253.226 128.739 253.46C127.148 253.889 125.479 253.835 123.877 254.211C123.803 254.228 123.728 254.245 123.654 254.259C123.678 252.795 124.119 251.478 125.268 250.533Z" fill="#262626"/>
<path d="M120.604 248.869C121.67 250.028 122.832 251.094 124.078 252.058C123.804 252.758 123.66 253.502 123.653 254.254C123.562 254.271 123.468 254.271 123.378 254.254C123.217 254.205 123.07 254.121 122.946 254.008C121.498 252.809 120.117 251.546 119.556 249.695C119.274 248.757 119.147 247.766 119.001 246.802C119.485 247.528 120.02 248.219 120.604 248.869Z" fill="#434344"/>
<path d="M140.829 257.441C141.588 257.693 142.264 257.864 143.027 258.063C142.941 258.063 142.859 258.083 142.776 258.091C140.723 258.281 138.643 258.428 136.593 258.22C134.681 258.027 133.044 257.351 131.378 256.396C129.117 255.099 126.845 253.698 124.618 252.317C124.214 252.066 123.824 251.794 123.539 251.41C123.494 251.345 123.455 251.277 123.421 251.206C124.388 250.288 125.356 249.371 126.317 248.444C126.375 248.519 126.435 248.583 126.488 248.654C130.317 253.305 135.237 255.588 140.829 257.441Z" fill="#323233"/>
<path d="M143.992 258.283C140.739 258.9 135.977 258.709 133.001 257.149C133.48 256.399 133.956 255.648 134.429 254.896C136.495 255.916 138.649 256.724 140.832 257.441C141.882 257.786 142.919 258.039 143.992 258.283Z" fill="#323233"/>
<path d="M133.982 243.992C136.271 244.56 137.873 246.337 139.291 248.116C140.565 249.711 141.742 251.38 142.817 253.114C143.443 254.13 145.727 256.685 144.233 257.717C143.88 257.963 143.44 257.975 143.034 258.069C142.268 257.862 141.596 257.7 140.836 257.448C135.24 255.585 130.324 253.314 126.497 248.652C126.437 248.579 126.379 248.518 126.327 248.443C127.839 246.986 129.354 245.537 130.875 244.083C131.901 243.877 132.944 243.731 133.982 243.992Z" fill="#434344"/>
<path d="M138.005 252.35C139.515 251.99 141.029 251.615 142.589 251.719C144.148 251.823 145.596 252.364 146.645 253.561C146.978 253.922 147.228 254.351 147.378 254.819C148.139 257.077 145.797 257.916 143.993 258.281C142.92 258.046 141.878 257.786 140.833 257.441C138.649 256.723 136.496 255.916 134.431 254.896C134.814 254.285 135.198 253.679 135.584 253.068C136.375 252.812 137.199 252.543 138.005 252.35Z" fill="#434344"/>
<path d="M145.46 254.139C145.683 254.359 145.863 254.636 145.813 254.96C145.72 255.539 145.082 255.758 144.545 255.608C144.007 255.458 143.604 255.047 143.144 254.752C142.799 254.535 142.424 254.37 142.032 254.261C141.797 254.193 141.537 254.172 141.326 254.041C139.988 253.184 141.808 252.86 142.423 252.885C143.697 252.934 144.59 253.289 145.46 254.139Z" fill="#5D5D5E"/>
<path d="M132.385 211.378C130.41 207.408 128.75 203.886 123.606 205.984C123.107 206.187 122.622 206.419 122.15 206.678C121.054 212.364 121.162 217.771 121.321 223.379C121.394 225.008 121.584 226.629 121.89 228.231C124.718 227.336 127.623 226.701 130.568 226.333C130.2 222.134 129.313 217.994 128.453 213.879H128.621C128.676 214.045 128.621 214.213 128.731 214.38C130.768 218.132 131.924 221.931 132.886 226.1C134.578 225.971 136.275 225.932 137.971 225.983C136.344 221.033 134.711 216.054 132.385 211.378Z" fill="#434344"/>
<path d="M122.15 206.678C119.447 208.161 116.952 210.666 116.733 213.789C116.342 219.387 116.05 224.989 115.859 230.597C117.814 229.674 119.828 228.884 121.89 228.231C121.584 226.63 121.394 225.008 121.321 223.379C121.162 217.771 121.054 212.364 122.15 206.678Z" fill="#323233"/>
<path d="M118.982 188.101C118.593 184.655 117.423 181.377 114.527 179.1C113.08 177.989 111.41 177.821 109.684 177.927C104.171 178.316 98.2685 179.538 93.3685 175.933C92.9967 175.701 92.643 175.44 92.3107 175.154C91.6677 174.715 91.0708 174.213 90.5288 173.655C90.2009 173.327 89.8448 173.026 89.5357 172.693C86.7334 177.695 84.2257 182.856 82.0251 188.149C83.3909 188.633 84.748 189.142 86.0966 189.673C87.7738 185.372 89.9752 181.112 93.1487 177.762C93.1487 178.206 93.2039 178.65 93.0923 179.095C92.2331 183.453 91.589 187.656 91.254 191.86C97.3488 194.617 103.198 197.885 108.739 201.629C108.991 201.799 109.252 201.981 109.552 202.034C110.168 202.151 110.755 201.764 111.263 201.397C113.697 199.639 116.202 197.984 118.778 196.434C119.224 193.678 119.293 190.875 118.982 188.101Z" fill="#333333"/>
<path d="M133.071 189.209C130.567 180.376 126.361 172.116 120.688 164.89C119.754 163.701 118.764 162.526 117.515 161.669C115.299 160.144 112.503 159.774 109.818 159.63C106.879 159.473 103.896 159.544 101.071 160.353C95.4429 161.963 93.2109 166.296 90.4829 171.025C90.1632 171.58 89.8471 172.137 89.5344 172.696C89.8435 173.029 90.1997 173.331 90.5276 173.658C91.0696 174.216 91.6665 174.719 92.3094 175.158C92.6418 175.444 92.9954 175.704 93.3673 175.936C98.2673 179.547 104.17 178.325 109.682 177.93C111.409 177.813 113.079 177.986 114.526 179.103C117.422 181.38 118.592 184.658 118.981 188.104C119.292 190.879 119.223 193.683 118.777 196.44C120.202 195.58 121.645 194.754 123.107 193.964C123.125 193.861 123.142 193.758 123.157 193.659C123.435 188.264 122.934 182.77 121.264 177.603C123.677 182.133 125.64 187.054 126.623 192.145C128.739 191.095 130.888 190.116 133.071 189.209Z" fill="#212121"/>
<path d="M175.387 128.875C169.652 135.098 162.971 140.042 154.395 141.487C150.386 142.21 146.6 142.21 142.591 141.209C140.419 140.708 138.415 139.876 136.411 138.875C133.46 137.375 131.004 135.32 128.727 132.931C124.963 128.819 121.793 124.204 119.308 119.218C119.035 119.155 118.76 119.1 118.486 119.042C118.396 119.024 118.307 119.01 118.218 118.994L113.365 121.472C115.644 125.945 118.646 130.014 122.25 133.514C126.028 137.165 130.27 139.953 134.857 141.801C139.015 143.471 143.456 144.33 147.938 144.332C148.634 144.332 149.329 144.311 150.023 144.269C155.379 143.942 160.525 142.343 164.904 139.646C169.903 136.566 174.286 131.906 177.961 125.778C177.168 126.862 176.308 127.897 175.387 128.875Z" fill="#212121"/>
<path d="M168.559 117.534C165.648 122.971 162.251 126.916 158.464 129.245C153.085 132.554 145.797 133.023 139.443 130.467C136.437 129.256 133.582 127.374 131.042 124.978C127.516 122.251 123.688 120.217 119.308 119.217C121.793 124.203 124.963 128.819 128.727 132.93C131.009 135.319 133.46 137.375 136.411 138.875C138.415 139.875 140.419 140.708 142.591 141.209C146.6 142.209 150.386 142.209 154.395 141.487C162.975 140.042 169.652 135.097 175.387 128.875C176.306 127.896 177.164 126.862 177.956 125.777C178.437 124.974 178.907 124.146 179.367 123.294L168.559 117.534Z" fill="#333333"/>
<path d="M122.045 159.321C122.602 155.654 121.265 152.098 120.041 148.709C120.375 151.875 119.595 155.376 116.867 157.27C114.121 159.121 110.931 160.214 107.624 160.437C105.676 160.548 103.672 160.493 101.722 160.493C97.0661 160.493 92.4528 159.761 87.8078 159.738C87.7444 160.12 87.686 160.503 87.6327 160.886C87.5257 161.654 87.4399 162.424 87.3882 163.198C87.2107 165.834 87.4634 168.625 88.9268 170.821C90.3278 172.932 92.7032 174.246 95.1714 174.809C97.6397 175.372 100.214 175.25 102.729 174.965C107.332 174.444 111.86 173.392 116.221 171.831C119.598 170.622 122.981 169.023 125.28 166.276C128.292 162.673 128.965 157.693 129.064 153.004C129.135 149.674 128.978 146.343 128.594 143.035C128.241 140.041 127.746 136.844 128.693 134.054C127.165 136.216 126.216 138.784 126.116 141.431C125.775 147.598 125.218 153.876 122.045 159.321Z" fill="#212121"/>
<path d="M77.4789 154.587C72.8021 153.142 68.2359 151.475 64.617 148.031C61.6539 145.202 60.6842 141.296 61.1262 137.452C59.9132 139.592 59.1586 141.776 58.8836 143.945C58.5402 146.575 58.9314 149.248 60.0143 151.67C61.9983 156.149 65.9557 159.543 71.7749 161.756C75.6007 163.211 80.2938 164.169 85.724 164.607L86.3493 156.83C83.4027 156.17 80.4466 155.455 77.4789 154.587Z" fill="#333333"/>
<path d="M87.3002 131.653C81.0637 131.431 75.6642 135.93 72.265 141.209C71.7655 141.989 71.1061 142.998 70.8546 143.997C71.7514 141.725 74.1386 139.173 76.9136 137.384C79.6392 135.624 83.1159 135.216 86.669 135.141C86.8723 135.258 87.0839 135.376 87.306 135.486C89.3653 136.486 89.7167 136.794 89.8342 139.452C90.0457 144.238 89.7403 149.033 88.9233 153.754C88.5778 155.748 88.1405 157.734 87.8126 159.735C88.5989 159.735 89.3841 159.763 90.1692 159.801C90.1457 153.351 91.2952 147.045 92.3166 140.489C92.8678 136.659 91.5867 131.82 87.3002 131.653Z" fill="#212121"/>
<path d="M118.481 119.042C111.577 117.763 105.062 118.319 98.2133 119.874C96.5439 120.207 94.8563 120.442 93.1593 120.578C92.8067 120.611 92.4541 120.641 92.1015 120.672C90.2785 120.828 88.4579 120.967 86.5773 121.258C86.3485 121.294 86.1209 121.333 85.8944 121.375C91.294 126.066 98.0194 128.967 105.074 130.771C109.714 131.962 114.156 132.358 118.863 131.631C123.836 130.903 128.41 129.647 132.785 127.332L133.582 126.897C133.28 126.662 132.92 126.51 132.625 126.256C128.448 122.703 123.882 120.097 118.481 119.042Z" fill="#212121"/>
<path d="M118.862 131.638C114.161 132.365 109.713 131.969 105.073 130.778C98.0205 128.974 91.2928 126.073 85.8932 121.382C82.7198 121.982 79.8507 123.13 76.8877 124.375C75.9968 124.763 74.9942 125.041 74.0468 125.374C73.8604 125.44 73.6766 125.509 73.4956 125.581C72.2701 126.32 71.0826 127.116 69.9331 127.967C67.2756 129.939 63.6073 133.157 61.2179 137.288L61.1262 137.451C60.6842 141.296 61.6539 145.202 64.617 148.031C68.2359 151.475 72.8021 153.142 77.4789 154.587C80.4466 155.454 83.4027 156.17 86.3516 156.835L86.6631 152.974C78.2005 152.294 72.2967 150.112 70.7958 147.122C70.7676 147.066 70.7394 147.005 70.7135 146.951C70.3398 146.106 70.4279 145.084 70.8569 143.997C71.1108 142.997 71.7702 141.989 72.2674 141.209C75.663 135.932 81.0649 131.43 87.3013 131.653C91.5878 131.82 92.869 136.653 92.3118 140.487C91.2905 147.042 90.141 153.343 90.1645 159.798C94.0161 159.984 97.8548 160.488 101.722 160.488C103.672 160.488 105.676 160.543 107.624 160.432C110.932 160.209 114.121 159.116 116.867 157.265C119.597 155.376 120.376 151.87 120.041 148.704C121.266 152.093 122.602 155.649 122.045 159.316C125.218 153.871 125.775 147.589 126.109 141.426C126.209 138.779 127.158 136.211 128.686 134.049C128.839 133.596 129.032 133.158 129.261 132.738C130.142 131.152 131.555 129.928 133.252 129.281C133.671 129.123 134.144 128.97 134.359 128.577C134.574 128.184 134.448 127.768 134.207 127.381C134.078 127.322 133.959 127.243 133.855 127.146C133.774 127.055 133.684 126.971 133.587 126.898L132.79 127.333C128.409 129.654 123.835 130.912 118.862 131.638Z" fill="#333333"/>
<path d="M96.5431 160.153C88.6918 161.377 81.0637 161.32 73.4909 159.043C70.6395 158.154 67.7893 157.015 65.4809 155.145C63.9362 157.91 62.8989 160.928 62.4179 164.057C62.3603 164.439 62.3133 164.842 62.4626 165.197C62.7223 165.818 63.4581 166.062 64.1081 166.222C73.976 168.633 84.3261 168.207 93.9621 164.996C94.9482 164.665 95.9743 164.3 97.0039 164.45C97.8114 164.568 98.5318 164.991 99.27 165.347C101.178 166.274 103.261 166.788 105.382 166.857C106.824 166.901 108.353 166.707 109.496 165.826C109.71 165.66 109.902 165.468 110.068 165.255C106.949 164.515 103.974 163.07 101.212 161.102C99.7718 160.043 98.2133 159.879 96.5431 160.153Z" fill="#323233"/>
<path d="M110.422 162.006C111.571 161.435 112.674 160.59 113.107 159.384C113.541 158.179 113.043 156.587 111.825 156.181C113.01 155.454 112.862 153.547 111.881 152.565C110.901 151.582 109.439 151.289 108.064 151.083C107.468 150.993 106.832 150.892 106.384 150.489C105.982 150.126 105.805 149.586 105.509 149.133C102.981 145.263 99.7495 149.636 97.6233 151.009C94.6849 152.903 89.3347 151.069 86.1412 150.477C81.9675 149.702 77.5541 148.53 74.7685 145.334C70.8898 147.737 67.6917 151.172 65.4832 155.15C67.7916 157.027 70.6418 158.16 73.4932 159.049C81.0661 161.326 88.6941 161.382 96.5455 160.159C98.2156 159.883 99.7742 160.049 101.222 161.105C103.984 163.072 106.959 164.517 110.078 165.257C110.808 164.316 111.065 162.984 110.422 162.006Z" fill="#434344"/>
<path d="M197.215 116.651C192.76 117.652 188.584 118.041 184.186 118.152C182.292 118.208 180.455 118.485 178.729 119.652C176.613 121.096 175.165 122.936 173.884 125.096C170.828 130.208 167.871 134.875 163.583 138.986C161.058 141.373 158.215 143.69 154.971 144.817C156.417 146.82 158.151 148.599 160.119 150.095C160.354 150.268 160.599 150.447 160.887 150.471C161.239 150.502 161.564 150.305 161.855 150.108C169.762 144.786 173.669 135.434 178.096 127.004C179.285 124.743 180.641 122.408 182.861 121.141C185.432 119.675 188.589 119.942 191.526 119.575C195.552 119.052 199.316 117.295 202.299 114.547C201.463 114.981 200.601 115.38 199.72 115.765C198.885 116.152 198.105 116.487 197.215 116.651Z" fill="#323233"/>
<path d="M204.542 112.085C205.29 111.101 205.681 109.277 204.479 108.981C203.445 108.724 202.787 110.075 201.828 110.538C202.589 109.92 203.213 109.151 203.66 108.28C204.107 107.408 204.366 106.454 204.423 105.476C201.955 104.655 199.78 107.118 197.822 108.822C196.375 110.07 194.689 111.012 192.867 111.589C191.044 112.167 189.123 112.369 187.219 112.182C181.813 111.619 177.392 109.475 172.741 113.228C168.468 116.676 165.219 121.224 160.806 124.517C157.612 126.894 153.927 128.529 150.019 129.302C149.91 134.828 151.728 140.345 154.971 144.818C158.215 143.691 161.058 141.373 163.583 138.987C167.871 134.875 170.822 130.209 173.884 125.097C175.165 122.93 176.616 121.096 178.732 119.654C180.459 118.481 182.296 118.209 184.189 118.154C188.587 118.037 192.763 117.653 197.218 116.653C198.109 116.486 198.888 116.153 199.724 115.764C200.604 115.379 201.467 114.98 202.303 114.546C203.12 113.794 203.87 112.97 204.542 112.085Z" fill="#434344"/>
<path d="M73.9222 241.334C73.8223 242.768 74.6944 242.896 75.7746 242.183C76.3342 241.817 77.0065 241.662 77.6705 241.746C77.9361 241.781 78.2123 241.853 78.4626 241.76C78.9492 241.582 79.0315 240.939 79.0339 240.425L79.0515 234.893C79.0515 233.616 79.0268 232.235 78.2511 231.218C76.5633 229.003 74.0774 239.86 73.9352 241.195C73.9305 241.243 73.9258 241.29 73.9222 241.334Z" fill="#5D5D5E"/>
<path d="M85.51 219.736C85.5465 220.088 85.8156 220.567 86.1212 220.383C86.2245 220.3 86.2943 220.183 86.3175 220.053C86.9428 217.966 90.3208 208.633 87.2766 207.153C85.7251 206.399 85.9108 210.202 85.771 211.328C85.4278 214.117 85.2174 216.935 85.51 219.736Z" fill="#5D5D5E"/>
<path d="M127.798 235.248C127.946 236.632 128.194 238.054 128.963 239.215C129.732 240.376 131.141 241.208 132.505 240.931C132.639 240.916 132.764 240.855 132.858 240.758C132.966 240.624 132.951 240.433 132.929 240.264C132.591 237.668 131.965 235.119 131.305 232.586C131.003 231.429 130.182 228.347 128.469 229.244C126.899 230.064 127.661 233.958 127.798 235.248Z" fill="#5D5D5E"/>
<path d="M70.1294 130.45C68.1031 131.811 66.0156 133.56 65.6818 135.975C65.5937 136.614 65.7289 137.404 66.3271 137.649C67.0323 137.935 67.7234 137.264 68.2183 136.689C71.6585 132.702 76.521 130.259 81.2283 127.876C81.6925 127.641 82.2003 127.355 82.3531 126.858C82.5059 126.361 82.2261 125.814 81.8159 125.495C79.4147 123.626 72.2297 129.036 70.1294 130.45Z" fill="#4C4C4C"/>
<path d="M157.49 128.943C156.538 129.337 155.357 129.965 155.492 130.984C155.582 131.674 156.315 132.133 157.02 132.148C157.725 132.164 158.376 131.847 158.994 131.523C163.063 129.386 166.809 126.543 169.622 122.913C170.58 121.677 171.874 119.895 171.655 118.271C169.694 118.163 166.845 122.414 165.426 123.69C163.052 125.815 160.448 127.719 157.49 128.943Z" fill="#727272"/>
<path d="M74.7391 149.958C74.5546 149.841 74.3371 149.706 74.1267 149.774C73.9974 149.831 73.8875 149.924 73.8106 150.042L72.882 151.201C72.5165 151.657 72.131 152.256 72.386 152.781C72.5471 153.114 72.9138 153.286 73.257 153.426C74.926 154.107 87.5763 157.365 87.8655 154.247C87.9712 153.1 82.7421 153.164 81.6702 152.916C79.2018 152.349 76.8546 151.348 74.7391 149.958Z" fill="#727272"/>
<path d="M144.277 58.5535C137.807 59.6509 131.649 62.1239 126.221 65.8046C124.938 66.6748 122.121 67.9003 122.534 69.7673C122.694 70.4944 123.152 71.1137 123.6 71.7106C124.11 72.3896 124.62 73.0698 125.139 73.7418C126.759 71.279 129.606 69.0836 131.425 67.6106C133.414 66.0063 135.608 64.5427 138.038 63.8121C138.427 63.2768 138.901 62.8078 139.44 62.4235C141.301 61.0409 143.053 59.7403 144.938 58.6707C144.74 58.5516 144.504 58.5099 144.277 58.5535Z" fill="#BC3B3B"/>
<path d="M132.472 81.0053C132.748 81.1823 133.111 81.4263 133.514 81.6819C133.356 81.2548 133.225 80.8185 133.12 80.3755C132.908 80.5889 132.692 80.7989 132.472 81.0053Z" fill="#BC3B3B"/>
<path d="M138.037 63.8117C138.511 63.6705 138.995 63.5592 139.483 63.4786C139.713 63.4252 139.951 63.4252 140.18 63.4786C140.632 63.6158 140.874 64.1013 141.003 64.5552C141.558 66.5489 140.854 68.6692 139.988 70.5503C138.299 74.2061 135.975 77.5348 133.124 80.3827C133.228 80.8257 133.36 81.262 133.517 81.6891C134.5 82.3095 135.732 82.9956 136.56 82.9475C137.75 82.8783 138.732 80.982 139.264 80.0836C141.486 76.2977 143.254 72.2633 144.529 68.0641C145.32 65.4606 145.926 62.7421 145.654 60.0354C145.602 59.5241 145.375 58.9271 144.949 58.668C143.068 59.7399 141.305 61.0405 139.451 62.4208C138.907 62.8048 138.429 63.2746 138.037 63.8117Z" fill="#8E2121"/>
<path d="M133.12 80.3758C135.971 77.5279 138.295 74.1991 139.984 70.5434C140.85 68.667 141.554 66.5431 141 64.5483C140.874 64.0944 140.632 63.6101 140.177 63.4717C139.948 63.4183 139.709 63.4183 139.48 63.4717C138.991 63.5542 138.508 63.6674 138.033 63.8106C137.874 64.0301 137.728 64.2584 137.595 64.4943C134.758 69.2956 131.835 74.94 133.12 80.3758Z" fill="#C99105"/>
<path d="M125.136 73.7412C126.381 75.3538 127.678 76.9241 129.141 78.3373C130.162 79.3322 131.276 80.2258 132.47 81.0053C132.689 80.7989 132.905 80.589 133.118 80.3755C131.835 74.9398 134.758 69.2953 137.595 64.4941C137.729 64.2585 137.876 64.0306 138.035 63.8115C135.606 64.5422 133.412 66.0057 131.423 67.6101C129.602 69.0831 126.758 71.2761 125.136 73.7412Z" fill="#F2B406"/>
<path d="M81.7207 85.9263C81.3461 85.5706 80.9775 85.2086 80.6147 84.8403C80.5065 85.544 80.3667 86.2312 80.1904 86.9149C80.7875 86.5455 81.3258 86.1808 81.7207 85.9263Z" fill="#BC3B3B"/>
<path d="M67.8057 57.9856C67.5225 57.9328 67.238 57.8824 66.9548 57.8355C65.8641 57.6513 65.3293 58.7737 65.2376 59.6896C64.8979 63.0765 65.6548 66.4775 66.648 69.7342C68.2456 74.9856 70.458 80.0308 73.2394 84.7654C73.8988 85.8878 75.127 88.2614 76.615 88.3482C77.5906 88.4045 79.008 87.6504 80.1951 86.9151C80.3714 86.2314 80.5113 85.5383 80.6194 84.8405C77.1864 81.343 74.3818 77.2824 72.3285 72.8362C71.2436 70.4836 70.3633 67.832 71.0568 65.3364C71.2143 64.7676 71.5175 64.1636 72.0829 63.9889C72.3693 63.9221 72.6673 63.9221 72.9538 63.9889C74.2904 64.2218 75.5918 64.6238 76.8266 65.1851C74.5766 61.9692 71.4443 59.4693 67.8057 57.9856Z" fill="#8E2121"/>
<path d="M89.5439 66.9077C82.9938 62.4662 75.592 59.4282 67.8057 57.9854C71.4428 59.4702 74.5733 61.9704 76.8219 65.1861C79.055 66.1853 81.1213 67.6231 83.0336 69.1664C85.3173 71.01 88.8716 73.7542 90.8979 76.8386C91.5479 75.9965 92.1908 75.1463 92.8243 74.296C93.3838 73.5502 93.9573 72.7714 94.1583 71.8649C94.6743 69.5299 91.1494 67.996 89.5439 66.9077Z" fill="#BC3B3B"/>
<path d="M80.7076 76.7133C80.65 75.9076 80.5337 75.218 80.4185 74.4123C79.9842 71.0926 78.751 67.9272 76.8242 65.1863C75.5891 64.6249 74.2873 64.2229 72.9503 63.9901C72.6638 63.9232 72.3658 63.9232 72.0793 63.9901C71.514 64.1613 71.2108 64.7688 71.0533 65.3376C70.3598 67.8332 71.2401 70.4848 72.325 72.8373C74.3783 77.2835 77.1829 81.3442 80.6159 84.8417C81.0297 82.1772 80.9862 79.4282 80.7076 76.7133Z" fill="#C99105"/>
<path d="M83.0336 69.1664C81.1213 67.623 79.055 66.1852 76.8218 65.186C78.7486 67.9269 79.9817 71.0924 80.4161 74.4121C80.5336 75.2178 80.6511 75.9074 80.7052 76.713C80.9861 79.428 81.0296 82.1769 80.6147 84.8402C80.9767 85.21 81.3454 85.572 81.7207 85.9262C83.2142 84.9536 84.6089 83.8377 85.885 82.5944C87.7174 80.8259 89.3405 78.8615 90.8979 76.8479C88.8716 73.7542 85.3173 71.0099 83.0336 69.1664Z" fill="#F2B406"/>
<path d="M132.233 105.285C132.172 105.936 132.101 106.587 132.02 107.24C133.257 108.645 134.569 109.983 135.949 111.248C141.417 105.04 145.875 97.4287 147.86 89.4352C144.889 89.8809 142 88.497 139.706 86.4717C139.043 93.174 137.735 99.0331 133.262 104.22C132.939 104.593 132.595 104.949 132.233 105.285Z" fill="#8E2121"/>
<path d="M69.9154 98.8101C72.5459 101.204 75.717 102.592 78.9657 103.982C75.8679 101.828 73.0149 99.3437 70.4573 96.5725C72.4319 96.9759 74.3736 96.0905 75.8639 94.716C74.023 92.6176 72.3909 90.3454 70.9909 87.9316C68.4533 89.8081 65.6031 90.9175 61.7632 90.3299C63.7155 95.6279 66.4446 100.608 69.8614 105.107C75.6394 112.73 84.6238 119.722 94.5849 123.27C83.8493 118.226 76.1507 108.693 69.9154 98.8101Z" fill="#8E2121"/>
<path d="M131.136 106.207C131.427 106.556 131.721 106.901 132.02 107.24C132.098 106.588 132.169 105.936 132.233 105.285C131.883 105.611 131.517 105.918 131.136 106.207Z" fill="#BC3B3B"/>
<path d="M124.985 116.327L125.058 116.401C123.06 115.717 120.99 115.413 118.803 115.637C114.317 116.177 110.295 117.721 106.271 119.805C103.815 121.128 101.688 122.785 99.666 124.548L98.446 124.258C98.2391 124.209 98.4989 121.594 98.9161 118.784L99.13 118.642C102.003 116.765 105.185 115.447 108.281 113.991C109.89 113.257 111.457 112.435 112.975 111.528C113.817 111.016 114.691 110.557 115.591 110.155C112.888 110.155 110.22 109.979 107.788 109.789C98.4072 109.059 89.0443 106.001 81.5973 100.151C79.5247 98.5199 77.6073 96.7015 75.8698 94.7188C74.3736 96.0932 72.4319 96.9786 70.4632 96.5752C73.0208 99.3464 75.8738 101.831 78.9715 103.985C75.7229 102.595 72.5518 101.206 69.9213 98.8128C76.1566 108.696 83.8551 118.229 94.5967 123.269C103.908 126.586 114.075 126.896 123.275 121.904C125.929 120.464 128.329 118.68 130.538 116.717C128.68 116.731 126.823 116.601 124.985 116.327Z" fill="#BC3B3B"/>
<path d="M125.424 69.9815C120.914 66.5945 115.112 64.8682 109.425 64.6372C113.038 65.525 116.464 67.3486 119.732 69.1723C121.434 70.0987 122.749 71.4873 123.909 72.9544C126.017 75.603 127.759 78.5218 129.09 81.6328C130.722 80.9588 132.335 80.2122 133.93 79.3928C131.416 75.9742 128.839 72.5463 125.424 69.9815Z" fill="#8E2121"/>
<path d="M89.7954 70.8668L89.8165 70.834C85.8285 73.6087 82.199 77.0109 78.8152 80.3884C78.5907 80.6113 78.3686 80.8364 78.1464 81.0616C79.4922 81.6339 80.8497 82.1534 82.2531 82.6108C82.6057 81.9365 82.9713 81.2633 83.3756 80.5913C85.3866 77.1997 87.5516 74.344 89.7954 70.8668Z" fill="#8E2121"/>
<path d="M119.729 69.1725C116.462 67.3488 113.036 65.5252 109.423 64.6374C108.147 64.5846 106.869 64.6077 105.596 64.7066C104.394 64.8026 103.2 64.9801 102.023 65.2379C97.581 66.2042 93.5424 68.2483 89.8166 70.8401L89.7954 70.873C87.5517 74.3467 85.3867 77.2059 83.3756 80.5975C82.9713 81.2694 82.6011 81.9426 82.2532 82.6169C83.2475 82.943 84.2607 83.2385 85.3091 83.5024C93.6541 85.5078 101.631 86.541 109.975 86.0555C116.551 85.6627 123.015 84.1705 129.096 81.6412C127.765 78.5303 126.023 75.6114 123.915 72.9628C122.749 71.4875 121.434 70.099 119.729 69.1725Z" fill="#BC3B3B"/>
<path d="M138.2 113.222C137.429 112.579 136.679 111.921 135.949 111.249C135.509 111.75 135.061 112.242 134.607 112.724C133.377 114.031 132.096 115.31 130.746 116.522L130.53 116.715C131.599 116.705 132.667 116.649 133.732 116.545C135.693 116.351 137.722 115.95 139.421 115.01C139.285 114.41 138.903 113.81 138.2 113.222Z" fill="#BC3B3B"/>
<path d="M132.02 107.24C131.82 108.856 131.566 110.472 131.257 112.086C131 113.554 130.829 115.035 130.746 116.523C132.096 115.31 133.377 114.032 134.607 112.724C135.061 112.242 135.508 111.75 135.949 111.249C134.569 109.983 133.257 108.645 132.02 107.24Z" fill="#BC3B3B"/>
<path d="M131.257 112.086C131.564 110.473 131.819 108.858 132.02 107.24C131.721 106.901 131.427 106.557 131.136 106.207C126.976 109.351 121.203 110.146 115.591 110.152C114.69 110.554 113.815 111.013 112.971 111.525C111.454 112.432 109.887 113.254 108.278 113.988C105.182 115.444 101.999 116.759 99.1265 118.639L98.9126 118.781C98.4988 121.595 98.2391 124.206 98.4424 124.255L99.6624 124.545C101.689 122.786 103.811 121.125 106.268 119.802C110.291 117.718 114.313 116.174 118.8 115.634C120.987 115.41 123.053 115.714 125.055 116.398L124.982 116.324C126.817 116.597 128.671 116.727 130.526 116.712L130.742 116.52C130.826 115.033 130.998 113.552 131.257 112.086Z" fill="#BC3B3B"/>
<path d="M125.058 116.401C123.06 115.717 120.99 115.413 118.803 115.637C114.317 116.177 110.295 117.721 106.271 119.805C103.815 121.128 101.688 122.785 99.666 124.548C104.492 125.683 109.349 126.708 114.331 126.763C116.217 126.78 118.102 126.638 119.964 126.339C122.165 125.908 124.3 125.189 126.311 124.2C126.466 124.122 126.775 123.965 126.775 123.659C126.775 123.968 126.466 124.122 126.311 124.2C124.3 125.189 122.165 125.908 119.964 126.339C124.12 125.681 128.147 124.286 131.918 122.385C132.68 122.001 133.886 121.38 135.115 120.604C134.77 120.591 134.426 120.579 134.084 120.557C130.668 120.317 127.458 118.839 125.058 116.401Z" fill="#EA6868"/>
<path d="M96.1046 120.872C97.0144 120.14 97.9453 119.432 98.9161 118.783C99.2687 116.407 99.7271 113.893 100.11 112.677C99.0266 114.845 95.5969 121.278 96.1046 120.872Z" fill="#BC3B3B"/>
<path d="M100.394 112.01C100.264 112.216 100.168 112.441 100.107 112.677C100.367 112.159 100.491 111.884 100.394 112.01Z" fill="#BC3B3B"/>
<path d="M133.732 116.545C130.819 116.832 127.881 116.759 124.985 116.327C127.39 118.809 130.628 120.317 134.079 120.562C134.421 120.584 134.766 120.596 135.11 120.608C137.461 119.124 139.888 117.069 139.421 115.01C137.722 115.95 135.693 116.351 133.732 116.545Z" fill="#3D3D3D"/>
<path d="M137.966 84.6788C136.562 83.0041 135.255 81.2015 133.93 79.4014C132.335 80.22 130.721 80.9666 129.09 81.6413C123.01 84.1693 116.548 85.6607 109.974 86.0532C101.629 86.5388 93.6518 85.5056 85.308 83.5001C84.2654 83.2363 83.2523 82.9407 82.252 82.6147C80.8522 82.1573 79.4911 81.6378 78.1453 81.0655C77.6564 81.5588 77.1698 82.0545 76.6856 82.5526C74.765 84.5263 72.975 86.4649 70.9957 87.932C72.3957 90.3457 74.0277 92.6179 75.8687 94.7164C77.6062 96.6991 79.5235 98.5176 81.5962 100.149C89.0432 105.998 98.4037 109.062 107.787 109.786C110.218 109.976 112.885 110.156 115.59 110.152C121.202 110.146 126.975 109.351 131.135 106.207C131.516 105.919 131.882 105.611 132.232 105.285C132.594 104.948 132.938 104.592 133.261 104.218C137.735 99.0309 139.043 93.1719 139.71 86.4649C139.086 85.9132 138.503 85.3162 137.966 84.6788Z" fill="#323233"/>
<path d="M100.871 105.446C105.961 105.446 110.087 101.329 110.087 96.2503C110.087 91.1717 105.961 87.0547 100.871 87.0547C95.7809 87.0547 91.6548 91.1717 91.6548 96.2503C91.6548 101.329 95.7809 105.446 100.871 105.446Z" fill="#161616"/>
<path d="M110.242 91.1309C110.542 92.3425 110.581 93.6038 110.357 94.8317C110.133 96.0595 109.65 97.2259 108.94 98.2538C108.231 99.2817 107.311 100.148 106.241 100.795C105.172 101.442 103.976 101.855 102.735 102.007C101.493 102.159 100.234 102.047 99.0389 101.677C97.8441 101.308 96.7415 100.69 95.8039 99.8635C94.8662 99.0374 94.1148 98.0223 93.5994 96.8851C93.0839 95.7479 92.8161 94.5145 92.8137 93.2665C94.331 92.7821 95.8461 92.2602 97.3599 91.8591C101.558 90.7367 105.943 90.4888 110.242 91.1309Z" fill="white"/>
<path d="M103.91 94.3784C105.024 94.3784 105.927 93.4774 105.927 92.366C105.927 91.2545 105.024 90.3535 103.91 90.3535C102.796 90.3535 101.893 91.2545 101.893 92.366C101.893 93.4774 102.796 94.3784 103.91 94.3784Z" fill="#1A1A1A"/>
<path d="M98.6634 83.3733C100.012 82.9848 101.426 82.8722 102.82 83.0423C104.213 83.2125 105.558 83.6619 106.773 84.3635C107.988 85.0652 109.049 86.0047 109.891 87.1255C110.734 88.2463 111.34 89.5254 111.675 90.886C107.551 90.269 103.352 90.3455 99.2534 91.1123C99.064 90.9028 98.8882 90.6815 98.7268 90.4497C97.2012 88.2872 97.24 85.3436 98.6634 83.3733Z" fill="#595959"/>
<path d="M98.6634 83.373C97.24 85.3433 97.2012 88.2869 98.7268 90.4495C98.8882 90.6812 99.064 90.9025 99.2534 91.1121C98.3296 91.2856 97.4128 91.4956 96.5031 91.7418C94.7212 92.2203 92.9371 92.8349 91.1505 93.4048C91.1505 93.3884 91.1505 93.372 91.1505 93.3556C91.15 91.1042 91.8823 88.9135 93.2372 87.1132C94.5921 85.3129 96.4964 84.0004 98.6634 83.373Z" fill="#434344"/>
<path d="M130.849 96.9317C134.921 96.9317 138.222 93.638 138.222 89.575C138.222 85.512 134.921 82.2183 130.849 82.2183C126.777 82.2183 123.476 85.512 123.476 89.575C123.476 93.638 126.777 96.9317 130.849 96.9317Z" fill="#161616"/>
<path d="M124.431 86.8094C124.377 87.8049 124.535 88.8005 124.894 89.7307C125.254 90.6609 125.807 91.5046 126.516 92.2062C127.226 92.9078 128.077 93.4515 129.013 93.8014C129.948 94.1513 130.947 94.2996 131.945 94.2364C132.942 94.1732 133.914 93.8999 134.798 93.4347C135.682 92.9695 136.456 92.3228 137.072 91.5372C137.687 90.7516 138.128 89.8449 138.367 88.8768C138.605 87.9087 138.636 86.9011 138.456 85.9205C137.19 85.7633 135.922 85.5768 134.673 85.4795C131.203 85.2163 127.717 85.669 124.431 86.8094Z" fill="white"/>
<path d="M134.091 88.3976C134.982 88.3976 135.705 87.6767 135.705 86.7874C135.705 85.8982 134.982 85.1772 134.091 85.1772C133.2 85.1772 132.477 85.8982 132.477 86.7874C132.477 87.6767 133.2 88.3976 134.091 88.3976Z" fill="#1A1A1A"/>
<path d="M128.324 81.3597C128.44 80.6518 128.696 79.9741 129.078 79.366C130.2 79.015 131.384 78.9053 132.551 79.0442C133.719 79.183 134.844 79.5672 135.852 80.1715C136.86 80.7758 137.728 81.5864 138.399 82.5499C139.07 83.5134 139.528 84.6078 139.744 85.7611L139.751 85.7998C138.262 85.6145 136.768 85.394 135.297 85.2814C133.384 85.1345 131.461 85.1738 129.555 85.3987C128.594 84.3045 128.036 82.9465 128.324 81.3597Z" fill="#595959"/>
<path d="M123.241 86.8445C123.334 85.1525 123.943 83.5293 124.986 82.1921C126.029 80.8549 127.457 79.8676 129.078 79.3623C128.696 79.9703 128.44 80.6481 128.323 81.356C128.035 82.9439 128.594 84.3008 129.555 85.3938C127.404 85.6473 125.287 86.1337 123.241 86.8445Z" fill="#434344"/>
<path d="M97.6584 73.8178C96.3984 74.6692 95.4828 75.9405 94.7388 77.2645C94.5943 77.5213 94.452 77.7922 94.4391 78.0854C94.4262 78.3786 94.579 78.7023 94.8599 78.7891C95.2207 78.9063 95.5651 78.6049 95.839 78.3458C96.8832 77.3549 98.0949 76.5561 99.4179 75.9862C100.147 75.6731 102.888 75.3998 103.172 74.6188C103.481 73.7791 102.134 73.2748 101.526 73.0942C100.177 72.6919 98.8079 73.0379 97.6584 73.8178Z" fill="#661212"/>
<path d="M127.839 71.2994C126.664 71.7756 125.684 72.6551 124.84 73.6086C124.663 73.782 124.529 73.9945 124.449 74.229C124.386 74.4635 124.455 74.7579 124.67 74.8799C124.945 75.0347 125.28 74.8529 125.551 74.6887C126.58 74.0602 127.713 73.6191 128.897 73.3858C129.548 73.2568 131.842 73.5101 132.213 72.9261C132.613 72.2916 131.6 71.6419 131.137 71.3886C130.104 70.8198 128.925 70.8667 127.839 71.2994Z" fill="#661212"/>
<path d="M110.888 77.9751C111.671 76.637 112.314 75.2223 112.806 73.7532C113.23 73.806 113.522 74.1883 113.747 74.5471C115.042 76.5806 115.9 78.86 116.268 81.2412C116.808 79.0775 116.947 76.8336 116.679 74.6199C117.905 75.4869 118.886 76.6552 119.527 78.0115C119.824 76.6042 119.363 75.1499 118.737 73.8564C117.688 71.6856 113.767 65.7855 110.785 66.4469C108.358 66.9852 110.08 69.4257 110.465 70.8131C111.116 73.1328 110.996 75.5991 110.888 77.9751Z" fill="#EA6868"/>
</svg>
