<svg width="90" height="90" viewBox="0 0 128 128" fill="none" xmlns="http://www.w3.org/2000/svg">
<path d="M82.3158 18.267C84.6172 18.0921 86.9859 16.3809 87.519 14.1415C88.2934 14.7029 89.0495 15.289 89.7872 15.9C91.7433 17.5203 97.8232 22.0157 97.4194 24.9502C96.8906 28.7889 92.9618 25.3612 91.0493 24.4308C87.1685 22.5412 82.8988 21.5749 78.7374 20.5082C73.6382 19.1965 68.4419 17.7013 64.2281 14.5481C62.8945 13.5503 61.703 12.3753 60.6865 11.0557C66.6895 15.9708 74.6434 18.6754 82.3158 18.267Z" fill="#8EA3A8"/>
<path d="M57.6832 1C57.1588 4.58513 58.4568 8.15101 60.6865 11.0558C62.3924 12.4484 64.2377 13.6607 66.193 14.6733C67.9289 12.2179 69.2819 9.50811 70.1035 6.62865C65.6301 5.34237 61.252 3.91532 57.6832 1Z" fill="#8EA3A8"/>
<path d="M79.2575 9.51779C76.3163 8.32858 73.1881 7.51187 70.1062 6.62695C69.2846 9.51254 67.9315 12.2232 66.1957 14.6716C71.1647 17.2485 76.8128 18.5575 82.3158 18.2646C84.6172 18.0897 86.9859 16.3785 87.5191 14.1391C84.9628 12.2691 82.1886 10.7172 79.2575 9.51779Z" fill="#B7C1C4"/>
<path d="M104.338 34.9967C99.3913 34.4074 95.6224 30.991 92.9146 26.8646C91.6035 24.9269 90.7347 22.9052 90.1333 20.8145C89.1325 16.1696 89.8973 11.0096 93.1689 7.62646C95.1792 15.1465 101.548 20.5679 105.697 27.154C107.221 29.5915 108.468 32.1915 109.415 34.9058C107.905 35.5021 105.83 35.1629 104.338 34.9967Z" fill="#B7C1C4"/>
<path d="M92.9146 26.8669C95.6242 30.9907 99.3913 34.4071 104.338 34.999C105.83 35.1652 107.905 35.5045 109.415 34.9116C109.831 36.0894 110.195 37.2865 110.511 38.4967C111.151 40.9556 113.457 48.1591 111.416 50.3014C108.743 53.1074 107.557 48.0279 106.551 46.1549C104.506 42.352 101.604 39.0721 98.8529 35.7729C95.4808 31.7287 92.1393 27.4747 90.5616 22.4502C90.3947 21.9168 90.2522 21.3721 90.1334 20.8203C90.7347 22.9076 91.6035 24.9292 92.9146 26.8669Z" fill="#8EA3A8"/>
<path d="M109.797 66.2075C109.496 63.7469 109.027 61.2994 108.602 58.872C107.695 53.6849 106.92 48.3299 108.057 43.1884C109.194 38.0468 112.645 33.0993 117.704 31.646C116.752 35.2215 116.888 38.8775 117.327 42.5658C117.295 46.707 117.295 50.8666 116.35 55.0263C115.435 59.0914 113.906 64.7358 109.797 66.2075Z" fill="#B7C1C4"/>
<path d="M116.35 55.0254C117.295 50.8658 117.295 46.7062 117.327 42.5649C117.811 46.6345 118.663 50.7416 118.828 54.8208C118.994 58.9446 118.437 63.0736 117.35 67.0487C116.678 69.4971 115.088 76.893 112.248 77.7333C108.533 78.8315 110.037 73.8368 110.098 71.712C110.136 69.8722 110.035 68.0322 109.797 66.2075C113.906 64.7359 115.435 59.0915 116.35 55.0254Z" fill="#8EA3A8"/>
<path d="M111.83 89.584C108.44 91.5629 104.469 92.0875 100.648 91.5506C102.934 87.6393 104.533 83.3468 106.11 79.112C107.966 74.1278 110.607 69.3508 115.415 66.62C118.675 64.7689 122.501 64.1987 126.243 63.9897C122.81 67.4551 121.491 72.4393 120.427 77.2005C120.285 77.8388 120.144 78.4815 120 79.1242C118.256 83.283 115.962 87.1182 111.83 89.584Z" fill="#B7C1C4"/>
<path d="M99.3887 93.5572C99.831 92.9014 100.247 92.2307 100.645 91.546C104.465 92.0829 108.436 91.5583 111.826 89.5795C115.962 87.1136 118.256 83.2784 119.996 79.1196C119.242 82.4862 118.383 85.8649 116.535 88.8126C114.386 92.2394 111.492 95.5343 108.099 97.6442C106.391 98.704 104.228 98.8142 102.527 99.8696C101.042 100.792 95.9414 103.483 95.2212 100.219C94.8515 98.5405 96.9274 96.4183 98.3818 94.7893C98.7425 94.3998 99.0788 93.9883 99.3887 93.5572Z" fill="#8EA3A8"/>
<path d="M71.1113 112.843C75.2919 110.783 78.9454 107.779 82.6094 104.939C87.1082 101.453 91.8325 98.0084 97.3198 96.5001C102.807 94.9917 109.275 95.7944 113.218 99.8989C112.962 99.9575 112.708 100.021 112.456 100.089C103.406 100.989 96.8198 108.005 88.5565 111.106C83.5342 113.049 76.5051 114.716 71.1113 112.843Z" fill="#B7C1C4"/>
<path d="M71.0991 112.851L71.1131 112.843C76.5069 114.716 83.536 113.049 88.5583 111.105C96.8216 108.005 103.408 100.989 112.458 100.087C104.64 102.193 98.721 111.356 92.1079 115.564C88.3494 117.959 84.4162 119.412 79.2147 120.073C76.4911 120.422 68.6666 120.233 66.4308 117.942C63.5045 114.948 69.0363 113.865 71.0991 112.851Z" fill="#8EA3A8"/>
<path d="M96.7101 101.818C99.6726 100.567 101.796 98.8947 101.454 98.0827C101.111 97.2707 98.4322 97.6263 95.4697 98.877C92.5073 100.128 90.3834 101.8 90.7259 102.612C91.0684 103.424 93.7477 103.068 96.7101 101.818Z" fill="#E1E8EA"/>
<path d="M115.052 73.8971C116.834 71.2196 117.685 68.6531 116.951 68.1646C116.218 67.6761 114.179 69.4506 112.397 72.1281C110.614 74.8056 109.764 77.3721 110.497 77.8606C111.231 78.3491 113.27 76.5746 115.052 73.8971Z" fill="#E1E8EA"/>
<path d="M112.362 46.1673C112.867 42.9904 112.572 40.3028 111.702 40.1644C110.832 40.0259 109.717 42.489 109.211 45.6658C108.706 48.8426 109.002 51.5302 109.872 51.6687C110.742 51.8072 111.857 49.3441 112.362 46.1673Z" fill="white"/>
<path d="M103.321 30.0507C104.051 29.5573 103.184 26.9965 101.384 24.3309C99.5842 21.6653 97.5333 19.9044 96.8033 20.3977C96.0733 20.8911 96.9406 23.4519 98.7405 26.1175C100.54 28.7831 102.591 30.544 103.321 30.0507Z" fill="white"/>
<path d="M81.9452 14.3554C82.2613 13.5327 80.0846 11.93 77.0833 10.7757C74.0821 9.6213 71.3928 9.35238 71.0766 10.175C70.7605 10.9977 72.9372 12.6004 75.9385 13.7547C78.9397 14.9091 81.629 15.178 81.9452 14.3554Z" fill="#E1E8EA"/>
<path d="M44.9465 18.2718C42.6443 18.0969 40.2765 16.383 39.7451 14.1436C38.9701 14.705 38.2125 15.2909 37.4725 15.9012C35.5155 17.5206 29.4312 22.0134 29.8359 24.948C30.3603 28.7867 34.2936 25.3607 36.206 24.4312C40.0877 22.5433 44.3601 21.5797 48.5197 20.5146C53.6189 19.2083 58.816 17.7165 63.029 14.5616C64.3626 13.5648 65.5541 12.3907 66.5706 11.0718C60.5729 15.9825 52.6181 18.6836 44.9465 18.2718Z" fill="#8EA3A8"/>
<path d="M69.5861 1.0166C63.5552 5.93609 55.2228 6.6129 48.0084 9.52384C45.0768 10.7226 42.302 12.2738 39.7451 14.1434C40.2765 16.3828 42.6443 18.0932 44.9466 18.2715C52.6181 18.6834 60.5729 15.9823 66.5785 11.0716C68.8091 8.17024 70.1062 4.5991 69.5861 1.0166Z" fill="#B7C1C4"/>
<path d="M22.916 34.9903C27.8623 34.4036 31.633 30.989 34.3434 26.8669C35.6545 24.9292 36.5242 22.9084 37.1273 20.8177C38.1298 16.1728 37.3676 11.0128 34.0969 7.62793C32.0805 15.1479 25.7121 20.5694 21.5604 27.1494C20.0358 29.5863 18.7875 32.1857 17.8387 34.8994C19.3481 35.494 21.424 35.1556 22.916 34.9903Z" fill="#B7C1C4"/>
<path d="M34.3434 26.8671C31.6338 30.9892 27.8622 34.4038 22.916 34.9905C21.424 35.1558 19.3481 35.4942 17.8386 34.9031C17.4226 36.0818 17.0569 37.2768 16.7417 38.4882C16.1001 40.9471 13.79 48.1488 15.8309 50.2929C18.502 53.1006 19.6907 48.0194 20.6976 46.149C22.7438 42.3479 25.6483 39.0662 28.3998 35.7705C31.7745 31.728 35.1178 27.4757 36.6981 22.4522C36.8659 21.9188 37.0083 21.374 37.1272 20.8223C36.5241 22.9086 35.6544 24.9294 34.3434 26.8671Z" fill="#8EA3A8"/>
<path d="M17.4418 66.1987C17.7434 63.738 18.2145 61.2914 18.6402 58.864C19.5501 53.6769 20.3271 48.3229 19.1934 43.1804C18.0598 38.0379 14.6099 33.0913 9.55176 31.6328C10.5019 35.2083 10.3638 38.8651 9.92323 42.5526C9.95207 46.6938 9.95207 50.8534 10.8952 55.0131C11.8077 59.08 13.3329 64.7253 17.4418 66.1987Z" fill="#B7C1C4"/>
<path d="M10.8952 55.0127C9.95205 50.8531 9.95205 46.6935 9.92321 42.5522C9.43724 46.6209 8.58329 50.7281 8.41634 54.8081C8.24852 58.931 8.80267 63.0609 9.88912 67.036C10.5586 69.4844 12.1468 76.882 14.9849 77.7232C18.6996 78.8232 17.198 73.8277 17.1376 71.7028C17.1007 69.8615 17.2024 68.02 17.4418 66.194C13.3329 64.7249 11.8077 59.0797 10.8952 55.0127Z" fill="#8EA3A8"/>
<path d="M15.4009 89.5788C18.7905 91.5594 22.7604 92.0858 26.5818 91.5506C24.2988 87.6385 22.7001 83.346 21.126 79.1094C19.2721 74.1252 16.6333 69.3465 11.8269 66.613C8.56843 64.7558 4.74182 64.1839 1 63.9731C4.43153 67.4402 5.74786 72.4244 6.80983 77.1865C6.9523 77.8257 7.09215 78.4676 7.23637 79.1103C8.97486 83.2699 11.2666 87.106 15.4009 89.5788Z" fill="#B7C1C4"/>
<path d="M27.8334 93.5531C27.3911 92.8982 26.9751 92.2275 26.5783 91.542C22.7569 92.0771 18.787 91.5507 15.3974 89.5701C11.2631 87.1017 8.97134 83.2656 7.23285 79.106C7.98541 82.4733 8.84286 85.853 10.6897 88.8007C12.8364 92.2293 15.7295 95.5249 19.1217 97.6323C20.8287 98.693 22.9912 98.804 24.6921 99.8603C26.178 100.784 31.2763 103.477 31.9974 100.21C32.368 98.5312 30.293 96.409 28.8403 94.7782C28.4796 94.3911 28.1433 93.982 27.8334 93.5531Z" fill="#8EA3A8"/>
<path d="M56.1047 112.853C51.9259 110.791 48.2732 107.781 44.6101 104.943C40.1139 101.455 35.3905 98.0084 29.905 96.4974C24.4194 94.9864 17.9497 95.7874 14.0042 99.8884C14.2606 99.9467 14.5147 100.01 14.7664 100.079C23.8163 100.984 30.3988 108.002 38.6604 111.106C43.6827 113.054 50.711 114.723 56.1047 112.853Z" fill="#B7C1C4"/>
<path d="M56.1195 112.86L56.1047 112.852C50.7109 114.723 43.6826 113.053 38.6603 111.104C30.3988 107.999 23.8163 100.981 14.7663 100.076C22.583 102.185 28.4977 111.356 35.109 115.566C38.8675 117.962 42.8007 119.418 47.9996 120.08C50.7231 120.43 58.5485 120.245 60.7844 117.955C63.7107 114.961 58.1797 113.875 56.1195 112.86Z" fill="#8EA3A8"/>
<path d="M36.4963 102.624C36.8393 101.813 34.7163 100.139 31.7545 98.8871C28.7927 97.6348 26.1136 97.2778 25.7707 98.0896C25.4277 98.9015 27.5507 100.575 30.5125 101.827C33.4743 103.079 36.1534 103.436 36.4963 102.624Z" fill="#E1E8EA"/>
<path d="M16.7354 77.8497C17.4689 77.3616 16.6199 74.7946 14.8391 72.1162C13.0583 69.4378 11.0201 67.6623 10.2865 68.1504C9.55302 68.6385 10.402 71.2054 12.1828 73.8838C13.9636 76.5622 16.0019 78.3378 16.7354 77.8497Z" fill="white"/>
<path d="M17.3823 51.6558C18.2524 51.5177 18.5495 48.8303 18.046 45.6532C17.5424 42.4761 16.4288 40.0124 15.5587 40.1505C14.6886 40.2885 14.3915 42.9759 14.895 46.153C15.3986 49.3301 16.5122 51.7938 17.3823 51.6558Z" fill="white"/>
<path d="M28.5169 26.116C30.3182 23.4514 31.1868 20.891 30.4571 20.3973C29.7273 19.9036 27.6755 21.6634 25.8742 24.3281C24.0729 26.9927 23.2042 29.5531 23.934 30.0468C24.6637 30.5406 26.7155 28.7807 28.5169 26.116Z" fill="#E1E8EA"/>
<path d="M51.327 13.7629C54.3289 12.6101 56.5065 11.0086 56.1907 10.1858C55.875 9.36298 53.1856 9.63049 50.1837 10.7833C47.1818 11.9361 45.0043 13.5376 45.32 14.3604C45.6357 15.1832 48.3251 14.9157 51.327 13.7629Z" fill="#E1E8EA"/>
<path d="M65.4317 106.115L60.898 106.424V107.101C58.9882 107.971 57.3689 109.372 56.2335 111.138C55.098 112.904 54.4942 114.959 54.4942 117.058C54.4942 119.158 55.098 121.213 56.2335 122.978C57.3689 124.744 58.9882 126.145 60.898 127.016V127.692L65.4317 128C71.4723 128 76.2271 123.103 76.3696 117.058C76.4815 112.326 71.4793 106.193 65.4317 106.115Z" fill="#8EA3A8"/>
<path d="M63.0534 128C69.0943 128 73.9913 123.101 73.9913 117.058C73.9913 111.014 69.0943 106.115 63.0534 106.115C57.0126 106.115 52.1155 111.014 52.1155 117.058C52.1155 123.101 57.0126 128 63.0534 128Z" fill="#B7C1C4"/>
<path d="M68.0635 111.751C68.7452 113.283 68.8788 115.002 68.4419 116.62C68.0049 118.239 67.024 119.657 65.6643 120.637C64.3046 121.616 62.6491 122.097 60.9764 121.999C59.3038 121.9 57.7161 121.228 56.4805 120.096C56.9204 121.087 57.5756 121.967 58.3984 122.673C59.2212 123.379 60.1909 123.892 61.237 124.175C62.283 124.459 63.3791 124.505 64.4454 124.312C65.5118 124.118 66.5215 123.689 67.4011 123.055C68.2807 122.422 69.0081 121.6 69.5303 120.65C70.0525 119.7 70.3564 118.646 70.4199 117.563C70.4833 116.481 70.3047 115.398 69.8971 114.393C69.4895 113.389 68.8631 112.488 68.0635 111.756V111.751Z" fill="#8EA3A8"/>
<path d="M68.6911 114.713C68.6918 113.693 68.478 112.684 68.0635 111.751C66.8282 110.618 65.2403 109.945 63.5671 109.846C61.8939 109.747 60.2378 110.228 58.8777 111.208C57.5175 112.188 56.5365 113.607 56.0999 115.226C55.6633 116.845 55.7977 118.565 56.4805 120.096C57.5236 121.051 58.8221 121.682 60.2175 121.912C61.6129 122.142 63.0451 121.961 64.3395 121.391C65.6338 120.821 66.7344 119.887 67.5071 118.702C68.2797 117.517 68.6911 116.132 68.6911 114.717V114.713Z" fill="#E1E8EA"/>
<path d="M58.4061 115.442C58.3187 115.842 58.2846 116.297 58.5267 116.626C58.7688 116.956 59.2259 117.064 59.6219 116.976C60.0178 116.889 60.3631 116.654 60.6707 116.392C61.5448 115.649 64.118 112.537 62.0456 111.932C60.2608 111.415 58.698 114.132 58.4061 115.442Z" fill="white"/>
</svg>
