<svg width="168" height="206" viewBox="0 0 228 280" fill="none" xmlns="http://www.w3.org/2000/svg">
<path d="M86.6869 56.1999C77.7195 54.4395 68.4245 56.566 59.8432 59.7054C65.9111 59.128 72.1833 61.1805 76.7392 65.2306C69.8113 65.3364 63.1958 68.1302 58.2902 73.022C53.3846 77.9137 50.5731 84.5203 50.4496 91.446C52.9771 87.0967 57.9544 84.2871 62.9846 84.3681C57.8675 91.7734 56.9672 101.744 60.1402 110.12C64.6011 117.761 71.8229 123.812 79.8618 127.69C78.884 125.869 78.344 124.312 78.1632 123.426C76.6946 116.235 80.8632 111.282 82.4468 110.154C80.4629 109.124 78.5826 107.906 76.832 106.516C65.0448 97.1613 66.4617 83.069 74.3562 71.893C74.6121 71.5773 74.8352 71.2804 74.9995 71.1125C76.3519 69.7242 78.344 68.7255 80.4277 67.9439C80.9676 67.742 81.5123 67.5554 82.0535 67.3817C85.4578 66.2856 89.2214 65.9594 92.2935 66.4593C100.424 67.7808 106.323 74.4854 111.037 81.0117C111.565 81.7428 112.042 82.4411 112.58 82.9152C112.184 81.8285 111.943 80.6854 111.641 79.5623C108.567 67.9568 98.4764 58.5106 86.6869 56.1999Z" fill="#1D2556"/>
<path d="M115.383 83.1358C117.354 82.089 118.607 80.1831 119.464 78.2432C120.418 76.0778 121.127 73.8124 121.577 71.4892C123.053 63.8962 121.646 55.6201 116.84 49.4318C116.532 49.0406 116.214 48.6576 115.886 48.2829C110.331 42.0254 101.673 39.1254 93.5637 38.1831C92.5901 38.0704 91.615 37.9894 90.6383 37.9401C79.66 37.3991 66.9161 40.921 57.5671 47.3428C64.8676 46.0296 71.9099 46.7948 76.6935 50.2627C70.3286 48.9718 62.5315 52.0935 56.9484 55.4077C51.3653 58.7219 46.9597 63.8551 44.0848 69.6761C49.6472 66.0211 56.3307 64.4682 62.9353 65.2963C59.7563 66.2855 56.8575 68.015 54.4774 70.3426C50.1456 74.5934 47.8389 80.6185 47.3013 86.6636C46.7636 92.7087 47.873 98.7949 49.6033 104.617C50.9204 99.242 51.4346 95.3634 56.2535 90.6925C55.3519 95.2613 55.6372 99.0003 57.1292 103.494C57.8997 105.801 58.9088 108.022 60.1403 110.12C56.9707 101.744 57.8676 91.7734 62.9846 84.3681C57.9545 84.2859 52.9771 87.0967 50.4497 91.446C50.5732 84.5202 53.3847 77.9137 58.2903 73.0219C63.1959 68.1302 69.8114 65.3363 76.7393 65.2305C72.1834 61.184 65.9112 59.1338 59.8433 59.7088C68.4245 56.5695 77.7195 54.4453 86.687 56.2034C98.4765 58.5106 108.567 67.9568 111.642 79.567C111.94 80.6878 112.181 81.8332 112.581 82.9199C112.782 83.103 113.01 83.2538 113.257 83.367C113.834 83.6205 114.51 83.5994 115.383 83.1358Z" fill="#333891"/>
<path d="M111.524 157.708C110.572 154.735 109.361 151.534 106.407 149.846C102.794 147.786 98.1548 148.775 93.9792 150.233C89.8318 156.55 85.7619 162.871 82.3376 169.794C78.4485 177.657 74.8763 185.258 71.7936 193.342C68.5372 201.882 65.8689 210.265 63.8991 219.317C63.1654 222.699 62.5162 225.961 61.9351 229.229C61.8162 230.747 61.7148 232.265 61.6311 233.785C61.5935 234.489 61.563 235.209 61.8588 235.858C62.5843 237.447 64.8535 237.919 66.8022 238.137C86.485 240.332 106.811 238.338 125.541 232.374C122.996 207.198 119.3 182.009 111.524 157.708Z" fill="#2B3023"/>
<path d="M125.367 247.385C124.957 246.214 124.885 244.951 125.162 243.741C127.216 242.193 129.574 241.095 132.081 240.518C132.865 240.341 133.695 240.219 134.446 240.466C136.23 241.052 136.18 242.869 137.01 244.233C137.798 245.524 138.901 246.302 137.728 248.043C137.039 249.068 135.923 249.686 134.919 250.391C133.789 251.183 132.763 252.115 131.867 253.165L131.772 253.276C128.925 252.332 126.408 250.345 125.367 247.385Z" fill="#606060"/>
<path d="M122.153 246.577C123.046 245.521 124.055 244.57 125.162 243.741C124.885 244.951 124.957 246.214 125.367 247.385C126.408 250.345 128.925 252.332 131.774 253.281C131.482 253.625 131.177 253.975 130.766 254.146C130.355 254.318 129.871 254.282 129.422 254.232C127.738 254.039 126.069 253.728 124.429 253.3C122.884 252.898 121.16 252.186 120.72 250.634C120.317 249.214 121.186 247.722 122.153 246.577Z" fill="#3F3F3F"/>
<path d="M120.254 227.255C120.278 221.411 121.444 215.871 124.346 210.52C124.572 210.15 124.854 209.892 125.082 209.522C125.94 207.985 126.82 206.588 128.04 205.39C128.342 206.212 128.615 207.045 128.904 207.817C130.128 211.093 131.179 214.431 132.054 217.817C133.269 222.516 134.14 227.297 134.66 232.122C134.888 234.257 135.045 236.393 135.129 238.531C135.147 238.954 135.152 239.413 134.907 239.768C134.538 240.305 133.797 240.355 133.164 240.4C130.633 240.607 128.234 241.809 126.204 243.395C125.033 244.328 123.938 245.351 122.928 246.456C122.367 244.359 121.924 242.232 121.601 240.086C120.995 235.855 120.202 231.703 120.254 227.255Z" fill="#606060"/>
<path d="M117.253 222.544C117.447 218.921 117.914 215.286 118.016 211.612C118.102 208.535 117.2 204.265 118.965 201.429C120.247 199.368 122.907 198.82 124.738 200.138C126.4 201.335 127.302 203.361 128.04 205.388C126.82 206.588 125.94 207.983 125.082 209.52C124.854 209.89 124.572 210.148 124.346 210.517C121.444 215.864 120.278 221.408 120.254 227.253C120.202 231.701 120.995 235.853 121.607 240.084C121.93 242.23 122.373 244.357 122.934 246.454C122.208 247.231 121.507 248.031 120.81 248.828C117.995 240.585 116.767 231.611 117.253 222.544Z" fill="#3F3F3F"/>
<path d="M118.044 192.381C118.006 190.251 118.168 188.026 118.816 185.966C120.19 184.858 121.958 184.792 123.314 186.622C125.47 189.537 127.282 193.165 128.628 196.562C129.144 197.862 129.601 199.261 129.389 200.683C129.202 201.923 128.521 203.03 127.789 204.043C125.973 206.548 123.7 208.687 121.089 210.349C118.746 204.79 118.153 198.683 118.044 192.381Z" fill="#606060"/>
<path d="M117.03 188.62C117.412 187.515 118.052 186.581 118.816 185.966C118.168 188.025 118.006 190.251 118.044 192.381C118.153 198.683 118.749 204.79 121.089 210.349C120.407 210.784 119.701 211.181 118.976 211.54C118.389 211.83 117.698 212.096 117.127 211.808C116.589 211.537 116.359 210.869 116.188 210.267C114.308 203.372 114.593 195.672 117.03 188.62Z" fill="#3F3F3F"/>
<path d="M129.746 246.513V246.474C131.213 244.885 133.165 243.745 135.276 243.41C135.704 243.343 136.152 243.307 136.553 243.449C136.955 243.591 137.296 243.918 137.598 244.248C139.124 245.891 140.359 247.724 141.427 249.69C142.747 252.118 141.646 252.059 139.522 253.328C138.231 254.105 137.452 255.72 136.149 256.329C135.317 255.667 134.525 254.956 133.778 254.2C131.684 252.102 129.837 249.609 129.746 246.513Z" fill="#606060"/>
<path d="M127.144 252.098C127.34 250.016 128.308 248.031 129.743 246.475V246.513C129.84 249.609 131.682 252.102 133.773 254.205C134.521 254.961 135.312 255.672 136.145 256.334C135.98 256.412 135.807 256.472 135.629 256.512C134.878 256.684 134.112 256.47 133.383 256.259L128.98 254.982C128.541 254.855 128.086 254.719 127.748 254.415C127.137 253.867 127.067 252.932 127.144 252.098Z" fill="#3F3F3F"/>
<path d="M139.594 250.52C140.753 250.311 141.999 250.368 142.985 250.964C145.44 252.449 144.19 254.72 142.31 256.035C141.296 256.743 140.15 257.241 138.94 257.499C137.388 256.246 136.122 254.664 135.339 252.657C136.528 251.558 138.002 250.817 139.594 250.52Z" fill="#606060"/>
<path d="M134.247 253.877C134.571 253.436 134.937 253.027 135.339 252.657C136.121 254.664 137.388 256.246 138.94 257.499C137.962 257.711 136.954 257.743 135.965 257.596C134.916 257.435 133.751 256.902 133.575 255.851C133.458 255.157 133.822 254.457 134.247 253.877Z" fill="#3F3F3F"/>
<path d="M138.96 254.253C138.921 254.128 138.89 254 138.867 253.871C140.493 252.549 142.632 251.586 144.276 252.555C146.696 253.978 148.413 257.141 149.073 259.782C149.137 259.971 149.147 260.174 149.103 260.369C149.098 260.387 149.091 260.406 149.082 260.424C146.669 259.41 144.281 258.331 141.747 257.113C140.447 256.45 139.432 255.624 138.96 254.253Z" fill="#606060"/>
<path d="M136.618 256.891C136.618 256.393 136.907 255.934 137.218 255.534C137.702 254.92 138.253 254.362 138.861 253.87C138.884 253.999 138.915 254.127 138.954 254.253C139.423 255.623 140.441 256.45 141.741 257.116C144.275 258.334 146.663 259.413 149.076 260.427C148.85 260.968 148.02 260.896 147.449 260.698C144.791 259.796 142.057 259.135 139.28 258.721C138.693 258.633 138.089 258.552 137.568 258.277C137.046 258.002 136.618 257.489 136.618 256.891Z" fill="#3F3F3F"/>
<path d="M89.0594 158.165C83.5749 158.625 82.2906 166.224 81.0322 170.689C78.9274 178.152 77.5246 185.881 77.0468 193.635C77.0104 194.234 76.9952 194.809 77.1818 195.359C77.406 196.022 77.858 196.533 78.3451 196.992C79.7165 198.293 81.2275 199.438 82.8506 200.407C83.11 194.285 83.5714 188.163 84.4389 181.773C85.4966 173.49 87.207 166.034 89.0594 158.165Z" fill="#BC3B3B"/>
<path d="M94.8926 162.486C94.4723 160.264 92.7655 158.508 90.5726 158.211C90.0714 158.141 89.564 158.125 89.0594 158.165C87.207 166.028 85.4966 173.49 84.4389 181.773C83.5714 188.163 83.1101 194.286 82.8506 200.407C83.2576 200.65 83.6716 200.882 84.0926 201.101C86.073 190.093 89.347 179.249 93.5649 168.945C94.4406 166.798 95.314 164.709 94.8926 162.486Z" fill="#8E2121"/>
<path d="M77.0832 247.199C77.5355 245.879 77.5955 244.457 77.2558 243.104C74.8973 241.482 72.2227 240.376 69.407 239.859C68.5348 239.702 67.6145 239.607 66.7822 239.91C64.8112 240.624 64.8558 242.598 63.9284 244.122C63.048 245.57 61.8154 246.469 63.0985 248.346C63.8556 249.465 65.0941 250.13 66.2211 250.891C67.5003 251.76 68.6619 252.792 69.677 253.958L69.785 254.083C73.0485 252.928 75.9281 250.589 77.0832 247.199Z" fill="#606060"/>
<path d="M80.7916 246.171C79.7337 245.017 78.5474 243.988 77.2558 243.104C77.5955 244.457 77.5355 245.879 77.0832 247.199C75.9281 250.589 73.0485 252.928 69.785 254.083C70.1208 254.471 70.4729 254.864 70.9437 255.052C71.432 255.247 71.9755 255.191 72.4921 255.121C74.4477 254.861 76.3828 254.464 78.2829 253.933C80.0884 253.429 82.1016 252.562 82.5783 250.755C83.0114 249.112 81.9502 247.437 80.7916 246.171Z" fill="#3F3F3F"/>
<path d="M82.4679 224.984C82.2848 218.9 80.8573 213.349 77.5903 208.286C77.3391 207.943 77.0327 207.717 76.7815 207.374C75.8424 205.955 74.8845 204.689 73.5791 203.65C73.268 204.472 72.9851 205.293 72.6858 206.073C71.4079 209.382 70.3072 212.756 69.3883 216.182C68.0812 221.05 67.1394 226.008 66.5709 231.016C66.3134 233.279 66.1322 235.556 66.0274 237.85C66.0062 238.306 65.9992 238.801 66.2622 239.172C66.6683 239.737 67.4877 239.751 68.1885 239.778C71.0059 239.887 73.7188 241.1 76.0455 242.763C77.4075 243.759 78.6876 244.862 79.8736 246.062C80.4712 243.701 80.9325 241.308 81.2553 238.894C81.8551 234.226 82.6463 229.704 82.4679 224.984Z" fill="#606060"/>
<path d="M85.7114 219.839C85.3757 216.119 84.7406 212.46 84.5164 208.785C84.3309 205.746 85.1855 201.483 83.191 198.927C81.7612 197.098 78.918 196.864 77.0022 198.305C75.2637 199.614 74.3374 201.632 73.5791 203.646C74.8845 204.685 75.84 205.951 76.7815 207.37C77.0327 207.713 77.3391 207.939 77.5903 208.282C80.8573 213.345 82.286 218.896 82.4679 224.979C82.6487 229.7 81.8551 234.225 81.2623 238.89C80.9395 241.304 80.4782 243.697 79.8806 246.058C80.7434 246.911 81.5828 247.796 82.4209 248.683C85.4637 239.272 86.5731 229.391 85.7114 219.839Z" fill="#3F3F3F"/>
<path d="M83.9271 190.293C83.9083 188.319 83.677 186.296 82.9398 184.5C81.4759 183.669 79.6364 183.826 78.2665 185.645C76.0795 188.547 74.2494 192.077 72.8841 195.368C72.3594 196.634 71.8922 197.993 72.1246 199.305C72.3277 200.459 73.0496 201.447 73.8303 202.335C75.8696 204.632 78.3484 206.497 81.1202 207.82C83.5197 202.15 83.9881 196.224 83.9271 190.293Z" fill="#606060"/>
<path d="M84.8956 186.702C84.4912 185.781 83.8069 185.011 82.9399 184.5C83.6771 186.296 83.9083 188.319 83.9271 190.293C83.9882 196.225 83.5198 202.146 81.1097 207.818C81.8744 208.187 82.6581 208.516 83.4576 208.802C84.1126 209.036 84.8815 209.238 85.5025 208.899C86.0895 208.579 86.3242 207.897 86.4862 207.277C88.3175 200.318 87.7306 192.978 84.8956 186.702Z" fill="#3F3F3F"/>
<path d="M72.0613 246.372V246.329C70.3955 244.616 68.2073 243.433 65.8595 243.145C65.39 243.089 64.8911 243.066 64.4508 243.239C64.0106 243.411 63.6291 243.787 63.2922 244.153C61.5947 246.009 60.2084 248.073 59.0016 250.282C57.5025 253.025 58.7175 252.932 61.0524 254.315C62.4893 255.166 63.3439 256.992 64.8089 257.668C65.7573 256.893 66.6589 256.062 67.5089 255.18C69.8849 252.736 71.9744 249.857 72.0613 246.372Z" fill="#606060"/>
<path d="M75.1016 252.615C74.8492 250.243 73.7141 248.026 72.0635 246.329V246.373C71.9767 249.857 69.8871 252.736 67.5053 255.185C66.6553 256.067 65.7537 256.898 64.8053 257.673C64.9932 257.759 65.19 257.825 65.3922 257.869C66.2457 258.053 67.1202 257.795 67.9525 257.538L73.0132 255.979C73.5204 255.823 74.0463 255.657 74.436 255.296C75.1333 254.646 75.2026 253.57 75.1016 252.615Z" fill="#3F3F3F"/>
<path d="M60.9995 251.159C59.7211 250.959 58.3477 251.057 57.2524 251.746C54.5301 253.463 55.8437 255.985 57.8922 257.438C59.0134 258.231 60.2875 258.782 61.6334 259.056C63.3943 257.593 64.8405 255.757 65.735 253.457C64.4123 252.249 62.7672 251.451 60.9995 251.159Z" fill="#606060"/>
<path d="M66.9688 254.82C66.6064 254.326 66.1955 253.87 65.7421 253.458C64.8476 255.758 63.4048 257.593 61.6404 259.057C62.7483 259.285 63.8888 259.308 65.0049 259.124C66.2011 258.921 67.5323 258.287 67.7354 257.071C67.8645 256.269 67.4513 255.475 66.9688 254.82Z" fill="#3F3F3F"/>
<path d="M61.6558 255.35C61.7009 255.207 61.7369 255.061 61.7638 254.914C59.9724 253.46 57.6281 252.432 55.8003 253.555C53.118 255.198 51.1458 258.792 50.3358 261.8C50.2585 262.017 50.2402 262.25 50.283 262.475C50.283 262.496 50.2959 262.517 50.3029 262.537C52.9877 261.353 55.6548 260.09 58.498 258.665C59.9607 257.878 61.1087 256.918 61.6558 255.35Z" fill="#606060"/>
<path d="M64.2653 258.322C64.2653 257.749 63.946 257.228 63.5986 256.776C63.0599 256.087 62.4443 255.462 61.7637 254.914C61.7369 255.061 61.7008 255.207 61.6557 255.35C61.1087 256.918 59.9606 257.878 58.4979 258.661C55.6547 260.09 52.9876 261.353 50.3029 262.534C50.5377 263.152 51.4522 263.056 52.0826 262.831C55.0537 261.767 58.1153 260.975 61.2296 260.465C61.8941 260.355 62.5773 260.255 63.1701 259.931C63.7629 259.607 64.2595 259.011 64.2653 258.322Z" fill="#3F3F3F"/>
<path d="M71.7913 193.345C74.874 185.262 78.4462 177.665 82.3353 169.798C85.7537 162.873 89.8295 156.554 93.9769 150.236C93.2726 150.48 92.587 150.739 91.9179 150.998C89.3588 151.99 85.6962 152.751 83.4658 154.208C81.3398 155.596 80.5921 158.732 79.6435 160.829C77.0868 166.481 74.7918 172.214 72.7586 178.028C68.6847 189.651 65.6685 201.617 63.7465 213.782C62.9389 218.915 62.3335 224.065 61.9305 229.232C62.5116 225.965 63.1607 222.702 63.8944 219.32C65.8666 210.268 68.5349 201.886 71.7913 193.345Z" fill="#556049"/>
<path d="M117.671 173.503C117.191 167.987 116.306 162.514 115.024 157.128C113.984 155.046 112.64 153.171 110.811 151.757C106.937 148.755 101.949 147.153 97.1863 148.354C91.7864 149.719 86.573 155.982 87.8808 162.294C89.3576 169.418 89.4961 176.643 89.5113 183.877C89.5512 203.583 88.9792 223.279 87.7951 242.966C95.7142 243.262 103.462 242.921 111.448 242.063C113.41 233.66 115.124 225.139 116.413 216.393C118.517 202.196 118.939 187.799 117.671 173.503Z" fill="#556049"/>
<path d="M126.918 239.689C126.513 234.806 125.841 229.887 125.481 225.047C125.291 222.491 125.103 219.935 124.919 217.379C124.612 213.2 124.297 209.022 123.935 204.849C122.761 191.313 121.088 177.766 117.653 164.64C116.992 162.114 116.204 159.488 115.024 157.129C116.306 162.515 117.191 167.988 117.671 173.504C118.939 187.802 118.517 202.199 116.413 216.398C115.121 225.144 113.41 233.665 111.448 242.068L111.778 242.033C116.886 241.495 121.93 240.702 126.918 239.689Z" fill="#404936"/>
<path d="M100.852 115.646C99.8358 112.114 98.6056 108.298 96.4655 105.286C93.28 105.509 90.1643 106.326 87.2786 107.693C80.8984 110.744 70.2499 121.131 74.0897 128.663C78.4508 137.219 77.6525 147.716 82.8635 155.829C85.4766 159.897 89.59 162.861 94.079 164.661C96.1697 165.497 98.3802 166.105 100.633 166.143C100.79 166.143 100.946 166.143 101.102 166.143C105.874 149.532 105.655 132.341 100.852 115.646Z" fill="#4C4C4C"/>
<path d="M119.354 120.759C118.767 117.849 117.946 114.897 116.128 112.544C114.848 110.881 113.13 109.598 111.306 108.553C106.837 106.006 101.593 104.904 96.4656 105.279C98.6115 108.301 99.8359 112.114 100.852 115.647C105.651 132.342 105.874 149.532 101.104 166.142C106.089 166.045 110.767 163.111 113.821 159.146C116.969 155.058 118.589 149.993 119.532 144.913C121.01 136.924 120.95 128.726 119.354 120.759Z" fill="#3A3A3A"/>
<path d="M69.616 234.295C69.616 234.691 69.6336 235.109 69.8508 235.442C70.021 235.71 70.298 235.888 70.5727 236.046C71.6233 236.648 72.7685 237.067 73.9594 237.286C73.4701 229.669 73.9768 222.021 75.4667 214.535C75.6546 213.589 75.8588 212.609 75.6334 211.672C74.8516 208.423 73.3208 211.481 72.8712 212.846C72.1186 215.171 71.5001 217.538 71.0188 219.934C70.048 224.659 69.5778 229.472 69.616 234.295Z" fill="#828181"/>
<path d="M75.2977 194.174C74.9948 195.737 75.4292 197.549 76.7475 198.442C77.0609 198.654 77.473 198.808 77.811 198.638C78.1832 198.449 78.2806 197.971 78.3334 197.557L79.0882 191.744C79.1458 191.301 79.2056 190.843 79.0882 190.41C78.2383 187.2 75.4668 193.303 75.2977 194.174Z" fill="#828181"/>
<path d="M54.6018 255.759C53.9092 256.537 53.5511 257.547 53.2095 258.531C53.1215 258.783 53.0921 259.155 53.348 259.226C53.4493 259.243 53.5534 259.225 53.6427 259.174C54.1393 258.939 54.5149 258.519 54.914 258.145C55.4827 257.61 56.1246 257.158 56.8204 256.803C57.1198 256.652 57.4321 256.515 57.6797 256.289C57.9274 256.064 58.1 255.725 58.0319 255.399C57.6211 253.562 55.2228 255.061 54.6018 255.759Z" fill="#828181"/>
<path d="M61.8284 249.834C62.9136 249.866 63.981 250.118 64.965 250.577C65.0135 250.609 65.0682 250.63 65.1255 250.639C65.1827 250.648 65.2413 250.645 65.2973 250.63C65.3439 250.6 65.3837 250.56 65.4142 250.514C65.4448 250.467 65.4653 250.415 65.4745 250.36L66.6813 246.416C66.7472 246.239 66.7802 246.052 66.7787 245.864C66.7541 245.483 66.443 245.168 66.0896 245.023C63.7277 244.047 62.0772 248.047 61.8284 249.834Z" fill="#828181"/>
<path d="M133.601 246.314C133.741 247.147 133.994 247.957 134.353 248.722C134.463 248.988 134.622 249.231 134.823 249.438C135.149 249.741 135.614 249.851 136.06 249.857C136.402 249.878 136.741 249.796 137.036 249.622C137.532 249.293 137.705 248.62 137.6 248.034C137.496 247.449 137.166 246.931 136.833 246.438C136.499 245.945 136.153 245.458 135.682 245.099C134.471 244.165 133.341 244.767 133.601 246.314Z" fill="#828181"/>
<path d="M129.979 231.068C130.065 232.325 130.124 233.587 130.364 234.823C130.489 235.463 130.795 236.216 131.442 236.294C132.252 236.389 132.692 235.371 132.781 234.561C133.016 232.456 132.715 230.33 132.312 228.249C131.615 224.628 130.78 220.596 129.153 217.262C128.136 215.179 127.952 217.459 128.163 218.519C128.554 220.47 128.957 222.413 129.252 224.387C129.583 226.603 129.825 228.83 129.979 231.068Z" fill="#828181"/>
<path d="M142.321 253.801C142.112 253.875 141.892 253.975 141.786 254.17C141.597 254.522 141.876 254.941 142.187 255.187C142.444 255.379 142.716 255.549 143 255.698L145.658 257.173C145.759 257.229 145.893 257.281 145.979 257.199C145.999 257.171 146.014 257.139 146.022 257.105C146.03 257.071 146.031 257.036 146.025 257.002C145.975 256.081 145.37 255.298 144.792 254.578C144.009 253.604 143.496 253.387 142.321 253.801Z" fill="#828181"/>
<path d="M103.643 134.711H97.6148V157.674H103.643V134.711Z" fill="#383737"/>
<path d="M95.0686 235.165C95.0686 247.885 100.447 259.231 100.447 259.231V204.219C98.8321 208.541 97.0748 212.832 95.0686 216.974V235.165Z" fill="#D3D3D3"/>
<path d="M95.0686 157.46V216.974C97.0748 212.832 98.8321 208.541 100.447 204.219V157.46H95.0686Z" fill="#B7B7B7"/>
<path d="M100.448 204.219V259.223C100.448 259.223 106.188 247.018 106.188 235.157V184.364C105.223 189.414 103.905 194.389 102.242 199.253C101.662 200.908 101.063 202.563 100.448 204.219Z" fill="#757474"/>
<path d="M100.448 157.46V204.219C101.065 202.566 101.663 200.911 102.242 199.252C103.905 194.388 105.223 189.413 106.188 184.364V157.46H100.448Z" fill="#919191"/>
<path d="M119.92 156.021C119.859 155.189 119.521 154.402 118.959 153.786C118.397 153.169 117.644 152.759 116.822 152.621C115.999 152.483 115.154 152.625 114.421 153.025C113.689 153.424 113.112 154.058 112.783 154.824L88.2212 156.637C87.7827 155.928 87.1189 155.387 86.336 155.1C85.5532 154.812 84.6966 154.796 83.9034 155.053C83.1102 155.311 82.4263 155.827 81.9612 156.519C81.4962 157.211 81.2768 158.039 81.3383 158.87C81.3997 159.701 81.7385 160.488 82.3003 161.104C82.8621 161.72 83.6144 162.13 84.4368 162.268C85.2592 162.406 86.1041 162.264 86.8362 161.865C87.5684 161.466 88.1453 160.832 88.4747 160.067L113.035 158.253C113.474 158.962 114.137 159.504 114.92 159.791C115.703 160.078 116.559 160.094 117.352 159.838C118.145 159.581 118.829 159.065 119.295 158.374C119.761 157.682 119.981 156.855 119.92 156.024V156.021Z" fill="#C99105"/>
<path d="M99.4614 140.602C97.2098 140.006 95.1578 141.072 92.9063 141.595C92.1151 141.778 91.2123 141.791 90.454 141.382C90.1018 141.632 89.7684 141.887 89.4527 142.142C86.7233 144.343 84.689 146.662 81.2424 147.684C77.8815 148.68 74.0287 149.059 70.5716 148.363C69.3754 148.129 68.205 147.598 67.3774 146.7C67.0996 146.41 66.8807 146.068 66.7329 145.695C66.6933 145.586 66.6608 145.475 66.6355 145.362C65.647 144.263 65.2866 142.418 65.4933 140.933C65.9628 138.02 66.8843 135.439 68.7379 133.056C72.4252 128.369 76.3308 124.144 80.6155 120.362L78.1421 116.648C75.9445 118.246 73.6812 119.903 71.432 121.721C66.7939 125.476 62.4118 130.03 59.3995 135.217C57.54 138.421 56.3286 142.113 56.6408 145.804C56.7397 147.102 57.0518 148.376 57.5647 149.573C57.6445 149.651 57.7267 149.726 57.8124 149.8C60.2623 151.918 62.7792 153.907 65.9569 154.103C72.1153 154.632 78.1409 153.573 83.9013 151.521C86.1528 150.793 88.2048 149.668 90.3237 148.609C91.9132 147.814 93.3759 146.887 94.8925 146.094C96.0852 145.497 97.3425 145.894 98.1372 146.887C99.1303 148.212 98.7336 149.734 99.1303 151.256C99.2365 151.674 99.4361 152.062 99.714 152.391C99.992 152.72 100.341 152.982 100.735 153.156C101.234 152.931 101.641 152.54 101.884 152.049C102.402 150.95 102.185 149.66 101.957 148.465C102.515 149.011 102.661 149.837 102.954 150.557C103.246 151.276 103.919 152 104.682 151.836C105.386 151.684 105.721 150.869 105.839 150.153C106.254 147.633 105.406 145.095 103.844 143.05L103.498 142.783C102.177 141.794 100.918 140.999 99.4614 140.602Z" fill="#F2B406"/>
<path d="M100.342 139.996C99.4402 139.487 98.4635 139.082 97.4352 138.966C95.0029 138.694 92.4696 139.943 90.454 141.381C91.2123 141.791 92.1151 141.778 92.9063 141.595C95.1578 141.066 97.2098 140.006 99.4613 140.602C100.918 140.999 102.177 141.793 103.501 142.786L103.846 143.054C102.896 141.809 101.704 140.769 100.342 139.996Z" fill="#B7B7B7"/>
<path d="M99.1303 151.26C98.7336 149.734 99.1303 148.216 98.1372 146.891C97.3425 145.898 96.0852 145.501 94.8925 146.097C93.3665 146.891 91.9132 147.818 90.3237 148.612C88.2107 149.668 86.1528 150.796 83.9013 151.525C78.1409 153.576 72.1153 154.636 65.9569 154.107C62.7792 153.907 60.2623 151.922 57.8124 149.803C57.7267 149.729 57.6445 149.654 57.5647 149.577C60.3715 155.996 68.7168 157.387 75.5642 156.434C82.7156 155.44 89.2989 152.156 95.7941 149.19C96.1087 149.046 96.4398 148.899 96.7837 148.924C97.596 148.982 98.0292 149.911 98.1513 150.715C98.2734 151.519 98.2992 152.43 98.8944 152.985C99.3933 153.454 100.111 153.446 100.735 153.16C100.341 152.985 99.992 152.724 99.714 152.394C99.4361 152.065 99.2365 151.677 99.1303 151.26Z" fill="#C99105"/>
<path d="M66.5885 144.04C67.1508 138.227 73.7834 133.721 78.1855 130.723C80.2574 129.315 82.4632 127.956 84.7511 126.567L80.619 120.362C76.3307 124.144 72.4251 128.369 68.7379 133.056C66.8843 135.439 65.9569 138.021 65.4932 140.933C65.2866 142.418 65.647 144.263 66.6354 145.363C66.5505 144.927 66.5347 144.481 66.5885 144.04Z" fill="#C99105"/>
<path d="M130.45 142.125C130.914 140.206 130.781 138.352 130.252 136.499C128.373 129.575 124.454 123.824 119.165 119.209L114.894 123.451C116.857 125.27 118.747 127.04 120.494 128.836C124.099 132.545 129.839 138.225 129.086 143.891C129.052 144.158 129 144.423 128.931 144.683C129.665 143.988 130.191 143.102 130.45 142.125Z" fill="#C99105"/>
<path d="M139.171 141.907C138.456 134.37 133.48 126.918 128.909 121.369C127.074 119.139 125.184 117.062 123.35 115.059L119.165 119.215C124.448 123.831 128.37 129.576 130.252 136.505C130.781 138.358 130.914 140.212 130.45 142.131C130.19 143.105 129.664 143.989 128.931 144.682C128.819 145.128 128.625 145.55 128.359 145.925C127.755 146.746 126.757 147.209 125.751 147.375C124.745 147.542 123.714 147.447 122.699 147.352C116.491 146.765 110.826 143.622 107.392 138.3C105.086 134.727 102.28 133.057 97.9611 133.343C94.9864 133.539 92.1068 134.718 89.9152 136.753C89.3282 137.299 88.78 137.927 88.5194 138.679C88.4851 138.778 88.4561 138.879 88.4325 138.981C88.341 139.376 88.368 139.859 88.6955 140.098C88.8709 140.209 89.0748 140.267 89.2824 140.265C90.0889 140.302 90.8795 140.032 91.4952 139.51C91.19 140.188 90.9083 141.056 91.4025 141.612C91.6666 141.908 92.0845 142.015 92.4801 142.039C92.5647 142.039 92.6492 142.047 92.7325 142.047C93.7797 141.685 94.8456 140.849 95.8856 140.734C97.4751 140.536 99.0646 140.403 100.454 141.204C103.898 143.057 106.811 145.175 109.857 147.559C110.576 148.161 111.352 148.691 112.175 149.142C113.566 149.804 114.89 150.4 116.214 150.996C122.306 153.842 129.788 154.967 135.681 150.796C137.04 149.853 138.147 148.59 138.906 147.12C139.056 146.444 139.157 145.759 139.209 145.069C139.286 144.016 139.274 142.958 139.171 141.907Z" fill="#F2B406"/>
<path d="M135.681 150.796C129.788 154.967 122.306 153.842 116.214 150.996C114.89 150.4 113.566 149.803 112.175 149.142C111.352 148.689 110.576 148.157 109.857 147.554C106.811 145.17 103.898 143.052 100.454 141.199C99.0646 140.404 97.4751 140.537 95.8857 140.729C94.8444 140.847 93.7797 141.68 92.7325 142.043C93.9651 142.043 95.1484 141.456 96.3857 141.347C98.6819 141.145 100.628 142.622 102.205 144.087C103.156 144.972 104.141 145.865 105.175 146.676C107.992 148.883 110.272 150.989 113.535 152.595C116.852 154.228 120.322 155.69 124.019 156.152C128.79 156.75 134.107 155.367 136.961 151.499C137.906 150.188 138.568 148.694 138.906 147.114C138.148 148.586 137.041 149.851 135.681 150.796Z" fill="#C99105"/>
<path d="M79.3982 121.68C80.6319 118.598 80.8632 115.361 80.1694 112.126C79.847 110.707 79.209 109.38 78.3029 108.242C74.1884 107.79 69.1206 109.514 65.8337 111.346C61.098 114.006 57.4276 118.22 55.4446 123.276C54.313 126.189 53.9291 129.824 55.7287 132.257C64.9685 134.528 75.6029 130.879 79.3982 121.68Z" fill="#4C4C4C"/>
<path d="M87.4747 116.828C86.3759 113.679 83.2791 109.533 79.9746 108.568C79.428 108.411 78.8686 108.302 78.303 108.242C79.2106 109.38 79.8499 110.709 80.173 112.128C80.8668 115.363 80.6355 118.6 79.4017 121.682C75.603 130.879 64.9686 134.528 55.7288 132.257C55.906 132.497 56.1023 132.722 56.3157 132.93C57.7866 134.361 59.9278 134.841 61.9692 135.057C69.0864 135.786 76.2394 134.068 82.2484 130.186C83.8485 129.145 85.3769 127.93 86.4475 126.351C88.3058 123.609 88.5652 119.955 87.4747 116.828Z" fill="#3A3A3A"/>
<path d="M130.923 125.719C124.064 123.1 119.285 116.859 117.746 109.615C117.564 108.877 117.507 108.112 117.579 107.355C117.33 107.403 117.085 107.463 116.846 107.532C113.871 108.399 111.084 112.133 110.095 114.967C109.112 117.783 109.347 121.069 111.018 123.534C111.982 124.955 113.358 126.049 114.798 126.985C120.207 130.481 126.645 132.028 133.051 131.371C134.89 131.176 136.817 130.744 138.142 129.456C139.168 128.457 139.65 127.133 139.763 125.714C139.246 125.886 138.737 126.038 138.247 126.177C135.778 126.875 133.242 126.644 130.923 125.719Z" fill="#3A3A3A"/>
<path d="M138.924 120.77C137.141 116.22 133.838 112.426 129.576 110.032C126.406 108.272 121.4 106.612 117.577 107.355C117.506 108.113 117.563 108.877 117.746 109.616C119.287 116.859 124.066 123.1 130.926 125.719C133.238 126.644 135.781 126.875 138.247 126.182C138.737 126.043 139.246 125.891 139.763 125.719C139.889 124.08 139.523 122.313 138.924 120.77Z" fill="#4C4C4C"/>
<path d="M58.0319 123.887C57.8699 124.55 57.7596 125.253 57.9521 125.907C58.1446 126.56 58.714 127.148 59.396 127.157C59.9982 127.165 60.5147 126.748 60.9526 126.335C62.7557 124.632 64.2583 122.596 66.2598 121.129C67.1144 120.502 68.05 119.988 68.8718 119.321C69.6935 118.653 70.4154 117.795 70.642 116.755C71.715 111.87 65.8431 114.469 64.0259 115.629C61.0911 117.498 58.8584 120.495 58.0319 123.887Z" fill="#636363"/>
<path d="M66.2035 75.186C64.7044 75.666 63.8052 77.5837 64.5248 79.0213C65.6412 81.399 68.367 82.1653 70.9555 82.0222C70.9813 81.9916 71.0059 81.9611 71.0318 81.9318C72.2988 80.4273 73.5228 78.8875 74.7037 77.3126C72.3371 75.3234 69.1876 74.1498 66.2035 75.186Z" fill="#937F7F"/>
<path d="M74.5922 70.716C71.6007 70.357 68.5667 70.6702 65.7116 71.6326C63.7101 72.3121 61.6452 73.5021 60.989 75.5113C60.3786 77.3831 61.2238 79.512 62.683 80.8323C64.1421 82.1526 66.1096 82.7792 68.0559 83.0738C68.6429 83.1618 69.2545 83.2205 69.798 82.9928C70.2676 82.7957 70.6197 82.406 70.9555 82.0223C68.367 82.1655 65.6412 81.3991 64.5248 79.0214C63.8052 77.5838 64.7044 75.6662 66.2035 75.1862C69.1876 74.1499 72.3371 75.3235 74.7037 77.3186C75.1138 76.7709 75.518 76.2213 75.9164 75.6697C77.7805 73.0749 78.155 71.142 74.5922 70.716Z" fill="#F2B406"/>
<path d="M114.516 83.5162C114.585 83.4898 114.653 83.4568 114.716 83.4176C113.019 83.9375 112.144 82.548 111.037 81.0165C106.323 74.489 100.424 67.7844 92.2935 66.4641C89.2202 65.963 85.4543 66.2869 82.0594 67.3854C81.5182 67.559 80.9724 67.7456 80.4335 67.9475C78.351 68.7256 76.3577 69.7243 75.0054 71.1162C74.8411 71.284 74.618 71.5856 74.3621 71.8966C68.1838 80.6304 65.9769 91.1515 70.9331 99.7996C69.8567 96.7014 69.7428 93.2968 70.4636 89.8676C71.7819 83.3965 75.9187 77.5838 82.0923 75.246C91.203 71.8309 101.153 75.0113 108.826 80.8792C110.559 82.1971 112.298 84.36 114.516 83.5162Z" fill="#C99105"/>
<path d="M117.872 104.489C121.828 99.8743 123.147 93.8821 122.607 88.0095C122.27 84.8138 120.832 82.0899 118.733 79.6911C117.928 81.09 116.855 82.3528 115.383 83.1356C115.17 83.2499 114.947 83.3442 114.716 83.4172C114.653 83.4564 114.585 83.4894 114.516 83.5158C112.298 84.3549 110.559 82.1967 108.821 80.8788C101.148 75.0109 91.1983 71.8305 82.0876 75.2456C75.914 77.5834 71.7772 83.3961 70.4589 89.8672C69.7428 93.2964 69.8567 96.701 70.9285 99.7992C72.3125 102.212 74.2553 104.478 76.8262 106.519C78.5768 107.909 80.457 109.127 82.4409 110.157C90.8402 114.522 100.933 115.501 109.793 112.138C110.758 111.462 111.711 110.751 112.651 110.006C114.694 108.384 116.194 106.466 117.872 104.489Z" fill="#F2B406"/>
<path d="M129.168 89.553C129.031 82.7826 125.684 76.761 121.577 71.4893C121.127 73.8124 120.418 76.0778 119.464 78.2432C119.246 78.7387 119.003 79.2221 118.733 79.6914C120.832 82.0902 122.27 84.8141 122.607 88.0097C123.147 93.8776 121.828 99.8746 117.872 104.489C116.194 106.467 114.695 108.384 112.657 110.005C111.718 110.753 110.765 111.464 109.799 112.137C110.133 112.011 110.468 111.878 110.8 111.738C119.624 108.019 129.381 100.033 129.168 89.553Z" fill="#C99105"/>
<path d="M82.212 109.985C84.6561 111.566 88.3023 112.369 90.3824 113.019C98.8263 115.661 107.788 116.206 116.584 116.249C117.252 116.249 117.93 116.249 118.609 116.224C117.03 115.562 115.587 114.5 115.152 112.878C117.895 111.255 121.199 110.471 124.446 110.863C125.392 110.953 126.121 111.624 126.573 112.466C126.58 111.539 125.885 110.662 125.25 109.923C121.287 105.302 118.172 100.018 116.047 94.3145" fill="#F2B406"/>
<path d="M124.446 110.863C121.199 110.471 117.895 111.255 115.152 112.878C115.587 114.5 117.03 115.562 118.609 116.224C121.031 116.133 123.45 115.754 125.374 114.346C125.878 113.977 126.356 113.509 126.515 112.906C126.553 112.761 126.572 112.612 126.573 112.462C126.121 111.623 125.392 110.953 124.446 110.863Z" fill="#3D3C3C"/>
<path d="M94.9043 103.051C100.65 103.051 105.309 98.3945 105.309 92.65C105.309 86.9054 100.65 82.2485 94.9043 82.2485C89.1581 82.2485 84.4999 86.9054 84.4999 92.65C84.4999 98.3945 89.1581 103.051 94.9043 103.051Z" fill="#C99105"/>
<path d="M87.9008 86.3774C87.2578 87.5547 86.8802 88.8582 86.7942 90.1968C86.7083 91.5353 86.9162 92.8764 87.4033 94.1262C87.8904 95.376 88.645 96.5041 89.6142 97.4316C90.5833 98.3591 91.7437 99.0636 93.0138 99.4956C94.284 99.9275 95.6333 100.077 96.9672 99.9324C98.3011 99.7881 99.5873 99.3541 100.736 98.6605C101.884 97.967 102.867 97.0308 103.615 95.9176C104.364 94.8044 104.859 93.541 105.068 92.216C103.367 92.212 101.669 92.0605 99.9944 91.763C95.6007 90.9273 91.4609 89.0838 87.9008 86.3774Z" fill="white"/>
<path d="M98.453 94.3586C99.5532 94.3586 100.445 93.467 100.445 92.3671C100.445 91.2671 99.5532 90.3755 98.453 90.3755C97.3528 90.3755 96.4609 91.2671 96.4609 92.3671C96.4609 93.467 97.3528 94.3586 98.453 94.3586Z" fill="#1A1A1A"/>
<path d="M95.8188 79.6528C94.1251 79.6504 92.4547 80.0476 90.9435 80.8123C91.3744 84.3108 93.4334 87.6097 96.8342 88.9171C99.8335 90.0766 103.615 89.6435 106.311 87.8257C105.722 85.4901 104.37 83.418 102.469 81.9376C100.569 80.4571 98.2281 79.6531 95.8188 79.6528Z" fill="#595959"/>
<path d="M96.8341 88.9168C93.4298 87.6094 91.3743 84.3105 90.9435 80.812C88.9848 81.8027 87.3725 83.3637 86.3195 85.2892C90.5059 88.4708 95.3739 90.6378 100.54 91.6195C102.509 91.9699 104.506 92.1482 106.506 92.1523C106.731 90.7114 106.664 89.2402 106.311 87.8253C103.615 89.6409 99.8334 90.0763 96.8341 88.9168Z" fill="#434344"/>
<path d="M122.618 98.8562C125.889 98.8562 128.541 95.1745 128.541 90.6329C128.541 86.0914 125.889 82.4097 122.618 82.4097C119.346 82.4097 116.694 86.0914 116.694 90.6329C116.694 95.1745 119.346 98.8562 122.618 98.8562Z" fill="#C99105"/>
<path d="M130.126 85.9946C130.613 86.8869 130.899 87.8747 130.964 88.889C131.028 89.9033 130.871 90.9195 130.501 91.8664C130.132 92.8133 129.56 93.6681 128.826 94.3708C128.091 95.0735 127.212 95.6072 126.249 95.9345C125.287 96.2618 124.265 96.3747 123.254 96.2654C122.243 96.1561 121.268 95.8273 120.398 95.3018C119.528 94.7764 118.783 94.0671 118.216 93.2237C117.649 92.3802 117.273 91.423 117.115 90.419C118.404 90.4164 119.69 90.3013 120.959 90.0752C124.289 89.4424 127.427 88.0455 130.126 85.9946Z" fill="white"/>
<path d="M126.11 90.5565C126.944 90.5565 127.62 89.8808 127.62 89.0473C127.62 88.2138 126.944 87.5381 126.11 87.5381C125.276 87.5381 124.601 88.2138 124.601 89.0473C124.601 89.8808 125.276 90.5565 126.11 90.5565Z" fill="#1A1A1A"/>
<path d="M124.125 80.898C125.409 80.8971 126.674 81.1987 127.819 81.7781C127.493 84.4293 125.933 86.929 123.359 87.9207C121.086 88.7985 118.219 88.4699 116.177 87.0933C116.623 85.3235 117.647 83.753 119.087 82.6308C120.526 81.5086 122.299 80.8988 124.125 80.898Z" fill="#595959"/>
<path d="M123.356 87.9194C125.939 86.9277 127.493 84.428 127.817 81.7769C129.301 82.528 130.523 83.7109 131.321 85.1697C128.149 87.5812 124.46 89.2235 120.545 89.9673C119.052 90.2329 117.54 90.368 116.024 90.371C115.958 89.9485 115.925 89.5216 115.925 89.0941C115.925 88.4192 116.008 87.7467 116.172 87.092C118.216 88.4674 121.084 88.7972 123.356 87.9194Z" fill="#434344"/>
<path d="M88.8681 71.9999C87.2492 72.1595 85.5306 72.5996 84.4835 73.8448C86.998 73.9821 89.5853 74.1381 91.8615 75.2155C92.9497 75.7307 96.1134 78.5262 97.3084 77.2845C101.925 72.4904 91.0257 71.7875 88.8681 71.9999Z" fill="#1E1D1D"/>
<path d="M129.524 73.0933C129.626 73.1646 129.723 73.243 129.814 73.328C129.981 73.4659 130.099 73.6553 130.147 73.8667C130.195 74.1742 129.995 74.4735 129.741 74.6542C129.487 74.8349 129.183 74.9265 128.899 75.052C127.889 75.498 127.138 76.3582 126.326 77.1128C125.622 77.7724 123.861 79.2253 122.899 78.2454C121.992 77.3171 121.237 75.9768 122.187 74.8678C123.222 73.6578 124.901 72.8657 126.445 72.5993C127.495 72.422 128.663 72.4971 129.524 73.0933Z" fill="#1E1D1D"/>
<path d="M75.6229 86.6848C75.4834 88.0147 75.7568 89.3554 76.4059 90.5247C76.6407 88.4287 78.3158 86.8256 79.8818 85.4126C78.8746 87.9522 78.1104 90.6327 78.1127 93.3636C78.1151 96.0945 78.9474 98.8982 80.7986 100.907C78.9742 100.177 77.3182 99.0828 75.932 97.6903C74.5458 96.2979 73.4588 94.637 72.7374 92.8097C73.6045 93.7 74.6363 94.4134 75.7755 94.9104C74.7307 94.1217 74.5699 92.4623 74.5781 91.2617C74.5887 89.5917 75.4574 88.2327 75.6229 86.6848Z" fill="#FFD878"/>
<path d="M112.448 67.7973C113.078 65.5237 113.171 63.1348 112.719 60.8192C117.885 66.8432 116.745 71.8614 117.374 73.2427C119.225 66.1625 116.99 49.9131 98.7288 44.4243C102.611 46.8982 105.185 48.9074 107.489 52.9797C107.019 52.4387 105.319 52.0174 104.592 51.7322C103.561 51.325 102.508 50.9271 101.43 50.6138C107.485 54.5511 111.083 61.6395 112.448 67.7973Z" fill="#5762C4"/>
</svg>
