<svg width="90" height="90" viewBox="0 0 128 128" fill="none" xmlns="http://www.w3.org/2000/svg">
<path d="M14.0511 94.2568C14.1441 94.2778 14.237 94.3006 14.3318 94.3182L13.4873 93.4961L13.3706 93.4628C12.6839 93.2768 11.9594 93.2808 11.2747 93.4742C10.8988 93.5915 10.5314 93.7344 10.175 93.9019L10.7012 94.4137C11.7167 94.0035 12.9585 94.0018 14.0511 94.2568Z" fill="#5B546B"/>
<path d="M34.2621 113.641L27.5798 107.167L22.8136 102.546L19.9758 99.7945L19.6031 99.4334L15.9796 95.9201L14.7519 94.723L14.3309 94.3181C14.2362 94.3006 14.1433 94.2778 14.0503 94.2568C12.9576 94.0018 11.7159 94.0035 10.7021 94.4172L12.2473 95.9149L16.2444 99.7901L23.8484 107.162L33.8455 116.854L37.6023 120.496H41.3337L37.5769 116.854L34.2621 113.641Z" fill="#736A82"/>
<path d="M61.0308 113.461L61.0299 113.462H67.3465H70.0256L70.0247 113.461H63.616H61.0308Z" fill="#8E7F6B"/>
<path d="M88.2071 7H37.6015L23.6213 20.5537C23.8037 21.1216 23.5704 21.8104 23.0898 22.1705C22.64 22.4913 22.3322 22.3414 22.0612 22.0671L6 37.6382V64.5825C6.31395 64.6816 6.5209 64.9471 6.69103 65.2836C7.05759 66.0934 6.81029 67.2055 6 67.549V79.3228C6.47267 79.4981 6.87694 79.761 7.04181 80.3604C7.12336 81.0142 6.82345 81.9729 6 82.0982V84.162C6.39901 84.0972 6.8024 84.148 7.04181 84.5669C7.21719 84.9174 7.30489 85.5309 6.95411 85.7062C6.6923 85.9831 6.36379 86.1882 6 86.3021L6 89.8574L10.1751 93.9053C10.5315 93.7378 10.8989 93.5949 11.2748 93.4777C11.9595 93.2842 12.6839 93.2803 13.3707 93.4663L13.4873 93.4996L9.73051 89.8574V37.6391L41.3329 7H88.2071Z" fill="#736A82"/>
<path d="M70.6789 113.461H70.0247L70.0255 113.462H71.5988V113.461H70.6789Z" fill="#8E7F6B"/>
<path d="M54.5212 113.461H50.4382H44.4689L44.4697 113.462H51.6808H54.1687H56.8487H58.2518H58.9147L58.9156 113.461H54.5212Z" fill="#8E7F6B"/>
<path d="M104.656 29.9436C104.217 29.8901 103.815 29.6868 103.406 29.5177C102.414 29.1237 101.367 28.8834 100.303 28.8052L101.95 30.3984L104.692 30.4299C104.816 30.4419 104.942 30.4204 105.055 30.3677C105.172 30.282 105.254 30.1579 105.288 30.0172L104.813 29.5553C104.767 29.6885 104.717 29.8174 104.656 29.9436Z" fill="#5B546B"/>
<path d="M92.7725 21.5012L99.6468 28.1659L100.306 28.8056C101.371 28.8838 102.418 29.1241 103.41 29.5181C103.818 29.6872 104.222 29.8905 104.659 29.944C104.717 29.8178 104.767 29.689 104.813 29.5575L103.377 28.1659L100.262 25.1459L97.0519 22.0331L96.503 21.5012L93.0645 18.1711L92.2033 17.3298L88.8052 14.0347H85.0712L89.3331 18.1667L92.7725 21.5012Z" fill="#736A82"/>
<path d="M111.711 36.2447L107.61 32.2695L105.288 30.019C105.254 30.1597 105.172 30.2839 105.055 30.3696C104.942 30.4223 104.816 30.4438 104.692 30.4318L101.95 30.4003L103.879 32.2713L110.105 38.3067C110.468 38.1244 110.929 38.0999 111.223 38.2971C111.646 38.5784 111.837 39.2549 111.675 39.8281L112.756 40.8797V70.9605C113.953 71.7492 113.951 73.3827 113.503 74.5763C113.408 74.9576 113.13 75.3379 112.756 75.6201V86.6209L95.5006 103.351C95.6848 104.293 95.277 105.271 94.386 105.687C93.9476 105.881 93.4819 105.862 93.0189 105.756L85.0712 113.461H88.8026L116.486 86.6209V40.8753L111.711 36.2447Z" fill="#736A82"/>
<path d="M61.0307 113.461H58.9155L58.9147 113.462H61.0299L61.0307 113.461Z" fill="#8E7F6B"/>
<path d="M116.828 31.1314L115.355 29.6977C115.229 29.7643 115.106 29.8239 114.996 29.88C114.031 30.4058 113.154 29.2665 112.453 28.5654C111.907 28.0195 112.074 27.3482 112.229 26.6681L108.579 23.1285L107.1 21.6948C107.038 22.1552 106.904 22.603 106.703 23.0216C106.39 23.7061 105.986 24.3528 105.773 25.074C105.302 26.6699 105.98 27.945 105.298 29.9974C105.298 30.0035 105.298 30.0097 105.291 30.0167L107.613 32.2671L111.714 36.2423L116.488 40.8729V86.6186L88.8017 113.462H71.5952C71.7578 113.701 71.8821 113.965 71.9635 114.242C72.06 114.576 72.1003 114.943 72.2985 115.224C72.6493 115.727 73.3377 115.82 73.9454 115.891C78.5423 116.434 82.8174 118.328 86.9417 120.496H91.9403L93.7538 118.738C93.6924 117.728 93.7731 116.51 94.7377 116.028C95.4559 115.669 96.3364 115.352 97.13 115.464L101.865 110.874C102.414 109.57 102.624 108.06 103.247 106.768C103.676 105.877 104.299 105.103 104.901 104.314C105.164 103.963 105.427 103.613 105.674 103.254C106.237 102.418 106.685 101.509 107.005 100.553C107.457 99.196 107.959 97.4485 109.381 97.2899C110.093 97.2102 110.784 97.6072 111.496 97.6019C111.617 97.6005 111.739 97.5894 111.858 97.5686C112.334 97.488 112.793 97.2847 113.272 97.1997C114.061 97.0586 114.839 97.2443 115.577 97.58L123.543 89.8567V83.7108C123.208 83.3664 122.936 82.9773 122.889 82.4638C122.812 80.8522 122.265 78.7025 123.543 77.5457V66.2907C122.446 65.5379 121.994 64.1655 122.977 63.184C123.102 63.0587 123.307 63.0333 123.543 63.0403V37.6392L116.828 31.1314Z" fill="#978BA5"/>
<path d="M104.84 25.7266C104.859 26.4276 105.046 27.1182 105.074 27.8202C105.097 28.4105 105.008 28.9999 104.811 29.5571L105.286 30.0189C105.286 30.0119 105.286 30.0058 105.293 29.9997C105.976 27.9472 105.293 26.6695 105.769 25.0763C105.982 24.3551 106.383 23.7083 106.698 23.0239C106.9 22.6052 107.034 22.1575 107.096 21.6971L105.927 20.564L105.225 23.3201C105.022 24.1097 104.817 24.9116 104.84 25.7266Z" fill="#736A82"/>
<path d="M49.7647 120.496C50.2111 120.228 50.6416 119.938 50.96 119.536C51.3107 119.098 51.5116 118.558 51.8825 118.14C52.5183 117.424 53.5241 117.196 54.3774 116.762C56.0497 115.911 57.2073 114.215 58.9147 113.462H44.4688L41.1777 110.272L39.38 108.528L32.4214 101.78L27.9315 97.4275L25.7593 95.3243L24.721 94.3174L22.2585 91.9284L21.4693 91.1616C20.4827 91.4193 19.4251 91.577 18.4491 91.8504C17.3863 92.1475 16.4207 92.5822 15.7516 93.4331C15.4736 93.7837 15.2202 94.2289 14.7809 94.3253C14.6328 94.3527 14.4807 94.3503 14.3336 94.3182L14.7519 94.7231L15.9796 95.9132L19.6032 99.4265L19.9759 99.7876L22.8136 102.539L27.5798 107.167L34.2621 113.645L37.5761 116.858L41.3329 120.5H49.7647V120.496Z" fill="#978BA5"/>
<path d="M113.157 97.8944L111.216 98.188L109.638 98.4272C109.42 98.4458 109.207 98.5053 109.011 98.6025C108.568 98.8601 108.444 99.4271 108.309 99.9223C108.15 100.509 107.935 101.078 107.667 101.624C106.44 104.189 104.282 106.404 103.646 109.141L115.202 97.9365C115.048 97.9032 114.896 97.8725 114.751 97.8418C114.23 97.734 113.688 97.8138 113.157 97.8944Z" fill="#9686A3"/>
<path d="M78.3696 117.41C77.0884 116.962 75.7055 116.924 74.3725 116.665C73.0396 116.406 71.6619 115.853 70.9332 114.708C70.7429 114.41 70.6026 114.079 70.3807 113.804C70.2783 113.676 70.1605 113.561 70.0299 113.462H61.0299C59.682 113.924 58.349 114.407 57.2432 115.282C56.1102 116.179 55.2333 117.473 53.8696 117.953C53.553 118.065 53.2128 118.129 52.9348 118.319C52.684 118.494 52.5077 118.746 52.3367 118.997L51.3142 120.496H83.5699L81.1373 118.91C80.2559 118.336 79.3632 117.757 78.3696 117.41Z" fill="#978BA5"/>
<path d="M18.2526 91.1861C18.1071 91.2063 17.958 91.2185 17.8142 91.2334C17.6037 91.2481 17.396 91.2893 17.1959 91.3561C16.005 91.7943 15.5762 93.6399 14.3073 93.6662C14.0284 93.6723 13.7601 93.5785 13.4908 93.4997L14.331 94.3182C14.4781 94.3503 14.6301 94.3527 14.7782 94.3252C15.2167 94.2288 15.471 93.7862 15.749 93.4331C16.4181 92.5821 17.3836 92.1475 18.4464 91.8504C19.4225 91.5769 20.4801 91.4192 21.4666 91.1616L20.4441 90.166C19.7908 90.6813 19.0717 91.0704 18.2526 91.1861Z" fill="#736A82"/>
<path d="M113.268 97.2004C112.79 97.2881 112.33 97.4887 111.855 97.5694C111.735 97.5901 111.614 97.6013 111.493 97.6027C110.776 97.6079 110.09 97.2109 109.377 97.2907C107.956 97.4493 107.453 99.1968 107.002 100.553C106.681 101.51 106.234 102.418 105.671 103.255C105.428 103.618 105.164 103.968 104.897 104.315C104.293 105.103 103.669 105.877 103.243 106.768C102.621 108.061 102.41 109.573 101.862 110.875L103.648 109.144C104.284 106.407 106.437 104.193 107.669 101.628C107.937 101.082 108.151 100.512 108.311 99.9259C108.442 99.4307 108.565 98.8637 109.013 98.6061C109.209 98.5089 109.421 98.4494 109.64 98.4308L111.218 98.1916L113.159 97.898C113.685 97.8174 114.231 97.7376 114.755 97.848C114.9 97.8787 115.051 97.9094 115.206 97.9427L115.576 97.5843C114.836 97.2451 114.061 97.0593 113.268 97.2004Z" fill="#736A82"/>
<path d="M70.3807 113.804C70.6025 114.079 70.7429 114.41 70.9332 114.708C71.6619 115.853 73.0378 116.406 74.3725 116.665C75.7072 116.924 77.091 116.962 78.3696 117.41C79.3632 117.76 80.2559 118.336 81.1373 118.911L83.5699 120.496H86.9417C82.8201 118.327 78.5424 116.434 73.9454 115.891C73.3377 115.819 72.6476 115.726 72.2986 115.224C72.1004 114.939 72.06 114.576 71.9636 114.242C71.8821 113.964 71.7579 113.701 71.5952 113.462H70.0255C70.1577 113.561 70.277 113.675 70.3807 113.804Z" fill="#736A82"/>
<path d="M52.9348 118.319C53.2128 118.13 53.5487 118.065 53.8696 117.953C55.2333 117.474 56.1102 116.179 57.2432 115.282C58.349 114.406 59.682 113.924 61.0298 113.462H58.9147C57.2073 114.215 56.0497 115.91 54.3774 116.761C53.5241 117.2 52.5182 117.424 51.8825 118.14C51.5115 118.558 51.3089 119.104 50.9599 119.536C50.6381 119.937 50.211 120.227 49.7646 120.496H51.3142L52.3367 118.997C52.5077 118.746 52.684 118.49 52.9348 118.319Z" fill="#736A82"/>
<path d="M105.928 20.5642L105.379 20.0322L102.169 16.9194L100.729 15.5234L97.3177 12.2152L96.8038 11.7174L91.9403 7H41.3328L9.73047 37.6391V50.0973C9.99578 50.0155 10.2805 50.0223 10.5416 50.1166C11.5229 50.4303 12.798 52.3285 12.869 53.2907C12.886 53.7173 12.8266 54.1435 12.6937 54.5492C12.4893 55.2362 12.1728 55.9312 11.5861 56.3387C11.0362 56.7234 10.2023 56.7567 9.73047 56.3019V89.8574L13.4873 93.4961C13.7565 93.5758 14.0249 93.6713 14.3037 93.6626C15.5727 93.6363 16.0015 91.7898 17.1924 91.3525C17.3924 91.2857 17.6002 91.2445 17.8106 91.2298C17.9579 91.2149 18.107 91.2026 18.2491 91.1825C19.0681 91.0668 19.7872 90.6777 20.4414 90.1659L19.8662 89.6086L16.7863 86.6211V83.3006C16.5909 83.1503 16.437 82.9527 16.3391 82.7266C16.0234 81.9072 16.1637 80.9966 16.7863 80.4857V40.8746L19.9372 37.8196C19.7389 37.2992 19.7082 36.73 19.8495 36.1913C20.1941 34.7445 21.677 34.4894 22.8916 34.9574L44.4696 14.0345H70.0825C70.4604 13.6699 70.7411 13.464 71.3216 13.3194C72.1222 13.1345 72.6203 13.5551 73.1193 14.0345H76.6131C76.8161 13.6618 77.1486 13.3762 77.5479 13.2317C78.2757 12.9005 79.3018 13.3194 79.5377 14.0345H88.8017L92.2033 17.3296L93.068 18.1674L96.5065 21.4975L97.0555 22.0295L100.266 25.1423L103.381 28.1622L104.816 29.5538C105.013 28.9966 105.102 28.4073 105.079 27.8169C105.051 27.1158 104.865 26.4261 104.845 25.7233C104.823 24.9083 105.027 24.1064 105.229 23.3168L105.928 20.5642Z" fill="#978BA5"/>
<path d="M7.91079 52.7946C7.66612 53.2328 7.41532 53.699 7.39515 54.2029C7.37498 54.7068 7.66612 55.2624 8.15633 55.3746C8.45274 55.4394 8.78335 55.3395 9.05345 55.4771C9.32354 55.6147 9.44193 55.9617 9.63924 56.2089C9.66667 56.244 9.69594 56.2776 9.72694 56.3096V50.0972C8.83421 50.3951 8.45537 51.8131 7.91079 52.7946Z" fill="#5B546B"/>
<path d="M11.5861 56.3387C12.1728 55.9277 12.4911 55.2328 12.6919 54.5457C12.8249 54.14 12.8843 53.7138 12.8673 53.2873C12.7963 52.3233 11.5212 50.4269 10.5399 50.1131C10.2788 50.0189 9.99407 50.0121 9.72876 50.0938V56.3019C10.2023 56.7603 11.0363 56.727 11.5861 56.3387Z" fill="#5B546B"/>
<path d="M13.5478 69.811C13.3417 70.0152 13.1884 70.2663 13.1008 70.5428C13.0133 70.8193 12.9944 71.1128 13.0455 71.3983C13.0967 71.6837 13.2164 71.9525 13.3945 72.1814C13.5726 72.4104 13.8037 72.5927 14.0679 72.7127C14.1498 72.7581 14.2443 72.7757 14.3371 72.7626C14.4765 72.7302 14.5563 72.5873 14.6054 72.4506C14.7542 72.0198 14.7676 71.5539 14.6438 71.1153C14.5199 70.6766 14.2648 70.2864 13.9127 69.9968" fill="#736A82"/>
<path d="M34.9435 111.663C35.1829 111.107 35.9274 110.894 36.4913 111.114C37.0552 111.334 37.4366 111.883 37.6164 112.461C37.7646 112.94 37.719 113.592 37.2525 113.781C36.9096 113.919 36.5299 113.725 36.2107 113.536C35.6143 113.186 34.9514 112.731 34.8865 112.041" fill="#5B546B"/>
<path d="M32.4039 105.091C31.9303 105.82 32.3898 106.958 33.2361 107.154C33.3756 107.195 33.5248 107.188 33.6596 107.133C33.8008 107.048 33.9083 106.917 33.9639 106.762C34.1683 106.298 34.2016 105.739 33.956 105.297C33.7105 104.856 33.1484 104.58 32.6704 104.748" fill="#736A82"/>
<path d="M37.1139 12.5725C36.8956 12.9888 36.6754 13.4287 36.6842 13.8984C36.693 14.3682 37.0403 14.8624 37.5103 14.8712C37.9803 14.88 38.3197 14.4269 38.5574 14.0185C38.7766 13.6408 38.9906 13.235 38.9897 12.7986C38.9888 12.3622 38.6977 11.8942 38.2627 11.8495C37.9119 11.8127 37.5945 12.0476 37.3182 12.2702" fill="#736A82"/>
<path d="M47.7424 11.2066C47.2695 11.0725 46.7693 11.0673 46.2937 11.1917C45.9499 11.2793 45.5825 11.494 45.5299 11.8455C45.4887 12.1268 45.6755 12.4019 45.9193 12.5465C46.163 12.6911 46.4533 12.7332 46.7357 12.763C47.5671 12.8508 48.4048 12.8628 49.2385 12.7989C49.4042 12.7867 49.5796 12.7674 49.7103 12.664C50.061 12.3888 49.7848 11.7876 49.3823 11.5983C48.9798 11.409 48.5001 11.4231 48.1099 11.204" fill="#736A82"/>
<path d="M97.3159 19.3968C97.365 19.9288 97.5257 20.4445 97.7877 20.9102C97.8973 21.1048 98.0657 21.3116 98.2884 21.3002C98.5638 21.2853 98.6971 20.9646 98.7672 20.6982C98.904 20.1794 99.0382 19.6115 98.8199 19.1207C98.6015 18.63 97.8622 18.3627 97.5176 18.7702" fill="#736A82"/>
</svg>
