<svg width="90" height="90" viewBox="0 0 128 128" fill="none" xmlns="http://www.w3.org/2000/svg">
<path d="M110.005 29.3292L106.846 26.2589L102.377 21.9236L99.4204 19.0559L96.4502 16.1759L95.1191 14.8846L91.9603 11.823L91.4804 11.3651L86.9835 7H40.177L10.9476 35.3505V83.6705L15.5919 88.1751L16.7273 89.276L20.0791 92.5306L20.4231 92.8648L23.0484 95.4088L27.4567 99.6844L33.6374 105.679L36.7023 108.652L40.177 112.023H86.9835L116.213 83.6705V35.3505L110.005 29.3292ZM111.409 40.928V81.4669L84.846 107.231H42.3118L39.153 104.168L36.368 101.467L30.7524 96.0185L26.746 92.1332L24.3602 89.819L24.0469 89.5155L21.0005 86.5654L19.9686 85.5601L15.7481 81.4669V37.5542L42.3118 11.7897H84.8486L88.9358 15.7566L89.3745 16.1759L92.2429 18.9576L93.4529 20.1314L96.151 22.7482L98.8386 25.3553L102.899 29.2941L105.774 32.082L111.416 37.5542L111.409 40.928Z" fill="#A37416"/>
<path d="M23.4555 86.5655L22.4254 85.5602L18.2049 81.467V47.6364C16.8993 45.6652 15.9464 43.4344 15.1102 41.2606C14.9461 40.7737 14.1774 40.3351 13.4026 39.8491V83.6706L18.047 88.1752L19.1789 89.2762L20.0993 90.1622C22.0007 90.0613 24.2093 89.763 25.507 88.5463L23.4555 86.5655Z" fill="#E0AB27"/>
<path d="M34.9369 97.6969L33.2066 96.0187L29.2011 92.1334L26.8126 89.8193L26.4994 89.5157L25.5044 88.5508C24.2066 89.7675 21.9946 90.0658 20.0967 90.1667L22.5342 92.5308L22.8782 92.865L25.5035 95.409L29.9118 99.6847L34.8746 104.499C34.8623 102.21 33.9875 99.5276 34.9369 97.6969Z" fill="#A37416"/>
<path d="M64.1199 107.231H44.7669L41.6081 104.168L38.8231 101.467L34.936 97.6948C33.9867 99.5256 34.8615 102.208 34.8738 104.495L36.0916 105.676L39.1566 108.649L42.6312 112.019H63.1573C63.1798 110.378 63.5062 108.754 64.1199 107.231Z" fill="#E0AB27"/>
<path d="M70.9911 107.231H69.8302C69.4477 108.848 68.6334 110.721 69.5266 112.021H73.7621C73.2356 111.786 72.703 111.568 72.1599 111.377C70.3409 110.628 70.0356 108.746 70.9911 107.231Z" fill="#E0AB27"/>
<path d="M91.3601 103.296L87.3037 107.231H70.9911C70.0355 108.745 70.3409 110.628 72.1598 111.377C72.703 111.568 73.2365 111.786 73.7621 112.021H89.4385L91.7576 109.772C91.39 109.405 91.1091 108.96 90.9354 108.471C90.4168 106.707 91.4952 105.034 91.3601 103.296Z" fill="#A37416"/>
<path d="M89.7254 10.9853C89.9071 10.5632 90.177 10.1848 90.5171 9.87567C90.8571 9.56654 91.2595 9.33379 91.6971 9.19309L89.4385 7H42.6321L16.8721 31.9855C16.9703 32.0083 17.0695 32.0319 17.1678 32.0565C18.133 32.4197 18.985 33.389 19.9537 33.389C20.9829 33.4425 21.9639 33.2066 22.951 32.9504L44.7669 11.7897H87.3037L89.5499 13.9705C89.3319 12.9783 89.3927 11.9451 89.7254 10.9853Z" fill="#E0AB27"/>
<path d="M99.4949 16.7538L98.9009 16.1783L97.5698 14.887L94.411 11.8255L93.9372 11.3649L91.697 9.19287C91.2595 9.33357 90.8571 9.56632 90.5171 9.87545C90.177 10.1846 89.907 10.5629 89.7254 10.9851C89.3931 11.9441 89.3324 12.9763 89.5499 13.9677L91.3926 15.7537L91.8243 16.173L94.6918 18.9548L95.9018 20.1285L98.0954 22.2576C98.8789 20.7785 98.7438 18.982 99.1694 17.2792C99.2216 17.0749 99.3352 16.8915 99.4949 16.7538Z" fill="#A37416"/>
<path d="M112.459 29.3293L109.3 26.259L104.831 21.9237L101.874 19.056L99.4984 16.7515C99.3395 16.8898 99.2268 17.0735 99.1755 17.2778C98.7499 18.9805 98.885 20.7771 98.1015 22.2561L98.6051 22.7439L101.293 25.351L105.354 29.2898L108.228 32.0777L113.87 37.5499V81.467L91.3636 103.296C91.4987 105.034 90.4203 106.708 90.9389 108.472C91.1126 108.961 91.3935 109.406 91.7611 109.773L118.668 83.6706V35.3506L112.459 29.3293Z" fill="#E0AB27"/>
<path d="M69.8302 107.231H64.1198C63.505 108.755 63.1777 110.379 63.1546 112.021H69.5266C68.6334 110.721 69.4476 108.847 69.8302 107.231Z" fill="#A37416"/>
<path d="M15.1083 41.2603C15.9445 43.4341 16.8974 45.6649 18.2031 47.636V37.5539L22.9518 32.9493C21.9647 33.2064 20.9837 33.4423 19.9544 33.388C18.9893 33.388 18.1373 32.4186 17.1686 32.0554C17.0703 32.0309 16.9711 32.0072 16.8729 31.9844L13.4034 35.3495V39.8479C14.1773 40.3348 14.946 40.7734 15.1083 41.2603Z" fill="#A37416"/>
<path d="M99.0904 86.5309C98.1542 86.5984 97.2838 87.0011 96.6064 87.3274C97.3566 91.2355 100.094 94.7524 101.655 94.8357C100.4 95.7831 100.063 100.209 101.582 103.871C102.328 103.77 103.277 103.628 104.095 103.169C104.764 104.101 106.369 105.673 108.834 106.349C111.089 104.187 111.518 101.014 111.327 98.4911C111.313 98.3659 111.348 98.24 111.425 98.1402C111.495 98.0713 111.582 98.0215 111.676 97.9955C113.588 97.2797 116.966 94.0313 116.475 90.3486L116.453 90.3556C114.812 87.0572 110.244 86.2151 108.265 86.666C108.171 86.6961 108.071 86.7022 107.975 86.6835C107.857 86.6424 107.76 86.5584 107.703 86.4484C106.474 84.2369 104.368 81.8236 101.297 81.2578C99.6099 83.1895 99.1361 85.3843 99.0904 86.5309Z" fill="#445E99"/>
<path d="M106.678 98.2474C106.132 97.3876 105.477 96.6026 104.728 95.9122C104.344 95.5606 103.929 95.2433 103.49 94.9639L103.371 94.8911C107.251 93.294 111.204 91.8687 115.23 90.6155C111.14 91.4828 107.086 92.5305 103.068 93.7586C103.08 93.7323 103.093 93.706 103.105 93.6797C103.318 93.2042 103.489 92.7111 103.616 92.2059C103.862 91.2178 103.977 90.2018 103.959 89.1838C103.943 88.1855 103.836 87.1908 103.64 86.2117C103.447 85.2433 103.193 84.2878 102.88 83.3511C103.094 84.3084 103.247 85.2782 103.339 86.2547C103.431 87.2208 103.436 88.1932 103.353 89.1601C103.272 90.1086 103.068 91.0425 102.747 91.9383C102.588 92.3735 102.391 92.7941 102.16 93.1954C101.935 93.585 101.667 93.9483 101.362 94.2788C101.348 94.2937 101.335 94.3104 101.322 94.3271C101.265 94.4222 101.231 94.5284 101.22 94.6384C101.209 94.7484 101.222 94.8594 101.259 94.9637C101.295 95.068 101.354 95.163 101.431 95.2422C101.508 95.3213 101.602 95.3827 101.705 95.4219C102.142 95.53 102.565 95.6863 102.967 95.8877C103.382 96.0953 103.777 96.3386 104.15 96.6149C104.911 97.1859 105.595 97.8535 106.185 98.601C106.786 99.3624 107.317 100.177 107.772 101.034C108.233 101.9 108.639 102.794 108.986 103.712C108.733 102.757 108.419 101.819 108.046 100.905C107.671 99.9794 107.213 99.0901 106.678 98.2474Z" fill="#303F54"/>
<path d="M112.246 95.7763C113.173 95.2193 113.846 94.335 114.496 93.471C114.807 93.056 115.134 92.5867 115.084 92.0674C113.219 92.8359 111.277 93.4046 109.292 93.764C108.071 93.9841 107.391 95.2886 108.705 96.0035C109.683 96.543 111.345 96.3202 112.246 95.7763Z" fill="#657DC1"/>
<path d="M100.391 91.3079C100.558 91.3956 100.793 91.4641 100.917 91.3176C100.969 91.237 100.993 91.1413 100.985 91.0456C100.992 90.4123 100.918 89.7631 100.634 89.1938C100.35 88.6244 99.8441 88.1411 99.2238 88.0192C98.9775 87.9597 98.7182 87.9866 98.4894 88.0955C97.0582 88.856 99.7213 90.9518 100.391 91.3079Z" fill="#657DC1"/>
<path d="M30.5575 106.941C31.4069 107.337 32.3633 107.41 33.1144 107.456C34.3648 103.677 33.6891 99.2719 32.3668 98.4394C33.9243 98.2236 36.3768 94.5235 36.8374 90.5829C36.1355 90.3066 35.2396 89.9688 34.3016 89.9688C34.1717 88.8284 33.5373 86.6748 31.7114 84.8809C28.6886 85.6704 26.767 88.231 25.7026 90.5268C25.6542 90.6412 25.5633 90.7324 25.4491 90.7812C25.3536 90.8062 25.2532 90.8062 25.1577 90.7812C23.1396 90.475 18.6076 91.6645 17.2397 95.1191L17.2634 95.1244C17.0879 98.8044 20.6661 101.766 22.6158 102.336C22.7129 102.355 22.8034 102.399 22.879 102.462C22.9618 102.555 23.0055 102.676 23.001 102.8C22.9966 105.33 23.6582 108.463 26.065 110.454C28.4736 109.605 29.9583 107.92 30.5575 106.941Z" fill="#657DC1"/>
<path d="M32.609 97.9036C32.2796 97.5965 31.9853 97.2537 31.7316 96.8816C31.4707 96.4983 31.2438 96.0929 31.0533 95.6702C30.6662 94.8007 30.3945 93.8844 30.2452 92.9446C30.091 91.9877 30.0241 91.0187 30.0451 90.0497C30.0654 89.0691 30.1474 88.0908 30.2908 87.1206C30.0469 88.0774 29.8638 89.0487 29.7424 90.0286C29.6189 91.0178 29.5852 92.016 29.6415 93.0113C29.6988 94.0281 29.8884 95.0331 30.2057 96.0009C30.3699 96.4952 30.5769 96.9742 30.8243 97.4325L30.8927 97.5553C26.7278 97.06 22.5813 96.3778 18.4532 95.5087C22.4456 96.7462 26.4961 97.8068 30.6049 98.6905L30.5347 98.7422C30.1167 99.0531 29.7268 99.4001 29.3695 99.7791C28.6753 100.523 28.0812 101.354 27.6023 102.252C27.1303 103.132 26.7389 104.052 26.4327 105.002C26.1289 105.942 25.8847 106.9 25.7018 107.87C25.9812 106.93 26.32 106.009 26.7161 105.112C27.1063 104.223 27.5762 103.372 28.12 102.568C28.653 101.779 29.2862 101.063 30.0039 100.438C30.3548 100.135 30.7315 99.8632 31.1296 99.6256C31.517 99.3946 31.929 99.2078 32.3581 99.0686C32.3774 99.0624 32.3975 99.0545 32.4168 99.0466C32.5119 98.9909 32.5937 98.9152 32.6565 98.8247C32.7193 98.7342 32.7617 98.6311 32.7807 98.5226C32.7996 98.414 32.7947 98.3027 32.7663 98.1963C32.7378 98.0898 32.6866 97.9909 32.616 97.9062L32.609 97.9036Z" fill="#4E5F7A"/>
<path d="M23.5784 92.4554C22.4982 92.4905 21.4786 92.9344 20.4906 93.373C20.0159 93.5826 19.5018 93.8327 19.2947 94.309C21.2989 94.5472 23.2721 94.9971 25.1815 95.6512C26.3555 96.0538 27.5848 95.2468 26.7863 93.9844C26.1905 93.037 24.6295 92.4221 23.5784 92.4554Z" fill="#86A3E0"/>
<path d="M31.7508 102.137C31.6473 101.978 31.4753 101.805 31.2989 101.874C31.2139 101.919 31.1465 101.991 31.1077 102.079C30.7918 102.628 30.5399 103.231 30.5066 103.864C30.4733 104.496 30.6821 105.165 31.1656 105.578C31.3517 105.749 31.5912 105.852 31.8438 105.868C33.4654 105.902 32.165 102.772 31.7508 102.137Z" fill="#86A3E0"/>
<path d="M41.2264 117.473C41.5861 118.339 42.2434 119.037 42.7681 119.578C46.2392 117.632 48.711 113.924 48.296 112.417C49.592 113.308 53.8985 112.23 56.8949 109.63C56.5641 108.953 56.1289 108.099 55.4357 107.467C56.1087 106.538 57.0932 104.52 56.9546 101.964C54.1898 100.51 51.0432 101.105 48.7066 102.083C48.5937 102.134 48.4652 102.141 48.3477 102.1C48.26 102.055 48.1851 101.988 48.1301 101.906C46.8473 100.32 42.697 98.143 39.3557 99.7711L39.3688 99.7904C36.7576 102.391 37.4016 106.989 38.4554 108.723C38.5138 108.803 38.551 108.896 38.5633 108.994C38.5619 109.117 38.5129 109.236 38.4265 109.325C36.7163 111.191 35.0922 113.949 35.5256 117.045C37.8912 118.036 40.1243 117.795 41.2264 117.473Z" fill="#445E99"/>
<path d="M52.0366 104.435C51.2771 105.083 50.5778 105.798 49.9474 106.572C49.3038 107.362 48.7658 108.232 48.3469 109.16C48.1348 109.636 47.9648 110.129 47.8389 110.634C47.8275 110.679 47.8169 110.722 47.8073 110.769C45.0656 107.595 42.4625 104.297 39.998 100.873C42.1109 104.48 44.387 107.994 46.8263 111.416L46.7386 111.406C46.2201 111.354 45.6981 111.347 45.1785 111.386C44.1632 111.466 43.1627 111.678 42.2022 112.016C41.2597 112.347 40.3493 112.763 39.4821 113.259C38.6239 113.748 37.7975 114.29 37.0077 114.883C37.85 114.377 38.7237 113.925 39.6234 113.53C40.5109 113.137 41.4322 112.825 42.3759 112.598C43.3015 112.375 44.2521 112.274 45.2039 112.296C45.6672 112.309 46.1284 112.362 46.5824 112.455C47.0232 112.545 47.4526 112.684 47.8626 112.869C47.8813 112.878 47.9007 112.886 47.9205 112.892C48.0285 112.915 48.1403 112.914 48.2481 112.89C48.3558 112.865 48.4568 112.817 48.5441 112.749C48.6313 112.682 48.7027 112.596 48.7532 112.497C48.8038 112.399 48.8322 112.291 48.8365 112.181C48.8006 111.732 48.8151 111.282 48.8795 110.837C48.9454 110.378 49.0514 109.925 49.1963 109.485C49.4972 108.582 49.9146 107.722 50.4379 106.927C50.9702 106.115 51.5752 105.354 52.2454 104.652C52.9215 103.942 53.6419 103.274 54.4022 102.655C53.5768 103.197 52.7867 103.792 52.0366 104.435Z" fill="#303F54"/>
<path d="M45.8435 102.071C45.0222 101.37 43.9701 101.01 42.9479 100.668C42.4565 100.503 41.9073 100.341 41.4343 100.553C42.7524 102.08 43.9045 103.743 44.8713 105.514C45.4671 106.602 46.9201 106.836 47.1833 105.363C47.3799 104.262 46.6428 102.755 45.8435 102.071Z" fill="#657DC1"/>
<path d="M45.3477 114.73C45.3793 114.543 45.3688 114.299 45.1924 114.231C45.0996 114.206 45.0013 114.214 44.9134 114.253C44.3088 114.446 43.7166 114.721 43.2647 115.166C42.8128 115.611 42.5188 116.247 42.5952 116.876C42.617 117.128 42.7248 117.365 42.9005 117.548C44.0754 118.666 45.224 115.476 45.3477 114.73Z" fill="#657DC1"/>
<path d="M18.204 64.6475C18.9059 64.8562 19.507 65.3098 19.9703 65.673C18.7419 68.5371 16.0595 70.7697 14.8522 70.5723C15.6533 71.5066 15.1707 74.9489 13.3947 77.4981C12.841 77.2972 12.14 77.0288 11.5898 76.5419C10.9221 77.1428 9.43218 78.0771 7.43073 78.1815C6.06805 76.1498 6.26987 73.6514 6.83845 71.7531C6.86875 71.6608 6.86279 71.5604 6.82178 71.4724C6.77943 71.4078 6.72149 71.355 6.65331 71.3189C5.31521 70.4521 3.27076 67.402 4.26227 64.6668L4.27807 64.6755C6.08648 62.4272 9.71822 62.5474 11.159 63.2228C11.2257 63.2616 11.3012 63.2831 11.3783 63.2851C11.4751 63.2736 11.5637 63.2252 11.6258 63.15C12.9367 61.664 14.9504 60.1674 17.395 60.2551C18.3654 62.0026 18.3611 63.7632 18.204 64.6475Z" fill="#445E99"/>
<path d="M15.1918 70.2383C15.1847 70.2234 15.1769 70.2085 15.169 70.1953C14.9907 69.8906 14.847 69.567 14.7408 69.2304C14.63 68.8846 14.5501 68.5297 14.5021 68.1698C14.4051 67.4308 14.4051 66.6823 14.5021 65.9434C14.6002 65.1898 14.7664 64.4466 14.9987 63.7231C15.2326 62.9916 15.5122 62.2755 15.8358 61.5791C15.4397 62.2434 15.0857 62.9319 14.7759 63.6406C14.4618 64.3564 14.2137 65.0992 14.0344 65.86C13.8504 66.6356 13.7684 67.4318 13.7905 68.2285C13.8036 68.6364 13.8521 69.0423 13.9353 69.4418C13.9405 69.4646 13.9467 69.4874 13.9519 69.5102C11.0856 67.8978 8.1608 66.4176 5.17749 65.0696C8.04381 66.6989 10.8294 68.4508 13.5343 70.3251C13.5001 70.3365 13.4641 70.3471 13.4299 70.3594C13.0471 70.5001 12.6772 70.6736 12.3243 70.8778C11.636 71.2808 11.0033 71.7718 10.4422 72.3384C9.89106 72.8933 9.39177 73.4973 8.9505 74.1429C8.51232 74.78 8.11548 75.4445 7.76244 76.1324C8.18186 75.4901 8.64139 74.8748 9.13828 74.2903C9.62818 73.7108 10.1694 73.1767 10.7554 72.6946C11.3316 72.2212 11.9669 71.8249 12.6454 71.5156C12.9763 71.3667 13.3195 71.2469 13.6712 71.1576C14.0125 71.0707 14.3624 71.0219 14.7144 71.012C14.8001 70.9994 14.882 70.9682 14.9544 70.9205C15.0267 70.8729 15.0877 70.81 15.1331 70.7362C15.1785 70.6625 15.2072 70.5797 15.2172 70.4937C15.2272 70.4076 15.2182 70.3205 15.1909 70.2383H15.1918Z" fill="#303F54"/>
<path d="M6.59194 69.5213C5.97773 68.9406 5.61008 68.1511 5.25734 67.3809C5.08887 67.0116 4.91602 66.5984 5.04237 66.2124C6.34109 67.1126 7.73174 67.8725 9.19093 68.4792C10.0886 68.852 10.3904 69.9635 9.26551 70.2907C8.4258 70.5354 7.19123 70.0863 6.59194 69.5213Z" fill="#657DC1"/>
<path d="M16.4096 68.0845C16.2666 68.124 16.0762 68.1363 16.0077 68.0047C15.9811 67.9344 15.979 67.8571 16.0016 67.7854C16.1016 67.2994 16.2648 66.8152 16.5763 66.4265C16.8878 66.0379 17.3555 65.7555 17.8521 65.7634C18.0503 65.7594 18.2439 65.8235 18.4005 65.9449C19.3692 66.7669 16.9852 67.9257 16.4096 68.0845Z" fill="#657DC1"/>
<path d="M72.5828 106.866C71.8931 107.502 71.4632 108.358 71.1368 109.038C74.1596 111.627 78.4924 112.672 79.7647 111.765C79.3742 113.288 81.8706 116.96 85.3409 118.88C85.8621 118.337 86.5149 117.634 86.8702 116.767C87.9741 117.079 90.2045 117.309 92.5605 116.3C92.9764 113.204 91.332 110.455 89.6131 108.601C89.526 108.512 89.4761 108.393 89.4736 108.269C89.4862 108.171 89.523 108.078 89.5807 107.998C90.6292 106.249 91.2478 101.604 88.569 99.0282L88.5558 99.0476C85.2154 97.4905 81.1177 99.6765 79.8516 101.262C79.7975 101.344 79.7232 101.411 79.6357 101.456C79.5183 101.498 79.3896 101.492 79.2759 101.442C76.9358 100.477 73.7866 99.9011 71.028 101.373C70.9069 103.929 71.9037 105.942 72.5828 106.866Z" fill="#657DC1"/>
<path d="M88.547 112.532C87.6769 112.041 86.7642 111.63 85.8199 111.304C84.8565 110.97 83.8535 110.764 82.8366 110.69C82.317 110.654 81.7953 110.663 81.2774 110.718L81.1396 110.735C83.1782 107.07 85.3815 103.493 87.7494 100.004C85.0902 103.229 82.5725 106.574 80.1964 110.04L80.1753 109.953C80.0461 109.448 79.8729 108.956 79.6576 108.482C79.2333 107.556 78.6903 106.69 78.0423 105.904C77.406 105.134 76.7011 104.422 75.9364 103.779C75.182 103.141 74.3881 102.553 73.5594 102.015C74.3237 102.63 75.0482 103.293 75.7284 104C76.4025 104.698 77.0119 105.455 77.5491 106.263C78.0778 107.055 78.5005 107.912 78.8065 108.814C78.954 109.253 79.0626 109.705 79.1312 110.163C79.1982 110.608 79.2153 111.059 79.1821 111.507C79.1821 111.527 79.1821 111.549 79.1821 111.57C79.1977 111.679 79.237 111.784 79.2972 111.876C79.3573 111.969 79.4369 112.047 79.5304 112.105C79.6239 112.164 79.729 112.201 79.8384 112.215C79.9478 112.228 80.0589 112.218 80.1639 112.184C80.5728 111.997 81.0013 111.855 81.4415 111.762C81.8949 111.666 82.3559 111.61 82.8191 111.595C83.7708 111.566 84.7221 111.662 85.6488 111.881C86.595 112.104 87.5189 112.413 88.4093 112.803C89.3092 113.193 90.1834 113.64 91.0267 114.141C90.235 113.552 89.4068 113.015 88.547 112.532Z" fill="#4E5F7A"/>
<path d="M88.6365 105.905C89.0138 104.892 88.9875 103.78 88.9585 102.699C88.9436 102.181 88.9076 101.611 88.5461 101.239C87.5669 103.002 86.4034 104.657 85.075 106.175C84.2572 107.108 84.538 108.552 86.0121 108.293C87.108 108.1 88.2689 106.889 88.6365 105.905Z" fill="#86A3E0"/>
<path d="M76.5769 109.793C76.7629 109.758 76.9884 109.664 76.9919 109.474C76.9828 109.379 76.9417 109.289 76.8752 109.22C76.4865 108.72 76.0241 108.255 75.4511 107.992C74.8782 107.729 74.1797 107.662 73.6146 107.95C73.385 108.058 73.1992 108.241 73.0882 108.469C72.4397 109.951 75.8328 109.933 76.5769 109.793Z" fill="#86A3E0"/>
<path d="M67.6858 110.653C68.1965 111.179 68.4948 111.869 68.7203 112.413C66.2433 114.304 62.809 114.93 61.8543 114.168C62.093 115.375 59.981 118.135 57.1811 119.484C56.7976 119.036 56.3185 118.458 56.079 117.764C55.2015 117.96 53.4466 118.041 51.6505 117.15C51.4619 114.711 52.8667 112.634 54.2943 111.26C54.3665 111.195 54.4109 111.105 54.418 111.008C54.4134 110.931 54.3889 110.856 54.3469 110.791C53.6046 109.377 53.3264 105.718 55.5341 103.823L55.5437 103.839C58.2235 102.769 61.3305 104.659 62.2501 105.954C62.2891 106.021 62.3443 106.076 62.4106 106.115C62.501 106.152 62.6019 106.152 62.6923 106.115C64.5639 105.465 67.0523 105.15 69.1415 106.426C69.1257 108.43 68.257 109.959 67.6858 110.653Z" fill="#657DC1"/>
<path d="M65.1955 108.093C64.5699 108.562 63.9881 109.088 63.4573 109.662C62.9161 110.248 62.4533 110.901 62.0806 111.606C61.8919 111.968 61.7348 112.345 61.6112 112.733C61.6042 112.755 61.5989 112.779 61.5919 112.801C59.889 109.989 58.0681 107.262 56.1289 104.621C57.8253 107.448 59.3901 110.343 60.8232 113.305C60.7873 113.298 60.7522 113.29 60.7162 113.284C60.3135 113.22 59.906 113.191 59.4983 113.196C58.7005 113.21 57.9079 113.328 57.1406 113.547C56.3882 113.76 55.6567 114.041 54.9549 114.385C54.2604 114.726 53.5882 115.109 52.942 115.534C53.6237 115.18 54.327 114.87 55.0479 114.604C55.7597 114.341 56.4939 114.142 57.2415 114.011C57.9758 113.881 58.7238 113.848 59.4667 113.912C59.8281 113.945 60.186 114.009 60.5363 114.104C60.8765 114.196 61.2052 114.325 61.5164 114.49C61.5972 114.521 61.6838 114.534 61.7702 114.529C61.8566 114.523 61.9406 114.498 62.0164 114.456C62.0922 114.414 62.158 114.357 62.2091 114.287C62.2602 114.217 62.2954 114.137 62.3123 114.052C62.3131 114.035 62.3131 114.019 62.3123 114.003C62.3062 113.649 62.3398 113.296 62.4123 112.95C62.4858 112.594 62.5906 112.246 62.7255 111.909C63.0048 111.218 63.3729 110.566 63.8206 109.97C64.2766 109.362 64.7867 108.797 65.3447 108.281C65.9076 107.759 66.5031 107.272 67.1277 106.825C66.4577 107.207 65.8124 107.63 65.1955 108.093Z" fill="#4E5F7A"/>
<path d="M55.1778 109.192C54.9269 108.383 54.9953 107.515 55.0673 106.672C55.1015 106.267 55.155 105.822 55.4542 105.548C56.1426 106.97 56.9803 108.315 57.9532 109.56C58.5516 110.326 58.2682 111.443 57.1275 111.175C56.2755 110.975 55.4174 109.978 55.1778 109.192Z" fill="#86A3E0"/>
<path d="M64.4339 112.763C64.29 112.728 64.1172 112.644 64.1233 112.5C64.1346 112.425 64.1708 112.357 64.226 112.306C64.5515 111.932 64.9341 111.592 65.3939 111.405C65.8537 111.218 66.4021 111.203 66.8311 111.454C67.0058 111.548 67.1429 111.699 67.2198 111.882C67.6594 113.07 65.0096 112.906 64.4339 112.763Z" fill="#86A3E0"/>
<path d="M108.287 49.7741C108.346 50.3136 108.597 50.8083 108.8 51.1934C111.045 50.6785 113.022 49.0223 113.037 48.1178C113.612 48.8196 116.179 48.9267 118.268 47.9713C118.194 47.5424 118.092 46.9967 117.81 46.5327C118.336 46.1265 119.214 45.1659 119.551 43.7255C118.252 42.4676 116.409 42.2851 114.953 42.4483C114.881 42.4585 114.809 42.4409 114.75 42.3991C114.709 42.3597 114.679 42.3105 114.662 42.2562C114.208 41.1666 112.259 39.2814 110.139 39.6411V39.6543C108.265 40.6719 107.873 43.3308 108.175 44.465C108.195 44.5187 108.2 44.5763 108.191 44.6326C108.17 44.7012 108.124 44.7592 108.061 44.7949C106.808 45.5519 105.455 46.8187 105.192 48.6073C106.343 49.546 107.625 49.7714 108.287 49.7741Z" fill="#445E99"/>
<path d="M116.416 44.2957C115.888 44.5317 115.383 44.8151 114.906 45.1423C114.42 45.4756 113.98 45.8711 113.596 46.3186C113.4 46.5479 113.224 46.7939 113.07 47.0538C113.057 47.0774 113.044 47.102 113.031 47.1248C112.026 44.9159 111.119 42.66 110.311 40.3569C110.896 42.7044 111.587 45.0271 112.385 47.3248C112.369 47.3178 112.353 47.3099 112.336 47.3038C112.057 47.1908 111.768 47.1028 111.474 47.0406C110.897 46.9192 110.307 46.8737 109.719 46.9055C109.142 46.9356 108.568 47.0181 108.006 47.152C107.45 47.2839 106.903 47.4506 106.368 47.6512C106.916 47.5075 107.473 47.3985 108.035 47.3248C108.592 47.2513 109.154 47.2284 109.715 47.2564C110.266 47.2832 110.81 47.3814 111.335 47.5485C111.59 47.6317 111.838 47.7367 112.075 47.8626C112.305 47.9845 112.52 48.1316 112.718 48.3012C112.727 48.3095 112.737 48.3171 112.747 48.324C112.803 48.3546 112.865 48.3726 112.929 48.3766C112.993 48.3807 113.057 48.3707 113.117 48.3473C113.176 48.324 113.23 48.2879 113.274 48.2416C113.319 48.1953 113.352 48.1399 113.373 48.0793C113.425 47.8244 113.507 47.5763 113.616 47.3397C113.727 47.0947 113.859 46.8598 114.011 46.638C114.327 46.1863 114.7 45.7778 115.121 45.423C115.549 45.0607 116.009 44.7377 116.495 44.458C116.987 44.1737 117.495 43.9205 118.019 43.7001C117.472 43.8645 116.937 44.0634 116.416 44.2957Z" fill="#303F54"/>
<path d="M113.362 41.9744C113.021 41.448 112.494 41.0796 111.981 40.7217C111.734 40.5462 111.454 40.3708 111.159 40.4111C111.643 41.474 112.012 42.5852 112.261 43.7262C112.414 44.428 113.183 44.7938 113.569 44.0192C113.855 43.4411 113.694 42.484 113.362 41.9744Z" fill="#657DC1"/>
<path d="M111.023 48.9223C111.07 48.824 111.104 48.6872 111.017 48.6205C110.97 48.5914 110.914 48.5797 110.86 48.5872C110.491 48.582 110.126 48.6637 109.795 48.8258C109.471 49.0012 109.205 49.3039 109.145 49.6653C109.116 49.8089 109.137 49.9582 109.205 50.0881C109.674 50.9004 110.832 49.317 111.023 48.9223Z" fill="#657DC1"/>
<path d="M14.159 36.7049C13.6079 36.9373 13.1657 37.3593 12.8235 37.6953C14.0782 39.8998 16.4517 41.4604 17.4108 41.1902C16.8483 42.0192 17.5529 44.7588 19.2218 46.6589C19.6518 46.4457 20.194 46.165 20.5941 45.7211C21.1899 46.1466 22.4806 46.7659 24.1083 46.6668C25.0252 44.9 24.6348 42.8946 24.0004 41.4139C23.9671 41.3419 23.9627 41.26 23.9881 41.1849C24.0164 41.1286 24.0587 41.0806 24.1109 41.0454C25.1165 40.2217 26.4888 37.5689 25.4376 35.4469L25.4254 35.4557C23.7582 33.8021 20.8284 34.2275 19.7272 34.9083C19.6758 34.9465 19.6153 34.9707 19.5517 34.9785C19.4723 34.9776 19.3963 34.9462 19.3394 34.8907C18.1434 33.8082 16.378 32.7854 14.4082 33.0731C13.7869 34.5811 13.951 36.0031 14.159 36.7049Z" fill="#657DC1"/>
<path d="M21.1426 42.2187C20.6363 41.8129 20.0794 41.4747 19.486 41.2125C19.182 41.079 18.867 40.9725 18.5445 40.894L18.4567 40.8756C20.4702 39.1118 22.5634 37.4403 24.7366 35.8613C22.4453 37.2228 20.2136 38.6872 18.0417 40.2545C18.0417 40.2361 18.0469 40.2168 18.0487 40.1975C18.0797 39.867 18.0817 39.5344 18.0548 39.2036C17.9999 38.557 17.861 37.9203 17.6416 37.3096C17.4267 36.7105 17.158 36.1321 16.8387 35.5815C16.5235 35.0365 16.1742 34.5121 15.7928 34.0112C16.12 34.5448 16.4131 35.0986 16.6702 35.6692C16.9249 36.2344 17.1273 36.8216 17.2748 37.4237C17.4211 38.0125 17.4899 38.618 17.4792 39.2246C17.4724 39.5193 17.4402 39.8128 17.3827 40.1019C17.3273 40.3832 17.2405 40.6575 17.1239 40.9195C17.1186 40.9318 17.1142 40.944 17.1098 40.9563C17.0955 41.0253 17.0964 41.0965 17.1124 41.1651C17.1284 41.2337 17.1593 41.298 17.2027 41.3535C17.2461 41.4089 17.3012 41.4542 17.3639 41.4862C17.4267 41.5183 17.4957 41.5362 17.5661 41.5388C17.8515 41.5145 18.1388 41.5222 18.4225 41.5616C18.7154 41.6016 19.0043 41.6671 19.2859 41.7572C19.8626 41.9459 20.4124 42.2087 20.9215 42.5388C21.4409 42.874 21.9287 43.2557 22.3789 43.6793C22.8322 44.1063 23.258 44.5617 23.6538 45.0425C23.3056 44.5186 22.9246 44.0173 22.5131 43.5415C22.0972 43.06 21.6385 42.6173 21.1426 42.2187Z" fill="#4E5F7A"/>
<path d="M23.9952 39.5866C24.44 39.0603 24.6646 38.3883 24.8796 37.733C24.9823 37.419 25.0841 37.069 24.9472 36.7681C23.9786 37.6143 22.9233 38.3559 21.7989 38.9805C21.1066 39.3638 20.9636 40.2911 21.9033 40.4525C22.6053 40.5735 23.5661 40.0981 23.9952 39.5866Z" fill="#86A3E0"/>
<path d="M15.9235 39.3202C16.0429 39.3395 16.1982 39.3316 16.2412 39.2193C16.2557 39.1608 16.2505 39.0991 16.2263 39.0439C16.1008 38.6596 15.9227 38.2833 15.6375 37.9973C15.3523 37.7113 14.9461 37.5262 14.5451 37.578C14.3843 37.5924 14.2334 37.6618 14.1178 37.7745C13.4097 38.5245 15.4471 39.2439 15.9235 39.3202Z" fill="#86A3E0"/>
<path d="M24.1723 23.2156C23.7082 23.4972 23.366 23.9341 23.1027 24.2806C24.5189 26.0965 26.8564 27.1878 27.6821 26.8193C27.2855 27.6378 28.2779 30.0072 30.0266 31.4959C30.3846 31.2476 30.8356 30.9248 31.1366 30.473C31.7271 30.7774 32.9678 31.1643 34.4183 30.8625C35.0096 29.1545 34.3954 27.4071 33.6285 26.157C33.589 26.0967 33.5745 26.0234 33.5882 25.9526C33.6048 25.8988 33.635 25.8501 33.6759 25.8114C34.4718 24.9394 35.3562 22.3761 34.134 20.6076L34.1234 20.6173C32.4089 19.3497 29.8336 20.119 28.9325 20.8725C28.8928 20.914 28.8428 20.9443 28.7877 20.9603C28.7166 20.9706 28.6443 20.953 28.5859 20.9111C27.3689 20.0953 25.6491 19.4067 23.917 19.9243C23.5599 21.3568 23.8942 22.6147 24.1723 23.2156Z" fill="#445E99"/>
<path d="M32.5747 28.2635C32.1381 27.8856 31.6683 27.548 31.1708 27.2547C30.6626 26.9547 30.1175 26.722 29.5493 26.5625C29.2589 26.4826 28.9621 26.428 28.6622 26.3994L28.5806 26.3941C30.16 24.549 31.8213 22.7732 33.5645 21.0666C31.685 22.5907 29.8716 24.199 28.1243 25.8914C28.1243 25.8739 28.1243 25.8564 28.1243 25.8397C28.1088 25.5387 28.0671 25.2396 27.9997 24.9458C27.8654 24.3718 27.6569 23.8177 27.3794 23.2975C27.1077 22.7877 26.7905 22.3036 26.4318 21.8509C26.0786 21.4029 25.6976 20.9775 25.2911 20.5771C25.6514 21.0148 25.9838 21.4748 26.2861 21.9544C26.5884 22.4271 26.8471 22.9262 27.0591 23.4457C27.2675 23.9557 27.4085 24.4906 27.4785 25.037C27.5117 25.3032 27.5214 25.5718 27.5075 25.8397C27.4942 26.0997 27.4521 26.3574 27.382 26.6082C27.382 26.6196 27.3759 26.6318 27.3741 26.6432C27.3702 26.7071 27.3802 26.771 27.4036 26.8306C27.4269 26.8901 27.463 26.9438 27.5093 26.988C27.5556 27.0321 27.611 27.0656 27.6717 27.086C27.7323 27.1065 27.7966 27.1135 27.8602 27.1064C28.1137 27.0472 28.373 27.0163 28.6333 27.0143C28.9016 27.0119 29.1697 27.0331 29.4344 27.0775C29.9771 27.1713 30.5054 27.3352 31.0059 27.5652C31.5178 27.7998 32.0071 28.0808 32.4677 28.4047C32.9333 28.7293 33.3778 29.0829 33.7988 29.4636C33.4164 29.0382 33.0076 28.6374 32.5747 28.2635Z" fill="#303F54"/>
<path d="M33.3882 24.5159C33.719 23.9896 33.8322 23.3518 33.9392 22.7351C33.991 22.4395 34.0357 22.1114 33.8734 21.8579C33.1145 22.7454 32.2636 23.55 31.335 24.258C30.7637 24.6966 30.7567 25.5449 31.6219 25.5677C32.2686 25.5853 33.0662 25.0326 33.3882 24.5159Z" fill="#657DC1"/>
<path d="M26.101 25.3342C26.2106 25.3342 26.3493 25.3088 26.373 25.2018C26.3789 25.1465 26.3659 25.0908 26.3361 25.0439C26.1845 24.7081 25.9565 24.4125 25.6701 24.1807C25.3762 23.9614 24.9866 23.8482 24.6339 23.9473C24.4914 23.9814 24.365 24.0635 24.2759 24.1798C23.7415 24.9491 25.6631 25.3281 26.101 25.3342Z" fill="#657DC1"/>
<path d="M101.813 12.0325C102.361 12.2632 102.806 12.6869 103.15 13.0229C101.896 15.2274 99.5212 16.788 98.563 16.5178C99.1255 17.3468 98.4209 20.0864 96.752 21.9865C96.322 21.7733 95.7789 21.4926 95.3788 21.0487C94.7839 21.4742 93.4932 22.0935 91.8646 21.9944C90.9486 20.2276 91.3382 18.2223 91.9734 16.7415C92.0062 16.6695 92.0106 16.5877 91.9857 16.5126C91.9569 16.4566 91.9147 16.4087 91.8629 16.3731C90.8573 15.5493 89.485 12.8966 90.5362 10.7745L90.5485 10.7833C92.2156 9.12972 95.1454 9.55518 96.2466 10.2359C96.298 10.2742 96.3585 10.2984 96.4221 10.3061C96.5015 10.3052 96.5775 10.2738 96.6344 10.2184C97.8304 9.13587 99.5949 8.11301 101.566 8.40074C102.185 9.90871 102.021 11.3307 101.813 12.0325Z" fill="#657DC1"/>
<path d="M99.3063 10.9939C99.5634 10.4233 99.8565 9.86949 100.184 9.33594C99.8023 9.83678 99.453 10.3612 99.1378 10.9062C98.8185 11.4568 98.5498 12.0352 98.3349 12.6343C98.1151 13.2449 97.9762 13.8817 97.9217 14.5283C97.8948 14.8592 97.8968 15.1917 97.9278 15.5222C97.9278 15.5415 97.9331 15.5608 97.9348 15.5792C95.7646 14.0142 93.533 12.5498 91.2399 11.186C93.4107 12.7651 95.5037 14.4365 97.5189 16.2003C97.49 16.2065 97.461 16.2117 97.4312 16.2187C97.1084 16.2973 96.7931 16.4039 96.4888 16.5372C95.8955 16.8002 95.3389 17.1394 94.8331 17.546C94.337 17.9448 93.878 18.3876 93.4616 18.8689C93.0504 19.3449 92.6694 19.8462 92.3209 20.3698C92.7189 19.8879 93.1471 19.4317 93.6029 19.004C94.0531 18.5804 94.5409 18.1987 95.0603 17.8636C95.5694 17.5334 96.1192 17.2706 96.6959 17.0819C96.9771 16.9918 97.2658 16.9263 97.5584 16.8863C97.8424 16.8468 98.13 16.8392 98.4157 16.8635C98.486 16.8609 98.5549 16.843 98.6176 16.811C98.6803 16.779 98.7352 16.7338 98.7787 16.6785C98.8221 16.6231 98.8529 16.5589 98.8691 16.4905C98.8852 16.422 98.8861 16.3508 98.8719 16.2819C98.8719 16.2687 98.8623 16.2565 98.857 16.2442C98.7393 15.9822 98.651 15.708 98.5938 15.4266C98.5365 15.1358 98.5051 14.8405 98.4999 14.5441C98.4894 13.9375 98.5578 13.3321 98.7035 12.7431C98.8511 12.143 99.0529 11.5576 99.3063 10.9939Z" fill="#4E5F7A"/>
<path d="M91.9761 14.9143C91.5321 14.3879 91.3066 13.716 91.0925 13.0607C90.989 12.7466 90.8881 12.3966 91.025 12.0957C91.9933 12.9423 93.0486 13.6839 94.1733 14.3081C94.8656 14.6914 95.0077 15.6187 94.068 15.7801C93.3669 15.9012 92.4087 15.4257 91.9761 14.9143Z" fill="#86A3E0"/>
<path d="M100.049 14.6478C99.9292 14.6671 99.773 14.6592 99.7309 14.547C99.7156 14.4885 99.7208 14.4265 99.7458 14.3715C99.8713 13.9873 100.049 13.6109 100.335 13.325C100.62 13.039 101.026 12.8539 101.427 12.9056C101.588 12.9201 101.739 12.9895 101.854 13.1021C102.562 13.8522 100.525 14.5715 100.049 14.6478Z" fill="#86A3E0"/>
<path d="M42.4092 95.6652C42.4005 95.5775 42.3996 95.4898 42.382 95.402L42.3276 95.1389C42.3171 95.095 42.3092 95.0511 42.2969 95.009L42.2557 94.8836C42.147 94.5515 41.9871 94.2383 41.7819 93.9555C41.5861 93.6847 41.3587 93.4382 41.1045 93.2212C40.6244 92.8234 40.0815 92.5082 39.4979 92.2887C39.2196 92.1809 38.934 92.093 38.6432 92.0256L38.2194 91.9264C38.0782 91.8975 37.936 91.8782 37.7939 91.8545L37.5798 91.8212L37.3657 91.8001C37.2227 91.7878 37.0788 91.7703 36.9357 91.7624L36.6111 91.751C36.4525 92.4716 36.2533 93.1827 36.0144 93.8809C36.0679 93.8809 36.1215 93.8721 36.175 93.8695C36.4031 93.8476 36.6304 93.8493 36.8576 93.8449C36.9708 93.8449 37.0832 93.8546 37.1963 93.8581L37.3657 93.866L37.5333 93.8844C37.6456 93.8976 37.7579 93.9055 37.8693 93.923L38.201 93.9809C38.4125 94.019 38.6209 94.0721 38.8249 94.1397C39.2117 94.2621 39.5759 94.4467 39.9033 94.6862C40.1839 94.8894 40.4036 95.1655 40.5385 95.4845C40.6584 95.7903 40.6732 96.1273 40.5806 96.4424C40.4762 96.8112 40.2855 97.1497 40.0243 97.4302C39.7538 97.737 39.426 97.9879 39.0592 98.1688C38.969 98.2141 38.8761 98.2537 38.781 98.2873C38.7336 98.3039 38.6889 98.3224 38.6389 98.339L38.4818 98.382C38.2692 98.4384 38.0528 98.4795 37.8342 98.5048C37.3745 98.5518 36.9111 98.5518 36.4514 98.5048C35.9664 98.4533 35.4846 98.3757 35.008 98.2724C34.5201 98.1706 34.0244 98.0487 33.5234 97.9302L32.0247 97.5732L31.7158 98.7443L33.1952 99.1742C33.6866 99.3163 34.1814 99.4645 34.6939 99.5979C35.2139 99.738 35.7411 99.8498 36.2733 99.933C36.8326 100.018 37.3992 100.044 37.9641 100.013C38.257 99.9934 38.5482 99.9532 38.8354 99.8926L39.0521 99.8435C39.1258 99.8242 39.2013 99.7996 39.2759 99.7777C39.4254 99.7328 39.5719 99.6786 39.7146 99.6154C40.2848 99.3717 40.8015 99.0181 41.2352 98.575C41.6966 98.1202 42.0442 97.563 42.2495 96.9486L42.3224 96.7047C42.3408 96.617 42.3557 96.5363 42.3715 96.4512C42.4019 96.2774 42.4183 96.1014 42.4206 95.9249C42.4219 95.8382 42.4181 95.7515 42.4092 95.6652Z" fill="#4E5F7A"/>
<path d="M51.0968 117.269C51.0845 117.126 51.0643 116.989 51.0442 116.854C51.024 116.719 51.0038 116.582 50.974 116.448C50.5514 114.292 49.3823 112.354 47.6721 110.975L46.8184 111.994C48.2024 113.218 49.1118 114.89 49.3875 116.717C49.4068 116.828 49.4182 116.941 49.4288 117.053C49.4393 117.165 49.4525 117.278 49.456 117.385C49.4674 117.587 49.4612 117.79 49.4375 117.992C49.4183 118.159 49.3746 118.323 49.3077 118.479C49.2803 118.543 49.2456 118.604 49.2041 118.66C49.1669 118.712 49.1239 118.76 49.076 118.803C48.8483 118.994 48.5627 119.104 48.2653 119.113C47.9264 119.119 47.5916 119.037 47.2939 118.875C46.9472 118.69 46.634 118.448 46.3674 118.159C46.1454 117.923 45.9487 117.664 45.7804 117.386C45.2776 117.851 44.7608 118.274 44.2352 118.679C44.4609 118.989 44.7131 119.279 44.9889 119.546C45.4242 119.972 45.9285 120.321 46.4806 120.579C47.0847 120.863 47.7536 120.982 48.4188 120.923C48.7637 120.887 49.1007 120.797 49.4174 120.656C49.748 120.508 50.048 120.3 50.3018 120.042C50.5588 119.778 50.7591 119.465 50.8906 119.122C51.008 118.81 51.0798 118.484 51.1038 118.152C51.1267 117.858 51.1243 117.563 51.0968 117.269Z" fill="#303F54"/>
<path d="M81.7889 116.068C81.5064 116.654 81.1545 117.209 80.7281 117.589C80.4852 117.814 80.208 117.999 79.9068 118.138C79.6609 118.255 79.3886 118.305 79.1171 118.284C78.872 118.247 78.6471 118.127 78.4801 117.944C78.436 117.897 78.3944 117.848 78.3555 117.796C78.3356 117.772 78.3185 117.745 78.3046 117.717C78.2897 117.689 78.2704 117.662 78.2555 117.633C78.1956 117.504 78.1526 117.368 78.1273 117.228C78.0739 116.89 78.0766 116.546 78.1352 116.209C78.1977 115.832 78.294 115.462 78.423 115.103C78.9592 113.604 79.8919 112.278 81.1221 111.266L80.3833 110.307C79.651 110.852 78.9978 111.496 78.4423 112.22C77.882 112.944 77.4227 113.741 77.077 114.588C76.8989 115.025 76.7603 115.476 76.6629 115.937C76.5553 116.438 76.5316 116.953 76.5927 117.461C76.6296 117.743 76.7039 118.019 76.8138 118.281C76.8436 118.348 76.8796 118.414 76.9138 118.48C76.9465 118.547 76.9837 118.612 77.0253 118.675C77.1071 118.797 77.1971 118.915 77.2947 119.026C77.4905 119.248 77.7192 119.44 77.9729 119.593C78.241 119.752 78.5351 119.863 78.8416 119.92C79.4191 120.013 80.011 119.947 80.5535 119.728C81.0403 119.536 81.4925 119.266 81.8925 118.929C82.0881 118.769 82.2719 118.595 82.4426 118.409C82.4865 118.362 82.5304 118.311 82.5698 118.262C82.6093 118.213 82.6453 118.166 82.6839 118.118C82.7576 118.022 82.834 117.926 82.9041 117.828C83.0042 117.688 83.0972 117.544 83.1876 117.398C82.6735 117.008 82.2044 116.562 81.7889 116.068Z" fill="#4E5F7A"/>
<path d="M19.0666 79.8395C19.5366 79.9461 19.9921 80.109 20.4231 80.3246V80.2948C20.4231 80.1378 20.4117 79.9825 20.4064 79.8255L20.3959 79.5913L20.3722 79.3579C20.3529 79.2027 20.3459 79.0456 20.3187 78.8921L20.2432 78.4307C20.216 78.2772 20.1748 78.1272 20.1423 77.9745C20.1239 77.8991 20.1081 77.8228 20.0888 77.7473L20.0712 77.6912C19.8957 77.6438 19.7203 77.6035 19.5448 77.5666C19.1584 77.4902 18.7668 77.4427 18.3734 77.4245L18.2558 77.4175V79.7229C18.5285 79.7425 18.7994 79.7815 19.0666 79.8395Z" fill="#1C2735"/>
<path d="M21.9489 80.2632C21.9489 80.0878 21.9279 79.9071 21.9173 79.729L21.8989 79.4597L21.8656 79.1965C21.8401 79.0211 21.8261 78.8456 21.791 78.6649L21.7287 78.3325L21.691 78.1368C21.6559 77.9614 21.6032 77.7859 21.5629 77.6149C21.54 77.5271 21.519 77.4394 21.4944 77.3517L21.4111 77.0955C21.3523 76.9254 21.3058 76.7517 21.2356 76.585L21.0338 76.085C20.9636 75.9192 20.8785 75.7595 20.8012 75.5972L20.681 75.3551L20.5503 75.1226C19.8459 73.8869 18.9321 72.783 17.8495 71.8602C16.7765 70.9414 15.5615 70.2025 14.252 69.6724L13.7843 70.79C16.1218 71.8023 18.1329 73.584 19.3122 75.7999L19.4236 76.0069L19.521 76.2183C19.5833 76.3604 19.6544 76.4981 19.7115 76.6429L19.8747 77.0815C19.9326 77.2263 19.9677 77.3789 20.015 77.5263L20.0651 77.6929L20.0826 77.7491C20.1019 77.8245 20.1177 77.9009 20.1361 77.9763C20.1686 78.1289 20.2098 78.2789 20.237 78.4325L20.3125 78.8939C20.3397 79.0474 20.3467 79.2044 20.366 79.3597L20.3897 79.593L20.4002 79.8273C20.4055 79.9843 20.4169 80.1396 20.4169 80.2966V80.3264L20.4108 80.765C20.4108 80.9221 20.3915 81.0791 20.3827 81.2352L20.3669 81.4703C20.359 81.5484 20.3476 81.6265 20.3379 81.7046C20.3178 81.8598 20.302 82.0168 20.2774 82.1721L20.1897 82.6362C20.1651 82.7914 20.1212 82.9432 20.0879 83.0976C20.0545 83.252 20.0177 83.4038 19.9712 83.5546C19.9247 83.7055 19.8834 83.8573 19.8387 84.0073C19.736 84.3047 19.6386 84.6038 19.5149 84.8933C19.4052 85.1881 19.2631 85.4679 19.1323 85.7539C19.0016 86.0399 18.841 86.3179 18.6831 86.5908C18.3735 87.1311 18.0192 87.6446 17.624 88.1259C17.2528 88.5848 16.8206 88.991 16.3394 89.333C15.9069 89.6447 15.4075 89.8511 14.8811 89.9357C14.384 90.0079 13.8767 89.9427 13.414 89.7471C12.9615 89.5473 12.5742 89.2245 12.2962 88.8154C12.1567 88.6109 12.0457 88.3884 11.9662 88.154C11.9443 88.0961 11.9311 88.0356 11.9127 87.9785C11.8943 87.9215 11.8829 87.8461 11.8671 87.782C11.8503 87.715 11.8371 87.647 11.8276 87.5785C11.818 87.5092 11.803 87.4417 11.796 87.3724C11.7042 86.5161 11.7899 85.6501 12.0478 84.8284C11.6969 84.4529 11.3406 84.081 10.98 83.7196V82.0879C10.779 82.4382 10.5999 82.8006 10.4439 83.173C10.4415 83.1782 10.4394 83.1834 10.4377 83.1888C10.2984 83.533 10.1777 83.8844 10.0762 84.2415C9.9766 84.606 9.89808 84.9759 9.84107 85.3495C9.78662 85.7272 9.75731 86.1082 9.75333 86.4899C9.75044 86.8776 9.77684 87.265 9.8323 87.6487C9.84546 87.7452 9.86652 87.8417 9.88319 87.9382C9.89986 88.0347 9.92092 88.1312 9.94636 88.2268C9.97181 88.3224 9.98936 88.4154 10.0227 88.518C10.056 88.6207 10.0841 88.7207 10.1219 88.8198C10.269 89.2171 10.4691 89.5927 10.7168 89.9365C11.2153 90.6305 11.8992 91.1701 12.6901 91.4936C13.4765 91.8075 14.3342 91.8986 15.1689 91.7568C15.9695 91.6134 16.7257 91.2854 17.3774 90.7989C17.9809 90.35 18.5205 89.8212 18.9814 89.2269C19.4244 88.6608 19.8191 88.0587 20.1616 87.4268C20.3318 87.1162 20.4912 86.801 20.6398 86.4811C20.7811 86.1548 20.9337 85.8311 21.0513 85.4951C21.182 85.1644 21.2847 84.824 21.3926 84.4845C21.4418 84.3091 21.4804 84.1406 21.5295 83.9696C21.5787 83.7985 21.6173 83.6239 21.6497 83.4502C21.6822 83.2766 21.7278 83.0994 21.7515 82.9239L21.8322 82.3976C21.8568 82.2221 21.87 82.0467 21.8893 81.8668C21.8972 81.7791 21.9077 81.6914 21.9147 81.6037L21.9252 81.3791V81.3361C21.9305 81.1607 21.9472 80.9808 21.9437 80.8027L21.9489 80.2632Z" fill="#303F54"/>
<path d="M26.4959 85.8705C26.4589 85.0959 26.335 84.3279 26.1264 83.5809C26.0109 83.2058 25.8738 82.8376 25.7158 82.4782C25.6376 82.2965 25.5497 82.119 25.4526 81.9466C25.4052 81.8589 25.3648 81.7712 25.3104 81.6835L25.1534 81.4343C24.5546 80.5029 23.7868 79.6919 22.8896 79.043C22.9058 80.087 22.8289 81.1303 22.6597 82.1607C22.8037 82.3457 22.9367 82.539 23.058 82.7397L23.166 82.9151C23.2011 82.9748 23.2283 83.0379 23.2598 83.0993C23.3258 83.2196 23.3844 83.3439 23.4353 83.4713C23.5394 83.7296 23.6302 83.9931 23.7073 84.2608C23.8436 84.8103 23.9195 85.373 23.9337 85.9389C23.9372 86.2658 23.9196 86.5925 23.8811 86.9171C24.6287 87.6013 25.4017 88.2601 26.1493 88.9452C26.2177 88.6821 26.2782 88.4189 26.3291 88.1557C26.462 87.4016 26.5179 86.6359 26.4959 85.8705Z" fill="#303F54"/>
<path d="M22.8886 79.0465C22.5263 78.7831 22.1451 78.5468 21.748 78.3394L21.7322 78.3315L21.7945 78.664C21.8296 78.8395 21.8436 79.0149 21.8691 79.1956L21.9024 79.4588L21.9208 79.7263C21.9314 79.9018 21.9489 80.0825 21.9524 80.2606L21.9577 80.7957C21.9577 80.9711 21.9445 81.1466 21.9393 81.3291V81.372C22.202 81.615 22.4444 81.8791 22.664 82.1616C22.8313 81.1319 22.9065 80.0895 22.8886 79.0465Z" fill="#1C2735"/>
<path d="M8.41694 57.4068C8.45731 57.319 8.49942 57.2313 8.54417 57.1392L8.73546 56.7883L8.55997 56.5892C8.49919 56.5194 8.44292 56.4459 8.3915 56.369L8.23092 56.1427C7.89599 55.6552 7.63876 55.1186 7.46842 54.5522L7.37454 54.6663C7.3175 54.7373 7.25608 54.8058 7.19905 54.8803L7.04023 55.1058L6.8858 55.3356C6.86036 55.3716 6.83491 55.4076 6.81122 55.4444C7.15781 56.2129 7.76588 56.8322 8.41694 57.4068Z" fill="#3B4A60"/>
<path d="M7.93349 59.4384C7.94828 59.1703 7.9817 58.9036 8.03352 58.6401C8.08285 58.3783 8.15088 58.1203 8.23709 57.8681C8.28828 57.7111 8.34833 57.557 8.41697 57.4067C7.7659 56.8321 7.15783 56.2128 6.81124 55.4443C6.78404 55.4838 6.75947 55.525 6.73578 55.5672L6.45588 56.0461C6.27579 56.3772 6.12121 56.7215 5.99346 57.076C5.73964 57.7791 5.57973 58.5127 5.51789 59.2577C5.4029 60.6035 5.5977 61.9578 6.08735 63.2167C6.89954 62.9008 7.76701 62.7516 8.63808 62.778C8.60006 62.7067 8.56321 62.6348 8.52752 62.5622C8.06822 61.588 7.86382 60.5132 7.93349 59.4384Z" fill="#4E5F7A"/>
<path d="M27.7269 25.8893C27.4453 26.3512 27.12 26.7851 26.7556 27.185C26.3926 27.5864 25.9928 27.953 25.5614 28.2798C25.1319 28.6084 24.6764 28.9018 24.1996 29.157C23.7223 29.4074 23.2273 29.6223 22.7185 29.8C21.7116 30.1513 20.6524 30.3292 19.586 30.3264C19.3275 30.3229 19.0694 30.3047 18.813 30.272C18.6858 30.2597 18.5612 30.2334 18.4357 30.2141C18.3102 30.1948 18.1882 30.165 18.0689 30.1264C17.8305 30.0657 17.5972 29.9862 17.3713 29.8886L17.2064 29.8141C17.152 29.7878 17.1002 29.7579 17.0467 29.7307C16.9944 29.7046 16.9437 29.6753 16.8949 29.643C16.8466 29.6132 16.7975 29.5851 16.7527 29.5509C16.3835 29.3031 16.0771 28.9727 15.8577 28.5859C15.6549 28.2389 15.5556 27.841 15.5717 27.4394C15.6072 27.0604 15.7578 26.7013 16.0034 26.4104C16.1258 26.2616 16.2678 26.13 16.4255 26.0191C16.5771 25.9164 16.7437 25.8376 16.9195 25.7858C17.004 25.761 17.0902 25.7419 17.1774 25.7288C17.2152 25.7288 17.252 25.7244 17.2897 25.7209C17.3275 25.7174 17.3652 25.7209 17.4029 25.7209C17.5657 25.7356 17.7248 25.778 17.8732 25.8463C18.2028 25.9986 18.4817 26.2422 18.677 26.5481C18.7005 26.5832 18.7216 26.6198 18.7402 26.6578L18.7691 26.7122C18.7788 26.7315 18.7884 26.7551 18.7981 26.7762C18.8182 26.8197 18.8361 26.8642 18.8516 26.9095C18.87 26.9543 18.8841 27.0025 18.899 27.049C18.9287 27.145 18.9533 27.2425 18.9727 27.3411C19.5562 26.7832 20.1616 26.2551 20.7767 25.7376L20.7337 25.6577L20.6547 25.5279C20.603 25.4402 20.5451 25.3595 20.4863 25.2779C20.0205 24.6441 19.3802 24.1598 18.6436 23.884C18.2614 23.7404 17.8569 23.665 17.4486 23.6611C17.3441 23.6611 17.2388 23.669 17.1353 23.6752C17.0318 23.6813 16.9265 23.7032 16.8229 23.7199C16.6302 23.7596 16.4407 23.8138 16.2561 23.8822C15.8921 24.0161 15.5511 24.2058 15.2453 24.4445C14.9483 24.6789 14.6858 24.9538 14.4652 25.2612C14.0122 25.8811 13.7624 26.6261 13.7501 27.3938C13.7564 28.1379 13.9772 28.8643 14.3863 29.486C14.7662 30.0734 15.2767 30.5652 15.8779 30.9229C15.9508 30.9694 16.0271 31.0106 16.1034 31.0492C16.1798 31.0878 16.2552 31.1282 16.3307 31.1606C16.4061 31.1931 16.4807 31.2308 16.5571 31.2615L16.787 31.3492C17.0914 31.4613 17.4041 31.5493 17.7223 31.6124C17.8794 31.6484 18.0373 31.6668 18.1944 31.6922C18.3514 31.7177 18.5085 31.7308 18.6647 31.7379C18.9757 31.7587 19.2877 31.7625 19.5992 31.7493C20.8201 31.6865 22.0214 31.4157 23.1511 30.9483C23.7069 30.7187 24.2449 30.4477 24.7603 30.1378C25.2726 29.8252 25.7586 29.4714 26.2134 29.0798C26.6702 28.6901 27.0894 28.2584 27.4655 27.7903C27.8429 27.3261 28.175 26.8267 28.457 26.299L27.7269 25.8893Z" fill="#303F54"/>
<path d="M70.8682 117.287C70.698 117.971 70.2996 118.621 69.6968 118.91C69.8017 118.964 69.9099 119.012 70.0206 119.054C70.1532 119.102 70.2889 119.14 70.4269 119.169C70.5748 119.083 70.7066 118.972 70.8165 118.841C70.9877 118.628 71.1159 118.384 71.1938 118.122C71.2377 117.98 71.2714 117.835 71.2947 117.689C71.3173 117.547 71.3302 117.403 71.3333 117.26L71.2973 117.269C71.1561 117.297 71.0113 117.303 70.8682 117.287Z" fill="#3B4A60"/>
<path d="M71.9896 114.533C71.7603 114.328 71.4916 114.17 71.1999 114.071C71.1264 114.045 71.051 114.024 70.9744 114.009C70.8977 113.989 70.8197 113.976 70.741 113.968C70.5788 113.95 70.4152 113.95 70.2531 113.968C69.9437 114.004 69.6451 114.104 69.3757 114.261C68.8606 114.557 68.4632 115.022 68.2499 115.576C68.2244 115.648 68.2016 115.72 68.1788 115.793C68.156 115.866 68.1446 115.945 68.1288 116.02C68.1032 116.174 68.0927 116.329 68.0972 116.484C68.1181 117.068 68.3261 117.629 68.6904 118.084C68.9624 118.43 69.3061 118.711 69.6977 118.911C70.3005 118.622 70.6988 117.972 70.8691 117.288C70.7316 117.275 70.5981 117.235 70.4764 117.17C70.3548 117.105 70.2475 117.016 70.161 116.908C70.0403 116.772 69.9651 116.601 69.946 116.419C69.9424 116.385 69.9424 116.35 69.946 116.316C69.946 116.299 69.946 116.283 69.9539 116.264C69.9603 116.247 69.9653 116.228 69.9688 116.21C69.997 116.129 70.0385 116.054 70.0917 115.988C70.1845 115.862 70.3191 115.773 70.4716 115.737C70.4982 115.735 70.5249 115.735 70.5514 115.737C70.5628 115.737 70.5821 115.742 70.5979 115.744C70.615 115.745 70.6319 115.749 70.648 115.755C70.7182 115.774 70.7832 115.809 70.8384 115.857C71.0056 116.012 71.1298 116.207 71.199 116.424C71.2906 116.688 71.336 116.966 71.3332 117.245C71.3328 117.252 71.3328 117.258 71.3332 117.265C71.5603 117.214 71.7751 117.119 71.9659 116.985C72.1772 116.836 72.359 116.648 72.502 116.433C72.6282 116.247 72.7325 116.047 72.8126 115.838C72.6563 115.339 72.3726 114.889 71.9896 114.533Z" fill="#4E5F7A"/>
<path d="M72.8276 115.873C72.8276 115.86 72.8171 115.846 72.8127 115.833C72.7325 116.042 72.6283 116.242 72.5021 116.427C72.359 116.643 72.1773 116.83 71.9659 116.98C71.7752 117.113 71.5603 117.208 71.3333 117.26C71.3302 117.404 71.3173 117.547 71.2947 117.689C71.2714 117.835 71.2377 117.98 71.1938 118.122C71.1159 118.384 70.9878 118.628 70.8165 118.841C70.7066 118.972 70.5748 119.083 70.4269 119.169C70.3575 119.21 70.2854 119.246 70.211 119.277C69.9354 119.382 69.6448 119.441 69.3503 119.453C69.0241 119.468 68.6971 119.45 68.3745 119.399C68.0436 119.35 67.7183 119.269 67.4032 119.156C67.0816 119.043 66.7692 118.906 66.4687 118.745C66.164 118.579 65.8708 118.392 65.5913 118.186C65.0284 117.764 64.5205 117.273 64.0795 116.725C63.1766 115.619 62.4948 114.306 61.9113 112.939L60.7899 113.397C61.3559 114.837 62.0394 116.276 63.023 117.559C64.0066 118.842 65.3044 119.946 66.889 120.546C67.2866 120.7 67.6979 120.816 68.1175 120.892C68.5437 120.972 68.9772 121.008 69.4108 120.999C69.8771 120.99 70.3389 120.906 70.7779 120.749C71.0141 120.661 71.2391 120.547 71.4482 120.406C71.6619 120.263 71.8568 120.094 72.0282 119.902C72.3025 119.59 72.5218 119.235 72.6767 118.849C72.7039 118.782 72.7302 118.714 72.7539 118.646C72.8287 118.427 72.8873 118.204 72.9294 117.977C72.9504 117.864 72.968 117.752 72.982 117.64C72.9943 117.526 73.0066 117.418 73.0101 117.294C73.0327 116.813 72.9709 116.332 72.8276 115.873Z" fill="#4E5F7A"/>
<path d="M74.8825 112.318C74.8474 112.205 74.8088 112.094 74.7676 111.982H72.352C72.5473 112.295 72.7077 112.629 72.8302 112.976C73.0266 113.557 73.1039 114.171 73.0575 114.783C73.046 114.906 73.0267 115.029 73.0039 115.151C73.4023 116.039 73.7155 117.007 73.82 117.993C73.9346 117.869 74.0421 117.739 74.142 117.603C74.4212 117.218 74.6454 116.796 74.808 116.349C74.8877 116.133 74.9545 115.913 75.008 115.689C75.037 115.578 75.0536 115.464 75.0747 115.352C75.0958 115.24 75.1159 115.125 75.1309 115.012C75.2326 114.106 75.1481 113.19 74.8825 112.318Z" fill="#4E5F7A"/>
<path d="M72.8127 115.832C72.8127 115.846 72.8232 115.86 72.8276 115.873C72.9729 116.333 73.0365 116.814 73.0154 117.296C73.0154 117.419 72.9996 117.527 72.9873 117.641C72.975 117.755 72.9557 117.866 72.9346 117.978C72.8926 118.205 72.834 118.429 72.7592 118.648C72.7355 118.716 72.7091 118.784 72.6819 118.851C72.8133 118.786 72.9408 118.714 73.0636 118.634C73.3432 118.453 73.5988 118.238 73.8244 117.993C73.72 117.007 73.4067 116.039 73.0084 115.151C72.9645 115.384 72.899 115.612 72.8127 115.832Z" fill="#3B4A60"/>
<path d="M10.0385 55.1857C10.235 54.9875 10.4649 54.8226 10.6808 54.6436C10.7852 54.5734 10.887 54.5006 10.9905 54.4287V51.8496L10.7211 51.9803L10.6009 52.0391L10.4851 52.1049L10.2526 52.2365C9.93758 52.404 9.64539 52.6137 9.34618 52.8102C9.16542 52.9497 8.98116 53.0856 8.80304 53.2286C8.82761 53.4037 8.8613 53.5773 8.90395 53.7488C9.03476 54.2758 9.26496 54.7731 9.58221 55.2138L9.70242 55.3761C9.72172 55.4015 9.74015 55.4287 9.75945 55.4542C9.84764 55.3598 9.94078 55.2702 10.0385 55.1857Z" fill="#3B4A60"/>
<path d="M21.9498 54.1078C21.7092 53.3019 21.239 52.5835 20.5968 52.0402C20.4397 51.9061 20.2738 51.7828 20.1002 51.6709C20.0124 51.6165 19.9317 51.563 19.844 51.5156C19.7562 51.4682 19.6685 51.4191 19.5807 51.3761C19.2335 51.2053 18.8706 51.0684 18.4971 50.9673C18.4172 50.9454 18.3374 50.9252 18.2567 50.9068V53.0551C18.403 53.1022 18.5462 53.1582 18.6857 53.2227C18.7428 53.2472 18.7972 53.2753 18.8498 53.3043C18.9025 53.3332 18.9551 53.363 19.0069 53.392C19.1043 53.451 19.1975 53.5167 19.2859 53.5885C19.6369 53.869 19.8997 54.2444 20.0431 54.6701C20.3064 55.4596 19.9185 56.2167 19.0016 56.7316C18.7681 56.8619 18.5246 56.9734 18.2733 57.065L18.2567 57.0711C17.998 57.1623 17.7344 57.2384 17.467 57.2992C17.1857 57.363 16.9009 57.4102 16.6141 57.4404C16.4658 57.4554 16.3175 57.4773 16.1692 57.4861L15.7235 57.5159C15.1313 57.5405 14.5381 57.5188 13.9493 57.451C13.8045 57.4299 13.6562 57.4194 13.5106 57.3904L13.0806 57.3106L12.6586 57.2062C12.5191 57.1711 12.3848 57.1185 12.247 57.0799C11.8081 56.9325 11.3865 56.7378 10.9897 56.4992C10.9019 56.4483 10.8203 56.3983 10.7405 56.343C10.6308 56.2597 10.5141 56.1851 10.4105 56.0983L10.1043 55.8281L9.8288 55.5298C9.80388 55.5048 9.781 55.4778 9.76036 55.4491C9.74106 55.4237 9.72263 55.3965 9.70333 55.371L9.58136 55.2088C9.26411 54.768 9.03391 54.2708 8.9031 53.7438C8.86098 53.5745 8.82759 53.4032 8.80307 53.2306C8.74999 52.8529 8.73588 52.4708 8.76095 52.0902C8.83115 50.9498 9.21459 49.8015 9.78669 48.7628C10.0737 48.242 10.4104 47.7502 10.7922 47.2943C11.1898 46.8236 11.6125 46.3747 12.0584 45.9495C12.9746 45.0976 13.9492 44.3105 14.975 43.5941C16.0051 42.8529 17.0809 42.1476 18.1163 41.3072L17.3573 40.3633C16.3842 41.1203 15.2988 41.8002 14.2318 42.5309C13.1385 43.2586 12.0976 44.062 11.1169 44.9354C10.6239 45.3841 10.1553 45.8588 9.71298 46.3574C9.25982 46.8749 8.85756 47.4349 8.51176 48.0294C8.16248 48.6259 7.87411 49.256 7.65098 49.9102C7.53947 50.2413 7.44574 50.578 7.3702 50.9191C7.29575 51.2646 7.243 51.6144 7.21226 51.9665C7.14689 52.6875 7.19396 53.4144 7.35178 54.121C7.386 54.2657 7.42636 54.4096 7.47111 54.5535C7.64144 55.1198 7.89867 55.6564 8.23361 56.1439L8.39418 56.3702C8.44523 56.448 8.50121 56.5224 8.56177 56.593L8.73726 56.7922C8.80132 56.8641 8.86449 56.9378 8.92942 57.0088L9.3348 57.3852C9.47344 57.5062 9.62348 57.6115 9.76826 57.7238C10.1546 57.9983 10.5659 58.2359 10.9967 58.4335C11.2222 58.5379 11.4521 58.6326 11.6837 58.7168C11.8513 58.773 12.018 58.837 12.1874 58.8844L12.6963 59.0221L13.2087 59.13C13.3842 59.1677 13.5518 59.1853 13.7229 59.2177C14.4063 59.3118 15.096 59.3523 15.7858 59.3388L16.2991 59.3169C16.4746 59.3107 16.6413 59.2897 16.8115 59.2765C17.1627 59.2463 17.5119 59.1962 17.8574 59.1265C17.9934 59.1002 18.1286 59.0677 18.2637 59.0335C18.4769 58.98 18.6892 58.9177 18.9007 58.8493C19.2547 58.7291 19.5983 58.5804 19.9282 58.4045C20.2802 58.218 20.6077 57.9884 20.903 57.7212C21.0593 57.5788 21.2042 57.4246 21.3365 57.2597L21.5304 56.9966C21.5883 56.9027 21.6427 56.8062 21.6971 56.7097C21.7514 56.6123 21.7986 56.5112 21.8384 56.4071C21.8842 56.3051 21.922 56.1999 21.9516 56.0921C21.9814 55.9842 22.0095 55.8763 22.0393 55.7684C22.0692 55.6605 22.0762 55.5439 22.0893 55.4307C22.1262 54.9849 22.0789 54.5361 21.9498 54.1078Z" fill="#4E5F7A"/>
<path d="M112.294 24.5736C112.26 24.5552 112.23 24.5294 112.206 24.4982C112.199 24.4874 112.192 24.4763 112.186 24.4648C112.192 24.4825 112.196 24.5008 112.198 24.5192C112.2 24.5396 112.202 24.5601 112.203 24.5806C112.249 24.5806 112.283 24.5806 112.301 24.585C112.32 24.5894 112.321 24.5894 112.294 24.5736Z" fill="#A3710D"/>
<path d="M102.343 19.5034L102.24 19.4446C101.514 18.994 100.848 18.4515 100.261 17.8305C99.6519 17.2076 99.0851 16.526 98.5148 15.833L97.7751 16.4251C98.3279 17.1348 98.8912 17.8533 99.5212 18.5305C100.129 19.2064 100.817 19.805 101.571 20.3131C101.813 20.0294 102.071 19.7591 102.343 19.5034Z" fill="#4E5F7A"/>
<path d="M109.147 18.6144C109.123 18.4201 109.064 18.2318 108.971 18.0591C108.925 17.9705 108.869 17.8869 108.805 17.81C108.742 17.736 108.673 17.6665 108.6 17.6021C108.528 17.5459 108.452 17.4935 108.375 17.4451C108.298 17.4056 108.219 17.3573 108.144 17.3301C107.861 17.2166 107.561 17.1534 107.256 17.1433C106.979 17.1306 106.701 17.151 106.429 17.2038C106.293 17.2293 106.158 17.2627 106.025 17.3038C105.953 17.3231 105.906 17.3442 105.849 17.3652L105.674 17.4275C104.77 17.7579 103.921 18.2244 103.157 18.8109C103.612 19.097 104.085 19.352 104.574 19.5741C105.07 19.2307 105.605 18.9452 106.166 18.7232L106.31 18.6662C106.357 18.6486 106.412 18.6232 106.448 18.6135C106.693 18.5312 106.951 18.49 107.209 18.4916C107.355 18.4914 107.5 18.5151 107.638 18.5618C107.667 18.5714 107.685 18.5855 107.711 18.5942C107.728 18.6061 107.746 18.6166 107.764 18.6258C107.772 18.639 107.788 18.646 107.796 18.6565C107.803 18.6671 107.817 18.6714 107.817 18.6855C107.832 18.7112 107.842 18.739 107.848 18.7679C107.855 18.8033 107.855 18.8396 107.848 18.875C107.815 18.9988 107.755 19.1139 107.673 19.2118C107.622 19.2761 107.566 19.3365 107.506 19.3925C107.44 19.4513 107.365 19.5101 107.295 19.568C107.147 19.681 106.99 19.7808 106.824 19.8662C106.154 20.211 105.34 20.3198 104.543 20.2356C104.316 20.2117 104.091 20.1721 103.869 20.1171C103.542 20.3971 103.237 20.7002 102.954 21.0242L102.972 21.0312C103.433 21.2067 103.913 21.3286 104.402 21.3944C105.379 21.5225 106.428 21.4304 107.377 20.9777C107.614 20.8639 107.84 20.7292 108.054 20.575C108.158 20.4926 108.261 20.4145 108.365 20.3259C108.472 20.2313 108.572 20.129 108.663 20.0198C108.875 19.7758 109.029 19.4869 109.113 19.175C109.157 18.9916 109.168 18.8018 109.147 18.6144Z" fill="#4E5F7A"/>
<path d="M103.161 18.811C102.876 19.0268 102.603 19.2579 102.343 19.5032C102.664 19.6909 103.002 19.8474 103.352 19.9707C103.521 20.0292 103.691 20.0786 103.865 20.119C104.093 19.9253 104.33 19.7435 104.577 19.5742C104.088 19.3521 103.615 19.0971 103.161 18.811Z" fill="#3B4A60"/>
<path d="M102.949 21.0263C103.232 20.7023 103.538 20.3992 103.865 20.1192C103.689 20.0783 103.518 20.0289 103.352 19.971C103.002 19.8477 102.664 19.6911 102.343 19.5034C102.072 19.7592 101.815 20.0295 101.573 20.3131L101.66 20.3745C102.067 20.6355 102.498 20.8539 102.949 21.0263Z" fill="#4E5F7A"/>
<path d="M94.7566 96.1824C93.7762 95.7666 92.6979 95.6376 91.647 95.8104C91.1268 95.8921 90.6197 96.0419 90.1387 96.256C89.6522 96.4726 89.1985 96.7564 88.7909 97.0991C88.2708 97.5371 87.8262 98.0575 87.4747 98.6395C88.3934 98.9027 88.7286 99.2053 89.3621 99.9931C89.5923 99.5498 89.8968 99.1492 90.2624 98.8088C90.5049 98.5921 90.7766 98.4105 91.0696 98.2693C91.3684 98.126 91.6846 98.0222 92.0102 97.9605C92.3369 97.8987 92.6703 97.8804 93.0018 97.9061C93.3253 97.9324 93.6431 98.0063 93.945 98.1254C94.0186 98.1525 94.0904 98.1841 94.16 98.2202L95.7139 96.7289C95.4147 96.5139 95.0939 96.3307 94.7566 96.1824Z" fill="#303F54"/>
<path d="M99.0351 102.654L97.3276 104.328C97.3485 104.844 97.3141 105.36 97.225 105.869C97.2065 105.957 97.1916 106.057 97.1723 106.147C97.153 106.237 97.132 106.323 97.11 106.391C97.0791 106.505 97.0312 106.613 96.9679 106.713C96.9295 106.77 96.878 106.816 96.8178 106.849C96.7341 106.89 96.6424 106.911 96.5493 106.912C96.3048 106.916 96.065 106.844 95.8632 106.706L95.793 106.653C95.7725 106.634 95.7515 106.616 95.7298 106.598L95.6596 106.521L95.5929 106.439C95.5337 106.358 95.4809 106.272 95.435 106.183C95.4122 106.139 95.3876 106.095 95.3674 106.05C95.1042 105.469 95.0489 104.672 95.0814 103.89C95.1189 103.103 95.2626 102.324 95.5087 101.575C95.6603 101.11 95.8478 100.657 96.0694 100.22C96.5728 99.2307 97.2363 98.3308 98.0331 97.5572C99.1834 96.4422 100.615 95.6062 102.168 95.2281L101.899 94.0474C100.104 94.4298 98.4455 95.3369 97.1021 96.5659C96.8503 96.7957 96.6081 97.037 96.3782 97.2896C95.9096 97.8011 95.489 98.3547 95.1217 98.9432C94.6992 99.6181 94.35 100.336 94.0802 101.085C93.7659 101.958 93.5708 102.869 93.5002 103.794L93.4792 104.145L93.473 104.496C93.473 104.729 93.48 104.967 93.5002 105.209C93.5379 105.719 93.6518 106.22 93.838 106.695C93.9361 106.939 94.0606 107.17 94.2092 107.387L94.2355 107.427C94.2785 107.484 94.3233 107.543 94.3654 107.602L94.5084 107.767C94.5637 107.823 94.6207 107.878 94.6777 107.932C94.7348 107.987 94.798 108.031 94.8594 108.081C95.3557 108.45 95.9577 108.65 96.5765 108.652C96.9137 108.653 97.2472 108.582 97.5549 108.445C97.6356 108.407 97.7146 108.362 97.7927 108.318C97.8708 108.274 97.9418 108.216 98.0147 108.161C98.1544 108.048 98.2804 107.918 98.3902 107.775C98.5743 107.525 98.7166 107.246 98.8114 106.95C98.8561 106.819 98.8904 106.694 98.9211 106.574C98.9518 106.455 98.9728 106.34 98.9992 106.223C99.0553 105.99 99.0816 105.752 99.1194 105.516C99.1413 105.28 99.1729 105.043 99.1773 104.805C99.1999 104.331 99.1864 103.855 99.1369 103.383C99.1141 103.134 99.079 102.893 99.0351 102.654Z" fill="#303F54"/>
<path d="M118.673 68.4067V71.0192C118.825 70.7695 118.963 70.5121 119.087 70.2481C119.248 69.9055 119.383 69.552 119.494 69.1901C119.234 68.9182 118.96 68.657 118.673 68.4067Z" fill="#1C2735"/>
<path d="M120.657 70.6206C120.617 70.718 120.577 70.8154 120.534 70.9119C120.245 71.5521 119.89 72.1609 119.476 72.7286C119.617 72.9857 119.748 73.2471 119.871 73.5181C120.386 72.8968 120.843 72.2297 121.236 71.525C121.055 71.2136 120.862 70.9136 120.657 70.6206Z" fill="#1C2735"/>
<path d="M122.054 73.136C121.818 72.5801 121.544 72.0406 121.236 71.521C120.843 72.2256 120.386 72.8927 119.871 73.5141C119.939 73.6641 120.007 73.8158 120.069 73.9685C120.827 75.8412 121.144 77.8629 120.996 79.8775C120.862 81.8789 120.253 83.8196 119.219 85.5384C118.722 86.3715 118.101 87.1235 117.376 87.7683C116.816 88.2689 116.162 88.6527 115.452 88.8973C116.131 89.7 116.458 90.2781 116.546 91.1062C116.851 90.9848 117.147 90.8436 117.432 90.6833C117.984 90.3706 118.5 89.9985 118.971 89.5736C119.868 88.7552 120.634 87.8037 121.241 86.7524C122.436 84.6996 123.122 82.3913 123.244 80.0197C123.381 77.6642 122.974 75.3089 122.054 73.136Z" fill="#303F54"/>
<path d="M120.691 63.9501C120.259 62.9147 119.649 61.9629 118.889 61.1377C118.821 61.2476 118.749 61.3544 118.673 61.4579V63.2439C119.451 64.4993 119.883 65.9546 119.807 67.395C119.778 68.0049 119.673 68.6088 119.494 69.1925C119.383 69.5543 119.248 69.9079 119.087 70.2504C118.963 70.5145 118.825 70.7719 118.673 71.0215C118.624 71.104 118.574 71.1864 118.521 71.2671C118.191 71.7795 117.808 72.2569 117.381 72.6918C116.679 73.405 115.864 73.9978 114.969 74.4462C114.089 74.8899 113.135 75.1697 112.154 75.2717C111.907 75.2944 111.658 75.3008 111.411 75.291C110.709 75.2656 110.032 75.1156 109.498 74.8094C109.325 74.7118 109.164 74.594 109.02 74.4585C108.885 74.3291 108.77 74.1814 108.676 74.0199C108.489 73.6746 108.393 73.2873 108.397 72.8944C108.394 72.4516 108.465 72.0114 108.606 71.5917C108.748 71.1599 108.953 70.7512 109.213 70.3785C109.742 69.6188 110.463 69.0133 111.303 68.624C111.339 68.6074 111.375 68.5942 111.411 68.5784V66.4967C111.089 66.5953 110.775 66.7182 110.472 66.8643C109.329 67.4144 108.353 68.2593 107.645 69.3118C107.288 69.8401 107.011 70.4175 106.822 71.0259C106.626 71.6454 106.534 72.2932 106.551 72.9427C106.564 73.6457 106.755 74.334 107.107 74.9428C107.292 75.251 107.519 75.5315 107.782 75.7761C108.039 76.0106 108.322 76.2133 108.627 76.3797C109.202 76.6839 109.826 76.8855 110.47 76.9753C110.78 77.0198 111.093 77.0445 111.407 77.049C111.713 77.0534 112.018 77.0394 112.322 77.0069C114.736 76.7306 116.93 75.5349 118.552 73.8339C118.592 73.7918 118.63 73.7462 118.67 73.705C118.956 73.3956 119.224 73.0696 119.473 72.7286C119.887 72.1609 120.241 71.5521 120.531 70.9119C120.574 70.8154 120.613 70.718 120.654 70.6206C121.071 69.6143 121.304 68.541 121.341 67.452C121.377 66.2517 121.155 65.0577 120.691 63.9501Z" fill="#303F54"/>
<path d="M119.452 57.5024C119.295 56.9274 119.05 56.3798 118.727 55.8787C118.709 55.8515 118.691 55.826 118.673 55.7988C118.059 54.8488 117.281 54.068 116.513 53.3259C116.117 52.9434 115.723 52.575 115.347 52.1978C114.977 51.8371 114.645 51.4397 114.356 51.0118C113.796 50.1766 113.545 49.1555 113.382 48.1055L112.578 48.2195C112.649 48.7827 112.762 49.3399 112.915 49.8863C113.075 50.4496 113.313 50.9874 113.624 51.4837C113.936 51.9664 114.296 52.4158 114.7 52.825C115.086 53.2312 115.483 53.6101 115.865 53.9908C116.63 54.7514 117.366 55.526 117.896 56.3954C118.159 56.8159 118.356 57.2741 118.481 57.7542C118.709 58.6456 118.577 59.5907 118.114 60.3859C118.091 60.4271 118.069 60.4675 118.044 60.5078C117.915 60.715 117.77 60.912 117.611 61.0973C117.488 61.2376 117.358 61.3714 117.221 61.4982C117.176 61.5412 117.133 61.586 117.086 61.6263C116.333 62.2904 115.412 62.7895 114.444 63.1369C114.202 63.2246 113.956 63.3001 113.708 63.3685C113.459 63.4369 113.21 63.4913 112.952 63.544C112.462 63.6466 111.961 63.6922 111.461 63.6799H111.406C111.19 63.6707 110.975 63.6413 110.764 63.5922C110.547 63.541 110.338 63.4633 110.14 63.3606C109.76 63.1709 109.445 62.8714 109.237 62.5009C109.057 62.1517 109.023 61.7457 109.141 61.371C109.263 60.9649 109.501 60.6027 109.824 60.328C110.174 60.0411 110.582 59.834 111.02 59.721C111.146 59.6859 111.275 59.6578 111.406 59.6332V58.2788C111.153 58.3193 110.903 58.3756 110.657 58.4472C110.039 58.6211 109.466 58.9276 108.979 59.3455C108.473 59.7903 108.108 60.3724 107.926 61.021C107.834 61.3577 107.804 61.7087 107.839 62.0562C107.874 62.4097 107.98 62.7526 108.149 63.065C108.481 63.6512 108.983 64.1231 109.588 64.4186C109.877 64.5631 110.183 64.6712 110.498 64.7405C110.797 64.8059 111.101 64.8424 111.406 64.8493H111.422C112.012 64.8558 112.601 64.7946 113.177 64.6668C113.454 64.6089 113.736 64.5405 114.013 64.4624C114.29 64.3843 114.563 64.2914 114.833 64.1914C115.907 63.7843 116.932 63.215 117.806 62.4211C117.861 62.3711 117.912 62.3185 117.965 62.2667C118.124 62.1114 118.278 61.9518 118.423 61.7798C118.509 61.6752 118.592 61.5675 118.671 61.457C118.751 61.3465 118.823 61.2397 118.887 61.1368L118.945 61.0491C119.261 60.5215 119.47 59.9365 119.559 59.328C119.647 58.7185 119.611 58.0975 119.452 57.5024Z" fill="#303F54"/>
<path d="M102.198 19.4043L102.189 19.4131L102.253 19.4745L102.198 19.4043Z" fill="#A3710D"/>
<path d="M112.506 31.8874C111.917 32.341 111.353 32.8269 110.807 33.2963C110.156 33.8577 109.54 34.3884 108.877 34.8753L108.713 34.9937L109.942 36.192C110.63 35.6797 111.279 35.1227 111.906 34.5823C112.433 34.127 112.981 33.6559 113.533 33.2305C114.101 32.784 114.707 32.3883 115.344 32.048L114.065 30.8198C113.523 31.1425 113.002 31.4991 112.506 31.8874Z" fill="#4E5F7A"/>
<path d="M110.402 27.7757C109.468 29.7521 107.85 31.3239 105.847 32.2014L107.144 33.4628C109.179 32.408 110.825 30.7333 111.845 28.681L110.546 27.4336C110.498 27.5608 110.448 27.6775 110.402 27.7757Z" fill="#4E5F7A"/>
<path d="M105.105 32.4836C105.029 32.5082 104.953 32.5345 104.877 32.5564C104.905 32.1774 104.964 31.8013 105.053 31.4318L103.666 30.0835C103.403 30.9318 103.178 31.859 103.165 32.8117C103.054 32.8117 102.944 32.8056 102.834 32.7977C103.62 32.867 104.447 32.8056 105.105 32.4836Z" fill="#3B4A60"/>
<path d="M103.048 34.4786C103.09 34.4891 103.135 34.4961 103.173 34.504C103.248 34.504 103.322 34.504 103.398 34.504C103.398 34.5154 103.406 34.5268 103.409 34.5373C104.072 34.5908 104.682 34.3531 105.282 34.2031C105.62 34.1073 105.952 33.9934 106.278 33.8619C106.572 33.7426 106.861 33.6083 107.145 33.4627L105.847 32.2012C105.778 32.2311 105.711 32.2627 105.641 32.289C105.461 32.3618 105.283 32.4241 105.105 32.482C104.447 32.8039 103.62 32.8653 102.838 32.796C102.811 32.796 102.784 32.796 102.756 32.7908C101.791 32.703 100.903 32.2969 100.33 31.674C99.7038 30.9924 99.3572 29.9441 99.3791 28.7984C99.3958 27.9537 99.5994 27.1071 99.8407 26.358L98.4999 25.0562C98.1183 26.0808 97.7102 27.3905 97.6839 28.7677C97.6523 30.3687 98.149 31.8091 99.0826 32.8232C99.9363 33.7522 101.22 34.3566 102.605 34.4812C102.792 34.4979 102.982 34.504 103.173 34.504C103.131 34.4961 103.09 34.4891 103.048 34.4786Z" fill="#4E5F7A"/>
<path d="M105.109 34.2514C105.167 34.2365 105.224 34.2198 105.284 34.2031C104.684 34.3531 104.074 34.5909 103.412 34.5374C103.501 34.8068 103.615 35.0675 103.751 35.3163C104.297 35.154 104.824 34.9325 105.322 34.6558C105.241 34.5265 105.17 34.3913 105.109 34.2514Z" fill="#3B4A60"/>
<path d="M108.717 34.9926C108.182 35.3733 107.57 35.7269 106.962 35.7269H106.944C106.276 35.719 105.691 35.2532 105.321 34.6558C104.823 34.9325 104.297 35.154 103.75 35.3163C104.377 36.4567 105.505 37.405 106.922 37.4217H106.962C108.132 37.4217 109.139 36.7901 109.888 36.2383L109.951 36.19L108.717 34.9926Z" fill="#4E5F7A"/>
<path d="M108.989 25.6737C109.177 25.6226 109.371 25.5966 109.566 25.5965C109.999 25.5965 110.42 25.7273 110.611 26.0352C110.845 26.4124 110.713 26.9878 110.546 27.4335L111.845 28.6809C111.877 28.6177 111.909 28.5563 111.939 28.4932C112.717 26.8264 112.43 25.7518 112.053 25.1421C111.3 23.9272 109.704 23.7184 108.543 24.0386C108.169 24.1424 107.809 24.2896 107.47 24.4772L108.786 25.7387C108.854 25.715 108.92 25.6922 108.989 25.6737Z" fill="#4E5F7A"/>
<path d="M122.176 31.2703C121.012 29.9606 119.06 29.3501 117.087 29.6764C116.091 29.8413 115.109 30.2124 114.077 30.8168L115.356 32.0449C115.984 31.707 116.661 31.4716 117.363 31.3475C118.75 31.1177 120.144 31.5291 120.913 32.3949C121.966 33.5854 121.829 35.7021 120.61 36.9259C120.083 37.4522 119.395 37.8329 118.679 38.1452V39.9839C119.77 39.5629 120.909 39.0365 121.813 38.1286C123.658 36.2671 123.827 33.1283 122.176 31.2703Z" fill="#4E5F7A"/>
</svg>
