<svg width="46" height="46" viewBox="0 0 46 46" fill="none" xmlns="http://www.w3.org/2000/svg">
<ellipse cx="23" cy="23" rx="23" ry="23" fill="url(#paint0_linear)"/>
<path d="M46 23C46 35.7025 35.7025 46 23 46C10.2975 46 0 35.7025 0 23C3.07699 34.5 10.2975 41.6875 23 41.6875C35.7025 41.6875 42.6458 34.9664 46 23Z" fill="#D7A01F"/>
<path d="M42.1667 20.5837C42.1667 23.3059 33.8001 28.7503 23.4792 28.7503C13.1584 28.7503 4.79175 23.3059 4.79175 20.5837C4.79175 10.2743 13.1584 1.91699 23.4792 1.91699C33.8001 1.91699 42.1667 10.2743 42.1667 20.5837Z" fill="#FDDA65"/>
<ellipse cx="30.6667" cy="7.66667" rx="1.91667" ry="1.91667" fill="#FFF7DB"/>
<g style="mix-blend-mode:color-burn" opacity="0.7">
<circle cx="23" cy="23" r="23" fill="#FABC29"/>
</g>
<mask id="path-6-outside-1" maskUnits="userSpaceOnUse" x="9" y="6" width="31" height="35" fill="black">
<rect fill="white" x="9" y="6" width="31" height="35"/>
<path fill-rule="evenodd" clip-rule="evenodd" d="M32.4844 7C33.6495 7 34.6066 7.27741 34.6066 7.61031C34.6066 7.61438 34.6065 7.61843 34.6062 7.62248C35.0237 7.73451 35.2862 7.89364 35.2862 8.068V8.69218V23.4742C36.0019 23.1533 36.7509 22.8996 37.5332 22.8127C37.7136 22.7849 37.9078 22.7849 38.0742 22.8404C38.2671 22.9093 38.3916 23.0467 38.4612 23.2253L38.4765 23.2149C38.5589 23.3721 38.5968 23.5656 38.6055 23.7649C38.6657 23.8243 38.7156 23.8954 38.7537 23.9781C38.9063 24.2832 38.9063 24.6855 38.8231 25.0184C38.7121 25.6981 38.4763 26.3222 38.1712 26.9187C37.6163 28.0145 36.798 28.9854 35.9518 29.8731C35.7336 30.1032 35.5117 30.3307 35.2862 30.555V32.0504C35.2862 32.744 34.7175 33.3127 34.024 33.3127H32.6369H32.05C30.7299 34.2536 29.3094 35.0462 27.782 35.6156C27.6156 35.685 26.3533 36.004 25.5211 36.1704C25.424 36.2814 25.3304 36.3889 25.2367 36.4964C25.1431 36.6039 25.0495 36.7114 24.9524 36.8224C24.9038 36.8778 24.8588 36.9298 24.8137 36.9818C24.7686 37.0339 24.7235 37.0859 24.675 37.1414C24.5853 37.2448 24.4991 37.3448 24.4129 37.4448L24.4124 37.4454L24.4115 37.4465L24.411 37.4471L24.4105 37.4476L24.4105 37.4476L24.4096 37.4487L24.4081 37.4504C24.3225 37.5497 24.2369 37.649 24.1479 37.7517C24.0164 37.904 23.8814 38.0597 23.7464 38.2155L23.7458 38.2162C23.6105 38.3723 23.4752 38.5284 23.3434 38.681C23.2604 38.7772 23.1774 38.8747 23.0939 38.9727L23.0938 38.9727C22.9124 39.1858 22.7289 39.4014 22.5389 39.6104L22.4834 39.5688C22.6364 39.2736 22.7981 38.9957 22.9616 38.7146C23.0055 38.6391 23.0496 38.5633 23.0937 38.4868L23.7595 37.4465C23.8566 37.3217 23.9398 37.1969 24.023 37.072C24.0993 36.9681 24.1755 36.8607 24.2517 36.7533L24.2519 36.753L24.2521 36.7527C24.3283 36.6453 24.4046 36.5379 24.4808 36.434C24.5362 36.3646 24.5917 36.2919 24.6472 36.2191L24.6472 36.219L24.6473 36.2189C24.7028 36.1461 24.7582 36.0733 24.8137 36.004C24.8148 35.9701 24.8161 35.9364 24.8177 35.9027C24.7751 35.9504 24.7322 35.9979 24.6889 36.0455C24.6404 36.101 24.5953 36.153 24.5502 36.205C24.5051 36.257 24.4601 36.309 24.4115 36.3645C24.3144 36.3923 24.2035 36.42 24.1064 36.4339C23.9677 36.4339 23.8428 36.3922 23.7457 36.309C23.822 36.205 23.8983 36.0975 23.9746 35.99C24.0509 35.8825 24.1272 35.775 24.2035 35.671C24.3156 35.5214 24.4278 35.3746 24.54 35.2281C24.5622 34.5478 24.6841 33.9126 24.883 33.3127H16.9214H14.9101V33.9369C14.9101 34.2698 13.9531 34.5472 12.7879 34.5472C11.6228 34.5472 10.6657 34.2698 10.6657 33.9369V33.9209C10.2622 33.8106 10.0071 33.656 10.0001 33.4864L10 33.4932V33.4816L10 33.4793L10 33.4769V32.869V9.51077C10 8.81724 10.5687 8.24854 11.2623 8.24854H12.2545C12.2747 8.21653 12.2953 8.18472 12.3163 8.15309V8.16702H28.8481L28.8502 8.15316L30.3622 8.14737V7.61038C30.3622 7.79194 30.6245 7.95449 31.0418 8.06617C31.0418 8.06272 31.042 8.05928 31.0422 8.05584C30.6248 7.94383 30.3622 7.78471 30.3622 7.61038V7.61031C30.3622 7.27741 31.3192 7 32.4844 7ZM23.7596 36.3367L23.7596 36.3368C23.6764 36.4616 23.5932 36.5864 23.4961 36.7112L22.8303 37.7515C22.7862 37.8279 22.7421 37.9037 22.6982 37.9793L22.6981 37.9793C22.5347 38.2604 22.373 38.5383 22.22 38.8334L22.2755 38.8751C22.4655 38.666 22.649 38.4505 22.8305 38.2374L22.8305 38.2373C22.914 38.1393 22.997 38.0418 23.08 37.9457C23.2117 37.7931 23.347 37.6371 23.4822 37.4811C23.6174 37.325 23.7527 37.169 23.8845 37.0164C23.9744 36.9125 24.061 36.8122 24.1475 36.7118L24.1482 36.711C24.2348 36.6105 24.3214 36.51 24.4115 36.4061C24.3144 36.4338 24.2035 36.4616 24.1064 36.4754C23.9815 36.4616 23.8428 36.4061 23.7596 36.3367Z"/>
</mask>
<path fill-rule="evenodd" clip-rule="evenodd" d="M32.4844 7C33.6495 7 34.6066 7.27741 34.6066 7.61031C34.6066 7.61438 34.6065 7.61843 34.6062 7.62248C35.0237 7.73451 35.2862 7.89364 35.2862 8.068V8.69218V23.4742C36.0019 23.1533 36.7509 22.8996 37.5332 22.8127C37.7136 22.7849 37.9078 22.7849 38.0742 22.8404C38.2671 22.9093 38.3916 23.0467 38.4612 23.2253L38.4765 23.2149C38.5589 23.3721 38.5968 23.5656 38.6055 23.7649C38.6657 23.8243 38.7156 23.8954 38.7537 23.9781C38.9063 24.2832 38.9063 24.6855 38.8231 25.0184C38.7121 25.6981 38.4763 26.3222 38.1712 26.9187C37.6163 28.0145 36.798 28.9854 35.9518 29.8731C35.7336 30.1032 35.5117 30.3307 35.2862 30.555V32.0504C35.2862 32.744 34.7175 33.3127 34.024 33.3127H32.6369H32.05C30.7299 34.2536 29.3094 35.0462 27.782 35.6156C27.6156 35.685 26.3533 36.004 25.5211 36.1704C25.424 36.2814 25.3304 36.3889 25.2367 36.4964C25.1431 36.6039 25.0495 36.7114 24.9524 36.8224C24.9038 36.8778 24.8588 36.9298 24.8137 36.9818C24.7686 37.0339 24.7235 37.0859 24.675 37.1414C24.5853 37.2448 24.4991 37.3448 24.4129 37.4448L24.4124 37.4454L24.4115 37.4465L24.411 37.4471L24.4105 37.4476L24.4105 37.4476L24.4096 37.4487L24.4081 37.4504C24.3225 37.5497 24.2369 37.649 24.1479 37.7517C24.0164 37.904 23.8814 38.0597 23.7464 38.2155L23.7458 38.2162C23.6105 38.3723 23.4752 38.5284 23.3434 38.681C23.2604 38.7772 23.1774 38.8747 23.0939 38.9727L23.0938 38.9727C22.9124 39.1858 22.7289 39.4014 22.5389 39.6104L22.4834 39.5688C22.6364 39.2736 22.7981 38.9957 22.9616 38.7146C23.0055 38.6391 23.0496 38.5633 23.0937 38.4868L23.7595 37.4465C23.8566 37.3217 23.9398 37.1969 24.023 37.072C24.0993 36.9681 24.1755 36.8607 24.2517 36.7533L24.2519 36.753L24.2521 36.7527C24.3283 36.6453 24.4046 36.5379 24.4808 36.434C24.5362 36.3646 24.5917 36.2919 24.6472 36.2191L24.6472 36.219L24.6473 36.2189C24.7028 36.1461 24.7582 36.0733 24.8137 36.004C24.8148 35.9701 24.8161 35.9364 24.8177 35.9027C24.7751 35.9504 24.7322 35.9979 24.6889 36.0455C24.6404 36.101 24.5953 36.153 24.5502 36.205C24.5051 36.257 24.4601 36.309 24.4115 36.3645C24.3144 36.3923 24.2035 36.42 24.1064 36.4339C23.9677 36.4339 23.8428 36.3922 23.7457 36.309C23.822 36.205 23.8983 36.0975 23.9746 35.99C24.0509 35.8825 24.1272 35.775 24.2035 35.671C24.3156 35.5214 24.4278 35.3746 24.54 35.2281C24.5622 34.5478 24.6841 33.9126 24.883 33.3127H16.9214H14.9101V33.9369C14.9101 34.2698 13.9531 34.5472 12.7879 34.5472C11.6228 34.5472 10.6657 34.2698 10.6657 33.9369V33.9209C10.2622 33.8106 10.0071 33.656 10.0001 33.4864L10 33.4932V33.4816L10 33.4793L10 33.4769V32.869V9.51077C10 8.81724 10.5687 8.24854 11.2623 8.24854H12.2545C12.2747 8.21653 12.2953 8.18472 12.3163 8.15309V8.16702H28.8481L28.8502 8.15316L30.3622 8.14737V7.61038C30.3622 7.79194 30.6245 7.95449 31.0418 8.06617C31.0418 8.06272 31.042 8.05928 31.0422 8.05584C30.6248 7.94383 30.3622 7.78471 30.3622 7.61038V7.61031C30.3622 7.27741 31.3192 7 32.4844 7ZM23.7596 36.3367L23.7596 36.3368C23.6764 36.4616 23.5932 36.5864 23.4961 36.7112L22.8303 37.7515C22.7862 37.8279 22.7421 37.9037 22.6982 37.9793L22.6981 37.9793C22.5347 38.2604 22.373 38.5383 22.22 38.8334L22.2755 38.8751C22.4655 38.666 22.649 38.4505 22.8305 38.2374L22.8305 38.2373C22.914 38.1393 22.997 38.0418 23.08 37.9457C23.2117 37.7931 23.347 37.6371 23.4822 37.4811C23.6174 37.325 23.7527 37.169 23.8845 37.0164C23.9744 36.9125 24.061 36.8122 24.1475 36.7118L24.1482 36.711C24.2348 36.6105 24.3214 36.51 24.4115 36.4061C24.3144 36.4338 24.2035 36.4616 24.1064 36.4754C23.9815 36.4616 23.8428 36.4061 23.7596 36.3367Z" fill="#C6C0B0"/>
<path d="M34.6062 7.62248L33.6083 7.55801C33.5776 8.0336 33.8867 8.46478 34.347 8.58831L34.6062 7.62248ZM35.2862 23.4742H34.2862C34.2862 23.8133 34.4581 24.1293 34.7427 24.3136C35.0273 24.4979 35.386 24.5254 35.6954 24.3867L35.2862 23.4742ZM37.5332 22.8127L37.6437 23.8065C37.6576 23.805 37.6715 23.8032 37.6853 23.801L37.5332 22.8127ZM38.0742 22.8404L38.4105 21.8987C38.4039 21.8963 38.3972 21.894 38.3904 21.8917L38.0742 22.8404ZM38.4612 23.2253L37.5295 23.5884C37.64 23.8719 37.8734 24.0896 38.1639 24.1801C38.4543 24.2705 38.7701 24.2238 39.022 24.0532L38.4612 23.2253ZM38.4765 23.2149L39.3624 22.7509C39.2302 22.4986 38.9967 22.3146 38.7205 22.2451C38.4443 22.1757 38.1516 22.2272 37.9157 22.387L38.4765 23.2149ZM38.6055 23.7649L37.6065 23.8087C37.6175 24.0609 37.7236 24.2997 37.9033 24.4769L38.6055 23.7649ZM38.7537 23.9781L37.8458 24.3972C37.8501 24.4066 37.8546 24.416 37.8593 24.4253L38.7537 23.9781ZM38.8231 25.0184L37.8529 24.7759C37.8462 24.8027 37.8406 24.8299 37.8362 24.8573L38.8231 25.0184ZM38.1712 26.9187L37.2809 26.4632L37.279 26.467L38.1712 26.9187ZM35.9518 29.8731L35.228 29.1832L35.2263 29.1849L35.9518 29.8731ZM35.2862 30.555L34.5811 29.8459C34.3923 30.0336 34.2862 30.2888 34.2862 30.555H35.2862ZM32.05 33.3127V32.3127C31.8419 32.3127 31.6391 32.3776 31.4696 32.4984L32.05 33.3127ZM27.782 35.6156L27.4327 34.6786C27.4208 34.683 27.4091 34.6877 27.3974 34.6925L27.782 35.6156ZM25.5211 36.1704L25.325 35.1899C25.1091 35.233 24.9135 35.3462 24.7685 35.5119L25.5211 36.1704ZM25.2367 36.4964L25.9908 37.1532L25.9908 37.1532L25.2367 36.4964ZM24.9524 36.8224L25.705 37.4809L25.705 37.4809L24.9524 36.8224ZM24.8137 36.9818L24.058 36.3269L24.058 36.3269L24.8137 36.9818ZM24.675 37.1414L23.9224 36.4829L23.9193 36.4865L24.675 37.1414ZM24.4129 37.4448L25.1688 38.0995L25.1703 38.0977L24.4129 37.4448ZM24.4124 37.4454L23.6565 36.7908L23.6546 36.7929L24.4124 37.4454ZM24.4115 37.4465L25.169 38.0993L25.1693 38.099L24.4115 37.4465ZM24.411 37.4471L23.6535 36.7942L23.6534 36.7943L24.411 37.4471ZM24.4105 37.4476L25.1433 38.1281C25.1517 38.119 25.16 38.1098 25.1681 38.1004L24.4105 37.4476ZM24.4105 37.4476L23.6777 36.7672C23.6694 36.7761 23.6613 36.7851 23.6534 36.7943L24.4105 37.4476ZM24.4096 37.4487L25.1665 38.1021L25.1667 38.102L24.4096 37.4487ZM24.4081 37.4504L23.6511 36.797L23.6507 36.7975L24.4081 37.4504ZM24.1479 37.7517L23.3922 37.0968L23.3911 37.0981L24.1479 37.7517ZM23.7464 38.2155L24.5009 38.8718L24.5021 38.8704L23.7464 38.2155ZM23.7458 38.2162L22.9913 37.5598L22.9901 37.5612L23.7458 38.2162ZM23.3434 38.681L24.1002 39.3347L24.1002 39.3347L23.3434 38.681ZM23.0939 38.9727L23.8532 39.6235L23.8553 39.6209L23.0939 38.9727ZM23.0938 38.9727L22.3346 38.3219L22.3324 38.3245L23.0938 38.9727ZM22.5389 39.6104L21.9389 40.4104C22.3515 40.7199 22.9319 40.6647 23.2788 40.283L22.5389 39.6104ZM22.4834 39.5688L21.5956 39.1084C21.3706 39.5424 21.4923 40.0754 21.8834 40.3687L22.4834 39.5688ZM22.9616 38.7146L23.826 39.2174L22.9616 38.7146ZM23.0937 38.4868L22.2514 37.9478C22.2432 37.9607 22.2352 37.9738 22.2275 37.9871L23.0937 38.4868ZM23.7595 37.4465L22.9702 36.8326C22.9514 36.8567 22.9337 36.8817 22.9172 36.9075L23.7595 37.4465ZM24.023 37.072L23.2166 36.4807C23.2078 36.4927 23.1993 36.5049 23.191 36.5173L24.023 37.072ZM24.2517 36.7533L25.0672 37.3321L25.068 37.3309L24.2517 36.7533ZM24.2521 36.7527L23.4366 36.1739L23.4358 36.1751L24.2521 36.7527ZM24.4808 36.434L23.6999 35.8093C23.6912 35.8202 23.6827 35.8313 23.6744 35.8426L24.4808 36.434ZM24.6472 36.2191L25.4426 36.8251L25.4472 36.8191L24.6472 36.2191ZM24.6472 36.219L23.8518 35.6129L23.8472 35.619L24.6472 36.219ZM24.6473 36.2189L23.8519 35.6128L23.8519 35.6128L24.6473 36.2189ZM24.8137 36.004L25.5945 36.6287C25.7295 36.46 25.8062 36.2521 25.8132 36.0362L24.8137 36.004ZM24.8177 35.9027L25.8166 35.9497C25.8365 35.527 25.5881 35.1376 25.1965 34.9773C24.8049 34.817 24.3548 34.9205 24.0726 35.2358L24.8177 35.9027ZM24.6889 36.0455L23.949 35.3728C23.9447 35.3775 23.9405 35.3822 23.9363 35.387L24.6889 36.0455ZM24.5502 36.205L23.7945 35.5501L23.7945 35.5501L24.5502 36.205ZM24.4115 36.3645L24.6862 37.326C24.8714 37.2731 25.0373 37.1679 25.1641 37.023L24.4115 36.3645ZM24.1064 36.4339V37.4339C24.1537 37.4339 24.2009 37.4305 24.2478 37.4238L24.1064 36.4339ZM23.7457 36.309L22.9393 35.7177C22.6301 36.1393 22.6979 36.728 23.0949 37.0683L23.7457 36.309ZM24.2035 35.671L23.4034 35.0709L23.397 35.0796L24.2035 35.671ZM24.54 35.2281L25.334 35.8361C25.4608 35.6705 25.5327 35.4693 25.5395 35.2608L24.54 35.2281ZM24.883 33.3127L25.8322 33.6273C25.9332 33.3224 25.8817 32.9876 25.6937 32.7273C25.5057 32.4669 25.2041 32.3127 24.883 32.3127V33.3127ZM14.9101 33.3127V32.3127C14.3579 32.3127 13.9101 32.7604 13.9101 33.3127H14.9101ZM10.6657 33.9209H11.6657C11.6657 33.4701 11.3641 33.0751 10.9293 32.9563L10.6657 33.9209ZM10.0001 33.4864L10.9993 33.4453C10.9771 32.9052 10.5297 32.4805 9.9892 32.4865C9.44869 32.4924 9.01072 32.9267 9.00033 33.4672L10.0001 33.4864ZM10 33.4932H9.00002C9.00002 34.0418 9.44189 34.4879 9.9904 34.4932C10.5389 34.4984 10.9893 34.0609 10.9998 33.5124L10 33.4932ZM10 33.4816H11L11 33.4749L10 33.4816ZM10 33.4793L8.99993 33.4726L9.00002 33.486L10 33.4793ZM10 33.4769L11 33.4836V33.4769H10ZM12.2545 8.24854V9.24854C12.5976 9.24854 12.9168 9.07263 13.1 8.78253L12.2545 8.24854ZM12.3163 8.15309H13.3163C13.3163 7.7121 13.0275 7.32317 12.6053 7.19575C12.1831 7.06833 11.7273 7.23251 11.4833 7.59987L12.3163 8.15309ZM12.3163 8.16702H11.3163C11.3163 8.7193 11.7641 9.16702 12.3163 9.16702V8.16702ZM28.8481 8.16702V9.16702C29.3422 9.16702 29.7622 8.80615 29.8367 8.31768L28.8481 8.16702ZM28.8502 8.15316L28.8464 7.15317C28.3537 7.15506 27.9359 7.51547 27.8616 8.00251L28.8502 8.15316ZM30.3622 8.14737L30.366 9.14736C30.9168 9.14525 31.3622 8.69816 31.3622 8.14737H30.3622ZM31.0418 8.06617L30.7832 9.03217C31.0817 9.11206 31.4004 9.04948 31.6465 8.86263C31.8926 8.67578 32.0385 8.38566 32.0417 8.07668L31.0418 8.06617ZM31.0422 8.05584L32.0398 8.12557C32.0731 7.64817 31.7636 7.21404 31.3014 7.09001L31.0422 8.05584ZM23.7596 36.3368L22.9403 35.7633C22.936 35.7695 22.9317 35.7758 22.9275 35.7821L23.7596 36.3368ZM23.7596 36.3367L24.3998 35.5685C24.1848 35.3894 23.9047 35.3085 23.6273 35.3455C23.35 35.3825 23.1008 35.534 22.9404 35.7633L23.7596 36.3367ZM23.4961 36.7112L22.7067 36.0973C22.6879 36.1214 22.6703 36.1464 22.6538 36.1722L23.4961 36.7112ZM22.8303 37.7515L21.988 37.2125C21.9797 37.2254 21.9718 37.2385 21.9641 37.2518L22.8303 37.7515ZM22.6982 37.9793L23.5619 38.4832L23.5626 38.4821L22.6982 37.9793ZM22.6981 37.9793L21.8344 37.4755L21.8337 37.4766L22.6981 37.9793ZM22.22 38.8334L21.3322 38.3731C21.1072 38.8071 21.2289 39.3401 21.62 39.6334L22.22 38.8334ZM22.2755 38.8751L21.6755 39.6751C22.0881 39.9845 22.6684 39.9294 23.0154 39.5477L22.2755 38.8751ZM22.8305 38.2374L23.5919 38.8857C23.5957 38.8812 23.5994 38.8767 23.6032 38.8721L22.8305 38.2374ZM22.8305 38.2373L22.0691 37.589C22.0653 37.5935 22.0615 37.598 22.0578 37.6026L22.8305 38.2373ZM23.08 37.9457L23.8368 38.5993L23.8368 38.5993L23.08 37.9457ZM23.8845 37.0164L23.1288 36.3615L23.1276 36.3628L23.8845 37.0164ZM24.1475 36.7118L24.9049 37.3647L24.9064 37.363L24.1475 36.7118ZM24.1482 36.711L23.3908 36.0581L23.3893 36.0598L24.1482 36.711ZM24.4115 36.4061L25.1672 37.061C25.457 36.7267 25.4926 36.2416 25.2548 35.8685C25.017 35.4955 24.5622 35.323 24.1368 35.4445L24.4115 36.4061ZM24.1064 36.4754L23.996 37.4693C24.0797 37.4786 24.1644 37.4773 24.2478 37.4654L24.1064 36.4754ZM35.6066 7.61031C35.6066 7.01602 35.1899 6.67493 34.9981 6.54554C34.7683 6.39046 34.501 6.28909 34.2594 6.21945C33.7628 6.07628 33.1351 6 32.4844 6V8C32.9988 8 33.4322 8.06243 33.7054 8.14119C33.8488 8.18251 33.8935 8.21291 33.8795 8.20347C33.8708 8.19754 33.8135 8.15857 33.7521 8.07343C33.6855 7.98108 33.6066 7.82163 33.6066 7.61031H35.6066ZM35.6041 7.68695C35.6057 7.66183 35.6066 7.63627 35.6066 7.61031H33.6066C33.6066 7.59248 33.6072 7.57503 33.6083 7.55801L35.6041 7.68695ZM36.2862 8.068C36.2862 7.44754 35.8345 7.1032 35.6427 6.98017C35.4029 6.82635 35.1227 6.72571 34.8654 6.65665L34.347 8.58831C34.5072 8.63128 34.5669 8.66622 34.5628 8.66356C34.5594 8.66138 34.5034 8.62622 34.441 8.54362C34.3731 8.4538 34.2862 8.29007 34.2862 8.068H36.2862ZM36.2862 8.69218V8.068H34.2862V8.69218H36.2862ZM36.2862 23.4742V8.69218H34.2862V23.4742H36.2862ZM37.4228 21.8188C36.5004 21.9213 35.6464 22.2168 34.877 22.5618L35.6954 24.3867C36.3573 24.0898 37.0013 23.8779 37.6437 23.8065L37.4228 21.8188ZM38.3904 21.8917C38.0182 21.7676 37.6489 21.7831 37.3812 21.8243L37.6853 23.801C37.724 23.7951 37.7532 23.7939 37.7712 23.7946C37.7902 23.7953 37.7833 23.7975 37.758 23.7891L38.3904 21.8917ZM39.393 22.8621C39.2316 22.4481 38.9096 22.0769 38.4105 21.8987L37.7379 23.7821C37.6956 23.7671 37.6446 23.7375 37.5995 23.6914C37.5564 23.6474 37.5367 23.6068 37.5295 23.5884L39.393 22.8621ZM37.9157 22.387L37.9004 22.3973L39.022 24.0532L39.0373 24.0429L37.9157 22.387ZM39.6045 23.7212C39.5921 23.4384 39.5371 23.0845 39.3624 22.7509L37.5907 23.6789C37.5836 23.6653 37.5871 23.6674 37.5929 23.6931C37.5985 23.7183 37.6042 23.7566 37.6065 23.8087L39.6045 23.7212ZM39.6617 23.559C39.5752 23.3716 39.457 23.2002 39.3077 23.053L37.9033 24.4769C37.8744 24.4484 37.8559 24.4191 37.8458 24.3972L39.6617 23.559ZM39.7932 25.2609C39.9115 24.7879 39.9432 24.121 39.6482 23.5309L37.8593 24.4253C37.859 24.4247 37.8743 24.4581 37.878 24.5359C37.8816 24.6111 37.8727 24.697 37.8529 24.7759L39.7932 25.2609ZM39.0614 27.3742C39.4003 26.7118 39.6781 25.9876 39.81 25.1795L37.8362 24.8573C37.7461 25.4086 37.5524 25.9327 37.2809 26.4632L39.0614 27.3742ZM36.6757 30.5631C37.5428 29.6533 38.4418 28.598 39.0633 27.3704L37.279 26.467C36.7909 27.4309 36.0531 28.3175 35.228 29.1832L36.6757 30.5631ZM35.9914 31.264C36.2241 31.0326 36.4527 30.7982 36.6774 30.5613L35.2263 29.1849C35.0145 29.4083 34.7994 29.6288 34.5811 29.8459L35.9914 31.264ZM36.2862 32.0504V30.555H34.2862V32.0504H36.2862ZM34.024 34.3127C35.2698 34.3127 36.2862 33.2963 36.2862 32.0504H34.2862C34.2862 32.1917 34.1652 32.3127 34.024 32.3127V34.3127ZM32.6369 34.3127H34.024V32.3127H32.6369V34.3127ZM32.05 34.3127H32.6369V32.3127H32.05V34.3127ZM28.1313 36.5526C29.7532 35.948 31.2508 35.1104 32.6304 34.127L31.4696 32.4984C30.2091 33.3968 28.8655 34.1445 27.4327 34.6786L28.1313 36.5526ZM25.7172 37.151C26.1535 37.0637 26.6931 36.9385 27.142 36.8272C27.3671 36.7713 27.5745 36.7177 27.739 36.6728C27.8713 36.6367 28.0525 36.5862 28.1666 36.5387L27.3974 34.6925C27.4283 34.6797 27.3893 34.6951 27.2121 34.7435C27.0671 34.7831 26.8757 34.8326 26.6605 34.886C26.2285 34.9932 25.7209 35.1107 25.325 35.1899L25.7172 37.151ZM25.9908 37.1532C26.0846 37.0456 26.1774 36.9389 26.2737 36.8289L24.7685 35.5119C24.6705 35.6239 24.5762 35.7322 24.4827 35.8396L25.9908 37.1532ZM25.705 37.4809C25.8029 37.3689 25.8973 37.2606 25.9908 37.1532L24.4827 35.8396C24.3889 35.9472 24.296 36.0539 24.1998 36.1639L25.705 37.4809ZM25.5694 37.6368C25.6146 37.5846 25.6582 37.5343 25.705 37.4809L24.1998 36.1639C24.1495 36.2214 24.1029 36.2751 24.058 36.3269L25.5694 37.6368ZM25.4276 37.7999C25.4779 37.7423 25.5245 37.6886 25.5694 37.6368L24.058 36.3269C24.0128 36.3791 23.9692 36.4294 23.9224 36.4829L25.4276 37.7999ZM25.1703 38.0977C25.2567 37.9976 25.342 37.8986 25.4307 37.7963L23.9193 36.4865C23.8286 36.591 23.7416 36.692 23.6555 36.7919L25.1703 38.0977ZM25.1683 38.1001L25.1688 38.0995L23.657 36.7901L23.6565 36.7908L25.1683 38.1001ZM25.1693 38.099L25.1701 38.098L23.6546 36.7929L23.6537 36.7939L25.1693 38.099ZM25.1684 38.0999L25.169 38.0993L23.654 36.7936L23.6535 36.7942L25.1684 38.0999ZM25.1681 38.1004L25.1685 38.0998L23.6534 36.7943L23.653 36.7948L25.1681 38.1004ZM25.1433 38.1281L25.1433 38.1281L23.6777 36.7672L23.6777 36.7672L25.1433 38.1281ZM25.1667 38.102L25.1676 38.1009L23.6534 36.7943L23.6525 36.7954L25.1667 38.102ZM25.1651 38.1038L25.1665 38.1021L23.6526 36.7953L23.6511 36.797L25.1651 38.1038ZM24.9036 38.4066C24.9936 38.3028 25.08 38.2025 25.1655 38.1033L23.6507 36.7975C23.565 36.8969 23.4802 36.9952 23.3922 37.0968L24.9036 38.4066ZM24.5021 38.8704C24.637 38.7148 24.7725 38.5584 24.9047 38.4053L23.3911 37.0981C23.2602 37.2496 23.1258 37.4047 22.9907 37.5605L24.5021 38.8704ZM24.5003 38.8725L24.5009 38.8718L22.992 37.5591L22.9913 37.5598L24.5003 38.8725ZM24.1002 39.3347C24.2314 39.1828 24.3661 39.0273 24.5015 38.8711L22.9901 37.5612C22.8549 37.7172 22.7191 37.874 22.5866 38.0274L24.1002 39.3347ZM23.8553 39.6209C23.9391 39.5225 24.0199 39.4277 24.1002 39.3347L22.5866 38.0274C22.5009 38.1266 22.4156 38.2268 22.3325 38.3244L23.8553 39.6209ZM23.8531 39.6235L23.8532 39.6234L22.3347 38.3219L22.3346 38.3219L23.8531 39.6235ZM23.2788 40.283C23.4816 40.06 23.6755 39.8321 23.8552 39.621L22.3324 38.3245C22.1493 38.5396 21.9762 38.7427 21.7989 38.9377L23.2788 40.283ZM21.8834 40.3687L21.9389 40.4104L23.1389 38.8104L23.0834 38.7688L21.8834 40.3687ZM22.0972 38.2118C21.9355 38.4899 21.7616 38.7883 21.5956 39.1084L23.3712 40.0291C23.5113 39.7589 23.6607 39.5015 23.826 39.2174L22.0972 38.2118ZM22.2275 37.9871C22.1845 38.0617 22.1413 38.136 22.0972 38.2118L23.826 39.2174C23.8698 39.1421 23.9148 39.0648 23.9599 38.9866L22.2275 37.9871ZM22.9172 36.9075L22.2514 37.9478L23.936 39.0259L24.6018 37.9856L22.9172 36.9075ZM23.191 36.5173C23.1052 36.646 23.0414 36.741 22.9702 36.8326L24.5489 38.0605C24.6718 37.9024 24.7745 37.7477 24.8551 37.6267L23.191 36.5173ZM23.4362 36.1746C23.3592 36.2831 23.2875 36.3841 23.2166 36.4807L24.8295 37.6634C24.9111 37.5521 24.9918 37.4383 25.0672 37.3321L23.4362 36.1746ZM23.4356 36.1754L23.4354 36.1757L25.068 37.3309L25.0682 37.3306L23.4356 36.1754ZM23.4358 36.1751L23.4356 36.1754L25.0682 37.3306L25.0685 37.3303L23.4358 36.1751ZM23.6744 35.8426C23.5928 35.9539 23.512 36.0677 23.4366 36.1739L25.0676 37.3315C25.1447 37.2229 25.2164 37.1219 25.2872 37.0253L23.6744 35.8426ZM23.8517 35.613C23.7949 35.6876 23.7467 35.7508 23.6999 35.8093L25.2617 37.0587C25.3258 36.9785 25.3885 36.8961 25.4426 36.8251L23.8517 35.613ZM23.8472 35.619L23.8472 35.6191L25.4472 36.8191L25.4472 36.819L23.8472 35.619ZM23.8519 35.6128L23.8518 35.6129L25.4427 36.825L25.4428 36.8249L23.8519 35.6128ZM24.0328 35.3793C23.9687 35.4595 23.906 35.5418 23.8519 35.6128L25.4428 36.8249C25.4996 36.7503 25.5478 36.6872 25.5945 36.6287L24.0328 35.3793ZM23.8188 35.8558C23.817 35.8943 23.8154 35.933 23.8142 35.9718L25.8132 36.0362C25.8141 36.0073 25.8152 35.9784 25.8166 35.9497L23.8188 35.8558ZM25.4289 36.7182C25.4739 36.6687 25.5185 36.6192 25.5628 36.5697L24.0726 35.2358C24.0317 35.2815 23.9905 35.3272 23.949 35.3728L25.4289 36.7182ZM25.3059 36.8599C25.3512 36.8077 25.3948 36.7574 25.4415 36.704L23.9363 35.387C23.886 35.4445 23.8394 35.4983 23.7945 35.5501L25.3059 36.8599ZM25.1641 37.023C25.2144 36.9655 25.261 36.9117 25.3059 36.8599L23.7945 35.5501C23.7493 35.6023 23.7057 35.6526 23.6589 35.706L25.1641 37.023ZM24.2478 37.4238C24.4117 37.4004 24.5734 37.3583 24.6862 37.326L24.1368 35.403C24.0554 35.4262 23.9952 35.4396 23.9649 35.4439L24.2478 37.4238ZM23.0949 37.0683C23.3983 37.3283 23.7642 37.4339 24.1064 37.4339V35.4339C24.1711 35.4339 24.2873 35.4562 24.3965 35.5498L23.0949 37.0683ZM23.1591 35.4112C23.082 35.5199 23.0102 35.621 22.9393 35.7177L24.5521 36.9004C24.6338 36.789 24.7146 36.6751 24.7901 36.5687L23.1591 35.4112ZM23.397 35.0796C23.3154 35.191 23.2346 35.3049 23.1591 35.4112L24.7901 36.5687C24.8672 36.4601 24.939 36.359 25.0099 36.2623L23.397 35.0796ZM23.7461 34.6201C23.6338 34.7667 23.5189 34.917 23.4035 35.071L25.0035 36.271C25.1123 36.1258 25.2218 35.9825 25.334 35.8361L23.7461 34.6201ZM23.9337 32.9981C23.7064 33.684 23.5661 34.4141 23.5406 35.1954L25.5395 35.2608C25.5584 34.6816 25.6619 34.1412 25.8322 33.6273L23.9337 32.9981ZM16.9214 34.3127H24.883V32.3127H16.9214V34.3127ZM14.9101 34.3127H16.9214V32.3127H14.9101V34.3127ZM15.9101 33.9369V33.3127H13.9101V33.9369H15.9101ZM12.7879 35.5472C13.4386 35.5472 14.0663 35.4709 14.563 35.3277C14.8045 35.2581 15.0718 35.1567 15.3017 35.0016C15.4935 34.8722 15.9101 34.5312 15.9101 33.9369H13.9101C13.9101 33.7255 13.9891 33.5661 14.0557 33.4737C14.1171 33.3886 14.1743 33.3496 14.1831 33.3437C14.1971 33.3343 14.1523 33.3647 14.009 33.406C13.7358 33.4847 13.3024 33.5472 12.7879 33.5472V35.5472ZM9.66571 33.9369C9.66571 34.5312 10.0824 34.8722 10.2742 35.0016C10.504 35.1567 10.7713 35.2581 11.0129 35.3277C11.5095 35.4709 12.1372 35.5472 12.7879 35.5472V33.5472C12.2735 33.5472 11.8401 33.4847 11.5669 33.406C11.4236 33.3647 11.3788 33.3343 11.3928 33.3437C11.4015 33.3496 11.4588 33.3886 11.5202 33.4737C11.5868 33.5661 11.6657 33.7255 11.6657 33.9369H9.66571ZM9.66571 33.9209V33.9369H11.6657V33.9209H9.66571ZM9.00099 33.5275C9.02538 34.1201 9.45611 34.4472 9.6452 34.5682C9.8795 34.7181 10.1517 34.8171 10.4021 34.8855L10.9293 32.9563C10.7762 32.9144 10.7191 32.881 10.7233 32.8836C10.7268 32.8858 10.7793 32.9189 10.8394 32.9959C10.9037 33.0785 10.9905 33.232 10.9993 33.4453L9.00099 33.5275ZM10.9998 33.5124L11 33.5056L9.00033 33.4672L9.0002 33.474L10.9998 33.5124ZM9.00002 33.4816V33.4932H11V33.4816H9.00002ZM9.00002 33.486L9.00004 33.4883L11 33.4749L11 33.4725L9.00002 33.486ZM9.00004 33.4702L9.00002 33.4726L11 33.4859L11 33.4836L9.00004 33.4702ZM9.00002 32.869V33.4769H11V32.869H9.00002ZM9.00002 9.51077V32.869H11V9.51077H9.00002ZM11.2623 7.24854C10.0164 7.24854 9.00002 8.26495 9.00002 9.51077H11C11 9.36952 11.121 9.24854 11.2623 9.24854V7.24854ZM12.2545 7.24854H11.2623V9.24854H12.2545V7.24854ZM11.4833 7.59987C11.4581 7.63786 11.4333 7.67609 11.409 7.71454L13.1 8.78253C13.1162 8.75697 13.1326 8.73157 13.1494 8.70632L11.4833 7.59987ZM13.3163 8.16702V8.15309H11.3163V8.16702H13.3163ZM28.8481 7.16702H12.3163V9.16702H28.8481V7.16702ZM27.8616 8.00251L27.8595 8.01636L29.8367 8.31768L29.8388 8.30382L27.8616 8.00251ZM30.3583 7.14738L28.8464 7.15317L28.854 9.15316L30.366 9.14736L30.3583 7.14738ZM29.3622 7.61038V8.14737H31.3622V7.61038H29.3622ZM31.3003 7.10018C31.1428 7.05802 31.0869 7.02366 31.0943 7.0285C31.0997 7.0321 31.1556 7.06849 31.2166 7.15189C31.2833 7.24292 31.3622 7.40088 31.3622 7.61038H29.3622C29.3622 8.21849 29.7921 8.56613 29.9967 8.70046C30.2396 8.85988 30.5235 8.96264 30.7832 9.03217L31.3003 7.10018ZM30.0446 7.98612C30.0432 8.00719 30.0421 8.03048 30.0418 8.05567L32.0417 8.07668C32.0415 8.09496 32.0408 8.11137 32.0398 8.12557L30.0446 7.98612ZM29.3622 7.61076C29.3624 8.23104 29.814 8.57522 30.0058 8.69821C30.2455 8.85199 30.5257 8.95263 30.783 9.02167L31.3014 7.09001C31.1413 7.04704 31.0815 7.01211 31.0856 7.01474C31.0889 7.01691 31.1449 7.05204 31.2073 7.13458C31.2752 7.22432 31.3621 7.38797 31.3622 7.60999L29.3622 7.61076ZM29.3622 7.61031V7.61038H31.3622V7.61031H29.3622ZM32.4844 6C31.8337 6 31.206 6.07628 30.7093 6.21945C30.4678 6.28909 30.2005 6.39046 29.9706 6.54554C29.7788 6.67493 29.3622 7.01602 29.3622 7.61031H31.3622C31.3622 7.82163 31.2832 7.98108 31.2166 8.07343C31.1553 8.15856 31.098 8.19754 31.0892 8.20347C31.0752 8.21291 31.12 8.18251 31.2633 8.14119C31.5365 8.06243 31.9699 8 32.4844 8V6ZM24.5788 36.9102L24.5788 36.9102L22.9404 35.7633L22.9403 35.7633L24.5788 36.9102ZM24.2854 37.3252C24.4084 37.1671 24.511 37.0124 24.5916 36.8915L22.9275 35.7821C22.8417 35.9108 22.7779 36.0057 22.7067 36.0973L24.2854 37.3252ZM23.6726 38.2906L24.3383 37.2503L22.6538 36.1722L21.988 37.2125L23.6726 38.2906ZM23.5626 38.4821C23.6064 38.4068 23.6513 38.3295 23.6965 38.2513L21.9641 37.2518C21.921 37.3264 21.8778 37.4007 21.8337 37.4765L23.5626 38.4821ZM23.5619 38.4832L23.5619 38.4832L21.8344 37.4754L21.8344 37.4755L23.5619 38.4832ZM23.1077 39.2938C23.2478 39.0236 23.3973 38.7662 23.5625 38.4821L21.8337 37.4766C21.672 37.7546 21.4982 38.053 21.3322 38.3731L23.1077 39.2938ZM22.8754 38.0751L22.82 38.0334L21.62 39.6334L21.6755 39.6751L22.8754 38.0751ZM22.0691 37.5891C21.8859 37.8043 21.7128 38.0074 21.5355 38.2024L23.0154 39.5477C23.2182 39.3247 23.4121 39.0967 23.5919 38.8857L22.0691 37.5891ZM22.0578 37.6026L22.0577 37.6026L23.6032 38.8721L23.6032 38.872L22.0578 37.6026ZM22.3231 37.2921C22.2375 37.3913 22.1522 37.4915 22.0691 37.589L23.5919 38.8856C23.6757 38.7871 23.7565 38.6923 23.8368 38.5993L22.3231 37.2921ZM22.7265 36.8261C22.5914 36.982 22.4556 37.1388 22.3231 37.2921L23.8368 38.5993C23.9679 38.4475 24.1025 38.2921 24.2379 38.136L22.7265 36.8261ZM23.1276 36.3628C22.9965 36.5146 22.8619 36.67 22.7265 36.8261L24.2379 38.136C24.373 37.9801 24.5088 37.8233 24.6413 37.67L23.1276 36.3628ZM23.3901 36.0588C23.3035 36.1593 23.2178 36.2588 23.1288 36.3615L24.6401 37.6713C24.7311 37.5663 24.8185 37.465 24.9049 37.3647L23.3901 36.0588ZM23.3893 36.0598L23.3887 36.0605L24.9064 37.363L24.907 37.3623L23.3893 36.0598ZM23.6559 35.7511C23.5648 35.8563 23.4773 35.9577 23.3908 36.0581L24.9056 37.364C24.9923 37.2633 25.0781 37.1638 25.1672 37.061L23.6559 35.7511ZM24.2478 37.4654C24.4117 37.442 24.5735 37.3998 24.6863 37.3676L24.1368 35.4445C24.0554 35.4678 23.9953 35.4811 23.965 35.4855L24.2478 37.4654ZM23.1194 37.1049C23.3762 37.3189 23.7081 37.4373 23.996 37.4693L24.2168 35.4815C24.2535 35.4856 24.2753 35.493 24.2888 35.4984C24.2973 35.5018 24.3098 35.5074 24.326 35.5166C24.3414 35.5253 24.3676 35.5416 24.3998 35.5685L23.1194 37.1049Z" fill="#001E26" mask="url(#path-6-outside-1)"/>
<g opacity="0.4">
<path opacity="0.4" d="M35.2863 8.6925V8.06832C35.2863 7.73542 34.3292 7.45801 33.1641 7.45801C31.9989 7.45801 31.0418 7.73542 31.0418 8.06832V8.6925H29.5299H12.9961H11.928C11.2345 8.6925 10.6658 9.2612 10.6658 9.95473V33.313V33.9372C10.6658 34.2701 11.6229 34.5475 12.788 34.5475C13.9531 34.5475 14.9102 34.2701 14.9102 33.9372V33.313H16.9215H32.637H34.024C34.7176 33.313 35.2863 32.7443 35.2863 32.0508V8.6925Z" fill="#606060"/>
</g>
<path d="M30.3621 7.61035V10.1348H32.4843V8.22066C31.3191 8.23453 30.3621 7.95712 30.3621 7.61035Z" fill="#C6C6C6"/>
<path d="M12.1221 32.8692C13.3011 32.8692 14.2443 33.1466 14.2443 33.4795V30.9551H12.1221V32.8692Z" fill="#E8E8E8"/>
<path d="M34.6065 7.61031C34.6065 7.27741 33.6494 7 32.4843 7C31.3191 7 30.3621 7.27741 30.3621 7.61031C30.3621 7.94321 31.3191 8.22062 32.4843 8.22062C33.6494 8.22062 34.6065 7.95708 34.6065 7.61031Z" fill="#8C8C8C"/>
<path d="M12.1222 32.8691C10.9432 32.8691 10 33.1466 10 33.4795C10 33.8123 10.9571 34.0898 12.1222 34.0898C13.2874 34.0898 14.2444 33.8123 14.2444 33.4795C14.2444 33.1466 13.2874 32.8691 12.1222 32.8691Z" fill="#8C8C8C"/>
<path d="M11.7477 9.44093C11.8864 9.02481 12.0806 8.60869 12.3303 8.24805H11.2622C10.5687 8.24805 10 8.81675 10 9.51028V32.8685V33.4927C10 33.2985 10.319 33.1182 10.8184 33.0073C10.9848 26.3216 11.1513 19.6498 11.3177 12.9641C11.3316 11.7712 11.3732 10.5645 11.7477 9.44093Z" fill="#E8E8E8"/>
<path d="M34.6066 8.24821V7.62402C34.6066 7.81821 34.3153 7.98466 33.8437 8.09563C33.6773 14.6149 33.5247 21.148 33.3583 27.6672C33.3305 28.8601 33.2889 30.0668 32.9283 31.1903C32.7202 31.8007 32.4012 32.3971 31.9712 32.8687H33.3583C34.0518 32.8687 34.6205 32.3 34.6205 31.6065L34.6066 8.24821Z" fill="#C6C6C6"/>
<path d="M32.4843 8.23441L28.8502 8.24828C27.6712 15.9743 21.6929 26.197 16.2556 32.8688H31.9711C32.4011 32.3972 32.7201 31.8007 32.9282 31.1904C33.3027 30.0669 33.3305 28.8601 33.3582 27.6673C33.5246 21.148 33.6772 14.6149 33.8437 8.0957C33.483 8.17893 33.0114 8.23441 32.4843 8.23441Z" fill="#E8E8E8"/>
<path d="M12.3163 8.24805C12.0667 8.62256 11.8725 9.02481 11.7338 9.44093C11.3593 10.5645 11.3315 11.7712 11.3038 12.9641C11.1373 19.6498 10.9709 26.3216 10.8044 33.0073C11.1651 32.924 11.6228 32.8824 12.1222 32.8824H16.2556C21.7068 26.2106 27.6712 15.9879 28.8502 8.26192H12.3163V8.24805Z" fill="white"/>
<path d="M33.3444 31.7458C33.3167 31.8151 33.2889 31.8984 33.3167 31.9677C33.3305 32.0232 33.3722 32.0509 33.4276 32.0787C33.5663 32.148 33.7467 32.0648 33.8438 31.94C33.9409 31.8151 33.9825 31.6626 34.0102 31.51C34.3015 30.22 34.3708 28.8468 34.1628 27.543C34.2044 28.8607 33.816 30.5252 33.3444 31.7458Z" fill="#E8E8E8"/>
<path d="M11.3731 8.94202C11.4008 8.87267 11.4286 8.78944 11.4008 8.72009C11.387 8.66461 11.3453 8.63687 11.2899 8.60913C11.1511 8.53977 10.9708 8.623 10.8737 8.74783C10.7766 8.87267 10.735 9.02524 10.7073 9.17782C10.416 10.4678 10.3466 11.841 10.5547 13.1448C10.527 11.8271 10.9153 10.1765 11.3731 8.94202Z" fill="white"/>
<path d="M26.2285 14.2822H12.76V14.9619H26.2285V14.2822Z" fill="#B7AC8B"/>
<path d="M28.9888 16.5158C28.545 16.5158 28.2537 16.1967 28.1566 16.0719C27.7127 15.5725 27.3243 15.0038 27.0053 14.4074C26.8389 14.0884 26.9637 13.7139 27.2689 13.5474C27.5879 13.381 27.9624 13.5058 28.1288 13.811C28.3646 14.2687 28.6559 14.6987 28.9888 15.0871C29.8488 14.1855 30.6949 13.2561 31.5272 12.3268C31.763 12.0633 32.1652 12.0494 32.4288 12.2852C32.6923 12.521 32.7062 12.9232 32.4704 13.1868C31.5965 14.1577 30.6949 15.1426 29.7795 16.0996C29.6685 16.2106 29.4049 16.488 29.0027 16.5019C29.0166 16.5158 29.0027 16.5158 28.9888 16.5158Z" fill="#B7AC8B"/>
<path d="M26.2285 19.2617H12.76V19.9414H26.2285V19.2617Z" fill="#B7AC8B"/>
<path d="M28.9053 21.4952C28.4615 21.4952 28.1702 21.1762 28.0731 21.0514C27.6292 20.552 27.2408 19.9833 26.9218 19.3869C26.7554 19.0679 26.8802 18.6934 27.1854 18.5269C27.5044 18.3605 27.8789 18.4853 28.0453 18.7905C28.2811 19.2482 28.5724 19.6782 28.9053 20.0666C29.7653 19.165 30.6114 18.2356 31.4437 17.3063C31.6795 17.0428 32.0817 17.0289 32.3453 17.2647C32.6088 17.5005 32.6227 17.9027 32.3869 18.1663C31.513 19.1372 30.6114 20.122 29.696 21.0791C29.585 21.1901 29.3214 21.4675 28.9192 21.4814C28.9331 21.4952 28.9192 21.4952 28.9053 21.4952Z" fill="#B7AC8B"/>
<path d="M26.2285 24.2412H12.76V24.9209H26.2285V24.2412Z" fill="#B7AC8B"/>
<path d="M28.9053 26.4747C28.4615 26.4747 28.1702 26.1557 28.0731 26.0309C27.6292 25.5315 27.2408 24.9628 26.9218 24.3664C26.7554 24.0474 26.8802 23.6729 27.1854 23.5064C27.5044 23.34 27.8789 23.4648 28.0453 23.77C28.2811 24.2277 28.5724 24.6577 28.9053 25.0461C29.7653 24.1445 30.6114 23.2151 31.4437 22.2858C31.6795 22.0222 32.0817 22.0084 32.3453 22.2442C32.6088 22.48 32.6227 22.8822 32.3869 23.1458C31.513 24.1167 30.6114 25.1015 29.696 26.0586C29.585 26.1696 29.3214 26.447 28.9192 26.4609C28.9331 26.4747 28.9192 26.4747 28.9053 26.4747Z" fill="#B7AC8B"/>
<path opacity="0.4" d="M38.7537 23.9781C38.6705 23.7978 38.5318 23.6729 38.3515 23.6036C38.185 23.5481 37.9908 23.5481 37.8105 23.5758C36.9367 23.6729 36.1044 23.9781 35.3138 24.3526C35.078 24.4636 34.8422 24.5884 34.6064 24.7132C32.1929 26.0032 29.9875 27.6954 28.101 29.6928C26.4088 31.4821 24.8969 33.424 24.8137 36.004C24.7027 36.1427 24.5917 36.2953 24.4808 36.434C24.3282 36.642 24.1756 36.864 24.023 37.072C23.9398 37.1969 23.8566 37.3217 23.7595 37.4465C23.5376 37.7933 23.3156 38.1401 23.0937 38.4868C22.8857 38.8475 22.6776 39.1943 22.4834 39.5688L22.5389 39.6104C22.8163 39.3052 23.0798 38.9862 23.3434 38.681C23.6069 38.3759 23.8843 38.0569 24.1479 37.7517C24.3282 37.5436 24.4947 37.3494 24.675 37.1414C24.7721 37.0304 24.8553 36.9333 24.9524 36.8224C25.1466 36.6004 25.3269 36.3924 25.5211 36.1704C26.3533 36.004 27.6156 35.685 27.782 35.6156C30.9445 34.4366 33.6493 32.3005 35.9518 29.8731C36.798 28.9854 37.6163 28.0145 38.1712 26.9187C38.4763 26.3222 38.7121 25.6981 38.8231 25.0184C38.9063 24.6855 38.9063 24.2832 38.7537 23.9781Z" fill="#606060"/>
<path d="M37.2143 24.0747C37.1449 24.0054 37.0617 23.9499 36.9785 23.8805C36.3682 23.4367 35.7024 23.4089 35.0505 23.5754C34.8147 23.6863 34.5789 23.8112 34.3431 23.936C31.9296 25.226 29.7241 26.9182 27.8377 28.9156C26.0761 30.7881 24.5226 32.7855 24.5365 35.4903C24.5365 35.518 24.6197 35.518 24.7445 35.5042C28.4896 31.0378 32.5953 27.2927 37.2143 24.0747Z" fill="white"/>
<path d="M37.2141 24.0742C32.5952 27.2922 28.4895 31.0373 24.7444 35.5037C25.3963 35.4343 27.3105 34.935 27.5185 34.8656C30.681 33.6866 33.3858 31.5505 35.6884 29.1232C36.5345 28.2354 37.3529 27.2645 37.9077 26.1687C38.0186 25.3919 37.8245 24.629 37.2141 24.0742Z" fill="white"/>
<path d="M37.2144 24.0748C37.8247 24.6158 38.0189 25.3925 37.9218 26.1693C38.2269 25.5729 38.4627 24.9487 38.5737 24.269C38.6292 23.9223 38.6292 23.5061 38.4766 23.2148C38.0466 23.5061 37.6305 23.7835 37.2144 24.0748Z" fill="#7C7259"/>
<path d="M38.0743 22.8399C37.9079 22.7844 37.7137 22.7844 37.5333 22.8122C36.6595 22.9093 35.8273 23.2144 35.0366 23.5889C35.7024 23.4225 36.3543 23.4502 36.9646 23.8941C37.0479 23.9496 37.1311 24.0189 37.2004 24.0883C37.6166 23.797 38.0466 23.5057 38.4627 23.2283C38.3933 23.048 38.2685 22.9093 38.0743 22.8399Z" fill="#7C7259"/>
<path d="M23.7596 36.3359C23.6764 36.4608 23.5932 36.5856 23.4961 36.7104C23.2741 37.0572 23.0522 37.404 22.8303 37.7508C22.6222 38.1114 22.4142 38.4582 22.22 38.8327L22.2755 38.8743C22.5529 38.5691 22.8164 38.2501 23.08 37.9449C23.3435 37.6398 23.6209 37.3208 23.8845 37.0156C24.0648 36.8075 24.2312 36.6134 24.4115 36.4053C24.3144 36.433 24.2035 36.4608 24.1064 36.4746C23.9815 36.4608 23.8428 36.4053 23.7596 36.3359Z" fill="#4C4B70"/>
<path d="M36.0628 24.9619L35.0364 25.6416L34.0238 26.349L33.0251 27.0841L32.0542 27.8332L31.0971 28.6099L30.1539 29.4144L29.2384 30.2467L28.3368 31.0928C28.0455 31.3841 27.7542 31.6753 27.4491 31.9527L26.5752 32.8266L26.1591 33.2843C26.0204 33.4369 25.8817 33.5895 25.743 33.7421C25.6043 33.8946 25.4794 34.0611 25.3407 34.2137L24.9524 34.6853C24.7027 35.0182 24.453 35.3372 24.2033 35.6701C24.0508 35.8782 23.8982 36.1001 23.7456 36.3081C23.8427 36.3914 23.9675 36.433 24.1062 36.433C24.2033 36.4191 24.3143 36.3914 24.4114 36.3636C24.5085 36.2527 24.5917 36.1556 24.6888 36.0446C24.9662 35.7395 25.2298 35.4343 25.4933 35.1153L25.8956 34.6575C26.0343 34.505 26.1591 34.3524 26.2978 34.1998C26.4365 34.0472 26.5614 33.8946 26.7001 33.7421L27.1023 33.2843L27.9068 32.3689C28.1842 32.0637 28.4616 31.7724 28.7391 31.4673L29.599 30.5934L30.4729 29.7334L31.3606 28.9012L32.2761 28.0828L33.2054 27.2783L34.1486 26.5016L35.1196 25.7387L36.1044 24.9897L36.0628 24.9619Z" fill="#C6C0B0"/>
<g style="mix-blend-mode:color-burn" opacity="0.7">
<circle cx="23" cy="23" r="23" fill="#FABC29"/>
</g>
<defs>
<linearGradient id="paint0_linear" x1="23" y1="0" x2="23" y2="46" gradientUnits="userSpaceOnUse">
<stop stop-color="#FABC29"/>
<stop offset="1" stop-color="#FABC29"/>
</linearGradient>
</defs>
</svg>
