<svg width="50" height="52" viewBox="0 0 50 52" fill="none" xmlns="http://www.w3.org/2000/svg">
<g filter="url(#filter0_d)">
<circle cx="25" cy="24" r="24" fill="#F95B5B"/>
</g>
<path d="M49 24C49 37.2548 38.2548 48 25 48C11.7452 48 1 37.2548 1 24C4.21077 36 11.7452 43.5 25 43.5C38.2548 43.5 45.5 36.4867 49 24Z" fill="#DF3737"/>
<path d="M45 21.4783C45 24.3188 36.2696 30 25.5 30C14.7304 30 6 24.3188 6 21.4783C6 10.7207 14.7304 2 25.5 2C36.2696 2 45 10.7207 45 21.4783Z" fill="#FFAEAE"/>
<circle cx="17" cy="9" r="2" fill="#FFECEC"/>
<g filter="url(#filter1_ii)">
<path d="M29.625 24.5008L37.3591 16.7667C38.2136 15.9122 38.2136 14.5268 37.3591 13.6736L36.328 12.6425C35.4732 11.7877 34.0878 11.7877 33.2346 12.6425L25.5008 20.3763L17.7667 12.6409C16.9122 11.7864 15.5268 11.7864 14.6736 12.6409L13.6409 13.672C12.7864 14.5268 12.7864 15.9122 13.6409 16.7654L21.3763 24.5008L13.6425 32.2346C12.7877 33.0894 12.7877 34.4748 13.6425 35.328L14.6736 36.3591C15.5281 37.2136 16.9135 37.2136 17.7667 36.3591L25.5008 28.625L33.2346 36.3591C34.0894 37.2136 35.4748 37.2136 36.328 36.3591L37.3591 35.328C38.2136 34.4732 38.2136 33.0878 37.3591 32.2346L29.625 24.5008Z" fill="#590000"/>
</g>
<g style="mix-blend-mode:color-burn" opacity="0.45">
<circle cx="25" cy="24" r="24" fill="#F95B5B"/>
</g>
<g style="mix-blend-mode:color-burn" opacity="0.45">
<circle cx="25" cy="24" r="24" fill="white"/>
</g>
<defs>
<filter id="filter0_d" x="0" y="0" width="50" height="52" filterUnits="userSpaceOnUse" color-interpolation-filters="sRGB">
<feFlood flood-opacity="0" result="BackgroundImageFix"/>
<feColorMatrix in="SourceAlpha" type="matrix" values="0 0 0 0 0 0 0 0 0 0 0 0 0 0 0 0 0 0 127 0"/>
<feOffset dy="3"/>
<feGaussianBlur stdDeviation="0.5"/>
<feColorMatrix type="matrix" values="0 0 0 0 0 0 0 0 0 0 0 0 0 0 0 0 0 0 0.45 0"/>
<feBlend mode="normal" in2="BackgroundImageFix" result="effect1_dropShadow"/>
<feBlend mode="normal" in="SourceGraphic" in2="effect1_dropShadow" result="shape"/>
</filter>
<filter id="filter1_ii" x="13" y="12" width="25" height="25" filterUnits="userSpaceOnUse" color-interpolation-filters="sRGB">
<feFlood flood-opacity="0" result="BackgroundImageFix"/>
<feBlend mode="normal" in="SourceGraphic" in2="BackgroundImageFix" result="shape"/>
<feColorMatrix in="SourceAlpha" type="matrix" values="0 0 0 0 0 0 0 0 0 0 0 0 0 0 0 0 0 0 127 0" result="hardAlpha"/>
<feOffset dy="3"/>
<feComposite in2="hardAlpha" operator="arithmetic" k2="-1" k3="1"/>
<feColorMatrix type="matrix" values="0 0 0 0 0 0 0 0 0 0 0 0 0 0 0 0 0 0 0.4 0"/>
<feBlend mode="normal" in2="shape" result="effect1_innerShadow"/>
<feColorMatrix in="SourceAlpha" type="matrix" values="0 0 0 0 0 0 0 0 0 0 0 0 0 0 0 0 0 0 127 0" result="hardAlpha"/>
<feOffset dy="-2"/>
<feComposite in2="hardAlpha" operator="arithmetic" k2="-1" k3="1"/>
<feColorMatrix type="matrix" values="0 0 0 0 1 0 0 0 0 1 0 0 0 0 1 0 0 0 0.25 0"/>
<feBlend mode="overlay" in2="effect1_innerShadow" result="effect2_innerShadow"/>
</filter>
</defs>
</svg>
