<svg width="36" height="36" viewBox="0 0 36 36" fill="none" xmlns="http://www.w3.org/2000/svg">
<circle cx="18" cy="18" r="18" fill="#F93232"/>
<path d="M32.9997 16.1087C32.9997 18.2391 26.4519 22.5 18.3748 22.5C10.2976 22.5 3.74976 18.2391 3.74976 16.1087C3.74976 8.04054 10.2976 1.5 18.3748 1.5C26.4519 1.5 32.9997 8.04054 32.9997 16.1087Z" fill="#FF6C6C"/>
<path d="M14.851 17.4762V15.1955C14.851 14.8375 14.44 14.6386 14.1615 14.8507L10.0377 18.0066C9.8123 18.179 9.8123 18.5105 10.0377 18.6828L14.1615 21.8387C14.44 22.0508 14.851 21.852 14.851 21.4939V19.2132H22.2103C22.6876 19.2132 23.0854 18.8154 23.0854 18.3381C23.0854 17.8607 22.6876 17.4629 22.2103 17.4629H14.851V17.4762Z" fill="white"/>
<path d="M9.6001 11.1645V14.0684C9.6001 14.3071 9.78574 14.4927 10.0244 14.4927H10.9128C11.1515 14.4927 11.3371 14.3071 11.3371 14.0684V11.7744C11.3371 11.5357 11.5228 11.3501 11.7615 11.3501H24.8357C25.0744 11.3501 25.26 11.5357 25.26 11.7744V24.8486C25.26 25.0873 25.0744 25.273 24.8357 25.273H11.7615C11.5228 25.273 11.3371 25.0873 11.3371 24.8486V22.5547C11.3371 22.316 11.1515 22.1304 10.9128 22.1304H10.0244C9.78574 22.1304 9.6001 22.316 9.6001 22.5547V25.4586C9.6001 26.3338 10.3029 27.0365 11.178 27.0365H25.4589C26.3341 27.0365 27.0368 26.3338 27.0368 25.4586V11.1777C27.0368 10.3026 26.3341 9.59979 25.4589 9.59979H11.178C10.3029 9.58653 9.6001 10.3026 9.6001 11.1645Z" fill="white"/>
<g style="mix-blend-mode:color-burn" opacity="0.45">
<circle cx="18" cy="18" r="18" fill="#F95B5B"/>
</g>
</svg>
