<svg width="24" height="24" viewBox="0 0 24 24" fill="none" xmlns="http://www.w3.org/2000/svg">
<circle cx="12" cy="12" r="12" fill="#D7A01F"/>
<path d="M21.7778 10.7824C21.7778 12.2252 17.4996 15.1109 12.2222 15.1109C6.94486 15.1109 2.66669 12.2252 2.66669 10.7824C2.66669 5.31824 6.94486 0.888672 12.2222 0.888672C17.4996 0.888672 21.7778 5.31824 21.7778 10.7824Z" fill="#FABC29"/>
<path d="M11.996 24C9.22751 23.9981 6.54471 23.0395 4.40209 21.2866C2.25947 19.5337 0.788746 17.0942 0.239031 14.3813C-0.310685 11.6684 0.0944056 8.849 1.38569 6.40054C2.67697 3.95208 4.77505 2.02513 7.32456 0.946086C10.2572 -0.292614 13.562 -0.315818 16.5118 0.881579C19.4616 2.07898 21.8148 4.39889 23.0537 7.33096C24.2927 10.263 24.3159 13.5671 23.1182 16.5163C21.9206 19.4655 19.6002 21.8182 16.6675 23.0569C15.1897 23.6823 13.6008 24.003 11.996 24ZM11.996 0.990525C5.92322 0.990525 0.982825 5.9299 0.982825 12.0015C0.982825 18.0731 5.92322 23.0124 11.996 23.0124C18.0689 23.0124 23.0093 18.0731 23.0093 12.0015C23.0093 5.9299 18.0689 0.990525 11.996 0.990525Z" fill="white"/>
<path d="M10.5097 18.4201C9.98499 18.421 9.46669 18.3051 8.99232 18.0809C8.51795 17.8567 8.0994 17.5299 7.76699 17.124L4.52698 13.181C4.32367 12.9336 4.17111 12.6485 4.078 12.3421C3.98488 12.0357 3.95304 11.714 3.9843 11.3953C4.04741 10.7516 4.36369 10.1594 4.86355 9.74888C5.36341 9.33837 6.0059 9.1432 6.64969 9.20631C7.29348 9.26941 7.88582 9.58563 8.29642 10.0854L10.5082 12.7776L15.6968 6.45522C16.1071 5.95524 16.6993 5.6387 17.3431 5.57525C17.9868 5.5118 18.6294 5.70662 19.1295 6.11687C19.6296 6.52712 19.9462 7.11918 20.0097 7.76281C20.0731 8.40644 19.8783 9.04892 19.4679 9.54891L13.2526 17.1225C12.9204 17.5287 12.5018 17.8559 12.0274 18.0804C11.553 18.3048 11.0345 18.4209 10.5097 18.4201ZM6.40911 10.1822C6.13438 10.1827 5.86545 10.2612 5.63358 10.4085C5.4017 10.5558 5.21641 10.7659 5.09923 11.0144C4.98205 11.2628 4.93779 11.5394 4.97161 11.8119C5.00542 12.0845 5.11592 12.3419 5.29025 12.5542L8.52952 16.4972C8.76935 16.7901 9.07137 17.026 9.41369 17.1878C9.75601 17.3496 10.1301 17.4332 10.5087 17.4326C10.8876 17.4333 11.2619 17.3496 11.6045 17.1876C11.9471 17.0257 12.2492 16.7895 12.4891 16.4962L18.7044 8.92257C18.9431 8.62446 19.0547 8.24431 19.0149 7.86452C18.9751 7.48474 18.7872 7.13593 18.492 6.89372C18.1967 6.65152 17.8178 6.53543 17.4375 6.57064C17.0572 6.60585 16.7061 6.78951 16.4603 7.08181L10.8902 13.8689C10.844 13.9255 10.7857 13.9711 10.7197 14.0025C10.6537 14.0339 10.5815 14.0502 10.5084 14.0503C10.4354 14.0503 10.3633 14.0341 10.2973 14.0029C10.2313 13.9717 10.173 13.9263 10.1267 13.8698L7.53389 10.713C7.41325 10.5653 7.26454 10.4431 7.09635 10.3533C6.92817 10.2635 6.74385 10.2079 6.55406 10.1898C6.50516 10.1847 6.45685 10.1822 6.40911 10.1822Z" fill="white"/>
</svg>
