<svg width="90" height="90" viewBox="0 0 128 128" fill="none" xmlns="http://www.w3.org/2000/svg">
<path d="M46.1373 15.541C46.9529 15.2746 47.7772 15.028 48.6104 14.8014C49.0627 12.5246 49.3437 10.1846 50.0718 7.91924C49.5229 7.8314 48.9854 7.70491 48.4506 7.58984C47.6654 7.77782 46.8861 7.98278 46.1127 8.20472C46.6489 8.31676 47.179 8.45691 47.7005 8.62459C47.2236 10.9286 46.745 13.2352 46.1373 15.541Z" fill="#93733B"/>
<path d="M46.1127 8.20215C44.4048 8.68702 42.7299 9.24743 41.0882 9.88338C41.1752 10.0389 41.2229 10.2133 41.2274 10.3915C41.2318 10.5696 41.1928 10.7461 41.1137 10.9058C39.8358 13.6332 37.6481 16.1946 37.6007 19.2329C40.3279 17.7443 43.186 16.5094 46.139 15.5437C46.7467 13.2379 47.2254 10.9313 47.7023 8.62465C47.1802 8.45603 46.6496 8.315 46.1127 8.20215Z" fill="#B29150"/>
<path d="M37.9521 12.5749C37.0738 14.8587 36.0199 16.879 35.1417 19.075C34.9084 19.6342 34.8104 20.2406 34.8554 20.8449C35.7512 20.2792 36.6657 19.7411 37.599 19.2304C37.6482 16.1921 39.8359 13.6307 41.112 10.9033C41.1911 10.7436 41.2301 10.5671 41.2257 10.3889C41.2212 10.2108 41.1735 10.0364 41.0865 9.88086C39.9442 10.3218 38.8201 10.7982 37.7141 11.31C37.9767 11.7097 38.1014 12.1269 37.9521 12.5749Z" fill="#93733B"/>
<path d="M31.8044 16.6153C30.776 19.1011 29.8318 21.7547 29.7844 24.4936C30.1761 24.1738 30.5725 23.8597 30.9736 23.551C31.295 21.2022 31.5146 18.7893 32.7687 16.6118C33.3343 15.621 33.0647 14.7575 32.4754 14.0645C32.1094 14.2823 31.7455 14.5039 31.3837 14.7294C31.8158 15.2608 32.1039 15.8283 31.8044 16.6153Z" fill="#93733B"/>
<path d="M28.0279 20.5681C27.6212 22.4382 27.4421 24.3083 27.9049 26.109C28.5191 25.5556 29.1462 25.0172 29.7861 24.4937C29.8318 21.7548 30.7759 19.1012 31.8061 16.6154C32.1012 15.8248 31.8175 15.2609 31.3871 14.7295C29.695 15.7831 28.0581 16.923 26.483 18.1447C27.4781 18.6418 28.229 19.4605 28.0279 20.5681Z" fill="#B29150"/>
<path d="M24.024 20.1641C21.5472 22.3126 19.2556 24.6659 17.1737 27.1991C20.4777 26.0027 23.9731 23.7215 24.024 20.1641Z" fill="#B29150"/>
<path d="M26.4831 18.1445C25.6435 18.7957 24.8238 19.4691 24.024 20.1648C23.9722 23.7223 20.4768 26.0035 17.1737 27.1998C14.9766 29.8715 13.0221 32.7338 11.3334 35.7527C12.6947 35.3056 14.0226 34.6354 15.2934 34.0952C16.8031 33.4592 18.1687 35.0526 19.6512 35.6218C22.0015 32.1234 24.7743 28.9283 27.9067 26.1089C27.4439 24.3082 27.623 22.4381 28.0297 20.568C28.229 19.4604 27.4781 18.6417 26.4831 18.1445Z" fill="#775B2D"/>
<path d="M15.2933 34.0951C14.0225 34.6353 12.6946 35.3056 11.3333 35.7527C8.04667 41.6344 5.81726 48.0472 4.74646 54.6995C4.77896 54.6819 4.81145 54.6644 4.8457 54.6494C6.33872 53.8589 8.00738 53.771 9.41257 52.8927C10.7299 52.1021 11.4325 50.6967 12.7499 49.9061C12.8676 49.82 12.9799 49.7267 13.0863 49.6268C14.5471 44.6501 16.7623 39.9269 19.6547 35.6218C18.1687 35.0526 16.803 33.4592 15.2933 34.0951Z" fill="#B29150"/>
<path d="M10.7265 54.6496C11.1454 54.35 11.5643 54.011 12.0386 53.852C12.3272 52.4214 12.6753 51.013 13.0828 49.627C12.9765 49.7268 12.8642 49.8201 12.7464 49.9063C11.4291 50.6968 10.7265 52.1022 9.40912 52.8928C8.00393 53.7712 6.33526 53.859 4.84225 54.6496C4.808 54.6645 4.7755 54.6821 4.74301 54.6996C4.51291 56.1238 4.3358 57.5649 4.21167 59.0231C4.40525 58.8831 4.61751 58.7711 4.84225 58.6902C7.30133 57.8996 8.70652 56.055 10.7265 54.6496Z" fill="#93733B"/>
<path d="M8.26736 71.7783C9.38712 70.8824 10.0599 69.4199 11.2104 68.3491C11.0933 66.9876 11.0324 65.6115 11.0277 64.2207C9.44684 66.0653 8.45618 68.3895 6.94999 70.1937C6.33522 70.9448 5.428 71.3198 4.51111 71.7204C4.56966 72.1719 4.63494 72.6219 4.70696 73.0705C5.99271 72.8763 7.24947 72.5935 8.26736 71.7783Z" fill="#B29150"/>
<path d="M8.53091 76.6973C10.3752 76.0824 10.1117 73.623 11.2535 72.2175C11.3852 72.0858 11.5046 71.954 11.6258 71.8267C11.4502 70.6795 11.3117 69.5203 11.2104 68.3491C10.0599 69.4199 9.3872 70.8824 8.26743 71.7783C7.24867 72.5935 5.99278 72.8763 4.70703 73.074C4.92132 74.4407 5.1848 75.7908 5.49745 77.1242C6.52361 77.1249 7.54477 76.9811 8.53091 76.6973Z" fill="#775B2D"/>
<path d="M12.31 75.4035C12.0395 74.2252 11.8114 73.033 11.6258 71.8267C11.5046 71.954 11.3852 72.0902 11.2534 72.2175C10.1117 73.623 10.3752 76.0824 8.53089 76.6973C7.54334 76.9816 6.52068 77.1253 5.49304 77.1242C5.83322 78.5917 6.22784 80.0373 6.67692 81.4608C7.57097 80.4946 8.75572 79.726 9.84826 78.8933C10.9715 78.0694 11.3931 76.5427 12.31 75.4035Z" fill="#B29150"/>
<path d="M14.5908 91.4542C15.6086 90.0286 15.8405 88.3403 16.3797 86.7548C16.0372 86.0697 15.7096 85.3763 15.397 84.6748C14.8165 86.1514 14.6891 87.8001 14.1516 89.3461C14.0638 89.6096 13.7125 89.8731 13.449 90.0488C12.5594 90.43 11.3939 90.2596 10.4182 90.5354C10.845 91.3629 11.2909 92.1786 11.7558 92.9826C12.8852 92.8315 13.9382 92.4037 14.5908 91.4542Z" fill="#93733B"/>
<path d="M22.004 95.6015C19.8316 92.8534 17.9481 89.8887 16.3832 86.7544C15.844 88.3355 15.6121 90.0281 14.5943 91.4538C13.9417 92.4033 12.8887 92.8311 11.7593 92.9822C13.2266 95.5188 14.8833 97.9409 16.7152 100.228C19.1374 99.4234 20.8526 97.7483 22.004 95.6015Z" fill="#B29150"/>
<path d="M23.5374 97.4447C23.0104 96.8421 22.5002 96.2273 22.0066 95.6001C20.8526 97.7469 19.1374 99.422 16.7117 100.227C17.5718 101.299 18.4679 102.34 19.4 103.349C20.3081 101.672 21.7993 100.451 22.8462 98.6551C23.0649 98.2739 23.3521 97.8909 23.5374 97.4447Z" fill="#93733B"/>
<path d="M26.1098 100.19C25.2193 99.3061 24.3618 98.3911 23.5374 97.4448C23.3521 97.891 23.0649 98.274 22.8463 98.657C21.7994 100.452 20.3081 101.673 19.4 103.351C20.5435 104.589 21.7391 105.775 22.9868 106.91C23.2265 105.896 23.3776 104.869 23.7245 103.924C24.2181 102.587 25.1657 101.417 26.1098 100.19Z" fill="#B29150"/>
<path d="M32.0238 105.227C29.9278 103.7 27.9508 102.016 26.1097 100.189C25.1647 101.419 24.218 102.587 23.7244 103.927C23.3731 104.869 23.2265 105.895 22.9867 106.914C24.5663 108.35 26.2237 109.699 27.9514 110.954C28.6294 110.464 29.1643 109.7 29.5208 108.934C30.1558 107.593 31.1869 106.479 32.0238 105.227Z" fill="#93733B"/>
<path d="M32.024 105.227C31.187 106.479 30.1559 107.593 29.521 108.934C29.1644 109.699 28.6295 110.463 27.9515 110.954C28.5089 111.359 29.0739 111.754 29.6465 112.139C30.3131 111.82 30.9692 111.475 31.2774 111.043C32.2813 109.537 32.2321 107.564 33.0875 105.982C32.7292 105.733 32.3747 105.482 32.024 105.227Z" fill="#B29150"/>
<path d="M33.6487 109.988C33.5608 109.9 33.2974 109.9 33.2095 109.988C32.4191 110.954 31.8395 112.175 30.9867 113.014C31.3796 113.263 31.7754 113.508 32.1741 113.747C32.944 113.159 33.5438 112.377 33.9121 111.481C34.1756 110.954 34 110.427 33.6487 109.988Z" fill="#B29150"/>
<path d="M33.0874 105.981C32.232 107.562 32.2812 109.537 31.2774 111.042C30.9691 111.474 30.3113 111.82 29.6465 112.138C30.0885 112.437 30.5353 112.73 30.9867 113.017C31.8395 112.178 32.4147 110.956 33.2095 109.991C33.2973 109.903 33.5608 109.903 33.6486 109.991C33.9999 110.43 34.1756 110.957 33.9121 111.484C33.5438 112.38 32.944 113.162 32.1741 113.75C32.6671 114.047 33.1647 114.337 33.6671 114.619C34.3354 114.455 34.9484 114.132 35.4051 113.592C35.5808 113.329 35.5808 112.889 35.7564 112.538C36.6115 111.423 37.3543 110.227 37.974 108.966C36.2905 108.063 34.6591 107.067 33.0874 105.981Z" fill="#775B2D"/>
<path d="M37.974 108.963C37.3543 110.224 36.6115 111.42 35.7565 112.535C35.5808 112.887 35.5808 113.326 35.4052 113.589C34.9485 114.129 34.3355 114.452 33.6671 114.616C34.1736 114.901 34.685 115.177 35.2014 115.446C36.64 114.682 37.6227 113.24 38.0399 111.393C38.1892 110.721 38.5923 110.112 38.926 109.461C38.6072 109.298 38.2893 109.132 37.974 108.963Z" fill="#B29150"/>
<path d="M38.9261 109.458C38.5923 110.112 38.1892 110.721 38.0399 111.391C37.6227 113.236 36.64 114.68 35.2014 115.444C35.7682 115.74 36.3405 116.026 36.9184 116.304C37.5709 116.031 38.1646 115.648 38.3912 115.08C39.0192 113.431 39.9975 111.923 40.9513 110.43C40.268 110.122 39.5929 109.798 38.9261 109.458Z" fill="#93733B"/>
<path d="M40.9512 110.433C39.9975 111.926 39.0191 113.434 38.3912 115.083C38.1646 115.65 37.5709 116.034 36.9183 116.306C38.5413 117.086 40.2044 117.791 41.9076 118.421C42.4486 118.3 42.9343 118.092 43.3128 117.718C44.7663 116.344 44.6618 114.081 45.4549 112.222C43.9185 111.695 42.4173 111.098 40.9512 110.433Z" fill="#B29150"/>
<path d="M48.0519 119.123C48.7984 117.279 48.8968 115.298 49.0812 113.317C47.8516 112.996 46.6417 112.631 45.4514 112.222C44.661 114.08 44.7629 116.344 43.3094 117.718C42.9344 118.092 42.4487 118.3 41.9042 118.42C43.6607 119.07 45.454 119.635 47.2843 120.115C47.6165 119.851 47.8798 119.511 48.0519 119.123Z" fill="#93733B"/>
<path d="M53.4092 120.88C54.6388 119.914 54.9901 118.42 54.9022 116.927C54.8232 116.082 54.6958 115.258 54.5597 114.431C52.7144 114.161 50.8855 113.789 49.0812 113.317C48.8968 115.298 48.7984 117.281 48.0519 119.123C47.8808 119.51 47.6187 119.851 47.2878 120.115C49.0736 120.583 50.8919 120.966 52.7426 121.263C52.8279 121.172 52.904 121.073 52.9701 120.968C53.0579 120.88 53.3214 120.88 53.4092 120.88Z" fill="#B29150"/>
<path d="M54.5596 114.431C54.6958 115.254 54.8231 116.082 54.9022 116.927C54.99 118.42 54.6387 119.914 53.4091 120.88C53.3213 120.88 53.0578 120.88 52.97 120.968C52.904 121.073 52.8278 121.172 52.7426 121.263C54.3884 121.526 56.057 121.72 57.7485 121.843C57.8021 119.5 57.8891 117.156 57.9734 114.816C56.824 114.724 55.6861 114.595 54.5596 114.431Z" fill="#93733B"/>
<path d="M61.9896 6.00001C57.4299 5.9976 52.8857 6.53122 48.4506 7.58989C48.9854 7.70496 49.5229 7.82793 50.0718 7.91929C49.3437 10.1847 49.0627 12.5247 48.6148 14.8015C52.9749 13.6206 57.4724 13.024 61.9896 13.0271C63.126 13.0271 64.2531 13.0643 65.3708 13.1387C66.1331 10.8628 66.7163 8.47004 67.6358 6.27231C65.778 6.09077 63.8959 6.00001 61.9896 6.00001Z" fill="#B29150"/>
<path d="M70.4471 13.0141C70.6573 10.9119 71.0457 8.83147 71.6081 6.7951C70.2984 6.57609 68.9743 6.40041 67.6358 6.26807C66.7163 8.46404 66.1332 10.8585 65.3708 13.1344C66.9775 13.2398 68.5627 13.4184 70.1265 13.6702C70.2855 13.4911 70.4471 13.2521 70.4471 13.0141Z" fill="#93733B"/>
<path d="M86.0667 11.2228C83.7409 10.159 81.3468 9.2517 78.9002 8.50684C78.8914 8.57359 78.8844 8.64123 78.8783 8.70974C78.6508 10.9119 79.9322 14.2295 78.0132 15.5989C79.0238 15.9339 80.0209 16.2993 81.0045 16.6952C81.9706 16.4958 82.9533 16.3192 83.7086 15.9125C85.43 14.9445 85.8665 13.1518 86.0667 11.2228Z" fill="#B29150"/>
<path d="M86.0667 11.2227C85.8665 13.1551 85.43 14.9444 83.7086 15.9124C82.9533 16.3191 81.9671 16.4956 81.0045 16.695C81.8652 17.0417 82.7142 17.4109 83.5514 17.8027C84.4464 17.4864 85.3308 17.1957 85.8164 16.4394C86.7684 15.0111 87.1786 13.4529 87.4315 11.8718C86.9801 11.6463 86.5252 11.43 86.0667 11.2227Z" fill="#93733B"/>
<path d="M87.4332 11.8687C87.1802 13.4559 86.7701 15.0115 85.8181 16.4363C85.3324 17.1926 84.448 17.4833 83.5531 17.7995C85.8522 18.8758 88.0675 20.1228 90.1803 21.53C91.1605 21.5415 92.0756 21.3728 92.7562 20.8273C93.9726 19.7627 94.2677 17.9093 94.8947 16.2342C92.5197 14.5952 90.0256 13.1359 87.4332 11.8687Z" fill="#B29150"/>
<path d="M97.2897 17.9872C96.5058 17.3846 95.7068 16.8016 94.893 16.2383C94.2659 17.9134 93.9708 19.7668 92.7545 20.8314C92.0738 21.376 91.1587 21.5446 90.1786 21.5341C90.9257 22.0301 91.6576 22.5463 92.3742 23.0827C93.1225 23.138 93.8488 23.1169 94.5083 22.8526C96.3579 22.1621 96.6548 19.8485 97.2897 17.9872Z" fill="#93733B"/>
<path d="M96.8822 25.1356C97.1457 25.1356 97.5848 25.0478 97.7605 24.7843C98.4271 23.1153 98.3831 21.1346 99.2763 19.5851C98.6264 19.0387 97.9642 18.5061 97.2897 17.9873C96.6539 19.8486 96.3579 22.1588 94.511 22.8518C93.8514 23.1153 93.1251 23.1373 92.3768 23.082C93.1327 23.6447 93.8725 24.2277 94.5962 24.8308C95.3515 24.9731 96.1015 25.2366 96.8822 25.1356Z" fill="#B29150"/>
<path d="M101.098 26.7166C101.486 25.1135 101.633 23.5114 101.939 21.968C101.077 21.1482 100.189 20.3538 99.2763 19.585C98.3831 21.1344 98.427 23.117 97.7604 24.7841C97.5848 25.0477 97.1457 25.1355 96.8822 25.1355C96.1014 25.2391 95.3514 24.9739 94.5988 24.8307C95.2369 25.363 95.8623 25.9111 96.4747 26.475C97.7789 26.8264 99.0602 27.2436 100.398 27.2436C100.571 27.2436 101.098 27.0679 101.098 26.7166Z" fill="#93733B"/>
<path d="M104.787 31.9872C106.192 30.9946 105.885 28.7547 106.726 27.1024C105.235 25.2964 103.636 23.5819 101.939 21.9683C101.634 23.5116 101.486 25.1138 101.098 26.7168C101.098 27.0682 100.571 27.2439 100.395 27.2439C99.0577 27.2439 97.7764 26.8249 96.4722 26.4753C98.4372 28.2838 100.258 30.2433 101.917 32.3359C102.978 32.5599 104.036 32.487 104.787 31.9872Z" fill="#B29150"/>
<path d="M112.954 41.2979C113.227 40.0681 113.453 38.8885 113.693 37.7176C112.146 34.6816 110.334 31.7878 108.279 29.0698C107.928 30.8082 107.964 32.6607 107.07 34.2708C105.715 33.9317 104.308 34.0072 102.969 33.7024C105.086 36.5592 106.898 39.6298 108.375 42.864C109.716 42.9036 111.09 42.6708 112.427 42.6155C112.866 42.5276 112.866 41.7371 112.954 41.2979Z" fill="#B29150"/>
<path d="M113.569 44.9873C114.214 43.2358 114.351 41.3622 114.565 39.5088C114.284 38.9062 113.993 38.3092 113.693 37.7178C113.453 38.8887 113.227 40.0692 112.954 41.2981C112.866 41.7373 112.866 42.5278 112.427 42.6157C111.09 42.671 109.716 42.9038 108.375 42.8643C108.823 43.8463 109.24 44.8447 109.627 45.8596C111.218 46.5236 113.047 46.7485 113.569 44.9873Z" fill="#93733B"/>
<path d="M113.92 48.3252C115.521 47.474 116.038 45.7682 116.399 43.9051C115.846 42.4101 115.235 40.9461 114.565 39.5132C114.351 41.3666 114.214 43.2402 113.569 44.9917C113.047 46.7485 111.218 46.528 109.627 45.8639C109.917 46.6252 110.189 47.3929 110.441 48.1671C111.747 48.305 113.083 48.8136 113.92 48.3252Z" fill="#B29150"/>
<path d="M113.13 51.0483C113.657 51.3997 114.535 51.5754 114.798 51.224C116.101 49.4479 116.204 47.1922 116.863 45.2114C116.714 44.774 116.559 44.3386 116.399 43.9053C116.038 45.7683 115.521 47.4742 113.92 48.3253C113.083 48.8137 111.747 48.3051 110.441 48.1628C110.664 48.8427 110.872 49.5287 111.066 50.2209C111.191 50.3037 111.323 50.3749 111.461 50.4335C112.076 50.6091 112.603 50.697 113.13 51.0483Z" fill="#93733B"/>
<path d="M116.116 65.6296C117.417 63.6971 118.695 61.7462 119.822 59.711C119.462 54.7708 118.468 49.8975 116.863 45.2114C116.207 47.1922 116.101 49.4479 114.798 51.224C114.535 51.5753 113.657 51.3997 113.13 51.0483C112.603 50.697 112.076 50.6091 111.461 50.4334C111.323 50.3749 111.191 50.3037 111.066 50.2209C112.322 54.7058 112.957 59.3418 112.953 63.9993C112.953 65.5001 112.889 66.9852 112.76 68.4545C113.452 67.1307 114.53 66.0705 116.116 65.6296Z" fill="#B29150"/>
<path d="M75.3653 114.204C75.3354 113.877 75.1554 113.589 74.9059 113.318C70.6887 114.418 66.348 114.974 61.9896 114.971C60.6371 114.971 59.2978 114.916 57.9725 114.812C57.8847 117.156 57.8013 119.5 57.7477 121.839C59.1488 121.941 60.5627 121.993 61.9896 121.994C66.0839 121.998 70.1672 121.57 74.1717 120.717C75.0289 118.628 75.6173 116.474 75.3653 114.204Z" fill="#93733B"/>
<path d="M83.533 111.833C83.3494 111.465 82.8541 111.122 82.4352 110.702C79.998 111.77 77.4805 112.645 74.906 113.318C75.1554 113.591 75.3354 113.878 75.3653 114.204C75.6173 116.474 75.0289 118.628 74.1674 120.716C77.2554 120.056 80.2839 119.143 83.2221 117.986C83.9203 115.857 84.5974 113.712 83.533 111.833Z" fill="#B29150"/>
<path d="M87.5729 109.813C87.0776 109.538 86.5137 109.297 86.0535 108.939C84.8744 109.572 83.6682 110.16 82.4352 110.702C82.8541 111.122 83.3494 111.466 83.533 111.833C84.5974 113.712 83.9212 115.858 83.2221 117.986C84.5547 117.459 85.8618 116.887 87.1434 116.27C87.4781 114.964 87.8171 113.646 88.0999 112.272C88.2755 111.394 88.3633 110.252 87.5729 109.813Z" fill="#93733B"/>
<path d="M94.5988 105.947C94.4952 105.22 94.1764 104.401 94.078 103.599C91.5777 105.628 88.8908 107.416 86.0535 108.939C86.5137 109.297 87.0775 109.537 87.5728 109.812C88.3633 110.252 88.2754 111.393 88.0998 112.272C87.817 113.646 87.478 114.964 87.1434 116.269C89.422 115.171 91.6261 113.924 93.7416 112.537C94.3081 110.353 94.9343 108.185 94.5988 105.947Z" fill="#B29150"/>
<path d="M98.9023 102.609C98.8144 101.748 98.0548 101.138 97.7772 100.286C96.5986 101.449 95.3656 102.553 94.0781 103.599C94.1764 104.401 94.4952 105.22 94.5989 105.947C94.9344 108.185 94.3082 110.351 93.7417 112.535C95.3518 111.481 96.9034 110.349 98.3964 109.139C98.3165 106.95 99.1385 104.819 98.9023 102.609Z" fill="#93733B"/>
<path d="M107.662 86.6362C105.145 91.7016 101.805 96.3138 97.7772 100.285C98.0547 101.137 98.8162 101.746 98.9022 102.608C99.1385 104.814 98.3165 106.948 98.3973 109.139C101.13 106.932 103.658 104.483 105.95 101.821C105.769 100.672 105.391 99.5617 104.609 98.5709C102.677 96.1114 104.785 93.6519 106.278 91.3681C107.173 89.9372 107.457 88.3052 107.662 86.6362Z" fill="#B29150"/>
<path d="M119.822 59.7109C118.695 61.7462 117.417 63.6988 116.116 65.6295C114.53 66.0687 113.452 67.1307 112.76 68.4544C112.215 74.7814 110.486 80.9495 107.662 86.6371C107.46 88.306 107.173 89.9363 106.279 91.3654C104.786 93.6492 102.679 96.1087 104.611 98.5682C105.392 99.5625 105.771 100.676 105.952 101.818C115.02 91.3059 119.999 77.8789 119.979 63.9948C119.979 62.5555 119.927 61.1275 119.822 59.7109Z" fill="#93733B"/>
<path d="M108.279 29.0701C107.775 28.4026 107.257 27.7467 106.726 27.1025C105.885 28.7548 106.193 30.9947 104.786 31.9873C104.036 32.4871 102.974 32.56 101.922 32.3386C102.279 32.7878 102.628 33.2433 102.969 33.7054C104.308 34.0137 105.715 33.9346 107.07 34.2737C107.964 32.661 107.928 30.8085 108.279 29.0701Z" fill="#93733B"/>
<path d="M78.8782 8.70996C78.8844 8.64144 78.8914 8.57381 78.9002 8.50705C76.9612 7.91608 74.9924 7.42819 73.0019 7.04541C72.6251 9.11841 72.5285 11.2889 71.501 13.1897C71.3528 13.4324 71.1582 13.6435 70.9283 13.8108C73.33 14.2353 75.6977 14.833 78.0131 15.5992C79.9321 14.2297 78.6508 10.9121 78.8782 8.70996Z" fill="#93733B"/>
<path d="M71.501 13.1896C72.5286 11.2888 72.6252 9.11826 73.002 7.04526C72.5394 6.95684 72.0748 6.87339 71.6082 6.79492C71.0458 8.83129 70.6574 10.9118 70.4471 13.0139C70.4471 13.252 70.2855 13.4909 70.1266 13.6745C70.3942 13.7172 70.6614 13.7626 70.9284 13.8106C71.1583 13.6433 71.3529 13.4323 71.501 13.1896Z" fill="#B29150"/>
<path d="M13.4491 90.0484C13.7125 89.8728 14.0638 89.6092 14.1517 89.3457C14.6891 87.7998 14.8165 86.151 15.397 84.6745C15.0217 83.8324 14.6704 82.978 14.3431 82.1113C13.9031 83.2285 13.5751 84.3866 13.3639 85.5687C13.276 86.0957 13.1004 86.6227 12.6613 86.7984C11.5633 87.424 10.5751 88.2252 9.73584 89.17C9.95833 89.6291 10.1867 90.085 10.4209 90.5377C11.394 90.2592 12.5594 90.4297 13.4491 90.0484Z" fill="#B29150"/>
<path d="M12.6587 86.7987C13.0978 86.623 13.2734 86.0959 13.3612 85.5689C13.5724 84.3869 13.9005 83.2288 14.3405 82.1116C13.5093 79.9252 12.8308 77.6837 12.31 75.4033C11.3931 76.5452 10.9715 78.0692 9.85091 78.8932C8.75837 79.7259 7.57362 80.4962 6.67957 81.4607C7.51195 84.0998 8.53336 86.6754 9.73586 89.1677C10.5745 88.2239 11.5618 87.4237 12.6587 86.7987Z" fill="#93733B"/>
<path d="M6.94996 70.1968C8.45615 68.3891 9.44681 66.0684 11.0277 64.2237C11.0277 64.15 11.0277 64.0762 11.0277 64.0024C11.0277 63.3629 11.0394 62.7264 11.0628 62.0928C9.82621 63.8952 8.83029 65.8259 7.82821 67.8251C7.65256 68.0887 7.38909 68.44 7.12561 68.44C6.12968 68.6772 5.15922 68.8124 4.21423 69.011C4.29269 69.921 4.39164 70.8251 4.51108 71.7234C5.42797 71.3229 6.33958 70.9478 6.94996 70.1968Z" fill="#93733B"/>
<path d="M7.12567 68.4403C7.38914 68.4403 7.65262 68.089 7.82827 67.8255C8.83034 65.8262 9.82627 63.8955 11.0611 62.0896C11.1633 59.3218 11.4902 56.5669 12.0386 53.8521C11.5643 54.011 11.1454 54.3501 10.7265 54.6496C8.70651 56.055 7.30132 57.8997 4.84224 58.6902C4.6175 58.7711 4.40523 58.8832 4.21166 59.0231C4.07055 60.6634 4 62.3221 4 63.9992C4 65.6875 4.07143 67.3582 4.21429 69.0113C5.15928 68.8128 6.12974 68.6775 7.12567 68.4403Z" fill="#B29150"/>
<path d="M37.7157 11.3125C35.9236 12.1396 34.175 13.0581 32.477 14.0645C33.0663 14.7611 33.3359 15.6245 32.7704 16.6118C31.5162 18.7858 31.2967 21.1988 30.9752 23.5511C32.2241 22.5919 33.5174 21.6907 34.8553 20.8474C34.8099 20.2422 34.908 19.6349 35.1416 19.0748C36.0199 16.8788 37.0737 14.8586 37.952 12.5747C38.1013 12.1268 37.9766 11.7095 37.7157 11.3125Z" fill="#B29150"/>
<path d="M13.0977 66.6833C10.7265 66.5076 9.58477 69.6698 8.70652 71.6901C8.44305 71.5144 8.6187 72.0415 8.35522 71.9536C8.54317 73.3233 8.77737 74.6772 9.05782 76.0153C9.10525 76.2419 9.15443 76.468 9.20536 76.6934C10.211 74.1294 11.6214 71.7156 13.1847 69.2271C13.7125 68.4401 13.8882 66.7711 13.0977 66.6833Z" fill="#A38248"/>
<path d="M38.0012 106.722C36.777 105.923 35.5902 105.074 34.4408 104.175C32.73 105.58 31.8702 108.285 31.3969 110.689C31.7446 110.945 32.0959 111.198 32.4507 111.447C32.7335 109.298 33.423 107.055 35.5817 106.736C36.1965 108.857 34.9669 110.589 33.7154 112.313C34.2593 112.674 34.8094 113.027 35.3656 113.372C36.5908 111.309 37.4804 109.064 38.0012 106.722Z" fill="#A38248"/>
<path d="M117.697 54.2982C117.784 55.0009 118.663 55.4401 119.014 55.0009C120.467 53.1124 121.251 50.9305 121.737 48.6607C121.687 48.4789 121.639 48.2971 121.587 48.1161C121.189 46.7142 120.74 45.3348 120.239 43.978C120.173 44.058 120.113 44.13 120.063 44.1967C118.136 47.3589 117.258 50.6968 117.697 54.2982Z" fill="#A38248"/>
<path d="M115.94 89.6972C115.589 88.9067 114.798 88.9067 114.096 89.4337C112.339 90.6635 111.11 92.3324 110.056 94.177C108.498 96.8016 108.548 99.8865 108.847 102.857C109.366 102.283 109.873 101.697 110.369 101.1C110.152 98.4029 110.023 95.4735 112.339 93.7361C112.954 93.2969 113.744 93.0334 114.184 93.3847C114.616 93.7501 114.847 94.2429 114.948 94.7901C115.533 93.859 116.091 92.9104 116.623 91.9441C116.505 91.166 116.275 90.4091 115.94 89.6972Z" fill="#A38248"/>
<path d="M33.0699 16.1147C32.6601 16.3941 32.2564 16.6781 31.8588 16.9668C31.3418 17.7868 30.9385 18.6733 30.66 19.6019C29.2548 24.5209 26.2688 28.298 22.7558 31.8115C19.0672 35.3251 17.3985 40.2441 15.9055 45.0752C15.7299 45.6901 15.2029 46.0414 14.9394 46.5685C14.4125 47.6225 13.3586 48.3252 12.5682 49.2915C12.4803 49.4672 12.1291 49.6428 11.9534 49.8185C11.6929 50.0892 11.4577 50.3833 11.2508 50.6969C10.7239 51.4874 10.0213 52.1902 9.40649 52.7172C9.20625 52.8735 9.00806 53.0337 8.81192 53.1977C8.56601 54.5065 8.36402 55.8302 8.20593 57.1689C9.73496 55.0142 11.4651 53.1529 13.8003 51.8388C14.915 51.2124 15.9545 50.4609 16.8988 49.5989C18.603 43.8088 21.3254 38.3687 24.9382 33.5341C24.7983 33.6928 24.6572 33.8506 24.5149 34.0075C24.6572 33.8512 24.7983 33.6933 24.9382 33.5341C25.5858 32.6668 26.2591 31.8221 26.9582 30.9999C29.4173 27.5742 31.2212 23.6381 31.8931 19.3384C32.0839 18.2006 32.4828 17.1078 33.0699 16.1147Z" fill="#C6A55D"/>
<path d="M41.2586 11.438C40.1813 11.9422 39.1218 12.4777 38.0802 13.0446C37.274 14.154 36.5775 15.3231 36.1077 16.6152C35.1117 19.3259 34.3942 22.2114 33.2095 24.8106C34.0918 24.0751 34.9993 23.3703 35.932 22.6963C36.7418 20.156 36.9227 17.4198 38.4789 15.122C39.4353 13.7973 40.2073 12.536 41.2586 11.438Z" fill="#C6A55D"/>
<path d="M44.7145 14.9462C43.6263 16.7083 42.2633 18.1339 40.8774 19.527C42.4229 18.6577 44.013 17.8702 45.641 17.1677C45.9478 16.7384 46.225 16.2888 46.471 15.822C47.7734 13.2984 48.3223 10.6237 49.8636 8.21777C49.1406 8.42332 48.4239 8.64291 47.7137 8.87656C46.6501 10.8424 45.9063 12.9391 44.7145 14.9462Z" fill="#C6A55D"/>
<path d="M15.0061 59.8135C15.1408 58.1639 15.3522 56.5374 15.6402 54.9341C12.3846 58.8104 9.28263 62.4944 7.90466 67.3194C7.93804 67.9143 7.98078 68.5066 8.03289 69.0963C8.66146 67.3464 9.60404 65.7259 10.8143 64.3144C12.1861 62.7017 13.6378 61.2936 15.0061 59.8135Z" fill="#C6A55D"/>
<path d="M64.9308 6.00684C62.7 6.04043 60.473 6.20144 58.2605 6.48907C56.3802 9.15322 54.7291 11.8578 53.1272 14.6168C55.3591 14.0459 57.6273 13.6277 59.916 13.3651C60.767 11.5934 61.7384 9.85154 62.982 8.1826C63.559 7.35868 64.2326 6.67002 64.9308 6.00684Z" fill="#C6A55D"/>
<path d="M15.9081 74.4467C15.5972 72.9552 15.3527 71.4405 15.1748 69.9028C15.1461 69.6516 15.1188 69.3995 15.0931 69.1465C13.3366 71.7052 11.7452 74.3606 10.463 77.2277C10.2153 77.7977 9.97379 78.3757 9.76038 78.9598C9.87748 79.3902 9.99457 79.8183 10.1117 80.244C10.7863 82.5534 11.605 84.8182 12.5629 87.0252C13.3831 83.5292 14.6452 80.1509 16.5457 77.1363C16.3097 76.2491 16.0972 75.3526 15.9081 74.4467Z" fill="#C6A55D"/>
<path d="M17.6523 80.751C16.5009 82.5165 15.6885 84.5105 14.942 86.5378C14.7664 86.8892 14.5907 87.4162 14.4151 87.7675C14.1876 88.393 13.9654 89.0078 13.7634 89.6227C14.1147 90.3324 14.4783 91.0331 14.8542 91.7247C15.7851 88.7276 16.8259 85.7402 18.5033 83.019C18.2024 82.2682 17.9187 81.5122 17.6523 80.751Z" fill="#C6A55D"/>
<path d="M23.8834 92.9966C22.6618 95.1117 21.1609 97.0424 19.4738 98.8879C20.0552 99.6592 20.6547 100.415 21.2724 101.156C22.8023 99.1936 24.0722 97.0082 25.1499 94.7437C24.716 94.171 24.2939 93.5886 23.8834 92.9966Z" fill="#C6A55D"/>
<path d="M29.3997 99.6749C28.8042 99.067 28.2246 98.444 27.6608 97.8057C26.4312 99.8716 25.0866 101.867 23.5576 103.732C23.8457 104.038 24.1384 104.342 24.4359 104.644C26.0645 106.301 27.7904 107.859 29.6043 109.311C31.0034 107.327 32.3199 105.393 33.5187 103.438C32.0785 102.259 30.7035 101.003 29.3997 99.6749Z" fill="#C6A55D"/>
<path d="M71.508 6.28027C70.4541 8.61503 69.25 10.8619 67.9845 13.0755C68.6795 13.1054 69.3704 13.149 70.0571 13.2064C71.1075 11.0376 72.0174 8.81091 72.6787 6.40764C72.2905 6.36138 71.9003 6.31892 71.508 6.28027Z" fill="#C6A55D"/>
<path d="M67.9942 6.04199C66.6294 8.43384 65.2181 10.7651 63.7452 13.0691C64.4268 13.041 65.1115 13.0269 65.7994 13.0269C65.9013 13.0269 66.0032 13.0269 66.1051 13.0269C67.3074 10.6799 68.5642 8.36445 69.9957 6.14828C69.3312 6.1026 68.664 6.06717 67.9942 6.04199Z" fill="#C6A55D"/>
<path d="M82.0381 8.30598C80.6522 7.90309 79.2456 7.55173 77.8182 7.25191C77.1226 7.10493 76.422 6.97083 75.7165 6.84961C74.148 8.91207 72.7129 11.0501 71.4755 13.3444L71.7021 13.369C73.2384 13.5447 74.7528 13.7892 76.2452 14.1025C77.0292 14.2641 77.8064 14.4447 78.577 14.6444C79.5692 12.4453 80.7345 10.3285 82.0618 8.31388L82.0381 8.30598Z" fill="#C6A55D"/>
<path d="M40.0774 108.01C38.8022 109.704 37.6807 111.508 37.0738 113.589C37.0738 113.677 36.8982 113.941 36.8982 114.028C36.8718 114.102 36.8464 114.175 36.8218 114.247C37.0422 114.375 37.2609 114.501 37.4848 114.626C37.8034 114.801 38.1254 114.977 38.4509 115.153C39.0999 112.876 40.2504 110.808 41.6038 108.868C41.0886 108.59 40.5798 108.304 40.0774 108.01Z" fill="#C6A55D"/>
<path d="M87.8346 10.3374C86.5471 12.3999 85.1419 14.378 83.5505 16.2077C84.2438 16.4659 84.9294 16.7382 85.6074 17.0246C86.9748 15.0737 88.236 13.0657 89.26 10.947C88.7881 10.7379 88.313 10.5347 87.8346 10.3374Z" fill="#C6A55D"/>
<path d="M97.4452 15.3928C96.8304 14.9911 96.2075 14.6013 95.5763 14.2236C94.9993 16.5408 94.0262 18.7183 92.9222 20.8414C93.8005 21.3966 94.6626 21.9775 95.5087 22.5841C96.5586 20.3971 97.3959 18.1142 98.009 15.767C97.8246 15.6414 97.6367 15.5157 97.4452 15.3928Z" fill="#C6A55D"/>
<path d="M46.2673 111.091C45.1835 113.173 44.2631 115.356 43.6326 117.606C45.1156 118.221 46.6291 118.774 48.1731 119.267C48.823 117.02 49.7337 114.839 50.6058 112.664C49.1286 112.203 47.6824 111.679 46.2673 111.091Z" fill="#C6A55D"/>
<path d="M60.313 114.679C59.5477 114.596 58.7866 114.497 58.0295 114.382C57.9001 114.616 57.7643 114.85 57.622 115.085C56.3354 117.045 54.5807 118.706 53.5162 120.694C53.7305 120.74 53.9448 120.788 54.16 120.832C55.4528 121.095 56.7608 121.315 58.084 121.491C58.1619 120.951 58.3016 120.423 58.5003 119.916C59.2512 118.071 60.6915 116.547 61.6259 114.803C61.188 114.767 60.7503 114.726 60.313 114.679Z" fill="#C6A55D"/>
<path d="M87.9198 109.931C86.548 110.592 85.1428 111.193 83.7042 111.733C83.5941 112.023 83.5061 112.32 83.4407 112.623C82.9437 115.163 82.2727 117.635 81.2759 119.906C82.4235 119.589 83.5567 119.237 84.6756 118.852C85.1094 115.694 86.2828 112.717 87.9198 109.931Z" fill="#C6A55D"/>
<path d="M118.311 43.933C118.754 43.2791 119.12 42.5761 119.401 41.838C119.015 40.9046 118.605 39.9832 118.172 39.0737C118.022 40.1041 117.878 41.13 117.344 42.0901C116.254 44.1851 115.163 46.259 114.33 48.4075C114.65 49.403 114.939 50.4099 115.197 51.4283C115.871 48.8651 116.825 46.3652 118.311 43.933Z" fill="#C6A55D"/>
<path d="M94.6172 106.041C93.2884 109.895 90.7442 113.343 89.1414 117.109C90.6385 116.449 92.1022 115.729 93.5326 114.95C93.566 114.849 93.5993 114.748 93.6345 114.647C94.6005 111.573 97.3231 109.465 98.377 106.478C98.7555 105.278 98.7283 104.033 98.8433 102.808C97.4915 103.958 96.0809 105.038 94.6172 106.041Z" fill="#C6A55D"/>
<path d="M123.49 58.0813C123.296 56.161 123.006 54.2516 122.621 52.3603C122.459 51.568 122.281 50.7816 122.087 50.001C121.83 52.4763 121.511 54.9366 120.594 57.2846C119.54 59.8828 118.202 62.33 116.757 64.7149C116.603 76.9221 112.056 88.6651 103.949 97.7914C103.597 101.752 103.107 105.767 101.8 109.465C103.205 108.349 104.558 107.17 105.861 105.929C107.167 102.178 107.278 98.2412 108.651 94.5265C110.056 90.9251 112.778 88.2899 114.535 84.952C116.643 81.0871 115.94 76.8709 117.17 72.7424C117.529 71.3916 118.06 70.0926 118.751 68.8775C120.754 65.4132 122.423 61.8144 123.49 58.0813Z" fill="#C6A55D"/>
<path d="M121.034 71.6903C120.77 72.3052 120.419 73.0079 120.419 73.5349C120.156 77.4877 118.926 81.0891 117.96 84.954C117.621 86.478 117.609 87.966 117.948 89.3942C121.338 82.4435 123.296 74.8817 123.705 67.1587C123.058 68.7512 121.841 70.1435 121.034 71.6903Z" fill="#C6A55D"/>
<path d="M114.178 32.0127C114.054 34.7568 113.886 37.5 113.042 40.2441C112.789 41.1409 112.5 42.0202 112.2 42.8924C112.648 43.875 113.064 44.8744 113.449 45.8904C114.632 42.043 115.469 38.179 115.557 34.1972C115.112 33.4588 114.652 32.7306 114.178 32.0127Z" fill="#C6A55D"/>
<path d="M67.6595 114.938C66.5353 117.388 65.3023 119.775 63.7715 121.965C64.4442 121.987 65.1202 121.999 65.7994 122C68.1477 122 70.4939 121.859 72.8253 121.577C73.9758 119.149 74.8716 116.57 75.6928 114.012C73.0437 114.532 70.3575 114.842 67.6595 114.938Z" fill="#C6A55D"/>
<path d="M108.171 24.4067C106.993 26.6563 105.908 28.9638 105.489 31.548C105.465 31.6789 105.442 31.8115 105.421 31.9416C106.038 32.7028 106.633 33.4831 107.206 34.2825C107.667 31.4039 108.432 28.5825 109.489 25.8657C109.057 25.3721 108.618 24.8858 108.171 24.4067Z" fill="#C6A55D"/>
<path d="M103.052 19.5501C102.161 18.8029 101.248 18.0829 100.313 17.3901C99.3123 19.6968 98.2786 22.014 97.951 24.4515C97.9879 24.4814 98.0257 24.5104 98.0626 24.5393C99.0831 25.3744 100.069 26.2487 101.021 27.1622C101.353 24.5626 102.075 22.0279 103.163 19.6432L103.052 19.5501Z" fill="#C6A55D"/>
<path d="M17.4889 33.8319C17.6646 33.744 17.8402 33.3927 18.0159 33.3048C18.5428 33.0413 18.8941 32.6021 19.1576 32.2508C19.948 31.3724 20.7384 30.5818 21.5288 29.7035C22.4071 28.7372 23.1097 27.6832 24.2514 26.9804C24.9433 26.5036 25.5146 25.872 25.9201 25.1358C26.8787 23.5347 27.5916 21.7987 28.0349 19.9858C23.3609 24.0001 19.3532 28.7304 16.161 34.0005C16.4886 34.2087 17.0489 34.0515 17.4889 33.8319Z" fill="#A38248"/>
<path d="M28.035 19.9858C27.5917 21.7987 26.8788 23.5347 25.9201 25.1358C25.5147 25.872 24.9434 26.5035 24.2515 26.9804C23.1098 27.6831 22.4072 28.7372 21.5289 29.7034C20.7385 30.5818 19.9481 31.3724 19.1577 32.2508C18.8942 32.6021 18.5429 33.0413 18.0159 33.3048C17.8403 33.3927 17.6646 33.744 17.489 33.8319C17.0499 34.0515 16.4887 34.2087 16.1611 34.0005C12.5819 39.9076 10.0935 46.4101 8.81458 53.1977C9.01013 53.0343 9.20832 52.8742 9.40915 52.7172C10.0239 52.1902 10.7265 51.4875 11.2535 50.6969C11.4604 50.3833 11.6955 50.0893 11.9561 49.8185C12.1317 49.6429 12.483 49.4672 12.5708 49.2915C13.3612 48.3253 14.4151 47.6226 14.9421 46.5685C15.2056 46.0415 15.7325 45.6901 15.9082 45.0752C17.4012 40.2441 19.0698 35.3251 22.7585 31.8116C26.2714 28.298 29.2575 24.5209 30.6627 19.602C30.9411 18.6733 31.3444 17.7869 31.8615 16.9668C30.5435 17.9201 29.268 18.9265 28.035 19.9858Z" fill="#EACA78"/>
<path d="M33.0699 16.1149C32.4816 17.1077 32.0815 18.2006 31.8896 19.3386C31.2177 23.6427 29.4156 27.577 26.9547 31.0001C28.8576 28.7616 30.9493 26.6909 33.2069 24.8109C34.3917 22.2118 35.1092 19.3263 36.1051 16.6156C36.575 15.3235 37.2714 14.1561 38.0777 13.0449C36.3575 13.9827 34.6861 15.0074 33.0699 16.1149Z" fill="#EACA78"/>
<path d="M47.7138 8.87939C45.5127 9.60208 43.3571 10.4565 41.2587 11.4381C40.2048 12.5361 39.4354 13.7975 38.479 15.1221C36.9228 17.42 36.7419 20.1561 35.9321 22.6964C37.5185 21.5462 39.1697 20.488 40.8775 19.5272C42.2634 18.1315 43.6264 16.7058 44.7146 14.9438C45.9064 12.9393 46.6502 10.8426 47.7138 8.87939Z" fill="#EACA78"/>
<path d="M16.8988 49.5986C15.9545 50.4607 14.9149 51.2122 13.8003 51.8385C11.4651 53.1526 9.73493 55.0139 8.20854 57.1686C7.94284 59.4357 7.80971 61.7163 7.80981 63.9989C7.80981 65.1115 7.84143 66.2174 7.90466 67.3166C9.28263 62.4942 12.3837 58.8103 15.6402 54.9313C15.9634 53.1324 16.3835 51.3522 16.8988 49.5986Z" fill="#EACA78"/>
<path d="M14.8358 63.999C14.8358 62.5901 14.8926 61.1949 15.0062 59.8135C13.6379 61.2936 12.1862 62.7016 10.8144 64.3117C9.60411 65.7232 8.66154 67.3437 8.03296 69.0936C8.1161 70.0558 8.22325 71.0106 8.3544 71.9581C8.61787 72.0459 8.44222 71.5189 8.70569 71.6946C9.58394 69.6743 10.7257 66.5121 13.0969 66.6877C13.8873 66.7756 13.7117 68.4445 13.1847 69.2351C11.6215 71.7244 10.211 74.1382 9.20542 76.7014C9.37462 77.4597 9.55906 78.2125 9.75871 78.9597C9.973 78.3756 10.2145 77.7976 10.4613 77.2275C11.7435 74.364 13.3376 71.7086 15.0914 69.1464C14.9234 67.4546 14.8382 65.7388 14.8358 63.999Z" fill="#EACA78"/>
<path d="M19.4738 98.8876C21.1592 97.043 22.6618 95.1105 23.8835 92.9963C23.3319 92.1999 22.8021 91.3873 22.2939 90.5587C20.823 88.1539 19.5551 85.6306 18.5034 83.0151C16.8259 85.7381 15.7852 88.7247 14.8542 91.7208C15.5867 93.0677 16.3689 94.3783 17.2009 95.6525C17.9222 96.7587 18.6799 97.8371 19.4738 98.8876Z" fill="#EACA78"/>
<path d="M26.3478 96.2677C25.938 95.7676 25.5387 95.2596 25.1499 94.7437C24.0723 97.0081 22.8024 99.1936 21.2725 101.156C21.3014 101.189 21.3295 101.224 21.3603 101.258C22.0699 102.103 22.8032 102.928 23.5603 103.732C25.0893 101.867 26.4304 99.8673 27.6634 97.8057C27.2144 97.3009 26.7758 96.7883 26.3478 96.2677Z" fill="#EACA78"/>
<path d="M14.4151 87.7647C14.5907 87.4134 14.7664 86.8863 14.942 86.535C15.6885 84.5077 16.5009 82.5137 17.6523 80.7482C17.2424 79.5629 16.8736 78.3589 16.5457 77.1362C14.6452 80.1509 13.384 83.5291 12.5629 87.0251C12.9423 87.9035 13.3425 88.7682 13.7634 89.619C13.9654 89.0077 14.1876 88.3928 14.4151 87.7647Z" fill="#EACA78"/>
<path d="M65.7994 6C65.5096 6 65.2197 6 64.9308 6.00703C64.2326 6.67021 63.559 7.35887 62.982 8.1828C61.7384 9.85173 60.767 11.5936 59.916 13.3653C61.1789 13.2195 62.4553 13.1208 63.7452 13.0693C65.218 10.7653 66.6293 8.43401 67.9941 6.04216C67.2663 6.01405 66.5348 6 65.7994 6Z" fill="#EACA78"/>
<path d="M71.5081 6.28C71.0057 6.23081 70.5016 6.18777 69.9957 6.15088C68.5642 8.37145 67.3074 10.6825 66.1051 13.0269C66.7339 13.0304 67.3604 13.0456 67.9845 13.0726C69.2536 10.8617 70.455 8.61476 71.5081 6.28Z" fill="#EACA78"/>
<path d="M75.7165 6.84691C74.7136 6.67123 73.7018 6.52483 72.6813 6.40771C72.0174 8.81099 71.1075 11.0377 70.0571 13.2029C70.5314 13.2416 71.0048 13.2855 71.4755 13.3382C72.7129 11.0474 74.148 8.90937 75.7165 6.84691Z" fill="#EACA78"/>
<path d="M34.4408 104.177C34.1299 103.933 33.8208 103.688 33.5152 103.438C32.3164 105.393 30.9999 107.327 29.6008 109.311C30.1898 109.782 30.7885 110.242 31.3968 110.691C31.8702 108.287 32.73 105.581 34.4408 104.177Z" fill="#EACA78"/>
<path d="M38.0012 106.722C37.4808 109.065 36.5915 111.31 35.3665 113.373C35.8477 113.671 36.3334 113.962 36.8235 114.247C36.8481 114.175 36.8735 114.102 36.8999 114.029C36.8999 113.941 37.0755 113.677 37.0755 113.589C37.6824 111.508 38.8039 109.704 40.0791 108.01C39.3739 107.598 38.6827 107.167 38.0012 106.722Z" fill="#EACA78"/>
<path d="M35.5808 106.738C33.422 107.055 32.7326 109.3 32.4498 111.449C32.8673 111.741 33.2888 112.03 33.7145 112.315C34.9642 110.59 36.1947 108.859 35.5808 106.738Z" fill="#EACA78"/>
<path d="M82.0619 8.31348C80.7345 10.328 79.5692 12.4449 78.577 14.644C80.2605 15.0798 81.9205 15.6017 83.5505 16.2076C85.1419 14.3779 86.5471 12.3997 87.8346 10.3373C85.9476 9.56076 84.0207 8.8852 82.0619 8.31348Z" fill="#EACA78"/>
<path d="M92.9248 20.8449C94.0288 18.7218 95.0019 16.5407 95.5789 14.2271C93.5402 13.0065 91.4284 11.9123 89.2555 10.9507C88.2315 13.0694 86.9721 15.0791 85.6029 17.0283C87.9356 18.0108 90.1914 19.1667 92.3513 20.4865C92.5463 20.6033 92.7351 20.7228 92.9248 20.8449Z" fill="#EACA78"/>
<path d="M42.6761 109.434C42.3143 109.249 41.9569 109.06 41.6003 108.867C40.2469 110.808 39.0964 112.875 38.4474 115.152C40.1266 116.053 41.8538 116.871 43.629 117.606C44.264 115.356 45.1844 113.173 46.2638 111.091C45.0448 110.584 43.8489 110.031 42.6761 109.434Z" fill="#EACA78"/>
<path d="M55.7374 113.977C54.0035 113.628 52.2892 113.188 50.6014 112.659C49.7293 114.834 48.8186 117.015 48.1687 119.263C48.7483 119.448 49.3318 119.624 49.919 119.79C51.1041 120.127 52.3044 120.426 53.5198 120.686C54.5843 118.698 56.339 117.037 57.6256 115.077C57.7691 114.846 57.9049 114.612 58.0331 114.374C57.2626 114.261 56.4974 114.129 55.7374 113.977Z" fill="#EACA78"/>
<path d="M106.438 22.6254C105.384 21.5907 104.292 20.5972 103.163 19.645C102.075 22.0297 101.353 24.5644 101.021 27.164C101.17 27.3072 101.321 27.4495 101.469 27.5944C102.869 28.9668 104.188 30.4182 105.421 31.9416C105.443 31.8107 105.466 31.6781 105.49 31.5481C105.909 28.9638 106.994 26.6563 108.172 24.4068C107.606 23.8013 107.028 23.2075 106.438 22.6254Z" fill="#EACA78"/>
<path d="M83.705 111.733C81.1012 112.712 78.4211 113.473 75.6919 114.01C74.8708 116.57 73.975 119.147 72.8245 121.576C75.6807 121.231 78.5072 120.673 81.2802 119.907C82.277 117.636 82.9489 115.164 83.4451 112.624C83.5092 112.321 83.5961 112.023 83.705 111.733Z" fill="#EACA78"/>
<path d="M117.345 42.0887C117.878 41.1286 118.023 40.1027 118.173 39.0723C117.624 37.9199 117.039 36.7891 116.416 35.68C116.136 35.1802 115.847 34.6874 115.552 34.1973C115.464 38.179 114.631 42.043 113.444 45.8904C113.759 46.7184 114.052 47.557 114.322 48.4061C115.164 46.2575 116.255 44.1837 117.345 42.0887Z" fill="#EACA78"/>
<path d="M87.9198 109.931C86.2827 112.717 85.1094 115.694 84.6799 118.853C86.1964 118.331 87.6835 117.749 89.1414 117.106C90.7442 113.343 93.2885 109.895 94.6173 106.038C92.4867 107.504 90.2478 108.805 87.9198 109.931Z" fill="#EACA78"/>
<path d="M119.014 55.001C118.663 55.4402 117.784 55.001 117.697 54.2983C117.258 50.6969 118.136 47.3591 120.068 44.1969C120.113 44.1301 120.173 44.0581 120.244 43.9781C119.975 43.2579 119.694 42.5446 119.401 41.8384C119.12 42.5772 118.753 43.2808 118.31 43.9351C116.824 46.3673 115.869 48.8699 115.196 51.4286C115.407 52.2572 115.597 53.0935 115.767 53.9373C116.068 55.4399 116.302 56.9654 116.47 58.5137C116.665 60.3363 116.763 62.168 116.763 64.001C116.763 64.2399 116.761 64.4786 116.758 64.7169C118.203 62.3321 119.539 59.8857 120.595 57.2866C121.511 54.9387 121.83 52.4783 122.088 50.003C121.977 49.5539 121.86 49.107 121.737 48.6626C121.251 50.9306 120.467 53.1125 119.014 55.001Z" fill="#EACA78"/>
<path d="M98.8416 102.805C98.7248 104.034 98.7538 105.275 98.3753 106.475C97.3214 109.461 94.5988 111.569 93.6328 114.644C93.5976 114.745 93.5643 114.846 93.5309 114.947C96.4383 113.359 99.2046 111.526 101.8 109.467C103.107 105.769 103.598 101.754 103.949 97.7935C102.365 99.5807 100.658 101.255 98.8416 102.805Z" fill="#EACA78"/>
<path d="M114.184 93.3864C113.745 93.0351 112.954 93.2986 112.339 93.7378C110.023 95.4753 110.153 98.4047 110.369 101.102C112.034 99.103 113.564 96.9946 114.948 94.791C114.847 94.2446 114.616 93.751 114.184 93.3864Z" fill="#EACA78"/>
<path d="M123.49 58.0815C122.422 61.8147 120.754 65.4134 118.748 68.8796C118.057 70.0947 117.526 71.3936 117.167 72.7445C115.938 76.8729 116.64 81.0892 114.532 84.9541C112.776 88.2919 110.053 90.9271 108.648 94.5285C107.275 98.2432 107.164 102.18 105.858 105.931C106.891 104.944 107.886 103.919 108.844 102.857C108.544 99.8849 108.493 96.8009 110.052 94.1763C111.106 92.3317 112.336 90.6627 114.092 89.433C114.795 88.9059 115.585 88.9059 115.937 89.6965C116.272 90.4086 116.502 91.1658 116.619 91.9443C117.081 91.1063 117.523 90.2572 117.944 89.397C117.606 87.9687 117.618 86.4807 117.957 84.9567C118.923 81.0918 120.152 77.4904 120.416 73.5377C120.416 73.0106 120.767 72.3079 121.03 71.693C121.838 70.1462 123.055 68.754 123.7 67.1614C123.759 66.115 123.788 65.0609 123.788 63.9992C123.789 62.0229 123.689 60.0478 123.49 58.0815Z" fill="#EACA78"/>
<path d="M109.489 25.8657C108.431 28.5825 107.666 31.4039 107.205 34.2824C108.71 36.3734 110.054 38.5757 111.226 40.8704C111.565 41.5356 111.889 42.209 112.199 42.8906C112.499 42.0184 112.788 41.1391 113.041 40.2423C113.885 37.4982 114.053 34.755 114.177 32.0109C112.752 29.861 111.185 27.8081 109.489 25.8657Z" fill="#EACA78"/>
<path d="M65.7994 114.971C64.3942 114.971 63.004 114.915 61.6286 114.802C60.6942 116.545 59.2574 118.07 58.503 119.914C58.3043 120.421 58.1646 120.95 58.0867 121.489C59.9544 121.737 61.8494 121.895 63.7715 121.963C65.3023 119.775 66.5354 117.389 67.6595 114.936C67.0424 114.96 66.4224 114.971 65.7994 114.971Z" fill="#EACA78"/>
<path d="M98.0117 15.7666C97.3991 18.1138 96.5624 20.3967 95.5131 22.5838C96.3456 23.1823 97.1589 23.8047 97.9528 24.4512C98.2804 22.0137 99.3141 19.6965 100.314 17.3899C99.5597 16.8312 98.7921 16.2901 98.0117 15.7666Z" fill="#EACA78"/>
<path d="M49.8637 8.22056C48.3224 10.6265 47.7735 13.3012 46.4711 15.8248C46.2251 16.2916 45.9478 16.7412 45.6411 17.1705C48.066 16.125 50.569 15.2712 53.1273 14.617C54.7292 11.858 56.3768 9.15341 58.2606 6.48926C55.4226 6.85717 52.6158 7.43587 49.8637 8.22056Z" fill="#EACA78"/>
</svg>
