<svg id="Layer_1" data-name="Layer 1" xmlns="http://www.w3.org/2000/svg" width="176" height="220" viewBox="0 0 246 308"><defs><style>.cls-1{opacity:0.25;}.cls-2{fill:#606060;}.cls-3{fill:#001e26;}.cls-4{fill:#020930;}.cls-5{fill:#0d1b60;}.cls-6{fill:#050d47;}.cls-7{fill:#20204f;}.cls-8{fill:#d8bf87;}.cls-9{fill:#ffecbd;}.cls-10{fill:#5e6899;}.cls-11{fill:#49547c;}.cls-12{fill:#773e3e;}.cls-13{fill:#633030;}.cls-14{fill:#262626;}.cls-15{fill:#434344;}.cls-16{fill:#9e5e5e;}.cls-17{fill:#844840;}.cls-18{fill:#112e89;}.cls-19{fill:#2b43bf;}.cls-20{fill:#515150;}.cls-21{fill:#3f3f3f;}.cls-22{fill:#a8893d;}.cls-23{fill:#5075ea;}.cls-24{fill:#fff;}.cls-25{fill:#bfbfbf;}.cls-26{fill:#aa8971;}.cls-27{fill:#d1b293;}.cls-28{fill:#e8caaf;}.cls-29{fill:#1a1a1a;}.cls-30{fill:#896954;}.cls-31{fill:#fff7e6;}.cls-32{fill:#7c7c7c;}.cls-33{opacity:0.5;}.cls-34{fill:none;}</style></defs><g class="cls-1"><path class="cls-2" d="M129.18,286.65c43.52-11.67,76.4-30.08,73.44-41.13S162,235,118.45,246.64,42.05,276.72,45,287.77,85.65,298.31,129.18,286.65Z"/></g><path class="cls-3" d="M185,169.06a13.29,13.29,0,0,0,.53-5.64c-.05-.39-.12-.78-.2-1.16a1.6,1.6,0,0,0,.05.21,21.81,21.81,0,0,0-5.53-14.2,36.57,36.57,0,0,0-12.55-9,54.81,54.81,0,0,0-13-4.12.78.78,0,0,0,.05-.14,60.7,60.7,0,0,1,6.28,1.58,65.62,65.62,0,0,0,5.74-7c2.35-3.26,4.13-7,4-11.15s-2-7.72-4.08-11.13l-.77-1.24c-.76-1.21-1.55-2.39-2.37-3.56h0a98.36,98.36,0,0,0-12.35-14.3c-.12-.24-.25-.47-.36-.71-1.47-3.09-2.08-7.23.41-9.59,1.1-1,2.6-1.52,3.89-2.32s2.44-2.2,2.14-3.67a3.15,3.15,0,0,0-1.15-1.74,2.13,2.13,0,0,1-.26.89c-.6,1.2-1.81,1.44-3.08,1.37,1.27.06,2.48-.17,3.07-1.37a2,2,0,0,0,.27-.89,7.42,7.42,0,0,0-1.23-.84,46.25,46.25,0,0,0-10.21-3.88C139,63.86,133.47,62.29,128,63.21c-3.44.59-6.64,2.13-10,3.24a27,27,0,0,1-4.14.72,22.7,22.7,0,0,0-10.57,1.72c-4.64,2-8.3,5.78-11.65,9.58A170.37,170.37,0,0,0,76,99.32q-3.52,5.5-6.62,11.27c-2.07,3.87-2.17,6.78-2.42,11a44.16,44.16,0,0,1-10.34,6.75,74.32,74.32,0,0,0,10.51-3.47c0,.26.1.51.15.76l-4.72,4.86a22.24,22.24,0,0,0-9.75,9c-3.45,6.07-5,12.92-1.3,20.12,0,0,0-.07,0-.11.1.21.18.43.29.63l.14.25c2.2,3.9,5.91,6.48,9.72,9a13.25,13.25,0,0,0,.49,1.27c2,4.51,5.88,8,11.49,10.37a16.85,16.85,0,0,1,1.53,8.33,15.06,15.06,0,0,1-6.32,11.14c-.32.22-.65.42-1,.61h0a67.35,67.35,0,0,1-6.37,2.83,36.5,36.5,0,0,0-15.88,13.6c1.63.18,3.26.44,4.87.78h0a49.79,49.79,0,0,1,17,7.15.93.93,0,0,0,.05-.1.69.69,0,0,0,0,.1,48.64,48.64,0,0,1,8.82,7.45c.56.59,1.09,1.22,1.62,1.84a12,12,0,0,0-.43,3.62q-1.86,3.67-3.4,7.49a68.83,68.83,0,0,0-3.87,12,88.31,88.31,0,0,0-1.9,13.35c0,.12,0,.24,0,.35a18.07,18.07,0,0,0-2.54,3.11c-1,1.44-1.84,2.94-2.71,4.45-.24,0-.48,0-.72.06A6.77,6.77,0,0,0,58,281.4a3.21,3.21,0,0,0-.77,1.4C56.57,285.33,59,286,61,286.32l1-.28h0l-1,.29a19.16,19.16,0,0,0,10.28-1.26,18.84,18.84,0,0,0,2.83-1.51c1.45-.93,2.93-1.82,4.42-2.7a25.87,25.87,0,0,1,3,.76l.21.07h0a.63.63,0,0,0,.27,0,1.19,1.19,0,0,0,.47-.22,10.62,10.62,0,0,0,4-4.27,27.08,27.08,0,0,0,1-3.06l-.22.24c.07-.08.15-.16.22-.25.31-1.38.59-2.76.86-4.14a110.46,110.46,0,0,0,2-15.91c0-.78,0-1.57.06-2.36a38.1,38.1,0,0,0,3.51,3.68,34.07,34.07,0,0,0,9.9,6.27h0a39.52,39.52,0,0,0,15.54,2.89c0,1,.1,2,.18,2.94.1,1.34.21,2.74.37,4.09.25.39.52.76.8,1.13-.28-.36-.55-.74-.8-1.12a22,22,0,0,0,.59,3.12,10.11,10.11,0,0,0,3.64,4.64,1.28,1.28,0,0,0,.47.26.71.71,0,0,0,.29,0s0,0,0-.06v0l.24,0c1.09-.25,2.22-.33,3.33-.47,1.57,1,3.15,1.92,4.73,2.83a15,15,0,0,0,4.2,1.73,22.63,22.63,0,0,0,9.34.3h0c1.94-.39,4.45-1.29,3.63-3.72a3.58,3.58,0,0,0-.79-1.36,6.09,6.09,0,0,0-4.35-2c-.26,0-.51,0-.75,0-.89-1.33-1.81-2.63-2.8-3.88a20.69,20.69,0,0,0-2.45-2.67v-.3c.05-3.34,0-6.66-.18-10a44.65,44.65,0,0,0,18.42-15.24c1-1.45,1.88-3,2.74-4.53h0A109.48,109.48,0,0,1,166,230.26c-3.25-3.77-7.89-6-12.25-8.8-3.77-2.39-7.18-4.78-9.39-8.67a24.8,24.8,0,0,1-3.16-8.75,24.76,24.76,0,0,0,3.16,8.74c2.21,3.89,5.62,6.28,9.39,8.68,4.36,2.79,9,5,12.25,8.8a24.84,24.84,0,0,1,5.07-5.42,19.89,19.89,0,0,1,10.42-4h0a20,20,0,0,1,2.9,0c-4.36-5.69-11.56-8.21-17.89-11.57l-.64-.35h0c-6.1-3.4-12-8.84-11.86-15.77,0-.13,0-.27,0-.4C155.07,175.8,180.43,183.44,185,169.06ZM81.1,188a1.1,1.1,0,0,0,0-.18,1.1,1.1,0,0,1,0,.18Zm.48-1.13a1.36,1.36,0,0,0,0-.2,1.36,1.36,0,0,1,0,.2Zm.48-1.49h0v.35h0Zm63.18,11.24c0,.06,0,.12,0,.17S145.24,196.7,145.24,196.64Zm-22.43,21.83Zm20.95-33.79a24.23,24.23,0,0,0-.49,4.15,23.27,23.27,0,0,1,.49-4.15Zm-65.4,91.58h0l-.06.06h0Zm46.91,1a.41.41,0,0,1,0-.09h0l-.15.35c0-.09,0-.18.08-.27ZM155,132.12c.05-.42.09-.84.1-1.28.14-5.38-3-9.94-6.3-14,3.25,4,6.44,8.6,6.3,14C155.12,131.27,155.08,131.7,155,132.12Zm-.18,1c.05-.26.1-.52.14-.79C155,132.64,154.9,132.9,154.85,133.16ZM135.71,71.33a38.62,38.62,0,0,1,7.21-.06,38.51,38.51,0,0,0-7.2.06,22.88,22.88,0,0,0-6.09,1.53h0A22.81,22.81,0,0,1,135.71,71.33ZM69.12,114.88c3.78-6.5,9.61-12.35,15.45-17.23h0c-5.84,4.88-11.67,10.72-15.45,17.22l-.18.31a17.38,17.38,0,0,0-1,2.06,18.28,18.28,0,0,1,1-2.07ZM67,121.31a2.46,2.46,0,0,1,0,.28h0A2.46,2.46,0,0,0,67,121.31Zm1,6.84c.07.18.16.36.24.54-.45.08-.9.17-1.34.27C67.3,128.7,67.67,128.43,68,128.15ZM68.61,223l0,.1a.69.69,0,0,0,0-.1c2.46-5.09,6.52-8.62,9.93-13.35a24.89,24.89,0,0,0,4.13-9.2h0a24.93,24.93,0,0,1-4.13,9.21C75.12,214.34,71.06,217.87,68.61,223Zm2.44,59v0a41.4,41.4,0,0,0,3.65-2.51h0A43.78,43.78,0,0,1,71.05,282Zm10.38-2.79,0,0,0,.09h0c0,.2.07.4.1.6A5.12,5.12,0,0,0,81.43,279.2Zm.26,1.06c0,.09,0,.17,0,.26C81.72,280.43,81.7,280.35,81.69,280.26Zm41.44-15.87a27.12,27.12,0,0,0,4.55,9h0a27,27,0,0,1-4.55-9ZM120.81,273c-.06-.07-.12-.13-.17-.2S120.75,272.91,120.81,273Zm4.15,5.38,0,.14Zm33.28-40.06c.62.64,1.24,1.28,1.84,1.95C159.48,239.58,158.86,238.94,158.24,238.3Z"/><path class="cls-3" d="M131.4,62.94c4.34,0,8.68,1.24,12.88,2.48a46.25,46.25,0,0,1,10.21,3.88,7.42,7.42,0,0,1,1.23.84,2,2,0,0,1-.27.89,2.74,2.74,0,0,1-2.72,1.38h0A2.74,2.74,0,0,0,155.46,71a2.13,2.13,0,0,0,.26-.89,3.18,3.18,0,0,1,1.15,1.74c.3,1.47-.86,2.88-2.14,3.67s-2.79,1.28-3.89,2.32c-2.49,2.36-1.88,6.5-.41,9.59.11.24.24.47.36.71a98.36,98.36,0,0,1,12.35,14.3h0c.82,1.17,1.61,2.35,2.37,3.56l.77,1.24c2.07,3.41,4,7.13,4.08,11.13s-1.66,7.89-4,11.15a66.53,66.53,0,0,1-5.74,7,58.3,58.3,0,0,0-6.28-1.59.78.78,0,0,1-.05.14,54.81,54.81,0,0,1,13,4.12,36.57,36.57,0,0,1,12.55,9,21.81,21.81,0,0,1,5.53,14.2,1.6,1.6,0,0,1-.05-.21c.08.38.15.77.2,1.16a13.29,13.29,0,0,1-.53,5.64c-4.53,14.38-29.89,6.74-30.91,23.65,0,.13,0,.27,0,.4-.16,6.93,5.76,12.37,11.86,15.77h0l.64.35c6.33,3.36,13.53,5.88,17.89,11.58-.43,0-.85-.05-1.28-.05s-1.08,0-1.62.07h0a19.89,19.89,0,0,0-10.42,4,24.84,24.84,0,0,0-5.07,5.42c-3.25-3.78-7.89-6-12.25-8.8-3.77-2.4-7.18-4.79-9.39-8.68a24.76,24.76,0,0,1-3.16-8.74,24.8,24.8,0,0,0,3.16,8.75c2.21,3.89,5.62,6.28,9.39,8.67,4.36,2.8,9,5,12.25,8.8a109.48,109.48,0,0,0-5.89,10.06h0c-.86,1.55-1.76,3.08-2.74,4.53A44.65,44.65,0,0,1,139,260.09c.18,3.33.23,6.65.18,10v.3a20.69,20.69,0,0,1,2.45,2.67c1,1.25,1.91,2.55,2.8,3.88h.75a6.09,6.09,0,0,1,4.35,2,3.58,3.58,0,0,1,.79,1.36c.82,2.43-1.69,3.33-3.63,3.73h0a22.58,22.58,0,0,1-9.34-.3,15,15,0,0,1-4.2-1.73c-1.58-.91-3.16-1.86-4.73-2.83-1.11.14-2.24.22-3.33.47l-.24,0v0h0a.43.43,0,0,0,0,.05l-.14,0-.15,0a1.28,1.28,0,0,1-.47-.26,10.11,10.11,0,0,1-3.64-4.64,22,22,0,0,1-.59-3.12c.25.38.52.76.8,1.12-.28-.37-.55-.74-.8-1.13-.16-1.35-.27-2.75-.37-4.09-.08-1-.13-2-.18-2.94h-.44a39.21,39.21,0,0,1-15.1-2.89h0a34.07,34.07,0,0,1-9.9-6.27,38.1,38.1,0,0,1-3.51-3.68c0,.79,0,1.58-.06,2.37a110.5,110.5,0,0,1-2,15.9c-.27,1.38-.55,2.76-.86,4.14-.07.09-.15.17-.22.25l.22-.24a27.08,27.08,0,0,1-1,3.06,10.62,10.62,0,0,1-4,4.27,1.19,1.19,0,0,1-.47.22H82a.69.69,0,0,1-.2,0h0l-.21-.07a25.87,25.87,0,0,0-3-.76c-1.49.88-3,1.77-4.42,2.7a18.84,18.84,0,0,1-2.83,1.51A17.59,17.59,0,0,1,64,286.52a24,24,0,0,1-3-.19l1-.29h0l-1,.28c-2-.29-4.47-1-3.82-3.52a3.21,3.21,0,0,1,.77-1.4,6.77,6.77,0,0,1,4.37-2.22c.24,0,.48,0,.72-.06.87-1.51,1.74-3,2.71-4.45a18.07,18.07,0,0,1,2.54-3.11c0-.11,0-.23,0-.35a88.31,88.31,0,0,1,1.9-13.35,68.83,68.83,0,0,1,3.87-12q1.55-3.81,3.4-7.49a12,12,0,0,1,.43-3.62c-.53-.62-1.06-1.25-1.62-1.84a48.64,48.64,0,0,0-8.82-7.45.69.69,0,0,1,0-.1.93.93,0,0,1-.05.1,49.79,49.79,0,0,0-17-7.15h0c-1.61-.34-3.24-.6-4.87-.78a36.5,36.5,0,0,1,15.88-13.6,67.35,67.35,0,0,0,6.37-2.83h0c.34-.19.67-.39,1-.61a15.06,15.06,0,0,0,6.32-11.14A16.85,16.85,0,0,0,73.61,181c-5.61-2.38-9.49-5.86-11.49-10.38a12.14,12.14,0,0,1-.49-1.26c-3.81-2.54-7.52-5.12-9.72-9l-.14-.25c-.11-.2-.19-.42-.29-.63,0,0,0,.07,0,.11-3.71-7.2-2.15-14.05,1.3-20.12a22.24,22.24,0,0,1,9.75-9l4.72-4.86c0-.25-.11-.5-.15-.76a74.32,74.32,0,0,1-10.51,3.47A44.16,44.16,0,0,0,67,121.6c.25-4.23.35-7.14,2.42-11S73.64,103,76,99.32A170.37,170.37,0,0,1,91.71,78.47c3.35-3.8,7-7.54,11.65-9.58a22,22,0,0,1,8.89-1.77c.56,0,1.12,0,1.68,0a27,27,0,0,0,4.14-.72c3.31-1.11,6.51-2.65,10-3.24a20.27,20.27,0,0,1,3.38-.27m-1.77,9.92a22.88,22.88,0,0,1,6.09-1.53,33.55,33.55,0,0,1,3.73-.2c1.16,0,2.32.05,3.47.14-1.15-.09-2.31-.14-3.47-.14a33.73,33.73,0,0,0-3.74.2,22.81,22.81,0,0,0-6.08,1.53h0M68,117.25a17.38,17.38,0,0,1,1-2.06l.18-.31c3.78-6.5,9.61-12.34,15.45-17.22h0c-5.84,4.88-11.67,10.73-15.45,17.23l-.18.3a18.28,18.28,0,0,0-1,2.07M155,132.12c.05-.42.09-.85.1-1.29.14-5.37-3-9.93-6.3-14,3.25,4,6.44,8.6,6.3,14,0,.44,0,.86-.1,1.28M67,121.59h0a2.46,2.46,0,0,0,0-.28,2.46,2.46,0,0,1,0,.28m0,7.37c.44-.1.89-.19,1.34-.27-.08-.18-.17-.36-.24-.54-.36.28-.73.55-1.1.81M155,132.37c0,.09,0,.17,0,.26s-.07.35-.1.53c0-.18.07-.35.1-.53s0-.17,0-.26m-11.72,56.46a24.23,24.23,0,0,1,.49-4.15h0a23.27,23.27,0,0,0-.49,4.15m-61.21-3.08h0v-.35h0v.35m-.48,1.14h0a1.36,1.36,0,0,0,0-.2,1.36,1.36,0,0,1,0,.2M81.1,188h0a1.1,1.1,0,0,0,0-.18,1.1,1.1,0,0,1,0,.18m64.11,8.79c0-.05,0-.11,0-.17s0,.12,0,.17M68.56,223.05h0l0-.09c2.45-5.09,6.51-8.62,9.92-13.34a24.93,24.93,0,0,0,4.13-9.21h0a24.89,24.89,0,0,1-4.13,9.2c-3.41,4.73-7.47,8.26-9.93,13.35a.36.36,0,0,1,0,.09m54.25-4.58h0m37.27,21.78c-.6-.67-1.22-1.31-1.84-1.94.62.63,1.24,1.27,1.84,1.94m-32.4,33.14h0a27.12,27.12,0,0,1-4.55-9h0a27,27,0,0,0,4.55,9m-7-.52.1.11-.1-.11-.07-.09.07.09m-42.39,3.45.06-.06h0l0,.05h0m46.87,1.24.15-.35h0a.41.41,0,0,0,0,.09h0c0,.09,0,.18-.08.27m-.23.8,0,.14,0-.14m-43.34,1.51c0-.2-.05-.4-.1-.6h0l0-.09,0,0a5.12,5.12,0,0,1,.19.67M71.05,282a43.78,43.78,0,0,0,3.65-2.52h0A41.4,41.4,0,0,1,71,282v0m10.66-1.57s0,.07,0,.1,0-.07,0-.1a1,1,0,0,0,0-.16,1,1,0,0,1,0,.16M131.4,62.24h0a21,21,0,0,0-3.5.28,37.19,37.19,0,0,0-7,2.14c-1,.38-2.06.78-3.09,1.12a17.74,17.74,0,0,1-3,.56l-.95.13c-.55,0-1.11,0-1.65,0a22.56,22.56,0,0,0-9.18,1.83c-4.95,2.18-8.73,6.18-11.88,9.76A170.08,170.08,0,0,0,75.4,99c-2.35,3.67-4.58,7.47-6.64,11.31s-2.24,6.77-2.48,10.81v.19a43.29,43.29,0,0,1-9.95,6.45.7.7,0,0,0,.29,1.34l.17,0a74.33,74.33,0,0,0,9-2.86l-3.64,3.76a22.9,22.9,0,0,0-10,9.19c-4.24,7.46-4.67,14.26-1.31,20.78L51,160c.06.14.13.28.2.41l.15.27c2.17,3.85,5.69,6.42,9.73,9.12.15.41.29.77.44,1.1,2,4.59,5.93,8.16,11.6,10.62a16.09,16.09,0,0,1,1.36,7.74,14.24,14.24,0,0,1-6,10.62c-.3.2-.59.38-.89.55l-.07,0a35.24,35.24,0,0,1-4.19,1.92c-.69.28-1.41.57-2.11.88A37.11,37.11,0,0,0,45,217.16a.71.71,0,0,0,0,.68.7.7,0,0,0,.56.39c1.6.17,3.22.43,4.8.76h.06a49,49,0,0,1,16.73,7l0,0a48.08,48.08,0,0,1,8.7,7.34c.42.45.86,1,1.36,1.56a13,13,0,0,0-.37,3.29c-1.21,2.4-2.33,4.88-3.34,7.37a70.44,70.44,0,0,0-3.91,12.12,92,92,0,0,0-1.91,13.46.19.19,0,0,0,0,.08,20.5,20.5,0,0,0-2.42,3c-.92,1.37-1.75,2.79-2.55,4.17l-.4,0a7.41,7.41,0,0,0-4.8,2.47,3.79,3.79,0,0,0-.91,1.67,3,3,0,0,0,.31,2.5c.84,1.25,2.65,1.68,4,1.88l.11,0a22.57,22.57,0,0,0,3.06.2,18.26,18.26,0,0,0,7.61-1.52,19.49,19.49,0,0,0,2.9-1.55c1.34-.85,2.74-1.71,4.16-2.54l.18,0a23.1,23.1,0,0,1,2.45.64l.2.07.12,0a1.35,1.35,0,0,0,.33,0h.14l.09,0a1.88,1.88,0,0,0,.73-.34,11.17,11.17,0,0,0,4.2-4.55,17.35,17.35,0,0,0,.78-2.41c.06-.23.12-.47.19-.69a.29.29,0,0,0,0-.09c.32-1.39.59-2.76.87-4.17a110.29,110.29,0,0,0,2-16l0-.58q1.19,1.29,2.37,2.37a34.73,34.73,0,0,0,10,6.37l.09.05a40,40,0,0,0,15.14,2.94c.05.79.09,1.54.15,2.29l0,.28c.1,1.26.2,2.57.35,3.84v0l.06.42a19.65,19.65,0,0,0,.55,2.79,10.73,10.73,0,0,0,3.87,5,1.84,1.84,0,0,0,.7.39l.08,0a1.27,1.27,0,0,0,.28,0l.27,0,.11,0,.18,0a19.64,19.64,0,0,1,2.41-.36l.59-.06c1.28.78,2.91,1.77,4.54,2.71a15.32,15.32,0,0,0,4.4,1.8,21.54,21.54,0,0,0,5.53.67,22.43,22.43,0,0,0,4-.35h.07c2.09-.42,3.39-1.14,4-2.18a2.91,2.91,0,0,0,.16-2.45,4.44,4.44,0,0,0-.94-1.61,6.83,6.83,0,0,0-4.83-2.21h-.43c-.93-1.39-1.77-2.54-2.61-3.61a21.88,21.88,0,0,0-2.29-2.54c0-3.41,0-6.54-.17-9.54A45,45,0,0,0,158,245.25c.87-1.29,1.72-2.7,2.77-4.59q.67-1.2,1.32-2.4a74.89,74.89,0,0,1,4.53-7.59l0-.07a24.18,24.18,0,0,1,4.89-5.21,19.16,19.16,0,0,1,9.91-3.86h.15c.52-.05,1-.07,1.56-.07s.82,0,1.23,0h.05a.71.71,0,0,0,.61-.37.7.7,0,0,0-.06-.76c-3.51-4.59-8.8-7.17-13.92-9.67-1.39-.68-2.83-1.37-4.19-2.1l-.63-.34,0,0c-4.38-2.45-11.64-7.64-11.47-15.12,0-.12,0-.23,0-.35.52-8.49,7.5-10.45,14.89-12.52,6.76-1.9,13.76-3.87,16-11a14,14,0,0,0,.55-5.93c0-.31-.09-.61-.14-.89a22.37,22.37,0,0,0-5.7-14.64,37.14,37.14,0,0,0-12.78-9.21,55.82,55.82,0,0,0-5.75-2.27,68.74,68.74,0,0,0,5.1-6.37c2.86-4,4.26-7.85,4.15-11.58-.13-4.25-2.19-8.19-4.18-11.47l-.78-1.26c-.76-1.21-1.57-2.41-2.39-3.58l0,0a97.93,97.93,0,0,0-12.31-14.27l0-.06-.27-.53c-1.28-2.72-2-6.65.26-8.78A9.36,9.36,0,0,1,153.61,77c.49-.25,1-.5,1.48-.8,1.38-.86,2.86-2.52,2.46-4.42a3.87,3.87,0,0,0-1.37-2.13l-.07,0a9.23,9.23,0,0,0-1.28-.86,47.28,47.28,0,0,0-10.35-4c-4-1.17-8.52-2.5-13.08-2.5Z"/><path class="cls-4" d="M147.23,114.91c-3.89-4.71-8.26-9-12.55-13.28-7-7-15.16-15.45-25.54-15.52-8-.06-15.5,4.34-21.75,9.25-6.73,5.3-13.88,12-18.27,19.52l-.18.31a15.19,15.19,0,0,0-2,6.57c-.28,4.53,1.7,8.74,4.71,12.29a34.49,34.49,0,0,0,9.55,7.64c8.92,4.89,19.05,7.27,29,8.38,10.83,1.22,22.06.33,32.2-4l.27-.11c6.09-2.66,12.24-7.76,12.44-15.09C155.29,124.58,151,119.42,147.23,114.91Z"/><path class="cls-5" d="M78.53,209.61a24.93,24.93,0,0,0,4.13-9.21c-6.4,6-15.31,7.36-23.27,10.47a19,19,0,0,0-9,7.44,49.79,49.79,0,0,1,17,7.15c.34-.85.72-1.69,1.11-2.5C71.06,217.87,75.12,214.34,78.53,209.61Z"/><path class="cls-4" d="M144.27,228.4a92,92,0,0,0-13.64-6.1A36.08,36.08,0,0,1,117,213.8c-4.81-4.75-8.58-10.46-10.12-17a38.6,38.6,0,0,1-1.24,12.66c-2.57,9.08-6.88,17.34-7.54,26.67a40.39,40.39,0,0,0,1.14,14.66,41,41,0,0,0,4.5,10.88c18.4,7.64,42.63-.46,53.67-16.86,1-1.45,1.88-3,2.74-4.53-.63-.7-1.28-1.39-1.94-2C154.14,234,149.35,231.33,144.27,228.4Z"/><path class="cls-5" d="M155.21,212.91a18.69,18.69,0,0,1-10-5.38c-1.74-2-2.7-4.43-4.07-6.59-.36,4.19,1.19,8.14,3.23,11.84,2.21,3.89,5.62,6.28,9.39,8.68,4.36,2.79,9,5,12.25,8.8a25.12,25.12,0,0,1,5.07-5.43,19.91,19.91,0,0,1,10.43-4c-2.17-1.85-5-2.81-7.65-3.67C167.71,215.24,161.61,214.4,155.21,212.91Z"/><path class="cls-6" d="M148.81,200.7a6.81,6.81,0,0,1-1.61-1.55c-.24-.42-.42-.42-.48-.54-.54-.54-1-1.2-1.49-1.74-.06-.06.05-.24,0-.29a8,8,0,0,1-1.5-3.24c-.06-.23-.18-.59-.24-.83a23,23,0,0,1,.72-9.69,5.36,5.36,0,0,0,0-2.39,2.5,2.5,0,0,0-.48-1.08,11,11,0,0,0-1.85-2.21,2.87,2.87,0,0,0-1-.6v-.18c-2.1-.6-4.19-.3-6.28-.24-2.46.06-4.55,1.26-6.82,2.15a2.17,2.17,0,0,1-1.08.18v.18c-.12.06-.3-.06-.36,0-.24.24-.65.24-.83.66a.51.51,0,0,0-.3,0,1.84,1.84,0,0,1-1,.3c-.06,0-.12.18-.18.18-2,.06-4,.06-6,0-.12,0-.18-.18-.3-.18a9.45,9.45,0,0,1-3.41-.54,1.78,1.78,0,0,0-.78-.24c-.06,0-.12-.12-.18-.18a1,1,0,0,1-.47-.12,4.88,4.88,0,0,0-2.28,0,18.4,18.4,0,0,1-6,.54,10.9,10.9,0,0,0-1.91-.42c-.05,0-.11-.2-.24-.19.12,0,.11.14.06.19s-.24-.06-.3,0v.18c-5.2.72-10.77,1.62-15.49-1a.65.65,0,0,0-.48-.12v-.18c-.12-.06-.24.06-.36,0v-.18a2.91,2.91,0,0,0-.66,0c.12.18-.24.18-.12.36-.54-.06-.6.54-.72.84-1,2-1.25,4.25-2.09,6.4-.06.18-.24.3-.3.48v.36c-.12.3-.18.6-.48.78-.06.06,0,.24,0,.36a1.43,1.43,0,0,1-.48.77.87.87,0,0,0,0,.36c-.12.3-.35.48-.47.78a15.33,15.33,0,0,1-4.13,6.52c-2.55,2.37-5,5-8.68,5.78a67.35,67.35,0,0,1-6.37,2.83,36.5,36.5,0,0,0-15.88,13.6c1.63.18,3.26.44,4.87.78a19,19,0,0,1,9-7.44c8-3.11,16.87-4.48,23.27-10.46a24.93,24.93,0,0,1-4.13,9.21c-3.41,4.72-7.47,8.25-9.92,13.34-.4.82-.78,1.65-1.11,2.5a48.64,48.64,0,0,1,8.82,7.45c6.47,7,10.48,16.14,17.5,22.52a33.91,33.91,0,0,0,9.91,6.27,40.86,40.86,0,0,1-4.5-10.88,40.32,40.32,0,0,1-1.14-14.65c.66-9.33,5-17.59,7.54-26.68a38,38,0,0,0,1.24-12.65c-.11-.45-.2-.89-.28-1.35.36.12.18.54.24.72s0,.42,0,.63c1.54,6.49,5.31,12.2,10.12,17a36.2,36.2,0,0,0,13.64,8.5,92,92,0,0,1,13.64,6.1c5.08,2.93,9.87,5.62,13.94,9.87.65.67,1.31,1.35,1.93,2A109.48,109.48,0,0,1,166,230.26c-3.25-3.77-7.89-6-12.25-8.8-3.77-2.39-7.18-4.78-9.39-8.67-2-3.71-3.59-7.66-3.23-11.84,1.37,2.15,2.33,4.61,4.07,6.58a18.63,18.63,0,0,0,10,5.38c6.41,1.5,12.51,2.34,18.67,4.25,2.69.87,5.48,1.82,7.65,3.67a20,20,0,0,1,2.9,0c-4.36-5.69-11.56-8.21-17.89-11.57l-.64-.35a7.3,7.3,0,0,0-1.12-.27C158.62,207.35,153.66,204.47,148.81,200.7Z"/><path class="cls-4" d="M154,193.11c0-.13,0-.27,0-.4,1-16.91,26.38-9.27,30.91-23.65a13.29,13.29,0,0,0,.53-5.64,13.64,13.64,0,0,0-1.84-5.35,13.48,13.48,0,0,0-9.12-6.26,20.32,20.32,0,0,0-5.88,0,38.26,38.26,0,0,0-13.11,3.69c-6,3.13-11.78,8.15-18.54,7.49-4.26-.42-7.91-3.08-11.36-5.62-9.07-6.7-18.43-13.31-29.06-17.07s-22.84-4.4-32.9.7c-2.37,1.2-4.71,2.68-7.34,3.21-3.41.67-4.82,1.4-5.79,5a15.1,15.1,0,0,0,1.22,10.93l.14.25c4.19,7.42,13.83,10.07,19.25,16.7a17.42,17.42,0,0,1,4,12.29,15.06,15.06,0,0,1-6.32,11.14c-.33.22-.66.43-1,.62,3.64-.8,6.13-3.4,8.68-5.77a15.33,15.33,0,0,0,4.13-6.52c.12-.3.35-.48.47-.78,0-.12-.06-.24,0-.36a1.45,1.45,0,0,0,.48-.78c0-.12-.06-.3,0-.36.3-.18.36-.48.48-.77v-.36c.06-.18.24-.3.3-.48.84-2.16,1.08-4.37,2.09-6.4.12-.3.18-.9.72-.84-.12-.18.24-.18.12-.36a2.43,2.43,0,0,1,.66,0v.18c.12.06.24-.06.36,0v.18a.65.65,0,0,1,.48.12c4.72,2.63,10.28,1.74,15.49,1v-.18c.06-.06.24.06.3,0s.06-.2-.06-.19h0c.13,0,.19.14.24.19a10.9,10.9,0,0,1,1.91.42,18.68,18.68,0,0,0,6-.54,4.88,4.88,0,0,1,2.28,0,1.26,1.26,0,0,0,.47.12c.06.06.12.18.18.18a1.66,1.66,0,0,1,.78.24,9.23,9.23,0,0,0,3.41.53c.12,0,.18.18.3.18,2,.06,4,.06,6,0,.06,0,.12-.18.18-.18a1.83,1.83,0,0,0,1-.29.39.39,0,0,1,.3,0c.18-.42.59-.42.83-.66.06-.06.24.06.36,0v-.18a2.17,2.17,0,0,0,1.08-.18c2.27-.9,4.36-2.09,6.82-2.15,2.09-.06,4.18-.36,6.28.24v.17a2.87,2.87,0,0,1,1,.6,11.61,11.61,0,0,1,1.85,2.21,2.55,2.55,0,0,1,.48,1.08,5.4,5.4,0,0,1,0,2.4,23,23,0,0,0-.72,9.69c.06.23.18.59.24.83a8,8,0,0,0,1.49,3.23c.06.06-.06.24,0,.3.54.54,1,1.2,1.5,1.74.06.11.24.11.48.53a6.66,6.66,0,0,0,1.61,1.56c4.85,3.77,9.81,6.64,16,7.9a7,7,0,0,1,1.12.27C159.79,205.48,153.87,200,154,193.11Z"/><path class="cls-7" d="M106.58,195.5c.09.45.19.9.29,1.34,0-.21,0-.42-.05-.62S106.94,195.62,106.58,195.5Z"/><path class="cls-7" d="M102.46,178.45h0Z"/><path class="cls-8" d="M73.61,165.56c-1.24-2.81,2.45-7.23,6.66-10.36a36.6,36.6,0,0,1,18.38-7l-.94-11.63c-5.19,3.36-10,7.55-15.45,11.29-4.19,2.87-7.84,6.16-9.21,11-.62,2.19-.79,5.07.65,6.91A1.51,1.51,0,0,1,73.61,165.56Z"/><path class="cls-8" d="M80.88,173.78c-5-1.56-9.93-3.35-13.82-7.06a13.29,13.29,0,0,1-3.75-11.39,19,19,0,0,0-2.4,7,15.48,15.48,0,0,0,1.21,8.31c2.13,4.83,6.38,8.48,12.63,10.86a54.76,54.76,0,0,0,15,3.07l.67-8.36C87.24,175.48,84.07,174.71,80.88,173.78Z"/><path class="cls-9" d="M67.06,166.72c3.89,3.71,8.8,5.51,13.82,7.06,3.19.94,6.36,1.7,9.53,2.42l.34-4.16c-9.1-.73-15.44-3.08-17-6.3-1.44-1.84-1.27-4.73-.65-6.92,1.37-4.84,5-8.13,9.21-11,5.47-3.74,10.26-7.93,15.45-11.29l-.07-.89a47.18,47.18,0,0,0-13.45,3.16,49.39,49.39,0,0,0-11.42,6.32,35.2,35.2,0,0,0-9.36,10,1.62,1.62,0,0,1-.1.18A13.3,13.3,0,0,0,67.06,166.72Z"/><path class="cls-8" d="M150.45,165.56c1.24-2.81-2.46-7.23-6.66-10.36a36.67,36.67,0,0,0-18.38-7l.94-11.63c5.19,3.36,10,7.55,15.45,11.29,4.19,2.87,7.83,6.16,9.21,11,.61,2.19.79,5.07-.65,6.91Z"/><path class="cls-8" d="M143.17,173.78c5-1.56,9.93-3.35,13.82-7.06a13.29,13.29,0,0,0,3.75-11.39,19.18,19.18,0,0,1,2.41,7,15.39,15.39,0,0,1-1.22,8.31c-2.13,4.83-6.38,8.48-12.63,10.86a54.76,54.76,0,0,1-15,3.07l-.68-8.36C136.81,175.48,140,174.71,143.17,173.78Z"/><path class="cls-9" d="M157,166.72c-3.89,3.71-8.79,5.51-13.82,7.06-3.18.94-6.36,1.71-9.53,2.42l-.33-4.15c9.09-.74,15.43-3.08,17.05-6.3,1.44-1.85,1.26-4.73.65-6.92-1.38-4.85-5-8.13-9.21-11-5.48-3.73-10.26-7.92-15.45-11.29l.08-.89a47.14,47.14,0,0,1,13.43,3.17,49,49,0,0,1,11.42,6.32,35.06,35.06,0,0,1,9.36,10l.1.18A13.25,13.25,0,0,1,157,166.72Z"/><path class="cls-10" d="M102.16,193.35a5.2,5.2,0,0,0-1.57-.62c-7.18-1.57-9.42,7.47-11.3,12.56A118,118,0,0,0,83,229.55a4.66,4.66,0,0,0,0,1.86,4.26,4.26,0,0,0,1.1,1.84,27.6,27.6,0,0,0,3.44,3.23c1.24-9.46,4.42-18.29,7.77-27.23C97.36,203.8,99.66,198.52,102.16,193.35Z"/><path class="cls-11" d="M102.16,193.35c-2.5,5.17-4.8,10.45-6.82,15.91C92,218.2,88.82,227,87.57,236.49a25.93,25.93,0,0,0,2.37,1.67,173.08,173.08,0,0,1,12.93-33.67c1.13-2.22,2.24-4.38,2-6.8A5.76,5.76,0,0,0,102.16,193.35Z"/><path class="cls-11" d="M123.27,224.09c-.85-10-1.33-20.14-5.1-29.37a5.59,5.59,0,0,0-2.1,1.42,5.7,5.7,0,0,0-1.26,2.2c-.66,2.26.06,4.57.71,6.75A187.73,187.73,0,0,1,122,237.38c.58-.25,1.14-.53,1.7-.81a106.09,106.09,0,0,0-.44-12.48Z"/><path class="cls-10" d="M128.59,207.77c-.84-5-1.59-13.88-8.73-13.43a5.45,5.45,0,0,0-1.69.37c3.77,9.23,4.25,19.43,5.1,29.38a106,106,0,0,1,.44,12.47,29.2,29.2,0,0,0,4.77-3.08,4.2,4.2,0,0,0,1.38-1.58,4.07,4.07,0,0,0,.28-1.69A117.72,117.72,0,0,0,128.59,207.77Z"/><path class="cls-12" d="M81.84,225.65a4.16,4.16,0,0,1,1.4-1.46c1.87-1,3.61,0,5,1.35a14.5,14.5,0,0,1,4.35,8.67,10.27,10.27,0,0,1-3.4,9,4.68,4.68,0,0,1-2.11,1.08c-2.27.42-4.2-.82-6.16-1.78a8,8,0,0,1-2.13-1.23c-2-1.93-1.21-5-.61-7.41a25.06,25.06,0,0,1,3.68-8.2Z"/><path class="cls-12" d="M88.63,252.73a40.32,40.32,0,0,0,0-15.25c-.32-1.41-.74-2.79-1.15-4.19-1-1-2-2.06-3.58-1.9-2.56.26-4,2.51-5.13,4.65a97.64,97.64,0,0,0-4.62,9.82,68.83,68.83,0,0,0-3.87,12,88.31,88.31,0,0,0-1.9,13.35,7.64,7.64,0,0,0,.46,3.54,7.84,7.84,0,0,0,2.67,2.93,7.53,7.53,0,0,1,2.18-1.38,8.08,8.08,0,0,1,4.77,0l.89-.93C85,269.09,87.33,260.92,88.63,252.73Z"/><path class="cls-13" d="M90.25,254.11c.14-3.05.15-6.14,0-9.19a27.19,27.19,0,0,0-1.76-9.75,12.07,12.07,0,0,0-1.1-1.87c.41,1.38.83,2.77,1.15,4.18a40.12,40.12,0,0,1,0,15.25c-1.3,8.18-3.62,16.37-9.32,22.6-.3.32-.59.63-.89.93a7.17,7.17,0,0,1,2,1.24,4.81,4.81,0,0,1,1.12,1.77,36.74,36.74,0,0,0,4-3,21.2,21.2,0,0,0,2-2.06c.31-1.38.59-2.76.86-4.14a110.46,110.46,0,0,0,2-15.91Z"/><path class="cls-14" d="M80.41,277.48a7.12,7.12,0,0,0-6.76-1.18,7.5,7.5,0,0,0-2.18,1.37c.89.56,1.84,1.09,2.78,1.56a18.13,18.13,0,0,0,2.49,1.16c1.58.51,3.23.68,4.8,1.23l.22.08A5.63,5.63,0,0,0,80.41,277.48Z"/><path class="cls-15" d="M85.47,276.22a38.83,38.83,0,0,1-4,3,7.9,7.9,0,0,1,.23,2.42.69.69,0,0,0,.28,0,1.19,1.19,0,0,0,.47-.22,10.62,10.62,0,0,0,4-4.27,27.08,27.08,0,0,0,1-3.06,23.73,23.73,0,0,1-2,2.05Z"/><path class="cls-13" d="M64.47,285.27c-.76.29-1.59.52-2.37.77l.28,0a31.21,31.21,0,0,0,6.56-.26,14.32,14.32,0,0,0,5.21-2.24c2.23-1.42,4.47-2.81,6.8-4.07a4.58,4.58,0,0,0,1.19-.86,1.43,1.43,0,0,0,.14-.2q-1.38-1.65-2.77-3.29l-.2.2a41.34,41.34,0,0,1-14.84,9.93Z"/><path class="cls-13" d="M61,286.33c3.79.5,8.19.11,11.52-1.91L71.05,282a42.34,42.34,0,0,1-6.58,3.25C63.36,285.67,62.18,286,61,286.33Z"/><path class="cls-12" d="M71.72,269.69c-2.68.58-4.45,2.8-5.93,5-1.31,1.94-2.42,4-3.62,6-.69,1.19-3,3.82-1.4,5,.38.29.88.21,1.31.33.8-.27,1.62-.49,2.38-.79a41.43,41.43,0,0,0,14.84-9.93l.2-.21c-1.47-1.73-3-3.44-4.42-5.18A7.48,7.48,0,0,0,71.72,269.69Z"/><path class="cls-12" d="M67.27,279.43a16.5,16.5,0,0,0-4.91-.25A6.77,6.77,0,0,0,58,281.4a3.21,3.21,0,0,0-.77,1.4C56.57,285.33,59,286,61,286.32c1.15-.31,2.32-.64,3.43-1.06A43.4,43.4,0,0,0,71.06,282c-.41-.66-.82-1.3-1.24-1.95C69,279.83,68.15,279.57,67.27,279.43Z"/><path class="cls-16" d="M72.7,262.66A16.13,16.13,0,0,1,76,258.43a16.1,16.1,0,0,0,1.37,6.82,141.51,141.51,0,0,1,3.2-18c.62-2.32,1.68-4.78,1.59-7.25-.11-2.88-1.9-2.45-3.1-.42-2.59,4.36-3.69,9.5-4.76,14.38C73.69,256.9,73.21,259.71,72.7,262.66Z"/><path class="cls-16" d="M59.31,282a.91.91,0,0,0-.35.89,1,1,0,0,0,1.39.62,6.58,6.58,0,0,0,1.52-1,5,5,0,0,1,1.2-.59,2.24,2.24,0,0,0,.75-.28c1.36-1.1-.5-1.25-1.19-1.19A5.09,5.09,0,0,0,59.31,282Z"/><path class="cls-12" d="M131.94,226.73a3.77,3.77,0,0,0-1.11-1.46c-1.61-1.1-3.61-.3-5.12.72a13.81,13.81,0,0,0-5.71,7.37,9,9,0,0,0,2.06,8.79,4.72,4.72,0,0,0,1.93,1.24c2.16.68,4.3-.34,6.34-1a8.84,8.84,0,0,0,2.28-.91c2.21-1.46,1.91-4.54,1.69-6.79a21.33,21.33,0,0,0-2.36-8Z"/><path class="cls-12" d="M121.27,251.12a34.18,34.18,0,0,1,2.18-14.24c.53-1.28,1.14-2.5,1.77-3.73a4.79,4.79,0,0,1,3.81-1.39c2.4.44,3.55,2.75,4.38,4.85a92.77,92.77,0,0,1,3.17,9.59,62.41,62.41,0,0,1,2.26,11.55c.31,4.13.38,8.21.32,12.33a7.18,7.18,0,0,1-.56,3.25,7.82,7.82,0,0,1-2.73,2.84,7.55,7.55,0,0,0-2.25-1.3,8.92,8.92,0,0,0-4.91-.25c-.29-.32-.58-.66-.85-1C122.76,267.26,121.47,259.05,121.27,251.12Z"/><path class="cls-13" d="M119.49,252.25q.39-4.33,1.2-8.63a23.94,23.94,0,0,1,3.16-8.87,9.91,9.91,0,0,1,1.37-1.59c-.63,1.22-1.24,2.45-1.76,3.72a33.85,33.85,0,0,0-2.19,14.24c.2,7.93,1.49,16.15,6.59,22.5.26.34.56.68.84,1a7.25,7.25,0,0,0-2.15,1,4.38,4.38,0,0,0-1.28,1.64,29.57,29.57,0,0,1-3.73-3.43,17.65,17.65,0,0,1-1.72-2.23c-.16-1.35-.27-2.75-.37-4.09a90.78,90.78,0,0,1,0-15.29Z"/><path class="cls-14" d="M126.55,275.64a7.92,7.92,0,0,1,7.07-.77,7.55,7.55,0,0,1,2.25,1.3,29.1,29.1,0,0,1-2.92,1.55,17.55,17.55,0,0,1-2.67,1.08c-1.71.46-3.5.4-5.22.8l-.24,0A5.08,5.08,0,0,1,126.55,275.64Z"/><path class="cls-15" d="M121.54,273.86a30.28,30.28,0,0,0,3.73,3.43,6.88,6.88,0,0,0-.46,2.37.71.71,0,0,1-.29,0,1.28,1.28,0,0,1-.47-.26,10.09,10.09,0,0,1-3.64-4.65,21.6,21.6,0,0,1-.59-3.11,19.36,19.36,0,0,0,1.72,2.22Z"/><path class="cls-13" d="M143.27,283.09c.81.26,1.54.45,2.36.67l-.27,0a35.08,35.08,0,0,1-6.64.14,13.77,13.77,0,0,1-5.6-2c-2.43-1.4-4.87-2.9-7.26-4.39a4,4,0,0,1-1.16-1,1.59,1.59,0,0,1-.13-.22q1.56-1.47,3.11-3l.18.23C132,278.64,137.26,281.09,143.27,283.09Z"/><path class="cls-13" d="M146.66,284c-3.49.66-8.6.46-11.8-1.22l1.53-2.42a53.51,53.51,0,0,0,6.88,2.73A33.94,33.94,0,0,0,146.66,284Z"/><path class="cls-12" d="M135.91,268.61c2.46.61,4.18,2.52,5.7,4.44a54.18,54.18,0,0,1,3.78,5.38c.68,1.09,3.13,3.84,1.52,5a3.56,3.56,0,0,1-1.29.37c-.82-.23-1.54-.4-2.36-.67-6-2-11.29-4.45-15.4-9.46l-.19-.23,4.89-4.69A7.44,7.44,0,0,1,135.91,268.61Z"/><path class="cls-12" d="M140.23,277.61a16.47,16.47,0,0,1,4.92-.68,6.1,6.1,0,0,1,4.36,2,3.58,3.58,0,0,1,.79,1.36c.82,2.43-1.69,3.33-3.63,3.72a31,31,0,0,1-3.4-.9,52.15,52.15,0,0,1-6.88-2.74c.42-.66.83-1.32,1.24-2C138.48,278.1,139.37,277.81,140.23,277.61Z"/><path class="cls-16" d="M135.78,262a13.91,13.91,0,0,0-2.75-4.26,14.48,14.48,0,0,1-2.22,6.29,135.62,135.62,0,0,0-.84-17.2c-.3-2.24-1-4.67-.58-6.93.47-2.64,2.26-2.09,3.16-.08,1.93,4.32,2.33,9.26,2.74,13.91C135.54,256.55,135.65,259.23,135.78,262Z"/><path class="cls-16" d="M148.24,279.53a1.06,1.06,0,0,1,.38.88,1,1,0,0,1-1.36.7,5.88,5.88,0,0,1-1.51-.92,4.7,4.7,0,0,0-1.19-.53,2.81,2.81,0,0,1-.76-.24c-1.43-.92.52-1.27,1.19-1.24A4.48,4.48,0,0,1,148.24,279.53Z"/><path class="cls-9" d="M118.06,189.31l-.52.09a38.22,38.22,0,0,1-22-2.63s-4.85,9.2-5.21,10a61.8,61.8,0,0,0-4.1,12.57,4.26,4.26,0,0,0-.11,1.77A4.06,4.06,0,0,0,87.33,213l.35.35c.78-2.06,1.95-4,2.9-6a15.54,15.54,0,0,1,1.07-1.91c1.14-1.92,1.92-3.83,3.41-5.45a107.52,107.52,0,0,0-3,11.85c-.24,1.32-.48,2.51-.66,3.83l-.06.56a27.65,27.65,0,0,0,18.52,3.67c1.05-.16,2.09-.36,3.12-.62,3.48-4.95,4.6-11,5-16.9C118.18,198,117.85,193.7,118.06,189.31Z"/><path class="cls-8" d="M132.2,205.82c-2-6.3-3.81-13.18-6.66-19.09a27.08,27.08,0,0,1-7.48,2.58c-.21,4.39.12,8.73-.1,13.07-.36,5.92-1.48,12-5,16.9a38.44,38.44,0,0,0,11.11-4.81c0-1.32,0-2.63,0-4a5,5,0,0,1-.18-1.32,29.41,29.41,0,0,0-.72-5.56,6.49,6.49,0,0,1,0-1.08c-.06-1.43-.78-2.69-.9-4.12a5.05,5.05,0,0,1-.18-1.08,1.27,1.27,0,0,0-.18-.42v-.42c.36.72.66,1.44,1,2.22a77.46,77.46,0,0,1,4.07,11.12c.21.76.41,1.45.58,2.19q1.94-1.47,3.72-3.11a3.12,3.12,0,0,0,1-1.44A3.2,3.2,0,0,0,132.2,205.82Z"/><path class="cls-17" d="M117.53,189.4a26.8,26.8,0,0,0,8-2.66c-.58-1.18-1.17-2.36-1.79-3.53a15.15,15.15,0,0,0-3.72-5.08c-1.9-1.44-4.17-1.52-6.35-1.57-3.45-.07-7-.14-10.27,1.11-4.14,1.58-6.2,5-7.84,9.09A38.1,38.1,0,0,0,117.53,189.4Z"/><path class="cls-9" d="M121.18,167.38c-.66-1.91-2.58-2.93-4.13-4.18-2-1.74-3.48-3.82-5.51-5.5-1.25,3.29-4.24,5.56-7.29,7a20.69,20.69,0,0,1-15.44.85,38.19,38.19,0,0,0,1.58,5.65c1.74,4.73,5.62,11.72,10.89,13.18a37.88,37.88,0,0,0,17.73.44c.11-.26.21-.54.32-.81C121.24,178.75,122.91,173,121.18,167.38Z"/><path class="cls-8" d="M136.55,146.08a10.92,10.92,0,0,0-7.36-9.92c-1.65-.54-3.41-.66-5.07-1.19-2.31-.73-4.34-2.24-6.72-2.75-4-.87-8,1.19-11.82,2.56-2.93,1.05-6,1.72-8.88,2.9a14.7,14.7,0,0,0-7.27,5.61c-1.84,3-1.92,6.8-1.81,10.36a68.79,68.79,0,0,0,1.19,11.91,20.74,20.74,0,0,0,15.44-.85c3-1.44,6-3.72,7.29-7,2,1.68,3.47,3.77,5.5,5.5,1.56,1.26,3.47,2.28,4.13,4.19,1.74,5.62.07,11.36-1.84,16.63-.11.26-.21.54-.31.81a31.07,31.07,0,0,0,4-1.17c0,.59,1.26-3.83,1.6-3.35,1.4-8.67,1.87-12.54,6.1-20.23,1.57-2.85,3.55-5.65,4.76-8.63A13.41,13.41,0,0,0,136.55,146.08Z"/><path class="cls-17" d="M112.74,182.52h-3.22a3,3,0,0,0-3,3v6.1a3,3,0,0,0,3,3.05h3.22a3.06,3.06,0,0,0,2.16-.89,3.13,3.13,0,0,0,.9-2.16v-6.1a3.13,3.13,0,0,0-.9-2.16,3.06,3.06,0,0,0-2.16-.89Zm.88,7.73a1.61,1.61,0,0,1-.48,1.16,1.65,1.65,0,0,1-1.16.49h-1.74a1.65,1.65,0,0,1-1.16-.49,1.61,1.61,0,0,1-.48-1.16V187a1.63,1.63,0,0,1,.48-1.16,1.64,1.64,0,0,1,1.16-.48H112a1.64,1.64,0,0,1,1.16.48,1.63,1.63,0,0,1,.48,1.16Z"/><path class="cls-18" d="M110.24,139.32a14.26,14.26,0,0,0-6.48-8.68A31.51,31.51,0,0,0,90,127.05a27.53,27.53,0,0,0,2.94,12c1.49,2.87,3.35,5.26,5.14,8.07,2,3.05,2.75,7,.36,9.87-3.47,4.13-9.74,2.57-14.11.54a11.54,11.54,0,0,1-1-.78,44,44,0,0,1-6.52-4A27.23,27.23,0,0,0,73,150.21c1,.86,2,1.75,3,2.6,6.48,5.53,14.59,9.63,23.11,9.59,3.19,0,6.59-.72,8.82-3s2.85-5.79,3.1-9A30.78,30.78,0,0,0,110.24,139.32Z"/><path class="cls-19" d="M83.32,156.8a11.54,11.54,0,0,0,1,.78c4.36,2,10.64,3.59,14.11-.54,2.39-2.87,1.62-6.82-.36-9.87-1.79-2.81-3.65-5.2-5.14-8.07a27.68,27.68,0,0,1-3-12c-6.73-.34-13.67.79-20.32,1.45a22.26,22.26,0,0,0-16.88,11c-3.45,6.07-5,12.92-1.3,20.12-1-3.74.57-8,3.28-10.79a11.35,11.35,0,0,1,10.71-3c2.85.72,5.21,2.5,7.47,4.44a27.23,27.23,0,0,1,3.84,2.64A44.84,44.84,0,0,0,83.32,156.8Z"/><path class="cls-19" d="M112.38,151.76A23,23,0,0,0,124,163.39c8.37,3.51,18,.76,26.23-3.18,4.11-2,8.1-4.26,12.41-5.79s9-2.27,13.45-1.06,8.38,4.64,9.28,9.11a21.81,21.81,0,0,0-5.53-14.2,36.57,36.57,0,0,0-12.55-9A55.08,55.08,0,0,0,153.88,135c-10.59-1.89-21.37-.63-32,.28-2.94.26-11.45-.72-12.47,2.41C108.2,141.5,110.8,148.39,112.38,151.76Z"/><path class="cls-20" d="M103,170.14a6.71,6.71,0,0,0,.57-1.63c.08-.32.14-.65.2-1,.43-2.52.62-5,1.27-7.52a20.83,20.83,0,0,1,3-6.75,1.69,1.69,0,0,1,.47-.49,1.18,1.18,0,0,1,1.55.77,3.46,3.46,0,0,1-.1,2,63.64,63.64,0,0,0-1.53,9.41c-.18,2-.28,4.14-1.28,5.92a6.7,6.7,0,0,1-2.65,2.55,5.74,5.74,0,0,1-3.28.89,8.7,8.7,0,0,1-2.73-.73,1.08,1.08,0,0,1-.49-.36.43.43,0,0,1,0-.56.62.62,0,0,1,.38-.1,7.89,7.89,0,0,0,2.4-.49,4.3,4.3,0,0,0,1.94-1.45A4,4,0,0,0,103,170.14Z"/><path class="cls-21" d="M78.84,176.27a23.07,23.07,0,0,0,.49,8.32c1.15.12,2.3.24,3.45.34,8.3.73,17,.6,24.45-3.14a6,6,0,0,0,2.53-2,2,2,0,0,0,.14-.25,19.88,19.88,0,0,1-6.89,2.17A35.09,35.09,0,0,1,78.84,176.27Z"/><path class="cls-20" d="M110.41,169.07a41.42,41.42,0,0,1,.79-10.77,4.17,4.17,0,0,0,.13-1.82,1.36,1.36,0,0,0-1.27-1.12c-.69,0-1.12.74-1.39,1.38-1.15,2.81-1.41,5.9-2.31,8.79s-2.75,5.8-5.67,6.65a10.44,10.44,0,0,1-3.44.27,34.1,34.1,0,0,1-8.35-1.28c-.64-.2-7.6-2.85-7.17-3.59a23.09,23.09,0,0,0-2.9,8.69A35.11,35.11,0,0,0,103,181.74a20,20,0,0,0,6.89-2.17,5.52,5.52,0,0,0,.5-1.43C111.08,175.18,110.58,172.1,110.41,169.07Z"/><path class="cls-20" d="M120.92,170.14a6.71,6.71,0,0,1-.57-1.63c-.07-.32-.14-.65-.19-1-.44-2.52-.63-5-1.28-7.52a20.62,20.62,0,0,0-3-6.75,1.65,1.65,0,0,0-.46-.49,1.19,1.19,0,0,0-1.56.77,3.55,3.55,0,0,0,.1,2,63.66,63.66,0,0,1,1.54,9.41c.18,2,.28,4.14,1.28,5.92a6.57,6.57,0,0,0,2.65,2.55,5.72,5.72,0,0,0,3.28.89,8.57,8.57,0,0,0,2.72-.73,1.06,1.06,0,0,0,.5-.36.44.44,0,0,0,0-.56.64.64,0,0,0-.38-.1,7.89,7.89,0,0,1-2.4-.49,4.33,4.33,0,0,1-2-1.45,4,4,0,0,1-.27-.44Z"/><path class="cls-21" d="M145.09,176.27a22.85,22.85,0,0,1-.49,8.32c-1.15.12-2.3.24-3.45.34-8.3.73-17,.6-24.45-3.14a6.09,6.09,0,0,1-2.53-2l-.14-.25a20,20,0,0,0,6.89,2.17A35.08,35.08,0,0,0,145.09,176.27Z"/><path class="cls-20" d="M113.53,169.07a41,41,0,0,0-.8-10.77,4.18,4.18,0,0,1-.12-1.82,1.37,1.37,0,0,1,1.26-1.13c.69,0,1.13.75,1.39,1.39,1.15,2.81,1.41,5.9,2.32,8.79s2.75,5.79,5.66,6.65a10.74,10.74,0,0,0,3.44.27,33.64,33.64,0,0,0,8.35-1.29c.65-.19,7.6-2.84,7.17-3.58a22.91,22.91,0,0,1,2.9,8.69,35.11,35.11,0,0,1-24.18,5.47,20,20,0,0,1-6.89-2.17,5.52,5.52,0,0,1-.5-1.43C112.85,175.18,113.36,172.1,113.53,169.07Z"/><path class="cls-22" d="M114.32,147.83c4.44-2.56,6.56-7.21,4.72-10.4s-6.92-3.71-11.36-1.16-6.55,7.21-4.72,10.4S109.88,150.38,114.32,147.83Z"/><path class="cls-23" d="M55.73,142.12a29.91,29.91,0,0,1,11-3.92,7.61,7.61,0,0,0-4.68,3.52c2.79-1.47,6.27-.31,8.84,1.51s4.7,4.26,7.48,5.73,6.68,1.64,8.7-.78a6.66,6.66,0,0,0,1.34-3.42,10.53,10.53,0,0,0-.4-4.32,10.38,10.38,0,0,0-2.13-3.77c-3.75-4.21-10.94-4.74-16.11-3.61a24.1,24.1,0,0,0-7.93,3.28,23.12,23.12,0,0,0-3.33,2.6C57.65,139.76,56.7,141.54,55.73,142.12Z"/><path class="cls-23" d="M124.5,158.74a19.69,19.69,0,0,0,8.46,1.75,32.35,32.35,0,0,0,6.89-.38c8.22-1.49,14.86-7.58,22.81-10.14a28.12,28.12,0,0,1,10.86-1.24c-5.55-1.84-11.61-.73-17.25.76s-11.36,3.34-17.19,3c-4.42-.3-8.65-1.87-12.88-3.18a7.72,7.72,0,0,0-4.41-.45C116.42,150.36,121.85,157.35,124.5,158.74Z"/><path class="cls-24" d="M92.47,131c-1.14.12-1.68,1.79-2.69,2.39a25.25,25.25,0,0,0,1.62-7.53h-.24a19.52,19.52,0,0,1-4.49,5.5c1.08-3.59,3.53-6.7,4-10.59a12.41,12.41,0,0,1,.48-1.37c.06-.6.18-1.14.24-1.74a6.06,6.06,0,0,0,.18-1.79,13.39,13.39,0,0,1-3,3.23,26.93,26.93,0,0,0,3-8.86s-.18-.17-.24-.11c-1.68,2-2.45,4.42-4.25,6.4a11.26,11.26,0,0,1-2,2.09A51.53,51.53,0,0,0,90.74,100c-3.59,5-6.46,10.58-11.72,14,4.84-5.44,7.35-12.2,9.21-19.26A14.09,14.09,0,0,0,88.77,92a23.68,23.68,0,0,0,0-4.21A42.1,42.1,0,0,1,86.89,93a111.92,111.92,0,0,1-12.23,20.48,50,50,0,0,1-18,14.86,74.29,74.29,0,0,0,12-4.08l-8.25,8.5c9.39-4.27,16.44-12.32,23.17-20.14a66.07,66.07,0,0,1-16.68,26.31c4.82-2.93,8.91-6.89,13-10.8L71,141.93c7.12-5,12.2-12.32,17.11-19.48A147,147,0,0,1,75,145.76c4.74-3.59,8.79-8,12.82-12.37-1.79,5.11-4.88,9.64-7.93,14.1q4.89-4.62,9.41-9.62A85.54,85.54,0,0,1,84.16,150a46.06,46.06,0,0,0,6.08-7A33.68,33.68,0,0,0,92.47,131Z"/><path class="cls-25" d="M102.5,82.5c-1.53-2.26-4.92-3.81-7.64-2.72-3.65,1.46-5,4.68-6.08,8a23.79,23.79,0,0,1,0,4.22,14.22,14.22,0,0,1-.53,2.69c-1.86,7-4.37,13.81-9.21,19.26,5.26-3.41,8.13-9,11.72-14a51.35,51.35,0,0,1-5.69,18.6,11,11,0,0,0,2-2.09c1.79-2,2.57-4.37,4.25-6.4.06-.06.24.06.24.12a27,27,0,0,1-3,8.85,13.21,13.21,0,0,0,3-3.23,6.37,6.37,0,0,1-.18,1.79c-.06.6-.18,1.14-.24,1.74a13.18,13.18,0,0,0-.48,1.37c-.42,3.89-2.87,7-4,10.59a19.18,19.18,0,0,0,4.48-5.5h.25a25.25,25.25,0,0,1-1.62,7.53c1-.59,1.56-2.27,2.69-2.39a33.44,33.44,0,0,1-2.24,12,56.19,56.19,0,0,0,8.63-19c2.7-11.26,5.2-22.13,5.26-33.82C104.14,87.48,104,84.75,102.5,82.5Z"/><path class="cls-26" d="M124.61,86a16.46,16.46,0,0,1,2.42,3.6c1.91,4.07,2.21,8.5,1.91,12.92a64.26,64.26,0,0,1-7.71,25.19,3.54,3.54,0,0,0,3.61-.1,6,6,0,0,0,2.37-3.41c.83-2.5.85-5.17,1.21-7.78a12.94,12.94,0,0,1,2.18-6.06V97.45a13.88,13.88,0,0,0-6-11.42Z"/><path class="cls-27" d="M127,89.63a16,16,0,0,0-2.42-3.6,13.83,13.83,0,0,0-7.86-2.44h-9.44a14,14,0,0,0-5.31,1,13.8,13.8,0,0,0-4.49,3,13.82,13.82,0,0,0-4.06,9.8v13.08a13.23,13.23,0,0,1,2.08,5.93c.36,2.6.38,5.26,1.21,7.78a6.17,6.17,0,0,0,2.38,3.41,3.34,3.34,0,0,0,4-.26c.78-.83.83-2,1.1-3.12s1.1-2.34,2.28-2.26h10.9c1.17-.08,2,1.18,2.27,2.26s.32,2.29,1.1,3.12a2.11,2.11,0,0,0,.43.36,64.26,64.26,0,0,0,7.71-25.19C129.24,98.12,128.94,93.7,127,89.63Z"/><path class="cls-25" d="M115.08,137.49a4.46,4.46,0,0,0-2.45,2.45c.12-1.32,1-2.45,1.13-3.77a8.76,8.76,0,0,0-3.52,5c-.36-1.32-.13-2.69-.78-3.89a8.33,8.33,0,0,0-.54,3.65,19.5,19.5,0,0,0-2.75-4.55c-.12,1.5.48,2.93.06,4.43-1.08-3-4.67-3.71-7.25-5.09a11.81,11.81,0,0,1-5.17-5.47,12.24,12.24,0,0,0,3.48,6.58c1.63,1.49,3.72,2.37,5.63,3.46s3.79,2.59,4.47,4.7c.32-1,.65-2,1-3a14.18,14.18,0,0,1,1.66,3.81,12.47,12.47,0,0,1,5.92-5c2.38-1.11,4.94-1.78,7.37-2.77a9.58,9.58,0,0,0,3.21-1.91,11.35,11.35,0,0,0,2.17-3.7,25.91,25.91,0,0,0,1.84-7.61,25.16,25.16,0,0,1-2.35,4.92C125.31,134.49,120.22,136.11,115.08,137.49Z"/><path class="cls-24" d="M130.6,110.39a13,13,0,0,0-2.18,6.06c-.36,2.6-.38,5.27-1.2,7.78a6.17,6.17,0,0,1-2.37,3.41,3.35,3.35,0,0,1-4-.26c-.78-.83-.83-2-1.1-3.12s-1.1-2.33-2.27-2.26H106.53c-1.17-.07-2,1.19-2.27,2.26s-.32,2.29-1.1,3.12a3.35,3.35,0,0,1-4,.26,6.12,6.12,0,0,1-2.37-3.41c-.83-2.5-.85-5.18-1.21-7.78a13.27,13.27,0,0,0-2.08-5.93c0,2.2-.27,6.5-.27,9,0,3.41,0,4.54.24,8a18.34,18.34,0,0,0,.39,2.76A11.79,11.79,0,0,0,99,135.68c2.57,1.38,6.16,2.1,7.24,5.09.42-1.5-.18-2.93-.06-4.43a19.92,19.92,0,0,1,2.75,4.55,8.33,8.33,0,0,1,.54-3.65c.66,1.2.42,2.57.78,3.89a8.73,8.73,0,0,1,3.53-5c-.13,1.32-1,2.46-1.14,3.77a4.49,4.49,0,0,1,2.45-2.45c5.15-1.38,10.23-3,13.1-7.77a24.6,24.6,0,0,0,2.35-4.92C131,120.05,130.6,115.12,130.6,110.39Z"/><path class="cls-24" d="M121.86,94.86a10,10,0,0,1,6,1,8.35,8.35,0,0,0-1.9-3A8.26,8.26,0,0,0,123,91c-4.45-1.7-9.69.68-7.63,6A12.31,12.31,0,0,1,121.86,94.86Z"/><path class="cls-24" d="M102.19,94.86a10,10,0,0,0-6,1A8.45,8.45,0,0,1,101.07,91c4.46-1.7,9.7.68,7.65,6A12.37,12.37,0,0,0,102.19,94.86Z"/><path class="cls-26" d="M115.89,131.38h-7.81c-1.52,0-2.55-1-2.3-2.1l.76-3.48a2.42,2.42,0,0,1,2.44-1.42h6a2.43,2.43,0,0,1,2.44,1.42l.76,3.48C118.44,130.4,117.42,131.38,115.89,131.38Z"/><path class="cls-28" d="M105.82,114.94c-.1,1.25,0,2.77,1.14,3.38,1.26.71,2.79-.32,4.24-.3.8,0,1.65.33,2.37,0a1.94,1.94,0,0,0,1-1.46,5.88,5.88,0,0,0-.11-1.82q-1-5.74-2-11.48a2.36,2.36,0,0,0-.44-1.19c-1.3-1.48-4,4.24-4.39,5.19a24.27,24.27,0,0,0-1.82,7.69Z"/><path class="cls-26" d="M108.49,117.79a5,5,0,0,1,1.54-.48c1-.07,2,.51,2.89.17a2,2,0,0,0,1.19-1.58,6.14,6.14,0,0,0-.07-2.05,4.56,4.56,0,0,1,1.5,2,2.72,2.72,0,0,1-.25,2.42,3.14,3.14,0,0,1-3.56.86,8.87,8.87,0,0,0-1.23-.41,6.78,6.78,0,0,0-2.51.35c-.44.09-2.81.1-2.51-.89.12-.38.75-.18,1-.17A4,4,0,0,0,108.49,117.79Z"/><path class="cls-26" d="M103.06,109a5.15,5.15,0,1,0-5.15-5.14A5.14,5.14,0,0,0,103.06,109Z"/><path class="cls-26" d="M122.26,109a5.15,5.15,0,1,0-5.15-5.14A5.14,5.14,0,0,0,122.26,109Z"/><path class="cls-24" d="M117,101.72a4.64,4.64,0,0,0-.15,1.17,5.09,5.09,0,0,0,.37,1.89,5,5,0,0,0,1.07,1.61,4.94,4.94,0,0,0,8.44-3.48c-.85-.27-1.69-.56-2.54-.79a17.79,17.79,0,0,0-7.19-.4Z"/><path class="cls-29" d="M120.56,103.53a1.13,1.13,0,1,0-1.13-1.12A1.13,1.13,0,0,0,120.56,103.53Z"/><path class="cls-26" d="M123.49,97.28a5.86,5.86,0,0,0-2.32-.19,6,6,0,0,0-2.21.74,5.84,5.84,0,0,0-1.74,1.54,5.76,5.76,0,0,0-1,2.11,20.94,20.94,0,0,1,6.93.13c.1-.12.2-.24.29-.37A3.5,3.5,0,0,0,123.49,97.28Z"/><path class="cls-30" d="M123.49,97.28a3.5,3.5,0,0,1,0,4c-.09.13-.19.25-.29.37a15.44,15.44,0,0,1,1.53.35c1,.26,2,.61,3,.93v0a5.8,5.8,0,0,0-4.19-5.58Z"/><path class="cls-24" d="M106.94,101.72a4.62,4.62,0,0,1,.13,1.17,4.94,4.94,0,1,1-9.87,0c.85-.27,1.69-.56,2.54-.79a17.83,17.83,0,0,1,7.2-.4Z"/><path class="cls-29" d="M100.3,104.07A1.13,1.13,0,1,0,99.18,103,1.13,1.13,0,0,0,100.3,104.07Z"/><path class="cls-26" d="M103.54,98.37a3.9,3.9,0,0,0-.78-1.28,5.75,5.75,0,0,0-4.54,1.42,5.84,5.84,0,0,0-2,4.35v0c1-.32,2-.66,3-.93a20.25,20.25,0,0,1,3.95-.66A3.28,3.28,0,0,0,103.54,98.37Z"/><path class="cls-30" d="M107.72,101.48a5.75,5.75,0,0,0-1.79-3,5.82,5.82,0,0,0-3.17-1.42,3.77,3.77,0,0,1,.77,1.27,3.3,3.3,0,0,1-.32,2.94,20,20,0,0,1,4.51.18Z"/><path class="cls-24" d="M149.17,135.93c-.12-.78-.12-1.5-.24-2.27s-.3-1.74-.42-2.58c-.77-5.8-1.73-11.48-4.72-16.62-.54-.9-1-1.68-1.55-2.52,0,1.86,0,3.71,0,5.57-1-2.1-1.61-4.37-2.87-6.34a8.81,8.81,0,0,0,.24,2.15,81.09,81.09,0,0,1,1,15.19c-1.38-6.88-2-13.94-5.8-20.28a2,2,0,0,1-.48-1,28.28,28.28,0,0,1-1.62,8.92A37.64,37.64,0,0,0,131.53,104c1,7.66-.18,15.44-2.15,22.85.41-6.58,1.07-13.1.24-19.8-.69-5.47-1.47-11.4-5-15.68a65.36,65.36,0,0,1,1.71,10.88,91.11,91.11,0,0,1-9.42,48.87c3.52-3.44,6.27-7.57,9-11.68l-3.39,11.37A54.72,54.72,0,0,0,132.75,130a90.88,90.88,0,0,1-3.43,22.34c5.89-8.58,6.93-19.55,6.8-29.95a130.56,130.56,0,0,1,2.59,27q1-7.14,2-14.27a53.62,53.62,0,0,1,2.46,12c1.19-8.12,2.1-16.46.34-24.47,3.12,5.59,4,12.1,4.91,18.45.23,1.63.45,3.26.67,4.88q.25-2.81.43-5.61c0-1-.1-1.92-.17-2.88Z"/><path class="cls-25" d="M149,120.67a53.62,53.62,0,0,0-3.12-9.58c-1.11-2.66-1.58-5.35-2.81-8A91.11,91.11,0,0,0,131.8,85c-2.14-2.73-4.72-5.54-8.22-6.16a2.76,2.76,0,0,0-2.68.65c-1.11,1.42.53,3.82,1.2,5.16A32.85,32.85,0,0,1,124.53,91c0,.13.07.27.11.4,3.51,4.28,4.29,10.22,5,15.69.84,6.7.18,13.22-.23,19.8,2-7.42,3.16-15.19,2.15-22.85a37.3,37.3,0,0,1,1.19,12.08,28.17,28.17,0,0,0,1.62-8.91,2,2,0,0,0,.48,1c3.83,6.34,4.42,13.39,5.8,20.28a81.2,81.2,0,0,0-1-15.2,8.7,8.7,0,0,1-.24-2.15c1.26,2,1.86,4.25,2.87,6.34,0-1.85,0-3.71-.06-5.56.54.84,1,1.61,1.56,2.51,3,5.14,4,10.83,4.72,16.63.12.84.3,1.73.42,2.57s.12,1.5.24,2.27l.18,1.62q.12,1.44.18,2.88c.12-2,.21-3.93.28-5.9A58.87,58.87,0,0,0,149,120.67Z"/><path class="cls-19" d="M135.71,71.33c4.85-.54,9.57.12,14.42.78,1.85.3,4.37.83,5.32-1.08a2,2,0,0,0,.27-.89,7.42,7.42,0,0,0-1.23-.84,46.25,46.25,0,0,0-10.21-3.88C139,63.86,133.47,62.29,128,63.21c-3.44.59-6.64,2.13-10,3.24-2.65.88-8,.44-9.65,3.16-2.06,3.39,3.21,3.75,5.38,4.2,3.36.7,6.34,2.6,9.22,4.46l.46.3C125.3,73.8,131,71.89,135.71,71.33Z"/><path class="cls-18" d="M156.87,71.88a3.15,3.15,0,0,0-1.15-1.74,2.13,2.13,0,0,1-.26.89c-1,1.91-3.47,1.38-5.32,1.08-4.85-.66-9.57-1.32-14.42-.78s-10.42,2.47-12.23,7.23a67,67,0,0,1,10.39,7.75c2.76,2.67,5.06,5.78,7.91,8.34s6.48,4.58,10.31,4.4a1.81,1.81,0,0,0,2.11-2.12c-.14-3.43-2.31-6.37-3.78-9.47s-2.08-7.23.41-9.59c1.1-1,2.6-1.52,3.89-2.32S157.17,73.35,156.87,71.88Z"/><path class="cls-19" d="M117.05,84.37c5.8.9,10.41,3.71,15.19,7.18.48.35.9.77,1.44,1.13,4.13,3,7.18,6.46,10.71,10,3.23,3.11,7.29,5.44,11.9,5.08a8.08,8.08,0,0,0,6.82-5.2l0-.08A100.69,100.69,0,0,0,144.9,82.91c-.91-.75-1.83-1.5-2.79-2.25L125,69.94a40.82,40.82,0,0,0-5-1.77c-5.43-1.49-11.4-1.55-16.55.72-4.64,2-8.3,5.78-11.65,9.58A170.37,170.37,0,0,0,76,99.32q-3.52,5.5-6.62,11.27c-2.1,3.92-2.17,6.85-2.43,11.16a15.57,15.57,0,0,1,2-6.57l.18-.3c4.39-7.55,11.54-14.22,18.27-19.52a63.36,63.36,0,0,1,6.12-4.29,28.38,28.38,0,0,1,5.12-3.35A30.2,30.2,0,0,1,117.05,84.37Z"/><path class="cls-18" d="M170.36,118.4c-.12-4-2-7.72-4.08-11.13l-.77-1.24c-.76-1.21-1.55-2.39-2.37-3.56l0,.08a8.1,8.1,0,0,1-6.82,5.2c-4.61.36-8.67-2-11.9-5.08-3.53-3.53-6.59-6.94-10.71-10-.54-.36-1-.78-1.44-1.14-4.78-3.47-9.39-6.28-15.19-7.18a30.27,30.27,0,0,0-18.42,3.35,28.38,28.38,0,0,0-5.12,3.35c4.79-2.91,10.06-5,15.63-5,10.37.07,18.58,8.52,25.54,15.52,4.29,4.31,8.66,8.56,12.55,13.28,3.72,4.51,8.06,9.67,7.9,15.92a11.65,11.65,0,0,1-.83,4.13,62.62,62.62,0,0,1,6.31,1.59,65.62,65.62,0,0,0,5.74-7C168.7,126.29,170.48,122.51,170.36,118.4Z"/><path class="cls-31" d="M92.69,198.18a21.36,21.36,0,0,1,5.64-5.25c-1,6.85-2.11,13.89-.58,20.64a77.93,77.93,0,0,1,4.36-17.28,10.34,10.34,0,0,0,.79-2.81,3.18,3.18,0,0,0-.93-2.67,4.3,4.3,0,0,0-1.8-.79c-2.2-.55-3.82-1.08-5,1S94,196.42,92.69,198.18Z"/><path class="cls-32" d="M100.14,174.21a21.54,21.54,0,0,1-5.32.51,24.09,24.09,0,0,1-5.88-.46,19.06,19.06,0,0,0,9.45,2.45.32.32,0,0,1,.17,0,.44.44,0,0,1,.15.08.38.38,0,0,1,.09.15.32.32,0,0,1,0,.17v2.73l1.91-3.42,3.38,2.72a7.47,7.47,0,0,0-.93-3.16,4.33,4.33,0,0,0,1.47-1.65,4.41,4.41,0,0,0,.47-2.17h0a.77.77,0,0,0-.11-.39.68.68,0,0,0-.32-.26A10.79,10.79,0,0,1,100.14,174.21Z"/><path class="cls-23" d="M93,80.33a26.17,26.17,0,0,1,12-4.9,25.19,25.19,0,0,0-7.6,6.79c3.56-3,8.33-4.24,13-4.35s9.26.82,13.83,1.74a3.72,3.72,0,0,0-2-1.73l-8.63-4.32a29.08,29.08,0,0,1,9.51,1c-.84-.23-2.29-2.17-3.14-2.73A16.42,16.42,0,0,0,116.28,70a17.53,17.53,0,0,0-8.69-.33C101.42,70.74,97,75.81,93,80.33Z"/><path class="cls-23" d="M126.14,67a28.13,28.13,0,0,1,7.16,0l-1.41,1a2.34,2.34,0,0,0-1.09,1.36A22.88,22.88,0,0,1,140,67.26c.12-.47-.51-.73-1-.8-2.09-.33-3.82-1.52-5.91-1.4A18.3,18.3,0,0,0,126.14,67Z"/><g class="cls-33"><rect class="cls-34" x="14.88" y="211.37" width="34.77" height="52.28"/></g><g class="cls-33"><rect class="cls-34" y="173.31" width="23.05" height="32.4"/></g><g class="cls-33"><rect class="cls-34" x="193.59" y="89.16" width="34.77" height="52.41"/></g><g class="cls-33"><rect class="cls-34" x="192.8" y="179.23" width="23.05" height="32.4"/></g><g class="cls-33"><rect class="cls-34" x="217.95" y="159.48" width="23.05" height="32.4"/></g><g class="cls-33"><rect class="cls-34" x="170.02" y="29.37" width="23.05" height="32.4"/></g><g class="cls-33"><rect class="cls-34" x="80.07" width="23.05" height="32.4"/></g><g class="cls-33"><rect class="cls-34" x="61.5" y="33.05" width="23.05" height="32.4"/></g></svg>