<svg width="90" height="90" viewBox="0 0 128 128" fill="none" xmlns="http://www.w3.org/2000/svg">
<path d="M122.097 51.8251C120.926 49.6983 119.819 47.6896 119.169 45.6817C118.479 43.5532 118.174 41.2006 117.853 38.7107C117.317 34.5717 116.763 30.2918 114.291 26.8885C111.793 23.4511 107.886 21.6017 104.107 19.8134C101.855 18.7478 99.7275 17.7408 97.948 16.4434C96.2009 15.1705 94.6109 13.4688 92.9275 11.6718C90.0534 8.60014 87.0815 5.42434 82.9844 4.09191C79.0628 2.81634 74.86 3.60285 70.8031 4.36399C68.4068 4.8128 65.9293 5.27736 63.6283 5.27649C61.3273 5.27561 58.8498 4.81193 56.4544 4.36224C52.3931 3.60023 48.1946 2.81284 44.2731 4.08753C40.1751 5.41997 37.2032 8.59489 34.3282 11.6657C32.6439 13.4644 31.0531 15.1652 29.3068 16.4364C27.5273 17.733 25.3993 18.7399 23.1472 19.8047C19.368 21.592 15.4596 23.4407 12.9611 26.878C10.488 30.2813 9.9333 34.5603 9.39691 38.6994C9.07456 41.1892 8.76968 43.5418 8.07955 45.6704C7.42872 47.6773 6.32189 49.686 5.15041 51.812C3.10971 55.5153 1 59.3447 1 63.7435C1 68.1424 3.10884 71.9717 5.14779 75.6751C6.31927 77.8019 7.42523 79.8106 8.07605 81.8185C8.76531 83.947 9.07019 86.2996 9.39167 88.7895C9.92718 92.9285 10.481 97.2084 12.9533 100.612C15.4517 104.05 19.3584 105.899 23.1376 107.687C25.3897 108.752 27.5168 109.759 29.2963 111.057C31.0435 112.33 32.6334 114.031 34.3177 115.828C37.1909 118.9 40.1629 122.076 44.26 123.408C45.7652 123.898 47.3097 124.084 48.8725 124.084C51.3832 124.084 53.9394 123.605 56.4413 123.136C58.8376 122.687 61.315 122.224 63.6161 122.224C65.9171 122.224 68.3946 122.688 70.7908 123.138C73.2928 123.608 75.848 124.087 78.3587 124.087C79.9216 124.087 81.4669 123.902 82.9713 123.413C87.0693 122.081 90.0412 118.905 92.9162 115.834C94.6004 114.036 96.1912 112.335 97.9375 111.064C99.717 109.767 101.845 108.761 104.097 107.696C107.876 105.908 111.785 104.06 114.283 100.622C116.756 97.2198 117.311 92.9399 117.847 88.8008C118.17 86.3109 118.475 83.9593 119.165 81.8307C119.817 79.8229 120.922 77.8142 122.094 75.6882C124.135 71.9849 126.244 68.1555 126.244 63.7567C126.244 59.3578 124.136 55.5285 122.097 51.8251ZM120.05 75.2718C118.919 77.3233 117.852 79.2621 117.223 81.199C116.557 83.2533 116.262 85.5227 115.952 87.926C115.434 91.9198 114.903 96.05 112.512 99.3343C110.1 102.652 106.329 104.435 102.683 106.158C100.508 107.186 98.4556 108.157 96.7425 109.409C95.0564 110.634 93.5216 112.277 91.8967 114.013C89.1222 116.976 86.2533 120.041 82.2995 121.326C80.8476 121.798 79.3564 121.977 77.8442 121.977C75.4217 121.977 72.9521 121.514 70.541 121.061C68.2286 120.624 65.8376 120.179 63.6169 120.178C61.3963 120.177 59.0053 120.626 56.6929 121.059C54.2783 121.512 51.8122 121.974 49.3897 121.973C47.881 121.973 46.3907 121.799 44.9344 121.322C40.9806 120.036 38.1126 116.971 35.3389 114.007C33.7141 112.271 32.1792 110.631 30.494 109.402C28.7766 108.15 26.7236 107.178 24.5536 106.15C20.9073 104.424 17.136 102.64 14.7258 99.3256C12.34 96.0413 11.8054 91.911 11.2891 87.9163C10.9781 85.5139 10.6846 83.2436 10.0189 81.1894C9.38643 79.2489 8.3224 77.3111 7.19198 75.2586C5.22379 71.6839 3.18921 67.9884 3.18921 63.7435C3.18921 59.4986 5.22554 55.8032 7.1946 52.2302C8.32502 50.1777 9.39255 48.2399 10.0215 46.302C10.6872 44.2478 10.9825 41.9784 11.2926 39.5751C11.8106 35.5813 12.3453 31.451 14.7328 28.1667C17.1439 24.8501 20.9152 23.0662 24.5615 21.3427C26.7359 20.3147 28.7888 19.3436 30.5063 18.0925C32.1923 16.8677 33.7272 15.2238 35.3529 13.4881C38.1266 10.5249 40.9954 7.46018 44.9493 6.17499C48.7336 4.94491 52.7862 5.70518 56.7043 6.43745C59.0166 6.87489 61.4076 7.3202 63.6283 7.3202C65.849 7.3202 68.24 6.87226 70.5523 6.4392C74.4713 5.70518 78.5229 4.94579 82.3073 6.17673C86.2612 7.4628 89.1292 10.5275 91.9028 13.4916C93.5277 15.2282 95.0626 16.8677 96.7477 18.0969C98.4652 19.3489 100.518 20.32 102.688 21.3488C106.334 23.0741 110.106 24.8588 112.516 28.1729C114.902 31.4571 115.436 35.5874 115.954 39.5821C116.264 41.9845 116.557 44.2548 117.224 46.309C117.851 48.2469 118.918 50.1847 120.049 52.2372C122.017 55.8119 124.053 59.5074 124.052 63.7523C124.051 67.9972 122.019 71.697 120.05 75.2709V75.2718Z" fill="#5F4C72"/>
<path d="M123.612 51.8251C122.441 49.6983 121.335 47.6896 120.684 45.6817C119.994 43.5532 119.69 41.2006 119.368 38.7107C118.833 34.5717 118.279 30.2918 115.806 26.8885C113.308 23.4511 109.401 21.6017 105.622 19.8134C103.37 18.7478 101.242 17.7408 99.4628 16.4434C97.7157 15.1705 96.1266 13.4688 94.4423 11.6718C91.5682 8.60014 88.5972 5.42434 84.4992 4.09191C80.5785 2.81634 76.3748 3.60285 72.3188 4.36399C69.926 4.8128 67.445 5.27736 65.144 5.27649C62.843 5.27561 60.3655 4.81193 57.9692 4.36224C53.9088 3.60023 49.7103 2.81284 45.7888 4.08753C41.6908 5.41997 38.718 8.59489 35.8439 11.6657C34.1596 13.4644 32.5688 15.1652 30.8225 16.4364C29.0421 17.733 26.915 18.7399 24.662 19.8047C20.8828 21.592 16.9744 23.4407 14.4768 26.878C12.0037 30.2813 11.449 34.5603 10.9126 38.6994C10.5902 41.1892 10.2854 43.5418 9.59523 45.6704C8.94354 47.6773 7.83758 49.686 6.6661 51.812C4.6254 55.5153 2.51569 59.3447 2.51569 63.7435C2.51569 68.1424 4.62365 71.9717 6.66348 75.6751C7.83408 77.8019 8.94004 79.8106 9.59086 81.8185C10.281 83.947 10.585 86.2996 10.9074 88.7895C11.4429 92.9285 11.9967 97.2084 14.469 100.612C16.9666 104.05 20.8741 105.899 24.6532 107.687C26.9054 108.752 29.0325 109.759 30.812 111.057C32.5592 112.33 34.1491 114.031 35.8325 115.828C38.7066 118.9 41.6786 122.076 45.7757 123.408C47.2809 123.898 48.8254 124.084 50.3882 124.084C52.898 124.084 55.455 123.605 57.957 123.136C60.3532 122.687 62.8307 122.224 65.1318 122.224C67.4328 122.224 69.9103 122.688 72.3056 123.138C74.8085 123.608 77.3637 124.087 79.8744 124.087C81.4372 124.087 82.9826 123.902 84.4869 123.413C88.5841 122.081 91.5569 118.905 94.4319 115.834C96.1153 114.036 97.7061 112.335 99.4532 111.064C101.233 109.767 103.361 108.761 105.613 107.696C109.392 105.908 113.3 104.06 115.798 100.622C118.272 97.2198 118.827 92.9399 119.362 88.8008C119.685 86.3109 119.99 83.9593 120.681 81.8307C121.331 79.8229 122.438 77.8142 123.61 75.6882C125.649 71.9849 127.759 68.1555 127.76 63.7567C127.761 59.3578 125.651 55.5285 123.612 51.8251ZM121.565 75.2718C120.435 77.3233 119.367 79.2621 118.739 81.199C118.072 83.2533 117.778 85.5227 117.467 87.926C116.949 91.9198 116.418 96.05 114.027 99.3343C111.616 102.652 107.845 104.435 104.198 106.158C102.024 107.186 99.9713 108.157 98.2573 109.409C96.5713 110.634 95.0364 112.277 93.4106 114.013C90.637 116.976 87.7681 120.041 83.8143 121.326C82.3624 121.798 80.8703 121.977 79.359 121.977C76.9365 121.977 74.4669 121.514 72.0549 121.061C69.7434 120.624 67.3524 120.179 65.1318 120.178C62.9111 120.177 60.5201 120.626 58.2077 121.059C55.7931 121.512 53.3261 121.974 50.9037 121.973C49.3958 121.973 47.9046 121.799 46.4484 121.322C42.4945 120.036 39.6265 116.971 36.8529 114.007C35.228 112.271 33.6931 110.631 32.008 109.402C30.2905 108.15 28.2376 107.178 26.0676 106.15C22.4204 104.424 18.65 102.64 16.2397 99.3256C13.8531 96.0413 13.3193 91.911 12.8022 87.9163C12.4912 85.5139 12.1976 83.2436 11.532 81.1894C10.9039 79.2516 9.83634 77.3137 8.70679 75.2613C6.73948 71.6839 4.70402 67.9884 4.70489 63.7435C4.70577 59.4986 6.74122 55.8032 8.71029 52.2302C9.84071 50.1777 10.9082 48.2399 11.5363 46.302C12.2029 44.2478 12.4973 41.9784 12.8083 39.5751C13.3263 35.5813 13.861 31.451 16.2476 28.1667C18.6596 24.8501 22.43 23.0662 26.0772 21.3427C28.2515 20.3147 30.3045 19.3436 32.0219 18.0925C33.7071 16.8677 35.2429 15.2238 36.8677 13.4881C39.6422 10.5249 42.5102 7.46018 46.465 6.17499C50.2493 4.94491 54.301 5.70518 58.2199 6.43745C60.5323 6.87489 62.9233 7.3202 65.144 7.3202C67.3646 7.3202 69.7557 6.87226 72.0672 6.4392C75.9861 5.70518 80.0386 4.94579 83.823 6.17673C87.7769 7.4628 90.6449 10.5275 93.4185 13.4916C95.0434 15.2282 96.5774 16.8677 98.2634 18.0969C99.98 19.3489 102.034 20.32 104.204 21.3488C107.85 23.0741 111.621 24.8588 114.032 28.1729C116.417 31.4571 116.952 35.5874 117.468 39.5821C117.779 41.9845 118.073 44.2548 118.739 46.309C119.367 48.2469 120.434 50.1847 121.565 52.2372C123.533 55.8119 125.567 59.5074 125.567 63.7523C125.567 67.9972 123.535 71.697 121.565 75.2709V75.2718Z" fill="#735B87"/>
<path d="M17.5414 58.6543L1.72247 63.7128L17.4217 67.5623C17.3215 66.3036 17.2706 65.0321 17.2688 63.7478C17.269 62.0463 17.36 60.3461 17.5414 58.6543Z" fill="#A03C64"/>
<path d="M59.2953 110.658L64.3429 126.5L68.1867 110.778C66.9304 110.878 65.6608 110.93 64.3778 110.931C62.68 110.93 60.9834 110.839 59.2953 110.658Z" fill="#A03C64"/>
<path d="M111.219 68.8425L127.038 63.7874L111.338 59.938C111.439 61.1961 111.49 62.4675 111.49 63.7524C111.49 65.4528 111.4 67.1519 111.219 68.8425Z" fill="#A03C64"/>
<path d="M69.4647 16.8422L64.4171 1L60.5734 16.7224C61.8302 16.6221 63.0998 16.5713 64.3822 16.5702C66.08 16.5702 67.7766 16.661 69.4647 16.8422Z" fill="#A03C64"/>
<path d="M33.0545 28.5113L19.2518 21.374L27.2949 34.6546C29.0291 32.4399 30.9566 30.384 33.0545 28.5113Z" fill="#BC6F8B"/>
<path d="M27.7815 93.4595L19.1959 110.115L34.9205 100.567C32.2953 98.4587 29.9022 96.076 27.7815 93.4595Z" fill="#BC6F8B"/>
<path d="M91.9823 101.987L107.807 110.168L99.0452 95.6982C96.9062 98.025 94.5401 100.132 91.9823 101.987Z" fill="#BC6F8B"/>
<path d="M101.21 34.3329L107.86 21.4312L95.903 28.6926C97.8224 30.4249 99.5973 32.3113 101.21 34.3329Z" fill="#BC6F8B"/>
<path d="M50.5088 111.286L15.1023 75.8195L28.0681 27.3776L53.2833 20.6139L52.0935 16.2632L24.3912 23.6935L10.0783 77.1668L49.1626 116.317L77.3873 108.746L76.1974 104.396L50.5088 111.286Z" fill="#A3710D"/>
<path d="M52.1057 112.885L16.6984 77.4185L29.665 28.9767L53.7996 22.5026L52.6098 18.1519L25.9881 25.2926L11.6744 78.7659L50.7586 117.916L77.9036 110.635L76.7138 106.284L52.1057 112.885Z" fill="#E5AC38"/>
<path d="M111.589 51.7124L107.115 52.9364L113.363 76.2973L76.8981 112.808L27.0932 99.4377L20.9588 76.5002L16.4843 77.7242L23.3062 103.229L78.2836 117.989L118.536 77.6866L111.589 51.7124Z" fill="#A3710D"/>
<path d="M13.7526 49.5564L50.2179 13.0453L100.023 26.416L107.115 52.9361L111.589 51.7121L103.81 22.6234L48.8324 7.86426L8.58014 48.1671L16.4844 77.7239L20.9589 76.5L13.7526 49.5564Z" fill="#A3710D"/>
<path d="M26.9254 94.3105L23.1384 98.1023L24.123 101.785L27.91 97.992L26.9254 94.3105Z" fill="#C6911A"/>
<path d="M22.0805 76.1938L21.6114 76.3216L18.221 79.717L21.6507 92.5392L25.4377 88.7466L22.0805 76.1938Z" fill="#C6911A"/>
<path d="M120.18 79.3327L112.711 51.4058L108.237 52.6288L115.007 77.9442L78.5422 114.455L51.7772 107.269L47.9911 111.062L79.9277 119.636L120.18 79.3327Z" fill="#C6911A"/>
<path d="M38.7564 103.774L34.9703 107.567L44.9877 110.256L48.7747 106.464L38.7564 103.774Z" fill="#C6911A"/>
<path d="M15.3967 51.203L51.8619 14.6919L101.667 28.0626L108.237 52.6291L112.711 51.406L105.454 24.2709L50.4764 9.51172L10.2242 49.8146L17.4164 76.7092L21.2034 72.9166L15.3967 51.203Z" fill="#C6911A"/>
<path d="M21.6114 76.3215L22.0805 76.1938L22.008 75.9243L21.6114 76.3215Z" fill="#C6911A"/>
<path d="M25.4377 88.7466L21.6507 92.5392L23.1384 98.1025L26.9254 94.3108L25.4377 88.7466Z" fill="#F9B843"/>
<path d="M28.7373 101.084L27.91 97.9922L24.123 101.785L24.9503 104.877L34.9703 107.567L38.7564 103.774L28.7373 101.084Z" fill="#F9B843"/>
<path d="M48.7747 106.463L44.9877 110.256L47.9911 111.062L51.7772 107.269L48.7747 106.463Z" fill="#F9B843"/>
<path d="M21.2034 72.9165L17.4164 76.7091L17.606 77.4169L18.221 79.7169L21.6114 76.3215L22.008 75.9243L21.2034 72.9165Z" fill="#F9B843"/>
<path d="M116.873 48.5204L77.7882 9.37061L52.0934 16.2629L53.2833 20.6136L76.4412 14.402L111.849 49.8686L98.8819 98.3104L76.1974 104.395L77.3873 108.746L102.56 101.994L116.873 48.5204Z" fill="#A3710D"/>
<path d="M83.1242 14.7176L79.9393 17.9072L88.0555 26.0354L91.2404 22.8458L83.1242 14.7176Z" fill="#E5AC38"/>
<path d="M79.3843 10.9702L52.6097 18.1521L53.7996 22.5028L78.0346 16.0025L81.2214 12.8101L79.3843 10.9702Z" fill="#E5AC38"/>
<path d="M105.402 37.032L102.217 40.2217L108.568 46.5824L111.753 43.3928L105.402 37.032Z" fill="#E5AC38"/>
<path d="M94.7622 26.3733L91.5772 29.563L93.9079 31.8971L97.0928 28.7074L94.7622 26.3733Z" fill="#E5AC38"/>
<path d="M110.472 48.4891L113.445 51.4681L100.479 99.9099L76.7137 106.284L77.9036 110.635L104.156 103.593L118.469 50.1208L113.656 45.2993L110.472 48.4891Z" fill="#E5AC38"/>
<path d="M91.2412 22.8465L88.0562 26.0361L91.5778 29.5629L94.7628 26.3733L91.2412 22.8465Z" fill="#FFCC71"/>
<path d="M97.0928 28.7088L93.9078 31.8984L102.218 40.2209L105.403 37.0312L97.0928 28.7088Z" fill="#FFCC71"/>
<path d="M111.752 43.3924L108.567 46.582L110.471 48.4886L113.656 45.299L111.752 43.3924Z" fill="#FFCC71"/>
<path d="M81.2214 12.8101L78.0346 16.0025L78.0381 16.0016L79.9408 17.9071L83.125 14.7173L81.2214 12.8101Z" fill="#FFCC71"/>
</svg>
