<svg width="24" height="24" viewBox="0 0 24 24" fill="none" xmlns="http://www.w3.org/2000/svg">
<circle cx="12" cy="12" r="12" fill="#D7A01F"/>
<path d="M21.7778 10.7824C21.7778 12.2252 17.4996 15.1109 12.2222 15.1109C6.94486 15.1109 2.66669 12.2252 2.66669 10.7824C2.66669 5.31824 6.94486 0.888672 12.2222 0.888672C17.4996 0.888672 21.7778 5.31824 21.7778 10.7824Z" fill="#FABC29"/>
<path d="M12.004 24C14.7725 23.9981 17.4553 23.0395 19.5979 21.2866C21.7405 19.5337 23.2113 17.0942 23.761 14.3813C24.3107 11.6684 23.9056 8.849 22.6143 6.40054C21.323 3.95208 19.2249 2.02513 16.6754 0.946086C13.7428 -0.292614 10.438 -0.315818 7.48824 0.881579C4.53845 2.07898 2.18524 4.39889 0.946281 7.33096C-0.292673 10.263 -0.315882 13.5671 0.88176 16.5163C2.0794 19.4655 4.39979 21.8182 7.33247 23.0569C8.81031 23.6823 10.3992 24.003 12.004 24ZM12.004 0.990525C18.0768 0.990525 23.0172 5.9299 23.0172 12.0015C23.0172 18.0731 18.0768 23.0124 12.004 23.0124C5.93112 23.0124 0.99073 18.0731 0.99073 12.0015C0.99073 5.9299 5.93112 0.990525 12.004 0.990525Z" fill="white"/>
<path d="M17.4383 14.11C17.5692 14.11 17.6949 14.0579 17.7875 13.9653C17.8801 13.8727 17.9321 13.7472 17.9321 13.6162V8.87359C17.9313 8.12045 17.6316 7.3984 17.0989 6.8659C16.5662 6.33339 15.844 6.03392 15.0907 6.0332H11.3049C11.174 6.0332 11.0483 6.08522 10.9557 6.17782C10.8631 6.27042 10.8111 6.39601 10.8111 6.52697C10.8111 6.65792 10.8631 6.78351 10.9557 6.87611C11.0483 6.96871 11.174 7.02073 11.3049 7.02073H15.0907C15.582 7.02126 16.0531 7.21663 16.4005 7.564C16.748 7.91136 16.9434 8.38234 16.9439 8.87359V13.6162C16.9439 13.6811 16.9567 13.7453 16.9815 13.8053C17.0064 13.8652 17.0428 13.9197 17.0887 13.9655C17.1346 14.0114 17.1891 14.0477 17.2491 14.0725C17.3091 14.0973 17.3734 14.11 17.4383 14.11Z" fill="white"/>
<path d="M8.83468 17.9686H12.6128C12.7437 17.9686 12.8694 17.9166 12.962 17.824C13.0546 17.7314 13.1066 17.6058 13.1066 17.4748C13.1066 17.3439 13.0546 17.2183 12.962 17.1257C12.8694 17.0331 12.7437 16.981 12.6128 16.981H8.83468C8.34355 16.9802 7.87279 16.7847 7.52562 16.4373C7.17845 16.09 6.9832 15.6192 6.98268 15.1282V10.2125C6.98268 10.0816 6.93065 9.95597 6.83803 9.86337C6.74541 9.77077 6.6198 9.71875 6.48881 9.71875C6.35783 9.71875 6.23222 9.77077 6.1396 9.86337C6.04698 9.95597 5.99495 10.0816 5.99495 10.2125V15.1282C5.9958 15.881 6.29522 16.6028 6.82755 17.1353C7.35988 17.6677 8.08168 17.9674 8.83468 17.9686Z" fill="white"/>
<path d="M7.17333 9.24098C7.55825 9.24098 7.93452 9.12684 8.25457 8.91299C8.57461 8.69914 8.82406 8.39519 8.97136 8.03958C9.11866 7.68396 9.1572 7.29265 9.08211 6.91513C9.00702 6.53761 8.82166 6.19083 8.54949 5.91866C8.27731 5.64648 7.93053 5.46112 7.55301 5.38603C7.17549 5.31094 6.78418 5.34948 6.42856 5.49678C6.07294 5.64408 5.76899 5.89353 5.55515 6.21357C5.3413 6.53362 5.22716 6.90989 5.22716 7.29481C5.22774 7.81079 5.43298 8.30546 5.79783 8.67031C6.16268 9.03516 6.65735 9.24039 7.17333 9.24098ZM7.17333 6.33616C7.36293 6.33616 7.54828 6.39239 7.70593 6.49772C7.86357 6.60306 7.98645 6.75278 8.059 6.92795C8.13156 7.10312 8.15055 7.29587 8.11356 7.48183C8.07657 7.66779 7.98526 7.8386 7.8512 7.97267C7.71713 8.10674 7.54631 8.19804 7.36035 8.23503C7.17439 8.27202 6.98164 8.25304 6.80647 8.18048C6.6313 8.10792 6.48158 7.98505 6.37625 7.8274C6.27091 7.66975 6.21469 7.48441 6.21469 7.29481C6.21501 7.04066 6.31612 6.79701 6.49583 6.6173C6.67554 6.43759 6.91918 6.33649 7.17333 6.33616Z" fill="white"/>
<path d="M16.8218 18.6541C17.2067 18.6541 17.583 18.5399 17.903 18.3261C18.2231 18.1122 18.4725 17.8083 18.6198 17.4527C18.7671 17.097 18.8056 16.7057 18.7305 16.3282C18.6555 15.9507 18.4701 15.6039 18.1979 15.3317C17.9257 15.0596 17.579 14.8742 17.2014 14.7991C16.8239 14.724 16.4326 14.7626 16.077 14.9099C15.7214 15.0572 15.4174 15.3066 15.2036 15.6267C14.9897 15.9467 14.8756 16.323 14.8756 16.7079C14.8762 17.2239 15.0814 17.7186 15.4463 18.0834C15.8111 18.4483 16.3058 18.6535 16.8218 18.6541ZM16.8218 15.7493C17.0114 15.7493 17.1967 15.8055 17.3544 15.9108C17.512 16.0161 17.6349 16.1659 17.7074 16.341C17.78 16.5162 17.799 16.709 17.762 16.8949C17.725 17.0809 17.6337 17.2517 17.4996 17.3858C17.3656 17.5198 17.1947 17.6111 17.0088 17.6481C16.8228 17.6851 16.6301 17.6661 16.4549 17.5936C16.2797 17.521 16.13 17.3981 16.0247 17.2405C15.9193 17.0828 15.8631 16.8975 15.8631 16.7079C15.8634 16.4537 15.9646 16.2101 16.1443 16.0304C16.324 15.8507 16.5676 15.7496 16.8218 15.7493Z" fill="white"/>
<path d="M12.3324 8.29455C12.4634 8.29455 12.589 8.24253 12.6816 8.14993C12.7742 8.05733 12.8262 7.93174 12.8262 7.80078V5.25221C12.8261 5.16484 12.8029 5.07905 12.7588 5.00359C12.7148 4.92814 12.6515 4.86572 12.5754 4.82272C12.4993 4.77972 12.4132 4.75768 12.3259 4.75883C12.2385 4.75999 12.153 4.78431 12.0781 4.8293L9.95493 6.1089C9.88189 6.15289 9.82149 6.21505 9.7796 6.28933C9.73772 6.3636 9.71579 6.44745 9.71594 6.53272C9.71609 6.61799 9.73831 6.70176 9.78046 6.77589C9.8226 6.85001 9.88322 6.91196 9.95641 6.9557L12.0781 8.22369C12.1549 8.26995 12.2428 8.29444 12.3324 8.29455ZM11.8386 6.12618V6.93077L11.1681 6.53008L11.8386 6.12618Z" fill="white"/>
<path d="M11.6215 19.2382C11.7113 19.2383 11.7994 19.2137 11.8763 19.1673L13.9995 17.8877C14.0725 17.8437 14.1329 17.7815 14.1747 17.7072C14.2166 17.6329 14.2385 17.5491 14.2383 17.4638C14.2382 17.3785 14.2159 17.2948 14.1738 17.2207C14.1316 17.1465 14.071 17.0846 13.9977 17.0409L11.8746 15.7719C11.7996 15.7272 11.7142 15.7031 11.6269 15.7022C11.5396 15.7012 11.4537 15.7234 11.3778 15.7665C11.3019 15.8096 11.2387 15.872 11.1948 15.9474C11.1509 16.0228 11.1278 16.1085 11.1277 16.1958V18.7444C11.1277 18.8753 11.1798 19.0009 11.2724 19.0935C11.365 19.1861 11.4905 19.2382 11.6215 19.2382ZM12.7856 17.4665L12.1153 17.8704V17.0661L12.7856 17.4665Z" fill="white"/>
</svg>
