<svg width="104" height="104" viewBox="0 0 104 104" fill="none" xmlns="http://www.w3.org/2000/svg">
<g filter="url(#filter0_d)">
<path d="M103 51C103 54.2588 101.307 56.9654 99.8135 59.3508C98.93 60.7643 98.0948 62.0975 97.7815 63.2661C97.4462 64.5251 97.4984 66.1535 97.5546 67.8782C97.645 70.6471 97.7474 73.7854 96.1712 76.5061C94.5749 79.2669 91.784 80.7507 89.3224 82.0598C87.8185 82.859 86.3989 83.6139 85.5074 84.5074C84.6139 85.3989 83.8589 86.8185 83.0598 88.3224C81.7507 90.784 80.2668 93.575 77.506 95.1733C74.7853 96.7474 71.647 96.645 68.8782 96.5547C67.1534 96.4985 65.525 96.4463 64.2661 96.7816C63.0995 97.0948 61.7643 97.9301 60.3507 98.8135C57.9654 100.307 55.2588 102 52 102H51.9779L44.8791 49.3034L51.9779 3.05176e-05H52C55.2588 3.05176e-05 57.9654 1.69267 60.3507 3.18653C61.7643 4.06999 63.0995 4.90527 64.2661 5.21849C65.525 5.55381 67.1534 5.50161 68.8782 5.44538C71.647 5.35503 74.7853 5.25263 77.506 6.8268C80.2668 8.42507 81.7507 11.216 83.0598 13.6777C83.8589 15.1816 84.6139 16.6011 85.5074 17.4926C86.3989 18.3861 87.8185 19.1411 89.3224 19.9402C91.784 21.2494 94.575 22.7332 96.1732 25.494C97.7474 28.2147 97.645 31.353 97.5546 34.1218C97.4984 35.8466 97.4462 37.475 97.7815 38.7339C98.0948 39.9005 98.93 41.2357 99.8135 42.6473C101.307 45.0346 103 47.7412 103 51Z" fill="#39E17F"/>
<path d="M51.9779 3.05176e-05V102C48.7292 101.992 46.0286 100.303 43.6492 98.8135C42.2357 97.9301 40.9005 97.0948 39.7339 96.7816C38.475 96.4463 36.8466 96.4985 35.1218 96.5547C32.3529 96.645 29.2146 96.7474 26.494 95.1733C23.7331 93.575 22.2493 90.784 20.9402 88.3224C20.1411 86.8185 19.3861 85.3989 18.4926 84.5074C17.6011 83.6139 16.1815 82.859 14.6776 82.0598C12.216 80.7507 9.42503 79.2669 7.82676 76.5061C6.25259 73.7854 6.35499 70.6471 6.44535 67.8782C6.50157 66.1535 6.55377 64.5251 6.21846 63.2661C5.90523 62.0996 5.06995 60.7643 4.18649 59.3528C2.69263 56.9654 0.999992 54.2588 0.999992 51C0.999992 47.7412 2.69263 45.0346 4.18649 42.6493C5.06995 41.2357 5.90523 39.9025 6.21846 38.7339C6.55377 37.475 6.50157 35.8466 6.44535 34.1218C6.35499 31.353 6.25259 28.2147 7.82877 25.494C9.42503 22.7332 12.216 21.2494 14.6776 19.9402C16.1815 19.1411 17.6011 18.3861 18.4926 17.4926C19.3861 16.6011 20.1411 15.1816 20.9402 13.6777C22.2493 11.216 23.7331 8.42507 26.494 6.8268C29.2146 5.25263 32.3529 5.35503 35.1218 5.44538C36.8466 5.50161 38.475 5.55381 39.7339 5.21849C40.9005 4.90527 42.2357 4.06999 43.6492 3.18653C46.0286 1.69668 48.7292 0.00806201 51.9779 3.05176e-05V3.05176e-05Z" fill="#7BED8E"/>
<path d="M90.3664 51C90.3664 72.155 73.1549 89.3665 52 89.3665H51.9779L50.4941 87.2132L51.9779 83.3429H52C69.8339 83.3429 84.3428 68.834 84.3428 51C84.3428 33.1661 69.8339 18.6572 52 18.6572H51.9779L49.4594 16.218L51.9779 12.6336H52C73.1549 12.6336 90.3664 29.8451 90.3664 51Z" fill="#00A946"/>
<path d="M70.1492 42.7537L51.9779 60.1981L50.4941 57.0237L51.9779 51.8474L65.9768 38.4087L70.1492 42.7537Z" fill="#00A946"/>
<path d="M51.9779 51.8474V60.1981L46.3137 65.6354L33.8066 53.1304L38.0673 48.8697L46.4 57.2024L51.9779 51.8474Z" fill="#22C064"/>
<path d="M51.9779 18.6572V12.6336C30.833 12.6456 13.6335 29.8531 13.6335 51C13.6335 72.147 30.833 89.3544 51.9779 89.3665V83.3429C34.154 83.3308 19.6572 68.8259 19.6572 51C19.6572 33.1741 34.154 18.6692 51.9779 18.6572Z" fill="#22C064"/>
</g>
<defs>
<filter id="filter0_d" x="-7.62939e-06" y="3.05176e-05" width="104" height="104" filterUnits="userSpaceOnUse" color-interpolation-filters="sRGB">
<feFlood flood-opacity="0" result="BackgroundImageFix"/>
<feColorMatrix in="SourceAlpha" type="matrix" values="0 0 0 0 0 0 0 0 0 0 0 0 0 0 0 0 0 0 127 0"/>
<feOffset dy="1"/>
<feGaussianBlur stdDeviation="0.5"/>
<feColorMatrix type="matrix" values="0 0 0 0 0 0 0 0 0 0 0 0 0 0 0 0 0 0 0.25 0"/>
<feBlend mode="normal" in2="BackgroundImageFix" result="effect1_dropShadow"/>
<feBlend mode="normal" in="SourceGraphic" in2="effect1_dropShadow" result="shape"/>
</filter>
</defs>
</svg>
