<svg width="90" height="90" viewBox="0 0 128 128" fill="none" xmlns="http://www.w3.org/2000/svg">
<path d="M115.075 53.5769L113.241 49.1096L102.831 23.7484L62.6099 6.89697L51.6387 11.3704L46.3006 13.548L22.2385 23.3586L10.655 50.6399L7.09513 59.0218L5.15666 63.5881L21.8504 103.969L44.9499 113.715L53.8408 117.464L62.0641 120.933L102.445 104.353L119.41 64.1338L115.075 53.5769ZM96.4555 98.3237L62.0992 112.432L55.1021 109.48L47.5366 106.289L27.8822 97.9978L13.6752 63.6363L15.3237 59.7515L18.3528 52.6195L28.2089 29.407L48.6832 21.0575L53.225 19.2049L62.5608 15.3989L96.7813 29.7381L105.642 51.3187L107.202 55.1186L110.889 64.1014L96.4555 98.3237Z" fill="#8E4C32"/>
<path d="M106.329 44.9261L112.359 38.897L109.015 30.7524L102.986 36.7824L106.329 44.9261Z" fill="#AD6545"/>
<path d="M49.6126 13.5484L25.5505 23.3589L13.974 50.6218C16.1509 52.4733 18.134 54.5413 19.8927 56.7937L21.6648 52.6199L31.5218 29.4073L51.9961 21.0578L55.6032 19.5862C53.8937 17.5386 52.4893 15.2544 51.4337 12.8047L49.6126 13.5484Z" fill="#AD6545"/>
<path d="M65.9218 6.89697L54.9506 11.3704L51.4337 12.8052C52.4892 15.255 53.8936 17.5391 55.6032 19.5868L56.5378 19.2057L65.8727 15.3989L66.0479 15.4716C67.0299 13.0338 68.0714 10.6259 69.3021 8.31162L65.9218 6.89697Z" fill="#8E4C32"/>
<path d="M82.2784 13.7525L69.2995 8.31201C68.0688 10.6263 67.0273 13.0342 66.0454 15.472L76.272 19.7571L82.2784 13.7525Z" fill="#AD6545"/>
<path d="M16.988 63.6364L18.6374 59.7516L19.8935 56.7935C18.1348 54.541 16.1517 52.4731 13.9748 50.6216L13.9678 50.64L10.4079 59.0219L8.4686 63.5882L11.311 70.4652C13.8031 69.6491 16.2329 68.6538 18.5814 67.487L16.988 63.6364Z" fill="#8E4C32"/>
<path d="M11.311 70.4654L15.4796 80.5493L21.4921 74.5368L18.5778 67.4863C16.2305 68.6532 13.8019 69.6488 11.311 70.4654Z" fill="#AD6545"/>
<path d="M96.5028 28.2345L102.509 22.2281L99.5389 20.9834L93.5325 26.9898L96.5028 28.2345Z" fill="#AD6545"/>
<path d="M89.0442 25.1081L95.0497 19.1026L84.7047 14.7676L78.6993 20.7739L89.0442 25.1081Z" fill="#AD6545"/>
<path d="M56.5807 108.705L50.8503 106.287L49.1352 105.566L43.1455 111.556L48.2593 113.715L50.8284 114.799C52.1728 112.294 54.1578 110.191 56.5807 108.705Z" fill="#AD6545"/>
<path d="M119.799 71.062C117.478 69.7822 115.147 68.5918 112.792 67.4443L99.7649 98.324L66.9327 111.806C67.4346 114.442 67.8402 117.105 68.1958 119.777L105.755 104.354L119.799 71.062Z" fill="#AD6545"/>
<path d="M65.4085 112.432L58.4115 109.48L56.5807 108.705C54.1606 110.192 52.1781 112.294 50.8354 114.797L57.1518 117.464L65.3761 120.933L68.1957 119.776C67.8401 117.104 67.4346 114.441 66.9326 111.805L65.4085 112.432Z" fill="#8E4C32"/>
<path d="M116.553 49.1114L113.361 41.3374L107.332 47.3674L108.954 51.3188L110.166 54.2698C112.205 52.4847 114.37 50.8326 116.692 49.4521L116.553 49.1114Z" fill="#AD6545"/>
<path d="M116.927 50.0223L116.692 49.4512C114.367 50.8325 112.205 52.4846 110.166 54.2689L110.467 55.0029L110.514 55.1177L114.203 64.1005L112.794 67.4475C115.147 68.5949 117.478 69.7854 119.801 71.0651L122.723 64.1381L118.388 53.5804L116.927 50.0223Z" fill="#8E4C32"/>
<path d="M38.6309 101.137L32.6421 107.126L40.7209 110.535L46.7106 104.545L38.6309 101.137Z" fill="#AD6545"/>
<path d="M28.6564 91.8657L22.6431 97.8782L23.8764 100.861L29.8889 94.8483L28.6564 91.8657Z" fill="#AD6545"/>
<path d="M22.4995 76.9727L16.487 82.9851L20.78 93.3712L26.7933 87.3587L22.4995 76.9727Z" fill="#AD6545"/>
<path d="M93.5324 26.9895L99.5388 20.9832L95.0496 19.1025L89.0441 25.108L93.5324 26.9895Z" fill="#FF8E66"/>
<path d="M26.7934 87.3589L20.78 93.3714L22.6432 97.8781L28.6565 91.8656L26.7934 87.3589Z" fill="#FF8E66"/>
<path d="M31.1916 97.998L29.889 94.8481L23.8766 100.861L25.1616 103.971L32.6421 107.126L38.631 101.137L31.1916 97.998Z" fill="#E58057"/>
<path d="M100.093 29.7384L102.986 36.7827L109.015 30.7527L106.139 23.7487L102.509 22.228L96.5028 28.2344L100.093 29.7384Z" fill="#E58057"/>
<path d="M46.7106 104.545L40.7209 110.535L43.1437 111.556L49.1325 105.566L46.7106 104.545Z" fill="#E58057"/>
<path d="M107.332 47.3674L113.361 41.3382L112.359 38.897L106.329 44.9261L107.332 47.3674Z" fill="#E58057"/>
<path d="M78.6993 20.7738L84.7047 14.7675L82.2784 13.7505L76.272 19.7568L78.6993 20.7738Z" fill="#E58057"/>
<path d="M21.4921 74.5366L15.4797 80.5491L16.487 82.9851L22.4995 76.9726L21.4921 74.5366Z" fill="#E58057"/>
<path d="M64.5439 0.175189C64.4493 0.120004 64.3547 0.0648199 64.2593 0.0113873L64.247 0V0.0131392C60.4603 2.13993 57.1685 5.93803 57.1387 9.39888C54.7579 7.80116 51.029 7.34742 48.0543 8.29432C50.6313 9.01434 52.1038 10.944 53.2057 12.7721C54.3077 14.6002 55.3754 16.586 57.6398 17.7282C59.5283 18.6804 61.3187 18.8118 64.247 18.8118H64.2593C64.4788 18.8118 64.6926 18.8118 64.9005 18.8118C63.5226 12.6662 63.5454 6.35498 64.5439 0.175189Z" fill="#AD6545"/>
<path d="M71.3676 9.39286C71.3378 6.01959 68.2089 2.32486 64.544 0.175293C63.5454 6.35946 63.5226 12.6706 64.9005 18.8136C67.4574 18.7909 69.1199 18.6069 70.8657 17.7266C73.1309 16.5879 74.1943 14.5986 75.2997 12.7705C76.4051 10.9424 77.875 9.0127 80.4511 8.29267C77.4764 7.34139 73.7493 7.79601 71.3676 9.39286Z" fill="#8E4C32"/>
<path d="M59.1464 8.23401C59.0194 11.3138 60.2851 12.9466 61.5596 14.2728C60.8588 10.5982 61.2005 6.82724 62.5477 3.24463C61.6936 4.08554 59.2585 5.51858 59.1464 8.23401Z" fill="#E58057"/>
<path d="M68.1476 15.4164C68.1161 15.5872 68.095 15.7668 68.1835 15.9271C68.3473 16.224 68.8597 16.365 69.2933 16.2967C69.6947 16.2265 70.067 16.0415 70.3655 15.7641C71.0373 15.1755 71.3711 14.4292 71.7074 13.7065C72.4459 12.1202 73.3122 10.5015 74.9484 9.31543C74.4658 9.66581 73.2263 9.82173 72.5948 10.1406C71.8467 10.5175 71.1482 10.9856 70.5153 11.5342C69.2487 12.6335 68.406 13.9912 68.1476 15.4164Z" fill="#AD6545"/>
<path d="M59.3189 15.7506C59.359 15.8928 59.3481 16.0446 59.2882 16.1798C59.1507 16.4294 58.7206 16.545 58.3562 16.4907C58.0196 16.431 57.7073 16.2756 57.4566 16.0431C56.8934 15.5491 56.6131 14.9228 56.3302 14.3158C55.71 12.9834 54.9829 11.624 53.6077 10.6289C54.0133 10.9223 55.0548 11.0537 55.5847 11.3209C56.2128 11.6374 56.7992 12.0304 57.3305 12.4912C58.3939 13.4162 59.1043 14.5566 59.3189 15.7506Z" fill="#E58057"/>
<path d="M64.544 127.83C64.4494 127.886 64.3548 127.941 64.2593 127.994L64.2479 128V127.987C60.4612 125.86 57.1694 122.062 57.1396 118.601C54.7588 120.199 51.0299 120.653 48.0552 119.706C50.6322 118.986 52.1047 117.056 53.2066 115.228C54.3086 113.4 55.3763 111.414 57.6407 110.272C59.5292 109.32 61.3196 109.188 64.2479 109.188H64.2602C64.4797 109.188 64.6935 109.188 64.9014 109.188C63.5226 115.335 63.5454 121.646 64.544 127.83Z" fill="#AD6545"/>
<path d="M71.3676 118.608C71.3378 121.982 68.2089 125.676 64.544 127.83C63.5454 121.646 63.5226 115.335 64.9005 109.192C67.4574 109.215 69.1199 109.399 70.8657 110.279C73.1309 111.418 74.1943 113.407 75.2997 115.235C76.4051 117.063 77.875 118.992 80.4511 119.713C77.4764 120.66 73.7493 120.206 71.3676 118.608Z" fill="#8E4C32"/>
<path d="M59.1464 119.764C59.0194 116.685 60.2851 115.052 61.5596 113.726C60.8588 117.399 61.2005 121.171 62.5477 124.754C61.6936 123.915 59.2585 122.481 59.1464 119.764Z" fill="#E58057"/>
<path d="M68.1476 112.587C68.1161 112.412 68.095 112.236 68.1835 112.076C68.3473 111.779 68.8597 111.638 69.2933 111.706C69.6947 111.777 70.067 111.962 70.3655 112.239C71.0373 112.828 71.3711 113.573 71.7074 114.297C72.4459 115.883 73.3122 117.502 74.9484 118.688C74.4658 118.337 73.2263 118.181 72.5948 117.863C71.8467 117.486 71.1482 117.018 70.5153 116.469C69.2487 115.367 68.406 114.009 68.1476 112.587Z" fill="#AD6545"/>
<path d="M59.319 112.25C59.3591 112.108 59.3483 111.956 59.2883 111.821C59.1508 111.572 58.7207 111.456 58.3563 111.51C58.0194 111.57 57.7068 111.725 57.4559 111.958C56.8926 112.452 56.6123 113.078 56.3294 113.685C55.7092 115.018 54.9822 116.377 53.607 117.372C54.0125 117.079 55.054 116.947 55.584 116.68C56.212 116.364 56.7984 115.971 57.3297 115.51C58.394 114.585 59.1044 113.444 59.319 112.25Z" fill="#E58057"/>
<path d="M127.825 64.418C127.88 64.3234 127.935 64.2279 127.989 64.1333C127.989 64.1333 127.989 64.1254 127.995 64.1219H127.982C125.855 60.3352 122.057 57.0434 118.596 57.0127C120.194 54.6328 120.647 50.9039 119.7 47.9292C118.98 50.5054 117.051 51.9778 115.223 53.0806C113.395 54.1834 111.409 55.2503 110.267 57.5147C109.314 59.4032 109.183 61.1936 109.183 64.1219V64.1342C109.183 64.3537 109.183 64.5675 109.183 64.7754C115.33 63.3966 121.641 63.4185 127.825 64.418Z" fill="#AD6545"/>
<path d="M118.603 71.2416C121.976 71.2118 125.671 68.083 127.825 64.418C121.641 63.4194 115.329 63.3967 109.186 64.7745C109.209 67.3314 109.393 68.9939 110.273 70.7397C111.412 73.004 113.401 74.0683 115.23 75.1737C117.058 76.2792 118.986 77.749 119.707 80.3252C120.654 77.3505 120.201 73.6216 118.603 71.2416Z" fill="#8E4C32"/>
<path d="M119.759 59.0201C116.679 58.893 115.046 60.1588 113.72 61.4333C117.394 60.7325 121.166 61.0741 124.748 62.4214C123.91 61.5673 122.475 59.1322 119.759 59.0201Z" fill="#E58057"/>
<path d="M112.582 68.0206C112.406 67.99 112.231 67.9689 112.071 68.0574C111.774 68.2212 111.633 68.7336 111.701 69.1672C111.772 69.5686 111.957 69.9409 112.234 70.2394C112.823 70.9112 113.568 71.2441 114.291 71.5813C115.878 72.3198 117.497 73.1861 118.683 74.8223C118.332 74.3397 118.176 73.0993 117.857 72.4678C117.48 71.7201 117.012 71.022 116.464 70.3892C115.362 69.1226 114.004 68.2764 112.582 68.0206Z" fill="#AD6545"/>
<path d="M112.245 59.193C112.103 59.2331 111.951 59.2223 111.816 59.1623C111.566 59.0248 111.451 58.5947 111.505 58.2303C111.565 57.8934 111.72 57.5808 111.953 57.3299C112.447 56.7658 113.073 56.4863 113.68 56.2034C115.012 55.5832 116.372 54.8562 117.367 53.481C117.073 53.8865 116.942 54.9271 116.675 55.458C116.358 56.086 115.965 56.6724 115.505 57.2037C114.58 58.268 113.439 58.9784 112.245 59.193Z" fill="#E58057"/>
<path d="M0.169933 64.418C0.114749 64.3234 0.0595642 64.2279 0.00613161 64.1333C0.00613161 64.1333 0.00613161 64.1254 0 64.1219H0.0078835C2.13468 60.3352 5.93277 57.0434 9.39363 57.0127C7.7959 54.6328 7.34216 50.9039 8.28906 47.9292C9.00909 50.5054 10.9388 51.9778 12.7669 53.0806C14.595 54.1834 16.5807 55.2503 17.723 57.5147C18.6751 59.4032 18.8065 61.1936 18.8065 64.1219V64.1342C18.8065 64.3537 18.8065 64.5675 18.8065 64.7754C12.6609 63.3966 6.34972 63.4185 0.169933 64.418Z" fill="#AD6545"/>
<path d="M9.3875 71.2416C6.01424 71.2145 2.3195 68.083 0.169937 64.418C6.3541 63.4194 12.6653 63.3967 18.8083 64.7745C18.7855 67.3314 18.6016 68.9939 17.7212 70.7397C16.5825 73.004 14.5932 74.0683 12.7651 75.1737C10.937 76.2792 9.00296 77.749 8.28293 80.3243C7.33604 77.3505 7.79065 73.6216 9.3875 71.2416Z" fill="#8E4C32"/>
<path d="M8.22862 59.0201C11.3084 58.893 12.9412 60.1588 14.2674 61.4333C10.5928 60.7325 6.82186 61.0741 3.23924 62.4214C4.08015 61.5673 5.51319 59.1322 8.22862 59.0201Z" fill="#E58057"/>
<path d="M15.4114 68.0206C15.5822 67.99 15.7618 67.9689 15.9221 68.0574C16.2191 68.2212 16.3601 68.7336 16.2918 69.1672C16.2215 69.5686 16.0365 69.9409 15.7592 70.2394C15.1706 70.9112 14.4242 71.2441 13.7016 71.5813C12.1153 72.3198 10.4965 73.1861 9.31049 74.8223C9.66086 74.3397 9.81678 73.0993 10.1356 72.4678C10.5127 71.7201 10.9808 71.022 11.5293 70.3892C12.6286 69.1226 13.9863 68.2764 15.4114 68.0206Z" fill="#AD6545"/>
<path d="M15.7451 59.193C15.8874 59.2331 16.0392 59.2223 16.1743 59.1623C16.424 59.0248 16.5396 58.5947 16.4853 58.2303C16.4257 57.8934 16.2703 57.5808 16.0377 57.3299C15.5437 56.7658 14.9174 56.4863 14.3103 56.2034C12.978 55.5832 11.6186 54.8562 10.6235 53.481C10.9169 53.8865 11.0483 54.9271 11.3155 55.458C11.6319 56.086 12.025 56.6724 12.4857 57.2037C13.4107 58.268 14.5512 58.9784 15.7451 59.193Z" fill="#E58057"/>
</svg>
