<svg width="46" height="46" viewBox="0 0 46 46" fill="none" xmlns="http://www.w3.org/2000/svg">
<ellipse cx="23" cy="23" rx="23" ry="23" fill="url(#paint0_linear)"/>
<path d="M46 23C46 35.7025 35.7025 46 23 46C10.2974 46 0 35.7025 0 23C3.07699 34.5 10.2974 41.6875 23 41.6875C35.7025 41.6875 42.6458 34.9664 46 23Z" fill="#D7A01F"/>
<path d="M42.1665 20.5833C42.1665 23.3055 33.7998 28.75 23.479 28.75C13.1582 28.75 4.7915 23.3055 4.7915 20.5833C4.7915 10.274 13.1582 1.91666 23.479 1.91666C33.7998 1.91666 42.1665 10.274 42.1665 20.5833Z" fill="#FDDA65"/>
<ellipse cx="30.6667" cy="7.66667" rx="1.91667" ry="1.91667" fill="#FFF7DB"/>
<g style="mix-blend-mode:color-burn" opacity="0.7">
<circle cx="23" cy="23" r="23" fill="#FABC29"/>
</g>
<path d="M36.5402 35.9421C35.6502 35.1021 37.2002 31.7321 35.8302 31.1521C34.8302 32.1521 11.9702 28.7921 14.0502 33.2021C10.6002 39.3521 38.5602 37.7421 36.5402 35.9421Z" fill="#C6C0B0"/>
<path d="M32.1999 8.63208C4.29993 10.0321 7.62993 3.71208 7.99993 34.0821C35.9999 32.7321 32.5599 38.9521 32.1999 8.63208Z" fill="#C6C0B0"/>
<path d="M14.52 34.1121C14.52 34.1121 14.52 34.1121 14.52 34.1821C14.5255 34.1591 14.5255 34.1351 14.52 34.1121V34.1121Z" fill="#C6C0B0"/>
<path d="M14.5701 33.9521C14.5701 33.9521 14.5701 33.9521 14.5701 34.0121C14.5645 33.9925 14.5645 33.9717 14.5701 33.9521V33.9521Z" fill="#C6C0B0"/>
<path d="M14.3399 34.5621C14.3399 34.5621 14.3199 34.5821 14.3399 34.5621V34.5621Z" fill="#C6C0B0"/>
<path d="M14.69 33.1821C14.69 33.1821 14.69 33.2821 14.69 33.3221C14.6808 33.2759 14.6808 33.2283 14.69 33.1821Z" fill="#C6C0B0"/>
<path d="M14.6702 33.3421C14.6702 33.3421 14.6702 33.4421 14.6702 33.4821C14.6659 33.4355 14.6659 33.3887 14.6702 33.3421Z" fill="#C6C0B0"/>
<path d="M14.6299 33.6621C14.6401 33.7048 14.6401 33.7494 14.6299 33.7921C14.6355 33.749 14.6355 33.7053 14.6299 33.6621V33.6621Z" fill="#C6C0B0"/>
<path d="M14.6899 33.0321C14.7005 33.0815 14.7005 33.1327 14.6899 33.1821C14.7011 33.1327 14.7011 33.0815 14.6899 33.0321V33.0321Z" fill="#C6C0B0"/>
<path d="M14.1398 34.7321C14.5998 34.4521 14.6298 33.7321 14.6898 33.1621C14.6898 27.1621 12.2698 33.5221 14.1398 34.7321Z" fill="#C6C0B0"/>
<path d="M14.48 34.2621C14.32 34.2621 13.92 33.8521 13.98 34.2621H14.48ZM14.6 33.8021L15.08 33.9621C15.26 33.6821 14.7 33.8421 14.6 33.8021V33.8021ZM15.19 33.1621C15.19 33.0295 15.1373 32.9023 15.0436 32.8086C14.9498 32.7148 14.8226 32.6621 14.69 32.6621C14.5574 32.6621 14.4302 32.7148 14.3364 32.8086C14.2427 32.9023 14.19 33.0295 14.19 33.1621H15.19ZM14.19 35.2321C14.3226 35.2321 14.4498 35.1795 14.5436 35.0857C14.6373 34.9919 14.69 34.8647 14.69 34.7321C14.69 34.5995 14.6373 34.4723 14.5436 34.3786C14.4498 34.2848 14.3226 34.2321 14.19 34.2321V35.2321ZM14.61 35.0421C15.07 34.5921 14.35 33.8721 13.9 34.3421L14.61 35.0421ZM14.81 34.6321C14.81 34.4995 14.7573 34.3723 14.6636 34.2786C14.5698 34.1848 14.4426 34.1321 14.31 34.1321C14.1774 34.1321 14.0502 34.1848 13.9564 34.2786C13.8627 34.3723 13.81 34.4995 13.81 34.6321H14.81ZM35.74 34.1421C36.22 34.2621 35.74 32.8321 35.43 33.1421L35.74 34.1421ZM14.52 34.2621C13.29 34.2621 14.88 33.0021 14.52 34.7721C14.81 34.7521 15.47 34.0921 14.48 34.2621H14.52ZM14.14 33.7921C14.473 33.8121 14.807 33.8121 15.14 33.7921H14.14ZM14.23 33.1621H15.23C15.23 33.1621 14.18 33.1721 14.19 33.1621H14.23ZM14.23 33.4821H15.23C15.23 33.4821 14.14 33.4921 14.14 33.4821H14.23ZM14.01 34.3821C14.01 33.5621 14.66 34.7321 14.86 34.7621C15.38 34.1521 14.14 34.4621 13.92 34.3821H14.01ZM14.24 34.2321V35.2321V34.2321V35.2321V34.2321ZM13.95 34.3421C13.82 34.2121 14.78 35.1721 14.66 35.0421C14.436 34.7931 14.199 34.5561 13.95 34.3321V34.3321C13.82 34.2021 14.78 35.1621 14.66 35.0321L13.86 34.3421H13.95ZM13.86 34.6321H14.86H13.86H14.86C14.86 34.6321 13.77 34.6421 13.77 34.6321H13.86ZM14.04 34.3421C13.7 34.3421 15.16 34.2621 14.98 34.5821C15.27 34.1521 14.08 34.4121 14 34.3421H14.04ZM14.04 34.4121C13.7 34.4121 15.17 34.3321 14.99 34.6521C15.24 34.2221 14.05 34.4821 13.92 34.4121H14.04ZM14.1 34.2721C13.76 34.2721 15.22 34.1921 15.04 34.5121C15.3 34.0821 14.11 34.3421 14 34.2721H14.1ZM14.18 33.9721C13.93 33.9721 15.18 34.6421 15.09 34.3821C15 34.4921 14.07 33.9521 14.06 33.9721H14.18ZM14.06 34.2721C13.95 34.2721 14.77 35.0221 14.76 34.9921C14.5009 34.7364 14.2271 34.496 13.94 34.2721H14.06ZM14.26 33.5121C14.02 33.6921 15.45 33.7521 15.26 33.5121H14.26ZM14.26 33.6421C14 33.7621 15.33 34.2221 15.21 33.9521C15.14 34.0321 14.14 33.6421 14.13 33.6421H14.26ZM36.67 35.9421C36.3834 36.1136 36.1063 36.3006 35.84 36.5021L36.67 35.9421ZM36 35.1921C37.27 34.7221 36.5 33.8521 35.47 34.3421C34.61 35.0321 35 36.1221 36 35.1921ZM36 35.1921L36.7 35.9121C37.48 35.1121 36.65 35.1321 36 35.1721V35.1921ZM36 35.1921L35.31 34.4721C34.6 35.2221 35.43 35.2021 36 35.1621V35.1921ZM36 35.1921L36.69 35.9121C37.51 35.0321 36.68 35.0821 36.07 35.1221L36 35.1921ZM36 35.1921V36.1921C37.15 36.0821 36.5 35.5021 36.08 35.1021L36 35.1921ZM36 35.1921C35.68 36.5421 36.88 36.3221 37 35.1921H36ZM36 35.1921C35.67 36.5421 36.87 36.3221 37 35.1921H36ZM36 35.1921L36.7 35.9021C37.58 35.0321 36.75 35.0321 36.14 35.0321L36 35.1921ZM36 35.0921L36.7 35.8121C37.62 34.8821 36.79 34.9021 36.18 34.9421L36 35.0921ZM36 35.0221L36.7 35.7421C37.65 34.8121 36.82 34.8321 36.21 34.8721L36 35.0221ZM36 34.9721C35.83 35.8621 36.26 36.3621 36.89 35.4321L36 34.9721ZM36 34.9021C37.12 35.1521 37.29 34.3321 36.23 33.9021C35.38 33.6621 35.15 34.4621 36.27 34.7521L36 34.9021ZM36 34.7921L36.69 35.5121C37.74 34.5821 36.91 34.6021 36.3 34.6421L36 34.7921ZM36 34.7121C35.68 36.0621 36.88 35.8421 37 34.7121H36ZM36 34.6321C35.78 34.6321 34.83 33.9821 35 34.6321H36ZM36 34.5021C36.21 34.5021 37.17 35.1521 37 34.5021H36ZM36 34.5021C35.78 34.5021 34.83 33.8521 35 34.5021H36ZM36 34.3821C36.21 34.3821 37.17 35.0321 37 34.3821H36ZM36 34.3821C35.78 34.3821 34.83 33.7321 35 34.3821H36ZM37 34.0721C37 33.8069 36.8946 33.5526 36.7071 33.365C36.5196 33.1775 36.2652 33.0721 36 33.0721C35.7348 33.0721 35.4804 33.1775 35.2929 33.365C35.1054 33.5526 35 33.8069 35 34.0721H37ZM36 33.7521L37 34.0021C37.73 33.3621 36.59 33.6521 36.45 33.5721L36 33.7521ZM35.37 31.3321C34.01 31.0121 34.23 32.2121 35.37 32.3321V31.3321ZM35.37 31.3321C35.96 31.3321 36.8 31.4021 36.07 30.6221C35.34 29.8421 35.78 30.5521 35.82 31.1421L35.37 31.3321ZM13.61 33.7721C13.61 33.7721 14.7 33.7721 14.61 33.6521L13.61 33.7721ZM13.68 34.4221C13.68 34.3721 14.86 34.5521 14.68 34.2921L13.68 34.4221ZM13.68 34.4221H14.68C15.1 33.2121 14.54 33.8221 14.14 34.2821L13.68 34.4221ZM13.68 34.4221H14.68C15.12 33.2521 14.55 33.8621 14.16 34.3221L13.68 34.4221ZM13.68 34.4221H12.68C13 34.7621 14.06 34.3021 14.16 34.3521L13.68 34.4221ZM13.96 35.3521C13.96 35.3521 12.96 35.7221 13.06 35.7921L13.96 35.3521ZM14.32 35.9521C14.32 35.9521 15.2 35.4121 15.15 35.4021L14.32 35.9521ZM14.92 37.2121L13.92 37.3921C14.76 38.4021 15.68 38.3221 15.4 37.1421L14.92 37.2121ZM36.57 37.2121C36.51 37.8621 36.57 38.6521 37.32 37.8721C38.07 37.0921 37.69 37.0321 37.05 37.1321L36.57 37.2121ZM28 9.25213C27.68 10.6021 28.88 10.3821 29 9.25213H28ZM12.16 33.4721C12.49 32.1221 11.29 32.3421 11.16 33.4721H12.16ZM14.56 34.0021C15.56 34.2021 15.92 33.6321 14.94 33.0721C13.86 32.7721 13.73 33.4521 14.56 34.0321V34.0021ZM14.56 34.0021C13.96 34.0021 13.12 33.9321 13.85 34.7121C14.58 35.4921 14.58 34.6221 14.55 34.0321L14.56 34.0021ZM13.82 33.3921C13.6317 33.5804 13.5259 33.8358 13.5259 34.1021C13.5259 34.3684 13.6317 34.6238 13.82 34.8121C14.0083 35.0004 14.2637 35.1062 14.53 35.1062C14.7963 35.1062 15.0517 35.0004 15.24 34.8121L13.82 33.3921ZM14.46 34.3121C15.81 34.6321 15.59 33.4421 14.46 33.3121C13.32 33.4621 13.1 34.6521 14.45 34.3321L14.46 34.3121ZM13.74 33.6321C12.81 34.5321 14.25 35.9821 15.15 35.0421L13.74 33.6321ZM14.52 34.1621C13.52 33.9621 13.15 34.5221 14.13 35.0821C15.21 35.4021 15.34 34.7221 14.51 34.1821L14.52 34.1621ZM14.7 33.0321C14.7 33.6321 14.63 34.4721 15.41 33.7421C16.19 33.0121 15.29 33.0321 14.7 33.0321ZM13.7 33.4921C13.6586 33.6169 13.6422 33.7486 13.6518 33.8797C13.6613 34.0107 13.6965 34.1387 13.7555 34.2561C13.8145 34.3736 13.896 34.4783 13.9954 34.5643C14.0949 34.6502 14.2102 34.7158 14.335 34.7571C14.4598 34.7985 14.5914 34.8149 14.7225 34.8054C14.8536 34.7958 14.9815 34.7606 15.099 34.7016C15.2165 34.6427 15.3212 34.5611 15.4071 34.4617C15.4931 34.3623 15.5586 34.2469 15.6 34.1221L13.7 33.4921ZM14.7 33.1821C15.94 33.4821 15.91 32.4621 14.81 32.1821C13.67 32.1821 13.41 33.1721 14.69 33.1621L14.7 33.1821ZM15.7 32.8221C15.7 32.5569 15.5946 32.3026 15.4071 32.115C15.2196 31.9275 14.9652 31.8221 14.7 31.8221C14.4348 31.8221 14.1804 31.9275 13.9929 32.115C13.8054 32.3026 13.7 32.5569 13.7 32.8221H15.7ZM14.24 34.7021L13.53 33.9921C12.8 34.7521 13.65 34.7121 14.24 34.6821V34.7021ZM14.37 34.5221C15.72 34.8421 15.5 33.6421 14.37 33.5221C13.24 33.6221 13 34.8221 14.37 34.5021V34.5221ZM14.37 33.5221C14.1048 33.5221 13.8504 33.6275 13.6629 33.815C13.4754 34.0026 13.37 34.2569 13.37 34.5221C13.37 34.7873 13.4754 35.0417 13.6629 35.2292C13.8504 35.4168 14.1048 35.5221 14.37 35.5221V33.5221ZM15.37 34.4521C15.37 34.1869 15.2646 33.9326 15.0771 33.745C14.8896 33.5575 14.6352 33.4521 14.37 33.4521C14.1048 33.4521 13.8504 33.5575 13.6629 33.745C13.4754 33.9326 13.37 34.1869 13.37 34.4521H15.37ZM14.37 34.4521C13.78 34.4521 12.93 34.3721 13.66 35.1621C14.39 35.9521 14.41 35.0321 14.38 34.4721L14.37 34.4521ZM14.44 34.3221L15.15 35.0321C15.89 34.2721 15 34.3121 14.45 34.3421L14.44 34.3221ZM14.44 34.3221L15.14 35.0321C15.88 34.3121 15 34.3521 14.44 34.3821V34.3221ZM14.37 34.4621L15.07 35.1721C15.8 34.4321 15 34.4621 14.37 34.5221V34.4621ZM14.37 34.4121C15.37 34.6121 15.74 34.0421 14.76 33.4821C13.69 33.2421 13.56 33.9221 14.39 34.4721L14.37 34.4121ZM14.37 34.4121C13.37 34.2121 13.01 34.7721 13.99 35.3321C15.08 35.7221 15.21 35.0321 14.38 34.5021L14.37 34.4121ZM14.37 34.3221L15.08 35.0321C15.86 34.3421 15 34.3821 14.42 34.4121L14.37 34.3221ZM15.47 34.0221C15.47 33.7569 15.3646 33.5026 15.1771 33.315C14.9896 33.1275 14.7352 33.0221 14.47 33.0221C14.2048 33.0221 13.9504 33.1275 13.7629 33.315C13.5754 33.5026 13.47 33.7569 13.47 34.0221H15.47ZM14.47 34.1821L15.36 34.6321C15.85 34.0321 14.79 34.3421 14.48 34.2721L14.47 34.1821ZM14.47 34.1821L15.18 34.8821C15.9 34.2421 15.06 34.2821 14.46 34.3221L14.47 34.1821ZM14.17 35.5821C14.4352 35.5821 14.6896 35.4768 14.8771 35.2892C15.0646 35.1017 15.17 34.8473 15.17 34.5821C15.17 34.3169 15.0646 34.0626 14.8771 33.875C14.6896 33.6875 14.4352 33.5821 14.17 33.5821V35.5821ZM14.17 33.5821C13.9048 33.5821 13.6504 33.6875 13.4629 33.875C13.2754 34.0626 13.17 34.3169 13.17 34.5821C13.17 34.8473 13.2754 35.1017 13.4629 35.2892C13.6504 35.4768 13.9048 35.5821 14.17 35.5821V33.5821ZM14.24 34.5821C14.79 35.4121 15.46 35.2921 15.16 34.2021C14.57 33.3421 14 33.7321 14.2 34.7021L14.24 34.5821ZM14.24 34.5821C13.24 34.3821 12.87 34.9421 13.85 35.5021C14.89 35.9421 15 35.2621 14.19 34.7221L14.24 34.5821ZM14.62 33.8121C15.62 34.0121 15.99 33.4521 15.01 32.8921C13.87 32.7321 13.74 33.4121 14.57 33.9521L14.62 33.8121ZM13.62 33.8721C13.62 34.1373 13.7254 34.3917 13.9129 34.5792C14.1004 34.7668 14.3548 34.8721 14.62 34.8721C14.8852 34.8721 15.1396 34.7668 15.3271 34.5792C15.5146 34.3917 15.62 34.1373 15.62 33.8721H13.62ZM14.16 33.5921C13.8948 33.5921 13.6404 33.6975 13.4529 33.885C13.2654 34.0726 13.16 34.3269 13.16 34.5921C13.16 34.8573 13.2654 35.1117 13.4529 35.2992C13.6404 35.4868 13.8948 35.5921 14.16 35.5921V33.5921ZM14.16 35.5921C14.4252 35.5921 14.6796 35.4868 14.8671 35.2992C15.0546 35.1117 15.16 34.8573 15.16 34.5921C15.16 34.3269 15.0546 34.0726 14.8671 33.885C14.6796 33.6975 14.4252 33.5921 14.16 33.5921V35.5921ZM15.08 35.1321C16.01 34.2321 14.57 32.7921 13.66 33.7221L15.08 35.1321ZM14.34 34.4721C13.34 34.2721 12.98 34.8321 13.96 35.3921C15 35.8321 15.14 35.1521 14.31 34.6121L14.34 34.4721ZM14.26 34.5421C15.26 34.7421 15.62 34.1721 14.64 33.6121C13.52 33.4521 13.4 34.1321 14.23 34.6821L14.26 34.5421ZM14.26 34.5421C13.72 33.7121 13.04 33.8421 13.34 34.9221C13.85 36.0321 14.41 35.6621 14.21 34.6921L14.26 34.5421ZM14.35 34.4721C14.85 35.3621 15.55 35.2121 15.28 34.1221C14.7 33.2721 14.09 33.6221 14.3 34.6221L14.35 34.4721ZM14.35 34.4721L15.06 35.1821L14.35 34.4721ZM14.35 34.4721C15.35 34.6721 15.71 34.1021 14.73 33.5421C13.55 33.4221 13.43 34.1021 14.26 34.6521L14.35 34.4721ZM14.35 34.4721C13.8 33.6421 13.13 33.7721 13.43 34.8521C13.87 36.0321 14.44 35.6421 14.24 34.6621L14.35 34.4721ZM15.55 34.0321C15.55 33.7669 15.4446 33.5126 15.2571 33.325C15.0696 33.1375 14.8152 33.0321 14.55 33.0321C14.2848 33.0321 14.0304 33.1375 13.8429 33.325C13.6554 33.5126 13.55 33.7669 13.55 34.0321H15.55ZM14.69 33.1721C15.92 33.4621 15.9 32.4521 14.81 32.1721C13.68 32.1921 13.42 33.1621 14.69 33.1821V33.1721ZM13.69 33.4721C13.69 33.7373 13.7954 33.9917 13.9829 34.1792C14.1704 34.3668 14.4248 34.4721 14.69 34.4721C14.9552 34.4721 15.2096 34.3668 15.3971 34.1792C15.5846 33.9917 15.69 33.7373 15.69 33.4721H13.69ZM15.69 32.6421C15.69 32.3769 15.5846 32.1226 15.3971 31.935C15.2096 31.7475 14.9552 31.6421 14.69 31.6421C14.4248 31.6421 14.1704 31.7475 13.9829 31.935C13.7954 32.1226 13.69 32.3769 13.69 32.6421H15.69ZM15.69 33.0021C15.69 32.7369 15.5846 32.4826 15.3971 32.295C15.2096 32.1075 14.9552 32.0021 14.69 32.0021C14.4248 32.0021 14.1704 32.1075 13.9829 32.295C13.7954 32.4826 13.69 32.7369 13.69 33.0021H15.69ZM14.69 33.1521C13.49 32.5321 13.37 33.6721 14.41 34.1521C15.51 34.3121 16 33.2821 14.67 33.1621L14.69 33.1521ZM14.21 34.7221C14.53 33.3721 13.34 33.5921 13.21 34.7221H14.21ZM14.21 34.7221L13.51 34.0221C12.77 34.7821 13.62 34.7421 14.21 34.7021V34.7221ZM14.21 34.7221V33.7221C13.15 33.7321 13.79 34.3021 14.23 34.6921L14.21 34.7221ZM14.21 34.7221L13.5 34.0121L14.26 34.6621L14.21 34.7221ZM14.21 34.6721L13.5 33.9621C12.86 34.6821 13.7 34.6421 14.3 34.6121L14.21 34.6721ZM14.21 34.6721L14.92 35.3721C15.76 34.4921 14.91 34.5421 14.32 34.5721L14.21 34.6721ZM14.27 34.6121C13.95 35.9621 15.14 35.7421 15.27 34.6121H14.27ZM14.27 34.6121L14.98 35.3221C15.83 34.4121 15 34.4521 14.39 34.4821L14.27 34.6121ZM14.37 34.3921C14.2 35.2921 14.65 35.7821 15.27 34.8421L14.37 34.3921ZM14.37 34.3221L15.26 34.7721C15.89 33.9521 14.83 34.2621 14.52 34.1921L14.37 34.3221ZM14.37 34.2121L15.07 34.9221C16 34.0321 15.14 34.0321 14.55 34.0821L14.37 34.2121ZM14.37 34.1321C14.05 35.4821 15.25 35.2621 15.37 34.1321H14.37ZM14.37 34.0421C14.16 34.0421 13.2 33.4121 13.37 34.0421H14.37ZM14.37 33.9221C14.57 33.9221 15.54 34.5521 15.37 33.9221H14.37ZM14.37 33.9221C14.16 33.9221 13.19 33.2921 13.37 33.9221H14.37ZM14.37 33.8021C14.58 33.8021 15.55 34.4321 15.37 33.8021H14.37ZM14.37 33.8021C14.17 33.8021 13.2 33.1621 13.37 33.8021H14.37ZM14.7 33.0321L15.7 33.2721C16 32.7921 14.83 33.0321 14.7 33.0321ZM14.09 34.7321C14.97 34.4821 15.21 33.8621 14.09 33.7321V34.7321ZM37.37 35.4221C37.08 34.0721 34.37 35.7021 35.7 36.5121L37.37 35.4221ZM36 35.1921C34.76 36.5121 38.08 36.4421 35.32 34.4521C35.88 34.0321 37 34.5821 36 35.1921ZM36 35.1921H37H35H36ZM36.7 35.9021C37.28 36.2721 35.29 34.0421 35.14 34.6721C35.22 33.9221 36.57 35.8621 36.74 35.8821L36.7 35.9021ZM36.03 35.1421C38.49 35.0421 35.29 37.7321 36.03 34.1421C35.39 34.1621 34.09 35.4621 36.07 35.1221L36.03 35.1421ZM36.74 35.8421C37.2 35.3821 36.36 36.2421 36.07 36.1021V34.1021C34.34 34.1821 36.37 35.0321 36.78 35.8221L36.74 35.8421ZM36.07 35.1021C38.53 35.0021 35.33 37.6821 36.07 34.1021C35.43 34.1221 34.13 35.4221 36.11 35.0821L36.07 35.1021ZM37.07 35.1021C37.07 37.0121 35.67 34.2721 35.38 34.3621C34.16 35.6121 36.71 34.8621 37.13 35.0321L37.07 35.1021ZM37.07 35.1021C37.15 35.3621 36.6 36.1021 36.93 35.6021C37.93 34.4021 34.73 35.6021 35.12 34.7921C35.12 34.6721 35.43 34.2921 35.34 34.4121C34.28 35.5021 36.75 34.8821 37.14 35.0321L37.07 35.1021ZM37.07 35.1021C36.98 35.6321 37.07 35.5321 37.07 35.1021C37.01 35.0021 34.72 35.3421 35.07 34.8821C34.65 35.0321 36.58 35.1021 37.15 35.0321L37.07 35.1021ZM37.07 35.1021C37.07 36.7821 35.8 34.5421 35.39 34.3521C34.24 35.4321 36.73 34.8221 37.17 34.9721L37.07 35.1021ZM37.07 35.1021C37.07 35.2421 36.91 35.6921 37.07 35.4321C37.7 34.4321 34.48 35.6921 35.23 34.6421C34.55 35.3121 36.93 34.8121 37.18 34.9421L37.07 35.1021ZM37.07 35.1021C37.07 36.7821 35.8 34.5421 35.39 34.3521C34.27 35.3721 36.76 34.7521 37.2 34.9021L37.07 35.1021ZM37.07 35.1021C37.07 35.2421 36.91 35.6921 37.02 35.4321C37.65 34.4321 34.43 35.7021 35.18 34.6421C34.58 35.2521 37 34.7421 37.21 34.8721L37.07 35.1021ZM36.07 35.1021C38.52 35.0021 35.32 37.6921 36.07 34.1021C35.54 33.8821 34.24 35.1721 36.23 34.8321L36.07 35.1021ZM36.97 35.5521C37.42 35.5521 35.06 34.3121 35.15 34.7321C35.22 34.1421 37.09 35.3221 37.13 35.2821L36.97 35.5521ZM37.11 35.0221C37.79 35.2421 34.85 35.0221 35.11 34.7021C34.79 35.0321 37.15 34.6021 37.27 34.7321L37.11 35.0221ZM37.11 34.9621C37.11 36.6321 35.85 34.4021 35.43 34.2121C34.35 35.1321 36.84 34.5221 37.28 34.6721L37.11 34.9621ZM37.11 34.9621C37.72 34.9621 34.87 35.0821 35.16 34.6321C34.81 34.9721 37.17 34.5121 37.3 34.6421L37.11 34.9621ZM37.11 34.9021C37.11 35.1673 37.0046 35.4217 36.8171 35.6092C36.6296 35.7968 36.3752 35.9021 36.11 35.9021C35.96 35.5721 36.58 33.1221 35.51 34.1021C34.28 35.0321 36.8 34.4521 37.31 34.5821L37.11 34.9021ZM37.11 34.9021C37.11 35.0421 36.95 35.4921 37.11 35.2321C37.75 34.2321 34.52 35.4921 35.27 34.4421C34.69 34.9321 37.07 34.4221 37.32 34.5621L37.11 34.9021ZM37.11 34.9021H35.11H37.11ZM37.05 35.2021C37.57 35.0821 34.95 34.2021 35.14 34.6421C35.23 33.9721 37.26 34.8521 37.28 34.8021L37.05 35.2021ZM37.14 34.7521H35.14H37.14ZM37.08 35.0621C37.6 34.9521 34.98 34.0621 35.17 34.5121C35.26 33.8321 37.29 34.7121 37.31 34.6621L37.08 35.0621ZM37.17 34.6221H35.17H37.17ZM37.11 34.9321C37.76 34.0221 35.34 34.6221 35.18 34.4821C35.19 33.5421 37.27 34.6021 37.34 34.5321L37.11 34.9321ZM37.18 34.4721H35.18L37.41 34.0321L37.18 34.4721ZM37.18 34.4721C37.67 34.1921 35.09 34.4721 35.18 34.2521C35.07 34.2721 37.35 33.9421 37.41 34.0321L37.18 34.4721ZM37.18 34.3321H35.18H37.18ZM37.18 34.3321C37.67 34.0621 35.1 34.3321 35.18 34.1221C35.08 34.1121 37.36 33.7821 37.42 33.8721L37.18 34.3321ZM36.18 34.2021H37.18H35.18H36.18ZM37.18 34.2021C37.37 34.4821 35.26 33.7621 35.18 33.8021C34.93 34.1321 37.25 33.5621 37.44 33.7221L37.18 34.2021ZM37.18 34.0521H35.18H37.18ZM37.18 34.0521V33.4321C36.5138 33.3966 35.8462 33.3966 35.18 33.4321V33.5821L37.18 34.0521ZM37.18 33.9021V33.8521H35.18V33.9121L37.18 33.9021ZM37.18 33.8421V33.2321C37.18 33.1721 35.18 33.2321 35.18 33.2321C35.32 33.4021 37.45 33.2821 37.45 33.3121L37.18 33.8421ZM37.18 33.7321C37.49 31.4821 35.11 29.1221 35.56 32.6821C34.35 32.0321 36.14 33.7321 37.45 33.2021L37.18 33.7321ZM35.56 30.6821V32.6821V30.6821ZM36.56 31.6821H34.56H36.56ZM14.39 30.6821C10.92 31.5021 14.22 36.1321 14.92 32.5721C14.7 32.6821 14.52 30.8221 14.65 30.1521L14.39 30.6821ZM12.79 33.7321C12.27 34.5521 15.02 34.1221 14.79 33.7321H12.79ZM12.79 34.1821C12.32 35.3421 15.33 34.8921 14.79 34.0521L12.79 34.1821ZM12.86 34.7721C12.8 36.5221 14.18 34.3221 14.57 34.0921C16 34.7121 13.52 34.0921 13.13 34.2421L12.86 34.7721ZM12.86 34.7721C12.81 36.5321 14.18 34.3221 14.57 34.1021C16.05 34.7521 13.53 34.1321 13.14 34.2821L12.86 34.7721ZM12.86 34.9921C12.61 36.8121 15.5 35.6921 14.86 34.6121L12.86 34.9921ZM13.22 36.1721C13.28 37.5821 15.77 35.8621 15.02 35.3021L13.22 36.1721ZM13.63 36.8721C13.98 38.2621 15.15 37.4821 16.07 37.4121C16 34.8421 15.13 35.5821 14 36.4221L13.63 36.8721ZM15.08 38.5921H37.05C40.25 34.9721 12.21 35.0321 15.4 38.1421L15.08 38.5921ZM38 37.0321C38.09 34.5821 35.23 35.9321 36 37.2921L38 37.0321ZM33.2 8.63213C32.36 5.14213 27.7 8.51213 31.32 9.17213C31.73 9.38213 31.1 8.93213 31.2 8.63213H33.2ZM30.12 7.03213C27.87 6.70213 25.46 9.03213 29 8.63213C28.83 10.1321 30.68 8.40213 30.12 7.03213ZM27 8.63213C26.52 9.72213 28.57 9.09213 29 9.25213C29.53 8.16213 27.47 8.79213 27 8.63213ZM9.25 8.25213C8.65326 8.25213 8.08097 8.48918 7.65901 8.91114C7.23705 9.3331 7 9.90539 7 10.5021C8.91 10.8121 9.56 10.1621 9.25 8.25213ZM7 34.0821C7.85 37.5721 12.5 34.2021 8.89 33.5421C9.52 34.0921 7.7 34.1721 7 34.0821ZM10.08 35.6821C12.33 36.0121 14.74 33.6821 11.16 34.0821C11.38 32.5721 9.52 34.3121 10.08 35.6821ZM13.16 34.0821C13.64 33.0121 11.58 33.6321 11.16 33.4721C10.68 34.5421 12.75 33.9221 13.16 34.0821ZM30.96 34.4721C31.555 34.4695 32.1247 34.2313 32.5445 33.8096C32.9643 33.3879 33.2 32.8171 33.2 32.2221C31.29 31.9121 30.65 32.5621 31 34.4721H30.96ZM13.56 34.0321C14.72 31.1221 14.07 35.8521 15.17 34.8421C16.57 33.5321 14.06 34.1321 13.56 34.0321ZM14.56 34.0321C16.07 33.9621 15.56 34.0321 15.28 34.7121L13.86 33.3021C13.54 33.9721 13 34.1121 14.55 34.0321H14.56ZM13.56 34.0921C13.56 32.4521 14.85 34.6521 15.26 34.8321C16.45 33.6221 14 34.2421 13.53 34.0921H13.56ZM15.26 34.8321C16.82 33.4521 13.66 34.4021 13.56 34.0921C13.51 32.4721 14.86 34.6721 15.23 34.8321H15.26ZM13.48 34.3321C13.48 32.6821 14.76 34.8921 15.17 35.0621C16.37 33.8621 13.88 34.4821 13.45 34.3321H13.48ZM15.17 35.0621C16.73 33.6921 13.58 34.6421 13.48 34.3321C13.42 32.7021 14.77 34.9021 15.14 35.0321L15.17 35.0621ZM13.7 33.0321H15.7H13.7ZM14.7 32.0321C16.91 33.0321 15.06 34.3321 13.99 32.3021C13 34.4021 15.4 34.3821 14.7 32.0321ZM13.7 32.8221H15.7C15.7 32.8221 13.7 32.8121 13.7 32.8021V32.8221ZM14.7 32.8221H15.7H13.7H14.7ZM14.7 33.3121H15.7H13.7H14.7ZM13.7 33.6221H15.7H13.7ZM14.44 34.4621C11.98 34.5521 15.18 31.8721 14.44 35.4621C15.05 35.4521 16.35 34.1521 14.37 34.5021L14.44 34.4621ZM14.44 35.4621C17.23 34.2821 13.97 34.6021 13.44 34.3421C14.38 32.1721 14.44 34.6121 14.35 35.5121L14.44 35.4621ZM13.44 34.3921C13.57 33.7521 13.75 33.5021 13.44 34.2821C13.29 34.7721 16.04 33.9221 15.35 34.8121C14.97 35.3921 15.41 34.8121 15.44 34.5221C15.64 34.2721 13.41 34.5121 13.39 34.4421L13.44 34.3921ZM14.44 35.3921C16.91 34.3921 14.28 34.3221 13.44 34.3021C14.35 32.1421 14.49 34.5421 14.38 35.4721L14.44 35.3921ZM15.5 34.3021C15.5 35.9021 14.18 33.7321 13.8 33.5621C12.49 34.9521 15 34.1921 15.44 34.3821L15.5 34.3021ZM13.72 33.7421C13.27 34.1921 14.11 33.3221 14.4 33.4721V35.4721C16.13 35.4321 14.09 34.5621 13.66 33.8221L13.72 33.7421ZM15.11 35.1821C14.6812 34.6665 14.2095 34.1881 13.7 33.7521C13.58 33.8421 15.06 35.2521 15.05 35.2621L15.11 35.1821ZM13.45 34.3921C13.26 32.5121 14.94 35.2321 15.15 35.1221C16.34 33.9421 13.81 34.6721 13.39 34.4721L13.45 34.3921ZM14.45 34.3921C15.97 34.3121 15.45 34.3921 15.17 35.0721L13.76 33.6521C13.37 34.4421 12.83 34.5921 14.38 34.5021L14.45 34.3921ZM15.45 34.3921C15.45 35.9921 14.13 33.8221 13.75 33.6521C12.47 35.0321 15 34.2621 15.41 34.4521L15.45 34.3921ZM13.56 34.0521C12.84 33.9421 15.64 34.0521 15.56 34.3221C16.09 33.8821 13.71 34.1921 13.52 34.1121L13.56 34.0521ZM15.25 34.8221C16.48 33.5621 14.02 34.2021 13.56 34.0521C13.54 32.4521 14.81 34.8021 15.21 34.8821L15.25 34.8221ZM14.5 34.2621C17.23 34.4721 14.05 34.4821 13.62 33.7721C13.45 34.4821 13.07 34.2921 14.46 34.3221L14.5 34.2621ZM14.2 33.6621V35.6621V33.6621ZM14.2 35.6621V33.6621V35.6621ZM13.49 34.0321C13.9381 34.5269 14.4121 34.9976 14.91 35.4421L13.49 34.0321ZM15.19 34.7521C14.31 37.1821 14.19 34.2621 14.08 33.7521C11.86 34.7021 14.25 34.8221 15.19 34.7221V34.7521ZM13.57 33.9821C13.01 34.0521 15.79 33.8121 15.52 34.3321C16.07 33.6221 13.71 34.0821 13.57 33.9521V33.9821ZM15.57 34.0421C15.57 35.6321 14.25 33.4321 13.88 33.2821C12.65 34.4821 15.1 33.8721 15.56 34.0321L15.57 34.0421ZM14.1 35.7321V33.7321V35.7321ZM14.1 33.7321V35.7321V33.7321ZM13.6 33.8621C12.99 33.5221 15.05 35.6721 15.18 35.0621C15.18 35.7821 13.8 33.8721 13.63 33.8621H13.6ZM15.28 34.6121C15.28 36.2521 13.98 34.0021 13.6 33.8621C12.34 35.1521 14.89 34.4021 15.31 34.6121H15.28ZM13.49 33.9721C13.9355 34.4693 14.4097 34.9401 14.91 35.3821L13.49 33.9721ZM14.18 34.6921C14.02 37.1721 16.91 33.9121 13.18 34.6921C13.3 34.0321 14.55 32.7321 14.21 34.6921H14.18ZM14.95 35.3621C15.4 34.8921 14.57 35.7721 14.27 35.6221V33.6221C12.5 33.7421 14.55 34.6121 15 35.3621H14.95ZM13.52 33.9421C13.9873 34.4419 14.4813 34.916 15 35.3621L13.52 33.9421ZM14.21 34.6621C14.04 37.1421 16.94 33.8921 13.21 34.6621C13.33 33.9621 14.58 32.7021 14.24 34.6621H14.21ZM13.55 34.0321C12.87 34.0821 15.81 33.8821 15.5 34.3521C16 33.7221 13.66 34.1621 13.55 34.0321ZM15.55 34.0821C16.13 34.1621 13.28 34.2021 13.64 33.6721C13 34.4721 15.35 33.9521 15.53 34.0921L15.55 34.0821ZM13.71 33.1721C13.23 33.4621 15.79 33.1721 15.71 33.3821C16 32.9421 13.74 33.2721 13.69 33.1821L13.71 33.1721ZM15.71 33.3121C15.9 33.5921 13.78 32.8821 13.71 32.9321C13.18 33.7121 15.5 33.1621 15.67 33.3221L15.71 33.3121ZM13.71 33.3121C13.23 33.6121 15.8 33.3121 15.71 33.5321C16 33.1121 13.73 33.4421 13.67 33.3421L13.71 33.3121ZM15.71 33.4521C15.89 33.7421 13.78 33.0221 13.71 33.0721C13.16 33.8821 15.49 33.3321 15.66 33.4821L15.71 33.4521ZM13.71 33.6321C13.44 33.0921 15.55 34.1621 15.63 34.0721C16.2 33.2721 13.84 33.8121 13.63 33.6621L13.71 33.6321ZM15.63 34.0721C16.14 33.9521 13.52 33.0721 13.71 33.5321C13.5 33.3021 15.53 34.1521 15.55 34.1021L15.63 34.0721ZM13.7 32.8321C13.44 33.0721 15.96 33.0721 15.7 32.8321H13.7ZM15.7 32.9821C15.96 32.7421 13.44 32.7421 13.7 32.9821H15.7ZM13.7 32.6521V32.7821C14.3661 32.8224 15.0339 32.8224 15.7 32.7821V32.6421C15.7 32.6421 13.7 32.6721 13.7 32.6521ZM15.7 32.8221V32.6921C15.0339 32.6518 14.3661 32.6518 13.7 32.6921V32.8321C13.7 32.8321 15.7 32.8021 15.7 32.8221ZM13.7 33.0121C13.5 32.7621 15.62 33.4421 15.7 33.4121C16.19 32.6121 13.87 33.1721 13.69 33.0321L13.7 33.0121ZM15.63 33.4821C16.27 32.6321 13.87 33.1121 13.7 33.0421C13.47 32.5321 15.55 33.5521 15.62 33.4821H15.63ZM14.14 35.7321V33.7321V35.7321ZM14.14 35.7321V33.7321V35.7321ZM14.14 34.7321C13.97 37.2121 16.86 33.9621 13.14 34.7321C13.27 34.0321 14.52 32.7721 14.19 34.7321H14.14ZM14.14 34.7321C13.98 37.2021 16.86 33.9521 13.14 34.7321C13.29 34.0321 14.54 32.7521 14.2 34.7221L14.14 34.7321ZM14.86 35.4221C14.4342 34.9359 13.9836 34.4719 13.51 34.0321L14.86 35.4221ZM14.17 34.7021C13.84 36.7021 15.12 35.3821 15.17 34.7021C11.67 35.4321 14.29 32.2421 14.23 34.6921L14.17 34.7021ZM14.89 35.3921C14.4419 34.8974 13.9679 34.4267 13.47 33.9821L14.89 35.3921ZM14.89 35.3921C14.4454 34.8942 13.9748 34.4202 13.48 33.9721L14.89 35.3921ZM14.23 34.6421C12.38 33.0721 15.45 33.5521 15.23 34.6421H13.23C13 35.6421 16.17 36.2421 14.3 34.6221L14.23 34.6421ZM14.93 35.3321C15.53 35.7121 13.44 33.4521 13.36 34.1421C13.49 33.3921 14.86 35.3421 15 35.3121L14.93 35.3321ZM14.25 34.5921C16.71 34.5221 13.51 37.1321 14.25 33.5921C13.64 33.6221 12.34 34.8921 14.32 34.5721L14.25 34.5921ZM14.98 35.2821C15.42 34.8321 14.59 35.6921 14.3 35.5421V33.5421C12.58 33.6421 14.62 34.5221 15.05 35.2621L14.98 35.2821ZM14.3 34.5421C16.3 34.1421 15 35.4721 14.3 35.5421C15.14 31.6021 11.87 34.8721 14.37 34.5221L14.3 34.5421ZM15.3 34.5421C15.5 36.4221 13.81 33.7021 13.61 33.8121C12.44 35.0321 15 34.3121 15.38 34.5121L15.3 34.5421ZM15.3 34.5421C15.18 35.1821 15 35.4321 15.3 34.6521C15.45 34.1621 12.7 35.0121 13.39 34.1221C13.5 33.9121 13.67 33.7121 13.39 34.0221C12.71 34.9021 15.14 34.3421 15.39 34.4821L15.3 34.5421ZM15.3 34.4721C15.3 36.1221 14.02 33.9121 13.61 33.7421C12.51 34.8821 15 34.2621 15.42 34.4121L15.3 34.4721ZM15.3 34.4021C15.3 36.0521 14.02 33.8421 13.61 33.6721C12.53 34.8121 15 34.1921 15.45 34.3421L15.3 34.4021ZM14.3 34.3321C16.76 34.2021 13.56 36.9621 14.3 33.3321C13.79 33.3221 12.49 34.6321 14.48 34.2721L14.3 34.3321ZM15.21 34.7721C15.65 34.7721 13.28 33.5721 13.38 33.9721C13.47 33.6021 15.35 34.7521 15.39 34.7121L15.21 34.7721ZM15.34 34.2521C16.09 34.1121 13.12 34.4721 13.39 33.9121C13 34.4921 15.36 34.0321 15.52 34.1821L15.34 34.2521ZM15.34 34.1821C15.34 35.8321 14.06 33.6221 13.65 33.4421C12.62 34.5821 15.1 33.9621 15.53 34.1121L15.34 34.1821ZM15.34 34.1821C15.9 34.1221 13.12 34.3521 13.34 33.8421C13.05 34.4221 15.42 33.9521 15.55 34.0821L15.34 34.1821ZM15.34 34.1221C14.18 37.0421 14.84 32.3021 13.73 33.3121C12.55 34.4921 15.06 33.8921 15.56 34.0321L15.34 34.1221ZM15.34 34.1221C15.344 34.2417 15.3236 34.3608 15.28 34.4721C15.98 33.4721 13.06 34.4721 13.38 33.8521C13 34.0321 15.28 34.0321 15.57 34.0321L15.34 34.1221ZM15.29 34.3521C15.79 34.2321 13.17 33.3521 13.37 33.8121C13.48 33.4321 15.51 34.2721 15.54 34.2321L15.29 34.3521ZM15.37 33.9121H13.37H15.37ZM15.31 34.2121C15.82 34.0921 13.2 33.2121 13.39 33.6721C13.51 33.2921 15.54 34.1321 15.56 34.0921L15.31 34.2121ZM15.39 33.7721H13.39H15.39ZM15.34 34.0721C15.98 33.1921 13.58 33.7521 13.41 33.6421C13.43 33.0321 15.52 34.0321 15.59 33.9521L15.34 34.0721ZM15.41 33.6221H13.41C13.41 33.6221 15.66 33.4921 15.66 33.5021L15.41 33.6221ZM15.41 33.6221C15.89 33.3221 13.32 33.6221 13.41 33.4121C13.32 33.7021 15.6 33.3721 15.66 33.4721L15.41 33.6221ZM15.41 33.4821H13.41H15.41ZM15.41 33.4821C15.89 33.1821 13.33 33.4821 13.41 33.2721C13.33 33.5421 15.61 33.2121 15.67 33.3021L15.41 33.4821ZM14.41 33.3421C11.65 32.9421 15.66 31.5521 15.41 33.3421C15.19 33.4921 12.77 32.9221 13.52 33.8121C14.1 34.8321 17.22 33.4021 14.69 33.1621L14.41 33.3421ZM15.41 33.3421C15.6 33.5921 13.48 32.9121 13.41 32.9521C13.18 33.5521 15.5 33.0321 15.69 33.1521L15.41 33.3421ZM15.41 33.1921C15.67 32.9521 13.15 32.9521 13.41 33.1921H15.41ZM15.41 33.0421C14.7441 32.9971 14.0759 32.9971 13.41 33.0421C13.41 33.0421 15.7 32.8121 15.7 32.8221L15.41 33.0421ZM15.41 33.0421V32.9121C14.7441 32.8669 14.0759 32.8669 13.41 32.9121V33.0421C13.41 33.0421 15.7 32.7821 15.7 32.7921L15.41 33.0421ZM15.41 32.8721C15.73 30.6221 13.41 28.2121 13.8 31.7921C12.6 31.3521 14.34 33.1821 15.7 32.6221L15.41 32.8721ZM13.8 29.7921C10.31 30.6421 13.68 35.2921 14.34 31.6821C14.05 32.0921 14 30.2221 14.09 29.5421L13.8 29.7921ZM12.2 32.8721C11.87 35.1221 14.2 37.5421 13.8 33.9521C15.6 33.9221 13.86 32.0321 12.49 32.6221L12.2 32.8721ZM12.9 35.4021C14.21 37.1721 13.77 34.6521 13.9 33.9821C16.18 34.1121 13.66 34.8021 13.19 35.1521L12.9 35.4021ZM13.9 33.9821V35.9821V33.9821V35.9821V33.9821ZM33.2 32.2221V8.63213C30 5.29213 30 35.5521 33.2 32.2221ZM28 8.25213C27.24 9.19213 6.37 6.00213 9.21 10.2521C10 9.31213 30.88 12.5021 28 8.25213ZM7 10.5021V34.0821C10.16 37.4221 10.17 7.17213 7 10.5021ZM12.16 34.5021C12.92 33.5621 33.79 36.7521 30.96 32.5021C30.19 33.4121 9.32 30.2221 12.16 34.4721V34.5021ZM35.81 30.1721C35.12 31.1721 11.69 27.8821 14.66 32.1721C15.35 31.1821 38.78 34.4521 35.81 30.1421V30.1721Z" fill="#001E26"/>
<path d="M28 8.64209C27.86 10.4821 27.9 11.5621 30.08 11.1221C30.86 9.03209 28.55 9.29209 28 8.64209Z" fill="white"/>
<path d="M10.0899 33.4721C11.2499 33.4721 12.1699 33.7521 12.1699 34.0821C13.0699 31.2821 9.54987 30.2621 10.0899 33.4721Z" fill="#C6C6C6"/>
<path d="M32.2202 8.63213C32.2902 7.86213 27.9802 7.86213 28.0602 8.63213C27.9802 9.40213 32.3002 9.42213 32.2202 8.63213Z" fill="#8C8C8C"/>
<path d="M10.0899 33.4721C7.39992 33.4721 7.40992 34.7021 10.0899 34.6821C12.7699 34.6621 12.7899 33.4421 10.0899 33.4721Z" fill="#8C8C8C"/>
<path d="M9.73024 10.4321C6.77024 3.52212 8.33024 32.9721 8.00024 34.0821C10.5702 27.5321 8.00024 17.8821 9.73024 10.4321Z" fill="#E8E8E8"/>
<path d="M32.2202 9.25208V8.63208C28.5202 37.0821 33.5602 41.3321 32.2202 9.25208Z" fill="#C6C6C6"/>
<path fill-rule="evenodd" clip-rule="evenodd" d="M27.4829 9.59729C28.1583 9.30435 28.8806 9.11045 29.6597 9.0321C29.721 9.23851 29.782 9.44569 29.8425 9.65353C30.8082 9.672 31.8168 9.68554 32.8701 9.69213C33.0467 24.735 33.9011 30.5702 31.4564 32.8192C28.9151 35.1572 22.8088 33.62 8.67015 34.5221C8.68524 19.2425 7.52837 13.0071 10.0389 10.6058C12.181 8.55687 16.9935 9.29966 27.4829 9.59729Z" fill="#E8E8E8"/>
<path d="M10.1708 9.0321C1.21943 43.7968 22.4225 35.3084 29 9.0321C29 9.0321 10.1477 9.07267 10.1708 9.0321Z" fill="white"/>
<path d="M30.9998 32.3621C30.8398 33.0421 31.7298 32.5921 31.6498 32.1221C32.1198 27.5321 31.9998 28.5621 30.9998 32.3621Z" fill="#E8E8E8"/>
<path d="M9.37009 9.94209C9.54009 9.27209 8.65009 9.71209 8.72009 10.1821C8.23009 14.7721 8.35009 13.7421 9.37009 9.94209Z" fill="white"/>
<path d="M36.2298 35.8421C31.4698 31.0521 21.1398 35.4121 14.3398 32.4221C15.2498 39.8721 29.6398 33.5121 36.2298 35.8421Z" fill="#C6C6C6"/>
<path d="M14.8898 35.8121C13.8898 38.0821 36.0398 36.7621 36.7098 37.0921C30.8898 33.4821 22.3598 36.3921 14.8898 35.8121Z" fill="white"/>
<path d="M35 33.6221C35.0889 33.6082 35.1761 33.5848 35.26 33.5521L35 33.6221Z" fill="#CCBE8F"/>
<path d="M35.53 35.1921H35.63C35.63 35.1921 35.43 35.2021 35.53 35.1921Z" fill="#CCBE8F"/>
<path d="M35.2598 33.5421L35.5198 33.4621L35.2598 33.5421Z" fill="#CCBE8F"/>
<path d="M35.52 33.4621L35.67 33.4021C35.6234 33.4298 35.5728 33.45 35.52 33.4621V33.4621Z" fill="#CCBE8F"/>
<path d="M35.7002 33.4021L36.1402 33.2121L35.7002 33.4021Z" fill="#CCBE8F"/>
<path d="M31.25 34.5121C32.51 34.6121 35.09 35.3021 35.73 34.0521C34.51 33.9321 32.66 34.8221 31.25 34.5121Z" fill="white"/>
<path d="M15.1202 34.7921C15.1202 34.7921 15.1002 34.8021 15.1202 34.7921V34.7921Z" fill="#EFE2BD"/>
<path d="M15.0899 34.8621C15.0899 34.8621 15.0699 34.8721 15.0899 34.8621V34.8621Z" fill="#EFE2BD"/>
<path d="M15.17 34.6321C15.17 34.6321 15.17 34.6321 15.17 34.7021C15.17 34.7721 15.16 34.6621 15.17 34.6321Z" fill="#EFE2BD"/>
<path d="M15.24 34.4021C15.24 34.4021 15.24 34.4021 15.24 34.4521C15.2338 34.436 15.2338 34.4182 15.24 34.4021V34.4021Z" fill="#EFE2BD"/>
<path d="M15.3499 33.6221C15.3499 33.6221 15.3499 33.7221 15.3499 33.7621C15.3456 33.7156 15.3456 33.6687 15.3499 33.6221Z" fill="#FFF4D2"/>
<path d="M15.3398 33.7921C15.3398 33.7921 15.3398 33.8821 15.3398 33.9321C15.3301 33.886 15.3301 33.8383 15.3398 33.7921Z" fill="#FFF4D2"/>
<path d="M15.27 34.2521C15.2655 34.2919 15.2655 34.3322 15.27 34.3721C15.2655 34.3322 15.2655 34.2919 15.27 34.2521V34.2521Z" fill="#FFF4D2"/>
<path d="M15.2998 34.1121C15.3043 34.152 15.3043 34.1922 15.2998 34.2321C15.2953 34.1922 15.2953 34.152 15.2998 34.1121V34.1121Z" fill="#FFF4D2"/>
<path d="M15.3501 33.4521C15.3551 33.5053 15.3551 33.5589 15.3501 33.6121C15.3557 33.5589 15.3557 33.5053 15.3501 33.4521Z" fill="#FFF4D2"/>
<path d="M14.8098 35.1821C15.1198 35.0221 15.1998 34.5721 15.2798 34.2321C15.9098 27.8321 12.6698 33.2321 14.8098 35.1821Z" fill="#8C8C8C"/>
<path d="M14.5202 34.5521C14.1402 31.0621 15.0602 33.6921 14.5202 34.3421Z" fill="#C6C6C6"/>
<path d="M19.9402 15.2821C19.7802 15.3421 19.5702 15.3421 19.4702 15.3921C19.6502 15.3821 19.9202 15.3421 19.9402 15.2821Z" fill="#4C4C4C"/>
<path d="M19.6901 15.3121C19.5901 15.3921 19.8101 15.3121 19.8201 15.3121H19.6901Z" fill="#4C4C4C"/>
<path d="M19.5801 15.3121C19.6633 15.3178 19.7468 15.3178 19.8301 15.3121H19.5801Z" fill="#4C4C4C"/>
<path d="M20.5198 15.2321C20.2198 15.2321 20.4098 15.1721 20.0098 15.3021C20.1798 15.2821 20.5098 15.2921 20.5198 15.2321Z" fill="#4C4C4C"/>
<path d="M29.5 19.0321C29.5 19.0321 29.51 19.0821 29.5 19.0321V19.0321Z" fill="#4C4C4C"/>
<path d="M29.54 21.9721C29.54 21.9721 29.54 22.0521 29.54 22.0821C29.5498 22.0461 29.5498 22.0081 29.54 21.9721V21.9721Z" fill="#4C4C4C"/>
<path d="M28.5602 17.5221L28.4902 17.4321C28.5048 17.468 28.529 17.4992 28.5602 17.5221V17.5221Z" fill="#4C4C4C"/>
<path d="M27.9999 24.8421L27.9199 24.9421C27.9517 24.9132 27.9787 24.8794 27.9999 24.8421V24.8421Z" fill="#4C4C4C"/>
<path d="M27.77 16.8421C27.77 16.8421 27.78 16.8521 27.77 16.8421V16.8421Z" fill="#4C4C4C"/>
<path d="M29.76 21.0321C29.76 21.0321 29.76 21.1021 29.76 21.1421C29.7545 21.1056 29.7545 21.0686 29.76 21.0321V21.0321Z" fill="#4C4C4C"/>
<path d="M23.1299 15.3021H23.2599C23.2181 15.2859 23.1717 15.2859 23.1299 15.3021V15.3021Z" fill="#4C4C4C"/>
<path d="M23.2598 15.3021C23.4098 15.3921 23.4898 15.3021 23.6898 15.3521C23.5496 15.3146 23.4048 15.2978 23.2598 15.3021Z" fill="#4C4C4C"/>
<path d="M29.1099 18.2521V18.3421C29.1099 18.3421 29.1399 18.2821 29.1099 18.2521Z" fill="#4C4C4C"/>
<path d="M29.19 18.4121V18.3421C29.19 18.3421 29.18 18.3821 29.19 18.4121Z" fill="#4C4C4C"/>
<path d="M14.1299 18.6321C13.9299 18.8421 14.0799 18.7521 14.1999 18.6321C14.1199 18.6321 14.0599 18.6521 14.1299 18.6321Z" fill="#4C4C4C"/>
<path d="M17.6702 27.8621C17.6702 27.8621 17.6002 27.8621 17.4702 27.9121C17.6402 27.9621 17.5002 27.8721 17.6702 27.8621Z" fill="#4C4C4C"/>
<path d="M17.5801 27.9221H17.6801C17.6477 27.9107 17.6124 27.9107 17.5801 27.9221V27.9221Z" fill="#4C4C4C"/>
<path d="M13.0002 20.4421C12.998 20.4654 12.998 20.4888 13.0002 20.5121C13.0002 20.5121 13.0002 20.4621 13.0002 20.4421Z" fill="#4C4C4C"/>
<path d="M14.1402 26.8021C14.2102 26.8021 14.1402 26.8021 14.0302 26.6721C13.9202 26.5421 14.1002 26.7421 14.1402 26.8021Z" fill="#4C4C4C"/>
<path d="M12.4 24.1621C12.4036 24.1543 12.4055 24.1457 12.4055 24.1371C12.4055 24.1285 12.4036 24.12 12.4 24.1121C12.4 24.1121 12.38 24.1321 12.4 24.1621Z" fill="#4C4C4C"/>
<path d="M18.1899 28.0321H18.5799C18.4501 28.0218 18.3197 28.0218 18.1899 28.0321Z" fill="#4C4C4C"/>
<path d="M15.6398 27.7121C26.9998 31.2421 30.9998 20.3921 29.4598 19.1021C27.9298 15.6421 25.0798 15.6221 22.7898 15.1021C22.6298 15.3121 21.1298 14.9121 20.4798 15.2421C20.6898 15.3521 22.1698 15.0021 21.8198 15.1621C21.0798 15.1621 21.6198 15.1621 21.9498 15.1621C35.9998 16.6621 27.1198 28.9421 19.6398 28.0321C20.3298 28.0321 16.8998 27.9321 18.6398 28.1421C18.8098 28.2621 17.8498 28.1421 17.6398 28.0321C9.89979 26.7521 11.6398 16.9421 19.4698 15.4821C15.0098 15.4021 11.5398 21.1821 12.1598 22.7921C12.1832 23.5146 12.353 24.2248 12.659 24.8797C12.9649 25.5346 13.4007 26.1206 13.9398 26.6021C14.4061 27.1068 14.9901 27.4882 15.6398 27.7121V27.7121ZM26.6398 16.1421C26.6098 16.1421 26.5698 16.1321 26.6598 16.1421H26.6398ZM28.1898 17.1421C27.7698 16.7321 28.5498 17.5121 28.4398 17.3521C28.8098 17.8521 28.1998 17.1521 28.2098 17.1821L28.1898 17.1421ZM25.4398 15.7921H25.5098C25.5098 15.7921 25.4998 15.8421 25.4598 15.8321L25.4398 15.7921ZM27.3698 16.7921C27.4269 16.8512 27.4948 16.8987 27.5698 16.9321C27.5057 16.9026 27.4453 16.8657 27.3898 16.8221L27.3698 16.7921ZM23.9098 27.1921C24.1598 27.0421 23.8398 27.1921 23.7698 27.1921H23.9098ZM17.5598 28.0321C17.6898 27.9721 17.5598 27.9521 17.4598 27.9421C17.3598 27.9321 17.3098 28.0321 17.5598 28.0321Z" fill="#4C4C4C"/>
<path d="M17.46 27.9321L17.58 27.9821C17.58 27.9821 17.54 27.9521 17.46 27.9321Z" fill="#4C4C4C"/>
<path d="M20.87 15.0321C21.03 15.0321 20.87 15.0321 20.82 15.0321C20 15.2321 21.51 15.0321 20.87 15.0321Z" fill="#4C4C4C"/>
<path d="M21 15.2321C21 15.2321 21.1 15.2821 21.14 15.2321H21Z" fill="#4C4C4C"/>
<path d="M23.4898 15.4221H23.2998C23.2998 15.4221 23.5098 15.4421 23.4898 15.4221Z" fill="#4C4C4C"/>
<path d="M22.6302 15.0321C22.3702 15.0321 22.7602 15.0921 22.7702 15.0321C22.7802 14.9721 22.7402 15.0321 22.6302 15.0321Z" fill="#4C4C4C"/>
<path d="M24 15.5321C24.07 15.5321 24.2 15.5921 24.24 15.5821C24.28 15.5721 24.05 15.5121 24 15.5321Z" fill="#4C4C4C"/>
<path d="M24.0002 15.2021C23.904 15.1648 23.803 15.1412 23.7002 15.1321C23.7971 15.167 23.8978 15.1904 24.0002 15.2021V15.2021Z" fill="#4C4C4C"/>
<path d="M25.1 15.7121C24.9677 15.6927 24.8373 15.6626 24.71 15.6221C24.9 15.7021 25.2 15.8521 25.1 15.7121Z" fill="#4C4C4C"/>
<path d="M24.2599 15.2621C24.1099 15.1921 23.7699 15.1221 24.1699 15.2621C24.1299 15.2921 24.1199 15.2421 24.2599 15.2621Z" fill="#4C4C4C"/>
<path d="M25.6302 16.0321C25.4802 15.9673 25.3221 15.9235 25.1602 15.9021L25.6302 16.0321Z" fill="#4C4C4C"/>
<path d="M24.7699 15.4421C24.7699 15.3721 24.7699 15.4421 24.7699 15.4421C24.6199 15.3621 24.6299 15.4021 24.7699 15.4421Z" fill="#4C4C4C"/>
<path d="M25.26 15.5521C25.41 15.5521 25.51 15.6421 25.32 15.5521C25.13 15.4621 25.3 15.5221 25.26 15.5521Z" fill="#4C4C4C"/>
<path d="M25.48 15.6621C25.57 15.6621 25.68 15.6621 25.78 15.7321C25.6855 15.6893 25.5836 15.6655 25.48 15.6621V15.6621Z" fill="#4C4C4C"/>
<path d="M28.3202 17.6321C28.3202 17.6321 28.2502 17.5021 28.3202 17.5721C28.3902 17.6421 28.4002 17.7321 28.3202 17.6321Z" fill="#4C4C4C"/>
<path d="M28 16.9321C28.1203 17.04 28.2472 17.1402 28.38 17.2321C28.28 17.1421 28 16.9121 28 16.9321Z" fill="#4C4C4C"/>
<path d="M29.6098 21.9621C29.7098 21.5021 29.6098 21.8221 29.6098 22.0821C29.5998 22.0321 29.6198 21.9621 29.6098 21.9621Z" fill="#4C4C4C"/>
<path d="M29.1899 23.0821C29.1899 23.0221 29.2499 22.9421 29.1899 22.9521C29.1299 22.9621 29.1699 23.1121 29.1899 23.0821Z" fill="#4C4C4C"/>
<path d="M22.9999 27.3821C22.8899 27.3821 22.8299 27.3821 22.8699 27.4521C22.9099 27.5221 22.9399 27.4121 22.9999 27.3821Z" fill="#4C4C4C"/>
<path d="M22 27.6321H22.05C22 27.6221 22 27.6321 22 27.6321Z" fill="#4C4C4C"/>
<path d="M21.7998 27.6721H21.9998C21.9998 27.6321 21.9198 27.6221 21.7998 27.6721Z" fill="#4C4C4C"/>
<path d="M21.3198 27.7721C21.0618 27.7918 20.8086 27.8525 20.5698 27.9521C20.9998 27.9021 20.9198 27.8221 21.3198 27.7721Z" fill="#4C4C4C"/>
<path d="M21.4 27.8221C21.4 27.8221 21.24 27.8221 21.21 27.8221C21.2721 27.8396 21.3378 27.8396 21.4 27.8221V27.8221Z" fill="#4C4C4C"/>
<path d="M20.1402 27.9121H20.2502C20.2502 27.9121 20.0002 27.8921 20.1402 27.9121Z" fill="#4C4C4C"/>
<path d="M19.51 27.8921C19.4 27.8921 19.3 27.9521 19.51 27.8921C19.51 27.9421 19.36 27.8821 19.51 27.8921Z" fill="#4C4C4C"/>
<path d="M18.08 27.8921C18.15 27.8921 18.25 27.8921 18.24 27.8921C18.23 27.8921 17.9 27.8621 18.08 27.8921Z" fill="#4C4C4C"/>
<path d="M18.1001 28.0321C18.2093 28.0504 18.3209 28.0504 18.4301 28.0321C18.3203 28.0407 18.2099 28.0407 18.1001 28.0321V28.0321Z" fill="#4C4C4C"/>
<path d="M17.8599 27.8121C17.9257 27.7974 17.994 27.7974 18.0599 27.8121C17.9946 27.7926 17.9251 27.7926 17.8599 27.8121V27.8121Z" fill="#4C4C4C"/>
<path d="M17.54 27.7721C17.41 27.7021 17.15 27.6021 17.17 27.7721C17.51 27.8021 18 27.7921 17.54 27.7721Z" fill="#4C4C4C"/>
<path d="M18.0002 27.9521C17.8902 27.9021 17.9002 27.9521 17.7402 27.9521C17.7502 28.0321 17.9002 27.9521 18.0002 27.9521Z" fill="#4C4C4C"/>
<path d="M16.3098 27.4921L16.0698 27.4221L16.3098 27.4921Z" fill="#4C4C4C"/>
<path d="M16.17 27.4221C16.17 27.4221 16.04 27.4221 15.98 27.3721L16.17 27.4221Z" fill="#4C4C4C"/>
<path d="M15.9199 27.3221C15.9199 27.3221 16.0699 27.3721 16.0899 27.3821L15.9199 27.3221Z" fill="#4C4C4C"/>
<path d="M15.4302 27.0921C15.4302 27.1521 15.6302 27.2221 15.6302 27.2021C15.5567 27.1796 15.4886 27.1421 15.4302 27.0921Z" fill="#4C4C4C"/>
<path d="M13.7 26.4121C13.79 26.4121 13.7 26.3421 13.63 26.3521C13.56 26.3621 13.69 26.3921 13.7 26.4121Z" fill="#4C4C4C"/>
<path d="M13.5098 26.1321C13.2098 25.8821 13.5098 26.1921 13.6898 26.3321C13.6256 26.2694 13.5655 26.2026 13.5098 26.1321V26.1321Z" fill="#4C4C4C"/>
<path d="M12.1998 22.4021C12.1998 22.6721 12.2498 21.8921 12.1998 21.8721C12.1893 22.0486 12.1893 22.2256 12.1998 22.4021Z" fill="#4C4C4C"/>
<path d="M18.9298 15.5521C18.9298 15.5521 18.8998 15.5621 18.9298 15.5521V15.5521Z" fill="#4C4C4C"/>
<path d="M28.3999 17.1321C28.3999 17.1321 28.3999 17.2121 28.3999 17.2421C28.3999 17.2721 28.4299 17.1421 28.3999 17.1321Z" fill="#4C4C4C"/>
<path d="M28.43 17.0321C28.43 17.1121 28.4299 17.0321 28.3799 17.0821C28.3299 17.1321 28.49 17.0321 28.43 17.0321Z" fill="#4C4C4C"/>
<path d="M28.5299 16.4221C28.5299 16.4221 28.5099 16.4121 28.5299 16.4221V16.4221Z" fill="#4C4C4C"/>
<path d="M28.53 16.3921C28.6 16.3921 28.53 16.3921 28.53 16.3021C28.53 16.2121 28.49 16.3821 28.53 16.3921Z" fill="#4C4C4C"/>
<path d="M26.7398 13.0321C26.7398 12.9821 26.7398 13.0321 26.7398 13.0321C26.7398 13.0321 26.7198 13.0321 26.7398 13.0321Z" fill="#4C4C4C"/>
<path d="M27.29 12.2121H27.38C27.3661 12.2051 27.3507 12.2014 27.335 12.2014C27.3194 12.2014 27.304 12.2051 27.29 12.2121V12.2121Z" fill="#4C4C4C"/>
<path d="M26.9999 12.7721C28.6299 11.0121 28.2399 14.6121 28.4199 14.2021C28.4899 14.4721 28.4199 14.5321 28.3399 14.2021C28.2799 14.4321 28.4699 14.4521 28.4699 14.4821C28.4699 14.5121 28.3499 14.6121 28.4699 14.7021C28.5899 14.7921 28.3599 15.0521 28.4699 15.2521C28.4699 15.2521 28.4699 15.3821 28.4699 15.4121C28.3999 15.9721 28.4699 16.2521 28.3999 16.4121C28.3299 16.5721 28.3999 16.5421 28.3999 16.6721C28.3999 16.6021 28.4799 16.8221 28.4899 16.6721C28.4899 16.9321 28.4899 16.5821 28.6099 16.3321C28.5199 15.8921 28.8199 15.8521 28.7899 15.2021C29.5799 11.0321 28.0399 11.3421 26.5099 12.6821C25.5099 13.5121 24.9099 14.2721 24.5599 14.5521C24.5599 14.7421 24.1099 15.1521 24.2399 15.0521C24.895 14.7126 25.463 14.2267 25.8999 13.6321C26.0199 13.5621 26.7599 13.2821 26.6499 13.0421C26.8699 13.0321 26.9999 13.0321 26.9999 12.7721ZM28.3599 15.2021C28.3599 15.3221 28.3599 15.0921 28.3599 15.1021C28.3599 15.1121 28.4299 15.2121 28.4399 15.2021H28.3599ZM28.5599 15.4121C28.5599 15.4121 28.5599 15.4121 28.5599 15.3521C28.5926 15.3623 28.6209 15.3835 28.6399 15.4121H28.5599ZM28.4299 12.3321C28.4299 12.3321 28.4899 12.3321 28.4299 12.3321C28.3699 12.3321 28.5099 12.3321 28.5099 12.3321H28.4299ZM27.1399 12.3321C27.1399 12.3321 27.1399 12.3321 27.1399 12.2821C27.1399 12.2321 27.1999 12.4021 27.2199 12.3421L27.1399 12.3321Z" fill="#4C4C4C"/>
<path d="M27.1699 12.3221C27.1699 12.3221 27.1999 12.3021 27.1699 12.3221V12.3221Z" fill="#4C4C4C"/>
<path d="M28.3101 16.9121C28.3601 17.1221 28.3501 16.7921 28.3101 16.9121V16.9121Z" fill="#4C4C4C"/>
<path d="M28.63 16.2321C28.63 16.2321 28.63 16.2321 28.63 16.1721C28.63 16.1121 28.6 16.2321 28.63 16.2321Z" fill="#4C4C4C"/>
<path d="M28.3198 16.2321C28.3198 16.2321 28.3198 16.2321 28.3198 16.3021C28.3198 16.3721 28.3498 16.2421 28.3198 16.2321Z" fill="#4C4C4C"/>
<path d="M28.3201 16.1621C28.2601 16.2821 28.3201 16.1621 28.3201 16.1621C28.3201 16.1621 28.3201 16.2021 28.3201 16.1621Z" fill="#4C4C4C"/>
<path d="M28.6401 15.8521C28.6401 15.8521 28.6401 15.9421 28.6401 15.9621C28.6472 15.9258 28.6472 15.8884 28.6401 15.8521Z" fill="#4C4C4C"/>
<path d="M28.39 16.0321C28.39 16.0321 28.31 16.0321 28.39 16.0321C28.47 16.0321 28.38 16.0821 28.39 16.0321Z" fill="#4C4C4C"/>
<path d="M28.3502 15.9421C28.3502 15.8921 28.3502 15.9421 28.2902 15.9421C28.2302 15.9421 28.3202 15.9221 28.3502 15.9421Z" fill="#4C4C4C"/>
<path d="M28.3901 15.8821V15.8121C28.3817 15.8347 28.3817 15.8596 28.3901 15.8821V15.8821Z" fill="#4C4C4C"/>
<path d="M28.71 15.1521C28.71 15.1521 28.72 15.1221 28.71 15.1521V15.1521Z" fill="#4C4C4C"/>
<path d="M28.3898 15.2621C28.3996 15.2261 28.3996 15.1881 28.3898 15.1521C28.3898 15.1521 28.3598 15.2721 28.3898 15.2621Z" fill="#4C4C4C"/>
<path d="M28.3801 14.0821C28.3801 14.0821 28.3401 14.0321 28.3801 14.0821V14.0821Z" fill="#4C4C4C"/>
<path d="M28.3901 13.8421C28.3901 13.8421 28.4001 13.8321 28.3901 13.8421V13.8421Z" fill="#4C4C4C"/>
<path d="M28.1699 11.8021C28.2299 11.8821 28.1799 11.8521 28.1699 11.8021V11.8021Z" fill="#4C4C4C"/>
<path d="M28 11.7721C27.83 11.7721 27.88 11.7721 27.79 11.8921C27.93 11.8621 27.89 11.7821 28 11.7721Z" fill="#4C4C4C"/>
<path d="M28 11.8621C28 11.8621 28 11.8621 27.95 11.8621C27.9 11.8621 28 11.8721 28 11.8621Z" fill="#4C4C4C"/>
<path d="M27.47 11.8621C27.41 11.8621 27.47 11.9221 27.47 11.8621C27.47 11.8021 27.45 11.8921 27.47 11.8621Z" fill="#4C4C4C"/>
<path d="M27.2102 12.1221C27.2102 12.1221 27.1702 12.1621 27.2102 12.1221V12.1221Z" fill="#4C4C4C"/>
<path d="M27.29 12.2321C27.29 12.2321 27.29 12.2321 27.36 12.2321C27.3491 12.2268 27.3372 12.2241 27.325 12.2241C27.3129 12.2241 27.3009 12.2268 27.29 12.2321V12.2321Z" fill="#4C4C4C"/>
<path d="M27.0698 12.1621C26.9798 12.1621 26.9698 12.1621 27.0698 12.2621C27.0698 12.1721 27.1298 12.0321 27.0698 12.1621Z" fill="#4C4C4C"/>
<path d="M27.2401 12.1921C27.2401 12.1921 27.2401 12.1921 27.1801 12.1921C27.1201 12.1921 27.2201 12.2121 27.2401 12.1921Z" fill="#4C4C4C"/>
<path d="M26.6598 13.0921C26.6598 13.0921 26.6398 13.0821 26.6598 13.0921V13.0921Z" fill="#4C4C4C"/>
<path d="M25.9099 13.6321C25.9099 13.5121 25.7699 13.8121 25.9099 13.6821C25.8799 13.7221 25.8799 13.6421 25.9099 13.6321Z" fill="#4C4C4C"/>
<path d="M11.8799 20.1521C11.8799 20.1521 11.8799 20.2221 11.9499 20.2221C12.0199 20.2221 11.9299 20.1421 11.8799 20.1521Z" fill="#4C4C4C"/>
<path d="M11.8398 20.0321C11.8998 20.0321 11.8398 20.0321 11.8398 20.0921C11.8398 20.1521 11.9098 20.0321 11.8398 20.0321Z" fill="#4C4C4C"/>
<path d="M11.62 19.5621C11.62 19.5621 11.62 19.4921 11.62 19.5621C11.62 19.6321 11.55 19.5421 11.62 19.5621Z" fill="#4C4C4C"/>
<path d="M13.2798 16.5021C13.2798 16.5021 13.2698 16.4621 13.2798 16.5021V16.5021Z" fill="#4C4C4C"/>
<path d="M11 15.5921C11 15.6721 11 15.5921 11.05 15.5321C11.1 15.4721 11 15.5721 11 15.5921Z" fill="#4C4C4C"/>
<path d="M10.8999 15.4921C10.8999 15.4921 10.7999 15.4921 10.8999 15.4921C10.9999 15.4921 10.8899 15.5221 10.8999 15.4921Z" fill="#4C4C4C"/>
<path d="M11.4501 15.3021C9.58009 14.5321 10.1901 17.0921 10.6601 17.6321C10.5901 18.1221 10.7301 17.7721 10.8701 18.3121C10.9287 18.4931 11.0129 18.6649 11.1201 18.8221C11.1201 18.8221 11.1201 18.8721 11.1201 18.8921C11.3401 19.4621 11.5801 19.4421 11.6301 19.8921C12.0301 19.8921 11.6301 19.7721 11.6301 19.6621C11.4401 19.5221 11.5201 19.2121 11.3901 19.2321C11.2901 18.7921 11.4501 18.9521 11.1401 18.4821C11.1401 18.3221 10.8501 17.2121 10.7501 16.9221C10.4901 15.5921 10.3401 15.4521 10.9901 15.3821C11.0401 15.3821 10.9201 15.7421 11.1501 15.5121C11.8944 15.8505 12.6554 16.1509 13.4301 16.4121C13.3801 16.2321 13.5701 16.6121 13.7901 16.4921C13.9001 16.6821 15.0801 16.7621 13.9701 16.3421C13.5988 16.1108 13.1987 15.9293 12.7801 15.8021C12.5001 15.8021 12.5501 15.5621 12.2201 15.5421C11.8901 15.5221 11.9001 15.4821 11.4501 15.3021ZM11.0001 18.6721C11.0001 18.6721 11.0001 18.6021 11.0001 18.5721C11.0001 18.5421 11.0801 18.5621 11.0001 18.6721ZM11.3701 19.1721C11.3701 19.1721 11.4101 19.1521 11.4101 19.1721H11.3701ZM11.2601 18.7521C11.2734 18.7538 11.2868 18.7538 11.3001 18.7521H11.2601ZM10.5301 16.1621H10.5701H10.5301ZM11.0001 15.4421C11.0001 15.4421 11.0001 15.5021 11.0001 15.5121C11.0001 15.5221 11.0801 15.4421 11.0001 15.4421V15.4421Z" fill="#4C4C4C"/>
<path d="M11.6899 20.0321C11.6899 20.0321 11.7399 20.0321 11.7599 20.0321C11.7799 20.0321 11.6899 19.9621 11.6899 20.0321Z" fill="#4C4C4C"/>
<path d="M11.5098 19.7621C11.5598 19.7621 11.5098 19.7621 11.5098 19.7621C11.5098 19.7621 11.4998 19.7421 11.5098 19.7621Z" fill="#4C4C4C"/>
<path d="M11.63 19.3821V19.3321C11.63 19.3321 11.61 19.3921 11.63 19.3821Z" fill="#4C4C4C"/>
<path d="M11.3701 19.5321C11.3701 19.5321 11.3701 19.5321 11.3701 19.5821C11.3701 19.6321 11.4001 19.5321 11.3701 19.5321Z" fill="#4C4C4C"/>
<path d="M11.4702 19.2221C11.5402 19.2221 11.4702 19.2221 11.4702 19.2821C11.4702 19.3421 11.5202 19.1621 11.4702 19.2221Z" fill="#4C4C4C"/>
<path d="M11.3398 19.4721C11.3398 19.6021 11.3398 19.4721 11.3398 19.4721C11.3398 19.4721 11.3598 19.5121 11.3398 19.4721Z" fill="#4C4C4C"/>
<path d="M11.48 19.1021C11.498 19.1302 11.5218 19.1541 11.55 19.1721C11.55 19.1721 11.5 19.1021 11.48 19.1021Z" fill="#4C4C4C"/>
<path d="M11.3401 19.3621C11.3401 19.3621 11.2901 19.3621 11.3401 19.3621C11.3901 19.3621 11.3601 19.4021 11.3401 19.3621Z" fill="#4C4C4C"/>
<path d="M11.25 18.5021C11.25 18.5021 11.26 18.4721 11.25 18.5021V18.5021Z" fill="#4C4C4C"/>
<path d="M10.9999 18.7421C10.9886 18.7072 10.9678 18.676 10.9399 18.6521C10.9399 18.6521 10.9999 18.7521 10.9999 18.7421Z" fill="#4C4C4C"/>
<path d="M10.5898 17.7521H10.6398C10.6398 17.7521 10.5498 17.7121 10.5898 17.7521Z" fill="#4C4C4C"/>
<path d="M10.54 17.5321C10.54 17.5321 10.55 17.5221 10.54 17.5321V17.5321Z" fill="#4C4C4C"/>
<path d="M10.6602 16.0321C10.6602 16.0321 10.6502 15.9621 10.6602 16.0321V16.0321Z" fill="#4C4C4C"/>
<path d="M10.6599 15.7021C10.6599 15.7021 10.5199 15.5721 10.6599 15.7021V15.7021Z" fill="#4C4C4C"/>
<path d="M10.5899 15.6921C10.5899 15.6921 10.5699 15.6721 10.5899 15.6921V15.6921Z" fill="#4C4C4C"/>
<path d="M10.6602 15.6621C10.6602 15.6621 10.6802 15.6721 10.6602 15.6621V15.6621Z" fill="#4C4C4C"/>
<path d="M10.6899 15.6921C10.6899 15.6921 10.6899 15.6321 10.6899 15.6421C10.6932 15.6586 10.6932 15.6756 10.6899 15.6921V15.6921Z" fill="#4C4C4C"/>
<path d="M11.0001 15.6721C11.0001 15.7521 11.0801 15.6721 11.0801 15.6721C11.0801 15.6721 10.9301 15.7321 11.0001 15.6721Z" fill="#4C4C4C"/>
<path d="M11.25 15.6921C11.25 15.6921 11.26 15.6821 11.25 15.6921V15.6921Z" fill="#4C4C4C"/>
<path d="M11.9402 15.5121H11.9902C11.9402 15.4821 11.8602 15.4921 11.9402 15.5121Z" fill="#4C4C4C"/>
<path d="M12.6501 15.8121C12.5701 15.8121 12.7601 15.8821 12.7401 15.8121C12.7201 15.7421 12.7101 15.8221 12.6501 15.8121Z" fill="#4C4C4C"/>
<path d="M21.5899 23.4021C21.5899 23.4021 21.5899 23.4021 21.5899 23.3421C21.5899 23.2821 21.5799 23.3721 21.5899 23.4021Z" fill="#4C4C4C"/>
<path d="M21.5202 23.4321C21.5202 23.4321 21.5202 23.4321 21.5702 23.4321C21.6202 23.4321 21.4902 23.3521 21.5202 23.4321Z" fill="#4C4C4C"/>
<path d="M22.54 23.0321C22.54 23.0321 22.55 23.0921 22.54 23.0321V23.0321Z" fill="#4C4C4C"/>
<path d="M21.2301 23.3721C21.2301 23.3721 21.2001 23.3921 21.2301 23.3721V23.3721Z" fill="#4C4C4C"/>
<path d="M21.0702 22.9521C21.0702 22.9521 21.0002 22.9121 21.0702 22.9521V22.9521Z" fill="#4C4C4C"/>
<path d="M20.9298 23.9121C20.9298 23.8421 20.9298 23.9121 20.9298 23.9721C20.9298 24.0321 20.9098 23.9421 20.9298 23.9121Z" fill="#4C4C4C"/>
<path d="M20.2599 23.8821C20.2599 23.8821 20.2399 23.8721 20.2599 23.8821V23.8821Z" fill="#4C4C4C"/>
<path d="M20.4801 24.1321C22.0401 25.1321 23.3301 22.9121 22.2601 22.9121C22.2601 22.9121 22.0901 22.9121 22.2601 22.8421C22.4301 22.7721 22.1101 22.7721 22.1501 22.8421C21.9801 22.8421 22.1501 22.9421 22.0801 22.9321C22.0101 22.9221 21.6801 22.9321 21.5301 22.9921C21.5801 22.9921 21.4601 22.9921 21.5301 22.9921C21.6001 22.9921 21.4801 22.9921 21.4501 22.9921C21.1601 23.1321 20.8801 23.3221 21.1601 23.5821C21.1601 23.4321 21.3501 23.6721 21.4201 23.6721C21.4901 23.6721 21.4801 23.5621 21.5201 23.5221C21.5601 23.4821 21.4501 23.6121 21.3201 23.5821C21.4401 23.5021 21.4101 23.5121 21.3201 23.5821C21.2301 23.6521 21.0801 23.6321 21.2501 23.4721C21.1301 23.4721 21.3401 23.4721 21.2501 23.4721C21.3959 23.3521 21.5727 23.2758 21.7601 23.2521C21.8801 23.1621 22.3001 23.2521 22.2201 23.4721C22.1401 23.6921 22.1201 23.6521 21.8601 23.8921C21.8601 23.8021 21.7801 24.0221 21.7801 23.8921C21.7801 23.7621 21.3501 24.1021 21.0401 24.0321C21.3801 24.0321 21.0401 23.8321 21.0401 24.0321C21.0401 24.2321 21.1601 24.0321 21.0401 24.1421C20.9201 24.2521 20.9001 23.9721 20.8601 24.0921C20.8601 24.0921 20.8601 23.8821 20.8601 23.8521C20.6101 24.0721 20.5301 23.6121 20.5701 23.6321C20.4801 22.7721 21.8401 22.8421 21.9201 22.8021C21.7801 22.2921 20.4201 22.8021 20.5201 22.9521C20.4282 23.0192 20.3528 23.1063 20.2996 23.2068C20.2463 23.3074 20.2167 23.4187 20.2128 23.5324C20.209 23.6461 20.231 23.7591 20.2773 23.863C20.3236 23.9669 20.393 24.059 20.4801 24.1321V24.1321ZM21.6801 22.9621C21.5901 22.9621 21.7701 22.8921 21.7501 22.9621C21.7301 23.0321 21.6601 22.9121 21.6801 22.9421V22.9621ZM21.3201 23.2721V23.2521V23.2721ZM21.6101 23.2021C21.6101 23.2021 21.6201 23.1621 21.6101 23.1821V23.2021ZM20.8701 24.0821C20.8701 24.0821 20.8701 24.0821 20.8701 24.0321C20.8701 23.9821 20.8201 24.0921 20.8701 24.0321V24.0821Z" fill="#4C4C4C"/>
<path d="M21.5201 23.5621C21.6401 23.4521 21.3901 23.5421 21.5201 23.5621V23.5621Z" fill="#4C4C4C"/>
<path d="M21.2199 23.5821C21.2199 23.5821 21.2199 23.5321 21.2199 23.5821C21.2199 23.6321 21.1899 23.5821 21.2199 23.5821Z" fill="#4C4C4C"/>
<path d="M21.29 23.3021C21.29 23.3021 21.29 23.3021 21.29 23.3721C21.29 23.4421 21.32 23.3221 21.29 23.3021Z" fill="#4C4C4C"/>
<path d="M21 23.2721C20.9 23.3821 21 23.2721 21 23.3321C21 23.3921 21 23.3221 21 23.2721Z" fill="#4C4C4C"/>
<path d="M21.3899 23.3221C21.3899 23.3221 21.3399 23.3221 21.3899 23.3721C21.3931 23.3556 21.3931 23.3386 21.3899 23.3221V23.3221Z" fill="#4C4C4C"/>
<path d="M21.1399 23.2021C21.1399 23.2021 21.0799 23.2021 21.1399 23.2021C21.1999 23.2021 21.1199 23.2221 21.1399 23.2021Z" fill="#4C4C4C"/>
<path d="M21.1798 23.1221C21.1798 23.1221 21.1598 23.0921 21.1798 23.1221V23.1221Z" fill="#4C4C4C"/>
<path d="M21.2202 23.1221C21.2202 23.1221 21.2202 23.1221 21.2202 23.0521C21.2243 23.0753 21.2243 23.099 21.2202 23.1221V23.1221Z" fill="#4C4C4C"/>
<path d="M21.6199 22.8921C21.6199 22.8921 21.6799 22.8921 21.6899 22.8421C21.6999 22.7921 21.6099 22.8721 21.6199 22.8921Z" fill="#4C4C4C"/>
<path d="M22.5902 23.0321C22.5402 22.9321 22.5302 23.0321 22.5902 23.0321C22.6502 23.0321 22.6102 23.0321 22.5902 23.0321Z" fill="#4C4C4C"/>
<path d="M21.4702 23.8421C21.5202 23.8921 21.4702 23.8421 21.4702 23.8421V23.8421Z" fill="#4C4C4C"/>
<path d="M21.41 23.8621C21.33 23.8621 21.35 23.8621 21.32 23.9421C21.29 24.0221 21.35 23.8721 21.41 23.8621Z" fill="#4C4C4C"/>
<path d="M21.3199 23.8821C21.3199 23.8821 21.2999 23.8921 21.3199 23.8821V23.8821Z" fill="#4C4C4C"/>
<path d="M21.2598 23.8721C21.2598 23.8721 21.2498 23.8621 21.2598 23.8721V23.8721Z" fill="#4C4C4C"/>
<path d="M20.9299 23.8421C20.9299 23.7621 20.8699 23.8421 20.8599 23.8421C20.8499 23.8421 20.9999 23.7821 20.9299 23.8421Z" fill="#4C4C4C"/>
<path d="M20.2099 23.7021C20.1199 23.6521 20.2099 23.7021 20.2099 23.7621C20.2099 23.8221 20.1699 23.7021 20.2099 23.7021Z" fill="#4C4C4C"/>
<path d="M20.3398 23.0321C20.3398 23.0321 20.3798 22.8721 20.3398 23.0321V23.0321Z" fill="#4C4C4C"/>
<path d="M21.76 25.4821C22.05 23.0021 20.59 25.7421 22.98 25.4021C23.26 25.1721 23.62 24.9321 23.53 24.9821C23.53 24.7821 23.78 24.6121 23.53 24.9821C23.81 24.7921 23.53 24.6721 23.77 24.6321C23.97 24.3921 24.09 24.1021 24.19 24.0021C24.3256 23.5931 24.4928 23.1952 24.69 22.8121C24.47 22.3221 24.69 22.8821 24.48 22.8721C24.3276 23.3332 24.0939 23.7633 23.79 24.1421C23.7112 24.3521 23.5755 24.536 23.3982 24.6734C23.2209 24.8107 23.0089 24.8961 22.7859 24.92C22.5629 24.9438 22.3377 24.9052 22.1353 24.8085C21.933 24.7118 21.7615 24.5607 21.64 24.3721C21.38 24.1721 21.35 24.5521 21.56 24.7121C21.34 24.5421 21.4 24.4821 21.46 24.7721C21.64 24.9121 21.46 24.7721 21.57 24.6821C21.68 24.5921 21.57 24.8321 21.57 24.9021C21.57 24.9721 21.57 25.0121 21.57 24.9921C21.27 24.9221 21.45 25.4621 21.12 25.6321C20.87 26.2121 19.94 26.0921 19.77 26.0821C19.6 26.0721 18.84 25.7121 18.77 25.7721C18.77 26.4621 20.43 26.6821 20.48 26.4721C20.79 26.4121 20.66 26.5821 21.01 26.3821C21.01 26.2521 21.5 26.1521 21.24 26.0221C21.3 26.0221 21.3 25.9321 21.31 25.9621C21.32 25.9921 21.31 25.9121 21.31 25.9621C21.47 25.7721 21.61 25.7021 21.76 25.4821ZM24.04 24.2021C24.12 24.1221 23.97 24.2921 24.04 24.3021C23.91 24.3521 24.07 24.1821 24 24.2021H24.04ZM23.98 23.9121C23.98 23.9121 24 23.9421 24 23.9121H23.98ZM21.98 24.7821C22 24.7921 22 24.7221 22 24.7821H21.98ZM21.68 24.9821C21.68 24.9821 21.68 24.9821 21.63 24.9821C21.58 24.9821 21.68 25.0321 21.67 25.0321L21.68 24.9821Z" fill="#4C4C4C"/>
<path d="M17.24 22.4621C18.49 21.8221 16.96 21.4621 17.04 21.7821C17.04 21.9121 16.97 21.6621 16.98 21.8521C17.1 22.3521 17.23 22.0921 17.34 22.0321C17.45 21.9721 17.34 22.0321 17.34 22.0321C17.34 22.0321 17.34 21.9621 17.34 21.9421C17.34 21.9221 17.21 21.9421 17.21 21.9421C17.1 21.9421 17.42 21.9921 17.21 22.0021C17.14 22.0021 17.31 22.0021 17.21 22.0021C17.11 22.0021 17.15 22.0021 17.21 22.0021C17.27 22.0021 17.1 22.0021 17.15 22.0021C17.15 22.0021 17.1 22.0021 17.09 21.9521C17.09 21.9521 17.34 21.9521 17.2 21.9521C17.06 21.9521 17.32 22.0421 17.28 22.0321C17 22.0321 17.28 22.0321 17.34 22.0321C17.24 22.0321 17.04 22.0321 17.18 22.0321C17.51 22.1221 16.98 21.9621 17.37 22.1121C17.21 22.0521 17.37 22.1121 17.37 22.1721C17.19 22.1021 17.27 22.1221 17.37 22.1721C17.47 22.2221 17 22.0321 17.2 22.1921C17.4 22.3521 17.2 22.2721 17.3 22.2921C17.2 22.1821 17.53 22.5021 17.3 22.2921C17.3 22.2421 17.3 22.2921 17.3 22.2921C17.3 22.2921 17.3 22.2421 17.16 22.1421C17.02 22.0421 17.24 22.2821 17.11 22.0821V22.1421C17.11 22.1921 17.11 22.2121 17.11 22.2821C17.11 22.3521 17.04 22.0621 17.11 22.2021C17.06 22.1121 17.11 22.2021 17.11 22.1421C17.11 22.2221 17.11 22.1421 17.11 22.1421L17 22.0321C16.88 21.9621 17 22.0321 16.95 21.9621C16.9 21.8921 16.95 21.8821 16.95 21.9621C16.88 21.8321 17.05 21.9621 17.01 21.8821C17.01 21.6321 16.64 21.8821 16.69 21.9321C16.74 21.9821 16.59 22.2421 16.69 22.2921C16.79 22.3421 16.69 22.2921 16.69 22.2921C16.75 22.2921 16.69 22.4521 16.69 22.4321C16.69 22.4121 16.8 22.5221 16.8 22.5421C16.8 22.5621 16.97 22.6921 16.94 22.5421C16.94 22.5421 17.19 22.6021 17.24 22.4621ZM17 21.8721C17 21.8721 16.95 21.8121 17 21.8721C17.05 21.9321 17 21.7821 17 21.8721C17 21.8521 17 21.9621 17 21.8721ZM17.13 22.0321H17.12H17.13ZM17.33 22.0321H17.27C17.27 22.0321 17.31 22.0321 17.32 22.0321H17.33ZM17.33 22.3321C17.33 22.3321 17.28 22.2621 17.27 22.2721L17.33 22.3321Z" fill="#4C4C4C"/>
<path d="M24.6298 20.4521C24.9598 20.0421 24.3298 19.4521 24.0398 19.6021C23.7498 19.7521 23.8798 19.8221 23.8598 19.8421C23.8398 19.8621 23.8598 20.0521 23.8598 19.8421C23.8598 20.2421 24.3898 20.3821 24.4698 20.0621C24.3298 20.0621 24.4698 20.0021 24.4098 19.9421C24.1798 20.0421 24.4098 19.9421 24.3198 20.0421C24.4698 20.0421 24.2098 20.0421 24.3198 20.1121C24.4298 20.1821 24.2498 20.0321 24.2598 20.1121C24.2698 20.1921 24.2598 20.1121 24.2598 20.1121C24.2598 20.1121 24.1598 20.1821 24.1898 20.1121C24.2198 20.0421 24.1898 20.1121 24.1898 20.1121C24.1898 20.1121 24.1898 20.0621 24.1898 20.0521C24.1898 20.0421 24.2498 19.9121 24.2798 20.0021C24.3098 20.0921 24.2798 20.0021 24.2798 20.0021C24.2798 20.0021 24.3998 20.0521 24.3598 20.0621C24.3198 20.0721 24.5498 20.1721 24.4398 20.2421C24.6598 20.3721 24.2798 20.2421 24.5198 20.3621C24.5698 20.2721 24.6798 20.3621 24.5198 20.3621C24.5198 20.3621 24.4098 20.3621 24.3498 20.3621H24.4098C24.4098 20.3621 24.4098 20.4321 24.4098 20.4121C24.4098 20.3921 24.4098 20.4921 24.3198 20.4121C24.2298 20.3321 24.3198 20.4121 24.3198 20.4121C24.3198 20.4121 24.2098 20.2221 24.1798 20.2521C24.1498 20.2821 24.1798 20.2521 24.0798 20.1421C24.0873 20.079 24.0873 20.0152 24.0798 19.9521C23.9698 19.9521 23.8798 20.0221 23.9198 20.0921C23.9598 20.1621 23.8698 20.0921 23.9198 20.0921C23.9698 20.0921 23.9198 20.0921 23.8698 20.0921C23.8198 20.0921 23.9698 20.5721 24.0398 20.5021C24.1098 20.4321 24.5298 20.8121 24.4598 20.5021C24.4598 20.5021 24.5198 20.4221 24.5298 20.5021C24.5586 20.4775 24.5929 20.4603 24.6298 20.4521ZM23.9998 20.1721C23.9998 20.1721 23.9998 20.1821 23.9998 20.1721V20.1721ZM24.3298 19.8921V19.9321V19.8921ZM24.5298 20.2221C24.5298 20.2221 24.5298 20.2221 24.4798 20.2221C24.4298 20.2221 24.5398 20.2721 24.5298 20.2621V20.2221Z" fill="#4C4C4C"/>
<path d="M23.7398 23.5421C23.7398 23.5421 23.8298 23.4921 23.7398 23.4621C23.6198 23.6421 23.8398 23.4621 23.7998 23.4621C23.7598 23.4621 23.7998 23.4621 23.7998 23.4621C23.7998 23.4621 23.7998 23.4621 23.7398 23.5121C24.1898 23.1521 23.5598 23.7521 24.0498 23.2921C24.0498 23.2921 23.9398 23.3921 23.9798 23.3521C23.8931 23.3946 23.8124 23.4484 23.7398 23.5121C23.7398 23.5121 23.9598 23.4121 23.8298 23.4621C23.8298 23.4621 24.1698 23.2221 24.0498 23.3521C23.6898 23.5721 24.1198 23.3521 24.0498 23.4021C23.6998 23.5621 24.1198 23.4021 24.0498 23.3521C23.9798 23.3021 24.3898 23.1721 24.1398 23.3521C24.0498 23.3521 24.1398 23.3521 24.1398 23.3521C24.1398 23.3521 24.3898 23.2221 24.1998 23.3521C24.3498 23.2721 24.1998 23.3521 24.1398 23.4121C24.4998 23.2821 24.4698 23.2121 24.4098 23.2921C24.3498 23.3721 24.4098 23.2921 24.3198 23.3521C24.2298 23.4121 24.5798 23.1621 24.2298 23.3521C24.3305 23.3011 24.4218 23.2335 24.4998 23.1521C24.3898 23.1521 24.4998 23.1521 24.4998 23.1521C24.6798 23.0821 24.3598 23.2421 24.5598 23.1521C24.4498 23.2221 24.9198 22.9821 24.6198 23.1521C24.5198 23.2421 24.6198 23.1521 24.6198 23.1521C24.3698 23.3421 24.6698 23.0521 24.6198 23.0721C24.5698 23.0921 24.8898 22.7421 24.4998 23.0721L24.6198 22.9621C24.5398 23.0421 24.6698 22.8721 24.6198 22.9621C24.6798 22.8821 24.6198 22.8321 24.5298 22.9621L24.7098 22.7621L24.5298 22.9621C24.7398 22.7021 24.7098 22.7121 24.5298 22.8721C24.6198 22.8221 24.6898 22.6621 24.5898 22.8221C24.4898 22.9821 24.5398 22.9221 24.5898 22.8221C24.5898 22.8821 24.2998 23.1221 24.5898 22.8221C24.4598 22.9721 24.3198 23.1421 24.4698 22.9721C24.8898 22.4321 24.2098 23.2421 24.3798 23.1121C24.3798 23.1121 24.3798 23.0321 24.4998 22.9421C24.7798 22.5421 24.4998 22.9421 24.6498 22.6821L24.4398 22.9721C24.5998 22.7421 24.5998 22.7721 24.4398 22.9121C24.4998 22.8121 24.4398 22.8021 24.3798 22.9121C24.4998 22.6521 24.4898 22.4721 24.2898 23.0221C24.5498 22.4921 24.2898 23.1221 24.2898 22.8821C24.1898 23.0221 24.1798 22.9821 24.1098 23.0521C23.9798 23.3521 24.0498 23.2621 23.9798 23.3921C23.9098 23.5221 23.9798 23.4721 23.9798 23.3921C23.9798 23.3121 23.9798 23.5921 23.9798 23.3921C23.9798 23.3421 24.0298 23.2921 23.9798 23.3921C23.9298 23.4921 23.8898 23.5621 23.9198 23.5021C23.9498 23.4421 23.9198 23.5921 23.9198 23.4421C23.9267 23.4615 23.9267 23.4827 23.9198 23.5021C23.8398 23.6321 23.6098 23.5521 23.8598 23.4421C23.8998 23.4121 23.7098 23.5821 23.7398 23.5421ZM24.0098 23.3821C24.0098 23.3821 24.0798 23.3821 24.0098 23.3821V23.3821ZM24.0098 23.3821H23.9398C23.9398 23.3821 24.0798 23.2921 24.0498 23.3521L24.0098 23.3821ZM24.2598 23.0321L24.3198 22.9721C24.3198 22.9721 24.2498 23.0321 24.2598 23.0321ZM24.0098 23.2321C24.0098 23.2321 24.0098 23.1421 24.1098 23.1121C24.2098 23.0821 23.9998 23.1821 23.9998 23.2121L24.0098 23.2321Z" fill="#4C4C4C"/>
<path d="M17.8999 16.7021C18.0799 17.0321 18.3099 17.4221 18.3199 17.2921C18.3299 17.1621 18.3699 17.2921 18.3199 17.3621C18.2699 17.4321 18.4299 17.2721 18.4099 17.3021C18.4107 17.329 18.4197 17.3549 18.4359 17.3764C18.452 17.3979 18.4744 17.4139 18.4999 17.4221C18.5499 17.5021 18.4999 17.5621 18.5999 17.4221C18.5999 17.5321 18.5399 17.5521 18.5999 17.5021C18.5999 17.4421 18.6699 17.4321 18.5999 17.5021C18.5299 17.5721 18.5999 17.5021 18.5999 17.5821C18.6699 17.4921 18.7199 17.4721 18.5999 17.5221C18.6599 17.4221 18.5999 17.5221 18.5999 17.4221C18.5999 17.3221 18.5999 17.4221 18.5999 17.3721C18.5999 17.3221 18.5999 17.3021 18.5999 17.3721C18.5999 17.4421 18.5999 17.2321 18.5999 17.2921C18.5999 17.2021 18.5999 17.2021 18.5299 17.1521C18.4599 17.1021 18.3999 16.8921 18.3799 16.8221C18.3599 16.7521 18.3799 16.6221 18.2799 16.6721C18.1799 16.7221 18.2799 16.6721 18.2799 16.6721C18.2799 16.6721 18.2799 16.6221 18.2799 16.6121C18.2799 16.6021 18.2299 16.6121 18.1999 16.5021C18.1699 16.3921 18.2999 16.5021 18.1999 16.5021C18.0999 16.5021 18.1199 16.5021 18.1099 16.5721C18.0999 16.6421 18.1099 16.5721 18.1099 16.5021C18.1099 16.5021 18.2499 16.3121 18.1799 16.3821C18.1099 16.4521 18.1799 16.2821 18.1299 16.3821C18.1299 16.2921 18.0699 16.2521 18.0499 16.1121C18.0299 15.9721 17.9799 15.9321 17.8999 15.8121C17.8199 15.6921 17.8199 15.8121 17.8999 15.8121C17.9799 15.8121 17.8499 15.8121 17.8299 15.7421C17.8099 15.6721 17.8299 15.7421 17.8299 15.7421C17.7922 15.7912 17.7677 15.8492 17.759 15.9105C17.7502 15.9719 17.7574 16.0344 17.7799 16.0921C17.7799 16.0921 17.8299 16.4221 17.8599 16.3321C17.8899 16.2421 17.8599 16.3321 17.8599 16.3321C17.8599 16.3321 17.8599 16.4521 17.8599 16.5021C17.8786 16.5676 17.892 16.6345 17.8999 16.7021ZM18.4699 17.4521C18.4699 17.4521 18.4299 17.4221 18.4299 17.4521H18.4699ZM18.3099 16.8421C18.3099 16.8421 18.2299 16.8121 18.2299 16.8321L18.3099 16.8421ZM18.1299 16.6721C18.1299 16.6721 17.9999 16.6621 18.0499 16.6621L18.1299 16.6721Z" fill="#4C4C4C"/>
<path d="M20.1401 16.8721C20.0401 16.8721 20.1401 16.8721 20.1401 16.8721C20.1401 16.8721 20.1801 16.8521 20.1401 16.8721Z" fill="#4C4C4C"/>
<path d="M20.1501 16.7521C20.2101 16.7521 20.1501 16.7521 20.1501 16.7521C20.1501 16.7521 20.1201 16.7821 20.1501 16.7521Z" fill="#4C4C4C"/>
<path d="M19.54 16.0321C19.5862 16.2253 19.6676 16.4083 19.78 16.5721C19.68 16.6221 19.78 16.5721 19.78 16.5721C19.78 16.5721 19.48 16.6621 19.78 16.5721C19.69 16.6321 19.83 16.6821 19.78 16.7121C19.73 16.7421 19.88 16.7121 19.85 16.7921C19.82 16.8721 19.92 16.7921 19.85 16.7921C19.91 16.7921 19.85 16.7921 19.85 16.8421C19.85 16.8921 20.03 16.8421 19.96 16.8421C19.89 16.8421 19.96 16.8421 19.96 16.8421C20.04 16.8421 19.88 16.8421 19.96 16.8421C19.76 16.8421 20.03 16.8421 19.96 16.7821C19.79 16.8421 20.06 16.7821 19.96 16.7821C20.03 16.7821 19.96 16.7821 19.96 16.7821C19.96 16.7821 20.1 16.7821 19.96 16.7021C19.82 16.6221 19.86 16.7021 19.96 16.7021C20.06 16.7021 19.96 16.7021 19.9 16.7021C20 16.6321 19.83 16.4421 19.9 16.4621C19.97 16.4821 19.9 16.3621 19.83 16.3521C19.76 16.3421 19.95 16.3521 19.92 16.2721C19.89 16.1921 19.74 16.2721 19.85 16.2021C19.96 16.1321 19.66 16.2021 19.75 16.2021H20C19.92 16.2021 19.95 16.2021 19.8 16.2021C19.8 16.2021 19.71 16.2021 19.8 16.2021C19.67 16.2021 20.17 16.0921 19.86 16.1221C19.81 16.1221 19.81 16.1221 19.77 16.1221C19.73 16.1221 19.96 16.0621 19.84 16.1221C19.72 16.1821 19.89 16.1221 19.84 16.1221C19.79 16.1221 19.84 16.1221 19.84 16.0521C19.84 15.9821 19.84 15.8221 19.84 15.7821C19.71 15.7821 19.92 15.7821 19.75 15.7821C19.58 15.7821 19.85 15.7821 19.7 15.7321C19.55 15.6821 19.7 15.7321 19.7 15.7321C19.7 15.7321 19.6 15.7321 19.76 15.7321C19.51 15.7321 19.76 15.6421 19.52 15.7321C19.52 15.7321 19.4 15.8321 19.52 15.8221C19.47 15.8221 19.47 15.8921 19.46 15.8221C19.45 15.7521 19.46 15.8221 19.46 15.8221C19.61 15.8221 19.41 16.0021 19.56 15.9821C19.56 15.9821 19.64 15.9821 19.56 15.9821C19.48 15.9821 19.56 16.0521 19.5 15.9821H19.57C19.47 15.9821 19.64 15.9821 19.57 16.0421C19.5 16.1021 19.57 16.0421 19.57 16.0421C19.57 16.0421 19.57 16.0421 19.68 16.0421C19.79 16.0421 19.68 16.0421 19.63 16.0421C19.58 16.0421 19.63 16.0921 19.63 16.1121C19.63 16.1321 19.48 16.0321 19.54 16.0321ZM19.91 16.6821C19.91 16.6821 19.93 16.6321 19.91 16.6421V16.6821ZM20 16.1621C20 16.1621 20.07 16.1621 20 16.1621V16.1621Z" fill="#4C4C4C"/>
<path d="M20 16.8921C20 16.8921 20 16.8921 20.06 16.8921C20.12 16.8921 20.05 16.8721 20 16.8921Z" fill="#4C4C4C"/>
<path d="M19.9999 16.7721C19.9999 16.7721 19.9199 16.7721 19.9999 16.7721C20.0799 16.7721 19.9999 16.7621 19.9999 16.7721Z" fill="#4C4C4C"/>
<path d="M19.9301 16.7521H19.8701C19.8701 16.7521 19.8901 16.7721 19.9301 16.7521Z" fill="#4C4C4C"/>
<path d="M20.1499 16.5621C20.1499 16.5621 20.1699 16.5521 20.1499 16.5621V16.5621Z" fill="#4C4C4C"/>
<path d="M19.7199 16.5221C19.7199 16.5221 19.6899 16.5321 19.7199 16.5221V16.5221Z" fill="#4C4C4C"/>
<path d="M20.0702 16.0321C20.0371 16.0379 20.0033 16.0379 19.9702 16.0321C20.0034 16.0372 20.0371 16.0372 20.0702 16.0321Z" fill="#4C4C4C"/>
<path d="M21.8901 16.3321C21.8901 16.3321 21.7901 16.8321 21.8401 16.9021C21.6301 16.9021 22.0001 17.0121 21.8401 17.0221C21.9401 17.0221 21.8401 17.0221 21.7501 17.0221C21.8801 17.0821 21.9401 17.0221 21.9101 17.0921C21.8801 17.1621 21.6201 17.0021 21.8201 17.0921C21.6901 17.0921 21.9501 17.0921 21.9301 17.0921C21.9101 17.0921 21.8201 17.0921 21.8401 17.0921C21.8601 17.0921 21.7601 17.0921 21.9301 17.2021C21.9301 17.2621 21.7501 17.2821 21.9301 17.3321C21.6301 17.3321 22.1201 17.3321 21.9301 17.3321C21.7401 17.3321 21.9301 17.3321 21.8601 17.3321C21.7901 17.3321 21.8601 17.3321 21.8601 17.3321C21.8601 17.3321 22.0301 17.3821 21.8601 17.3321H21.9101H21.8601C21.8601 17.3321 21.8601 17.3321 21.7801 17.3321C21.7001 17.3321 21.9901 17.4321 21.8501 17.3321C21.7101 17.2321 21.9201 17.3321 21.9001 17.3321C22.0601 17.3321 21.9001 17.3321 21.9001 17.2621C21.9001 17.1921 22.0001 17.2621 21.9701 17.2621C21.9401 17.2621 21.9701 17.2621 22.1201 17.1821C21.9301 17.1221 22.2901 17.1821 22.1201 17.1021C22.1901 17.1021 22.4101 17.1721 22.2601 17.0321C22.2601 17.0321 22.2601 17.0321 22.3301 17.0321C22.4001 17.0321 22.1901 17.0321 22.3301 17.0321C22.4701 17.0321 22.4801 17.0321 22.4201 17.0321C22.3601 17.0321 22.7001 16.5721 22.5401 16.5321C22.8001 16.5321 22.5401 16.4521 22.6501 16.4521C22.7601 16.4521 22.4801 16.3621 22.6501 16.3621C22.6501 16.3621 22.3901 16.2621 22.6001 16.2821C22.8101 16.3021 22.7901 16.2821 22.6001 16.2821C22.4101 16.2821 22.4701 16.2821 22.4901 16.2321C22.5101 16.1821 22.4901 16.2321 22.4901 16.2321C22.4901 16.2321 22.6901 16.2321 22.7501 16.2321C22.5401 16.2321 22.8501 16.2321 22.6801 16.2321C22.5101 16.2321 22.7601 16.1721 22.6801 16.1321C22.7301 16.1321 22.6801 16.1321 22.6801 16.1321C22.6801 16.1321 22.6201 16.1321 22.6801 16.1321C22.7367 16.0069 22.7803 15.8762 22.8101 15.7421C22.7301 15.6921 22.7001 15.6921 22.7501 15.6721C22.8001 15.6521 22.7501 15.6721 22.6801 15.6721C22.7801 15.6721 22.6801 15.6721 22.6201 15.6721C22.7401 15.6721 22.7601 15.6721 22.6201 15.6721C22.7601 15.6721 22.5501 15.5721 22.5701 15.5921C22.5901 15.6121 22.5001 15.5921 22.4501 15.5921C22.4001 15.5921 22.4501 15.7221 22.3101 15.7521C22.1701 15.7821 22.3101 15.9321 22.3101 16.0321C22.3101 16.1321 22.3101 16.0321 22.3701 16.0321C22.4301 16.0321 22.3201 16.0921 22.2101 16.0321C22.2168 16.0429 22.2208 16.0552 22.2218 16.0678C22.2228 16.0805 22.2208 16.0932 22.2159 16.105C22.211 16.1167 22.2034 16.1271 22.1937 16.1353C22.184 16.1435 22.1725 16.1493 22.1601 16.1521C22.1601 16.1521 22.1601 16.1521 22.3001 16.1521C22.1401 16.3221 22.0001 16.3321 21.8901 16.3321ZM21.8701 17.2621C21.8701 17.2621 21.8701 17.2221 21.8701 17.2421V17.2621ZM22.0501 17.4221C22.0501 17.4221 22.0001 17.3921 22.0001 17.4021L22.0501 17.4221ZM22.2101 16.4421H22.2801C22.2801 16.4421 22.1401 16.4221 22.1701 16.4221L22.2101 16.4421Z" fill="#4C4C4C"/>
<path d="M12.1101 15.8721C9.11015 14.7221 12.0001 18.6221 11.3201 17.8721C11.5401 18.2021 11.4401 17.8721 11.6101 18.1621C11.7223 18.33 11.8258 18.5036 11.9201 18.6821C12.0301 19.0021 12.3201 18.9021 12.1901 19.1921C12.1901 19.1921 12.5601 19.3221 12.3801 19.3221C12.5401 19.5421 12.5501 19.4221 12.7101 19.5521C12.7101 19.3121 12.3501 19.2921 12.4201 18.9121C12.4201 18.9121 12.3501 18.9121 12.3301 18.9621C12.2301 18.5821 12.4301 18.6821 12.0401 18.3421C12.0401 18.2221 11.5901 17.3421 11.4901 17.1021C11.4373 16.8571 11.3568 16.6189 11.2501 16.3921C11.3601 16.3121 11.4201 16.3921 11.3801 16.3021C11.3401 16.2121 11.2601 16.1421 11.3801 16.2121C11.1401 16.1321 11.3001 16.0721 11.3801 15.9921C11.4601 15.9121 11.2501 16.2021 11.3801 16.1021C11.5101 16.0021 11.5501 16.0421 11.4501 15.9221C11.5901 15.7921 11.5702 16.0321 11.6402 15.9921C11.8602 15.9421 11.5801 16.1521 11.6901 16.2221C11.8601 16.0521 11.9902 16.2821 12.1402 16.3221C12.9261 16.8374 13.756 17.2825 14.6201 17.6521C14.6201 17.2221 13.3901 16.5321 13.2601 16.5821C13.1301 16.6321 12.7202 15.9421 12.5502 16.1921C12.4258 16.0577 12.2763 15.949 12.1101 15.8721V15.8721ZM11.8502 18.4521C11.9102 18.5321 11.8002 18.4521 11.8502 18.3921C11.9002 18.3321 11.8102 18.3921 11.8002 18.4521H11.8502ZM12.1601 18.4621H12.1101H12.1601ZM11.2301 16.4121C11.2301 16.4121 11.3101 16.4121 11.2301 16.4121V16.4121ZM11.7301 15.9521C11.7301 15.9521 11.7301 16.0021 11.7301 16.0221C11.7301 16.0421 11.7102 16.0321 11.6802 15.9521H11.7301Z" fill="#4C4C4C"/>
<path d="M13 16.5821C12.44 17.0121 13.65 17.8321 13.73 17.1821C13.12 16.8721 13.65 16.7521 13 16.5821Z" fill="#4C4C4C"/>
<path d="M26.6199 14.3021C26.9599 13.9921 27.1399 14.0521 27.1099 14.6221C27.1999 14.7321 27.1099 15.2421 27.2099 15.1121C27.3499 15.3921 27.1499 15.1121 27.0899 15.1921C27.2999 15.2821 27.1699 15.1921 27.2399 15.3821C27.1699 15.8421 27.2399 16.0621 27.1099 16.2421C26.9799 16.4221 27.1699 16.2421 27.1599 16.3021C27.1499 16.3621 27.1599 16.3721 27.1599 16.3021C27.2099 16.4321 27.1099 16.3721 27.0599 16.4521C27.1899 16.4521 27.1799 16.5321 27.1899 16.5721C27.2699 16.2521 27.5099 16.1421 27.5399 15.6721L27.5999 15.6121C27.5999 15.4421 27.8599 14.6121 27.6599 14.1421C27.6599 13.9321 27.7199 13.7121 27.2499 13.6221C26.7399 14.0521 27.2499 13.6221 27.0999 13.6221C27.2199 13.4721 26.6299 13.8721 27.0099 13.8021C26.7399 14.0921 26.7699 13.5421 26.5399 14.0221C26.5399 14.0221 26.4199 13.8821 26.4799 14.0221C26.3499 14.0221 26.2699 14.1721 26.2099 14.1421C25.9599 14.4021 25.3399 14.7221 25.2699 14.9121C25.4199 15.0521 25.0899 14.9121 25.1199 15.1721C25.0599 15.1721 24.7699 15.5521 24.8299 15.5521C25.3999 15.5521 25.8899 14.6221 26.1299 14.7121C26.1799 14.6321 26.6099 14.4821 26.4099 14.4121C26.5199 14.3321 26.6499 14.3221 26.6199 14.3021ZM27.1799 15.6621C27.1799 15.7221 27.1799 15.6121 27.1799 15.6621C27.1799 15.7121 27.2399 15.6621 27.2199 15.6621H27.1799ZM27.3899 14.0821C27.3899 14.0821 27.4499 14.0821 27.3899 14.0821V14.0821ZM26.7199 14.0321C26.7199 14.0321 26.7199 13.9621 26.7199 14.0321C26.7199 14.1021 26.6899 14.0321 26.7199 14.0321Z" fill="#4C4C4C"/>
<path fill-rule="evenodd" clip-rule="evenodd" d="M14.7498 31.0321H35.5296C35.7845 31.2813 35.9305 31.5196 35.9788 31.7462C36.2357 31.7151 36.4139 31.6682 36.4998 31.6021C37.2449 31.9142 37.1199 33.0659 36.9988 34.182C36.8992 35.1042 36.8021 36.0021 37.2 36.3821C39.2303 38.1921 11.2601 39.8021 14.7103 33.6021C14.5086 33.1245 14.5911 32.7386 14.9002 32.4289C14.597 32.0243 14.5267 31.5597 14.7498 31.0321Z" fill="white"/>
<path d="M37.0752 37.7287C36.659 37.0629 36.1458 36.5081 36.3123 35.8284C30.0011 35.0933 27.0883 36.3832 20.8048 35.44C19.6397 35.2597 18.4745 35.0101 17.3926 34.5107C16.8933 34.2749 15.6033 33.6091 15.1872 34.3165C14.7988 34.9684 15.0901 36.4665 15.3814 37.1045C15.4785 37.3126 15.6033 37.5206 15.7281 37.7148C23.7732 37.2848 29.0163 37.3681 37.0752 37.7287Z" fill="#C6C6C6"/>
<path d="M15 36.2789C15.2497 36.6811 15.5132 37.0834 15.5964 37.555H36.8186C36.777 37.0834 36.5828 36.6811 36.347 36.3066C28.2743 35.946 23.0311 35.8628 15 36.2789Z" fill="white"/>
<defs>
<linearGradient id="paint0_linear" x1="23" y1="0" x2="23" y2="46" gradientUnits="userSpaceOnUse">
<stop stop-color="#FABC29"/>
<stop offset="1" stop-color="#FABC29"/>
</linearGradient>
</defs>
</svg>
