<svg width="24" height="24" viewBox="0 0 24 24" fill="none" xmlns="http://www.w3.org/2000/svg">
<circle cx="12" cy="12" r="12" fill="#D7A01F"/>
<path d="M21.7778 10.7824C21.7778 12.2252 17.4996 15.1109 12.2222 15.1109C6.94486 15.1109 2.66669 12.2252 2.66669 10.7824C2.66669 5.31824 6.94486 0.888672 12.2222 0.888672C17.4996 0.888672 21.7778 5.31824 21.7778 10.7824Z" fill="#FABC29"/>
<path fill-rule="evenodd" clip-rule="evenodd" d="M12 1.222C6.04747 1.222 1.222 6.04747 1.222 12C1.222 17.9525 6.04747 22.778 12 22.778C17.9525 22.778 22.778 17.9525 22.778 12C22.778 6.04747 17.9525 1.222 12 1.222ZM0 12C0 5.37258 5.37258 0 12 0C18.6274 0 24 5.37258 24 12C24 18.6274 18.6274 24 12 24C5.37258 24 0 18.6274 0 12Z" fill="white"/>
<path fill-rule="evenodd" clip-rule="evenodd" d="M16.1354 6.21327C16.4651 5.63425 17.0602 5.14551 18.0086 5.14551H18.0856C18.8155 5.14551 19.41 5.45041 19.8071 5.95888C20.1907 6.45001 20.3585 7.08746 20.3585 7.7315C20.3585 8.06894 20.0849 8.34249 19.7475 8.34249H16.3425C16.1742 8.34249 16.0134 8.27308 15.8979 8.15062C15.7825 8.02817 15.7227 7.86352 15.7326 7.69552C15.7525 7.35694 15.8286 6.75199 16.1354 6.21327ZM17.0672 7.1205H19.0505C18.9996 6.95674 18.9284 6.81914 18.844 6.71105C18.6829 6.50472 18.4464 6.3675 18.0856 6.3675H18.0086C17.5631 6.3675 17.3432 6.56174 17.1973 6.81795C17.1436 6.91222 17.1009 7.01519 17.0672 7.1205Z" fill="white"/>
<path fill-rule="evenodd" clip-rule="evenodd" d="M9.79501 5.14551C9.7969 5.14551 9.7987 5.14551 9.8004 5.14551H18.0085C18.346 5.14551 18.6195 5.41907 18.6195 5.75651C18.6195 6.09396 18.346 6.36751 18.0085 6.36751C17.5631 6.36751 17.3431 6.56174 17.1973 6.81795C17.0284 7.11446 16.9684 7.49702 16.9524 7.76748C16.9523 7.7691 16.9522 7.77071 16.9521 7.77232C16.9471 7.84711 16.946 7.9221 16.9487 7.997C16.9489 8.00438 16.9491 8.01177 16.9491 8.01916V16.7362C16.949 17.3781 16.6984 17.9946 16.2506 18.4546C15.8028 18.9145 15.1931 19.1814 14.5514 19.1985C14.54 19.1988 14.5286 19.1988 14.5171 19.1984C13.354 19.1642 12.6814 18.5025 12.3272 17.8849C12.1919 17.6491 12.1006 17.4176 12.0395 17.2247H7.94761C7.61016 17.2247 7.33661 16.9511 7.33661 16.6137V7.60934C7.33661 7.60933 7.33661 7.60932 7.33661 7.6093C7.33658 6.97943 7.5778 6.37347 8.01072 5.91596C8.44173 5.46045 9.03015 5.18654 9.65596 5.14985C9.71288 5.14546 9.76534 5.14549 9.79501 5.14551ZM13.1291 16.5405C13.1292 16.5413 13.1295 16.5435 13.13 16.5468C13.1311 16.5544 13.1333 16.5682 13.1367 16.5872C13.1436 16.6254 13.1557 16.6838 13.1751 16.7557C13.2144 16.9018 13.2808 17.0913 13.3872 17.2769C13.5896 17.6298 13.9191 17.9523 14.5355 17.9764C14.8527 17.9637 15.1533 17.8298 15.3751 17.602C15.6008 17.3703 15.7271 17.0596 15.7271 16.7361C15.7271 16.7361 15.7271 16.7361 15.7271 16.7361V8.02969C15.7234 7.91745 15.7253 7.80509 15.7327 7.69303C15.751 7.3861 15.8154 6.86262 16.0544 6.36751H9.8004C9.78205 6.36751 9.77153 6.36753 9.76215 6.36773C9.75384 6.36791 9.75066 6.36817 9.75055 6.36818C9.74427 6.36872 9.73798 6.36916 9.73169 6.36951C9.41473 6.38702 9.11651 6.52527 8.89833 6.75585C8.68015 6.98642 8.55858 7.29182 8.5586 7.60926V16.0027H12.5225C12.8318 16.0027 13.0921 16.2338 13.1291 16.5405Z" fill="white"/>
<path fill-rule="evenodd" clip-rule="evenodd" d="M4.14746 16.6139C4.1475 16.2764 4.42104 16.0029 4.75846 16.0029H12.5225C12.8318 16.0029 13.0921 16.234 13.1291 16.5407C13.1292 16.5415 13.1295 16.5437 13.13 16.5471C13.1311 16.5547 13.1333 16.5684 13.1367 16.5874C13.1437 16.6256 13.1557 16.6841 13.1751 16.756C13.2144 16.902 13.2808 17.0916 13.3872 17.2772C13.5915 17.6336 13.925 17.9587 14.5522 17.9772C14.8767 17.9868 15.1371 18.2485 15.145 18.5731C15.1529 18.8977 14.9055 19.1718 14.5818 19.1971C14.5412 19.2003 14.5027 19.2002 14.4882 19.2002L14.4853 19.2002H6.73377C6.73374 19.2002 6.73372 19.2002 6.73369 19.2002C6.39407 19.2002 6.05776 19.1333 5.74398 19.0034C5.43018 18.8734 5.14505 18.6829 4.90488 18.4427C4.66471 18.2026 4.47421 17.9174 4.34425 17.6036C4.21429 17.2898 4.14742 16.9535 4.14746 16.6139ZM13.1294 16.5428L13.1294 16.5429L13.1294 16.5428ZM5.51384 17.2249C5.57926 17.3556 5.66535 17.475 5.76896 17.5787C5.89564 17.7053 6.04603 17.8058 6.21155 17.8744C6.37707 17.9429 6.55447 17.9782 6.73362 17.9782H12.3827C12.3634 17.9471 12.3448 17.916 12.3271 17.885C12.1918 17.6492 12.1006 17.4178 12.0394 17.2249H5.51384ZM13.1294 16.5434C13.1294 16.5434 13.1294 16.5434 13.1294 16.5434L13.1294 16.5432C13.1294 16.5433 13.1294 16.5433 13.1294 16.5434Z" fill="white"/>
</svg>
