<svg width="63" height="171" viewBox="0 0 63 171" fill="none" xmlns="http://www.w3.org/2000/svg">
<mask id="path-1-inside-1" fill="white">
<path fill-rule="evenodd" clip-rule="evenodd" d="M63 31.5C63 42.9585 56.8819 52.988 47.7341 58.5C56.8819 64.012 63 74.0415 63 85.5C63 96.9585 56.8819 106.988 47.7341 112.5C56.8819 118.012 63 128.042 63 139.5C63 156.897 48.897 171 31.5 171C14.103 171 0 156.897 0 139.5C0 128.042 6.11812 118.012 15.2659 112.5C6.11812 106.988 0 96.9585 0 85.5C0 74.0415 6.11812 64.012 15.2659 58.5C6.11812 52.988 0 42.9585 0 31.5C0 14.103 14.103 0 31.5 0C48.897 0 63 14.103 63 31.5Z"/>
</mask>
<path fill-rule="evenodd" clip-rule="evenodd" d="M63 31.5C63 42.9585 56.8819 52.988 47.7341 58.5C56.8819 64.012 63 74.0415 63 85.5C63 96.9585 56.8819 106.988 47.7341 112.5C56.8819 118.012 63 128.042 63 139.5C63 156.897 48.897 171 31.5 171C14.103 171 0 156.897 0 139.5C0 128.042 6.11812 118.012 15.2659 112.5C6.11812 106.988 0 96.9585 0 85.5C0 74.0415 6.11812 64.012 15.2659 58.5C6.11812 52.988 0 42.9585 0 31.5C0 14.103 14.103 0 31.5 0C48.897 0 63 14.103 63 31.5Z" fill="black" fill-opacity="0.3"/>
<path d="M47.7341 58.5L46.7019 56.7869L43.859 58.5L46.7019 60.2131L47.7341 58.5ZM47.7341 112.5L46.7019 110.787L43.859 112.5L46.7019 114.213L47.7341 112.5ZM15.2659 112.5L16.2981 114.213L19.141 112.5L16.2981 110.787L15.2659 112.5ZM15.2659 58.5L16.2981 60.2131L19.141 58.5L16.2981 56.7869L15.2659 58.5ZM48.7663 60.2131C58.4897 54.3542 65 43.6884 65 31.5H61C61 42.2286 55.2741 51.6217 46.7019 56.7869L48.7663 60.2131ZM65 85.5C65 73.3116 58.4897 62.6458 48.7663 56.7869L46.7019 60.2131C55.2741 65.3783 61 74.7714 61 85.5H65ZM48.7663 114.213C58.4897 108.354 65 97.6884 65 85.5H61C61 96.2286 55.2741 105.622 46.7019 110.787L48.7663 114.213ZM46.7019 114.213C55.2741 119.378 61 128.771 61 139.5H65C65 127.312 58.4897 116.646 48.7663 110.787L46.7019 114.213ZM61 139.5C61 155.792 47.7924 169 31.5 169V173C50.0015 173 65 158.002 65 139.5H61ZM31.5 169C15.2076 169 2 155.792 2 139.5H-2C-2 158.002 12.9985 173 31.5 173V169ZM2 139.5C2 128.771 7.72591 119.378 16.2981 114.213L14.2336 110.787C4.51032 116.646 -2 127.312 -2 139.5H2ZM-2 85.5C-2 97.6884 4.51032 108.354 14.2336 114.213L16.2981 110.787C7.72591 105.622 2 96.2286 2 85.5H-2ZM14.2336 56.7869C4.51032 62.6458 -2 73.3116 -2 85.5H2C2 74.7714 7.72592 65.3783 16.2981 60.2131L14.2336 56.7869ZM-2 31.5C-2 43.6884 4.51032 54.3542 14.2336 60.2131L16.2981 56.7869C7.72592 51.6217 2 42.2286 2 31.5H-2ZM31.5 -2C12.9985 -2 -2 12.9985 -2 31.5H2C2 15.2076 15.2076 2 31.5 2V-2ZM65 31.5C65 12.9985 50.0015 -2 31.5 -2V2C47.7924 2 61 15.2076 61 31.5H65Z" fill="#001E26" mask="url(#path-1-inside-1)"/>
</svg>
