<svg width="32" height="43" viewBox="0 0 32 43" fill="none" xmlns="http://www.w3.org/2000/svg">
<path opacity="0.4" d="M28 16.125H26.6667V10.75C26.6667 4.82137 21.8827 0 16 0C10.1173 0 5.33333 4.82137 5.33333 10.75V16.125H4C1.79556 16.125 0 17.9328 0 20.1562V38.9688C0 41.1922 1.79556 43 4 43H28C30.2044 43 32 41.1922 32 38.9688V20.1562C32 17.9328 30.2044 16.125 28 16.125ZM8.88889 10.75C8.88889 6.79758 12.0782 3.58333 16 3.58333C19.9218 3.58333 23.1111 6.79758 23.1111 10.75V16.125H8.88889V10.75ZM17.7778 29.9602V34.0417C17.7778 35.0307 16.9831 35.8333 16 35.8333C15.0169 35.8333 14.2222 35.0307 14.2222 34.0417V29.9602C13.1644 29.3385 12.4444 28.1955 12.4444 26.875C12.4444 24.8988 14.0391 23.2917 16 23.2917C17.9609 23.2917 19.5556 24.8988 19.5556 26.875C19.5556 28.1955 18.8356 29.3385 17.7778 29.9602Z" fill="black"/>
</svg>
