<svg width="138" height="137" viewBox="0 0 138 137" fill="none" xmlns="http://www.w3.org/2000/svg">
<g filter="url(#filter0_d)">
<path d="M77.2029 6.42188L51.3279 50.9148L71.8683 62.6882L70.2899 56.84L76.1808 55.2731L72.7351 48.3524L78.626 46.7855L75.1803 39.867L81.0712 38.3001L77.6255 31.3816L83.5164 29.8146L81.938 23.9664L87.8289 22.3995L88.4067 12.8438L77.2029 6.42188Z" fill="#D0D8DA"/>
<path d="M75.1798 39.867L75.8418 39.6915C74.1082 38.039 72.9819 35.8579 72.6423 33.496C72.3027 31.1341 72.7694 28.7273 73.968 26.6593L83.6043 10.0909L77.1937 6.42188L51.3187 50.9148L71.8592 62.6882L70.2937 56.84L76.1846 55.2709L72.7346 48.3524L78.6255 46.7855L75.1798 39.867Z" fill="#93999A"/>
<path d="M17.25 130.579C16.8711 130.579 16.4989 130.48 16.1707 130.293C15.8425 130.105 15.57 129.834 15.3805 129.509L13.2243 125.801C13.0821 125.557 12.9898 125.288 12.9527 125.009C12.9155 124.73 12.9342 124.446 13.0077 124.174C13.0812 123.902 13.2081 123.647 13.3811 123.423C13.554 123.2 13.7697 123.013 14.0156 122.873L32.6909 112.169C33.1864 111.886 33.7753 111.809 34.3278 111.956C34.8804 112.103 35.3515 112.462 35.6374 112.954C35.9234 113.446 36.0007 114.03 35.8525 114.579C35.7043 115.128 35.3427 115.595 34.8472 115.879L18.0413 125.512L19.1195 127.366C19.3093 127.691 19.4094 128.061 19.4096 128.437C19.4098 128.813 19.3101 129.183 19.1205 129.509C18.9309 129.835 18.6582 130.105 18.3298 130.293C18.0015 130.481 17.629 130.579 17.25 130.579Z" fill="#9A7E3B"/>
<path d="M17.8282 100.764L26.4532 115.594C27.6441 117.642 30.2815 118.343 32.3441 117.161L47.2826 108.599C49.3452 107.416 50.0519 104.798 48.861 102.75L40.236 87.9202C39.0451 85.8726 36.4077 85.171 34.3451 86.3533L19.4066 94.9158C17.344 96.098 16.6374 98.7163 17.8282 100.764Z" fill="#FABC29"/>
<path d="M30.3363 88.6499C31.4236 91.4985 31.4557 94.638 30.4268 97.5079C29.3979 100.378 27.375 102.791 24.7193 104.317L21.1011 106.389L26.4529 115.594C27.0248 116.577 27.9667 117.295 29.0714 117.589C30.1762 117.882 31.3533 117.729 32.3438 117.161L47.2844 108.598C48.2749 108.031 48.9976 107.096 49.2936 105.999C49.5896 104.902 49.4346 103.734 48.8628 102.75L40.2378 87.9178C39.6659 86.9346 38.724 86.2171 37.6192 85.9232C36.5145 85.6294 35.3374 85.7832 34.3469 86.3509L30.3363 88.6499Z" fill="#D7A01F"/>
<path d="M33.3442 106.038C35.726 106.038 37.6567 104.121 37.6567 101.757C37.6567 99.3924 35.726 97.4756 33.3442 97.4756C30.9625 97.4756 29.0317 99.3924 29.0317 101.757C29.0317 104.121 30.9625 106.038 33.3442 106.038Z" fill="#F89C8D"/>
<path d="M32.4235 102.77C31.4798 103.308 30.3652 103.47 29.3055 103.223C29.3876 103.456 29.4893 103.682 29.6096 103.898C29.9657 104.515 30.4714 105.035 31.0809 105.41C31.6903 105.785 32.3843 106.003 33.1 106.045C33.8158 106.087 34.5307 105.95 35.1801 105.649C35.8295 105.347 36.3928 104.889 36.8193 104.317C37.2457 103.745 37.5216 103.076 37.6222 102.372C37.7228 101.667 37.6448 100.948 37.3953 100.281C37.1458 99.6138 36.7326 99.0188 36.1932 98.5499C35.6538 98.081 35.0051 97.7531 34.3059 97.5957C34.6544 98.5402 34.6567 99.5764 34.3125 100.523C33.9683 101.469 33.2995 102.264 32.4235 102.77Z" fill="#F8664F"/>
<path d="M15.0928 57.7939L52.439 79.2002L43.814 94.0304L6.46777 72.6242L15.0928 57.7939Z" fill="#84D2F4"/>
<path d="M29.4285 66.0117C27.9248 68.2904 25.6004 69.9122 22.9314 70.5449C20.2625 71.1777 17.4508 70.7736 15.0722 69.4153L10.0201 66.519L6.46875 72.6262L43.815 94.0325L52.44 79.2022L29.4285 66.0117Z" fill="#57B7EB"/>
<path d="M24.4303 63.1475L20.1178 70.5626C19.9772 70.808 19.7891 71.0234 19.5644 71.1964C19.3397 71.3693 19.0827 71.4964 18.8082 71.5704C18.5338 71.6444 18.2474 71.6637 17.9654 71.6273C17.6834 71.591 17.4114 71.4995 17.1651 71.3584C16.9189 71.2172 16.7032 71.0291 16.5304 70.8049C16.3577 70.5806 16.2313 70.3246 16.1587 70.0517C16.086 69.7788 16.0684 69.4943 16.1069 69.2146C16.1454 68.9349 16.2393 68.6655 16.3831 68.422L20.6956 61.0068L24.4303 63.1475Z" fill="#FDDA65"/>
<path d="M31.8995 67.4287L27.587 74.8438C27.4464 75.0892 27.2584 75.3046 27.0336 75.4776C26.8089 75.6506 26.5519 75.7777 26.2775 75.8517C26.0031 75.9256 25.7166 75.945 25.4346 75.9086C25.1526 75.8722 24.8806 75.7808 24.6344 75.6396C24.3881 75.4985 24.1724 75.3104 23.9997 75.0861C23.8269 74.8619 23.7006 74.6059 23.6279 74.333C23.5552 74.06 23.5376 73.7755 23.5762 73.4958C23.6147 73.2161 23.7085 72.9468 23.8524 72.7032L28.1649 65.2881L31.8995 67.4287Z" fill="#FDDA65"/>
<path d="M19.9022 70.8336C19.7062 71.0843 19.4542 71.2863 19.166 71.4238C18.8779 71.5612 18.5615 71.6303 18.2419 71.6257C17.8643 71.6274 17.4927 71.5315 17.1638 71.3474C16.9009 71.1974 16.6728 70.994 16.4945 70.7506C16.3162 70.5071 16.1915 70.2291 16.1288 69.9346C17.3135 70.4815 18.5965 70.7872 19.9022 70.8336Z" fill="#FABC29"/>
<path d="M31.891 67.4294L27.5785 74.836C27.3955 75.164 27.1265 75.4366 26.8 75.6251C26.4736 75.8135 26.1018 75.9107 25.7241 75.9063C25.3462 75.9106 24.974 75.8145 24.646 75.628C24.1513 75.3415 23.7902 74.8731 23.6409 74.3242C23.4916 73.7753 23.566 73.1901 23.8482 72.6953L25.7673 69.4202C27.2439 68.5905 28.5004 67.4238 29.4329 66.0166L31.891 67.4294Z" fill="#FABC29"/>
<path d="M18.6611 24.3965L35.4303 7.74884L50.675 22.8831L33.9058 39.5307L18.6611 24.3965Z" fill="#D0D8DA"/>
<path d="M6.46375 36.5L12.5616 30.4463L27.8063 45.5805L21.7084 51.6342L6.46375 36.5Z" fill="#D0D8DA"/>
<path d="M15.6127 33.4766L21.7115 27.422L30.8597 36.5039L24.7609 42.5585L15.6127 33.4766Z" fill="#656B76"/>
<path d="M58.3093 9.25795L58.1692 9.29648C55.6577 9.9759 53.3685 11.2945 51.5279 13.1217C49.6873 14.949 48.3591 17.2217 47.6747 19.7149L47.6359 19.854L38.4869 10.7714C40.7068 8.56715 43.569 7.11225 46.6681 6.6128C49.7672 6.11334 52.946 6.59466 55.7542 7.98856L58.3093 9.25795Z" fill="#D0D8DA"/>
<path d="M38.4789 34.9922L47.6257 25.9117L78.1151 56.1801L68.9683 65.2606L38.4789 34.9922Z" fill="#57B7EB"/>
<path d="M40.0113 24.9137C39.2104 25.7089 38.2596 26.3396 37.2131 26.7699C36.1667 27.2003 35.0451 27.4218 33.9124 27.4218C32.7797 27.4218 31.6581 27.2003 30.6116 26.7699C29.5652 26.3396 28.6144 25.7089 27.8134 24.9137L22.9791 20.1208L18.6666 24.4021L33.9135 39.5385L50.6848 22.8887L46.3723 18.6074L40.0113 24.9137Z" fill="#93999A"/>
<path d="M17.1422 42.8123L8.625 34.3633L6.46875 36.5039L21.7156 51.6403L27.8156 45.5951L25.5947 43.3817C24.3539 44.3158 22.8147 44.7727 21.2611 44.6681C19.7075 44.5634 18.2445 43.9043 17.1422 42.8123Z" fill="#93999A"/>
<path d="M53.6411 7.14062C52.084 8.20434 50.7436 9.55093 49.6908 11.1093C49.3795 11.5855 48.9649 11.9865 48.4773 12.283C47.9897 12.5795 47.4414 12.764 46.8727 12.8229C46.304 12.8818 45.7292 12.8136 45.1904 12.6235C44.6516 12.4333 44.1626 12.1258 43.759 11.7237L40.8933 8.87881C40.0275 9.42542 39.2211 10.0596 38.4869 10.7711L47.6359 19.8538L47.6726 19.7147C48.3577 17.2215 49.6864 14.9489 51.5273 13.1217C53.3683 11.2945 55.6576 9.97591 58.1692 9.29623L58.3093 9.2577L55.7542 7.99045C55.0725 7.65439 54.3661 7.37029 53.6411 7.14062Z" fill="#93999A"/>
<path d="M54.4108 32.6336L51.6767 35.3479C51.1192 35.9008 50.3634 36.2113 49.5755 36.2113C48.7875 36.2113 48.0317 35.9008 47.4742 35.3479C46.9172 34.7941 46.6044 34.0435 46.6044 33.2608C46.6044 32.4782 46.9172 31.7276 47.4742 31.1737L50.2062 28.4701L47.6359 25.9014L38.4869 34.984L68.9806 65.2632L78.1296 56.1805L54.4108 32.6336Z" fill="#4891D3"/>
<path d="M74.7184 62.0769L71.5983 58.9794L105.141 25.6777L114.29 34.7604L90.1808 58.6926L74.7184 62.0769Z" fill="#93999A"/>
<path d="M102.799 28.0029L92.2034 38.5305C92.5977 39.0224 93.0196 39.492 93.4669 39.9369C96.3175 42.7751 100.084 44.5252 104.106 44.8796L114.281 34.7609L111.047 31.5499L108.705 33.8747L102.799 28.0029Z" fill="#656B76"/>
<path d="M130.166 18.9996L117.339 31.7341L108.19 22.6515L121.017 9.91689C117.332 8.36575 113.217 8.13547 109.379 9.26549C105.542 10.3955 102.219 12.8155 99.9813 16.1107C97.7436 19.4059 96.7299 23.3711 97.1141 27.3269C97.4982 31.2827 99.2562 34.9827 102.087 37.7928C104.917 40.6029 108.644 42.3482 112.629 42.7296C116.614 43.1109 120.608 42.1046 123.927 39.8831C127.246 37.6615 129.684 34.3631 130.822 30.553C131.961 26.7429 131.729 22.6585 130.166 18.9996Z" fill="#D0D8DA"/>
<path d="M128.642 29.2254C126.248 31.6058 123.2 33.233 119.879 33.9033C116.559 34.5737 113.113 34.2575 109.972 32.9944C106.831 31.7313 104.135 29.5772 102.221 26.8014C100.307 24.0257 99.2592 20.7513 99.209 17.3877C97.9189 19.6806 97.1778 22.2377 97.0431 24.8607C96.9084 27.4837 97.3838 30.1022 98.4324 32.5135C99.4811 34.9248 101.075 37.0641 103.09 38.7656C105.105 40.4671 107.488 41.6852 110.054 42.3254C112.62 42.9657 115.3 43.011 117.886 42.4578C120.472 41.9046 122.895 40.7678 124.968 39.1354C127.04 37.503 128.706 35.4188 129.837 33.0443C130.968 30.6699 131.533 28.0689 131.488 25.4429C130.722 26.8293 129.764 28.1025 128.642 29.2254Z" fill="#93999A"/>
<path d="M127.219 94.1875V72.7812H117.043C116.251 70.0352 115.152 67.3858 113.766 64.8823L120.948 57.7519L105.702 42.6156L98.5191 49.746C95.9972 48.3707 93.3285 47.2793 90.5625 46.4922V36.3906H69V46.4922C66.234 47.2793 63.5653 48.3707 61.0434 49.746L53.861 42.6156L38.6141 57.7519L45.7966 64.8823C44.4109 67.3858 43.3116 70.0352 42.5191 72.7812H32.3438V94.1875H42.5191C43.3119 96.9334 44.4112 99.5828 45.7966 102.086L38.6141 109.217L53.861 124.353L61.0434 117.223C63.5653 118.598 66.234 119.689 69 120.477V130.578H90.5625V120.477C93.3285 119.689 95.9972 118.598 98.5191 117.223L105.702 124.353L120.948 109.217L113.766 102.086C115.151 99.5828 116.251 96.9334 117.043 94.1875H127.219ZM79.7812 102.75C75.9431 102.75 72.1911 101.62 68.9997 99.5032C65.8084 97.3862 63.321 94.3773 61.8522 90.857C60.3834 87.3367 59.9991 83.463 60.7479 79.7258C61.4967 75.9887 63.3449 72.5559 66.059 69.8615C68.773 67.1672 72.2308 65.3323 75.9953 64.5889C79.7597 63.8456 83.6617 64.2271 87.2077 65.6853C90.7537 67.1434 93.7846 69.6127 95.917 72.781C98.0493 75.9492 99.1875 79.674 99.1875 83.4844C99.1875 88.5939 97.1429 93.4942 93.5035 97.1072C89.8642 100.72 84.9281 102.75 79.7812 102.75Z" fill="#FDDA65"/>
<path d="M105.656 115.593C96.9873 115.592 88.4365 113.596 80.676 109.761C72.9154 105.925 66.1565 100.356 60.9304 93.4891C55.7043 86.6226 52.1534 78.6465 50.5567 70.1876C48.9601 61.7286 49.3611 53.0174 51.7284 44.7383L38.6141 57.7576L45.7966 64.888C44.4114 67.3894 43.3121 70.0367 42.5191 72.7805H32.3438V94.1867H42.5191C43.3119 96.9326 44.4112 99.582 45.7966 102.086L38.6141 109.216L53.861 124.352L61.0434 117.222C63.5653 118.597 66.234 119.689 69 120.476V130.577H90.5625V120.476C93.3284 119.689 95.9972 118.597 98.5191 117.222L105.702 124.352L115.383 114.741C112.172 115.304 108.917 115.589 105.656 115.593Z" fill="#FABC29"/>
</g>
<path d="M77.2029 6.42188L51.3279 50.9148L71.8683 62.6882L70.2899 56.84L76.1808 55.2731L72.7351 48.3524L78.626 46.7855L75.1803 39.867L81.0712 38.3001L77.6255 31.3816L83.5164 29.8146L81.938 23.9664L87.8289 22.3995L88.4067 12.8438L77.2029 6.42188Z" fill="#D0D8DA"/>
<path d="M75.1798 39.867L75.8418 39.6915C74.1082 38.039 72.9819 35.8579 72.6423 33.496C72.3027 31.1341 72.7694 28.7273 73.968 26.6593L83.6043 10.0909L77.1937 6.42188L51.3187 50.9148L71.8592 62.6882L70.2937 56.84L76.1846 55.2709L72.7346 48.3524L78.6255 46.7855L75.1798 39.867Z" fill="#93999A"/>
<path d="M17.25 130.579C16.8711 130.579 16.4989 130.48 16.1707 130.293C15.8425 130.105 15.57 129.834 15.3805 129.509L13.2243 125.801C13.0821 125.557 12.9898 125.288 12.9527 125.009C12.9155 124.73 12.9342 124.446 13.0077 124.174C13.0812 123.902 13.2081 123.647 13.3811 123.423C13.554 123.2 13.7697 123.013 14.0156 122.873L32.6909 112.169C33.1864 111.886 33.7753 111.809 34.3278 111.956C34.8804 112.103 35.3515 112.462 35.6374 112.954C35.9234 113.446 36.0007 114.03 35.8525 114.579C35.7043 115.128 35.3427 115.595 34.8472 115.879L18.0413 125.512L19.1195 127.366C19.3093 127.691 19.4094 128.061 19.4096 128.437C19.4098 128.813 19.3101 129.183 19.1205 129.509C18.9309 129.835 18.6582 130.105 18.3298 130.293C18.0015 130.481 17.629 130.579 17.25 130.579Z" fill="#9A7E3B"/>
<path d="M17.8282 100.764L26.4532 115.594C27.6441 117.642 30.2815 118.343 32.3441 117.161L47.2826 108.599C49.3452 107.416 50.0519 104.798 48.861 102.75L40.236 87.9202C39.0451 85.8726 36.4077 85.171 34.3451 86.3533L19.4066 94.9158C17.344 96.098 16.6374 98.7163 17.8282 100.764Z" fill="#FABC29"/>
<path d="M30.3363 88.6499C31.4236 91.4985 31.4557 94.638 30.4268 97.5079C29.3979 100.378 27.375 102.791 24.7193 104.317L21.1011 106.389L26.4529 115.594C27.0248 116.577 27.9667 117.295 29.0714 117.589C30.1762 117.882 31.3533 117.729 32.3438 117.161L47.2844 108.598C48.2749 108.031 48.9976 107.096 49.2936 105.999C49.5896 104.902 49.4346 103.734 48.8628 102.75L40.2378 87.9178C39.6659 86.9346 38.724 86.2171 37.6192 85.9232C36.5145 85.6294 35.3374 85.7832 34.3469 86.3509L30.3363 88.6499Z" fill="#D7A01F"/>
<path d="M33.3442 106.038C35.726 106.038 37.6567 104.121 37.6567 101.757C37.6567 99.3924 35.726 97.4756 33.3442 97.4756C30.9625 97.4756 29.0317 99.3924 29.0317 101.757C29.0317 104.121 30.9625 106.038 33.3442 106.038Z" fill="#F89C8D"/>
<path d="M32.4235 102.77C31.4798 103.308 30.3652 103.47 29.3055 103.223C29.3876 103.456 29.4893 103.682 29.6096 103.898C29.9657 104.515 30.4714 105.035 31.0809 105.41C31.6903 105.785 32.3843 106.003 33.1 106.045C33.8158 106.087 34.5307 105.95 35.1801 105.649C35.8295 105.347 36.3928 104.889 36.8193 104.317C37.2457 103.745 37.5216 103.076 37.6222 102.372C37.7228 101.667 37.6448 100.948 37.3953 100.281C37.1458 99.6138 36.7326 99.0188 36.1932 98.5499C35.6538 98.081 35.0051 97.7531 34.3059 97.5957C34.6544 98.5402 34.6567 99.5764 34.3125 100.523C33.9683 101.469 33.2995 102.264 32.4235 102.77Z" fill="#F8664F"/>
<path d="M15.0928 57.7939L52.439 79.2002L43.814 94.0304L6.46777 72.6242L15.0928 57.7939Z" fill="#84D2F4"/>
<path d="M29.4285 66.0117C27.9248 68.2904 25.6004 69.9122 22.9314 70.5449C20.2625 71.1777 17.4508 70.7736 15.0722 69.4153L10.0201 66.519L6.46875 72.6262L43.815 94.0325L52.44 79.2022L29.4285 66.0117Z" fill="#57B7EB"/>
<path d="M24.4303 63.1475L20.1178 70.5626C19.9772 70.808 19.7891 71.0234 19.5644 71.1964C19.3397 71.3693 19.0827 71.4964 18.8082 71.5704C18.5338 71.6444 18.2474 71.6637 17.9654 71.6273C17.6834 71.591 17.4114 71.4995 17.1651 71.3584C16.9189 71.2172 16.7032 71.0291 16.5304 70.8049C16.3577 70.5806 16.2313 70.3246 16.1587 70.0517C16.086 69.7788 16.0684 69.4943 16.1069 69.2146C16.1454 68.9349 16.2393 68.6655 16.3831 68.422L20.6956 61.0068L24.4303 63.1475Z" fill="#FDDA65"/>
<path d="M31.8995 67.4287L27.587 74.8438C27.4464 75.0892 27.2584 75.3046 27.0336 75.4776C26.8089 75.6506 26.5519 75.7777 26.2775 75.8517C26.0031 75.9256 25.7166 75.945 25.4346 75.9086C25.1526 75.8722 24.8806 75.7808 24.6344 75.6396C24.3881 75.4985 24.1724 75.3104 23.9997 75.0861C23.8269 74.8619 23.7006 74.6059 23.6279 74.333C23.5552 74.06 23.5376 73.7755 23.5762 73.4958C23.6147 73.2161 23.7085 72.9468 23.8524 72.7032L28.1649 65.2881L31.8995 67.4287Z" fill="#FDDA65"/>
<path d="M19.9022 70.8336C19.7062 71.0843 19.4542 71.2863 19.166 71.4238C18.8779 71.5612 18.5615 71.6303 18.2419 71.6257C17.8643 71.6274 17.4927 71.5315 17.1638 71.3474C16.9009 71.1974 16.6728 70.994 16.4945 70.7506C16.3162 70.5071 16.1915 70.2291 16.1288 69.9346C17.3135 70.4815 18.5965 70.7872 19.9022 70.8336Z" fill="#FABC29"/>
<path d="M31.891 67.4294L27.5785 74.836C27.3955 75.164 27.1265 75.4366 26.8 75.6251C26.4736 75.8135 26.1018 75.9107 25.7241 75.9063C25.3462 75.9106 24.974 75.8145 24.646 75.628C24.1513 75.3415 23.7902 74.8731 23.6409 74.3242C23.4916 73.7753 23.566 73.1901 23.8482 72.6953L25.7673 69.4202C27.2439 68.5905 28.5004 67.4238 29.4329 66.0166L31.891 67.4294Z" fill="#FABC29"/>
<path d="M18.6611 24.3965L35.4303 7.74884L50.675 22.8831L33.9058 39.5307L18.6611 24.3965Z" fill="#D0D8DA"/>
<path d="M6.46375 36.5L12.5616 30.4463L27.8063 45.5805L21.7084 51.6342L6.46375 36.5Z" fill="#D0D8DA"/>
<path d="M15.6127 33.4766L21.7115 27.422L30.8597 36.5039L24.7609 42.5585L15.6127 33.4766Z" fill="#656B76"/>
<path d="M58.3093 9.25795L58.1692 9.29648C55.6577 9.9759 53.3685 11.2945 51.5279 13.1217C49.6873 14.949 48.3591 17.2217 47.6747 19.7149L47.6359 19.854L38.4869 10.7714C40.7068 8.56715 43.569 7.11225 46.6681 6.6128C49.7672 6.11334 52.946 6.59466 55.7542 7.98856L58.3093 9.25795Z" fill="#D0D8DA"/>
<path d="M38.4789 34.9922L47.6257 25.9117L78.1151 56.1801L68.9683 65.2606L38.4789 34.9922Z" fill="#57B7EB"/>
<path d="M40.0113 24.9137C39.2104 25.7089 38.2596 26.3396 37.2131 26.7699C36.1667 27.2003 35.0451 27.4218 33.9124 27.4218C32.7797 27.4218 31.6581 27.2003 30.6116 26.7699C29.5652 26.3396 28.6144 25.7089 27.8134 24.9137L22.9791 20.1208L18.6666 24.4021L33.9135 39.5385L50.6848 22.8887L46.3723 18.6074L40.0113 24.9137Z" fill="#93999A"/>
<path d="M17.1422 42.8123L8.625 34.3633L6.46875 36.5039L21.7156 51.6403L27.8156 45.5951L25.5947 43.3817C24.3539 44.3158 22.8147 44.7727 21.2611 44.6681C19.7075 44.5634 18.2445 43.9043 17.1422 42.8123Z" fill="#93999A"/>
<path d="M53.6411 7.14062C52.084 8.20434 50.7436 9.55093 49.6908 11.1093C49.3795 11.5855 48.9649 11.9865 48.4773 12.283C47.9897 12.5795 47.4414 12.764 46.8727 12.8229C46.304 12.8818 45.7292 12.8136 45.1904 12.6235C44.6516 12.4333 44.1626 12.1258 43.759 11.7237L40.8933 8.87881C40.0275 9.42542 39.2211 10.0596 38.4869 10.7711L47.6359 19.8538L47.6726 19.7147C48.3577 17.2215 49.6864 14.9489 51.5273 13.1217C53.3683 11.2945 55.6576 9.97591 58.1692 9.29623L58.3093 9.2577L55.7542 7.99045C55.0725 7.65439 54.3661 7.37029 53.6411 7.14062Z" fill="#93999A"/>
<path d="M54.4108 32.6336L51.6767 35.3479C51.1192 35.9008 50.3634 36.2113 49.5755 36.2113C48.7875 36.2113 48.0317 35.9008 47.4742 35.3479C46.9172 34.7941 46.6044 34.0435 46.6044 33.2608C46.6044 32.4782 46.9172 31.7276 47.4742 31.1737L50.2062 28.4701L47.6359 25.9014L38.4869 34.984L68.9806 65.2632L78.1296 56.1805L54.4108 32.6336Z" fill="#4891D3"/>
<path d="M74.7184 62.0769L71.5983 58.9794L105.141 25.6777L114.29 34.7604L90.1808 58.6926L74.7184 62.0769Z" fill="#93999A"/>
<path d="M102.799 28.0029L92.2034 38.5305C92.5977 39.0224 93.0196 39.492 93.4669 39.9369C96.3175 42.7751 100.084 44.5252 104.106 44.8796L114.281 34.7609L111.047 31.5499L108.705 33.8747L102.799 28.0029Z" fill="#656B76"/>
<path d="M130.166 18.9996L117.339 31.7341L108.19 22.6515L121.017 9.91689C117.332 8.36575 113.217 8.13547 109.379 9.26549C105.542 10.3955 102.219 12.8155 99.9813 16.1107C97.7436 19.4059 96.7299 23.3711 97.1141 27.3269C97.4982 31.2827 99.2562 34.9827 102.087 37.7928C104.917 40.6029 108.644 42.3482 112.629 42.7296C116.614 43.1109 120.608 42.1046 123.927 39.8831C127.246 37.6615 129.684 34.3631 130.822 30.553C131.961 26.7429 131.729 22.6585 130.166 18.9996Z" fill="#D0D8DA"/>
<path d="M128.642 29.2254C126.248 31.6058 123.2 33.233 119.879 33.9033C116.559 34.5737 113.113 34.2575 109.972 32.9944C106.831 31.7313 104.135 29.5772 102.221 26.8014C100.307 24.0257 99.2592 20.7513 99.209 17.3877C97.9189 19.6806 97.1778 22.2377 97.0431 24.8607C96.9084 27.4837 97.3838 30.1022 98.4324 32.5135C99.4811 34.9248 101.075 37.0641 103.09 38.7656C105.105 40.4671 107.488 41.6852 110.054 42.3254C112.62 42.9657 115.3 43.011 117.886 42.4578C120.472 41.9046 122.895 40.7678 124.968 39.1354C127.04 37.503 128.706 35.4188 129.837 33.0443C130.968 30.6699 131.533 28.0689 131.488 25.4429C130.722 26.8293 129.764 28.1025 128.642 29.2254Z" fill="#93999A"/>
<path d="M127.219 94.1875V72.7812H117.043C116.251 70.0352 115.152 67.3858 113.766 64.8823L120.948 57.7519L105.702 42.6156L98.5191 49.746C95.9972 48.3707 93.3285 47.2793 90.5625 46.4922V36.3906H69V46.4922C66.234 47.2793 63.5653 48.3707 61.0434 49.746L53.861 42.6156L38.6141 57.7519L45.7966 64.8823C44.4109 67.3858 43.3116 70.0352 42.5191 72.7812H32.3438V94.1875H42.5191C43.3119 96.9334 44.4112 99.5828 45.7966 102.086L38.6141 109.217L53.861 124.353L61.0434 117.223C63.5653 118.598 66.234 119.689 69 120.477V130.578H90.5625V120.477C93.3285 119.689 95.9972 118.598 98.5191 117.223L105.702 124.353L120.948 109.217L113.766 102.086C115.151 99.5828 116.251 96.9334 117.043 94.1875H127.219ZM79.7812 102.75C75.9431 102.75 72.1911 101.62 68.9997 99.5032C65.8084 97.3862 63.321 94.3773 61.8522 90.857C60.3834 87.3367 59.9991 83.463 60.7479 79.7258C61.4967 75.9887 63.3449 72.5559 66.059 69.8615C68.773 67.1672 72.2308 65.3323 75.9953 64.5889C79.7597 63.8456 83.6617 64.2271 87.2077 65.6853C90.7537 67.1434 93.7846 69.6127 95.917 72.781C98.0493 75.9492 99.1875 79.674 99.1875 83.4844C99.1875 88.5939 97.1429 93.4942 93.5035 97.1072C89.8642 100.72 84.9281 102.75 79.7812 102.75Z" fill="#FDDA65"/>
<path d="M105.656 115.593C96.9873 115.592 88.4365 113.596 80.676 109.761C72.9154 105.925 66.1565 100.356 60.9304 93.4891C55.7043 86.6226 52.1534 78.6465 50.5567 70.1876C48.9601 61.7286 49.3611 53.0174 51.7284 44.7383L38.6141 57.7576L45.7966 64.888C44.4114 67.3894 43.3121 70.0367 42.5191 72.7805H32.3438V94.1867H42.5191C43.3119 96.9326 44.4112 99.582 45.7966 102.086L38.6141 109.216L53.861 124.352L61.0434 117.222C63.5653 118.597 66.234 119.689 69 120.476V130.577H90.5625V120.476C93.3284 119.689 95.9972 118.597 98.5191 117.222L105.702 124.352L115.383 114.741C112.172 115.304 108.917 115.589 105.656 115.593Z" fill="#FABC29"/>
<defs>
<filter id="filter0_d" x="-1" y="0" width="140" height="141" filterUnits="userSpaceOnUse" color-interpolation-filters="sRGB">
<feFlood flood-opacity="0" result="BackgroundImageFix"/>
<feColorMatrix in="SourceAlpha" type="matrix" values="0 0 0 0 0 0 0 0 0 0 0 0 0 0 0 0 0 0 127 0"/>
<feOffset dy="3"/>
<feGaussianBlur stdDeviation="0.5"/>
<feColorMatrix type="matrix" values="0 0 0 0 0 0 0 0 0 0 0 0 0 0 0 0 0 0 0.45 0"/>
<feBlend mode="normal" in2="BackgroundImageFix" result="effect1_dropShadow"/>
<feBlend mode="normal" in="SourceGraphic" in2="effect1_dropShadow" result="shape"/>
</filter>
</defs>
</svg>
