<svg width="76" height="27" viewBox="0 0 76 27" fill="none" xmlns="http://www.w3.org/2000/svg">
<mask id="path-1-outside-1" maskUnits="userSpaceOnUse" x="0" y="0" width="76" height="27" fill="black">
<rect fill="white" width="76" height="27"/>
<path fill-rule="evenodd" clip-rule="evenodd" d="M9 1C4.58172 1 1 4.58172 1 9V14.6216V18C1 22.4183 4.58172 26 9 26H67C71.4183 26 75 22.4183 75 18V14.6216V9C75 4.58172 71.4183 1 67 1H9Z"/>
</mask>
<path fill-rule="evenodd" clip-rule="evenodd" d="M9 1C4.58172 1 1 4.58172 1 9V14.6216V18C1 22.4183 4.58172 26 9 26H67C71.4183 26 75 22.4183 75 18V14.6216V9C75 4.58172 71.4183 1 67 1H9Z" fill="#C4C4C4"/>
<path d="M2 9C2 5.134 5.13401 2 9 2V0C4.02944 0 0 4.02943 0 9H2ZM2 14.6216V9H0V14.6216H2ZM0 14.6216V18H2V14.6216H0ZM0 18C0 22.9706 4.02944 27 9 27V25C5.13401 25 2 21.866 2 18H0ZM9 27H67V25H9V27ZM67 27C71.9706 27 76 22.9706 76 18H74C74 21.866 70.866 25 67 25V27ZM76 18V14.6216H74V18H76ZM74 9V14.6216H76V9H74ZM67 2C70.866 2 74 5.13401 74 9H76C76 4.02944 71.9706 0 67 0V2ZM9 2H67V0H9V2Z" fill="#001E26" mask="url(#path-1-outside-1)"/>
<g filter="url(#filter0_d)">
<rect x="1" y="1" width="74" height="21.6216" rx="8" fill="#00A946"/>
</g>
<path fill-rule="evenodd" clip-rule="evenodd" d="M1 14.6221V18.0005C1 22.4187 4.58172 26.0005 9 26.0005H67C71.4183 26.0005 75 22.4187 75 18.0005V14.6221C75 19.0404 71.4183 22.6221 67 22.6221H9C4.58172 22.6221 1 19.0403 1 14.6221Z" fill="#06602B"/>
<path fill-rule="evenodd" clip-rule="evenodd" d="M1 12.4443V13.9959C1 18.4142 4.58172 21.9959 9 21.9959H67C71.4183 21.9959 75 18.4142 75 13.9959V12.4443C75 16.8626 71.4183 20.4443 67 20.4443H9C4.58172 20.4443 1 16.8626 1 12.4443Z" fill="#008E3B"/>
<path d="M5 7.18182C5 5.42455 6.42455 4 8.18182 4H67.8182C69.5755 4 71 5.42455 71 7.18182C71 9.29054 69.2905 11 67.1818 11H8.81818C6.70946 11 5 9.29054 5 7.18182Z" fill="#05D35B"/>
<rect x="1.5" y="1.5" width="73" height="20.6216" rx="7.5" stroke="url(#paint0_linear)"/>
<g style="mix-blend-mode:multiply" opacity="0.45">
<path fill-rule="evenodd" clip-rule="evenodd" d="M9 1C4.58172 1 1 4.58172 1 9V14.6216V14.6216V18C1 22.4182 4.58172 26 9 26H67C71.4183 26 75 22.4182 75 18V14.6216V9C75 4.58172 71.4183 1 67 1H9Z" fill="#00A946"/>
</g>
<defs>
<filter id="filter0_d" x="0" y="1" width="76" height="25.6216" filterUnits="userSpaceOnUse" color-interpolation-filters="sRGB">
<feFlood flood-opacity="0" result="BackgroundImageFix"/>
<feColorMatrix in="SourceAlpha" type="matrix" values="0 0 0 0 0 0 0 0 0 0 0 0 0 0 0 0 0 0 127 0"/>
<feOffset dy="3"/>
<feGaussianBlur stdDeviation="0.5"/>
<feColorMatrix type="matrix" values="0 0 0 0 0 0 0 0 0 0 0 0 0 0 0 0 0 0 0.25 0"/>
<feBlend mode="normal" in2="BackgroundImageFix" result="effect1_dropShadow"/>
<feBlend mode="normal" in="SourceGraphic" in2="effect1_dropShadow" result="shape"/>
</filter>
<linearGradient id="paint0_linear" x1="38" y1="1" x2="38" y2="22.6216" gradientUnits="userSpaceOnUse">
<stop stop-color="#006F2E"/>
<stop offset="1" stop-color="#00A946"/>
</linearGradient>
</defs>
</svg>
