<svg width="46" height="56" viewBox="0 0 46 56" fill="none" xmlns="http://www.w3.org/2000/svg">
<path fill-rule="evenodd" clip-rule="evenodd" d="M3.99987 30.8465C3.36045 32.8388 3.99558 35.1657 5.90527 36.4933L26.6457 50.9115C29.961 53.2162 34.4997 50.8438 34.4997 46.8061L34.4997 17.9696C34.4997 13.9319 29.961 11.5594 26.6457 13.8642L7.19211 27.3878H3.99987L3.99987 30.8465Z" fill="#7B652F"/>
<path d="M5.9056 31.7993C3.04428 29.8101 3.04428 25.5775 5.90561 23.5884L26.646 9.17015C29.9613 6.86541 34.5 9.23787 34.5 13.2756L34.5 42.112C34.5 46.1498 29.9613 48.5222 26.646 46.2175L5.9056 31.7993Z" fill="url(#paint0_linear)"/>
<path d="M6.4764 30.9782C4.18734 29.3869 4.18735 26.0008 6.47641 24.4095L27.2168 9.99123C29.8691 8.14744 33.5 10.0454 33.5 13.2756L33.5 42.112C33.5 45.3422 29.869 47.2402 27.2168 45.3964L6.4764 30.9782Z" stroke="#D7A01F" stroke-width="2"/>
<path d="M14.1521 29.5358C10.7954 28.746 9.94429 24.3629 12.7615 22.3742L24.6933 13.9518C27.3429 12.0815 31 13.9764 31 17.2197L31 28.4496C31 31.029 28.5947 32.934 26.0838 32.3433L14.1521 29.5358Z" fill="#FDDA65"/>
<g style="mix-blend-mode:multiply" opacity="0.7">
<path fill-rule="evenodd" clip-rule="evenodd" d="M34.4997 42.172V46.8061C34.4997 50.8438 29.961 53.2163 26.6457 50.9115L5.90527 36.4933C3.99558 35.1657 3.36045 32.8388 3.99987 30.8465L3.99987 29.2343C3.361 27.2422 3.99625 24.9159 5.90561 23.5885L26.646 9.17031C29.9613 6.86557 34.5 9.23803 34.5 13.2758V42.1122C34.5 42.1322 34.4999 42.1521 34.4997 42.172Z" fill="#FABC29"/>
</g>
<defs>
<linearGradient id="paint0_linear" x1="-1.21054e-06" y1="27.6938" x2="46" y2="27.6938" gradientUnits="userSpaceOnUse">
<stop stop-color="#FABC29"/>
<stop offset="1" stop-color="#FABC29"/>
</linearGradient>
</defs>
</svg>
