<svg id="Layer_1" data-name="Layer 1" xmlns="http://www.w3.org/2000/svg" width="164" height="202" viewBox="0 0 228 280"><defs><style>.cls-1{opacity:0.25;}.cls-2{fill:#606060;}.cls-3{fill:#001e26;}.cls-4{fill:#93719e;}.cls-5{fill:#ba3636;}.cls-6{fill:#a82d2d;}.cls-7{fill:#d34f4f;}.cls-8{fill:#932727;}.cls-9{fill:#74547f;}.cls-10{fill:#7f1d1d;}.cls-11{fill:#407a87;}.cls-12{fill:#69a8b2;}.cls-13{fill:#4d8b96;}.cls-14{fill:#295b63;}.cls-15{fill:#92cfd6;}.cls-16{fill:#311f3a;}.cls-17{fill:#9e0d0d;}.cls-18{fill:#cc1d1d;}.cls-19{fill:#34418c;}.cls-20{fill:#4650aa;}.cls-21{fill:#a9c45f;}.cls-22{fill:#d5f985;}.cls-23{fill:#995f02;}.cls-24{fill:#c47e02;}.cls-25{fill:#a52192;}.cls-26{fill:#e54cc8;}.cls-27{fill:#ccc;}.cls-28{fill:#fff;}.cls-29{fill:#625c66;}.cls-30{fill:#8e8e8e;}.cls-31{fill:#b73b3b;}.cls-32{fill:#cc5050;}.cls-33{fill:#e29e14;}.cls-34{fill:#fabc29;}</style></defs><g class="cls-1"><path class="cls-2" d="M111.18,258.65c43.52-11.67,76.4-30.08,73.44-41.13S144,207,100.45,218.64,24.05,248.72,27,259.77,67.65,270.31,111.18,258.65Z"/></g><path class="cls-3" d="M104.9,48h0l-1.56-.49-4,.14,0,1.51L43.09,47.66,38.5,46.58l-.07,0-1.82-.43h-.08l.14,13.45-.14-13.45L32.59,46l.1,23.24a9.31,9.31,0,0,0,.47,2.82h0a9.39,9.39,0,0,0,1.74,3.1L41,82.33a6,6,0,0,1,1.25,2.38,4.24,4.24,0,0,1,4.28.45,6.13,6.13,0,0,0-.39-2c.05.12.1.24.14.37a6.21,6.21,0,0,1,.21,2.5l-5.69,46.7L46.5,86a5,5,0,0,0,0-.86,4.24,4.24,0,0,0-4.27-.45A6.05,6.05,0,0,1,42.43,87l-7.59,60.89a6.1,6.1,0,0,1-1.51,3.33,6.4,6.4,0,0,1,4.14,1.41h0a6.34,6.34,0,0,0-4.15-1.4,6.27,6.27,0,0,1-1.49,1.22l-13.77,8a6,6,0,0,0-2.24,2.23,6.1,6.1,0,0,0-.82,3.06h0a6.13,6.13,0,0,0,.05.74l10.74,85.16,4,.53.82-.63.05,0,0,0,1.39-.87a1.66,1.66,0,0,0,.32.33,2.22,2.22,0,0,0,1.08.43l55,11.65.13,1.86,3.87.54.05-.05h0v.1l39-30.61V55ZM19.56,164.68a6.52,6.52,0,0,0-.29.73A6.52,6.52,0,0,1,19.56,164.68Zm-.59,2c0-.07,0-.13,0-.2,0,.15,0,.3-.05.45,0-.09,0-.17,0-.25Zm.22-1a5.66,5.66,0,0,0-.13.56A5.66,5.66,0,0,1,19.19,165.65Zm78.14-6.9-32.46-3.07v0l32.56,3ZM64.87,190.42h0q8.77-6.76,17.6-13.47h0Q73.63,183.65,64.87,190.42ZM99.26,74.25,64.87,72.89h0l34.39,1.35ZM35.78,154.13a5.94,5.94,0,0,0,.81-.58A5.94,5.94,0,0,1,35.78,154.13Zm1-85.06c0,.09,0,.17,0,.26C36.84,69.24,36.82,69.15,36.81,69.07Zm.12.83c0,.09,0,.18.07.27C37,70.08,37,70,36.93,69.9Zm.2.82a1.83,1.83,0,0,1,.08.25A1.83,1.83,0,0,0,37.13,70.72Zm.3.87s0,0,0-.06l0,.09s0,0,0,0Zm.68,1.35h0Zm7.62,9.29a7.42,7.42,0,0,1,.41.85A8.32,8.32,0,0,0,45.73,82.23Zm-.61-.87a6.41,6.41,0,0,1,.52.73A6.41,6.41,0,0,0,45.12,81.36ZM37.9,152.05l-.1.17c-.08.12-.17.23-.26.35A6,6,0,0,0,37.9,152.05Zm.82-2.19c0,.16,0,.32-.09.47C38.67,150.18,38.69,150,38.72,149.86Zm-.18.78c0,.15-.1.3-.16.45C38.44,150.94,38.49,150.79,38.54,150.64Zm-.28.72c-.07.16-.15.32-.23.47C38.11,151.68,38.19,151.52,38.26,151.36Zm-1.51,2.06a6,6,0,0,0,.7-.73A6,6,0,0,1,36.75,153.42Zm-15.64,9.3c-.14.12-.28.24-.41.37C20.83,163,21,162.84,21.11,162.72Zm.83-.6a6.15,6.15,0,0,0-.62.42A6.15,6.15,0,0,1,21.94,162.12ZM20,164a7.1,7.1,0,0,0-.41.7,5.45,5.45,0,0,1,.35-.62Zm.51-.64a5,5,0,0,0-.35.43A5,5,0,0,1,20.5,163.31Zm-1.56,4a6.12,6.12,0,0,0,0,.74A6.12,6.12,0,0,1,18.94,167.34ZM62.19,256l26.2,5.55h0Z"/><path class="cls-3" d="M32.59,46l3.94.13.14,13.45-.14-13.45h.08l1.82.43.07,0,4.59,1.08L99.3,49.11l0-1.51,4-.14,1.56.49h0l26.68,7V234.83l-39,30.61v-.1h0l-.05.05-3.87-.54L88.49,263l-55-11.65a2.22,2.22,0,0,1-1.08-.43,1.66,1.66,0,0,1-.32-.33l-1.39.87,0,0-.05,0-.82.63-4-.53L15.05,166.46a6.13,6.13,0,0,1-.05-.74h0a6.1,6.1,0,0,1,.82-3.06,6,6,0,0,1,2.24-2.23l13.77-8a6.27,6.27,0,0,0,1.49-1.22h.3a6.4,6.4,0,0,1,3.85,1.41h0a6.45,6.45,0,0,0-3.87-1.41h-.27a6.1,6.1,0,0,0,1.51-3.33L42.43,87a6.05,6.05,0,0,0-.16-2.32A3.71,3.71,0,0,1,44,84.32a4.54,4.54,0,0,1,2.58.84,5,5,0,0,1,0,.86l-5.68,46.71L46.51,86a6.21,6.21,0,0,0-.21-2.5c0-.13-.09-.25-.14-.37a6.13,6.13,0,0,1,.39,2A4.52,4.52,0,0,0,44,84.32a3.71,3.71,0,0,0-1.69.39A6,6,0,0,0,41,82.33l-6.11-7.17a9.39,9.39,0,0,1-1.74-3.1h0a9.31,9.31,0,0,1-.47-2.82L32.59,46m4.24,23.2a.69.69,0,0,0,0,.13.69.69,0,0,1,0-.13s0-.09,0-.13,0,.08,0,.13m.11.75.06.22L36.94,70v0m.27,1a1.83,1.83,0,0,0-.08-.25,1.83,1.83,0,0,1,.08.25m.22.62h0s0,0,0,0l0-.09s0,0,0,.06m61.83,2.66h0L64.87,72.89h0l34.39,1.36M38.11,72.94h0m7.28,8.77c.09.12.17.25.25.38-.08-.13-.16-.26-.25-.38a3,3,0,0,0-.27-.35c.09.11.19.23.27.35m.59,1c.05.12.11.24.16.37,0-.13-.11-.25-.16-.37a5.39,5.39,0,0,0-.25-.48,5.39,5.39,0,0,1,.25.48M38.69,150l-.06.29.06-.29,0-.18,0,.18m-.24.87-.07.18.07-.18.09-.27-.09.27m-.3.69-.12.23.12-.23a1.75,1.75,0,0,0,.11-.24,1.75,1.75,0,0,1-.11.24m-.61,1c.09-.12.18-.23.26-.35l.1-.17a6,6,0,0,1-.36.52m-.09.12c-.07.08-.13.16-.2.23s-.33.34-.5.5c.17-.16.34-.32.5-.5s.13-.15.2-.23m-.86.86a4,4,0,0,1-.39.3l-.42.28.42-.28a4,4,0,0,0,.39-.3m60.74,5.2.1-.08-32.56-3v0l32.46,3.07m-76,3.79a6.15,6.15,0,0,1,.62-.42,6.15,6.15,0,0,0-.62.42m-.62.55c.13-.13.27-.25.41-.37-.14.12-.28.24-.41.37m-.55.65a5,5,0,0,1,.35-.43,5,5,0,0,0-.35.43m-.56.88v0A6.58,6.58,0,0,1,20,164l-.06.08c-.12.19-.24.39-.34.59m-.28.67h0l0,.1,0-.1h0a4.6,4.6,0,0,1,.25-.61,6.5,6.5,0,0,0-.25.61m-.24.84v0c0-.16.08-.32.12-.48,0,.16-.09.32-.12.48m-.06.35c0,.07,0,.13,0,.2h0a1.77,1.77,0,0,0,0,.23v0c0-.14,0-.29,0-.43m-.06,1.3,0,.3,0-.3c0-.15,0-.3,0-.44,0,.15,0,.29,0,.44m45.92,22.64q8.77-6.76,17.6-13.46h0q-8.84,6.7-17.6,13.47h0m23.52,71.17h0L62.19,256l26.2,5.55M15,165.72h0m4,1h0M32.59,45.3a.7.7,0,0,0-.49.2.71.71,0,0,0-.21.5L32,69.25a9.78,9.78,0,0,0,.51,3,.3.3,0,0,0,0,.1,9.61,9.61,0,0,0,1.84,3.23l6.11,7.17a5.49,5.49,0,0,1,1.09,2s0,0,0,.06A5.5,5.5,0,0,1,41.74,87l-7.59,60.88a5.44,5.44,0,0,1-1.34,3l0,0a5.71,5.71,0,0,1-1.3,1.05l-13.77,7.95a6.78,6.78,0,0,0-3.41,5.9,7.7,7.7,0,0,0,0,.83L25.09,251.7a.7.7,0,0,0,.6.61l4,.53h.09a.66.66,0,0,0,.42-.15l.8-.6,0,0,.05,0h0l.89-.56a2.79,2.79,0,0,0,1.39.56l54.42,11.53.1,1.34a.7.7,0,0,0,.6.65l3.68.5,0,0a.63.63,0,0,0,.3.07A.66.66,0,0,0,93,266l39-30.61a.7.7,0,0,0,.27-.55V55a.7.7,0,0,0-.52-.68l-26.68-7-1.54-.48a.52.52,0,0,0-.21,0h0l-4,.14a.69.69,0,0,0-.67.69v.8L43.18,47l-4.52-1.07h0l-1.84-.43a.44.44,0,0,0-.16,0h-.06l-3.94-.13Z"/><path class="cls-4" d="M60.94,51.88,38.43,46.56l22.51,5.95Z"/><path class="cls-5" d="M37.28,71.66l.15-.07a9.23,9.23,0,0,1-.67-3.36l-.23-22.1L32.59,46l.1,23.24a9.31,9.31,0,0,0,.47,2.82,5.76,5.76,0,0,0,4.12-.4Z"/><path class="cls-5" d="M46.5,86a5,5,0,0,0,0-.86,4.24,4.24,0,0,0-4.27-.45A6.05,6.05,0,0,1,42.43,87l-7.59,60.89a6.1,6.1,0,0,1-1.51,3.33,6.42,6.42,0,0,1,4.15,1.41,6,6,0,0,0,1.29-3.08Z"/><path class="cls-6" d="M15,165.72a6.13,6.13,0,0,0,.05.74l10.74,85.16,4,.52.87-.67-1,.6L19,168.12a5.78,5.78,0,0,1,0-1.44A5.72,5.72,0,0,1,15,165.72Z"/><path class="cls-7" d="M33.32,151.26a6,6,0,0,1-1.49,1.21l-13.77,8a6,6,0,0,0-2.24,2.23,6.1,6.1,0,0,0-.82,3.06,5.71,5.71,0,0,0,4,1,6.19,6.19,0,0,1,1-2.66A6.07,6.07,0,0,1,22,162.09l13.77-8a6.09,6.09,0,0,0,1.72-1.48A6.37,6.37,0,0,0,33.32,151.26Z"/><path class="cls-8" d="M39,74.15a9.57,9.57,0,0,1-1.55-2.56l-.15.07a5.85,5.85,0,0,1-4.11.4,9.31,9.31,0,0,0,1.74,3.1L41,82.33a6,6,0,0,1,1.25,2.38,4.24,4.24,0,0,1,4.28.45,6.17,6.17,0,0,0-1.46-3.85Z"/><path class="cls-9" d="M64.87,53.54l-3.93-1V228.36L30.67,251.48,64.87,230Z"/><path class="cls-10" d="M60.94,52.51,38.43,46.56l-1.82-.43h-.08l.23,22.1A9.27,9.27,0,0,0,39,74.16l6.11,7.17a6.29,6.29,0,0,1,1.2,2.2,6.21,6.21,0,0,1,.21,2.5l-7.74,63.55a6.11,6.11,0,0,1-3,4.56l-13.77,8a6.07,6.07,0,0,0-3,6l10.74,84,1-.6,30.27-23.12Z"/><path class="cls-11" d="M50.65,84.1,114.82,87l-9.89,72.33L43,153.62Z"/><path class="cls-12" d="M23.77,165.52,43,153.62l59.6,5.63-16,13.62Z"/><path class="cls-11" d="M59.5,169.48l-35.73-4,2.36,19C37.22,179.38,48.37,174.43,59.5,169.48Z"/><path class="cls-13" d="M74.07,171.09l-14.58-1.61c-11.12,5-22.27,9.9-33.36,15l1.67,13.36C43,188.64,58.4,179.62,74.07,171.09Z"/><path class="cls-13" d="M90.09,172.87l-2-.21C68.64,187.3,49.56,202.39,30.2,217.15l4,32.2,3.27.59C55.24,230.83,72.89,211.59,91,192.8Z"/><path class="cls-11" d="M91,192.8c-18.14,18.79-35.79,38-53.56,57.13l56.76,10.24Z"/><path class="cls-11" d="M88.13,172.66l-14.06-1.57c-15.68,8.52-31,17.55-46.28,26.77l2.41,19.29C49.56,202.39,68.64,187.3,88.13,172.66Z"/><path class="cls-14" d="M50.65,84.1,114.82,87l-9.89-12.57L40.62,71.93Z"/><path class="cls-11" d="M40.62,71.93l64.31,2.54V49.26L40.62,47.6Z"/><path class="cls-14" d="M60,88.89,101.33,91A5.13,5.13,0,0,1,105,92.85a5.09,5.09,0,0,1,1,1.83,5.22,5.22,0,0,1,.19,2.08l-6,51.89A5.15,5.15,0,0,1,98.3,152a5.22,5.22,0,0,1-3.7,1.14l-41-3.64a5.14,5.14,0,0,1-4.48-3.67,5.36,5.36,0,0,1-.18-2l5.69-50.39A5.15,5.15,0,0,1,60,88.89Z"/><path class="cls-15" d="M46.08,156.63l51.49,4.74-10,8.29-50.82-5.93a1.43,1.43,0,0,1-1.23-1.12,1.43,1.43,0,0,1,.65-1.53l5.74-3.48a6.93,6.93,0,0,1,4.19-1Z"/><path class="cls-14" d="M87.41,164c1.94,0,3.52-.55,3.52-1.23s-1.58-1.23-3.52-1.23-3.52.55-3.52,1.23S85.46,164,87.41,164Z"/><path class="cls-16" d="M87.41,163.56c1.5,0,2.72-.4,2.72-.89s-1.22-.89-2.72-.89-2.73.4-2.73.89S85.9,163.56,87.41,163.56Z"/><path class="cls-17" d="M87.38,160.35c-1.28,0-2.32-.29-2.32-.65v2.79c0,.36,1,.65,2.32.65s2.32-.29,2.32-.65v-2.8C89.7,160.06,88.66,160.35,87.38,160.35Z"/><path class="cls-18" d="M87.38,160.35c1.28,0,2.32-.29,2.32-.65s-1-.65-2.32-.65-2.32.29-2.32.65S86.1,160.35,87.38,160.35Z"/><path class="cls-14" d="M79.09,163.23c1.94,0,3.52-.55,3.52-1.23s-1.58-1.23-3.52-1.23-3.52.55-3.52,1.23S77.14,163.23,79.09,163.23Z"/><path class="cls-16" d="M79.09,162.77c1.5,0,2.72-.4,2.72-.89s-1.22-.89-2.72-.89-2.73.4-2.73.89S77.58,162.77,79.09,162.77Z"/><path class="cls-19" d="M79.07,159.55c-1.28,0-2.32-.29-2.32-.65v2.79c0,.36,1,.65,2.32.65s2.32-.29,2.32-.65V158.9C81.38,159.26,80.34,159.55,79.07,159.55Z"/><path class="cls-20" d="M79.06,159.55c1.28,0,2.32-.29,2.32-.65s-1-.65-2.32-.65-2.32.29-2.32.65S77.78,159.55,79.06,159.55Z"/><path class="cls-14" d="M75.6,167c2,0,3.52-.55,3.52-1.23s-1.57-1.23-3.52-1.23-3.52.55-3.52,1.23S73.66,167,75.6,167Z"/><path class="cls-16" d="M75.6,166.55c1.51,0,2.72-.4,2.72-.89s-1.21-.89-2.72-.89-2.72.4-2.72.89S74.1,166.55,75.6,166.55Z"/><path class="cls-21" d="M75.57,164.94c-1.28,0-2.32-.29-2.32-.65v1.18c0,.36,1,.65,2.32.65s2.33-.29,2.33-.65v-1.18C77.9,164.65,76.86,164.94,75.57,164.94Z"/><path class="cls-22" d="M75.57,164.94c1.29,0,2.33-.29,2.33-.65s-1-.65-2.33-.65-2.32.29-2.32.65S74.29,164.94,75.57,164.94Z"/><path class="cls-14" d="M70.56,162.55c2,0,3.52-.55,3.52-1.23s-1.57-1.23-3.52-1.23-3.52.55-3.52,1.23S68.62,162.55,70.56,162.55Z"/><path class="cls-16" d="M70.56,162.09c1.51,0,2.73-.39,2.73-.89s-1.22-.88-2.73-.88-2.72.39-2.72.88S69.06,162.09,70.56,162.09Z"/><path class="cls-23" d="M70.54,158.88c-1.28,0-2.32-.29-2.32-.65V161c0,.36,1,.65,2.32.65s2.32-.29,2.32-.65v-2.79C72.86,158.58,71.82,158.88,70.54,158.88Z"/><path class="cls-24" d="M70.54,158.88c1.28,0,2.32-.29,2.32-.65s-1-.65-2.32-.65-2.32.29-2.32.65S69.26,158.88,70.54,158.88Z"/><path class="cls-14" d="M62.24,161.76c1.95,0,3.52-.55,3.52-1.23s-1.57-1.23-3.52-1.23-3.52.55-3.52,1.23S60.3,161.76,62.24,161.76Z"/><path class="cls-16" d="M62.24,161.3c1.51,0,2.73-.4,2.73-.89s-1.22-.89-2.73-.89-2.72.4-2.72.89S60.74,161.3,62.24,161.3Z"/><path class="cls-25" d="M62.22,158.08c-1.28,0-2.32-.29-2.32-.65v2.79c0,.36,1,.65,2.32.65s2.32-.29,2.32-.65v-2.79C64.54,157.79,63.5,158.08,62.22,158.08Z"/><path class="cls-26" d="M62.22,158.08c1.28,0,2.32-.29,2.32-.65s-1-.65-2.32-.65-2.32.29-2.32.65S60.94,158.08,62.22,158.08Z"/><path class="cls-14" d="M67.28,166.21c2,0,3.52-.55,3.52-1.23s-1.57-1.23-3.52-1.23-3.52.55-3.52,1.23S65.34,166.21,67.28,166.21Z"/><path class="cls-16" d="M67.28,165.76c1.51,0,2.72-.4,2.72-.89s-1.21-.89-2.72-.89-2.72.4-2.72.89S65.78,165.76,67.28,165.76Z"/><path class="cls-27" d="M67.26,164.14c-1.29,0-2.33-.29-2.33-.65v1.18c0,.36,1,.65,2.33.65s2.32-.29,2.32-.65v-1.18C69.58,163.85,68.54,164.14,67.26,164.14Z"/><path class="cls-28" d="M67.26,164.14c1.28,0,2.32-.29,2.32-.65s-1-.65-2.32-.65-2.33.3-2.33.65S66,164.14,67.26,164.14Z"/><path class="cls-16" d="M61.19,90.52a4.8,4.8,0,0,0-5,4.26l-2.23,19.77A79,79,0,0,1,73.51,91.16Z"/><path class="cls-29" d="M73.51,91.16a78.63,78.63,0,0,0-19.58,23.4L52,131.73c6.62-15.13,16.14-29.29,28.51-40.21Z"/><path class="cls-16" d="M87.24,91.87l-6.74-.35C68.14,102.44,58.62,116.6,52,131.74l-1.15,10.18a4.77,4.77,0,0,0,.41,2.55,4.7,4.7,0,0,0,1.67,2C59.15,125.52,71.77,107.14,87.24,91.87Z"/><path class="cls-29" d="M90.67,92.05l-3.43-.19c-15.47,15.27-28.09,33.66-34.31,54.57a4.71,4.71,0,0,0,2.27.81l.66.06A124.67,124.67,0,0,1,90.67,92.05Z"/><path class="cls-16" d="M98.8,92.48l-8.13-.42a124.7,124.7,0,0,0-34.81,55.25l7,.62A127.84,127.84,0,0,1,98.8,92.48Z"/><path class="cls-29" d="M102.27,115.79c-9.06,9.7-15.73,21.46-20.72,33.79l1.5.13a136.17,136.17,0,0,1,19-32Z"/><path class="cls-16" d="M83.05,149.71l10.47.93a4.81,4.81,0,0,0,5.2-4.23L102,117.75a135.83,135.83,0,0,0-19,32Z"/><path class="cls-16" d="M102.27,115.79l1.58-13.65C91.29,115.81,80.9,131.59,74.43,149l7.12.64C86.54,137.25,93.21,125.49,102.27,115.79Z"/><path class="cls-29" d="M104.35,97.88a4.93,4.93,0,0,0-.18-1.95,4.76,4.76,0,0,0-.93-1.71,4.83,4.83,0,0,0-3.42-1.7l-1,0a127.9,127.9,0,0,0-35.93,55.45l11.56,1c6.48-17.36,16.86-33.14,29.42-46.81Z"/><path class="cls-14" d="M48.93,162.64c2.69,0,4.87-.77,4.87-1.7s-2.18-1.7-4.87-1.7-4.87.76-4.87,1.7S46.24,162.64,48.93,162.64Z"/><path class="cls-16" d="M46,160.78c0,.49,1,.89,2.27,1v-2C47,159.89,46,160.3,46,160.78Z"/><path class="cls-16" d="M51.83,160.78c0-.48-1-.89-2.28-1v2C50.85,161.67,51.83,161.27,51.83,160.78Z"/><path class="cls-30" d="M48.31,155.48v6.29c.2,0,.41,0,.62,0a4.22,4.22,0,0,0,.62,0v-6.29Z"/><path class="cls-17" d="M49.29,141.34c1.75,1.14,2.26,4.07,2,7.52-.32,4.7-1.27,8.45-2.88,8.58a1.36,1.36,0,0,1-.85-.24,1.75,1.75,0,0,0,1.29.77c1.62,0,2.87-3.67,3.56-8.33C53.09,145.27,52.46,141.62,49.29,141.34Z"/><path class="cls-18" d="M48.44,157.44c1.61-.13,2.56-3.89,2.88-8.58.23-3.44-.28-6.38-2-7.52l-.4,0c-3.52,0-4,3.78-3.56,8.36.35,3.48,1.2,6.25,2.26,7.52a1.36,1.36,0,0,0,.85.24Z"/><path class="cls-28" d="M46.59,144a4,4,0,0,0-.16,1.24,2.14,2.14,0,0,0,.06.62c0,.09.1.2.18.16s.06,0,.08-.08c.3-.55.25-1.25.59-1.78.16-.24.41-.49.36-.78C47.52,142.37,46.69,143.63,46.59,144Z"/><path class="cls-14" d="M95.57,53.39v-.74L45,51.48V68.67l1.13,0V52.24Z"/><path class="cls-7" d="M95.57,53.39,46.15,52.24V68.71l49.42,1.75Z"/><path class="cls-14" d="M60.55,63.25a1.11,1.11,0,0,0,.42.49,1.31,1.31,0,0,0,.61.21,2.35,2.35,0,0,0,.64-.09v2a4.48,4.48,0,0,1-1,.06A4.11,4.11,0,0,1,58,63.59a4,4,0,0,1-2.65-1.31,4.07,4.07,0,0,1-1-2.76,3.79,3.79,0,0,1,4.16-3.81,4.15,4.15,0,0,1,4.19,4.12,3.64,3.64,0,0,1-2.09,3.42Zm-2.1-4.88a1.17,1.17,0,0,0-1.17,1.26A1.28,1.28,0,0,0,58.46,61a1.16,1.16,0,0,0,1.17-1.26A1.28,1.28,0,0,0,58.45,58.37Z"/><path class="cls-14" d="M68.26,60.32l0-4.1,2.82.1,0,4.11A3.38,3.38,0,0,1,67.42,64a3.73,3.73,0,0,1-3.69-3.87l0-4.1,2.8.1,0,4.11a.94.94,0,0,0,.87,1A.85.85,0,0,0,68.26,60.32Z"/><path class="cls-14" d="M75.27,64.17l-2.84-.11-.06-7.69,2.83.1Z"/><path class="cls-14" d="M80.08,61.92l2.86.11,0,2.44-6.49-.25v0l0-2.38L79.17,59l-2.52-.09,0-2.42,6.14.23,0,2.43Z"/><path class="cls-28" d="M58.42,99.35a61.75,61.75,0,0,0-1.16,9.57c0,.43.11,1,.54,1,1.52-3.75,1-8.23,3.44-11.61.71-1,2.44-3.26,0-3.69C59.23,94.3,58.67,98,58.42,99.35Z"/><path class="cls-28" d="M33.31,67.82A4.92,4.92,0,0,0,33.64,70a.77.77,0,0,0,.19.28.66.66,0,0,0,.29.17.56.56,0,0,0,.36-.1.62.62,0,0,0,.22-.31,1.63,1.63,0,0,0,0-.76c-.19-1.72-.3-3.46-.32-5.2,0-.73.53-4.63,0-5-1.33-.84-1.09,2.64-1.09,3Z"/><path class="cls-31" d="M92.52,262.46,33.64,250a2.17,2.17,0,0,1-1.08-.43,2.24,2.24,0,0,1-.7-.94,3.32,3.32,0,0,1-.18-.83l-.09.27a3.46,3.46,0,0,0,.14,1.91,2.08,2.08,0,0,0,.7.93,2.14,2.14,0,0,0,1.08.44l58.87,12.47c.35-1.8.68-3.6,1-5.41h-.07C93,259.75,92.77,261.11,92.52,262.46Z"/><path class="cls-7" d="M33.64,250l58.88,12.47c.26-1.35.51-2.71.74-4.07l-59-12.48a2.2,2.2,0,0,0-.85.06,2.22,2.22,0,0,0-.76.4,3.33,3.33,0,0,0-1,1.43,3.75,3.75,0,0,0,.18.82,2.26,2.26,0,0,0,.7.94,2.17,2.17,0,0,0,1.08.43Z"/><path class="cls-31" d="M99,176.77l-74.79-8.48a2.13,2.13,0,0,1-1.08-.43,2.08,2.08,0,0,1-.7-.93,3.14,3.14,0,0,1-.17-.67,3.39,3.39,0,0,0,.15,1.84,2.08,2.08,0,0,0,.7.93,2.13,2.13,0,0,0,1.08.43L99,177.94l.61-5.44-.11,0Z"/><path class="cls-7" d="M24.24,168.29,99,176.77l.49-4.29L25,164a2.16,2.16,0,0,0-.84.07,2.11,2.11,0,0,0-.76.39,3.39,3.39,0,0,0-1.08,1.69.19.19,0,0,1,0,.08,3.14,3.14,0,0,0,.17.67,2.08,2.08,0,0,0,.7.93,2.13,2.13,0,0,0,1.08.43Z"/><path class="cls-5" d="M104.15,75.3a9.17,9.17,0,0,1-.9-4V47.52l1.65.44-1.57-.5-4,.14-.27,24.72a9.11,9.11,0,0,0,.6,3.27,4.31,4.31,0,0,0,2.29.48,4.39,4.39,0,0,0,2.21-.77Z"/><path class="cls-6" d="M82.36,173.44a6,6,0,0,0,0,1.64l6.28,89.77,3.87.54.05-.05-6.27-88.6a6.21,6.21,0,0,1,.31-2.8A6.06,6.06,0,0,1,82.36,173.44Z"/><path class="cls-7" d="M100.29,156a5.57,5.57,0,0,1-.94,1l-14.9,12.62a6.14,6.14,0,0,0-2.09,3.78,6.06,6.06,0,0,0,4.22.5,6.14,6.14,0,0,1,1.81-2.62l14.89-12.62a6,6,0,0,0,1.14-1.28A5.46,5.46,0,0,0,100.29,156Z"/><path class="cls-5" d="M113.22,89.26c0-.23,0-.46,0-.69a4.64,4.64,0,0,0-4.37-.44,6.21,6.21,0,0,1,.13,2.15l-7.55,62.83A6,6,0,0,1,100.3,156a5.49,5.49,0,0,1,4.13,1.39,6.22,6.22,0,0,0,1-2.66Z"/><path class="cls-8" d="M105.55,77.42a9.18,9.18,0,0,1-1.39-2.11,4.45,4.45,0,0,1-4.51.29,9.17,9.17,0,0,0,1.7,2.83l6.21,7.1a6.1,6.1,0,0,1,1.34,2.6,4.57,4.57,0,0,1,4.37.44,6.15,6.15,0,0,0-1.52-4Z"/><path class="cls-10" d="M104.9,48l-1.65-.44V71.31a9.21,9.21,0,0,0,2.29,6.11l6.21,7.09A6.32,6.32,0,0,1,113,86.73a6.19,6.19,0,0,1,.23,2.53l-7.82,65.5a6.08,6.08,0,0,1-2.12,3.94L88.39,171.32a6.11,6.11,0,0,0-1.75,2.45,6.25,6.25,0,0,0-.37,3l6.27,88.6v.1l39-30.61V55Z"/><path class="cls-5" d="M128.59,57.33l-22.36-5.94V70.08a8,8,0,0,0,2,5.28l7.24,8.81a5.31,5.31,0,0,1,1.27,4.11l-2.2,17.66q6.84,6.8,14.08,13.18Z"/><path class="cls-32" d="M128.59,119.12q-7.2-6.41-14.07-13.18L111,134.1c5.74,4.39,11.65,8.54,17.57,12.68Z"/><path class="cls-5" d="M128.59,146.78c-5.92-4.14-11.84-8.3-17.57-12.69l-2.34,18.75c6.64,3.81,13.32,7.53,19.91,11.42Z"/><path class="cls-32" d="M128.59,164.26c-6.59-3.89-13.27-7.61-19.91-11.42l-.59,4.76a5.28,5.28,0,0,1-1.83,3.4L92.59,173.38a5.37,5.37,0,0,0-1.51,2.11,5.29,5.29,0,0,0-.32,2.58l.46,6.68c12.28,6.55,25,12.38,37.38,18.79Z"/><path class="cls-5" d="M91.22,184.75l5,72.4,32.41-24.73V203.54C116.21,197.13,103.5,191.3,91.22,184.75Z"/><path class="cls-28" d="M83.79,171.73a1.32,1.32,0,0,0-.15.58.47.47,0,0,0,.08.29.53.53,0,0,0,.21.21.55.55,0,0,0,.31,0,.57.57,0,0,0,.28-.14,1.89,1.89,0,0,0,.38-.5,13.19,13.19,0,0,1,1.52-2,4.68,4.68,0,0,0,.75-1c.25-.48-.17-.56-.5-.42a5.57,5.57,0,0,0-1.06.82A6.25,6.25,0,0,0,83.79,171.73Z"/><path class="cls-28" d="M17.11,162.37a3.73,3.73,0,0,0-.68,1.52c-.07.35,0,.81.33,1a.67.67,0,0,0,.74-.33,3,3,0,0,0,.28-.83,3.56,3.56,0,0,1,1.08-1.75c.22-.19.84-.57.77-.93s-.42-.37-.65-.33C18.28,160.77,17.48,161.84,17.11,162.37Z"/><path class="cls-28" d="M24.17,165.13c-.25.18-.46.54-.3.82s.44.26.7.28a26.87,26.87,0,0,0,4.57-.16.37.37,0,0,0,.2-.07.25.25,0,0,0,0-.17.24.24,0,0,0-.09-.15.68.68,0,0,0-.34-.11C27.58,165.36,25.44,164.14,24.17,165.13Z"/><path class="cls-14" d="M45.18,218.24l1.14-7a2.7,2.7,0,0,0-.08-1.13,2.83,2.83,0,0,0-.53-1L41,203.25c-1.21-1.5-.54-3.64,1.14-3.65l6.65,0a1.9,1.9,0,0,0,1-.27,1.71,1.71,0,0,0,.66-.75l3.09-6.23a1.89,1.89,0,0,1,1-.92,1.94,1.94,0,0,0-2.49.92l-3.1,6.23a1.64,1.64,0,0,1-.66.74,1.82,1.82,0,0,1-1,.28l-6.66,0c-1.68,0-2.34,2.15-1.14,3.65l4.77,5.89a2.74,2.74,0,0,1,.61,2.13l-1.14,7c-.29,1.79,1.52,3.61,3.08,3.07l.16-.06A2.9,2.9,0,0,1,45.18,218.24Z"/><path class="cls-33" d="M42.08,199.61c-1.67,0-2.34,2.15-1.13,3.65l4.76,5.88a2.66,2.66,0,0,1,.52,1,2.5,2.5,0,0,1,.08,1.12l-1.13,7a2.91,2.91,0,0,0,1.73,3l6-2.08a2,2,0,0,1,1.38,0,3,3,0,0,1,.7.39l1.94,1.48C53.25,214,49.68,206.8,46.09,199.6Z"/><path class="cls-33" d="M64.47,212.67l5.34-4.34c1.46-1.18.65-3.79-1.36-4.39l-7.53-2.28a2.84,2.84,0,0,1-1-.59,2.8,2.8,0,0,1-.7-1l-3.24-7.25a2.51,2.51,0,0,0-.6-.87,2.75,2.75,0,0,0-.9-.57,1.88,1.88,0,0,0-1,.93l-3,6.12.9,1C55.54,204.19,60.15,208.3,64.47,212.67Z"/><path class="cls-34" d="M63.62,214.82a2.11,2.11,0,0,1,.68-2l.18-.14c-4.32-4.37-8.94-8.48-13.16-13.19q-.45-.53-.9-1l-.05.11a1.82,1.82,0,0,1-.66.74,1.72,1.72,0,0,1-1,.27l-2.65,0c3.59,7.19,7.16,14.34,10.85,21.48l4.55,3.45a2.35,2.35,0,0,0,2.31.43,1.93,1.93,0,0,0,1.11-2.24Z"/><path class="cls-9" d="M38.43,46.56l-1.9-.5v.07h.08Z"/></svg>