<svg width="168" height="206" viewBox="0 0 228 280" fill="none" xmlns="http://www.w3.org/2000/svg">
<path d="M148.743 137.016C147.227 137.227 145.695 137.31 144.165 137.264L144.068 137.258C143.711 137.588 143.329 137.891 142.927 138.164C141.232 139.406 139.192 140.091 137.091 140.122C134.99 140.153 132.932 139.53 131.2 138.339C126.301 134.827 128.107 127.58 130.79 122.716C130.738 122.121 130.704 121.525 130.692 120.931C130.677 120.238 130.692 119.549 130.734 118.893C130.757 118.566 130.787 118.249 130.827 117.963C130.836 117.89 130.846 117.819 130.858 117.756L130.874 117.657L130.893 117.57C130.906 117.486 130.931 117.403 130.966 117.325L117.982 116.107C117.969 116.483 117.969 116.824 117.982 117.123L117.99 117.351L118.002 117.569C118.009 117.716 118.019 117.856 118.029 117.994C118.071 118.55 118.13 119.075 118.198 119.59C118.338 120.616 118.516 121.604 118.734 122.579C119.162 124.528 119.743 126.441 120.471 128.299C121.209 130.199 122.128 132.023 123.215 133.747C124.344 135.54 125.702 137.177 127.255 138.617C128.849 140.088 130.673 141.287 132.655 142.168C133.629 142.599 134.638 142.947 135.671 143.208C136.674 143.458 137.694 143.633 138.723 143.731C140.683 143.904 142.657 143.834 144.601 143.522C146.433 143.224 148.237 142.773 149.993 142.173L148.743 137.016Z" fill="#141E1E"/>
<path d="M131.204 138.339C132.935 139.531 134.995 140.154 137.097 140.123C139.198 140.092 141.238 139.407 142.934 138.164C143.336 137.891 143.718 137.588 144.075 137.257C142.687 137.207 141.311 136.985 139.978 136.599C139.348 136.408 138.733 136.17 138.138 135.887C137.572 135.614 137.031 135.293 136.521 134.925C135.527 134.21 134.658 133.335 133.949 132.336C132.509 130.34 131.591 127.796 131.107 125.079C130.968 124.303 130.865 123.51 130.797 122.715C128.111 127.58 126.304 134.827 131.204 138.339Z" fill="#2B3A3A"/>
<path d="M147.068 135.819C146.441 136.137 145.772 136.362 145.081 136.488C142.19 137.024 138.843 136.057 137.36 133.52C136.35 135.161 135.662 136.979 135.333 138.878C139.447 140.524 144.532 139.465 147.068 135.819Z" fill="#627272"/>
<path d="M152.069 135.529C151.98 134.742 151.824 133.933 151.365 133.285C149.948 131.267 149.56 133.378 148.798 134.402C148.335 135 147.743 135.484 147.065 135.819C144.529 139.465 139.444 140.524 135.326 138.878C134.903 141.24 135.042 143.669 135.732 145.967C140.806 146.026 146.224 145.933 150.441 143.107C150.781 142.9 151.081 142.633 151.326 142.318C151.596 141.939 151.716 141.474 151.811 141.018C152.189 139.214 152.276 137.361 152.069 135.529Z" fill="#475656"/>
<path d="M157.657 88.0649C157.963 88.5122 158.104 89.0515 158.058 89.5914L144.441 253.121C144.389 253.747 144.09 254.327 143.611 254.733C143.131 255.139 142.51 255.338 141.884 255.286C141.796 255.278 141.709 255.266 141.622 255.248C141.82 255.541 142.081 255.786 142.386 255.964C142.69 256.143 143.031 256.251 143.383 256.281C144.009 256.333 144.631 256.134 145.11 255.728C145.59 255.322 145.889 254.742 145.941 254.115L159.558 90.5859C159.607 90.0052 159.44 89.427 159.089 88.9618C158.738 88.4967 158.228 88.1774 157.657 88.0649Z" fill="#9B6921"/>
<path d="M141.884 255.286C142.51 255.338 143.131 255.139 143.611 254.733C144.09 254.327 144.389 253.747 144.441 253.12L158.058 89.5911C158.104 89.0512 157.963 88.5119 157.657 88.0646C157.571 88.0477 157.484 88.0355 157.396 88.0282C157.086 88.0023 156.774 88.0378 156.478 88.1325C156.181 88.2272 155.907 88.3794 155.669 88.5804C155.432 88.7813 155.236 89.0271 155.093 89.3036C154.951 89.5802 154.864 89.8821 154.838 90.1922L141.221 253.722C141.175 254.261 141.316 254.8 141.621 255.248C141.708 255.265 141.795 255.278 141.883 255.286H141.884Z" fill="#BA8831"/>
<path d="M158.686 89.7675C158.739 88.6309 158.9 87.5366 158.885 86.3894C158.885 85.7765 158.983 85.2 158.937 84.5848C158.892 84.1221 158.967 83.7241 158.948 83.2779C158.921 83.0441 158.908 82.8088 158.909 82.5734C158.915 82.5053 158.865 82.4454 158.842 82.3738C158.82 82.3022 158.869 82.2223 158.842 82.1648C158.788 82.0358 158.766 81.8955 158.779 81.7562C158.779 81.7292 158.716 81.681 158.718 81.654C158.726 81.5451 158.701 81.4363 158.646 81.3417C158.586 81.2243 158.64 81.0775 158.555 80.9448C158.543 80.9155 158.574 80.8767 158.563 80.8474C158.552 80.818 158.485 80.7722 158.489 80.73C158.489 80.6043 158.419 80.5715 158.408 80.5292C158.404 80.1631 158.434 79.7975 158.5 79.4372C158.5 79.409 158.574 79.3738 158.576 79.3468C158.601 79.2235 158.632 79.1695 158.704 79.1484C158.733 79.1366 158.772 79.1672 158.801 79.1566C158.831 79.146 158.793 79.0861 158.808 79.0591C158.828 79.021 158.861 78.9916 158.901 78.977C158.941 78.9624 158.985 78.9636 159.024 78.9805C159.021 78.9102 159.031 78.84 159.055 78.7738C159.055 78.7597 159.109 78.7926 159.138 78.7809C159.168 78.7691 159.13 78.7104 159.146 78.6846C159.174 78.6792 159.202 78.6812 159.229 78.6904C159.272 78.5952 159.304 78.495 159.324 78.3922C159.432 78.0278 159.48 77.6484 159.468 77.2685C159.012 77.2983 158.554 77.2932 158.098 77.2533C156.422 77.1135 155.096 76.5863 155.138 76.0791C155.074 76.8646 154.776 77.6537 155.068 78.4192C155.23 78.8407 155.454 79.2529 155.473 79.7049C155.527 80.9378 154.652 82.3621 154.506 83.6583C154.318 85.3632 154.221 87.0845 154.079 88.7941L153.616 94.3362C153.573 94.8481 154.898 95.3765 156.577 95.5162C157.141 95.5665 157.708 95.5614 158.271 95.501C158.441 93.5941 158.591 91.6837 158.686 89.7675Z" fill="#909D9E"/>
<path d="M160.515 81.6973C160.354 81.1266 160.094 80.5231 160.28 79.9642C160.527 79.2444 160.968 78.8617 161.095 78.0973C161.176 77.6077 161.168 77.0793 161.212 76.585C161.181 76.9466 160.473 77.2037 159.467 77.273C159.479 77.6529 159.431 78.0323 159.322 78.3967C159.303 78.4995 159.271 78.5996 159.227 78.6949C159.201 78.6857 159.173 78.6837 159.145 78.6891C159.129 78.7149 159.153 78.7583 159.137 78.7853C159.121 78.8124 159.055 78.7642 159.054 78.7783C159.03 78.8444 159.019 78.9147 159.023 78.985C158.984 78.9681 158.94 78.9669 158.9 78.9815C158.859 78.9961 158.826 79.0255 158.807 79.0636C158.792 79.0906 158.815 79.1341 158.8 79.1611C158.785 79.1881 158.732 79.1411 158.703 79.1529C158.631 79.174 158.599 79.228 158.575 79.3513C158.575 79.3783 158.501 79.4135 158.498 79.4417C158.433 79.802 158.403 80.1676 158.407 80.5337C158.417 80.576 158.484 80.6088 158.488 80.7345C158.488 80.7767 158.537 80.8084 158.562 80.8519C158.586 80.8953 158.542 80.92 158.554 80.9493C158.639 81.082 158.585 81.23 158.645 81.3462C158.7 81.4408 158.725 81.5496 158.717 81.6585C158.717 81.6855 158.78 81.7337 158.778 81.7607C158.765 81.9 158.787 82.0403 158.841 82.1693C158.865 82.2268 158.829 82.3078 158.841 82.3783C158.853 82.4487 158.914 82.5098 158.908 82.5779C158.907 82.8133 158.92 83.0486 158.947 83.2824C158.966 83.7286 158.89 84.1266 158.936 84.5892C158.982 85.2045 158.879 85.781 158.883 86.3939C158.899 87.5352 158.738 88.6354 158.685 89.772C158.59 91.6883 158.44 93.5986 158.274 95.509C159.105 95.4115 159.668 95.172 159.695 94.8503C159.824 93.3059 159.952 91.7614 160.081 90.217C160.296 87.6433 161.222 84.2053 160.515 81.6973Z" fill="#687777"/>
<path d="M161.021 76.0272C161.062 75.5136 159.73 74.988 158.047 74.8533C156.363 74.7186 154.965 75.0257 154.924 75.5393C154.883 76.0529 156.214 76.5785 157.898 76.7132C159.582 76.8479 160.98 76.5408 161.021 76.0272Z" fill="#909D9E"/>
<path d="M164.627 68.3749L160.644 76.2536C160.175 76.3827 159.713 76.5236 159.236 76.5471C158.902 76.5632 158.568 76.5581 158.235 76.5319L160.868 44.9175L164.627 68.3749Z" fill="#687777"/>
<path d="M160.85 45.0752L161.532 68.1217L159.259 76.551H159.23C158.42 76.5956 157.637 76.4747 156.836 76.3937C156.533 76.3549 156.269 76.1929 155.962 76.0414L155.906 76.0121L153.271 67.4278L160.85 45.0752Z" fill="#909D9E"/>
<path d="M154.915 66.1618C154.856 66.4255 154.867 66.7002 154.949 66.9579C155.046 67.2092 155.301 67.4182 155.565 67.3829C155.979 67.3266 156.113 66.8029 156.152 66.3872C156.345 64.5293 156.658 62.6859 157.091 60.8687C157.255 60.1806 156.83 60.4307 156.63 60.7959C156.348 61.3078 156.263 62.0933 156.051 62.6546C155.622 63.8076 155.101 64.9371 154.915 66.1618Z" fill="white"/>
<path d="M155.208 76.8211C155.165 76.9608 155.253 77.1052 155.336 77.2262C155.571 77.5714 155.848 77.9412 156.254 78.0481C156.377 78.0771 156.504 78.092 156.631 78.0927C156.79 78.1086 156.951 78.0869 157.1 78.0293C157.174 77.999 157.237 77.946 157.279 77.8778C157.321 77.8097 157.341 77.73 157.335 77.65C157.309 77.4998 157.17 77.3999 157.039 77.3189C156.742 77.1346 155.426 76.1095 155.208 76.8211Z" fill="white"/>
<path d="M154.964 85.653L154.708 88.7399C154.657 89.354 154.626 90.0315 155.007 90.5199C155.218 90.3285 155.269 90.0209 155.31 89.7391C155.6 87.7315 156.004 85.7423 156.523 83.7814C156.606 83.4655 156.693 83.1379 156.64 82.8162C156.415 81.5493 155.584 82.545 155.378 83.1379C155.088 83.9352 155.033 84.817 154.964 85.653Z" fill="white"/>
<path d="M148.389 133.469C148.539 132.619 148.604 131.745 148.911 130.938C149.615 129.076 151.602 127.867 153.594 127.783C155.331 127.712 157.297 128.684 157.578 130.401C157.622 130.603 157.607 130.814 157.536 131.008C157.376 131.373 156.929 131.527 156.53 131.511C156.131 131.496 155.749 131.353 155.356 131.305C154.417 131.187 153.456 131.634 152.793 132.317C152.13 133 151.727 133.899 151.463 134.813C151.173 135.816 151.023 136.884 150.471 137.771C149.919 138.657 146.502 141.467 146.071 139.367C145.905 138.554 146.992 137.437 147.326 136.748C147.829 135.709 148.187 134.606 148.389 133.469Z" fill="#475656"/>
<path d="M156.281 132.144C154.648 132.52 153.191 133.44 152.149 134.753C151.639 135.4 151.257 136.379 151.797 136.997C152.384 137.663 153.468 137.305 154.262 136.901C153.38 137.429 152.483 137.971 151.811 138.749C151.138 139.526 150.718 140.595 150.963 141.593C150.981 141.706 151.038 141.809 151.125 141.883C151.242 141.943 151.378 141.954 151.503 141.914C152.231 141.77 152.918 141.464 153.513 141.021C153.086 141.365 152.651 141.718 152.355 142.181C152.06 142.644 151.923 143.238 152.136 143.747C152.236 143.985 152.406 144.187 152.623 144.326C152.841 144.465 153.095 144.535 153.353 144.526C153.61 144.518 153.86 144.431 154.067 144.278C154.275 144.125 154.431 143.912 154.515 143.669C154.716 144.406 153.739 145.312 154.298 145.831C154.509 146.03 154.843 146.018 155.12 145.949C156.581 145.578 157.468 143.754 156.863 142.373C158.069 141.582 158.577 139.881 158.005 138.556C158.61 138.069 159.179 137.402 159.156 136.626C159.132 135.85 158.206 135.135 157.565 135.569C159.165 134.283 158.531 131.633 156.281 132.144Z" fill="#475656"/>
<path d="M66.6297 143.854C66.8046 139.302 68.0302 135.014 68.9928 130.375C69.6044 127.574 69.9554 124.773 68.6406 122.322C67.7262 120.555 66.3456 119.17 64.8231 117.93C64.4881 118.606 64.17 119.287 63.8687 119.973C62.59 122.878 61.5767 125.894 60.8412 128.982C60.1155 132.02 59.6474 135.113 59.4419 138.23C59.2466 141.281 59.2745 144.342 59.5252 147.388C59.7727 150.384 60.2063 153.361 60.8236 156.303C61.4312 159.2 62.1887 162.063 63.0927 164.882L63.7865 166.972L64.5249 169.041L65.3044 171.088L65.7141 172.101C65.8691 172.432 65.9758 172.784 66.031 173.146L69.2628 172.031C66.6814 162.919 66.2869 153.256 66.6297 143.854Z" fill="#2B3A3A"/>
<path d="M75.3366 104.046C72.8296 106.265 70.5867 108.766 68.6524 111.499C67.2073 113.538 65.9261 115.688 64.8208 117.93C66.3469 119.17 67.7239 120.555 68.6383 122.322C69.9508 124.773 69.5998 127.574 68.9905 130.375C68.0279 135.014 66.8024 139.298 66.6274 143.854C66.2894 153.256 66.6838 162.919 69.2629 172.034L70.8183 171.498C70.6505 171.191 70.5294 170.862 70.4591 170.519L70.1938 169.511L69.7019 167.487L69.257 165.458L68.859 163.426C68.3591 160.735 67.999 158.019 67.7802 155.29C67.3541 149.876 67.5619 144.488 68.5667 139.364C69.5657 134.276 71.4041 129.401 73.9867 125.139C75.2543 123.042 76.7333 121.081 78.4005 119.286C80.0032 117.56 81.8008 116.025 83.7571 114.714L75.3366 104.046Z" fill="#141E1E"/>
<path d="M118.603 222.363C118.165 219.738 118.078 217.197 117.291 214.661C116.24 211.597 115.715 208.447 115.278 205.209C114.666 200.395 115.278 195.228 118.953 191.554C119.657 190.85 120.179 189.804 119.741 188.754C119.654 188.579 119.389 188.491 119.128 188.579C117.466 189.016 115.629 189.629 114.228 188.491C111.953 186.74 111.253 183.94 110.902 181.314C109.94 174.487 110.728 167.835 108.541 161.27C108.278 160.307 108.366 159.433 108.541 158.558C108.715 157.683 110.028 157.595 110.641 157.945C112.128 158.908 112.303 160.833 113.265 162.321C114.877 164.821 118.718 166.057 121.228 164.317C120.928 156.749 120.21 148.997 118.515 141.625C117.225 136.019 108.186 141.318 105.425 142.946C102.774 144.51 100.411 146.735 99.2373 149.58C99.1082 149.895 98.992 150.228 99.0284 150.565C99.0777 151.026 99.397 151.404 99.6963 151.756C104.654 157.631 107.749 164.851 108.585 172.494C109.055 176.911 108.784 181.496 110.337 185.659C111.106 187.722 112.308 189.622 112.873 191.749C113.297 193.346 113.343 195.015 113.362 196.667C113.399 200.976 113.264 204.933 114.125 209.23C115.211 214.65 118.11 220.571 118.719 226.326C118.818 225.005 118.78 223.677 118.603 222.363Z" fill="#141E1E"/>
<path d="M130.208 240.653C130.091 240.105 129.955 239.58 129.813 239.064L129.61 238.734C127.052 234.556 125.469 229.458 125.894 224.526C126.676 215.485 127.339 206.146 124.411 197.56C123.338 194.415 121.79 191.407 121.205 188.134C120.687 185.248 120.942 182.288 121.112 179.362C121.377 174.804 121.433 170.24 121.279 165.67C121.264 165.219 121.247 164.767 121.228 164.315C118.718 166.052 114.877 164.815 113.265 162.319C112.303 160.831 112.128 158.906 110.641 157.943C110.028 157.591 108.715 157.68 108.541 158.556C108.366 159.432 108.278 160.305 108.541 161.268C110.728 167.833 109.94 174.484 110.902 181.312C111.255 183.938 111.959 186.738 114.228 188.489C115.629 189.626 117.466 189.014 119.128 188.577C119.391 188.489 119.654 188.577 119.741 188.752C120.179 189.801 119.654 190.852 118.953 191.552C115.278 195.228 114.666 200.392 115.278 205.206C115.715 208.445 116.24 211.595 117.291 214.659C118.078 217.197 118.165 219.736 118.603 222.361C118.78 223.676 118.82 225.006 118.721 226.33C118.817 227.218 118.851 228.112 118.823 229.004C118.958 229.393 119.092 229.782 119.261 230.153C120.426 233.199 122.175 235.92 123.795 238.842C125.027 241.175 126.322 243.701 128.654 244.998C128.848 245.1 129.072 245.129 129.285 245.082C129.499 245.034 129.689 244.913 129.821 244.738C130.662 243.505 130.532 242.014 130.208 240.653Z" fill="#2B3A3A"/>
<path d="M131.157 241.265C130.717 240.533 130.265 239.801 129.813 239.063C129.955 239.58 130.093 240.105 130.208 240.653C130.532 242.014 130.662 243.505 129.82 244.736C129.687 244.91 129.498 245.032 129.284 245.079C129.07 245.127 128.847 245.097 128.653 244.995C126.32 243.704 125.026 241.172 123.794 238.839C122.174 235.922 120.425 233.203 119.259 230.15C119.09 229.779 118.957 229.391 118.822 229.002C118.804 229.472 118.769 229.941 118.704 230.4C119.894 233.331 121.191 236.215 122.594 239.053C124.258 242.414 126.177 245.827 129.262 247.955C129.776 248.308 130.512 248.613 130.977 248.196C131.147 248.019 131.266 247.8 131.321 247.561C131.966 245.513 131.724 243.37 131.157 241.265Z" fill="#6A7F7F"/>
<path d="M131.379 257.635C134.829 254.113 134.416 248.585 132.67 243.914C132.195 243.025 131.684 242.146 131.155 241.265C131.722 243.37 131.963 245.513 131.324 247.566C131.268 247.805 131.149 248.024 130.98 248.201C130.51 248.618 129.779 248.318 129.265 247.96C126.18 245.831 124.26 242.419 122.597 239.058C121.194 236.223 119.898 233.339 118.706 230.405C118.661 230.765 118.603 231.124 118.529 231.481C118.144 233.35 117.409 235.222 117.7 237.109C118.083 239.598 120.166 240.667 120.918 242.909C121.671 245.15 121.466 247.574 122.147 249.822C123.275 253.548 126.568 256.064 129.806 258.063C130.411 258.165 130.968 258.085 131.379 257.635Z" fill="#3D4C4C"/>
<path d="M132.672 243.914C134.416 248.585 134.829 254.116 131.381 257.635C130.97 258.085 130.414 258.165 129.81 258.063C130.194 258.298 130.576 258.528 130.956 258.754C131.36 258.989 131.778 259.224 132.247 259.293C133.141 259.42 134.028 258.876 134.538 258.132C135.047 257.388 135.242 256.473 135.349 255.578C135.89 251.172 134.575 247.475 132.672 243.914Z" fill="#283535"/>
<path d="M70.344 246.81C69.8251 246.745 69.8897 245.773 69.9554 245.191C70.0728 243.812 70.2231 242.459 70.6011 241.164C70.1855 241.741 69.7711 242.313 69.3661 242.887C68.643 244.943 68.2415 247.062 68.7252 249.157C68.7638 249.399 68.8658 249.627 69.021 249.817C69.4542 250.266 70.2102 250.02 70.749 249.699C73.9855 247.807 76.1548 244.548 78.0648 241.322C79.1604 239.469 80.2091 237.59 81.2108 235.686C81.1639 235.421 81.1193 235.157 81.0747 234.893C79.5486 237.738 77.7877 240.412 75.5914 242.921C74.1017 244.607 72.5463 246.94 70.344 246.81Z" fill="#6A7F7F"/>
<path d="M82.5948 232.988C82.576 232.618 82.5713 232.25 82.5784 231.88C82.1033 232.906 81.6032 233.911 81.0781 234.894C81.1227 235.158 81.1673 235.422 81.2143 235.687C81.6831 234.792 82.1432 233.892 82.5948 232.988Z" fill="#6A7F7F"/>
<path d="M84.6515 195.056C84.4766 196.28 85.0882 197.331 85.8759 198.119C89.0267 201.532 88.239 206.521 87.2764 210.723C86.0508 216.323 83.426 221.055 81.4139 226.215C80.3386 229.062 80.5922 231.955 81.0746 234.894C81.6021 233.91 82.1022 232.905 82.5749 231.88C82.7134 225.213 87.0005 218.466 88.7461 212.221C89.9271 207.994 90.0867 204.039 90.4471 199.745C90.5856 198.101 90.7605 196.439 91.3029 194.878C91.432 194.507 91.5811 194.145 91.7443 193.788C90.7617 194.628 89.8109 195.508 88.6769 196.019C87.2764 196.63 85.701 196.019 84.6515 195.056Z" fill="#141E1E"/>
<path d="M94.0146 171.244C93.5767 168.618 91.4766 167.217 88.8494 166.604C87.4724 166.277 86.2915 165.507 85.3078 164.516C85.1512 165.761 85.0049 167.004 84.8687 168.244C84.3749 172.784 84.0888 177.339 84.0106 181.909C83.9613 184.844 83.9942 187.811 83.2616 190.65C82.4329 193.869 80.665 196.756 79.3596 199.809C75.7968 208.145 75.7604 217.516 75.8625 226.588C75.9189 231.526 73.9596 236.497 71.0953 240.471L70.5987 241.158C70.2207 242.45 70.074 243.806 69.9531 245.184C69.8873 245.771 69.8228 246.739 70.3416 246.804C72.5439 246.934 74.0981 244.601 75.589 242.916C77.7877 240.403 79.5509 237.733 81.0723 234.888C80.5863 231.953 80.3363 229.056 81.4116 226.209C83.4236 221.042 86.0485 216.317 87.274 210.717C88.2366 206.516 89.0243 201.527 85.8736 198.113C85.0859 197.325 84.4743 196.274 84.6492 195.05C85.6987 196.013 87.274 196.624 88.6745 196.013C89.8085 195.502 90.7594 194.622 91.7419 193.782C92.1692 192.842 92.6904 191.95 93.2011 191.049C95.5383 184.88 95.0676 177.871 94.0146 171.244Z" fill="#2B3A3A"/>
<path d="M108.053 153.849C107.097 150.924 104.906 148.527 102.38 146.77C99.7492 144.943 91.1327 138.974 89.4259 144.473C87.4197 150.937 86.1718 157.763 85.3102 164.518C86.2939 165.509 87.4749 166.279 88.8518 166.607C91.4767 167.22 93.5768 168.621 94.017 171.246C95.0735 177.868 95.5431 184.878 93.2059 191.053C93.5885 190.377 93.9654 189.697 94.2905 188.993C96.15 184.958 96.2193 180.366 97.021 175.996C98.4261 168.437 102.052 161.468 107.435 155.98C107.759 155.651 108.105 155.298 108.19 154.843C108.251 154.513 108.159 154.171 108.053 153.849Z" fill="#141E1E"/>
<path d="M81.5889 239.698C80.4513 241.886 78.5261 243.637 77.8253 245.999C77.2137 248.275 77.3886 250.461 76.9508 252.826C76.7888 253.758 76.3274 254.484 75.8168 255.167C76.6234 254.264 77.2637 253.225 77.7079 252.098C78.5543 249.907 78.5355 247.459 79.4512 245.296C80.3668 243.133 82.5245 242.206 83.0903 239.753C83.5211 237.893 82.9283 235.972 82.6841 234.078C82.6379 233.716 82.6059 233.355 82.5879 232.993C82.1379 233.899 81.6777 234.799 81.2073 235.694C81.3599 236.559 81.5243 237.427 81.6769 238.299C81.7787 238.764 81.7482 239.249 81.5889 239.698Z" fill="#283535"/>
<path d="M70.749 249.704C70.2101 250.02 69.4577 250.266 69.021 249.821C68.8658 249.631 68.7637 249.404 68.7251 249.162C68.2415 247.067 68.643 244.947 69.3661 242.891C66.3949 247.086 63.857 251.304 64.1176 256.841C64.1598 257.741 64.2831 258.668 64.735 259.448C65.187 260.229 66.0263 260.837 66.9326 260.778C67.4022 260.747 67.8388 260.543 68.2603 260.337C70.9239 259.021 73.814 257.442 75.8167 255.158C76.3273 254.475 76.7887 253.749 76.9507 252.817C77.3886 250.454 77.2136 248.266 77.8252 245.99C78.5296 243.628 80.4513 241.881 81.5888 239.688C81.7481 239.239 81.7782 238.753 81.6757 238.288C81.5277 237.415 81.3634 236.547 81.2061 235.682C80.2051 237.588 79.1565 239.467 78.06 241.318C76.1548 244.553 73.9854 247.811 70.749 249.704Z" fill="#3D4C4C"/>
<path d="M112.546 142.519C112.317 142.672 112.093 142.831 111.873 142.996C112.177 142.936 112.364 142.712 112.546 142.519Z" fill="#909D9E"/>
<path d="M127.086 146.042C124.738 141.499 121.196 137.518 116.899 134.789C115.607 137.417 114.095 139.879 112.581 142.477L112.541 142.519C114.202 141.407 116.103 140.661 118.152 141.117C120.161 141.57 121.586 143.126 122.3 145.004C123.665 148.827 123.212 153.044 120.747 156.604C119.416 158.562 117.563 159.809 115.519 160.479C116.214 161.411 117.329 162.106 118.469 161.929C119.424 161.781 120.183 161.074 120.845 160.371C124.001 157.021 129.652 151.001 127.086 146.042Z" fill="#7A8889"/>
<path d="M120.747 156.604C123.212 153.041 123.663 148.828 122.302 145.005C121.588 143.126 120.163 141.57 118.155 141.117C116.105 140.661 114.205 141.407 112.543 142.519C112.362 142.707 112.173 142.936 111.871 142.996C112.09 142.831 112.315 142.672 112.543 142.519L112.583 142.478C114.098 139.879 115.612 137.417 116.901 134.789C114.794 133.442 112.496 132.419 110.084 131.758C102.266 129.644 94.3327 132.305 87.5933 136.888C89.137 138.807 91.6515 140.115 93.8596 140.922C94.8316 141.311 95.6087 141.894 96.6453 142.154C96.8401 142.218 97.2933 142.218 97.3578 142.672C94.8316 142.672 92.3699 142.478 89.8448 142.802C86.9946 143.126 84.8557 145.134 83.1712 147.533C83.1066 147.662 83.2369 147.791 83.1712 147.921C82.1346 149.735 82.0055 151.873 82.5842 153.753C83.6854 157.381 87.1836 159.197 90.4236 160.946C92.4967 162.048 94.8292 162.825 97.0961 162.307C98.1088 162.068 99.0884 161.706 100.013 161.229C101.603 158.577 102.009 155.099 103.68 152.506C104.189 151.715 104.823 150.963 105.676 150.57C111.964 147.679 113.14 156.911 115.384 160.292C115.427 160.354 115.47 160.41 115.515 160.477C117.565 159.81 119.418 158.563 120.747 156.604Z" fill="#9FADAD"/>
<path d="M90.4283 160.946C87.1884 159.197 83.6901 157.382 82.589 153.753C82.002 151.875 82.1347 149.735 83.176 147.921C83.2417 147.791 83.1114 147.662 83.176 147.533C84.8605 145.134 86.9994 143.126 89.8496 142.802C92.377 142.478 94.8387 142.672 97.3626 142.672C97.298 142.218 96.8449 142.218 96.65 142.154C95.6135 141.894 94.8363 141.311 93.8644 140.922C91.6562 140.115 89.1417 138.809 87.598 136.888C83.109 139.941 79.1459 143.847 76.109 147.758C75.3484 148.736 74.583 149.872 74.7344 151.104C74.833 151.933 75.3354 152.654 75.8531 153.308C79.2575 157.605 84.0094 160.667 89.0232 162.879C90.6537 163.598 92.3547 164.242 94.1332 164.34C95.9116 164.437 97.7993 163.916 99.0049 162.604C99.3892 162.182 99.7295 161.721 100.02 161.229C99.0955 161.706 98.1159 162.068 97.1032 162.307C94.834 162.825 92.5014 162.048 90.4283 160.946Z" fill="#7A8889"/>
<path d="M132.981 113.296C133.171 112.368 133.319 111.38 132.991 110.491C132.704 109.714 132.087 109.107 131.43 108.603C129.687 107.272 127.582 106.499 125.392 106.385C124.57 106.344 123.631 106.45 123.123 107.098C122.735 107.59 122.699 108.263 122.679 108.887C122.552 112.935 122.425 116.982 122.297 121.029C122.236 122.988 120.804 128.944 123.602 129.043C126.286 129.137 128.402 124.689 129.441 122.82C131.049 119.926 132.474 116.592 132.981 113.296Z" fill="#677575"/>
<path d="M75.9881 123.898C74.2413 117.99 71.2279 112.795 67.4773 108.085C65.4817 109.211 63.6433 110.795 62.588 111.882C62.1525 112.33 61.7099 112.887 61.7886 113.508C61.8743 114.189 62.534 114.622 63.1198 114.979C68.6596 118.362 73.2688 123.072 76.5305 128.685C76.7159 127.095 76.4178 125.377 75.9881 123.898Z" fill="#7A8889"/>
<path d="M79.5733 122.887C78.9663 118.488 78.0965 114.044 75.9975 110.132C75.4305 109.075 74.7508 108.035 73.7671 107.342C72.0755 106.149 69.6843 106.835 67.475 108.085C71.2315 112.795 74.239 117.989 75.9858 123.898C76.4154 125.377 76.7136 127.091 76.5281 128.685C76.8326 129.21 77.1249 129.742 77.405 130.28C77.621 130.697 77.8453 131.136 78.2268 131.404C78.6083 131.672 79.2164 131.691 79.4981 131.315C79.6038 131.15 79.6716 130.964 79.6965 130.77C80.2107 128.179 79.9348 125.503 79.5733 122.887Z" fill="#677575"/>
<path d="M88.3552 130.683C86.9947 123.555 86.7998 116.556 83.4952 110.206C81.9516 107.236 79.754 104.811 77.3029 102.681C76.4408 103.349 75.6159 104.064 74.8318 104.822C73.9843 105.644 73.152 106.575 72.9184 107.731C72.5275 109.661 73.5828 111.935 74.1345 113.754C74.8271 116.039 75.573 118.309 76.372 120.564C78.7785 127.351 81.2719 135.174 86.3173 140.516C89.2028 143.569 92.8912 145.48 96.8296 146.324C96.704 146.255 96.5784 146.183 96.454 146.111C90.8815 142.931 89.4563 136.646 88.3552 130.683Z" fill="#7A8889"/>
<path d="M96.7275 110.944C97.865 111.732 99.0025 112.432 100.14 113.22C104.881 116.572 109.976 119.392 115.334 121.63C115.484 120.221 115.583 118.807 115.631 117.403C115.874 108.846 114.013 100.572 111.648 92.4231C106.261 91.377 100.721 92.5406 95.5853 94.2713C91.0434 95.8047 86.1095 97.546 81.8506 99.7664C80.249 100.602 78.7251 101.579 77.297 102.685C79.1506 104.296 80.8586 106.075 82.2485 108.131C86.4312 109.83 91.2747 109.892 95.759 110.161C95.9398 110.157 96.3765 110.681 96.7275 110.944Z" fill="#7A8889"/>
<path d="M100.14 113.22C99.0025 112.432 97.865 111.732 96.7275 110.944C96.3753 110.681 95.9398 110.157 95.7649 110.157C91.2805 109.889 86.437 109.825 82.2544 108.126C82.7079 108.795 83.1222 109.489 83.4952 110.206C86.7998 116.556 86.9946 123.555 88.3552 130.683C89.4563 136.646 90.8814 142.931 96.4551 146.106C96.5796 146.179 96.7052 146.25 96.8308 146.32C99.1608 146.814 101.553 146.949 103.924 146.722C110.997 140.097 114.338 130.936 115.335 121.631C109.977 119.393 104.881 116.572 100.14 113.22Z" fill="#9FADAD"/>
<path d="M126.231 101.762C125.131 99.7511 123.338 98.213 121.466 96.8885C118.796 94.9993 115.855 93.4376 112.682 92.6474C112.338 92.5613 111.994 92.483 111.648 92.4126C114.013 100.561 115.874 108.836 115.631 117.393C115.263 128.095 112.068 139.087 103.922 146.717C109.272 146.214 114.488 143.929 118.284 140.047C122.134 136.111 124.091 130.751 125.53 125.544C126.642 121.52 127.336 117.392 127.599 113.226C127.835 109.476 128.098 105.183 126.231 101.762Z" fill="#7A8889"/>
<path d="M82.4916 118.446C82.3742 113.348 81.4867 107.898 77.9779 104.198C77.4849 103.68 76.9038 103.182 76.1971 103.079C75.6618 103 75.1242 103.158 74.6112 103.328C73.0483 103.846 71.5314 104.494 70.0764 105.264C69.1666 105.745 68.1512 106.533 68.3225 107.549C68.4059 108.047 68.7686 108.445 69.1091 108.819C74.3644 114.636 77.7579 121.894 78.8525 129.657C78.9241 130.173 78.9969 130.714 79.322 131.126C81.0946 133.364 81.9269 127.169 82.0502 126.39C82.4552 123.765 82.555 121.099 82.4916 118.446Z" fill="#9FADAD"/>
<path d="M70.7384 167.748C69.075 168.71 70.5623 171.598 69.2499 172.915C68.6383 173.528 67.6757 171.865 67.1498 171.077C66.0122 169.151 65.7505 167.051 65.3126 164.775C65.1186 163.666 64.6693 162.617 64.0002 161.712C60.9363 158.083 58.3196 154.23 57.5848 149.607C57.134 149.758 56.6863 149.921 56.2418 150.098C57.7585 156.109 61.974 161.37 62.4119 167.552C62.5422 169.4 62.7981 171.126 63.0599 172.945C63.5834 176.585 64.8207 180.26 67.4397 182.935C67.7919 183.301 68.1934 183.655 68.6782 183.821C69.163 183.988 69.7558 183.929 70.108 183.556C70.5071 183.999 70.9356 184.459 71.5061 184.634C72.0766 184.809 72.8185 184.561 72.9653 183.985C73.3175 184.347 73.6825 184.723 74.1615 184.881C74.6404 185.038 75.2567 184.892 75.4645 184.433C75.6876 183.938 75.3471 183.376 75.0314 182.943L72.6965 179.745C73.7847 180.857 74.8799 181.976 76.4976 182.173C76.5703 182.189 76.6462 182.182 76.7147 182.153C76.7867 182.103 76.8361 182.027 76.8521 181.94C77.2043 180.709 75.1487 178.992 74.5606 178.016C73.6268 176.468 72.969 174.768 72.6166 172.994C72.5662 172.734 72.5333 172.43 72.7152 172.237C73.0451 171.885 73.6168 172.278 73.8809 172.681C74.8271 174.118 75.1112 175.883 75.8014 177.46C75.9188 177.718 76.0855 178.006 76.3661 178.034C76.8157 178.079 76.9976 177.473 77.0082 177.021C77.0528 175.053 76.9096 173.028 76.3379 171.16C74.3388 170.07 73.0345 166.302 70.7384 167.748Z" fill="#475656"/>
<path d="M71.4815 164.316C67.5348 159.907 67.7814 153.447 68.4176 147.862C66.4617 147.854 64.5093 148.028 62.5857 148.382C60.8924 148.664 59.2227 149.072 57.5907 149.604C58.3256 154.227 60.9422 158.079 64.0061 161.709C64.6752 162.614 65.1245 163.663 65.3185 164.772C65.7564 167.047 66.0229 169.148 67.1557 171.074C67.6816 171.862 68.6442 173.524 69.2558 172.911C70.5682 171.599 69.0809 168.71 70.7443 167.745C73.0405 166.298 74.3447 170.06 76.3438 171.157C76.0703 170.239 75.6755 169.362 75.1699 168.548C74.1651 166.964 72.7341 165.71 71.4815 164.316Z" fill="#627272"/>
<path d="M93.9442 131.592C94.5441 133.66 95.2027 135.829 96.7487 137.327C97.4859 138.041 98.4579 138.583 99.4839 138.555C101.083 138.512 102.312 137.164 103.24 135.854C104.472 134.121 105.555 132.24 106.048 130.173C106.541 128.105 106.392 125.82 105.291 124.001C103.962 121.808 101.509 120.606 99.1869 119.519C97.4566 118.709 95.7156 117.896 93.8679 117.406C93.1894 117.226 92.471 117.092 91.7889 117.264C89.0021 117.968 91.1245 121.853 91.614 123.54C92.3896 126.223 93.1663 128.907 93.9442 131.592Z" fill="#B1C3C4"/>
<path d="M86.6355 149.757C86.3291 150.678 86.5181 151.711 86.9512 152.575C87.3844 153.438 88.0559 154.171 88.7438 154.857C89.8003 155.914 91.0552 156.946 92.5461 157.026C92.8986 157.059 93.2534 156.991 93.5685 156.83C93.7946 156.688 93.9934 156.506 94.1555 156.294C95.0191 155.25 95.6304 154.02 95.9422 152.701C96.1441 151.844 96.2075 150.905 95.813 150.118C95.2672 149.029 94.0181 148.52 92.8783 148.102C91.7114 147.676 90.4342 146.849 89.2063 147.241C88.1474 147.584 86.9712 148.716 86.6355 149.757Z" fill="#B1C3C4"/>
<path d="M72.3454 105.895C71.9674 106.063 71.5683 106.272 71.3934 106.647C71.1234 107.225 71.5049 107.887 71.9017 108.387C72.4866 109.126 73.1381 109.809 73.848 110.429C74.7872 111.251 75.9024 111.978 77.1455 112.001C77.3237 112.021 77.503 111.975 77.6503 111.873C77.7496 111.773 77.8201 111.648 77.8546 111.511C78.4051 109.853 78.0835 107.965 77.1326 106.517C75.7603 104.425 74.3951 104.981 72.3454 105.895Z" fill="#B1C3C4"/>
<path d="M64.0272 113.147C64.1062 113.25 64.2068 113.333 64.3219 113.393C65.4293 114.06 66.6426 114.533 67.9093 114.791C68.3073 114.872 68.7827 114.908 69.0633 114.615C69.2068 114.436 69.2891 114.216 69.298 113.987C69.4471 112.695 68.515 110.78 67.0829 110.607C66.2647 110.507 63.3628 112.141 64.0272 113.147Z" fill="#9FADAD"/>
<path d="M87.0956 193.416C88.4139 193.533 89.7217 192.449 89.8484 191.132C89.8895 190.699 89.8097 190.237 89.5409 189.895C89.2415 189.513 88.7567 189.332 88.3752 189.03C87.5288 188.362 87.2694 187.185 86.5592 186.374C86.3443 186.129 86.052 185.904 85.7257 185.928C85.1739 185.964 84.9192 186.625 84.837 187.171C84.5412 189.145 84.2689 193.162 87.0956 193.416Z" fill="#445656"/>
<path d="M78.4416 217.075C78.4862 217.361 78.6024 217.716 78.8924 217.742C79.6848 215.762 79.5568 213.549 79.9043 211.444C80.2518 209.338 81.0899 207.348 81.4304 205.243C81.7215 203.448 80.9608 201.193 79.7106 203.812C77.8734 207.662 77.8089 212.952 78.4416 217.075Z" fill="#445656"/>
<path d="M73.2576 78.3226C72.295 83.7836 72.6566 90.0219 76.5281 93.9918C78.7456 96.265 81.8248 97.4802 84.8863 98.3256C87.2447 98.9785 89.677 99.4528 92.1246 99.3824C97.0738 99.2485 101.699 96.9307 105.859 94.2548C108.66 92.456 111.494 90.4118 114.799 90.0278C115.239 89.9762 115.695 89.9562 116.113 90.1041C116.961 90.4035 117.429 91.2853 118.073 91.9135C119.967 93.7628 123.343 93.1088 125.177 91.1973C127.011 89.2857 127.653 86.5452 128.044 83.9245C128.689 79.5895 128.835 75.0713 127.464 70.9089C126.954 69.366 126.247 67.8983 125.521 66.4471C125.138 65.8897 124.753 65.3418 124.364 64.8032C122.741 62.5451 121.006 60.3702 119.164 58.2866C116.909 55.7363 114.469 53.3011 111.57 51.5152C106.532 48.4095 100.324 47.543 94.733 49.572C91.6879 50.6768 88.9328 52.4475 86.4171 54.5035C79.6143 60.7324 74.8623 69.2216 73.2576 78.3226Z" fill="#3F3949"/>
<path d="M133.677 86.3022C133.112 79.1233 129.559 72.3296 125.526 66.447C126.251 67.9007 126.959 69.3684 127.469 70.9089C128.84 75.0713 128.694 79.5895 128.048 83.9245C127.658 86.5452 127.015 89.2857 125.182 91.1973C123.348 93.1088 119.972 93.7628 118.077 91.9135C117.434 91.2853 116.966 90.4035 116.118 90.1041C115.7 89.9562 115.244 89.9761 114.803 90.0278C111.499 90.4141 108.665 92.4583 105.864 94.2548C101.699 96.9307 97.0738 99.2485 92.1293 99.3824C89.6817 99.4481 87.2494 98.9738 84.891 98.3256C81.8295 97.4802 78.7503 96.265 76.5328 93.9918C72.6589 90.0219 72.2997 83.7836 73.2623 78.3225C74.867 69.2216 79.619 60.7324 86.4265 54.4976C85.8787 54.9461 85.3402 55.4075 84.8112 55.8819C78.1669 61.8349 73.0416 69.4893 70.1656 77.9351C69.473 79.9675 68.9071 82.0552 68.7005 84.1922C68.4272 87.1785 68.8283 90.1881 69.8744 92.9984C70.4614 94.5824 71.4885 95.9655 72.6296 97.2102C79.1354 104.308 89.1922 107.073 98.8077 107.543C107.847 107.987 117.195 106.603 124.986 102.014C127.334 100.632 129.553 98.9338 131.114 96.7006C133.201 93.7182 133.963 89.9339 133.677 86.3022Z" fill="#2A2533"/>
<path d="M106.71 41.1228C107.154 37.6238 105.21 34.8657 103.217 32.2978C102.969 32.1804 102.716 32.0794 102.457 31.9878C103.182 34.3643 103.79 36.8242 103.656 39.3064C103.522 41.7886 102.55 44.3212 100.604 45.8617C101.425 44.6359 101.403 42.978 100.838 41.6148C100.274 40.2516 99.2255 39.1408 98.1045 38.178C99.5401 40.3349 99.2889 43.3103 97.9988 45.5576C96.7087 47.805 94.5452 49.4218 92.2701 50.6617C91.2817 51.1948 90.0961 52.066 90.4353 53.1228C92.9827 52.7893 95.9996 52.5052 98.8581 51.8453C99.6824 51.5084 100.475 51.0981 101.226 50.6195C104.529 48.4966 106.18 44.9036 106.71 41.1228Z" fill="#3F3949"/>
<path d="M103.217 32.2979C105.213 34.8658 107.154 37.6239 106.71 41.1229C106.18 44.8978 104.529 48.4966 101.226 50.6195C100.475 51.0982 99.6825 51.5084 98.8582 51.8453C104.009 50.6547 108.641 48.2395 109.071 42.0998C109.36 38.0583 106.881 33.9898 103.217 32.2979Z" fill="#2A2533"/>
<path d="M94.0545 81.662C100.147 81.662 105.086 76.7221 105.086 70.6284C105.086 64.5346 100.147 59.5947 94.0545 59.5947C87.9621 59.5947 83.0233 64.5346 83.0233 70.6284C83.0233 76.7221 87.9621 81.662 94.0545 81.662Z" fill="#2A2533"/>
<path d="M95.1369 78.7735C100.374 78.7735 104.62 74.527 104.62 69.2886C104.62 64.0502 100.374 59.8037 95.1369 59.8037C89.8996 59.8037 85.6541 64.0502 85.6541 69.2886C85.6541 74.527 89.8996 78.7735 95.1369 78.7735Z" fill="white"/>
<path d="M96.5432 69.689C97.9137 69.689 99.0248 68.5777 99.0248 67.2068C99.0248 65.8359 97.9137 64.7246 96.5432 64.7246C95.1726 64.7246 94.0615 65.8359 94.0615 67.2068C94.0615 68.5777 95.1726 69.689 96.5432 69.689Z" fill="#1A1A1A"/>
<path d="M100.086 65.2381C95.9879 64.5089 91.6046 61.7708 90.1877 57.8408C88.1472 58.5471 86.339 59.7986 84.9591 61.4596C92.7069 62.4729 99.8489 66.1457 105.724 71.3778C106.139 69.2825 105.984 67.1143 105.275 65.0995C103.695 65.7465 101.87 65.5856 100.086 65.2381Z" fill="#6D677C"/>
<path d="M92.1269 57.3496C91.4669 57.4591 90.8174 57.6245 90.1853 57.844C91.6022 61.7751 95.9856 64.5132 100.084 65.2412C101.87 65.5934 103.695 65.7496 105.275 65.1038C104.344 62.4715 102.516 60.2514 100.112 58.8333C97.7073 57.4152 94.8802 56.8899 92.1269 57.3496Z" fill="#7C778C"/>
<path d="M123.13 77.1638C127.73 77.1638 131.459 73.434 131.459 68.8331C131.459 64.2322 127.73 60.5024 123.13 60.5024C118.53 60.5024 114.801 64.2322 114.801 68.8331C114.801 73.434 118.53 77.1638 123.13 77.1638Z" fill="#2A2533"/>
<path d="M123.178 75.2125C127.133 75.2125 130.339 72.0058 130.339 68.0501C130.339 64.0944 127.133 60.8877 123.178 60.8877C119.223 60.8877 116.017 64.0944 116.017 68.0501C116.017 72.0058 119.223 75.2125 123.178 75.2125Z" fill="white"/>
<path d="M121.262 67.9984C122.297 67.9984 123.136 67.1594 123.136 66.1245C123.136 65.0895 122.297 64.2505 121.262 64.2505C120.227 64.2505 119.389 65.0895 119.389 66.1245C119.389 67.1594 120.227 67.9984 121.262 67.9984Z" fill="#1A1A1A"/>
<path d="M118.248 65.4575C121.254 64.5416 124.294 62.0947 125.002 59.0195C126.595 59.3662 128.062 60.1421 129.246 61.2634C123.525 62.7217 118.505 66.1174 114.572 70.5686C114.071 69.0358 113.993 67.3964 114.344 65.8226C115.582 66.1631 116.939 65.879 118.248 65.4575Z" fill="#6D677C"/>
<path d="M123.502 58.8244C124.007 58.8477 124.508 58.9129 125.002 59.0193C124.298 62.0944 121.254 64.5379 118.248 65.4572C116.939 65.8788 115.585 66.1617 114.343 65.8224C114.804 63.7651 115.974 61.9358 117.649 60.656C119.324 59.3762 121.396 58.7276 123.502 58.8244Z" fill="#7C778C"/>
<path d="M140.082 115.063C137.473 106.984 123.866 76.6058 116.838 74.106C115.763 73.7159 114.598 73.6506 113.487 73.9182C124.144 86.9514 132.728 101.496 140.329 116.578C140.336 116.063 140.252 115.55 140.082 115.063Z" fill="#6B6B6D"/>
<path d="M107.247 97.788C103.395 90.0832 107.834 81.2112 112.518 74.2261C111.344 74.6899 110.238 75.4531 109.205 76.3161C108.172 77.1791 107.209 78.1384 106.307 78.9944C100.773 84.2464 96.7369 91.7528 94.1648 98.8612C93.7434 100.035 93.3619 101.233 93.3372 102.474C93.3044 104.1 94.0416 105.602 95.2718 106.648C98.6621 109.524 125.487 117.638 136.106 118.648C137.07 118.74 138.081 118.826 138.975 118.455C139.117 118.396 139.254 118.326 139.385 118.244C139.592 118.117 139.775 117.954 139.924 117.762C136.596 114.772 132.763 112.327 128.558 110.347C120.965 106.696 111.037 105.674 107.247 97.788Z" fill="#151419"/>
<path d="M140.329 116.578C132.728 101.498 124.144 86.954 113.487 73.9185C113.257 73.9725 113.03 74.0384 112.806 74.1157C112.708 74.1509 112.609 74.1873 112.512 74.2261C107.834 81.2112 103.389 90.0832 107.247 97.7881C111.043 105.674 120.971 106.696 128.564 110.352C132.769 112.331 136.601 114.777 139.93 117.766C139.989 117.693 140.042 117.614 140.089 117.532C140.242 117.237 140.324 116.91 140.329 116.578Z" fill="#525156"/>
<path d="M76.3039 77.2354C76.0691 80.1919 77.4356 83.1367 79.5509 85.2138C81.6663 87.2909 84.4602 88.5696 87.3339 89.2976C85.111 89.5502 82.8614 89.4276 80.6791 88.9347C82.5949 91.2009 85.4123 92.4643 88.124 93.6549C86.0767 94.2725 83.9061 93.6067 81.9563 92.7285C74.8048 89.5112 74.2308 83.5582 76.3039 77.2354Z" fill="#504B5B"/>
<path d="M113.771 86.7486C115.034 86.7486 116.058 85.2845 116.058 83.4785C116.058 81.6725 115.034 80.2085 113.771 80.2085C112.508 80.2085 111.485 81.6725 111.485 83.4785C111.485 85.2845 112.508 86.7486 113.771 86.7486Z" fill="#151419"/>
<path d="M117.044 86.9985C117.06 86.8564 117.055 86.685 116.935 86.6075C116.754 86.4901 116.545 86.6991 116.413 86.867C115.583 87.912 114.006 88.1867 112.774 87.6818C111.541 87.177 110.65 86.0145 110.243 84.7464C110.135 84.4083 109.962 83.9856 109.608 83.9903C109.193 83.9903 109.076 84.5644 109.127 84.9766C109.383 87.0337 110.726 89.3268 112.64 90.2674C114.718 91.283 116.815 89.0521 117.044 86.9985Z" fill="#6B6B6D"/>
</svg>
