<svg width="24" height="24" viewBox="0 0 24 24" fill="none" xmlns="http://www.w3.org/2000/svg">
<circle cx="12" cy="12" r="12" fill="#D7A01F"/>
<path d="M21.7778 10.7824C21.7778 12.2252 17.4996 15.1109 12.2222 15.1109C6.94486 15.1109 2.66669 12.2252 2.66669 10.7824C2.66669 5.31824 6.94486 0.888672 12.2222 0.888672C17.4996 0.888672 21.7778 5.31824 21.7778 10.7824Z" fill="#FABC29"/>
<path d="M11.996 24C9.22751 23.9981 6.54471 23.0395 4.40209 21.2866C2.25947 19.5337 0.788746 17.0942 0.239031 14.3813C-0.310685 11.6684 0.0944056 8.849 1.38569 6.40054C2.67697 3.95208 4.77505 2.02513 7.32456 0.946086C10.2572 -0.292614 13.562 -0.315818 16.5118 0.881579C19.4616 2.07898 21.8148 4.39889 23.0537 7.33096C24.2927 10.263 24.3159 13.5671 23.1182 16.5163C21.9206 19.4655 19.6002 21.8182 16.6675 23.0569C15.1897 23.6823 13.6008 24.003 11.996 24ZM11.996 0.990525C5.92322 0.990525 0.982825 5.9299 0.982825 12.0015C0.982825 18.0731 5.92322 23.0124 11.996 23.0124C18.0689 23.0124 23.0093 18.0731 23.0093 12.0015C23.0093 5.9299 18.0686 0.990525 11.996 0.990525Z" fill="white"/>
<path d="M18.7734 7.86155H5.2706C5.13962 7.86155 5.014 7.80953 4.92138 7.71693C4.82877 7.62433 4.77673 7.49874 4.77673 7.36779C4.77673 7.23683 4.82877 7.11124 4.92138 7.01864C5.014 6.92605 5.13962 6.87402 5.2706 6.87402H18.7734C18.9044 6.87402 19.03 6.92605 19.1226 7.01864C19.2152 7.11124 19.2673 7.23683 19.2673 7.36779C19.2673 7.49874 19.2152 7.62433 19.1226 7.71693C19.03 7.80953 18.9044 7.86155 18.7734 7.86155Z" fill="white"/>
<path d="M11.5948 10.1789H5.2706C5.13962 10.1789 5.014 10.1269 4.92138 10.0343C4.82877 9.94172 4.77673 9.81613 4.77673 9.68517C4.77673 9.55422 4.82877 9.42863 4.92138 9.33603C5.014 9.24343 5.13962 9.19141 5.2706 9.19141H11.5948C11.7258 9.19141 11.8514 9.24343 11.944 9.33603C12.0366 9.42863 12.0887 9.55422 12.0887 9.68517C12.0887 9.81613 12.0366 9.94172 11.944 10.0343C11.8514 10.1269 11.7258 10.1789 11.5948 10.1789Z" fill="white"/>
<path d="M18.7734 12.4953H5.2706C5.13962 12.4953 5.014 12.4433 4.92138 12.3507C4.82877 12.2581 4.77673 12.1325 4.77673 12.0016C4.77673 11.8706 4.82877 11.745 4.92138 11.6524C5.014 11.5598 5.13962 11.5078 5.2706 11.5078H18.7734C18.9044 11.5078 19.03 11.5598 19.1226 11.6524C19.2152 11.745 19.2673 11.8706 19.2673 12.0016C19.2673 12.1325 19.2152 12.2581 19.1226 12.3507C19.03 12.4433 18.9044 12.4953 18.7734 12.4953Z" fill="white"/>
<path d="M18.7734 14.8117H12.3845C12.2535 14.8117 12.1279 14.7597 12.0353 14.6671C11.9427 14.5745 11.8906 14.4489 11.8906 14.318C11.8906 14.187 11.9427 14.0614 12.0353 13.9688C12.1279 13.8762 12.2535 13.8242 12.3845 13.8242H18.7734C18.9044 13.8242 19.03 13.8762 19.1226 13.9688C19.2152 14.0614 19.2673 14.187 19.2673 14.318C19.2673 14.4489 19.2152 14.5745 19.1226 14.6671C19.03 14.7597 18.9044 14.8117 18.7734 14.8117Z" fill="white"/>
<path d="M18.6505 11.2464H13.498C13.2333 11.2461 12.9796 11.1409 12.7923 10.9539C12.6051 10.7669 12.4997 10.5133 12.4991 10.2487V9.12169C12.4994 8.85691 12.6047 8.60305 12.792 8.41583C12.9793 8.22861 13.2332 8.12331 13.498 8.12305H18.6505C18.9153 8.12337 19.1691 8.2287 19.3563 8.41592C19.5435 8.60313 19.6488 8.85695 19.6491 9.12169V10.2487C19.6486 10.5133 19.5432 10.7668 19.356 10.9538C19.1688 11.1408 18.9151 11.246 18.6505 11.2464ZM13.498 9.11058C13.4965 9.11058 13.4951 9.11086 13.4937 9.11142C13.4924 9.11198 13.4912 9.1128 13.4901 9.11383C13.4891 9.11486 13.4883 9.11609 13.4877 9.11743C13.4872 9.11878 13.4869 9.12023 13.4869 9.12169V10.2487C13.4869 10.2502 13.4872 10.2516 13.4877 10.253C13.4883 10.2543 13.4891 10.2555 13.4901 10.2566C13.4912 10.2576 13.4924 10.2584 13.4937 10.259C13.4951 10.2595 13.4965 10.2598 13.498 10.2598H18.6505C18.6534 10.2597 18.6562 10.2586 18.6582 10.2565C18.6602 10.2544 18.6614 10.2516 18.6614 10.2487V9.12169C18.6614 9.11878 18.6602 9.11599 18.6582 9.11392C18.6562 9.11184 18.6534 9.11064 18.6505 9.11058H13.498Z" fill="white"/>
<path d="M10.4933 15.8802H5.34082C5.07604 15.8798 4.82219 15.7745 4.63498 15.5873C4.44777 15.4001 4.34249 15.1463 4.34222 14.8815V13.7545C4.34249 13.4898 4.44777 13.2359 4.63498 13.0487C4.82219 12.8615 5.07604 12.7562 5.34082 12.7559H10.4933C10.7582 12.7561 11.0121 12.8614 11.1993 13.0486C11.3866 13.2359 11.4919 13.4897 11.4922 13.7545V14.8805C11.4922 15.1455 11.387 15.3996 11.1997 15.587C11.0124 15.7745 10.7583 15.8799 10.4933 15.8802ZM5.34082 13.7444C5.33792 13.7444 5.33516 13.7456 5.33312 13.7477C5.33109 13.7498 5.32996 13.7526 5.32996 13.7555V14.8815C5.32996 14.8844 5.33109 14.8872 5.33312 14.8893C5.33516 14.8914 5.33792 14.8926 5.34082 14.8926H10.4933C10.4948 14.8926 10.4962 14.8923 10.4976 14.8918C10.4989 14.8912 10.5002 14.8904 10.5012 14.8894C10.5022 14.8883 10.503 14.8871 10.5036 14.8858C10.5042 14.8844 10.5044 14.883 10.5044 14.8815V13.7545C10.5044 13.7516 10.5033 13.7487 10.5012 13.7466C10.4991 13.7446 10.4963 13.7434 10.4933 13.7434L5.34082 13.7444Z" fill="white"/>
<path d="M18.7734 17.1291H5.2706C5.13962 17.1291 5.014 17.0771 4.92138 16.9845C4.82877 16.8919 4.77673 16.7663 4.77673 16.6354C4.77673 16.5044 4.82877 16.3788 4.92138 16.2862C5.014 16.1936 5.13962 16.1416 5.2706 16.1416H18.7734C18.9044 16.1416 19.03 16.1936 19.1226 16.2862C19.2152 16.3788 19.2673 16.5044 19.2673 16.6354C19.2673 16.7663 19.2152 16.8919 19.1226 16.9845C19.03 17.0771 18.9044 17.1291 18.7734 17.1291Z" fill="white"/>
</svg>
