<svg width="366" height="247" viewBox="0 0 366 247" fill="none" xmlns="http://www.w3.org/2000/svg">
<g clip-path="url(#clip0)">
<path d="M325.753 222.773H39.9896V139.143V223.352L10.402 235.898H356.088V139.143H325.753V222.773Z" fill="#442A33"/>
<path d="M39.9896 127.802V47.0802H325.753V127.802H356.088V34.4722H10.402L39.9896 47.0181V127.802Z" fill="#442A33"/>
<path d="M326.501 222.869L356.088 235.415V33.9879L326.501 46.5337V222.869Z" fill="#604250"/>
<path d="M140.916 17.7191C143.179 16.2561 146.097 16.4835 148.237 18.12C149.303 18.9406 150.729 19.4412 152.07 19.6276C155.291 20.0673 158.569 19.5022 161.455 18.0098C163.985 16.6933 166.099 14.7192 168.44 13.0862C172.724 10.1181 177.72 8.33548 182.919 7.91994C182.989 7.91463 183.059 7.93577 183.114 7.97919C183.169 8.0226 183.206 8.08513 183.217 8.1544L183.287 8.5987L183.267 8.21653C183.265 8.17667 183.271 8.13685 183.286 8.09972C183.301 8.06258 183.323 8.02899 183.352 8.00116C183.381 7.97333 183.415 7.9519 183.452 7.93831C183.49 7.92471 183.53 7.91925 183.57 7.92229C188.748 8.34595 193.721 10.1252 197.989 13.0804C200.33 14.7087 202.444 16.6828 204.973 18.004C207.859 19.4966 211.138 20.0617 214.359 19.6217C215.968 19.3978 217.701 18.7155 218.785 17.589C220.053 16.269 221.999 15.8446 223.643 16.6511C225.442 17.5417 227.087 18.7131 228.516 20.1211C226.726 17.72 224.395 15.7736 221.71 14.4402C220.064 13.6325 218.119 14.0569 216.851 15.378C215.768 16.5046 214.031 17.1869 212.425 17.4108C209.205 17.8509 205.927 17.2862 203.041 15.7942C200.511 14.4777 198.397 12.5024 196.056 10.8706C191.788 7.91531 186.814 6.13602 181.637 5.71252C181.597 5.70947 181.557 5.71492 181.519 5.72853C181.482 5.74214 181.448 5.76358 181.419 5.79144C181.39 5.81929 181.368 5.8529 181.354 5.89003C181.339 5.92717 181.333 5.96697 181.335 6.00677L181.355 6.38894L181.285 5.94464C181.274 5.87539 181.236 5.81301 181.181 5.76966C181.126 5.72631 181.056 5.70511 180.986 5.71018C175.786 6.12634 170.791 7.90933 166.507 10.8776C164.166 12.5048 162.052 14.4801 159.522 15.8012C156.636 17.2935 153.358 17.8582 150.137 17.4178C148.796 17.2314 147.369 16.7262 146.303 15.9114C144.163 14.2702 141.25 14.0463 138.983 15.5105C134.907 18.1458 131.843 22.3754 130.833 27.1232C130.825 27.1627 130.825 27.2035 130.835 27.2428C130.844 27.2821 130.861 27.319 130.886 27.3509C130.911 27.3828 130.942 27.409 130.978 27.4278C131.014 27.4465 131.053 27.4574 131.094 27.4596C131.814 27.4995 132.533 27.5265 133.251 27.5476C134.575 23.5336 137.36 20.0191 140.916 17.7191Z" fill="#5B3B45"/>
<path d="M181.302 27.3612H181.136C181.518 27.4456 181.894 27.5324 182.261 27.6262C182.318 27.6411 182.37 27.6741 182.408 27.7203C182.445 27.7665 182.467 27.8235 182.47 27.8829L182.477 28.0177C182.479 28.0609 182.492 28.103 182.513 28.1406C182.534 28.1782 182.564 28.2104 182.6 28.2345C182.636 28.2586 182.678 28.274 182.721 28.2795C182.764 28.285 182.807 28.2805 182.848 28.2662C183.078 28.1881 183.308 28.1099 183.538 28.0318C183.594 28.0136 183.655 28.0136 183.711 28.0318C183.927 28.099 184.141 28.167 184.351 28.2358C184.397 28.2506 184.445 28.2535 184.492 28.2443C184.539 28.235 184.583 28.2139 184.62 28.183C184.656 28.1521 184.684 28.1123 184.7 28.0676C184.717 28.0229 184.722 27.9746 184.715 27.9275C184.704 27.8598 184.718 27.7904 184.755 27.7327C184.792 27.675 184.849 27.6329 184.916 27.6145C185.074 27.5699 185.234 27.5277 185.394 27.4843L181.762 27.3519C181.61 27.3554 181.456 27.3554 181.302 27.3612Z" fill="#6D4B58"/>
<path d="M207.138 26.3895C215.307 27.0928 223.289 27.9134 231.465 27.4586C231.506 27.4564 231.545 27.4455 231.581 27.4267C231.617 27.408 231.648 27.3817 231.673 27.3498C231.698 27.3179 231.715 27.2811 231.724 27.2418C231.734 27.2025 231.734 27.1617 231.726 27.1221C231.172 24.5875 230.076 22.2022 228.512 20.1294C227.083 18.7215 225.439 17.5501 223.64 16.6595C221.994 15.8506 220.049 16.275 218.781 17.5973C217.698 18.7239 215.961 19.4061 214.355 19.63C211.134 20.07 207.856 19.5049 204.97 18.0123C202.441 16.6958 200.326 14.7217 197.985 13.0887C193.718 10.1335 188.744 8.35427 183.567 7.93061C183.527 7.92757 183.487 7.93303 183.449 7.94663C183.411 7.96022 183.377 7.98165 183.348 8.00948C183.32 8.03731 183.297 8.07091 183.283 8.10804C183.268 8.14517 183.261 8.18499 183.263 8.22485L183.283 8.60702L183.214 8.16272C183.203 8.09345 183.166 8.03093 183.11 7.98751C183.055 7.94409 182.986 7.92295 182.915 7.92826C177.716 8.3438 172.72 10.1264 168.437 13.0945C166.096 14.7228 163.981 16.697 161.451 18.0182C158.565 19.5105 155.287 20.0756 152.067 19.6359C150.726 19.4495 149.299 18.9443 148.233 18.1283C146.093 16.4871 143.18 16.2644 140.913 17.7274C137.356 20.0275 134.566 23.542 133.248 27.5547C140.678 27.7704 147.972 27.0377 155.421 26.3977C162.517 25.7869 173.284 25.638 181.133 27.3754H181.298C181.452 27.3695 181.606 27.3695 181.759 27.3754L185.39 27.5078C192.4 25.6228 199.873 25.7646 207.138 26.3895Z" fill="#6D4B58"/>
<path d="M39.9896 127.802V47.0181L10.402 34.4722V127.802H39.9896Z" fill="#513540"/>
<path d="M39.9896 139.143H10.402V235.898L39.9896 223.352V139.143Z" fill="#513540"/>
<path d="M325.753 47.0804H39.9896V127.803H325.753V47.0804Z" fill="#442A33"/>
<path d="M325.753 47.0804H39.9896V127.803H325.753V47.0804Z" fill="url(#paint0_linear)"/>
<path d="M325.753 139.145H39.9896V222.773H325.753V139.145Z" fill="#442A33"/>
<path d="M325.753 139.145H39.9896V222.773H325.753V139.145Z" fill="url(#paint1_linear)"/>
<path d="M365.871 23.3697V6.64227C365.871 4.77365 363.05 3.65528 360.962 4.69745C359.199 5.57666 357.671 6.83336 356.4 8.11584C354.402 10.1275 351.667 12.1872 348.387 13.0523C346.591 13.5213 344.36 13.3818 343.089 12.3302C342.591 11.9176 342.272 11.3924 341.769 10.9891C340.581 10.0243 338.53 9.85786 336.872 10.2963C335.214 10.7347 333.883 11.6737 332.743 12.6702C330.607 14.5376 328.954 16.6864 326.841 18.5691C323.528 21.5221 318.967 22.9406 314.023 23.3755H245.94C245.117 23.2782 244.307 23.1551 243.508 22.9969C235.254 21.3615 236.478 17.4871 233.18 13.4474C231.115 10.92 227.131 9.36784 222.847 8.18266C221.048 7.68444 218.91 8.09239 217.926 9.14511C217.26 9.85786 216.097 10.4346 214.79 10.6198C212.283 10.9821 209.655 10.2588 207.708 9.22014C205.761 8.18149 204.3 6.84508 202.584 5.66224C197.321 2.03049 189.42 -0.0761103 181.532 -0.00108385C173.645 -0.0784549 165.749 2.02815 160.481 5.65403C158.764 6.83687 157.308 8.17328 155.357 9.21193C153.406 10.2506 150.782 10.9704 148.274 10.6116C146.967 10.4229 145.806 9.84965 145.14 9.1369C144.155 8.08184 142.017 7.67623 140.218 8.17445C135.934 9.35964 131.95 10.9117 129.885 13.4392C126.587 17.4742 127.811 21.3533 119.556 22.9887C118.758 23.1469 117.946 23.27 117.126 23.3673H51.8477C46.9 22.9383 42.3424 21.5198 39.0294 18.5609C36.914 16.6782 35.2687 14.5294 33.1274 12.662C31.9875 11.6655 30.6594 10.7277 29 10.2881C27.3406 9.84848 25.2898 10.0161 24.1028 10.9809C23.5986 11.39 23.2802 11.9094 22.7819 12.322C21.5103 13.3771 19.2797 13.5177 17.4839 13.0441C14.205 12.1907 11.4644 10.1275 9.47119 8.11584C8.19959 6.83336 6.67296 5.57666 4.90894 4.69745C2.82056 3.65528 0 4.77365 0 6.64227V247H366V23.3697H365.871ZM138.983 15.5083C141.246 14.0441 144.163 14.2715 146.303 15.9092C147.369 16.724 148.796 17.2292 150.137 17.4156C153.358 17.8559 156.636 17.2912 159.522 15.799C162.051 14.4825 164.166 12.5072 166.507 10.8754C170.791 7.90878 175.787 6.12742 180.986 5.71265C181.056 5.70758 181.125 5.72878 181.181 5.77213C181.236 5.81548 181.274 5.87786 181.285 5.94711L181.355 6.3914L181.335 6.00924C181.333 5.96943 181.339 5.92964 181.354 5.8925C181.368 5.85537 181.39 5.82175 181.419 5.7939C181.448 5.76605 181.482 5.74461 181.519 5.731C181.557 5.71739 181.597 5.71194 181.637 5.71499C186.814 6.13849 191.788 7.91778 196.056 10.8731C198.397 12.5002 200.511 14.4755 203.041 15.7967C205.927 17.2887 209.205 17.8533 212.425 17.4133C214.034 17.1894 215.768 16.5071 216.851 15.3805C218.119 14.0617 220.067 13.6373 221.71 14.4427C224.395 15.7761 226.726 17.7224 228.516 20.1236C229.274 21.1367 229.926 22.2243 230.463 23.3697H132.096C133.614 20.1612 135.999 17.4387 138.983 15.5083V15.5083ZM356.088 127.801H10.402V139.15H356.088V235.903H10.402V34.4712H356.088V127.801Z" fill="url(#paint2_linear)"/>
<path d="M6.87282 19.3018C5.56244 17.9759 4.74447 16.2222 4.32609 14.4086C4.28239 14.2853 4.2849 14.1504 4.33314 14.0288C4.41188 13.887 4.59287 13.8436 4.7527 13.8178C9.21858 13.1226 13.9806 15.8224 15.6671 20.0016C17.994 16.8786 22.3659 15.4391 26.0961 16.5645C26.9317 16.8165 27.8719 17.4015 27.799 18.269C27.7496 18.8458 27.2549 19.2748 26.7789 19.6054C21.5785 23.2114 11.6971 24.1773 6.87282 19.3018Z" fill="#5B3B45"/>
<path d="M358.011 19.3018C359.322 17.9759 360.14 16.2222 360.559 14.4086C360.601 14.2851 360.599 14.1504 360.551 14.0288C360.473 13.887 360.292 13.8436 360.132 13.8178C355.666 13.1226 350.904 15.8224 349.218 20.0016C346.89 16.8786 342.519 15.4391 338.788 16.5645C337.953 16.8165 337.012 17.4015 337.086 18.269C337.135 18.8458 337.629 19.2748 338.106 19.6054C343.305 23.2114 353.188 24.1773 358.011 19.3018Z" fill="#5B3B45"/>
</g>
<defs>
<linearGradient id="paint0_linear" x1="39.9896" y1="87.4411" x2="325.753" y2="87.4411" gradientUnits="userSpaceOnUse">
<stop stop-color="#6D4B58"/>
<stop offset="0.99" stop-color="#492E38"/>
</linearGradient>
<linearGradient id="paint1_linear" x1="97276.7" y1="129232" x2="792125" y2="129232" gradientUnits="userSpaceOnUse">
<stop stop-color="#6D4B58"/>
<stop offset="0.99" stop-color="#492E38"/>
</linearGradient>
<linearGradient id="paint2_linear" x1="0" y1="123.498" x2="366" y2="123.498" gradientUnits="userSpaceOnUse">
<stop stop-color="#936F7A"/>
<stop offset="0.99" stop-color="#7C5761"/>
</linearGradient>
<clipPath id="clip0">
<rect width="366" height="247" fill="white"/>
</clipPath>
</defs>
</svg>
