<svg width="31" height="34" viewBox="0 0 31 34" fill="none" xmlns="http://www.w3.org/2000/svg">
<path fill-rule="evenodd" clip-rule="evenodd" d="M16.1265 3.58699C16.8776 2.59316 18.4175 2.9178 18.7292 4.1355L20.5031 11.0759C20.6261 11.5573 20.9694 11.9488 21.4303 12.1186L28.0183 14.5585C29.1761 14.9863 29.3531 16.5806 28.317 17.2609L22.4163 21.131C22.0044 21.4023 21.7505 21.8601 21.7321 22.3588L21.5054 29.5318C21.4619 30.7872 20.0354 31.451 19.0844 30.6529L13.6637 26.1031C13.2889 25.788 12.7798 25.6824 12.3119 25.8222L5.57982 27.8109C4.39999 28.1592 3.34452 26.9733 3.79194 25.8029L6.34331 19.121C6.52104 18.655 6.46301 18.1309 6.1902 17.7174L2.25666 11.7772C1.57011 10.7356 2.34656 9.34181 3.57173 9.41369L10.5678 9.83117C11.0564 9.8622 11.5266 9.64258 11.8217 9.2503L16.1265 3.58699ZM14.7377 14.6182L14.0538 15.5161C14.0066 15.5795 13.9328 15.6129 13.8512 15.6078L12.7459 15.5426C12.549 15.5315 12.4293 15.7511 12.5415 15.9163L13.1649 16.8584C13.2081 16.9221 13.2146 17.0046 13.1835 17.0804L12.7778 18.1377C12.7089 18.322 12.8765 18.5106 13.0643 18.4543L14.1294 18.1395C14.203 18.1172 14.2843 18.1347 14.3439 18.1827L15.203 18.9058C15.3483 19.0312 15.5807 18.9251 15.5875 18.727L15.6235 17.5897C15.6235 17.5109 15.667 17.4419 15.73 17.3995L16.6676 16.7865C16.8274 16.6781 16.8028 16.425 16.6189 16.3574L15.5756 15.9686C15.5028 15.946 15.4509 15.8832 15.4271 15.8033L15.1481 14.7066C15.0996 14.5137 14.8527 14.4649 14.7377 14.6182Z" fill="#FABC29"/>
<path fill-rule="evenodd" clip-rule="evenodd" d="M19.0842 30.653L13.6636 26.1031C13.2887 25.788 12.7796 25.6825 12.3117 25.8222L5.57963 27.811C4.3998 28.1592 3.34433 26.9734 3.79175 25.8029L6.34312 19.1211C6.52085 18.6551 6.46282 18.131 6.19001 17.7175L2.25647 11.7772C1.56992 10.7357 2.34637 9.34184 3.57154 9.41372L10.5676 9.8312C11.0562 9.86223 11.5264 9.64262 11.8215 9.25033L16.1263 3.58703C16.8774 2.59319 18.4173 2.91784 18.729 4.13553L20.5029 11.076C20.6259 11.5574 20.9692 11.9488 21.4301 12.1186L28.0181 14.5585C29.1759 14.9863 29.3529 16.5806 28.3168 17.261L22.4161 21.131C22.0042 21.4024 21.7503 21.8602 21.7319 22.3588L21.5052 29.5318C21.4617 30.7872 20.0352 31.4511 19.0842 30.653ZM23.7232 22.6655L23.504 29.6011C23.406 32.4281 20.0978 34.1144 17.7986 32.185L12.6008 27.8223L6.14624 29.729C3.26948 30.5782 0.926176 27.6996 1.92333 25.0894C1.92341 25.0892 1.92324 25.0897 1.92333 25.0894L4.3919 18.6245L0.586589 12.8779C-0.955354 10.5386 0.72923 7.24353 3.68868 7.41715L3.69068 7.41727L10.3984 7.81755L14.5307 2.3812C14.5314 2.38035 14.532 2.3795 14.5326 2.37865C16.3294 0.00508374 19.9541 0.856119 20.6665 3.63962L22.3783 10.337L28.7113 12.6825C28.7118 12.6826 28.7123 12.6828 28.7127 12.683C31.4268 13.6871 31.8057 17.3627 29.4146 18.9328L29.4137 18.9334L23.7232 22.6655ZM14.7375 14.6183L14.0536 15.5161C14.0064 15.5795 13.9326 15.6129 13.851 15.6079L12.7458 15.5426C12.5489 15.5315 12.4292 15.7511 12.5413 15.9163L13.1647 16.8585C13.2079 16.9221 13.2144 17.0046 13.1833 17.0805L12.7776 18.1377C12.7087 18.322 12.8763 18.5106 13.0642 18.4544L14.1292 18.1395C14.2028 18.1173 14.2841 18.1348 14.3437 18.1828L15.2028 18.9058C15.3482 19.0313 15.5805 18.9252 15.5873 18.727L15.6233 17.5897C15.6233 17.5109 15.6668 17.442 15.7298 17.3995L16.6674 16.7866C16.8272 16.6781 16.8026 16.4251 16.6187 16.3574L15.5754 15.9686C15.5026 15.946 15.4508 15.8832 15.4269 15.8034L15.1479 14.7066C15.0995 14.5138 14.8526 14.465 14.7375 14.6183Z" fill="#001E26"/>
</svg>
