<svg width="167" height="205" viewBox="0 0 167 205" fill="none" xmlns="http://www.w3.org/2000/svg">
<g filter="url(#filter0_di)">
<path d="M1 15C1 6.71573 7.71573 0 16 0H151C159.284 0 166 6.71573 166 15V186C166 194.284 159.284 201 151 201H16C7.71572 201 1 194.284 1 186V15Z" fill="#FFF3CB"/>
<path d="M3.5 15C3.5 8.09644 9.09644 2.5 16 2.5H151C157.904 2.5 163.5 8.09644 163.5 15V186C163.5 192.904 157.904 198.5 151 198.5H16C9.09644 198.5 3.5 192.904 3.5 186V15Z" stroke="url(#paint0_linear)" stroke-width="5"/>
</g>
<path d="M2.5 15C2.5 7.54416 8.54416 1.5 16 1.5H151C158.456 1.5 164.5 7.54416 164.5 15V186C164.5 193.456 158.456 199.5 151 199.5H16C8.54415 199.5 2.5 193.456 2.5 186V15Z" stroke="url(#paint1_linear)" stroke-width="3"/>
<defs>
<filter id="filter0_di" x="0" y="0" width="167" height="205" filterUnits="userSpaceOnUse" color-interpolation-filters="sRGB">
<feFlood flood-opacity="0" result="BackgroundImageFix"/>
<feColorMatrix in="SourceAlpha" type="matrix" values="0 0 0 0 0 0 0 0 0 0 0 0 0 0 0 0 0 0 127 0"/>
<feOffset dy="3"/>
<feGaussianBlur stdDeviation="0.5"/>
<feColorMatrix type="matrix" values="0 0 0 0 0 0 0 0 0 0 0 0 0 0 0 0 0 0 0.25 0"/>
<feBlend mode="normal" in2="BackgroundImageFix" result="effect1_dropShadow"/>
<feBlend mode="normal" in="SourceGraphic" in2="effect1_dropShadow" result="shape"/>
<feColorMatrix in="SourceAlpha" type="matrix" values="0 0 0 0 0 0 0 0 0 0 0 0 0 0 0 0 0 0 127 0" result="hardAlpha"/>
<feOffset dy="7"/>
<feGaussianBlur stdDeviation="1"/>
<feComposite in2="hardAlpha" operator="arithmetic" k2="-1" k3="1"/>
<feColorMatrix type="matrix" values="0 0 0 0 0 0 0 0 0 0 0 0 0 0 0 0 0 0 0.25 0"/>
<feBlend mode="normal" in2="shape" result="effect2_innerShadow"/>
</filter>
<linearGradient id="paint0_linear" x1="83.5" y1="0" x2="83.5" y2="201" gradientUnits="userSpaceOnUse">
<stop stop-color="#FABE2E"/>
<stop offset="1" stop-color="#FFF396"/>
</linearGradient>
<linearGradient id="paint1_linear" x1="83.5" y1="0" x2="83.5" y2="201" gradientUnits="userSpaceOnUse">
<stop stop-color="#FFF59C"/>
<stop offset="0.5" stop-color="#FABC29"/>
</linearGradient>
</defs>
</svg>
