<svg width="12" height="12" viewBox="0 0 12 12" fill="none" xmlns="http://www.w3.org/2000/svg">
<circle cx="6" cy="6" r="6" fill="white"/>
<path d="M5.99993 2.9248C6.22493 2.9248 6.44993 3.1498 6.44993 3.3748C6.44993 3.1498 6.22493 2.9248 5.99993 2.9248C5.77493 2.9248 5.54993 3.1498 5.54993 3.3748C5.54993 3.1498 5.77493 2.9248 5.99993 2.9248Z" fill="#001E26"/>
<path d="M5.99993 2.9248C6.22493 2.9248 6.44993 3.1498 6.44993 3.3748C6.44993 3.1498 6.22493 2.9248 5.99993 2.9248C5.77493 2.9248 5.54993 3.1498 5.54993 3.3748C5.54993 3.1498 5.77493 2.9248 5.99993 2.9248Z" fill="#001E26"/>
<path d="M8.175 6.75L6.75 5.7V3.375C6.75 3 6.45 2.625 6 2.625C5.625 2.625 5.25 2.925 5.25 3.375V6C5.25 6.225 5.325 6.45 5.55 6.6L7.35 7.95C7.5 8.025 7.65 8.1 7.8 8.1C8.025 8.1 8.25 8.025 8.4 7.8C8.55 7.65 8.55 7.425 8.55 7.275C8.475 7.05 8.4 6.9 8.175 6.75Z" fill="#001E26"/>
<path d="M6 0C2.7 0 0 2.7 0 6C0 9.3 2.7 12 6 12C9.3 12 12 9.3 12 6C12 2.7 9.3 0 6 0ZM6 10.575C3.525 10.575 1.425 8.55 1.425 6C1.425 3.45 3.525 1.425 6 1.425C8.475 1.425 10.575 3.45 10.575 6C10.575 8.55 8.475 10.575 6 10.575Z" fill="#001E26"/>
</svg>
