<svg width="265" height="56" viewBox="0 0 265 56" fill="none" xmlns="http://www.w3.org/2000/svg">
<path d="M13 7H11.4626L12.0859 8.40542L20.776 28L12.0859 47.5946L11.4626 49H13H252H253.537L252.914 47.5946L244.224 28L252.914 8.40542L253.537 7H252H13Z" fill="#016B88" stroke="#001E26" stroke-width="2"/>
<path d="M19.4364 12.5H245.564L238.088 27.3246L237.747 28L238.088 28.6754L245.564 43.5H19.4364L26.9124 28.6754L27.253 28L26.9124 27.3246L19.4364 12.5Z" stroke="white" stroke-width="3"/>
<path d="M227.103 12.1486C228.823 13.9429 228.762 16.7915 226.968 18.5111L223.156 22.1642C222.711 22.5907 222.146 22.8697 221.537 22.9634L216.855 23.6836C215.814 23.8438 214.827 23.169 214.599 22.1407L214.005 19.4683L214.821 15.0958C214.848 14.9509 214.891 14.8095 214.949 14.674L215.552 13.2681C216.418 11.2497 217.995 9.61936 219.983 8.68638C221.55 7.95097 223.412 8.29736 224.61 9.54726L226.411 11.4266L227.103 12.1486Z" fill="#003847" fill-opacity="0.35"/>
<path d="M28.25 41.0065C27.0074 38.8542 27.7448 36.102 29.8971 34.8594L31.6268 33.8607C33.4167 32.8273 35.6909 33.871 36.0747 35.9018L36.2254 36.6997C36.3886 37.5632 37.0964 38.2191 37.9698 38.3161L41 38.6528L40.836 40.693C40.8056 41.0714 40.6681 41.4334 40.4396 41.7365L39.7352 42.6712C38.4132 44.4252 36.4935 45.6329 34.3402 46.0653C32.6428 46.4062 30.9172 45.6262 30.0516 44.1269L28.75 41.8725L28.25 41.0065Z" fill="#003847" fill-opacity="0.35"/>
<path d="M32.6203 19.9458C31.156 21.9721 29.7745 21.5907 28.4316 20.6203C26 18.8631 26.7867 17.7745 27.7571 16.4316C28.7276 15.0886 30.6029 14.7867 31.9458 15.7571C33.2888 16.7276 33.5907 18.6029 32.6203 19.9458Z" fill="#003847" fill-opacity="0.35"/>
</svg>
