<svg width="32" height="32" viewBox="0 0 32 32" fill="none" xmlns="http://www.w3.org/2000/svg">
<path d="M26.4071 6.66153H27.2688C27.0181 9.14745 26.2571 11.3996 25.0968 13.1433L25.0968 13.1433C25.0596 13.1992 25.0222 13.2543 24.9846 13.3086C25.6794 11.2769 26.1584 9.02479 26.4071 6.66153ZM5.59304 6.66153C5.8417 9.02477 6.32076 11.2769 7.01555 13.3085C6.97794 13.2542 6.94056 13.1992 6.90341 13.1433L6.90338 13.1433C5.74315 11.3996 4.98209 9.14745 4.7314 6.66153H5.59304ZM29.1799 3.02089H26.6064C26.6068 2.95411 26.607 2.88725 26.607 2.82032C26.607 1.81477 25.7917 1 24.7867 1H7.21372C6.20834 1 5.3934 1.81494 5.3934 2.82032C5.3934 2.88725 5.39359 2.9541 5.39397 3.02089H2.82032C1.81494 3.02089 1 3.83583 1 4.84121C1 8.68022 2.00163 12.3485 3.87238 15.16C5.63572 17.8103 8.03787 19.495 10.7443 19.7928C11.139 20.1924 11.5523 20.5481 11.9831 20.8559V22.9662H11.6069C9.39088 22.9662 7.58989 24.7675 7.58989 26.9832V27.6216C7.06318 27.9406 6.71126 28.5192 6.71126 29.1797C6.71126 30.1851 7.52619 31 8.53157 31H23.4686C24.474 31 25.289 30.1851 25.289 29.1797C25.289 28.5192 24.937 27.9406 24.4103 27.6216V26.9832C24.4103 24.7674 22.6091 22.9662 20.3933 22.9662H20.0171V20.8558C20.4478 20.548 20.8611 20.1924 21.2557 19.7928C23.9623 19.495 26.3643 17.8103 28.1278 15.16L27.2953 14.606L28.1278 15.16C29.9986 12.3485 31.0002 8.68022 31.0002 4.84121C31.0002 3.83566 30.1849 3.02089 29.1799 3.02089Z" fill="#FABC29" stroke="#001E26" stroke-width="2"/>
</svg>
