<svg width="168" height="206" viewBox="0 0 228 280" fill="none" xmlns="http://www.w3.org/2000/svg">
<path d="M99.493 152.163C97.704 152.7 95.4254 155.909 93.7831 157.042C89.5723 159.95 84.7711 161.906 79.9463 163.544C77.5105 164.365 75.0417 165.133 72.5871 165.928C73.3103 166.24 73.9801 166.663 74.5722 167.182C75.5111 168.023 76.2335 169.078 76.6785 170.258C77.1235 171.437 77.278 172.706 77.1289 173.958C76.7181 177.143 74.3984 179.726 72.0178 181.882C67.0803 186.353 61.4209 189.952 56.2874 194.196C51.154 198.441 46.4325 203.536 44.2526 209.824C43.0029 206.851 42.3404 203.665 42.3015 200.441C41.9483 202.201 41.7991 203.995 41.8566 205.789C41.967 209.825 42.9425 213.783 43.9697 217.686C44.87 213.426 47.8764 209.946 50.992 206.896C54.1075 203.847 57.506 200.95 59.5791 197.121C59.4669 200.282 58.6533 203.378 57.1972 206.187C61.7132 203.975 65.0812 199.961 67.8269 195.749C70.5727 191.538 72.8501 187.013 75.948 183.055C78.5975 179.67 81.8175 176.753 85.2864 174.218C88.6555 171.755 92.2876 169.644 95.4149 166.882C98.5421 164.121 101.196 160.564 101.843 156.445C102.133 154.606 101.923 151.432 99.493 152.163Z" fill="#6A7375"/>
<path d="M56.2875 194.198C61.4198 189.952 67.0792 186.353 72.0178 181.884C74.3985 179.727 76.7134 177.144 77.129 173.959C77.2782 172.708 77.1239 171.439 76.6791 170.259C76.2343 169.08 75.5121 168.025 74.5734 167.183C73.9813 166.664 73.3115 166.241 72.5883 165.929C67.6298 167.534 62.7275 169.268 58.2667 171.931C48.697 177.646 41.7827 187.617 39.7894 198.577C40.3003 197.556 41.0119 196.648 41.8818 195.907C42.7517 195.167 43.762 194.609 44.8525 194.267C43.5753 196.122 42.7571 198.238 42.3016 200.447C42.3404 203.671 43.0029 206.857 44.2526 209.83C46.4326 203.537 51.1552 198.448 56.2875 194.198Z" fill="#8A9699"/>
<path d="M54.131 178.433C51.7538 180.638 49.7688 183.226 47.9093 185.879C49.3117 184.559 51.0224 183.611 52.8855 183.121C50.513 185.336 49.3837 188.54 48.3366 191.612C53.6943 184.76 62.9635 181.601 67.6755 174.29C66.0751 175.696 64.1605 176.698 62.0924 177.211C64.9227 175.585 66.9759 172.918 68.9516 170.319C68.1991 171.307 66.3584 172.055 65.2561 172.561C64.0564 173.112 62.8332 173.393 61.5865 173.779C58.7996 174.641 56.244 176.474 54.131 178.433Z" fill="#A6B1B2"/>
<path d="M131.373 125.955C131.895 125.955 132.493 126.105 132.792 125.881C133.211 125.578 133.558 125.186 133.808 124.734C134.058 124.282 134.205 123.78 134.239 123.264C133.509 120.181 131.551 117.401 128.888 116.099C123.833 113.628 115.846 116.994 114.153 122.441C113.777 123.648 113.789 124.942 113.971 126.186C114.087 126.985 114.284 127.771 114.558 128.531C117.406 126.708 120.405 125.169 123.826 124.835C126.441 124.612 128.832 125.736 131.373 125.955Z" fill="#BA8831"/>
<path d="M134.371 123.897C134.333 123.685 134.289 123.475 134.239 123.265C134.205 123.78 134.058 124.282 133.808 124.734C133.558 125.186 133.211 125.578 132.792 125.881C132.493 126.105 131.895 125.955 131.373 125.955C128.832 125.731 126.442 124.612 123.827 124.836C120.406 125.17 117.407 126.713 114.559 128.533C115.283 130.526 116.564 132.3 118.418 133.272C121.891 135.093 126.19 133.666 129.681 131.793C131.588 130.77 133.562 129.455 134.259 127.406C134.637 126.281 134.58 125.058 134.371 123.897Z" fill="#93641F"/>
<path d="M134.539 133.945C134.572 132.218 134.084 130.49 133.028 129.399C130.263 126.546 121.618 125.177 118.941 128.924C118.57 129.443 118.387 130.071 118.27 130.698C118.028 132.09 118.059 133.515 118.359 134.896C122.827 131.365 129.867 130.514 134.539 133.945Z" fill="#BA8831"/>
<path d="M118.358 134.893C118.743 136.68 119.581 138.369 120.956 139.371C121.95 140.095 123.212 140.356 124.44 140.435C127.335 140.623 130.595 140.811 132.826 138.592C133.917 137.506 134.505 135.723 134.539 133.942C129.867 130.514 122.827 131.365 118.358 134.893Z" fill="#93641F"/>
<path d="M114.498 176.634C116.647 174.19 119.405 172.178 121.424 169.63C121.136 168.135 120.821 166.647 120.466 165.174C119.057 159.325 117.322 152.751 111.334 149.954C107.912 148.354 101.807 149.116 100.955 153.542C99.7009 160.052 103.63 166.737 106.184 172.415C109.276 179.278 111.911 186.338 114.073 193.548C114.701 195.646 115.738 198.153 117.918 198.379C118.16 198.404 118.404 198.397 118.644 198.36C116.264 194.372 114.699 189.916 113.688 185.201C113.051 182.22 112.602 178.885 114.498 176.634Z" fill="#060D14"/>
<path d="M122.191 195.09C123.589 192.236 123.818 189.59 123.583 186.503C123.576 186.414 123.57 186.327 123.563 186.239C123.118 180.704 122.477 175.109 121.422 169.627C119.405 172.168 116.647 174.187 114.496 176.631C112.6 178.885 113.052 182.22 113.683 185.192C114.694 189.904 116.259 194.365 118.639 198.351C120.211 198.113 121.458 196.587 122.191 195.09Z" fill="#1E3347"/>
<path d="M102.781 156.861C102.267 152.382 96.2378 151.16 92.7032 152.495C86.5202 154.83 84.2898 161.254 82.4409 166.98C81.8931 168.688 81.3887 170.415 80.9277 172.161C82.9739 173.872 85.8053 174.664 88.1437 175.998C90.0384 177.081 89.678 179.786 89.4069 181.862C88.6849 186.641 87.059 190.878 84.1724 195.026C83.0126 196.668 82.1016 198.361 81.2376 200.046C81.6218 200.212 82.0377 200.292 82.4562 200.28C84.6478 200.221 85.8722 197.799 86.6587 195.756C89.3621 188.73 92.5256 181.89 96.1286 175.28C99.1104 169.815 103.542 163.447 102.781 156.861Z" fill="#060D14"/>
<path d="M89.4069 181.86C89.678 179.786 90.0384 177.081 88.1438 175.996C85.8053 174.661 82.9786 173.87 80.9278 172.159C79.5719 177.288 78.5706 182.54 77.7512 187.757C77.7371 187.842 77.7242 187.929 77.7101 188.017C77.2405 191.077 77.2687 193.733 78.4461 196.685C78.9943 198.062 79.9487 199.493 81.24 200.046C82.1017 198.361 83.0126 196.671 84.1748 195.027C87.0602 190.876 88.6849 186.639 89.4069 181.86Z" fill="#1E3347"/>
<path d="M93.0355 142.264C92.3147 142.42 91.6045 142.612 90.9048 142.841C90.6758 143.894 90.3929 144.935 90.0573 145.959C83.1042 149.402 76.4846 153.743 70.9836 159.205C71.0013 159.255 71.0229 159.303 71.0482 159.349C71.9772 160.987 73.0664 162.53 74.2999 163.954C79.1599 158.26 85.0928 153.55 92.2231 150.885C93.1129 148.092 93.7316 145.085 93.667 142.136C93.4569 142.176 93.2456 142.218 93.0355 142.264Z" fill="#2E516D"/>
<path d="M90.9048 142.84C87.0239 144.092 83.4693 146.336 80.2845 148.832C78.3623 150.349 76.5321 151.978 74.8035 153.712C73.5651 154.946 71.1363 156.815 70.9296 158.677C70.9069 158.855 70.9258 159.036 70.9848 159.205C76.4857 153.742 83.1054 149.402 90.0584 145.959C90.3937 144.934 90.6762 143.894 90.9048 142.84Z" fill="#4A6C8E"/>
<path d="M95.9115 141.813C95.1602 141.892 94.4121 141.999 93.667 142.136C93.7316 145.086 93.1129 148.093 92.2231 150.885C85.0928 153.551 79.1599 158.26 74.2999 163.954C76.2251 166.161 78.4271 168.111 80.8515 169.756C84.0797 164.41 87.9137 159.443 92.7467 155.14C93.4933 154.468 94.7634 154.02 95.287 153.348C97.9001 149.981 96.6511 145.728 95.9115 141.813Z" fill="#4A6C8E"/>
<path d="M97.5057 141.691C96.9728 141.719 96.4414 141.758 95.9116 141.809C96.6511 145.723 97.9002 149.976 95.2871 153.343C94.7635 154.015 93.4933 154.463 92.7467 155.135C87.9138 159.438 84.0798 164.4 80.8516 169.751C82.7127 171.021 84.676 172.135 86.7211 173.082C88.4272 173.875 90.1731 174.58 91.952 175.193C95.0981 167.558 97.7335 159.773 98.351 151.546C98.6116 148.205 98.0857 144.969 97.5057 141.691Z" fill="#2E516D"/>
<path d="M99.9768 147.095C100.051 147.784 100.081 148.476 100.068 149.168L99.9193 149.019L100.068 149.168C100.081 148.476 100.051 147.784 99.9768 147.095C99.8594 146.806 99.7279 146.516 99.5976 146.229C99.7279 146.516 99.8535 146.806 99.9768 147.095C99.7855 145.26 99.3488 143.46 99.0166 141.648C98.5118 141.653 98.0082 141.667 97.5057 141.691C98.0856 144.965 98.608 148.205 98.3498 151.557C97.7323 159.784 95.0969 167.569 91.9508 175.203C95.658 176.477 99.7256 177.379 103.5 177.223C104.333 166.845 103.915 156.386 99.9768 147.095Z" fill="#4A6C8E"/>
<path d="M103.441 148.306C107.701 156.476 111.281 165.131 113.369 174.074C115.439 172.86 117.384 171.446 119.177 169.852C115.068 161.622 109.828 154.24 103.441 147.445C103.447 147.733 103.448 148.018 103.441 148.306Z" fill="#4A6C8E"/>
<path d="M127.779 158.654C127.944 157.526 127.673 156.378 127.02 155.442C125.55 153.297 123.159 151.762 121.098 150.24C118.211 148.108 115.063 146.363 111.924 144.633C110.632 143.921 109.33 143.206 107.932 142.719C106.247 142.132 104.461 141.887 102.674 141.764C102.792 142.362 102.909 142.964 103.014 143.568C112.784 145.34 121.156 151.34 127.779 158.654Z" fill="#2E516D"/>
<path d="M103.023 143.568C103.115 144.1 103.197 144.635 103.258 145.172C103.326 145.25 103.408 145.314 103.5 145.362C108.057 148.347 112.24 150.736 116.125 154.244C119.399 157.217 122.551 160.287 125.293 163.646C126.537 162.071 127.554 160.344 127.774 158.654C121.156 151.34 112.784 145.34 103.023 143.568Z" fill="#4A6C8E"/>
<path d="M116.131 154.244C112.246 150.736 108.063 148.347 103.505 145.362C103.414 145.314 103.332 145.25 103.264 145.172C103.358 145.928 103.422 146.685 103.441 147.449C109.828 154.244 115.073 161.626 119.177 169.856C119.794 169.315 120.394 168.76 120.979 168.192C122.139 167.067 123.868 165.455 125.299 163.646C122.559 160.287 119.405 157.217 116.131 154.244Z" fill="#2E516D"/>
<path d="M103.281 150.213C103.374 149.581 103.427 148.944 103.441 148.306L103.258 147.954L103.441 148.306C103.494 146.095 103.115 143.914 102.684 141.764C102.442 141.746 102.2 141.732 101.958 141.718C100.979 141.665 99.9967 141.638 99.0165 141.648C99.3487 143.459 99.7854 145.26 99.9767 147.095C103.915 156.386 104.333 166.845 103.498 177.223C104.729 177.179 105.951 177.001 107.143 176.692C109.324 176.096 111.415 175.216 113.365 174.074C111.278 165.131 107.698 156.476 103.437 148.306C103.425 148.944 103.373 149.581 103.281 150.213Z" fill="#2E516D"/>
<path d="M126.59 141.78C127.129 137.606 131.01 134.587 134.836 135.564C134.002 134.444 132.859 133.58 131.649 133.365C128.309 132.779 121.651 136.151 121.678 140.079C121.678 140.622 121.869 141.149 122.101 141.64C122.359 142.173 122.669 142.678 123.029 143.148C124.629 143.378 126.361 143.328 126.59 141.78Z" fill="#BA8831"/>
<path d="M134.836 135.566C131.01 134.587 127.129 137.605 126.59 141.782C126.356 143.331 124.629 143.38 123.025 143.15C124.302 144.837 126.277 146.287 128.308 146.296C129.364 146.296 130.36 145.849 131.248 145.289C133.343 143.972 135.688 142.475 136.119 139.823C136.335 138.46 135.788 136.847 134.836 135.566Z" fill="#93641F"/>
<path d="M131.045 136.39C129.576 137.094 128.421 138.501 128.183 140.112C127.946 141.722 128.721 143.48 130.153 144.255C131.444 144.959 133.088 144.8 134.407 144.145C135.727 143.489 136.775 142.393 137.683 141.232C138.543 140.132 139.326 138.866 139.34 137.471C139.34 136.655 138.972 135.675 138.299 135.172C137.548 134.611 137.306 134.886 136.517 135.113C134.724 135.63 132.752 135.572 131.045 136.39Z" fill="#6A7375"/>
<path d="M165.787 115.393C165.669 115.605 165.521 115.799 165.348 115.968L110.978 169.212C110.502 169.678 109.859 169.937 109.192 169.93C108.524 169.923 107.887 169.652 107.419 169.176C107.163 168.916 106.966 168.602 106.844 168.257C106.581 168.731 106.478 169.277 106.551 169.815C106.623 170.352 106.868 170.851 107.248 171.238C107.479 171.474 107.755 171.662 108.059 171.791C108.363 171.921 108.69 171.989 109.02 171.992C109.351 171.996 109.679 171.934 109.985 171.81C110.292 171.687 110.571 171.505 110.807 171.273L165.177 118.029C165.52 117.694 165.759 117.268 165.867 116.8C165.976 116.333 165.948 115.845 165.787 115.393Z" fill="#542F2E"/>
<path d="M107.283 167.683C107.11 167.853 106.962 168.046 106.844 168.258C106.966 168.603 107.163 168.917 107.419 169.177C107.887 169.653 108.524 169.924 109.192 169.931C109.859 169.938 110.502 169.679 110.979 169.213L155.488 125.624C154.709 124.635 154.04 123.564 153.493 122.431L107.283 167.683Z" fill="#7C5252"/>
<path d="M165.787 115.393C165.665 115.048 165.469 114.735 165.213 114.473C164.746 113.997 164.108 113.726 163.441 113.72C162.773 113.713 162.131 113.972 161.654 114.438L153.492 122.431C154.039 123.564 154.708 124.635 155.487 125.624L165.348 115.968C165.522 115.798 165.669 115.605 165.787 115.393Z" fill="#542F2E"/>
<path d="M161.392 125.748C161.392 125.748 162.866 135.632 163.897 136.032C163.735 135.672 163.636 135.287 163.602 134.894C163.343 131.385 163.147 128.028 163.602 124.626C162.272 124.668 161.356 125.001 161.392 125.748Z" fill="#667475"/>
<path d="M163.602 134.894C163.636 135.287 163.735 135.671 163.897 136.031C163.914 136.038 163.931 136.042 163.949 136.043C164.979 136.119 167.976 126.228 167.976 126.228C168.161 125.29 166.718 124.797 164.781 124.657C164.391 124.627 163.999 124.616 163.607 124.626C163.147 128.027 163.343 131.385 163.602 134.894Z" fill="#A6B1B2"/>
<path d="M185.624 123.841C186.007 123.937 186.404 123.969 186.798 123.934C186.809 123.921 186.818 123.906 186.826 123.89C187.233 122.94 178.855 116.88 178.855 116.88C178.033 116.4 177.094 117.6 176.324 119.383C176.168 119.743 176.03 120.11 175.912 120.484C178.978 122.027 182.219 122.939 185.624 123.841Z" fill="#A6B1B2"/>
<path d="M176.249 122.941C176.249 122.941 186.081 124.775 186.796 123.934C186.403 123.969 186.006 123.937 185.622 123.84C182.218 122.938 178.977 122.027 175.91 120.484C175.514 121.756 175.529 122.731 176.249 122.941Z" fill="#667475"/>
<path d="M172.344 94.5576C172.538 94.2138 172.788 93.905 173.084 93.644C173.102 93.6451 173.12 93.6486 173.137 93.6546C174.106 94.0123 172.729 104.254 172.729 104.254C172.509 105.182 170.991 105.035 169.17 104.362C168.801 104.228 168.439 104.075 168.087 103.902C169.081 100.617 170.653 97.6432 172.344 94.5576Z" fill="#A6B1B2"/>
<path d="M166.538 101.965C166.538 101.965 171.982 93.5817 173.084 93.6439C172.788 93.9049 172.538 94.2137 172.344 94.5575C170.653 97.6431 169.081 100.617 168.087 103.902C166.891 103.313 166.194 102.632 166.538 101.965Z" fill="#667475"/>
<path d="M146.742 104.039C146.424 103.805 146.148 103.518 145.927 103.192C145.93 103.174 145.935 103.157 145.943 103.141C146.421 102.225 156.418 104.877 156.418 104.877C157.311 105.212 156.976 106.698 156.078 108.419C155.899 108.767 155.704 109.106 155.491 109.434C152.342 108.035 149.587 106.104 146.742 104.039Z" fill="#A6B1B2"/>
<path d="M153.361 110.724C153.361 110.724 145.72 104.274 145.92 103.19C146.143 103.518 146.421 103.805 146.742 104.04C149.593 106.105 152.348 108.036 155.486 109.434C154.744 110.545 153.979 111.149 153.361 110.724Z" fill="#667475"/>
<path d="M179.695 110.558C179.152 113.701 177.533 116.558 175.115 118.64C172.697 120.723 169.629 121.902 166.438 121.975C163.246 122.049 160.128 121.013 157.616 119.044C155.104 117.075 153.354 114.296 152.666 111.182C152.321 113.184 152.424 115.238 152.967 117.196C153.511 119.154 154.482 120.967 155.81 122.506C157.138 124.045 158.791 125.27 160.65 126.095C162.509 126.92 164.527 127.324 166.56 127.277C168.594 127.23 170.591 126.734 172.41 125.824C174.228 124.914 175.823 123.613 177.079 122.015C178.334 120.417 179.22 118.56 179.673 116.579C180.125 114.598 180.133 112.542 179.695 110.558Z" fill="#7C8D8E"/>
<path d="M175.763 118.046C177.831 116.027 179.208 113.406 179.695 110.558C179.007 107.443 177.258 104.664 174.746 102.695C172.234 100.726 169.116 99.6903 165.924 99.7639C162.732 99.8376 159.665 101.016 157.247 103.099C154.829 105.182 153.21 108.038 152.666 111.182C153.196 113.58 154.359 115.793 156.034 117.591C157.709 119.389 159.835 120.707 162.192 121.407C164.548 122.107 167.049 122.165 169.436 121.574C171.822 120.983 174.007 119.765 175.763 118.046Z" fill="#909D9E"/>
<path d="M172.198 98.6893C172.181 98.6743 172.162 98.6613 172.143 98.6506C171.218 98.1897 166.181 103.19 166.181 103.19C165.802 103.695 164.847 105.837 167.636 107.313C166.698 104.355 169.892 100.964 172.198 98.6893Z" fill="#667475"/>
<path d="M167.948 107.468C170.778 108.778 171.911 106.743 172.087 106.139C172.087 106.139 172.978 99.7485 172.259 98.7563C172.241 98.7314 172.221 98.7089 172.198 98.6895C169.892 100.965 166.697 104.355 167.636 107.313C167.68 107.336 167.726 107.361 167.773 107.383C167.82 107.406 167.891 107.441 167.948 107.468Z" fill="#A6B1B2"/>
<path d="M174.459 131.291C174.691 131.61 174.976 131.888 175.301 132.112C175.319 132.109 175.336 132.104 175.352 132.096C176.272 131.626 173.691 121.618 173.691 121.618C173.362 120.723 171.871 121.048 170.143 121.932C169.793 122.11 169.452 122.306 169.122 122.519C170.499 125.659 172.413 128.433 174.459 131.291Z" fill="#A6B1B2"/>
<path d="M167.814 124.623C167.814 124.623 174.211 132.303 175.302 132.111C174.976 131.887 174.691 131.609 174.459 131.29C172.413 128.426 170.499 125.661 169.122 122.515C168.005 123.242 167.395 124.003 167.814 124.623Z" fill="#667475"/>
<path d="M172.112 115.737C174.429 117.09 177.185 116.866 179.76 116.663C179.76 116.633 179.756 116.603 179.75 116.574C179.478 115.379 174.081 111.835 174.081 111.835C173.518 111.572 171.29 111.091 170.386 113.955C170.809 114.68 171.401 115.291 172.112 115.737Z" fill="#A6B1B2"/>
<path d="M179.76 116.663C177.184 116.866 174.429 117.09 172.112 115.737C171.401 115.291 170.809 114.68 170.386 113.955C170.375 113.991 170.363 114.029 170.352 114.072C170.334 114.133 170.316 114.19 170.299 114.259C169.46 117.455 171.766 118.171 172.405 118.219C172.405 118.219 179.49 117.734 179.752 116.735C179.758 116.711 179.761 116.687 179.76 116.663Z" fill="#667475"/>
<path d="M160.405 117.697C160.405 117.697 159.514 124.089 160.233 125.08C160.245 125.025 160.258 124.97 160.268 124.914C160.785 122.258 161.243 119.622 162.983 117.386C163.385 116.894 163.93 116.538 164.544 116.368C161.714 115.063 160.581 117.093 160.405 117.697Z" fill="#667475"/>
<path d="M162.983 117.387C161.243 119.622 160.785 122.258 160.268 124.915C160.258 124.97 160.245 125.025 160.233 125.08C160.264 125.124 160.304 125.16 160.351 125.186C161.276 125.646 166.312 120.647 166.312 120.647C166.698 120.133 167.678 117.93 164.72 116.453L164.545 116.369C163.931 116.538 163.385 116.894 162.983 117.387Z" fill="#A6B1B2"/>
<path d="M158.466 112.409C158.466 112.409 153.067 108.865 152.797 107.671C152.847 107.698 152.896 107.725 152.944 107.753C155.284 109.117 157.57 110.512 160.4 110.678C161.036 110.702 161.664 110.527 162.195 110.176C161.314 113.166 159.036 112.676 158.466 112.409Z" fill="#667475"/>
<path d="M160.4 110.679C157.57 110.512 155.284 109.118 152.944 107.754C152.896 107.726 152.847 107.699 152.797 107.672C152.784 107.62 152.784 107.566 152.797 107.515C153.06 106.515 160.143 106.03 160.143 106.03C160.783 106.078 163.088 106.794 162.249 109.991C162.232 110.055 162.215 110.117 162.197 110.177C161.665 110.527 161.037 110.703 160.4 110.679Z" fill="#A6B1B2"/>
<path d="M146.436 118.061C146.042 118.052 145.651 117.977 145.281 117.838C145.274 117.822 145.269 117.805 145.266 117.788C145.127 116.764 154.824 113.167 154.824 113.167C155.747 112.926 156.331 114.334 156.592 116.256C156.647 116.669 156.682 117.063 156.694 117.429C153.324 118.094 149.958 118.104 146.436 118.061Z" fill="#A6B1B2"/>
<path d="M155.709 119.704C155.709 119.704 145.744 118.84 145.281 117.838C145.651 117.977 146.042 118.052 146.436 118.061C149.958 118.104 153.324 118.094 156.694 117.428C156.735 118.759 156.458 119.694 155.709 119.704Z" fill="#667475"/>
<path d="M158.004 93.4481C157.914 93.064 157.891 92.6674 157.934 92.2753C157.947 92.264 157.962 92.2549 157.978 92.2483C158.936 91.859 164.834 100.349 164.834 100.349C165.303 101.181 164.078 102.097 162.278 102.827C161.915 102.976 161.545 103.106 161.169 103.217C159.685 100.121 158.833 96.8656 158.004 93.4481Z" fill="#A6B1B2"/>
<path d="M158.715 102.829C158.715 102.829 157.072 92.9722 157.932 92.2744C157.889 92.6665 157.913 93.063 158.003 93.4472C158.836 96.8647 159.684 100.12 161.172 103.215C159.889 103.587 158.913 103.552 158.715 102.829Z" fill="#667475"/>
<path d="M185.576 104.91C185.912 104.704 186.212 104.442 186.461 104.136C186.459 104.118 186.455 104.101 186.448 104.084C186.051 103.131 175.862 104.905 175.862 104.905C174.944 105.161 175.149 106.671 175.894 108.462C176.043 108.825 176.211 109.18 176.397 109.526C179.643 108.407 182.556 106.721 185.576 104.91Z" fill="#A6B1B2"/>
<path d="M178.396 110.999C178.396 110.999 186.566 105.235 186.461 104.136C186.212 104.442 185.912 104.704 185.576 104.91C182.556 106.721 179.643 108.407 176.397 109.529C177.028 110.7 177.744 111.367 178.396 110.999Z" fill="#667475"/>
<path d="M138.686 144.982C139.588 143.809 138.054 142.186 137.062 141.284C138.596 142.005 140.491 144.259 141.574 143.178C143.108 141.826 140.13 140.113 139.047 138.67C140.852 139.301 142.206 141.105 144.372 140.653C145.759 140.338 146.573 139.231 146.568 138.038C145.511 136.26 142.899 135.088 141.175 134.327C140.582 134.066 139.94 133.825 139.297 133.933C138.172 134.124 137.468 135.587 138.035 136.582C137.751 136.258 137.356 136.051 136.928 136.002C136.5 135.953 136.068 136.065 135.718 136.317C135.368 136.569 135.125 136.942 135.036 137.363C134.947 137.785 135.019 138.225 135.237 138.596C134.642 138.378 133.968 138.871 133.784 139.478C133.6 140.086 133.777 140.741 134.012 141.331C134.372 142.23 134.864 143.069 135.472 143.823C135.296 143.588 135.133 143.342 134.986 143.088C135.133 143.342 135.296 143.588 135.472 143.823C135.797 144.228 136.154 144.605 136.54 144.953C137.261 145.521 138.063 145.748 138.686 144.982Z" fill="#8A9699"/>
<path d="M146.568 138.038C146.568 139.231 145.759 140.338 144.371 140.653C142.206 141.105 140.85 139.301 139.047 138.67C140.13 140.113 143.108 141.826 141.574 143.178C140.491 144.26 138.596 142.006 137.062 141.284C138.054 142.186 139.588 143.809 138.686 144.982C138.063 145.748 137.261 145.522 136.539 144.953C136.685 145.084 136.835 145.212 136.989 145.334C137.663 145.87 138.47 146.331 139.337 146.272C140.203 146.214 141.046 145.451 140.907 144.603C141.208 144.844 141.571 144.993 141.954 145.034C142.337 145.075 142.724 145.007 143.069 144.836C143.414 144.665 143.704 144.399 143.903 144.07C144.102 143.741 144.203 143.361 144.194 142.977C144.734 142.914 145.25 142.714 145.69 142.395C146.13 142.075 146.48 141.648 146.706 141.154C147.239 139.953 147.094 138.921 146.568 138.038Z" fill="#6A7375"/>
<path d="M114.89 106.394C113.659 104.859 112.172 103.546 110.495 102.515C108.783 101.491 106.908 100.769 104.951 100.383C109.317 114.609 111.084 129.503 110.167 144.355C109.863 149.217 109.228 154.16 107.844 158.815C108.732 158.467 109.584 158.033 110.387 157.518C111.561 153.904 112.472 150.153 113.292 146.337C116.154 132.799 117.582 119.528 114.89 106.394Z" fill="#4A6C8E"/>
<path d="M104.951 100.383C101.955 99.7659 98.7805 99.8327 95.7589 100.383C95.1802 100.488 94.6085 100.617 94.0438 100.762C94.6049 106.481 96.7051 112 98.4284 117.522C101.004 125.776 102.777 134.259 103.721 142.854C104.328 148.375 104.571 154.024 104.074 159.556C104.817 159.558 105.558 159.472 106.282 159.302C106.811 159.176 107.332 159.013 107.838 158.814C109.227 154.159 109.857 149.216 110.162 144.354C111.08 129.503 109.314 114.609 104.951 100.383Z" fill="#2E516D"/>
<path d="M103.726 142.858C102.782 134.264 101.009 125.781 98.4331 117.527C96.7098 111.999 94.6096 106.48 94.0485 100.756C91.021 101.532 88.172 102.806 85.2313 103.805C85.3276 107.299 85.7991 110.773 86.6377 114.167C87.9184 119.357 90.042 124.295 92.074 129.241C96.0289 138.873 99.7044 148.936 101.032 159.176C102.031 159.423 103.055 159.55 104.084 159.558C104.576 154.026 104.333 148.376 103.726 142.858Z" fill="#4A6C8E"/>
<path d="M92.0682 129.241C90.0421 124.294 87.9126 119.357 86.6377 114.166C85.7984 110.773 85.3261 107.299 85.229 103.805C84.0376 104.22 82.8224 104.563 81.5899 104.833C78.3147 105.523 76.2041 108.057 74.8834 110.993C75.7685 115.67 77.9133 120.158 80.2482 124.362C84.3568 131.764 89.1534 138.774 93.1318 146.247C95.2049 150.14 97.0597 154.196 98.4378 158.383C99.2864 158.698 100.153 158.962 101.032 159.176C99.6962 148.935 96.029 138.871 92.0682 129.241Z" fill="#2E516D"/>
<path d="M98.4319 158.383C97.0537 154.196 95.199 150.14 93.1258 146.247C89.1475 138.775 84.3521 131.764 80.2422 124.362C77.9073 120.158 75.7626 115.67 74.8775 110.993C74.5201 111.793 74.215 112.616 73.9642 113.456C73.1166 116.278 72.9347 119.176 73.2199 122.055C73.5663 125.553 74.2952 128.991 75.2766 132.361C77.804 136.687 81.3715 140.51 84.7958 144.235C88.2659 148.018 91.7747 152.044 94.0227 156.58C94.4347 156.758 94.8444 156.931 95.2624 157.107C96.2883 157.54 97.3484 157.987 98.4319 158.383Z" fill="#E0AB41"/>
<path d="M75.2766 132.365C75.968 134.738 76.7839 137.074 77.6784 139.371C79.4616 143.945 81.186 148.419 85.1515 151.542C87.8397 153.653 90.8954 155.224 94.0227 156.585C91.7747 152.046 88.2706 148.016 84.7958 144.241C81.3715 140.512 77.804 136.692 75.2766 132.365Z" fill="#6B4340"/>
<path d="M120.688 120.927C119.866 115.747 118.134 110.388 114.89 106.396C117.582 119.531 116.154 132.801 113.292 146.333C112.471 150.149 111.555 153.9 110.387 157.514C111.562 156.752 112.66 155.877 113.665 154.901C117.427 146.94 120.035 138.484 121.412 129.788C121.391 126.82 121.149 123.859 120.688 120.927Z" fill="#2E516D"/>
<path d="M113.665 154.9C114.469 154.131 115.223 153.32 115.925 152.507C118.813 149.164 119.74 145.794 120.466 141.497C121.126 137.629 121.444 133.71 121.416 129.787C120.038 138.483 117.428 146.939 113.665 154.9Z" fill="#4A6C8E"/>
<path d="M63.9812 124.612C64.729 127.672 67.7166 130.658 71.0047 129.613C73.0966 128.941 74.5898 127.224 76.6077 126.403C79.4463 125.283 82.6592 125.134 85.4238 126.328C86.5061 126.761 87.3525 127.548 88.0791 128.459C88.6661 126.231 88.2963 123.869 87.8197 121.614C86.9256 117.383 85.6583 113.24 84.0327 109.233C83.3753 107.612 82.4397 105.687 80.7094 104.96C77.7253 103.705 72.4063 108.58 70.433 110.448C69.1092 111.688 67.9021 113.046 66.8268 114.507C65.4545 116.391 64.3616 118.453 63.7324 120.668C63.5634 121.987 63.6479 123.325 63.9812 124.612Z" fill="#BA8831"/>
<path d="M85.425 126.328C82.6604 125.134 79.4474 125.283 76.6089 126.403C74.591 127.224 73.0978 128.941 71.0059 129.613C67.719 130.658 64.7302 127.672 63.9824 124.612C63.6491 123.325 63.5646 121.986 63.7336 120.668C63.4325 121.721 63.246 122.804 63.1771 123.897C62.9071 128.295 64.1433 133.367 68.0113 135.952C73.0168 139.296 78.0223 136.622 82.84 134.595C85.3264 133.549 87.3866 131.076 88.0745 128.482C88.0757 128.474 88.0777 128.466 88.0803 128.459C87.3537 127.547 86.5073 126.761 85.425 126.328Z" fill="#93641F"/>
<path d="M84.8275 135.808C81.9138 136.107 79.8971 137.972 77.4319 139.614C75.8623 140.584 74.0698 140.659 72.5754 139.838C70.9765 138.973 70.4471 137.157 70.4624 135.399C70.048 138.351 71.1984 141.573 73.3279 143.943C74.1156 144.821 75.0629 145.64 76.184 146.032C78.2289 146.745 80.4817 145.997 82.4609 145.123C86.0859 143.523 89.8565 141.018 90.5514 137.156C90.5866 136.96 90.6125 136.765 90.6301 136.57C88.834 135.797 86.7339 135.587 84.8275 135.808Z" fill="#93641F"/>
<path d="M87.6848 129.296C86.8138 128.389 85.8007 127.584 84.6162 127.139C79.275 125.124 71.7033 129.349 70.5517 134.851C70.5141 135.032 70.4824 135.215 70.4566 135.4C70.446 137.159 70.9754 138.973 72.5696 139.839C74.064 140.659 75.8565 140.584 77.4261 139.615C79.8913 137.973 81.9092 136.107 84.8217 135.808C86.7281 135.581 88.8282 135.797 90.6184 136.57C90.8637 133.916 89.5584 131.248 87.6848 129.296Z" fill="#BA8831"/>
<path d="M85.2008 147.08C87.3139 144.359 90.7898 142.196 94.1037 143.079C93.5813 140.393 91.088 137.579 88.4924 137.284C84.5434 136.835 76.9952 141.264 77.311 145.858C77.3544 146.494 77.6115 147.095 77.9191 147.654C77.9825 147.768 78.0494 147.882 78.1198 147.995C79.964 150.2 83.4904 149.265 85.2008 147.08Z" fill="#BA8831"/>
<path d="M85.2008 147.08C83.4904 149.267 79.964 150.202 78.1198 147.995C79.5954 150.412 82.5876 152.817 85.5154 152.649C86.7444 152.577 87.8831 151.978 88.8833 151.26C91.2381 149.569 93.8747 147.644 94.187 144.514C94.2301 144.034 94.2032 143.551 94.1072 143.079C90.7897 142.193 87.3114 144.357 85.2008 147.08Z" fill="#93641F"/>
<path d="M86.7691 154.095C87.2927 154.616 88.2635 154.991 89.0113 154.616C90.3554 154.02 90.9529 152.378 91.6256 151.109C92.8746 148.675 96.1087 147.546 98.7078 148.506L98.7007 148.449C98.3274 145.891 95.1097 143.289 92.499 143.64C89.8589 143.992 86.0026 147.276 85.0541 150.488C85.0833 151.174 85.2502 151.846 85.5448 152.466C85.8395 153.085 86.2558 153.639 86.7691 154.095Z" fill="#BA8831"/>
<path d="M91.6256 151.109C90.9529 152.378 90.3554 154.02 89.0113 154.617C88.2635 154.991 87.2927 154.617 86.7691 154.095C86.255 153.638 85.8381 153.083 85.5435 152.462C85.2488 151.842 85.0824 151.168 85.0541 150.481C84.7946 151.359 84.7512 152.23 85.0106 153.032C85.1785 153.549 85.5154 153.995 85.8852 154.394C87.558 156.197 90.6982 157.742 93.1998 156.966C94.2023 156.654 95.0229 155.923 95.7014 155.122C97.2909 153.246 99.0611 151.135 98.7078 148.504C96.1087 147.549 92.8746 148.675 91.6256 151.109Z" fill="#93641F"/>
<path d="M117.838 166.079C116.123 166.17 114.498 165.268 113.142 164.277C111.968 163.285 111.156 161.842 109.712 161.391C104.481 160.215 98.703 159.864 95.3644 155.26C94.2809 153.728 94.9125 152.104 95.9056 150.569C96.4284 149.88 97.1968 149.418 98.0515 149.279C97.8528 149.22 97.6481 149.183 97.4411 149.169C96.2848 149.096 95.2423 149.834 94.3819 150.61C93.4498 151.451 92.567 152.449 92.1338 153.603C92.0038 153.945 91.9174 154.302 91.8768 154.666C91.8232 155.018 91.8637 155.377 91.9941 155.708C92.1761 156.108 92.5412 156.391 92.8981 156.647C97.4763 159.94 102.917 161.776 108.337 163.326C109.325 163.608 110.333 163.89 111.19 164.45C111.821 164.862 112.352 165.41 112.967 165.844C113.931 166.519 115.071 166.892 116.205 167.206C117.026 167.434 117.887 167.637 118.733 167.51C119.494 167.393 120.247 166.954 120.571 166.272C119.654 166.294 118.628 166.079 117.838 166.079Z" fill="#6A7375"/>
<path d="M124.869 157.906C124.367 157.302 123.557 156.989 123.133 156.326C122.949 156.038 122.854 155.704 122.726 155.388C121.794 153.065 118.881 151.752 116.523 152.603C115.417 152.998 114.493 153.776 113.453 154.317C109.294 156.488 103.072 152.177 99.6422 150.07C99.1374 149.76 98.6139 149.444 98.0516 149.28C97.1969 149.419 96.4285 149.881 95.9057 150.57C94.9125 152.103 94.281 153.726 95.3645 155.261C98.7031 159.863 104.481 160.215 109.714 161.388C111.158 161.839 111.971 163.282 113.144 164.274C114.498 165.265 116.123 166.167 117.84 166.077C118.63 166.077 119.656 166.29 120.574 166.27C120.611 166.195 120.642 166.116 120.667 166.036C120.755 165.747 120.784 165.411 121.013 165.215C121.183 165.074 121.418 165.052 121.635 165.007C122.823 164.763 123.748 163.583 123.694 162.372C123.683 162.095 123.631 161.793 123.78 161.558C123.897 161.366 124.123 161.271 124.318 161.155C125.387 160.517 125.669 158.867 124.869 157.906Z" fill="#8A9699"/>
<path d="M94.9866 103.498C96.2145 112.453 100.269 121.282 106.693 128.315L106.437 128.304C107.201 127.561 107.874 126.729 108.441 125.826C109.017 124.924 109.543 123.991 110.015 123.031C110.959 121.106 111.786 119.125 112.493 117.101C113.209 115.08 113.837 113.029 114.361 110.967C114.621 109.936 114.857 108.903 115.051 107.878C115.249 106.899 115.377 105.907 115.435 104.91L119.338 105.346C119.115 106.504 118.809 107.645 118.422 108.76C118.063 109.836 117.669 110.883 117.248 111.917C116.414 113.983 115.488 115.997 114.471 117.96C113.467 119.932 112.346 121.841 111.112 123.677C110.494 124.596 109.825 125.479 109.107 126.322C108.393 127.178 107.579 127.945 106.682 128.607L106.574 128.715L106.425 128.597C98.8851 122.655 93.0203 114.243 90.035 104.619L94.9866 103.498Z" fill="#DDDDDD"/>
<path d="M105.676 142.548C108.879 142.548 111.475 138.644 111.475 133.828C111.475 129.012 108.879 125.108 105.676 125.108C102.473 125.108 99.877 129.012 99.877 133.828C99.877 138.644 102.473 142.548 105.676 142.548Z" fill="#BA8831"/>
<path d="M106.905 142.313C110.108 142.313 112.704 138.409 112.704 133.593C112.704 128.777 110.108 124.874 106.905 124.874C103.702 124.874 101.106 128.777 101.106 133.593C101.106 138.409 103.702 142.313 106.905 142.313Z" fill="#E0AB41"/>
<path d="M109.646 129.354C109.828 130.047 109.919 130.76 109.917 131.477C109.917 134.623 108.222 137.173 106.129 137.173C105.06 137.173 104.094 136.507 103.405 135.434C103.964 137.528 105.327 139.007 106.926 139.007C109.018 139.007 110.714 136.457 110.714 133.311C110.703 131.773 110.299 130.379 109.646 129.354Z" fill="#30633B"/>
<path d="M106.124 137.173C108.218 137.173 109.913 134.623 109.913 131.477C109.915 130.76 109.823 130.047 109.641 129.354C108.952 128.282 107.986 127.615 106.917 127.615C104.824 127.615 103.127 130.166 103.127 133.311C103.126 134.027 103.217 134.741 103.4 135.434C104.088 136.507 105.054 137.173 106.124 137.173Z" fill="#468255"/>
<path d="M104.847 131.853C104.859 132.069 104.941 132.275 105.082 132.439C105.232 132.591 105.5 132.642 105.66 132.502C105.716 132.444 105.761 132.378 105.795 132.305L106.405 131.132C106.579 130.799 106.757 130.449 106.757 130.076C106.776 128.983 105.899 129.177 105.414 129.805C104.968 130.389 104.764 131.123 104.847 131.853Z" fill="white"/>
<path d="M69.6959 115.202C68.6955 116.41 68.0059 117.845 67.6871 119.381C67.3684 120.916 67.4301 122.506 67.867 124.013C68.0524 124.633 68.3729 125.303 68.988 125.507C69.6595 125.729 70.385 125.282 70.8088 124.715C71.2325 124.149 71.4673 123.462 71.8829 122.889C72.8619 121.541 74.6298 121.069 76.2639 120.733C77.203 120.539 78.2372 120.31 78.8324 119.554C79.1764 119.118 79.3243 118.562 79.444 118.02C79.7962 116.435 79.9711 114.736 79.3665 113.226C78.6939 111.545 76.5421 109.608 74.6404 110.513C73.1202 111.239 70.7688 113.93 69.6959 115.202Z" fill="#D19743"/>
<path d="M73.7469 134.27C73.5826 134.947 73.653 135.709 74.0698 136.264C74.4865 136.818 75.2941 137.104 75.9233 136.804C76.4845 136.537 76.7686 135.921 77.1066 135.397C77.8188 134.306 78.8988 133.506 80.1506 133.143C82.8083 132.383 82.2436 129.651 79.6071 129.986C77.4811 130.264 74.2775 132.085 73.7469 134.27Z" fill="#D19743"/>
<path d="M84.9285 140.063C83.9424 140.393 82.9423 140.743 82.1111 141.369C81.28 141.995 80.6391 142.951 80.6508 143.99C80.6508 144.595 80.9572 145.266 81.543 145.422C82.1287 145.578 82.7263 145.146 83.0925 144.655C83.4588 144.164 83.7182 143.578 84.1983 143.197C84.6785 142.816 85.2971 142.693 85.7244 142.28C86.1517 141.867 86.1682 140.947 85.5812 140.842" fill="#D19743"/>
<path d="M70.9624 245.776C71.9192 243.516 74.1531 241.972 75.0429 239.686C76.1758 236.779 74.8668 233.535 74.9255 230.415C75.0488 224.239 80.4124 219.424 81.969 213.444C82.806 210.22 82.4691 206.72 81.1179 203.676C80.7422 202.831 80.2821 201.899 80.5885 201.028C80.7188 200.656 80.977 200.344 81.2306 200.043L86.0096 194.349C86.7221 194.583 86.4791 195.647 86.134 196.314C85.7889 196.982 85.6973 198.108 86.4451 198.191C86.7162 198.222 86.9722 198.073 87.1893 197.903C89.4855 196.152 89.8811 192.648 91.6208 190.482C89.1392 188.494 86.1035 187.17 82.9797 186.504C81.2612 186.138 79.5083 185.957 77.7511 185.965C76.4446 185.97 75.1415 186.082 73.8385 186.191L70.7511 186.451C71.7844 187.263 72.6065 188.311 73.1476 189.507C73.6888 190.704 73.933 192.013 73.8596 193.324C73.7974 194.273 73.5908 195.317 74.1296 196.101C74.2682 196.3 74.4478 196.469 74.5816 196.671C74.976 197.27 74.9009 198.078 74.5933 198.728C74.2858 199.378 73.7786 199.901 73.302 200.441C72.9827 200.807 72.674 201.184 72.3793 201.57C68.2707 206.95 66.9618 214.251 67.4067 220.885C67.7448 225.928 69.5197 231.396 67.6004 236.324C66.2175 239.871 62.8766 242.278 60.5675 245.198C58.2432 248.138 56.1442 252.065 57.7102 255.47C58.4592 257.098 60.6896 258.322 62.0196 257.12C62.8578 256.364 63.1055 254.851 64.2219 254.68C64.9074 256.22 62.7498 257.795 63.0879 259.446C63.3227 260.619 64.8217 261.188 65.9663 260.823C67.1109 260.458 67.9255 259.455 68.5489 258.429C68.9002 257.844 69.2173 257.239 69.4986 256.617C69.932 255.351 70.1953 254.032 70.2816 252.697C70.4271 250.368 70.0515 247.925 70.9624 245.776Z" fill="#BA8831"/>
<path d="M91.6197 190.486C89.88 192.652 89.4844 196.156 87.1882 197.907C86.9711 198.073 86.7187 198.226 86.444 198.194C85.6962 198.108 85.7878 196.983 86.1329 196.318C86.478 195.653 86.7198 194.593 86.0085 194.352L81.2295 200.046C80.9759 200.348 80.7177 200.66 80.5874 201.031C80.281 201.903 80.7411 202.835 81.1168 203.68C82.468 206.729 82.8049 210.224 81.9679 213.448C80.416 219.429 75.0524 224.243 74.9244 230.419C74.8622 233.538 76.1711 236.782 75.0418 239.69C74.152 241.975 71.9181 243.52 70.9613 245.78C70.0504 247.928 70.426 250.371 70.2781 252.699C70.1928 254.034 69.9307 255.351 69.4987 256.617C71.3358 252.577 71.9286 247.907 74.5887 244.344C75.7168 242.833 77.2441 241.449 77.5059 239.582C77.6326 238.68 77.4413 237.769 77.318 236.867C76.5832 231.472 79.3137 226.746 81.5042 222.036C82.6276 219.618 83.4763 217.24 84.0023 214.626C84.3943 212.676 84.3791 210.639 84.311 208.659C84.2453 206.753 83.6066 204.914 84.1419 203.01C84.1946 202.765 84.3103 202.538 84.4777 202.352C84.6702 202.164 84.939 202.082 85.1938 202C87.0433 201.371 88.6622 200.204 89.8424 198.648C91.2828 196.74 92.1034 194.222 94.173 193.026C93.4176 192.088 92.5613 191.237 91.6197 190.486Z" fill="#9B6921"/>
<path d="M84.0551 203.66H84.0011C81.3681 203.454 79.0883 202.145 76.5914 200.585C75.4058 199.842 74.2882 198.975 74.1474 197.664C74.1357 197.555 74.1678 197.446 74.2366 197.361C74.3054 197.276 74.4052 197.222 74.5142 197.21C74.6232 197.198 74.7323 197.23 74.8176 197.299C74.9029 197.368 74.9574 197.467 74.9691 197.576C75.0783 198.587 76.0914 199.3 77.0317 199.888C79.4346 201.391 81.6228 202.65 84.0692 202.841C84.3193 202.86 84.4284 202.815 84.446 202.798C84.4967 202.706 84.5803 202.637 84.6799 202.605C84.7795 202.573 84.8875 202.581 84.982 202.625C85.0765 202.67 85.1503 202.75 85.1883 202.847C85.2264 202.944 85.2258 203.052 85.1868 203.149C85.0612 203.405 84.7665 203.699 84.0551 203.66Z" fill="#E0AB41"/>
<path d="M83.1159 204.663C80.6718 204.526 78.4355 203.448 75.9926 202.164C74.7553 201.512 73.5767 200.731 73.3373 199.434C73.3175 199.327 73.3411 199.216 73.403 199.127C73.4649 199.037 73.5599 198.975 73.6671 198.956C73.7744 198.936 73.8851 198.959 73.9749 199.021C74.0647 199.083 74.1263 199.178 74.1461 199.285C74.3304 200.285 75.3939 200.927 76.3765 201.437C78.884 202.756 81.1602 203.85 83.6136 203.857C83.866 203.857 83.9658 203.805 83.9869 203.786C84.0054 203.735 84.0341 203.687 84.0713 203.647C84.1084 203.606 84.1533 203.574 84.2033 203.551C84.2533 203.528 84.3073 203.516 84.3622 203.514C84.4171 203.513 84.4717 203.522 84.5229 203.542C84.5741 203.562 84.6207 203.592 84.6601 203.63C84.6995 203.668 84.7308 203.714 84.7522 203.765C84.7736 203.815 84.7846 203.869 84.7846 203.924C84.7847 203.979 84.7737 204.034 84.7523 204.084C84.6478 204.356 84.3649 204.68 83.6113 204.677C83.4399 204.674 83.2744 204.669 83.1159 204.663Z" fill="#E0AB41"/>
<path d="M136.328 244.824C134.248 241.737 131.099 239.085 129.989 235.442C128.447 230.383 130.634 225.071 131.355 220.063C132.304 213.481 131.552 206.107 127.865 200.426C127.6 200.018 127.321 199.62 127.029 199.231C126.6 198.658 126.134 198.094 125.877 197.425C125.62 196.757 125.605 195.943 126.044 195.375C126.194 195.183 126.385 195.023 126.538 194.84C127.135 194.1 127.007 193.043 127.019 192.093C127.045 190.78 127.388 189.493 128.019 188.341C128.649 187.189 129.548 186.206 130.64 185.476L127.581 184.981C126.29 184.772 124.999 184.563 123.697 184.459C121.946 184.318 120.184 184.365 118.443 184.6C114.471 185.136 110.567 186.711 107.627 189.415C109.264 190.565 110.652 192.031 111.711 193.727C112.5 194.996 113.904 197.981 115.761 197.799C115.848 196.885 115.675 195.964 115.261 195.144C114.876 194.383 114.303 193.418 114.878 192.788C115.383 192.236 116.371 192.577 116.771 193.209C117.17 193.841 117.192 194.631 117.343 195.362C117.495 196.094 117.886 196.887 118.611 197.068C119.447 197.276 120.248 196.546 120.585 195.754C121.271 194.132 120.757 192.243 121.181 190.534C121.314 189.999 121.641 189.409 122.189 189.368C122.854 189.318 123.256 190.072 123.425 190.721C124.22 193.753 123.803 196.923 123.017 199.912C122.281 202.705 120.765 204.802 119.757 207.469C118.534 210.727 118.257 214.264 118.96 217.672C120.15 223.395 124.078 228.745 123.141 234.515C122.983 235.489 122.685 236.454 122.747 237.438C122.864 239.365 124.305 240.92 125.065 242.694C126.26 245.487 125.729 248.675 125.918 251.705C126.003 253.045 126.234 254.373 126.608 255.663C126.828 256.259 127.081 256.842 127.366 257.41C127.907 258.481 128.645 259.545 129.758 259.99C130.87 260.436 132.404 259.99 132.732 258.836C133.194 257.216 131.163 255.48 131.963 253.996C133.062 254.253 133.196 255.78 133.973 256.598C135.208 257.897 137.525 256.845 138.395 255.278C140.217 252.006 138.422 247.932 136.328 244.824Z" fill="#BA8831"/>
<path d="M125.067 242.696C124.306 240.921 122.868 239.366 122.748 237.439C122.686 236.455 122.983 235.49 123.143 234.517C124.082 228.747 120.152 223.396 118.961 217.673C118.259 214.265 118.535 210.728 119.758 207.47C120.767 204.803 122.282 202.706 123.018 199.913C123.805 196.925 124.221 193.755 123.427 190.722C123.258 190.078 122.855 189.314 122.191 189.37C121.642 189.411 121.315 190 121.182 190.535C120.758 192.244 121.273 194.133 120.586 195.755C120.249 196.547 119.448 197.28 118.613 197.069C117.887 196.888 117.497 196.097 117.345 195.364C117.192 194.631 117.172 193.839 116.772 193.21C116.372 192.582 115.384 192.237 114.88 192.789C114.304 193.419 114.88 194.384 115.262 195.145C115.676 195.966 115.85 196.886 115.762 197.801C113.905 197.982 112.501 194.998 111.712 193.729C110.654 192.033 109.265 190.567 107.628 189.418C107.34 189.683 107.06 189.96 106.789 190.248C108.762 191.598 109.389 194.172 110.68 196.183C111.739 197.824 113.265 199.111 115.061 199.878C115.309 199.983 115.571 200.085 115.748 200.287C115.901 200.485 115.999 200.72 116.033 200.968C116.424 202.908 115.646 204.693 115.435 206.588C115.216 208.557 115.046 210.587 115.289 212.562C115.614 215.208 116.281 217.643 117.217 220.14C119.039 225.002 121.406 229.919 120.269 235.245C120.078 236.135 119.817 237.029 119.876 237.942C119.993 239.819 121.412 241.319 122.423 242.912C124.83 246.706 125.044 251.474 126.614 255.671C126.24 254.381 126.008 253.054 125.924 251.713C125.729 248.674 126.262 245.488 125.067 242.696Z" fill="#9B6921"/>
<path d="M116.067 201.62H116.123C118.763 201.62 121.136 200.484 123.744 199.116C124.982 198.467 126.162 197.687 126.402 196.39C126.414 196.336 126.414 196.281 126.404 196.227C126.393 196.173 126.372 196.122 126.342 196.077C126.311 196.031 126.272 195.992 126.226 195.962C126.181 195.932 126.129 195.911 126.076 195.901C126.022 195.891 125.966 195.892 125.913 195.904C125.859 195.916 125.809 195.938 125.764 195.969C125.719 196.001 125.681 196.041 125.652 196.087C125.623 196.134 125.604 196.185 125.595 196.239C125.409 197.24 124.345 197.873 123.364 198.389C120.855 199.705 118.576 200.795 116.123 200.799C115.873 200.799 115.77 200.746 115.75 200.728C115.708 200.631 115.63 200.554 115.532 200.513C115.434 200.473 115.324 200.471 115.225 200.51C115.127 200.548 115.047 200.623 115.002 200.719C114.957 200.815 114.951 200.924 114.985 201.024C115.084 201.292 115.355 201.606 116.067 201.62Z" fill="#E0AB41"/>
<path d="M116.934 202.69C119.381 202.739 121.693 201.833 124.226 200.738C125.51 200.182 126.744 199.493 127.081 198.218C127.109 198.112 127.094 198 127.039 197.906C126.984 197.812 126.894 197.744 126.789 197.716C126.683 197.688 126.571 197.703 126.477 197.758C126.383 197.813 126.314 197.903 126.286 198.008C126.027 198.991 124.919 199.544 123.9 199.984C121.298 201.11 118.946 202.027 116.504 201.847C116.253 201.83 116.152 201.769 116.138 201.749C116.126 201.694 116.102 201.642 116.069 201.597C116.036 201.551 115.993 201.513 115.945 201.484C115.896 201.456 115.842 201.438 115.786 201.431C115.73 201.424 115.673 201.429 115.619 201.445C115.565 201.461 115.515 201.488 115.472 201.525C115.429 201.561 115.394 201.606 115.369 201.656C115.344 201.707 115.329 201.762 115.327 201.818C115.324 201.875 115.333 201.931 115.353 201.984C115.436 202.263 115.693 202.607 116.444 202.663C116.604 202.679 116.769 202.686 116.934 202.69Z" fill="#E0AB41"/>
<path d="M73.2175 238.205C72.0589 237.203 70.2088 236.887 68.6487 237.328C69.8379 236.696 71.1887 236.432 72.5284 236.571C71.3566 236.058 70.0966 235.777 68.8177 235.742C70.2335 234.966 72.0636 234.735 73.6425 235.224C75.2214 235.713 76.4868 236.948 76.7416 238.374C77.0022 239.824 76.0725 241.709 74.3304 242.136C73.619 240.902 74.7236 239.507 73.2175 238.205Z" fill="#9B6921"/>
<path d="M122.392 239.859C122.457 239.381 122.625 238.923 122.885 238.516C124.075 236.523 126.493 235.325 128.795 235.592C128.246 234.733 127.258 234.198 126.239 234.096C125.164 233.987 123.96 234.205 123.131 234.947C122.252 235.733 122.046 236.955 122.057 238.074C122.059 238.389 122.09 238.703 122.149 239.013C122.194 239.246 122.414 239.64 122.392 239.859Z" fill="#9B6921"/>
<path d="M64.7502 243.643C63.5176 245.016 61.6334 245.882 60.9479 247.594C60.7495 248.088 60.6591 248.649 60.3152 249.051C60.0686 249.344 59.7188 249.527 59.43 249.778C58.7163 250.398 58.4346 251.408 58.505 252.35C58.5754 253.291 58.9546 254.183 59.3831 255.025C59.585 255.422 59.8937 255.87 60.3398 255.846C60.5628 255.819 60.77 255.718 60.9268 255.557C61.7309 254.837 61.9903 253.703 62.5479 252.779C63.1055 251.855 64.3557 251.105 65.2279 251.742C65.7327 252.11 66.0356 252.888 66.6601 252.854C67.1074 252.829 67.3973 252.371 67.5335 251.945C67.8434 250.976 67.7683 249.934 67.8528 248.919C67.9844 247.292 68.5123 245.722 69.3906 244.345C70.176 243.119 71.5154 240.388 69.1558 239.82C67.0968 239.332 65.7996 242.472 64.7502 243.643Z" fill="#D69C47"/>
<path d="M68.5818 221.31C68.6511 221.816 69.0115 222.482 69.4751 222.267C70.1044 217.497 70.8392 212.635 73.0591 208.366C73.619 207.29 73.7728 204.603 71.9251 205.821C70.8028 206.561 70.075 209.268 69.663 210.47C68.4652 213.95 68.0951 217.661 68.5818 221.31Z" fill="#D69C47"/>
<path d="M75.1052 195.58C75.2144 195.924 75.4339 196.284 75.7896 196.341C76.2181 196.407 76.5726 195.981 76.6794 195.561C76.7862 195.142 76.7452 194.691 76.8884 194.283C77.0316 193.875 77.4753 193.508 77.8756 193.683C78.1656 193.81 78.2818 194.159 78.3229 194.474C78.4591 195.53 78.1163 196.585 78.1515 197.641C78.1609 197.955 78.3217 198.363 78.6316 198.316C78.7706 198.278 78.8904 198.189 78.9674 198.068C80.3279 196.386 81.071 194.102 80.5181 192.011C79.9652 189.92 77.9167 188.201 75.7626 188.409C73.8045 188.596 74.3387 189.601 74.7824 190.737C75.394 192.303 74.5946 193.978 75.1052 195.58Z" fill="#D69C47"/>
<path d="M120.601 216.635C120.819 217.907 121.235 219.201 122.127 220.129C122.174 220.19 122.233 220.241 122.3 220.278C122.367 220.316 122.441 220.339 122.518 220.347C122.768 220.339 122.896 220.049 122.949 219.806C123.406 217.721 122.688 215.511 123.143 213.425C123.278 212.807 123.514 212.214 123.638 211.593C123.964 209.965 122.464 207.863 121.129 209.751C119.977 211.381 120.286 214.796 120.601 216.635Z" fill="#D69C47"/>
<path d="M129.801 257.473C130.214 256.809 130.181 255.971 130.124 255.192C130.066 254.413 130.006 253.581 130.386 252.896C130.765 252.211 131.761 251.815 132.351 252.329C132.638 252.579 132.836 253.02 133.216 253.019C133.492 253.019 133.697 252.77 133.833 252.531C134.762 250.916 134.45 248.889 133.931 247.099C133.189 244.538 132.031 242.008 130.072 240.198C129.368 239.547 128.237 239.001 127.507 239.626C127.244 239.851 127.102 240.188 127.013 240.522C126.158 243.758 128.774 246.788 127.741 250.139C127.337 251.443 127.136 252.345 127.429 253.744C127.463 253.929 129.229 258.39 129.801 257.473Z" fill="#D69C47"/>
<path d="M135.646 251.422C135.436 252.008 135.13 252.604 135.176 253.23C135.222 253.857 135.847 254.486 136.431 254.256C136.707 254.147 136.888 253.886 137.031 253.628C137.591 252.616 137.829 251.456 137.711 250.305C137.647 249.706 137.16 248.461 136.322 248.939C135.775 249.253 135.839 250.871 135.646 251.422Z" fill="#D69C47"/>
<path d="M66.0743 255.271L64.7032 257.585C64.513 257.906 64.317 258.243 64.2876 258.614C64.2583 258.986 64.4485 259.405 64.8065 259.51C65.1234 259.603 65.4521 259.434 65.7386 259.27C66.4159 258.885 67.1391 258.449 67.4231 257.722C67.5311 257.413 67.5821 257.086 67.5734 256.759C67.5734 256.377 67.5358 255.977 67.3234 255.66C67.1109 255.344 66.6765 255.149 66.3326 255.308" fill="#D69C47"/>
<path d="M138.113 131.552C137.042 132.248 136.317 133.368 135.766 134.521C135.479 135.12 135.224 135.778 135.332 136.434C135.44 137.09 136.044 137.704 136.7 137.594C136.946 137.535 137.178 137.429 137.383 137.283L141.116 134.96C144.71 132.722 141.241 129.518 138.113 131.552Z" fill="#A6B1B2"/>
<path d="M112.741 158.402C113.694 157.402 114.971 156.77 116.346 156.618C117.72 156.466 119.104 156.804 120.254 157.572C119.836 156.628 119.111 155.854 118.197 155.375C119.003 155.377 119.798 155.557 120.526 155.903C120.37 155.286 119.775 154.884 119.183 154.647C117.746 154.07 116.269 154.042 115.01 154.966C114.436 155.388 113.942 155.908 113.549 156.502C113.353 156.799 113.185 157.113 113.046 157.441C112.954 157.666 112.897 158.239 112.741 158.402Z" fill="#A6B1B2"/>
<path d="M126.949 45.961C127.688 45.4509 129.315 44.5795 129.794 45.4004C131.157 47.7659 129.005 65.4068 120.727 73.0779C120.547 72.9598 120.38 72.8239 120.228 72.6721C119.024 71.4993 118.331 69.8575 117.395 68.4302C115.93 66.1949 113.889 64.5166 111.799 62.9287C116.515 54.9843 124.156 47.8937 126.949 45.961Z" fill="#A3BCC1"/>
<path d="M111.657 55.9299C114.028 53.1131 116.696 50.56 119.615 48.3151C122.247 46.2803 125.479 43.6415 128.685 42.9907C129.408 42.8429 130.093 42.9801 130.651 43.7365C131.484 44.8741 131.567 46.6403 131.576 48.0641C131.598 50.6782 131.011 53.2876 130.494 55.8583C129.802 59.2343 128.767 62.5306 127.403 65.6956C126.29 68.2874 124.922 70.8558 122.858 72.6865C122.506 72.9973 122.113 73.2963 121.671 73.3421C121.336 73.3646 121.004 73.2709 120.731 73.077C129.005 65.4118 131.157 47.7709 129.794 45.4007C129.315 44.5704 127.688 45.4464 126.95 45.9566C124.156 47.8893 116.515 54.9799 111.799 62.9231C111.338 62.5713 110.873 62.2265 110.412 61.8805C109.842 61.4525 109.228 60.9364 109.157 60.18C109.028 58.8126 110.847 56.8939 111.657 55.9299Z" fill="#8A9699"/>
<path d="M121.727 58.0586C123.715 55.7494 126.107 53.5868 127.105 50.8354C127.105 55.6004 122.228 59.5011 121.887 64.2555C121.813 65.2969 121.712 67.0631 119.993 66.9857C118.918 66.9376 118.662 66.0147 118.584 65.2266C118.345 62.6078 119.991 60.0746 121.727 58.0586Z" fill="#6A7375"/>
<path d="M75.2214 76.9225C75.2214 73.6751 73.8444 70.5895 72.0178 67.749C71.4042 68.3174 70.8138 68.9066 70.2464 69.5164C68.7713 71.1347 67.4136 72.856 66.1835 74.6672C66.1483 74.72 66.1131 74.7728 66.0767 74.8244C68.7003 76.7688 72.2714 78.3966 75.2214 76.9225Z" fill="#6A7375"/>
<path d="M119.067 92.7653C129.059 90.7434 128.099 79.5411 125.28 73.6936C122.153 67.2035 115.983 62.4749 109.163 60.1387C102.877 57.9867 96.0794 57.7205 89.4691 58.5179C82.9528 60.1246 76.8485 63.2947 72.0953 67.6726L72.0143 67.7488C73.8409 70.5846 75.2179 73.6749 75.2179 76.9223C72.2679 78.3965 68.6969 76.7687 66.0732 74.8242C64.4731 77.1768 62.9999 79.7498 62.0819 82.0884C64.0423 82.3405 65.6412 83.0665 66.6977 83.9202C65.1798 84.5524 62.967 85.4366 61.3224 87.5852C62.9036 87.3952 65.7492 87.9006 66.8245 88.7849C66.0391 89.2071 64.4215 89.9225 63.662 90.9334C67.3304 92.4498 70.588 97.0881 72.6424 100.094C79.3465 109.887 87.1565 109.968 95.8199 110.122C104.557 110.28 116.276 108.9 122.525 102.147C122.76 101.897 122.984 101.639 123.199 101.373C123.621 100.848 124.008 100.295 124.358 99.7187C124.369 97.2863 116.639 93.2567 119.067 92.7653Z" fill="#8A9699"/>
<path d="M134.181 84.5527C132.713 83.3623 131.217 80.3588 130.565 78.5856C127.589 70.4935 121.222 63.7031 113.33 60.2118C105.891 56.9198 97.3765 56.5679 89.4691 58.5183C96.0782 57.7208 102.876 57.987 109.161 60.139C115.982 62.4752 122.152 67.2038 125.279 73.694C128.096 79.5414 129.058 90.7438 119.066 92.7656C116.638 93.257 124.368 97.2867 124.363 99.7237C127.15 95.1909 128.676 88.7301 133.042 87.3322C132.094 86.4479 131.145 86.0058 130.05 85.885C130.956 85.0581 132.411 84.4894 134.181 84.5527Z" fill="#6A7375"/>
<path d="M113.326 107.991C116.937 107.604 121.001 106.992 124.517 108.461C124.596 108.236 124.712 108.027 124.861 107.843C125.416 107.162 126.325 106.904 127.179 106.699C130.94 105.798 134.778 105.255 138.642 105.075C136.515 102.037 133.242 99.5862 130.526 97.3345C124.642 92.4393 124.158 92.1813 118.576 86.9425C116.888 85.3593 115.191 83.6939 114.209 81.5618C113.74 80.5298 113.768 80.2777 112.662 79.9422C111.461 79.5775 110.079 79.5189 108.83 79.4872C103.765 79.3559 98.7935 80.9192 94.1566 82.8214C87.8703 85.3921 81.5441 88.9456 78.1621 94.84C77.4578 96.062 76.8931 97.4013 76.8379 98.8075C76.7205 101.96 80.7834 107.017 83.4635 108.687C84.6961 109.454 90.3378 111.126 96.7474 112.778C98.2123 112.506 99.6548 112.125 101.063 111.638C105.151 110.179 109.093 108.429 113.326 107.991Z" fill="#8A9699"/>
<path d="M124.986 111.167C124.436 110.393 124.207 109.329 124.516 108.461C121 106.993 116.936 107.605 113.325 107.992C109.092 108.429 105.15 110.179 101.061 111.638C99.6535 112.125 98.211 112.506 96.7461 112.778C104.535 114.785 113.457 116.758 116.976 117.035C124.422 117.622 124.841 116.483 130.771 115.644C131.213 115.582 131.71 115.499 132.251 115.391C130.741 114.758 129.26 114.062 127.806 113.305C126.751 112.753 125.675 112.139 124.986 111.167Z" fill="#A6B1B2"/>
<path d="M140.106 107.728C139.721 106.791 139.23 105.901 138.642 105.075C134.777 105.255 130.937 105.799 127.175 106.699C126.322 106.904 125.414 107.169 124.858 107.843C124.105 108.766 124.293 110.194 124.982 111.167C125.671 112.139 126.743 112.753 127.799 113.305C129.252 114.062 130.733 114.758 132.244 115.391C136.201 114.602 142.025 112.509 140.106 107.728Z" fill="#4A5456"/>
<path d="M88.2963 55.5685C85.5766 52.7054 82.5248 50.1767 79.2056 48.0357C76.1969 46.076 72.5355 43.5417 68.6029 42.9787C67.706 42.8497 66.7986 43.0034 65.9475 43.7821C64.6445 44.9725 64.1867 46.8172 63.8909 48.3336C63.3297 51.1882 63.5845 54.0802 63.7735 57.0239C64.0447 61.0827 64.8466 65.0885 66.1588 68.9393C67.2729 72.2442 68.8025 75.5549 71.5412 77.7515C72.0108 78.1256 72.5425 78.4751 73.1917 78.4552C73.6847 78.4399 74.1707 78.2136 74.6203 77.8981C63.8486 68.7997 64.5165 47.9982 66.7552 45.4615C67.5229 44.5937 69.4681 45.4322 70.3321 45.9306C73.6073 47.8071 82.4116 54.9 87.7552 63.4882C88.3539 63.025 88.9514 62.5711 89.5395 62.1196C90.2603 61.5672 91.0315 60.9163 91.1442 60.0543C91.345 58.5098 89.2272 56.5583 88.2963 55.5685Z" fill="#8A9699"/>
<path d="M71.8851 63.1744C72.2399 63.9769 72.7542 64.699 73.397 65.2967C74.0397 65.8945 74.7974 66.3555 75.624 66.6516C72.1246 62.8753 73.2656 56.3664 69.6535 53.0779C71.7818 53.7253 73.4288 55.2992 74.0498 57.2929C74.2033 55.9915 74.1994 54.6763 74.0381 53.3758C75.8177 55.8891 76.8859 58.9465 77.1066 62.2502C77.276 60.8408 77.7834 59.493 78.5858 58.3214C78.7114 60.3831 79.0389 62.4742 79.8501 64.3929C80.4413 65.7916 81.3381 67.0406 82.4749 68.0484C84.1336 66.3514 85.9544 64.8819 87.7575 63.4887C82.4115 54.9004 73.6072 47.8075 70.3344 45.9287C69.4704 45.4326 67.5252 44.5941 66.7575 45.4596C64.513 47.9963 63.845 68.7978 74.6227 77.8962C74.9023 77.6959 75.1656 77.474 75.4103 77.2324C77.1125 75.5788 78.2442 73.5206 79.519 71.6476C77.8286 71.0073 76.225 70.1852 74.8938 69.0288C73.1799 67.5488 71.9638 65.4906 71.8851 63.1744Z" fill="#A3BCC1"/>
<path d="M82.475 68.0481C81.3382 67.0403 80.4414 65.7913 79.8501 64.3926C79.0389 62.4739 78.7114 60.3828 78.5858 58.3211C77.7834 59.4927 77.276 60.8405 77.1067 62.2499C76.886 58.9462 75.8154 55.8888 74.0381 53.3755C74.1994 54.676 74.2034 55.9912 74.0498 57.2926C73.4288 55.2989 71.7819 53.725 69.6536 53.0776C73.2657 56.3614 72.1246 62.8703 75.624 66.6513C74.7974 66.3552 74.0398 65.8942 73.397 65.2964C72.7543 64.6987 72.2399 63.9766 71.8852 63.174C71.9662 65.4903 73.1765 67.5485 74.888 69.0309C76.2192 70.1872 77.8228 71.0093 79.5132 71.6497C79.6541 71.4425 79.7977 71.2373 79.944 71.034C80.7118 69.9769 81.5578 68.9788 82.475 68.0481Z" fill="#6A7375"/>
<path d="M95.2166 92.444C100.978 92.444 105.649 87.7777 105.649 82.0216C105.649 76.2654 100.978 71.5991 95.2166 71.5991C89.4548 71.5991 84.7841 76.2654 84.7841 82.0216C84.7841 87.7777 89.4548 92.444 95.2166 92.444Z" fill="#6A7375"/>
<path d="M96.2296 90.1325C101.631 90.1325 106.011 85.7576 106.011 80.3609C106.011 74.9642 101.631 70.5894 96.2296 70.5894C90.8277 70.5894 86.4486 74.9642 86.4486 80.3609C86.4486 85.7576 90.8277 90.1325 96.2296 90.1325Z" fill="white"/>
<path d="M98.217 83.3212C99.631 83.3212 100.777 82.176 100.777 80.7634C100.777 79.3507 99.631 78.2056 98.217 78.2056C96.803 78.2056 95.6567 79.3507 95.6567 80.7634C95.6567 82.176 96.803 83.3212 98.217 83.3212Z" fill="#1A1A1A"/>
<path d="M92.4438 74.2508C95.8587 77.2203 100.855 79.3055 105.218 77.4091C105.751 77.1675 106.23 76.8218 106.627 76.3923C106.086 74.7192 105.174 73.1898 103.958 71.9186C102.743 70.6474 101.255 69.6672 99.6069 69.0513C97.9586 68.4355 96.1922 68.2 94.4399 68.3623C92.6876 68.5247 90.9947 69.0808 89.4879 69.989C89.8988 71.6766 91.1267 73.0968 92.4438 74.2508Z" fill="#6A7375"/>
<path d="M106.621 76.396C106.224 76.8255 105.745 77.1712 105.212 77.4128C100.849 79.3092 95.8528 77.224 92.4379 74.2545C91.1208 73.097 89.8929 71.6744 89.482 69.9927C88.4888 70.5923 87.5907 71.3366 86.8173 72.201C92.5858 77.3178 99.5682 80.6121 106.974 82.1555C107.232 80.8006 107.247 79.4108 107.018 78.0508C106.926 77.4904 106.793 76.9373 106.621 76.396Z" fill="#505A5B"/>
<path d="M123.245 88.1553C127.818 88.1553 131.525 84.4515 131.525 79.8826C131.525 75.3137 127.818 71.6099 123.245 71.6099C118.671 71.6099 114.964 75.3137 114.964 79.8826C114.964 84.4515 118.671 88.1553 123.245 88.1553Z" fill="#6A7375"/>
<path d="M123.056 86.5697C127.247 86.5697 130.645 83.1752 130.645 78.9877C130.645 74.8003 127.247 71.4058 123.056 71.4058C118.864 71.4058 115.466 74.8003 115.466 78.9877C115.466 83.1752 118.864 86.5697 123.056 86.5697Z" fill="white"/>
<path d="M121.566 81.4774C122.663 81.4774 123.552 80.589 123.552 79.4931C123.552 78.3972 122.663 77.5088 121.566 77.5088C120.469 77.5088 119.58 78.3972 119.58 79.4931C119.58 80.589 120.469 81.4774 121.566 81.4774Z" fill="#1A1A1A"/>
<path d="M124.797 74.23C122.462 76.8523 118.823 78.9504 115.277 77.9219C114.845 77.788 114.444 77.5691 114.098 77.278C114.349 75.9378 114.899 74.6716 115.709 73.574C116.518 72.4763 117.566 71.5756 118.773 70.9391C119.98 70.3026 121.315 69.9468 122.679 69.8983C124.043 69.8498 125.4 70.1098 126.649 70.6589C126.5 71.9947 125.695 73.2097 124.797 74.23Z" fill="#6A7375"/>
<path d="M114.098 77.2778C114.445 77.5693 114.847 77.7882 115.281 77.9217C118.826 78.9502 122.465 76.8521 124.8 74.2298C125.698 73.2095 126.503 71.9945 126.653 70.6587C127.476 71.0221 128.241 71.5063 128.922 72.0953C124.988 76.6023 119.94 79.8263 114.393 81.7461C113.924 80.3044 113.824 78.7683 114.101 77.2778H114.098Z" fill="#505A5B"/>
<path d="M101.05 66.8627C100.127 67.3682 98.9813 67.2931 97.9847 66.9553C96.988 66.6176 96.0924 66.0429 95.1591 65.5562C93.0009 64.4338 90.6292 63.7807 88.2002 63.6399C90.7382 62.4671 93.7798 61.8807 96.3001 63.0875C95.9427 62.4795 95.4037 61.9984 94.7588 61.7119C96.1581 61.6122 97.5856 61.5184 98.9449 61.8632C100.946 62.3698 103.988 65.2501 101.05 66.8627Z" fill="#505A5B"/>
<path d="M117.582 67.0618C118.442 67.3245 119.387 67.0618 120.164 66.6056C120.942 66.1493 121.587 65.5125 122.277 64.9437C123.885 63.6287 125.754 62.6693 127.761 62.1291C125.433 61.5861 122.788 61.626 120.892 63.079C121.084 62.5085 121.45 62.0126 121.939 61.6611C120.753 61.8206 119.542 61.9919 118.467 62.5173C116.883 63.2901 114.844 66.2279 117.582 67.0618Z" fill="#505A5B"/>
<path d="M79.6741 83.5161C79.1384 85.1012 78.9224 86.7765 79.0385 88.4454C79.1545 90.1143 79.6004 91.7438 80.3503 93.2396C78.3876 93.0632 76.5522 92.1938 75.1733 90.7873C79.7328 103.946 95.6685 101.545 103.729 96.039C95.6685 97.4393 84.8287 97.2786 81.4021 90.5809C80.2869 88.4042 79.8913 85.9309 79.6741 83.5161Z" fill="#A6B1B2"/>
<path d="M130.18 108.331C129.801 108.572 129.441 108.926 129.404 109.374C129.348 110.059 130.062 110.565 130.732 110.718C130.994 110.792 131.271 110.792 131.534 110.718C132.091 110.532 132.334 109.897 132.708 109.439C133.385 108.594 134.365 108.566 135.254 108.149C134.255 106.971 131.273 107.634 130.18 108.331Z" fill="white"/>
<path d="M118.952 90.1899L127.565 99.9158C128.243 100.682 130.975 104.403 132.163 103.698C133.169 103.101 129.638 100.062 129.016 99.422C127.422 97.7942 125.787 96.2106 124.109 94.6711C122.476 93.1735 120.412 91.8424 118.952 90.1899Z" fill="#A6B1B2"/>
</svg>
