<svg width="24" height="24" viewBox="0 0 24 24" fill="none" xmlns="http://www.w3.org/2000/svg">
<circle cx="12" cy="12" r="12" fill="#D7A01F"/>
<path d="M21.7778 10.7824C21.7778 12.2252 17.4996 15.1109 12.2222 15.1109C6.94486 15.1109 2.66669 12.2252 2.66669 10.7824C2.66669 5.31824 6.94486 0.888672 12.2222 0.888672C17.4996 0.888672 21.7778 5.31824 21.7778 10.7824Z" fill="#FABC29"/>
<path d="M11.9936 24C9.22561 23.9981 6.54337 23.0395 4.40119 21.2866C2.25901 19.5337 0.788584 17.0942 0.238982 14.3813C-0.310621 11.6684 0.0943862 8.849 1.3854 6.40054C2.67642 3.95208 4.77407 2.02513 7.32306 0.946086C10.2551 -0.292614 13.5592 -0.315818 16.5084 0.881579C19.4575 2.07898 21.8103 4.39889 23.049 7.33096C24.2877 10.263 24.3109 13.5671 23.1135 16.5163C21.9161 19.4655 19.5962 21.8182 16.6641 23.0569C15.1866 23.6823 13.598 24.003 11.9936 24ZM11.9936 0.990525C5.922 0.990525 0.982622 5.9299 0.982622 12.0015C0.982622 18.0731 5.922 23.0124 11.9936 23.0124C18.0652 23.0124 23.0045 18.0731 23.0045 12.0015C23.0045 5.9299 18.0652 0.990525 11.9936 0.990525Z" fill="white"/>
<path d="M12.2965 20.7334C11.88 20.0221 11.4492 19.2864 10.8122 18.8112C10.5407 18.6095 10.2294 18.4514 9.89878 18.2841L9.85953 18.2643C8.7172 17.6859 7.54501 17.0269 6.86485 15.9021C6.49452 15.2884 6.30739 14.569 6.32541 13.8194C6.34343 13.0699 6.56513 12.3606 6.96557 11.7656L7.78473 12.3172C7.18505 13.2082 7.15419 14.4722 7.71066 15.3911C8.25603 16.2932 9.24973 16.8477 10.3064 17.3832L10.3454 17.4029C10.6987 17.5819 11.0641 17.7668 11.4033 18.0201C12.2007 18.6149 12.7046 19.4767 13.1492 20.2349L12.2965 20.7334Z" fill="white"/>
<path d="M12.7241 20.9838C12.6087 20.9839 12.4969 20.9437 12.4081 20.87C12.3193 20.7963 12.2591 20.6938 12.238 20.5804C12.2169 20.4669 12.2361 20.3497 12.2925 20.249C12.3488 20.1483 12.4386 20.0705 12.5464 20.0291C14.5577 19.2544 16.1597 18.4858 17.6768 17.5642C17.3709 16.8482 17.2263 16.096 17.0858 15.3645C17.0611 15.2297 17.0332 15.0907 17.006 14.9554C16.2718 11.2929 15.4166 8.8574 14.4646 7.71606C14.3019 7.52127 14.1755 7.50498 14.0247 7.54152C13.9279 7.5662 13.8343 7.64422 13.7748 7.7526C13.7153 7.86098 13.6993 7.97751 13.7287 8.07108L13.7324 8.08244C13.7736 8.20684 13.7637 8.34253 13.7049 8.45964C13.6461 8.57676 13.5431 8.66571 13.4187 8.70693C13.2943 8.74814 13.1586 8.73825 13.0415 8.67943C12.9244 8.62061 12.8354 8.51767 12.7942 8.39326L12.7898 8.37944C12.6932 8.09478 12.3839 7.75828 12.0435 7.8558C11.9282 7.88888 11.8242 7.99158 11.7652 8.13083C11.7198 8.23146 11.7088 8.34429 11.7341 8.45177C11.7552 8.49572 11.7739 8.54065 11.7904 8.58657C11.8325 8.70394 11.8287 8.83291 11.7797 8.94757C11.7306 9.06223 11.64 9.15409 11.5261 9.2047C11.4121 9.25531 11.2832 9.26092 11.1653 9.22041C11.0473 9.17989 10.9491 9.09624 10.8903 8.98627C10.8654 8.93982 10.8434 8.89192 10.8243 8.84283C10.752 8.72717 10.6445 8.63765 10.5177 8.58731C10.3533 8.51868 10.1743 8.51497 10.0393 8.57793C9.90422 8.64088 9.79238 8.77963 9.73831 8.94973C9.69609 9.07731 9.69471 9.21487 9.73436 9.34327C9.75362 9.38474 9.77238 9.424 9.79041 9.46152C9.84597 9.57664 9.85472 9.70882 9.81482 9.83026C9.77492 9.9517 9.68947 10.0529 9.57646 10.1127C9.46345 10.1724 9.33168 10.186 9.20886 10.1506C9.08604 10.1151 8.98175 10.0334 8.91792 9.9227C8.88078 9.85863 8.84867 9.79177 8.82188 9.72272C8.72955 9.52522 8.62438 9.28994 8.50834 9.02824C8.21628 8.37203 7.85016 7.55411 7.4823 6.86111C6.94533 5.85037 6.65821 5.59633 6.5597 5.53412C6.41602 5.44326 6.28196 5.41067 6.20073 5.44968C6.12346 5.48573 6.06446 5.60324 6.04273 5.76396C6.01113 5.999 6.03977 6.83469 6.98533 9.51238C7.56945 11.1665 8.23677 12.7712 8.5081 13.3884C8.56074 13.5084 8.56359 13.6443 8.51602 13.7663C8.46844 13.8883 8.37435 13.9864 8.25443 14.0391C8.1345 14.0917 7.99858 14.0946 7.87656 14.047C7.75454 13.9994 7.65641 13.9053 7.60377 13.7854C7.32751 13.1561 6.64808 11.5218 6.05409 9.84024C4.92707 6.65002 5.0315 5.88395 5.06409 5.63163C5.13173 5.12849 5.39392 4.7357 5.78301 4.55399C6.17629 4.37056 6.65179 4.42314 7.08729 4.69867C7.74326 5.11343 8.41379 6.42684 9.14629 8.038C9.27993 7.88896 9.44223 7.76838 9.62351 7.68347C10.0086 7.50424 10.4696 7.50053 10.8895 7.67311C11.073 7.29291 11.3909 7.01566 11.7724 6.90629C12.1936 6.78581 12.6318 6.86062 13.0107 7.11737C13.1993 6.85246 13.4756 6.66285 13.7906 6.58213C14.3338 6.4498 14.8426 6.6278 15.2226 7.0833C15.8578 7.84494 16.4478 9.07935 16.9754 10.7525C17.3332 11.8849 17.6595 13.1966 17.9733 14.7613C18.0012 14.9003 18.0284 15.0416 18.0545 15.1781C18.216 16.0175 18.3686 16.8122 18.7475 17.517C18.8067 17.6273 18.8217 17.7559 18.7896 17.8769C18.7575 17.9978 18.6807 18.1021 18.5747 18.1686C16.914 19.2158 15.1105 20.0989 12.9014 20.9507C12.8448 20.9725 12.7847 20.9838 12.7241 20.9838Z" fill="white"/>
</svg>
